<svg width="60" height="60" viewBox="0 0 60 60" fill="none" xmlns="http://www.w3.org/2000/svg">
<rect width="60" height="60" rx="30" fill="#F15D26"/>
<g clip-path="url(#clip0_434_9258)">
<path d="M24.3225 22.0252C24.31 21.3835 24.8194 20.875 25.4606 20.8887L37.6571 21.1566C37.6749 21.157 37.6933 21.1584 37.7111 21.1606L37.8384 21.1764C37.8557 21.1786 37.8733 21.1817 37.8904 21.1856C38.4212 21.3052 38.8311 21.7804 38.8434 22.3429L39.1106 34.5387C39.1237 35.1401 38.6782 35.6254 38.0936 35.6734L37.9748 35.6775C37.3331 35.6645 36.7996 35.1335 36.7855 34.491L36.5783 25.0999L23.17 38.5321L23.0834 38.6097C22.6346 38.9728 21.9615 38.9311 21.5273 38.4981C21.0635 38.035 21.0464 37.2987 21.4903 36.8538L34.9015 23.4188L25.5082 23.2138C24.9058 23.2004 24.402 22.731 24.3309 22.1436L24.3225 22.0252Z" fill="#FEFEFE"/>
</g>
<defs>
<clipPath id="clip0_434_9258">
<rect width="28" height="28" fill="white" transform="translate(16 16)"/>
</clipPath>
</defs>
</svg>
