<svg width="76" height="33" viewBox="0 0 76 33" fill="none" xmlns="http://www.w3.org/2000/svg">
<mask id="path-1-outside-1_559_514" maskUnits="userSpaceOnUse" x="-0.224609" y="-0.819946" width="77" height="34" fill="black">
<rect fill="white" x="-0.224609" y="-0.819946" width="77" height="34"/>
<path d="M19.9754 5.94005H6.57539V13.9001C7.13539 13.1534 7.96206 12.5267 9.05539 12.0201C10.1754 11.5134 11.3621 11.2601 12.6154 11.2601C14.8554 11.2601 16.6687 11.7401 18.0554 12.7001C19.4687 13.6601 20.4687 14.8734 21.0554 16.3401C21.6687 17.8067 21.9754 19.3534 21.9754 20.9801C21.9754 22.9534 21.5887 24.7134 20.8154 26.2601C20.0687 27.7801 18.9354 28.9801 17.4154 29.8601C15.9221 30.7401 14.0821 31.1801 11.8954 31.1801C8.98872 31.1801 6.65539 30.4601 4.89539 29.0201C3.13539 27.5801 2.08206 25.6734 1.73539 23.3001H6.17539C6.46872 24.5534 7.12206 25.5534 8.13539 26.3001C9.14872 27.0201 10.4154 27.3801 11.9354 27.3801C13.8287 27.3801 15.2421 26.8067 16.1754 25.6601C17.1354 24.5134 17.6154 22.9934 17.6154 21.1001C17.6154 19.1801 17.1354 17.7134 16.1754 16.7001C15.2154 15.6601 13.8021 15.1401 11.9354 15.1401C10.6287 15.1401 9.52206 15.4734 8.61539 16.1401C7.73539 16.7801 7.09539 17.6601 6.69539 18.7801H2.37539V1.94005H19.9754V5.94005ZM26.7223 16.2201C26.7223 11.6067 27.4956 8.00672 29.0423 5.42005C30.6156 2.80672 33.3089 1.50005 37.1223 1.50005C40.9356 1.50005 43.6156 2.80672 45.1623 5.42005C46.7356 8.00672 47.5223 11.6067 47.5223 16.2201C47.5223 20.8867 46.7356 24.5401 45.1623 27.1801C43.6156 29.7934 40.9356 31.1001 37.1223 31.1001C33.3089 31.1001 30.6156 29.7934 29.0423 27.1801C27.4956 24.5401 26.7223 20.8867 26.7223 16.2201ZM43.0423 16.2201C43.0423 14.0601 42.8956 12.2334 42.6023 10.7401C42.3356 9.24672 41.7756 8.03339 40.9223 7.10005C40.0689 6.14005 38.8023 5.66005 37.1223 5.66005C35.4423 5.66005 34.1756 6.14005 33.3223 7.10005C32.4689 8.03339 31.8956 9.24672 31.6023 10.7401C31.3356 12.2334 31.2023 14.0601 31.2023 16.2201C31.2023 18.4601 31.3356 20.3401 31.6023 21.8601C31.8689 23.3801 32.4289 24.6067 33.2823 25.5401C34.1623 26.4734 35.4423 26.9401 37.1223 26.9401C38.8023 26.9401 40.0689 26.4734 40.9223 25.5401C41.8023 24.6067 42.3756 23.3801 42.6423 21.8601C42.9089 20.3401 43.0423 18.4601 43.0423 16.2201ZM74.4273 18.6601H66.3473V26.9401H62.1073V18.6601H54.0273V14.8201H62.1073V6.54005H66.3473V14.8201H74.4273V18.6601Z"/>
</mask>
<path d="M19.9754 5.94005V7.44005H21.4754V5.94005H19.9754ZM6.57539 5.94005V4.44005H5.07539V5.94005H6.57539ZM6.57539 13.9001H5.07539V18.4001L7.77539 14.8001L6.57539 13.9001ZM9.05539 12.0201L8.43711 10.6533L8.4247 10.6591L9.05539 12.0201ZM18.0554 12.7001L17.2015 13.9334L17.2126 13.9409L18.0554 12.7001ZM21.0554 16.3401L19.6627 16.8971L19.667 16.908L19.6715 16.9188L21.0554 16.3401ZM20.8154 26.2601L19.4737 25.5892L19.4691 25.5987L20.8154 26.2601ZM17.4154 29.8601L16.6638 28.5619L16.6539 28.5677L17.4154 29.8601ZM4.89539 29.0201L5.84525 27.8591V27.8591L4.89539 29.0201ZM1.73539 23.3001V21.8001H0.000372171L0.251141 23.5169L1.73539 23.3001ZM6.17539 23.3001L7.63592 22.9582L7.36486 21.8001H6.17539V23.3001ZM8.13539 26.3001L7.24559 27.5076L7.25602 27.5153L7.26658 27.5228L8.13539 26.3001ZM16.1754 25.6601L15.0253 24.6971L15.0186 24.7051L15.012 24.7131L16.1754 25.6601ZM16.1754 16.7001L15.0732 17.7175L15.0798 17.7246L15.0865 17.7317L16.1754 16.7001ZM8.61539 16.1401L9.49766 17.3532L9.50398 17.3485L8.61539 16.1401ZM6.69539 18.7801V20.2801H7.75247L8.108 19.2846L6.69539 18.7801ZM2.37539 18.7801H0.875391V20.2801H2.37539V18.7801ZM2.37539 1.94005V0.440054H0.875391V1.94005H2.37539ZM19.9754 1.94005H21.4754V0.440054H19.9754V1.94005ZM19.9754 5.94005V4.44005H6.57539V5.94005V7.44005H19.9754V5.94005ZM6.57539 5.94005H5.07539V13.9001H6.57539H8.07539V5.94005H6.57539ZM6.57539 13.9001L7.77539 14.8001C8.14958 14.3011 8.75406 13.8129 9.68608 13.381L9.05539 12.0201L8.4247 10.6591C7.17005 11.2405 6.1212 12.0056 5.37539 13.0001L6.57539 13.9001ZM9.05539 12.0201L9.67364 13.3867C10.5955 12.9697 11.571 12.7601 12.6154 12.7601V11.2601V9.76005C11.1531 9.76005 9.75528 10.0571 8.43714 10.6534L9.05539 12.0201ZM12.6154 11.2601V12.7601C14.6489 12.7601 16.1362 13.1958 17.2016 13.9333L18.0554 12.7001L18.9092 11.4668C17.2012 10.2843 15.0618 9.76005 12.6154 9.76005V11.2601ZM18.0554 12.7001L17.2126 13.9409C18.3997 14.7472 19.1962 15.7309 19.6627 16.8971L21.0554 16.3401L22.4481 15.783C21.7413 14.0159 20.5378 12.5729 18.8982 11.4592L18.0554 12.7001ZM21.0554 16.3401L19.6715 16.9188C20.2064 18.1978 20.4754 19.5474 20.4754 20.9801H21.9754H23.4754C23.4754 19.1594 23.1311 17.4156 22.4393 15.7613L21.0554 16.3401ZM21.9754 20.9801H20.4754C20.4754 22.7536 20.1291 24.2785 19.4738 25.5892L20.8154 26.2601L22.157 26.9309C23.0483 25.1483 23.4754 23.1532 23.4754 20.9801H21.9754ZM20.8154 26.2601L19.4691 25.5987C18.8583 26.842 17.937 27.8248 16.6638 28.5619L17.4154 29.8601L18.1669 31.1582C19.9338 30.1353 21.2791 28.7181 22.1617 26.9214L20.8154 26.2601ZM17.4154 29.8601L16.6539 28.5677C15.4443 29.2805 13.8834 29.6801 11.8954 29.6801V31.1801V32.6801C14.2808 32.6801 16.3998 32.1996 18.1769 31.1524L17.4154 29.8601ZM11.8954 31.1801V29.6801C9.23686 29.6801 7.27005 29.0249 5.84525 27.8591L4.89539 29.0201L3.94553 30.181C6.04074 31.8952 8.74059 32.6801 11.8954 32.6801V31.1801ZM4.89539 29.0201L5.84525 27.8591C4.39186 26.67 3.51546 25.1085 3.21964 23.0833L1.73539 23.3001L0.251141 23.5169C0.648659 26.2383 1.87892 28.4901 3.94553 30.181L4.89539 29.0201ZM1.73539 23.3001V24.8001H6.17539V23.3001V21.8001H1.73539V23.3001ZM6.17539 23.3001L4.71486 23.6419C5.08745 25.2339 5.93811 26.5442 7.24559 27.5076L8.13539 26.3001L9.02519 25.0925C8.30601 24.5625 7.85 23.8729 7.63592 22.9582L6.17539 23.3001ZM8.13539 26.3001L7.26658 27.5228C8.58569 28.4601 10.1745 28.8801 11.9354 28.8801V27.3801V25.8801C10.6563 25.8801 9.71176 25.58 9.0042 25.0773L8.13539 26.3001ZM11.9354 27.3801V28.8801C14.1427 28.8801 16.0439 28.1977 17.3387 26.607L16.1754 25.6601L15.012 24.7131C14.4402 25.4157 13.5148 25.8801 11.9354 25.8801V27.3801ZM16.1754 25.6601L17.3255 26.623C18.5663 25.1409 19.1154 23.2495 19.1154 21.1001H17.6154H16.1154C16.1154 22.7373 15.7044 23.8859 15.0253 24.6971L16.1754 25.6601ZM17.6154 21.1001H19.1154C19.1154 18.9423 18.574 17.0509 17.2643 15.6684L16.1754 16.7001L15.0865 17.7317C15.6968 18.3759 16.1154 19.4178 16.1154 21.1001H17.6154ZM16.1754 16.7001L17.2776 15.6826C15.9508 14.2452 14.0805 13.6401 11.9354 13.6401V15.1401V16.6401C13.5236 16.6401 14.48 17.0749 15.0732 17.7175L16.1754 16.7001ZM11.9354 15.1401V13.6401C10.3624 13.6401 8.93095 14.0462 7.7268 14.9316L8.61539 16.1401L9.50398 17.3485C10.1132 16.9006 10.895 16.6401 11.9354 16.6401V15.1401ZM8.61539 16.1401L7.73313 14.9269C6.5864 15.7609 5.7744 16.899 5.28278 18.2755L6.69539 18.7801L8.108 19.2846C8.41639 18.4211 8.88438 17.7992 9.49765 17.3532L8.61539 16.1401ZM6.69539 18.7801V17.2801H2.37539V18.7801V20.2801H6.69539V18.7801ZM2.37539 18.7801H3.87539V1.94005H2.37539H0.875391V18.7801H2.37539ZM2.37539 1.94005V3.44005H19.9754V1.94005V0.440054H2.37539V1.94005ZM19.9754 1.94005H18.4754V5.94005H19.9754H21.4754V1.94005H19.9754ZM29.0423 5.42005L27.7572 4.64638L27.7549 4.65026L29.0423 5.42005ZM45.1623 5.42005L43.8714 6.18403L43.876 6.19182L43.8807 6.19955L45.1623 5.42005ZM45.1623 27.1801L43.8737 26.4121L43.8714 26.4161L45.1623 27.1801ZM29.0423 27.1801L27.748 27.9383L27.7526 27.946L27.7572 27.9537L29.0423 27.1801ZM42.6023 10.7401L41.1256 11.0037L41.1279 11.0165L41.1304 11.0292L42.6023 10.7401ZM40.9223 7.10005L39.8012 8.0966L39.8081 8.10445L39.8152 8.11221L40.9223 7.10005ZM33.3223 7.10005L34.4293 8.11221L34.4364 8.10445L34.4434 8.0966L33.3223 7.10005ZM31.6023 10.7401L30.1304 10.4509L30.1279 10.4636L30.1256 10.4764L31.6023 10.7401ZM31.6023 21.8601L33.0797 21.6009V21.6009L31.6023 21.8601ZM33.2823 25.5401L32.1752 26.5522L32.183 26.5607L32.1909 26.5691L33.2823 25.5401ZM40.9223 25.5401L39.8309 24.511L39.823 24.5194L39.8152 24.5279L40.9223 25.5401ZM42.6423 21.8601L44.1197 22.1193V22.1193L42.6423 21.8601ZM26.7223 16.2201H28.2223C28.2223 11.7453 28.9772 8.45166 30.3297 6.18984L29.0423 5.42005L27.7549 4.65026C26.014 7.56178 25.2223 11.4682 25.2223 16.2201H26.7223ZM29.0423 5.42005L30.3273 6.19372C31.5592 4.14766 33.683 3.00005 37.1223 3.00005V1.50005V5.14984e-05C32.9349 5.14984e-05 29.672 1.46578 27.7572 4.64638L29.0423 5.42005ZM37.1223 1.50005V3.00005C40.5624 3.00005 42.6661 4.14748 43.8714 6.18403L45.1623 5.42005L46.4531 4.65607C44.5651 1.46596 41.3088 5.14984e-05 37.1223 5.14984e-05V1.50005ZM45.1623 5.42005L43.8807 6.19955C45.255 8.45897 46.0223 11.7486 46.0223 16.2201H47.5223H49.0223C49.0223 11.4649 48.2162 7.55447 46.4438 4.64055L45.1623 5.42005ZM47.5223 16.2201H46.0223C46.0223 20.7459 45.2547 24.0949 43.8737 26.4121L45.1623 27.1801L46.4508 27.948C48.2165 24.9852 49.0223 21.0276 49.0223 16.2201H47.5223ZM45.1623 27.1801L43.8714 26.4161C42.6661 28.4526 40.5624 29.6001 37.1223 29.6001V31.1001V32.6001C41.3088 32.6001 44.5651 31.1341 46.4531 27.944L45.1623 27.1801ZM37.1223 31.1001V29.6001C33.683 29.6001 31.5592 28.4524 30.3273 26.4064L29.0423 27.1801L27.7572 27.9537C29.672 31.1343 32.9349 32.6001 37.1223 32.6001V31.1001ZM29.0423 27.1801L30.3365 26.4218C28.9775 24.1021 28.2223 20.7491 28.2223 16.2201H26.7223H25.2223C25.2223 21.0244 26.0137 24.978 27.748 27.9383L29.0423 27.1801ZM43.0423 16.2201H44.5423C44.5423 13.9998 44.3921 12.0699 44.0741 10.4509L42.6023 10.7401L41.1304 11.0292C41.3991 12.3969 41.5423 14.1203 41.5423 16.2201H43.0423ZM42.6023 10.7401L44.0789 10.4764C43.7724 8.75989 43.1094 7.26926 42.0293 6.0879L40.9223 7.10005L39.8152 8.11221C40.4418 8.79751 40.8988 9.73355 41.1256 11.0037L42.6023 10.7401ZM40.9223 7.10005L42.0434 6.1035C40.8241 4.73179 39.0908 4.16005 37.1223 4.16005V5.66005V7.16005C38.5137 7.16005 39.3138 7.54831 39.8012 8.0966L40.9223 7.10005ZM37.1223 5.66005V4.16005C35.1537 4.16005 33.4205 4.73179 32.2012 6.1035L33.3223 7.10005L34.4434 8.0966C34.9307 7.54831 35.7308 7.16005 37.1223 7.16005V5.66005ZM33.3223 7.10005L32.2152 6.0879C31.1417 7.26207 30.4659 8.74287 30.1304 10.4509L31.6023 10.7401L33.0741 11.0292C33.3253 9.75057 33.7962 8.8047 34.4293 8.11221L33.3223 7.10005ZM31.6023 10.7401L30.1256 10.4764C29.8384 12.0847 29.7023 14.0055 29.7023 16.2201H31.2023H32.7023C32.7023 14.1146 32.8328 12.3821 33.0789 11.0037L31.6023 10.7401ZM31.2023 16.2201H29.7023C29.7023 18.5118 29.8381 20.4849 30.1248 22.1193L31.6023 21.8601L33.0797 21.6009C32.8331 20.1952 32.7023 18.4083 32.7023 16.2201H31.2023ZM31.6023 21.8601L30.1248 22.1193C30.4299 23.8581 31.0907 25.366 32.1752 26.5522L33.2823 25.5401L34.3893 24.5279C33.7672 23.8474 33.308 22.902 33.0797 21.6009L31.6023 21.8601ZM33.2823 25.5401L32.1909 26.5691C33.4348 27.8884 35.1634 28.4401 37.1223 28.4401V26.9401V25.4401C35.7211 25.4401 34.8897 25.0584 34.3736 24.511L33.2823 25.5401ZM37.1223 26.9401V28.4401C39.0783 28.4401 40.8068 27.8894 42.0293 26.5522L40.9223 25.5401L39.8152 24.5279C39.3311 25.0574 38.5263 25.4401 37.1223 25.4401V26.9401ZM40.9223 25.5401L42.0136 26.5691C43.1325 25.3824 43.8128 23.8687 44.1197 22.1193L42.6423 21.8601L41.1648 21.6009C40.9384 22.8914 40.472 23.8311 39.8309 24.511L40.9223 25.5401ZM42.6423 21.8601L44.1197 22.1193C44.4064 20.4849 44.5423 18.5118 44.5423 16.2201H43.0423H41.5423C41.5423 18.4083 41.4114 20.1952 41.1648 21.6009L42.6423 21.8601ZM74.4273 18.6601V20.1601H75.9273V18.6601H74.4273ZM66.3473 18.6601V17.1601H64.8473V18.6601H66.3473ZM66.3473 26.9401V28.4401H67.8473V26.9401H66.3473ZM62.1073 26.9401H60.6073V28.4401H62.1073V26.9401ZM62.1073 18.6601H63.6073V17.1601H62.1073V18.6601ZM54.0273 18.6601H52.5273V20.1601H54.0273V18.6601ZM54.0273 14.8201V13.3201H52.5273V14.8201H54.0273ZM62.1073 14.8201V16.3201H63.6073V14.8201H62.1073ZM62.1073 6.54005V5.04005H60.6073V6.54005H62.1073ZM66.3473 6.54005H67.8473V5.04005H66.3473V6.54005ZM66.3473 14.8201H64.8473V16.3201H66.3473V14.8201ZM74.4273 14.8201H75.9273V13.3201H74.4273V14.8201ZM74.4273 18.6601V17.1601H66.3473V18.6601V20.1601H74.4273V18.6601ZM66.3473 18.6601H64.8473V26.9401H66.3473H67.8473V18.6601H66.3473ZM66.3473 26.9401V25.4401H62.1073V26.9401V28.4401H66.3473V26.9401ZM62.1073 26.9401H63.6073V18.6601H62.1073H60.6073V26.9401H62.1073ZM62.1073 18.6601V17.1601H54.0273V18.6601V20.1601H62.1073V18.6601ZM54.0273 18.6601H55.5273V14.8201H54.0273H52.5273V18.6601H54.0273ZM54.0273 14.8201V16.3201H62.1073V14.8201V13.3201H54.0273V14.8201ZM62.1073 14.8201H63.6073V6.54005H62.1073H60.6073V14.8201H62.1073ZM62.1073 6.54005V8.04005H66.3473V6.54005V5.04005H62.1073V6.54005ZM66.3473 6.54005H64.8473V14.8201H66.3473H67.8473V6.54005H66.3473ZM66.3473 14.8201V16.3201H74.4273V14.8201V13.3201H66.3473V14.8201ZM74.4273 14.8201H72.9273V18.6601H74.4273H75.9273V14.8201H74.4273Z" fill="white" mask="url(#path-1-outside-1_559_514)"/>
</svg>
