<svg width="66" height="33" viewBox="0 0 66 33" fill="none" xmlns="http://www.w3.org/2000/svg">
<mask id="path-1-outside-1_559_509" maskUnits="userSpaceOnUse" x="-0.300781" y="-0.819946" width="66" height="34" fill="black">
<rect fill="white" x="-0.300781" y="-0.819946" width="66" height="34"/>
<path d="M1.49922 6.18005V2.02005H9.81922V31.1801H5.21922V6.18005H1.49922ZM16.0836 16.2201C16.0836 11.6067 16.8569 8.00672 18.4036 5.42005C19.9769 2.80672 22.6703 1.50005 26.4836 1.50005C30.2969 1.50005 32.9769 2.80672 34.5236 5.42005C36.0969 8.00672 36.8836 11.6067 36.8836 16.2201C36.8836 20.8867 36.0969 24.5401 34.5236 27.1801C32.9769 29.7934 30.2969 31.1001 26.4836 31.1001C22.6703 31.1001 19.9769 29.7934 18.4036 27.1801C16.8569 24.5401 16.0836 20.8867 16.0836 16.2201ZM32.4036 16.2201C32.4036 14.0601 32.2569 12.2334 31.9636 10.7401C31.6969 9.24672 31.1369 8.03339 30.2836 7.10005C29.4303 6.14005 28.1636 5.66005 26.4836 5.66005C24.8036 5.66005 23.5369 6.14005 22.6836 7.10005C21.8303 8.03339 21.2569 9.24672 20.9636 10.7401C20.6969 12.2334 20.5636 14.0601 20.5636 16.2201C20.5636 18.4601 20.6969 20.3401 20.9636 21.8601C21.2303 23.3801 21.7903 24.6067 22.6436 25.5401C23.5236 26.4734 24.8036 26.9401 26.4836 26.9401C28.1636 26.9401 29.4303 26.4734 30.2836 25.5401C31.1636 24.6067 31.7369 23.3801 32.0036 21.8601C32.2703 20.3401 32.4036 18.4601 32.4036 16.2201ZM63.7886 18.6601H55.7086V26.9401H51.4686V18.6601H43.3886V14.8201H51.4686V6.54005H55.7086V14.8201H63.7886V18.6601Z"/>
</mask>
<path d="M1.49922 6.18005H-0.000781178V7.68005H1.49922V6.18005ZM1.49922 2.02005V0.520052H-0.000781178V2.02005H1.49922ZM9.81922 2.02005H11.3192V0.520052H9.81922V2.02005ZM9.81922 31.1801V32.6801H11.3192V31.1801H9.81922ZM5.21922 31.1801H3.71922V32.6801H5.21922V31.1801ZM5.21922 6.18005H6.71922V4.68005H5.21922V6.18005ZM1.49922 6.18005H2.99922V2.02005H1.49922H-0.000781178V6.18005H1.49922ZM1.49922 2.02005V3.52005H9.81922V2.02005V0.520052H1.49922V2.02005ZM9.81922 2.02005H8.31922V31.1801H9.81922H11.3192V2.02005H9.81922ZM9.81922 31.1801V29.6801H5.21922V31.1801V32.6801H9.81922V31.1801ZM5.21922 31.1801H6.71922V6.18005H5.21922H3.71922V31.1801H5.21922ZM5.21922 6.18005V4.68005H1.49922V6.18005V7.68005H5.21922V6.18005ZM18.4036 5.42005L17.1185 4.64638L17.1162 4.65026L18.4036 5.42005ZM34.5236 5.42005L33.2327 6.18403L33.2373 6.19182L33.242 6.19955L34.5236 5.42005ZM34.5236 27.1801L33.2351 26.4121L33.2327 26.4161L34.5236 27.1801ZM18.4036 27.1801L17.1094 27.9383L17.1139 27.946L17.1185 27.9537L18.4036 27.1801ZM31.9636 10.7401L30.487 11.0037L30.4892 11.0165L30.4917 11.0292L31.9636 10.7401ZM30.2836 7.10005L29.1625 8.0966L29.1695 8.10445L29.1766 8.11221L30.2836 7.10005ZM22.6836 7.10005L23.7906 8.11221L23.7977 8.10445L23.8047 8.0966L22.6836 7.10005ZM20.9636 10.7401L19.4917 10.4509L19.4892 10.4636L19.487 10.4764L20.9636 10.7401ZM20.9636 21.8601L22.441 21.6009V21.6009L20.9636 21.8601ZM22.6436 25.5401L21.5366 26.5522L21.5443 26.5607L21.5522 26.5691L22.6436 25.5401ZM30.2836 25.5401L29.1922 24.511L29.1843 24.5194L29.1766 24.5279L30.2836 25.5401ZM32.0036 21.8601L33.481 22.1193V22.1193L32.0036 21.8601ZM16.0836 16.2201H17.5836C17.5836 11.7453 18.3386 8.45166 19.691 6.18984L18.4036 5.42005L17.1162 4.65026C15.3753 7.56178 14.5836 11.4682 14.5836 16.2201H16.0836ZM18.4036 5.42005L19.6887 6.19372C20.9205 4.14766 23.0443 3.00005 26.4836 3.00005V1.50005V5.14984e-05C22.2962 5.14984e-05 19.0334 1.46578 17.1185 4.64638L18.4036 5.42005ZM26.4836 1.50005V3.00005C29.9237 3.00005 32.0274 4.14748 33.2327 6.18403L34.5236 5.42005L35.8145 4.65607C33.9264 1.46596 30.6701 5.14984e-05 26.4836 5.14984e-05V1.50005ZM34.5236 5.42005L33.242 6.19955C34.6163 8.45897 35.3836 11.7486 35.3836 16.2201H36.8836H38.3836C38.3836 11.4649 37.5775 7.55447 35.8051 4.64055L34.5236 5.42005ZM36.8836 16.2201H35.3836C35.3836 20.7459 34.6161 24.0949 33.2351 26.4121L34.5236 27.1801L35.8121 27.948C37.5778 24.9852 38.3836 21.0276 38.3836 16.2201H36.8836ZM34.5236 27.1801L33.2327 26.4161C32.0274 28.4526 29.9237 29.6001 26.4836 29.6001V31.1001V32.6001C30.6701 32.6001 33.9264 31.1341 35.8145 27.944L34.5236 27.1801ZM26.4836 31.1001V29.6001C23.0443 29.6001 20.9205 28.4524 19.6887 26.4064L18.4036 27.1801L17.1185 27.9537C19.0334 31.1343 22.2962 32.6001 26.4836 32.6001V31.1001ZM18.4036 27.1801L19.6978 26.4218C18.3388 24.1021 17.5836 20.7491 17.5836 16.2201H16.0836H14.5836C14.5836 21.0244 15.3751 24.978 17.1094 27.9383L18.4036 27.1801ZM32.4036 16.2201H33.9036C33.9036 13.9998 33.7535 12.0699 33.4355 10.4509L31.9636 10.7401L30.4917 11.0292C30.7604 12.3969 30.9036 14.1203 30.9036 16.2201H32.4036ZM31.9636 10.7401L33.4402 10.4764C33.1337 8.75989 32.4707 7.26926 31.3906 6.0879L30.2836 7.10005L29.1766 8.11221C29.8031 8.79751 30.2601 9.73355 30.487 11.0037L31.9636 10.7401ZM30.2836 7.10005L31.4047 6.1035C30.1854 4.73179 28.4522 4.16005 26.4836 4.16005V5.66005V7.16005C27.875 7.16005 28.6751 7.54831 29.1625 8.0966L30.2836 7.10005ZM26.4836 5.66005V4.16005C24.515 4.16005 22.7818 4.73179 21.5625 6.1035L22.6836 7.10005L23.8047 8.0966C24.2921 7.54831 25.0922 7.16005 26.4836 7.16005V5.66005ZM22.6836 7.10005L21.5766 6.0879C20.503 7.26207 19.8272 8.74287 19.4917 10.4509L20.9636 10.7401L22.4355 11.0292C22.6866 9.75057 23.1575 8.8047 23.7906 8.11221L22.6836 7.10005ZM20.9636 10.7401L19.487 10.4764C19.1998 12.0847 19.0636 14.0055 19.0636 16.2201H20.5636H22.0636C22.0636 14.1146 22.1941 12.3821 22.4402 11.0037L20.9636 10.7401ZM20.5636 16.2201H19.0636C19.0636 18.5118 19.1994 20.4849 19.4862 22.1193L20.9636 21.8601L22.441 21.6009C22.1944 20.1952 22.0636 18.4083 22.0636 16.2201H20.5636ZM20.9636 21.8601L19.4862 22.1193C19.7912 23.8581 20.452 25.366 21.5366 26.5522L22.6436 25.5401L23.7506 24.5279C23.1285 23.8474 22.6693 22.902 22.441 21.6009L20.9636 21.8601ZM22.6436 25.5401L21.5522 26.5691C22.7962 27.8884 24.5247 28.4401 26.4836 28.4401V26.9401V25.4401C25.0825 25.4401 24.251 25.0584 23.735 24.511L22.6436 25.5401ZM26.4836 26.9401V28.4401C28.4396 28.4401 30.1681 27.8894 31.3906 26.5522L30.2836 25.5401L29.1766 24.5279C28.6924 25.0574 27.8876 25.4401 26.4836 25.4401V26.9401ZM30.2836 25.5401L31.375 26.5691C32.4939 25.3824 33.1741 23.8687 33.481 22.1193L32.0036 21.8601L30.5262 21.6009C30.2997 22.8914 29.8333 23.8311 29.1922 24.511L30.2836 25.5401ZM32.0036 21.8601L33.481 22.1193C33.7678 20.4849 33.9036 18.5118 33.9036 16.2201H32.4036H30.9036C30.9036 18.4083 30.7728 20.1952 30.5262 21.6009L32.0036 21.8601ZM63.7886 18.6601V20.1601H65.2886V18.6601H63.7886ZM55.7086 18.6601V17.1601H54.2086V18.6601H55.7086ZM55.7086 26.9401V28.4401H57.2086V26.9401H55.7086ZM51.4686 26.9401H49.9686V28.4401H51.4686V26.9401ZM51.4686 18.6601H52.9686V17.1601H51.4686V18.6601ZM43.3886 18.6601H41.8886V20.1601H43.3886V18.6601ZM43.3886 14.8201V13.3201H41.8886V14.8201H43.3886ZM51.4686 14.8201V16.3201H52.9686V14.8201H51.4686ZM51.4686 6.54005V5.04005H49.9686V6.54005H51.4686ZM55.7086 6.54005H57.2086V5.04005H55.7086V6.54005ZM55.7086 14.8201H54.2086V16.3201H55.7086V14.8201ZM63.7886 14.8201H65.2886V13.3201H63.7886V14.8201ZM63.7886 18.6601V17.1601H55.7086V18.6601V20.1601H63.7886V18.6601ZM55.7086 18.6601H54.2086V26.9401H55.7086H57.2086V18.6601H55.7086ZM55.7086 26.9401V25.4401H51.4686V26.9401V28.4401H55.7086V26.9401ZM51.4686 26.9401H52.9686V18.6601H51.4686H49.9686V26.9401H51.4686ZM51.4686 18.6601V17.1601H43.3886V18.6601V20.1601H51.4686V18.6601ZM43.3886 18.6601H44.8886V14.8201H43.3886H41.8886V18.6601H43.3886ZM43.3886 14.8201V16.3201H51.4686V14.8201V13.3201H43.3886V14.8201ZM51.4686 14.8201H52.9686V6.54005H51.4686H49.9686V14.8201H51.4686ZM51.4686 6.54005V8.04005H55.7086V6.54005V5.04005H51.4686V6.54005ZM55.7086 6.54005H54.2086V14.8201H55.7086H57.2086V6.54005H55.7086ZM55.7086 14.8201V16.3201H63.7886V14.8201V13.3201H55.7086V14.8201ZM63.7886 14.8201H62.2886V18.6601H63.7886H65.2886V14.8201H63.7886Z" fill="white" mask="url(#path-1-outside-1_559_509)"/>
</svg>
