<svg width="75" height="33" viewBox="0 0 75 33" fill="none" xmlns="http://www.w3.org/2000/svg">
<mask id="path-1-outside-1_559_519" maskUnits="userSpaceOnUse" x="-0.345703" y="-0.660034" width="76" height="34" fill="black">
<rect fill="white" x="-0.345703" y="-0.660034" width="76" height="34"/>
<path d="M1.9743 9.37996C2.1343 6.89996 3.08096 4.96663 4.8143 3.57997C6.5743 2.1933 8.8143 1.49996 11.5343 1.49996C13.401 1.49996 15.0143 1.8333 16.3743 2.49997C17.7343 3.16663 18.761 4.0733 19.4543 5.21996C20.1476 6.36663 20.4943 7.65996 20.4943 9.09996C20.4943 10.7533 20.0543 12.1666 19.1743 13.34C18.2943 14.5133 17.241 15.3 16.0143 15.7V15.86C17.5876 16.34 18.8143 17.22 19.6943 18.5C20.5743 19.7533 21.0143 21.3666 21.0143 23.34C21.0143 24.9133 20.6543 26.3133 19.9343 27.54C19.2143 28.7666 18.1476 29.74 16.7343 30.46C15.321 31.1533 13.6276 31.5 11.6543 31.5C8.7743 31.5 6.40096 30.7666 4.5343 29.3C2.6943 27.8066 1.70763 25.6733 1.5743 22.9H5.9743C6.08096 24.3133 6.62763 25.4733 7.6143 26.38C8.60096 27.26 9.9343 27.7 11.6143 27.7C13.241 27.7 14.4943 27.26 15.3743 26.38C16.2543 25.4733 16.6943 24.3133 16.6943 22.9C16.6943 21.0333 16.0943 19.7133 14.8943 18.94C13.721 18.14 11.9076 17.74 9.4543 17.74H8.4143V13.98H9.4943C11.6543 13.9533 13.2943 13.5933 14.4143 12.9C15.561 12.2066 16.1343 11.1133 16.1343 9.61996C16.1343 8.33996 15.721 7.32663 14.8943 6.57997C14.0676 5.80663 12.8943 5.41997 11.3743 5.41997C9.88096 5.41997 8.72096 5.80663 7.8943 6.57997C7.06763 7.32663 6.5743 8.25996 6.4143 9.37996H1.9743ZM25.8043 16.38C25.8043 11.7666 26.5776 8.16663 28.1243 5.57996C29.6976 2.96663 32.391 1.65996 36.2043 1.65996C40.0176 1.65996 42.6976 2.96663 44.2443 5.57996C45.8176 8.16663 46.6043 11.7666 46.6043 16.38C46.6043 21.0466 45.8176 24.7 44.2443 27.34C42.6976 29.9533 40.0176 31.26 36.2043 31.26C32.391 31.26 29.6976 29.9533 28.1243 27.34C26.5776 24.7 25.8043 21.0466 25.8043 16.38ZM42.1243 16.38C42.1243 14.22 41.9776 12.3933 41.6843 10.9C41.4176 9.40663 40.8576 8.1933 40.0043 7.25996C39.151 6.29996 37.8843 5.81997 36.2043 5.81997C34.5243 5.81997 33.2576 6.29996 32.4043 7.25996C31.551 8.1933 30.9776 9.40663 30.6843 10.9C30.4176 12.3933 30.2843 14.22 30.2843 16.38C30.2843 18.62 30.4176 20.5 30.6843 22.02C30.951 23.54 31.511 24.7666 32.3643 25.7C33.2443 26.6333 34.5243 27.1 36.2043 27.1C37.8843 27.1 39.151 26.6333 40.0043 25.7C40.8843 24.7666 41.4576 23.54 41.7243 22.02C41.991 20.5 42.1243 18.62 42.1243 16.38ZM73.5093 18.82H65.4293V27.1H61.1893V18.82H53.1093V14.98H61.1893V6.69996H65.4293V14.98H73.5093V18.82Z"/>
</mask>
<path d="M1.9743 9.37996L0.477409 9.28339L0.374404 10.88H1.9743V9.37996ZM4.8143 3.57997L3.88596 2.4017L3.87725 2.40866L4.8143 3.57997ZM16.3743 2.49997L15.7141 3.84685V3.84685L16.3743 2.49997ZM19.4543 5.21996L20.7379 4.44384V4.44383L19.4543 5.21996ZM19.1743 13.34L20.3743 14.24V14.24L19.1743 13.34ZM16.0143 15.7L15.5493 14.2739L14.5143 14.6114V15.7H16.0143ZM16.0143 15.86H14.5143V16.9706L15.5766 17.2947L16.0143 15.86ZM19.6943 18.5L18.4582 19.3498L18.4624 19.3559L18.4667 19.3619L19.6943 18.5ZM19.9343 27.54L18.6407 26.7807V26.7807L19.9343 27.54ZM16.7343 30.46L17.3949 31.8066L17.4051 31.8017L17.4152 31.7965L16.7343 30.46ZM4.5343 29.3L3.58904 30.4647L3.59825 30.4721L3.60756 30.4794L4.5343 29.3ZM1.5743 22.9V21.4H0.000448912L0.0760274 22.972L1.5743 22.9ZM5.9743 22.9L7.47004 22.7871L7.36536 21.4H5.9743V22.9ZM7.6143 26.38L6.59936 27.4845L6.60756 27.492L6.61588 27.4994L7.6143 26.38ZM15.3743 26.38L16.435 27.4406L16.4429 27.4327L16.4507 27.4247L15.3743 26.38ZM14.8943 18.94L14.0493 20.1793L14.0654 20.1903L14.0817 20.2008L14.8943 18.94ZM8.4143 17.74H6.9143V19.24H8.4143V17.74ZM8.4143 13.98V12.48H6.9143V13.98H8.4143ZM9.4943 13.98V15.48H9.50356L9.51281 15.4799L9.4943 13.98ZM14.4143 12.9L13.6382 11.6164L13.6314 11.6204L13.6248 11.6246L14.4143 12.9ZM14.8943 6.57997L13.8696 7.67537L13.8791 7.68433L13.8889 7.69312L14.8943 6.57997ZM7.8943 6.57997L8.89973 7.69312L8.90946 7.68433L8.91903 7.67537L7.8943 6.57997ZM6.4143 9.37996V10.88H7.71524L7.89922 9.5921L6.4143 9.37996ZM1.9743 9.37996L3.47118 9.47654C3.60763 7.36171 4.38878 5.84132 5.75134 4.75127L4.8143 3.57997L3.87725 2.40866C1.77315 4.09194 0.660969 6.43822 0.477409 9.28339L1.9743 9.37996ZM4.8143 3.57997L5.74261 4.7582C7.18509 3.6217 9.0768 2.99996 11.5343 2.99996V1.49996V-3.62396e-05C8.5518 -3.62396e-05 5.9635 0.7649 3.88599 2.40173L4.8143 3.57997ZM11.5343 1.49996V2.99996C13.2242 2.99996 14.6018 3.3016 15.7141 3.84685L16.3743 2.49997L17.0345 1.15308C15.4268 0.364995 13.5777 -3.62396e-05 11.5343 -3.62396e-05V1.49996ZM16.3743 2.49997L15.7141 3.84685C16.8505 4.40393 17.6449 5.12655 18.1707 5.99609L19.4543 5.21996L20.7379 4.44383C19.877 3.02005 18.6181 1.92934 17.0345 1.15308L16.3743 2.49997ZM19.4543 5.21996L18.1707 5.99609C18.7119 6.89113 18.9943 7.91237 18.9943 9.09996H20.4943H21.9943C21.9943 7.40756 21.5834 5.84214 20.7379 4.44384L19.4543 5.21996ZM20.4943 9.09996H18.9943C18.9943 10.472 18.6351 11.5589 17.9743 12.44L19.1743 13.34L20.3743 14.24C21.4735 12.7744 21.9943 11.0346 21.9943 9.09996H20.4943ZM19.1743 13.34L17.9743 12.44C17.2531 13.4015 16.4437 13.9822 15.5493 14.2739L16.0143 15.7L16.4793 17.1261C18.0383 16.6177 19.3355 15.6251 20.3743 14.24L19.1743 13.34ZM16.0143 15.7H14.5143V15.86H16.0143H17.5143V15.7H16.0143ZM16.0143 15.86L15.5766 17.2947C16.8459 17.6819 17.7824 18.3667 18.4582 19.3498L19.6943 18.5L20.9304 17.6502C19.8462 16.0733 18.3294 14.998 16.452 14.4252L16.0143 15.86ZM19.6943 18.5L18.4667 19.3619C19.1244 20.2987 19.5143 21.5863 19.5143 23.34H21.0143H22.5143C22.5143 21.1469 22.0241 19.2079 20.9219 17.638L19.6943 18.5ZM21.0143 23.34H19.5143C19.5143 24.6754 19.2115 25.8081 18.6407 26.7807L19.9343 27.54L21.2279 28.2993C22.0971 26.8185 22.5143 25.1512 22.5143 23.34H21.0143ZM19.9343 27.54L18.6407 26.7807C18.082 27.7325 17.2419 28.5179 16.0534 29.1234L16.7343 30.46L17.4152 31.7965C19.0533 30.962 20.3466 29.8007 21.2279 28.2993L19.9343 27.54ZM16.7343 30.46L16.0737 29.1133C14.9113 29.6835 13.4552 30 11.6543 30V31.5V33C13.8001 33 15.7306 32.6231 17.3949 31.8066L16.7343 30.46ZM11.6543 31.5V30C9.03654 30 7.01068 29.3381 5.46103 28.1205L4.5343 29.3L3.60756 30.4794C5.79125 32.1952 8.51206 33 11.6543 33V31.5ZM4.5343 29.3L5.47955 28.1353C4.02866 26.9577 3.18927 25.2553 3.07257 22.8279L1.5743 22.9L0.0760274 22.972C0.225993 26.0913 1.35993 28.6555 3.58904 30.4647L4.5343 29.3ZM1.5743 22.9V24.4H5.9743V22.9V21.4H1.5743V22.9ZM5.9743 22.9L4.47855 23.0129C4.61205 24.7817 5.31511 26.3043 6.59936 27.4845L7.6143 26.38L8.62924 25.2755C7.94015 24.6423 7.54988 23.8449 7.47004 22.7871L5.9743 22.9ZM7.6143 26.38L6.61588 27.4994C7.94555 28.6853 9.66901 29.2 11.6143 29.2V27.7V26.2C10.1996 26.2 9.25638 25.8346 8.61272 25.2605L7.6143 26.38ZM11.6143 27.7V29.2C13.5117 29.2 15.195 28.6806 16.435 27.4406L15.3743 26.38L14.3136 25.3193C13.7936 25.8393 12.9702 26.2 11.6143 26.2V27.7ZM15.3743 26.38L16.4507 27.4247C17.6355 26.2039 18.1943 24.653 18.1943 22.9H16.6943H15.1943C15.1943 23.9736 14.8731 24.7427 14.2979 25.3353L15.3743 26.38ZM16.6943 22.9H18.1943C18.1943 20.6996 17.4649 18.8121 15.7068 17.6791L14.8943 18.94L14.0817 20.2008C14.7237 20.6145 15.1943 21.367 15.1943 22.9H16.6943ZM14.8943 18.94L15.7393 17.7006C14.194 16.647 12.0146 16.24 9.4543 16.24V17.74V19.24C11.8007 19.24 13.248 19.6329 14.0493 20.1793L14.8943 18.94ZM9.4543 17.74V16.24H8.4143V17.74V19.24H9.4543V17.74ZM8.4143 17.74H9.9143V13.98H8.4143H6.9143V17.74H8.4143ZM8.4143 13.98V15.48H9.4943V13.98V12.48H8.4143V13.98ZM9.4943 13.98L9.51281 15.4799C11.7891 15.4517 13.7478 15.0767 15.2038 14.1754L14.4143 12.9L13.6248 11.6246C12.8408 12.1099 11.5195 12.4548 9.47578 12.4801L9.4943 13.98ZM14.4143 12.9L15.1904 14.1836C16.8447 13.1833 17.6343 11.5664 17.6343 9.61996H16.1343H14.6343C14.6343 10.6602 14.2772 11.23 13.6382 11.6164L14.4143 12.9ZM16.1343 9.61996H17.6343C17.6343 7.98541 17.0896 6.5415 15.8997 5.46681L14.8943 6.57997L13.8889 7.69312C14.3524 8.11176 14.6343 8.69452 14.6343 9.61996H16.1343ZM14.8943 6.57997L15.919 5.48456C14.7305 4.37274 13.1418 3.91997 11.3743 3.91997V5.41997V6.91997C12.6468 6.91997 13.4047 7.24052 13.8696 7.67537L14.8943 6.57997ZM11.3743 5.41997V3.91997C9.62513 3.91997 8.05347 4.37703 6.86956 5.48456L7.8943 6.57997L8.91903 7.67537C9.38846 7.23623 10.1368 6.91997 11.3743 6.91997V5.41997ZM7.8943 6.57997L6.88887 5.46681C5.79755 6.45252 5.13812 7.70661 4.92937 9.16783L6.4143 9.37996L7.89922 9.5921C8.01048 8.81332 8.33771 8.20074 8.89973 7.69312L7.8943 6.57997ZM6.4143 9.37996V7.87996H1.9743V9.37996V10.88H6.4143V9.37996ZM28.1243 5.57996L26.8392 4.80629L26.8369 4.81017L28.1243 5.57996ZM44.2443 5.57996L42.9534 6.34394L42.958 6.35173L42.9627 6.35946L44.2443 5.57996ZM44.2443 27.34L42.9558 26.572L42.9534 26.576L44.2443 27.34ZM28.1243 27.34L26.8301 28.0982L26.8346 28.1059L26.8392 28.1136L28.1243 27.34ZM41.6843 10.9L40.2077 11.1637L40.2099 11.1764L40.2124 11.1891L41.6843 10.9ZM40.0043 7.25996L38.8832 8.25651L38.8902 8.26436L38.8973 8.27212L40.0043 7.25996ZM32.4043 7.25996L33.5113 8.27212L33.5184 8.26436L33.5254 8.25651L32.4043 7.25996ZM30.6843 10.9L29.2124 10.6108L29.2099 10.6235L29.2077 10.6363L30.6843 10.9ZM30.6843 22.02L32.1617 21.7608V21.7608L30.6843 22.02ZM32.3643 25.7L31.2573 26.7121L31.265 26.7206L31.2729 26.729L32.3643 25.7ZM40.0043 25.7L38.9129 24.6709L38.905 24.6793L38.8973 24.6878L40.0043 25.7ZM41.7243 22.02L43.2017 22.2792V22.2792L41.7243 22.02ZM25.8043 16.38H27.3043C27.3043 11.9052 28.0593 8.61157 29.4117 6.34975L28.1243 5.57996L26.8369 4.81017C25.096 7.72169 24.3043 11.6281 24.3043 16.38H25.8043ZM28.1243 5.57996L29.4094 6.35363C30.6412 4.30757 32.765 3.15996 36.2043 3.15996V1.65996V0.159964C32.0169 0.159964 28.7541 1.62569 26.8392 4.80629L28.1243 5.57996ZM36.2043 1.65996V3.15996C39.6444 3.15996 41.7481 4.30739 42.9534 6.34394L44.2443 5.57996L45.5352 4.81598C43.6471 1.62587 40.3908 0.159964 36.2043 0.159964V1.65996ZM44.2443 5.57996L42.9627 6.35946C44.337 8.61888 45.1043 11.9085 45.1043 16.38H46.6043H48.1043C48.1043 11.6248 47.2982 7.71438 45.5259 4.80046L44.2443 5.57996ZM46.6043 16.38H45.1043C45.1043 20.9058 44.3368 24.2548 42.9558 26.5721L44.2443 27.34L45.5328 28.1079C47.2985 25.1452 48.1043 21.1875 48.1043 16.38H46.6043ZM44.2443 27.34L42.9534 26.576C41.7481 28.6125 39.6444 29.76 36.2043 29.76V31.26V32.76C40.3908 32.76 43.6471 31.2941 45.5352 28.1039L44.2443 27.34ZM36.2043 31.26V29.76C32.765 29.76 30.6412 28.6124 29.4094 26.5663L28.1243 27.34L26.8392 28.1136C28.7541 31.2942 32.0169 32.76 36.2043 32.76V31.26ZM28.1243 27.34L29.4185 26.5817C28.0595 24.262 27.3043 20.909 27.3043 16.38H25.8043H24.3043C24.3043 21.1843 25.0958 25.1379 26.8301 28.0982L28.1243 27.34ZM42.1243 16.38H43.6243C43.6243 14.1597 43.4742 12.2298 43.1562 10.6108L41.6843 10.9L40.2124 11.1891C40.4811 12.5568 40.6243 14.2802 40.6243 16.38H42.1243ZM41.6843 10.9L43.1609 10.6363C42.8544 8.9198 42.1914 7.42918 41.1113 6.24781L40.0043 7.25996L38.8973 8.27212C39.5238 8.95742 39.9808 9.89346 40.2077 11.1637L41.6843 10.9ZM40.0043 7.25996L41.1254 6.26342C39.9061 4.89171 38.1729 4.31997 36.2043 4.31997V5.81997V7.31997C37.5957 7.31997 38.3958 7.70822 38.8832 8.25651L40.0043 7.25996ZM36.2043 5.81997V4.31997C34.2357 4.31997 32.5025 4.89171 31.2832 6.26342L32.4043 7.25996L33.5254 8.25651C34.0128 7.70822 34.8129 7.31997 36.2043 7.31997V5.81997ZM32.4043 7.25996L31.2973 6.24781C30.2237 7.42198 29.5479 8.90278 29.2124 10.6108L30.6843 10.9L32.1562 11.1891C32.4073 9.91048 32.8782 8.96461 33.5113 8.27212L32.4043 7.25996ZM30.6843 10.9L29.2077 10.6363C28.9205 12.2446 28.7843 14.1654 28.7843 16.38H30.2843H31.7843C31.7843 14.2746 31.9148 12.542 32.1609 11.1637L30.6843 10.9ZM30.2843 16.38H28.7843C28.7843 18.6717 28.9201 20.6448 29.2069 22.2792L30.6843 22.02L32.1617 21.7608C31.9151 20.3551 31.7843 18.5682 31.7843 16.38H30.2843ZM30.6843 22.02L29.2069 22.2792C29.5119 24.0181 30.1727 25.5259 31.2573 26.7121L32.3643 25.7L33.4713 24.6878C32.8492 24.0073 32.39 23.0619 32.1617 21.7608L30.6843 22.02ZM32.3643 25.7L31.2729 26.729C32.5169 28.0483 34.2454 28.6 36.2043 28.6V27.1V25.6C34.8032 25.6 33.9717 25.2183 33.4557 24.6709L32.3643 25.7ZM36.2043 27.1V28.6C38.1603 28.6 39.8888 28.0493 41.1113 26.7121L40.0043 25.7L38.8973 24.6878C38.4131 25.2173 37.6083 25.6 36.2043 25.6V27.1ZM40.0043 25.7L41.0957 26.729C42.2146 25.5423 42.8948 24.0286 43.2017 22.2792L41.7243 22.02L40.2469 21.7608C40.0204 23.0513 39.554 23.991 38.9129 24.6709L40.0043 25.7ZM41.7243 22.02L43.2017 22.2792C43.4885 20.6448 43.6243 18.6717 43.6243 16.38H42.1243H40.6243C40.6243 18.5682 40.4935 20.3551 40.2469 21.7608L41.7243 22.02ZM73.5093 18.82V20.32H75.0093V18.82H73.5093ZM65.4293 18.82V17.32H63.9293V18.82H65.4293ZM65.4293 27.1V28.6H66.9293V27.1H65.4293ZM61.1893 27.1H59.6893V28.6H61.1893V27.1ZM61.1893 18.82H62.6893V17.32H61.1893V18.82ZM53.1093 18.82H51.6093V20.32H53.1093V18.82ZM53.1093 14.98V13.48H51.6093V14.98H53.1093ZM61.1893 14.98V16.48H62.6893V14.98H61.1893ZM61.1893 6.69996V5.19996H59.6893V6.69996H61.1893ZM65.4293 6.69996H66.9293V5.19996H65.4293V6.69996ZM65.4293 14.98H63.9293V16.48H65.4293V14.98ZM73.5093 14.98H75.0093V13.48H73.5093V14.98ZM73.5093 18.82V17.32H65.4293V18.82V20.32H73.5093V18.82ZM65.4293 18.82H63.9293V27.1H65.4293H66.9293V18.82H65.4293ZM65.4293 27.1V25.6H61.1893V27.1V28.6H65.4293V27.1ZM61.1893 27.1H62.6893V18.82H61.1893H59.6893V27.1H61.1893ZM61.1893 18.82V17.32H53.1093V18.82V20.32H61.1893V18.82ZM53.1093 18.82H54.6093V14.98H53.1093H51.6093V18.82H53.1093ZM53.1093 14.98V16.48H61.1893V14.98V13.48H53.1093V14.98ZM61.1893 14.98H62.6893V6.69996H61.1893H59.6893V14.98H61.1893ZM61.1893 6.69996V8.19996H65.4293V6.69996V5.19996H61.1893V6.69996ZM65.4293 6.69996H63.9293V14.98H65.4293H66.9293V6.69996H65.4293ZM65.4293 14.98V16.48H73.5093V14.98V13.48H65.4293V14.98ZM73.5093 14.98H72.0093V18.82H73.5093H75.0093V14.98H73.5093Z" fill="white" mask="url(#path-1-outside-1_559_519)"/>
</svg>
