<svg width="41" height="42" viewBox="0 0 41 42" fill="none" xmlns="http://www.w3.org/2000/svg">
<ellipse cx="15.2286" cy="15.3721" rx="15.2286" ry="15.3721" fill="#3E82DA"/>
<g clip-path="url(#clip0_559_709)">
<path d="M35.8714 18.3231C36.0548 18.496 36.1881 18.685 36.3217 18.9029C36.3603 18.9654 36.3989 19.0278 36.4387 19.0922C36.5004 19.1929 36.5004 19.1929 36.5633 19.2957C36.6521 19.4394 36.741 19.5831 36.8299 19.7268C36.8636 19.7813 36.8636 19.7813 36.898 19.8368C37.1046 20.1708 37.315 20.5019 37.5267 20.8322C38.0623 21.6698 38.5951 22.5094 39.1253 23.3509C39.3323 23.6791 39.5408 24.0061 39.7501 24.3327C39.8986 24.5649 40.0463 24.7977 40.1939 25.0306C40.2656 25.1433 40.3376 25.2558 40.41 25.368C40.5112 25.525 40.6112 25.6829 40.7108 25.841C40.7412 25.8873 40.7715 25.9337 40.8027 25.9815C40.9803 26.2666 41.0708 26.4704 41.0093 26.823C40.8217 27.0781 40.6006 27.2303 40.3393 27.3905C40.3045 27.4121 40.2697 27.4337 40.2338 27.4559C40.1205 27.526 40.0067 27.5954 39.893 27.6648C39.7331 27.7632 39.5734 27.8619 39.4137 27.9606C39.3733 27.9855 39.333 28.0104 39.2914 28.036C39.021 28.2032 38.7535 28.3749 38.4876 28.5501C38.419 28.5951 38.3503 28.6401 38.2796 28.6865C38.15 28.7718 38.0208 28.8576 37.8919 28.9441C37.3355 29.3086 37.3355 29.3086 36.9723 29.3076C36.7021 29.1407 36.6645 29.0406 36.5442 28.7191C35.3634 29.3664 35.3634 29.3664 34.1587 30.0268C34.3404 30.1779 34.522 30.3289 34.7092 30.4845C34.8389 30.6441 34.8389 30.6441 34.9195 30.7828C34.9471 30.8288 34.9748 30.8747 35.0033 30.922C35.247 31.4268 35.2866 32.0013 35.1586 32.5525C34.94 33.1293 34.5234 33.5854 33.9905 33.8314C33.7917 33.8845 33.7917 33.8845 33.6434 33.8837C33.4735 33.8845 33.3412 33.8909 33.1801 33.9499C33.0707 34.1061 33.0083 34.2597 32.9392 34.44C32.783 34.8336 32.424 35.067 32.0791 35.2575C31.8537 35.3338 31.6419 35.3278 31.4063 35.3229C31.4025 35.4322 31.4025 35.4322 31.3986 35.5436C31.3415 36.0154 31.0921 36.4236 30.7526 36.7246C30.4058 36.9746 29.9799 37.1297 29.5598 37.0679C29.4747 37.0456 29.4747 37.0456 29.3878 37.0229C29.3752 37.0782 29.3626 37.1335 29.3496 37.1905C29.1726 37.6634 28.8831 37.9287 28.4529 38.1383C28.0196 38.2989 27.5526 38.3276 27.1247 38.1344C26.4135 37.7568 25.7626 37.2356 25.1062 36.7614C24.8831 36.9614 24.6662 37.1584 24.4716 37.3907C24.1366 37.7489 23.797 37.8864 23.3248 37.9015C22.811 37.8799 22.4622 37.6717 22.1091 37.2844C21.9744 37.0848 21.9256 37.0076 21.9256 36.7614C21.87 36.7719 21.87 36.7719 21.8133 36.7826C21.3502 36.8534 20.958 36.8177 20.5637 36.5292C20.2474 36.2468 20.0027 35.9708 19.9224 35.5273C19.9174 35.4598 19.9123 35.3924 19.9071 35.3229C19.8694 35.326 19.8316 35.329 19.7927 35.3321C19.301 35.3545 18.9352 35.228 18.5424 34.9102C18.2316 34.578 18.0757 34.2407 18.0683 33.7701C18.0696 33.6999 18.0709 33.6298 18.0722 33.5576C18.0367 33.5559 18.0012 33.5542 17.9646 33.5525C17.4332 33.5112 17.1669 33.2647 16.8192 32.8511C16.6153 32.5354 16.6014 32.2673 16.6195 31.8944C16.5912 31.2648 16.1888 30.9135 15.7782 30.5021C15.6872 30.4129 15.6872 30.4129 15.5644 30.3537C15.548 30.4009 15.5316 30.4481 15.5147 30.4968C15.3274 30.9707 15.3274 30.9707 15.1362 31.073C14.6167 31.1635 14.2705 30.8644 13.8479 30.5744C13.7722 30.5237 13.6964 30.473 13.6206 30.4225C13.4663 30.3196 13.3124 30.2161 13.1586 30.1122C12.8281 29.8893 12.4929 29.6745 12.1582 29.4588C11.0056 28.715 11.0056 28.715 10.9158 28.523C10.8428 28.0372 11.0806 27.7054 11.3095 27.3011C11.3512 27.226 11.3928 27.1508 11.4343 27.0756C11.5659 26.8379 11.6994 26.6015 11.8333 26.3653C11.8762 26.2894 11.9191 26.2136 11.962 26.1377C12.1329 25.8358 12.3043 25.5342 12.4764 25.2331C12.7902 24.6837 13.0971 24.1302 13.4006 23.5742C13.7586 22.9185 14.1203 22.2653 14.487 21.6151C14.6906 21.2539 14.8926 20.8917 15.0922 20.528C15.1364 20.4477 15.1805 20.3675 15.2247 20.2872C15.3086 20.1346 15.3922 19.9819 15.4755 19.8289C15.5846 19.6306 15.6956 19.434 15.809 19.2385C15.8403 19.1842 15.8716 19.1299 15.9038 19.074C16.0523 18.8377 16.1297 18.7331 16.3858 18.6352C16.6484 18.653 16.8216 18.7419 17.04 18.887C17.1026 18.9266 17.1026 18.9266 17.1665 18.9671C17.3061 19.0561 17.4445 19.1471 17.5828 19.2385C17.6316 19.2704 17.6804 19.3024 17.7307 19.3353C17.9956 19.5089 18.2596 19.6839 18.523 19.8601C18.7657 20.022 19.01 20.1805 19.2556 20.3372C19.3196 20.3783 19.3837 20.4193 19.4497 20.4616C19.5739 20.541 19.6983 20.62 19.823 20.6985C19.8793 20.7346 19.9356 20.7707 19.9936 20.8079C20.0683 20.8553 20.0683 20.8553 20.1445 20.9036C20.2837 21.0112 20.3677 21.1094 20.4576 21.2654C20.4829 21.5248 20.4635 21.6964 20.3353 21.9192C20.7787 21.9865 21.2239 22.0266 21.6709 22.0534C21.7592 22.0593 21.8475 22.0665 21.9356 22.075C22.4708 22.138 22.4708 22.138 22.9421 21.9113C23.0717 21.7411 23.0717 21.7411 23.171 21.5611C23.4008 21.183 23.7935 20.9917 24.1887 20.8731C24.3605 20.8593 24.5261 20.8517 24.6979 20.8511C24.7472 20.8506 24.7965 20.85 24.8473 20.8495C25.0088 20.8482 25.1703 20.8482 25.3317 20.8486C25.3873 20.8485 25.4429 20.8485 25.5002 20.8485C27.0048 20.8516 28.4667 21.0718 29.9517 21.3112C30.5984 21.4118 31.2427 21.4473 31.8956 21.4615C31.8655 21.4122 31.8355 21.3629 31.8046 21.3121C31.7121 21.1346 31.7121 21.1346 31.7006 20.9098C31.8872 20.3116 32.7132 19.9903 33.203 19.6839C33.3784 19.5736 33.5536 19.4631 33.7289 19.3526C33.7716 19.3258 33.8143 19.2989 33.8583 19.2712C34.2461 19.0266 34.6306 18.7764 35.0126 18.5215C35.3267 18.3135 35.5055 18.2193 35.8714 18.3231ZM34.9591 19.8256C34.917 19.8524 34.8749 19.8792 34.8315 19.9069C34.6963 19.993 34.5613 20.0796 34.4263 20.1661C34.3367 20.2232 34.2471 20.2803 34.1575 20.3374C33.7476 20.5988 33.3395 20.8628 32.9354 21.1346C32.9965 21.2382 33.0577 21.3417 33.1189 21.4452C33.153 21.5028 33.187 21.5605 33.2221 21.6199C33.6551 22.3415 34.1109 23.048 34.5601 23.7581C34.6613 23.9181 34.7626 24.0782 34.8638 24.2382C34.9329 24.3475 35.0021 24.4568 35.0713 24.5662C35.2746 24.8877 35.4778 25.2094 35.6807 25.5312C35.8072 25.7316 35.9337 25.932 36.0602 26.1324C36.1195 26.2264 36.1788 26.3204 36.238 26.4145C36.5756 26.9506 36.9181 27.4807 37.2782 27.9999C37.5476 27.896 37.7881 27.7495 38.0334 27.5938C38.0759 27.5671 38.1183 27.5403 38.162 27.5127C38.2514 27.4562 38.3406 27.3996 38.4299 27.3429C38.566 27.2565 38.7025 27.1708 38.839 27.0851C38.926 27.0299 39.013 26.9748 39.1 26.9196C39.1406 26.8941 39.1812 26.8687 39.223 26.8425C39.4381 26.7049 39.6179 26.5648 39.786 26.3653C39.0087 25.1145 38.2254 23.8682 37.4374 22.6251C37.0959 22.0863 36.755 21.547 36.4141 21.0077C36.3126 20.8471 36.2111 20.6865 36.1096 20.526C36.0477 20.4279 35.9857 20.3298 35.9237 20.2317C35.8953 20.1869 35.867 20.1421 35.8378 20.0959C35.7262 19.9193 35.6149 19.7426 35.5044 19.5654C35.2969 19.5654 35.133 19.7138 34.9591 19.8256ZM16.6042 19.9577C16.5216 20.0871 16.4475 20.2155 16.3746 20.351C16.3518 20.3925 16.329 20.4339 16.3055 20.4766C16.2301 20.614 16.1553 20.7517 16.0804 20.8894C15.9745 21.0828 15.8682 21.276 15.762 21.4692C15.735 21.5182 15.7081 21.5673 15.6804 21.6178C15.4481 22.0406 15.2104 22.4597 14.971 22.8779C14.5812 23.5587 14.2028 24.2456 13.8323 24.9386C13.4986 25.5605 13.1515 26.1732 12.8002 26.7838C12.5467 27.226 12.3054 27.6726 12.0779 28.1307C12.1397 28.1701 12.1397 28.1701 12.2028 28.2103C12.3957 28.3335 12.5885 28.4569 12.7813 28.5802C12.816 28.6024 12.8507 28.6245 12.8865 28.6473C13.233 28.8685 13.5791 29.0898 13.9179 29.3245C13.9624 29.3551 14.0068 29.3858 14.0527 29.4175C14.1335 29.4737 14.2138 29.5306 14.2937 29.5883C14.4862 29.7283 14.4862 29.7283 14.7103 29.7541C14.8658 29.6839 14.899 29.6155 14.9783 29.4575C15.0052 29.4053 15.0321 29.353 15.0599 29.2992C15.1033 29.2123 15.1033 29.2123 15.1477 29.1237C15.2131 28.9971 15.2787 28.8707 15.3445 28.7444C15.3799 28.6766 15.4152 28.6088 15.4516 28.5389C15.6483 28.169 15.8571 27.8069 16.0652 27.4442C16.4269 26.8118 16.7823 26.1759 17.1317 25.5358C17.4601 24.9345 17.7905 24.3347 18.1257 23.7377C18.163 23.6711 18.2004 23.6046 18.2388 23.536C18.4134 23.2257 18.5893 22.9165 18.7681 22.6091C18.7999 22.5543 18.8316 22.4996 18.8643 22.4432C18.9231 22.3422 18.9823 22.2414 19.0418 22.1409C19.1949 21.8863 19.1949 21.8863 19.2343 21.5923C19.0933 21.4899 18.9552 21.4018 18.8061 21.3144C18.262 20.9854 17.7338 20.6325 17.2066 20.2733C17.1157 20.2119 17.1157 20.2119 17.023 20.1492C16.9688 20.1123 16.9145 20.0754 16.8586 20.0373C16.734 19.947 16.734 19.947 16.6042 19.9577ZM23.772 22.4423C23.6928 22.5386 23.6928 22.5386 23.6119 22.6369C23.4209 22.8772 23.2332 23.12 23.0478 23.3653C22.8903 23.5721 22.7295 23.7757 22.5678 23.9788C22.3626 24.2368 22.1597 24.4964 21.96 24.7593C21.715 25.0817 21.4626 25.3967 21.2068 25.7093C21.0024 25.9613 20.8193 26.2222 20.6411 26.4961C21.071 26.6759 21.4147 26.6186 21.8363 26.4245C22.306 26.1652 22.6472 25.8312 23.0113 25.4254C23.0659 25.3661 23.1206 25.3068 23.1769 25.2456C23.452 24.945 23.7184 24.6386 23.9754 24.3201C24.0962 24.1709 24.221 24.0267 24.3493 23.8848C24.393 23.8357 24.4366 23.7865 24.4816 23.7359C24.6407 23.5986 24.7182 23.5586 24.9227 23.5538C25.3259 23.6886 25.6486 23.9595 25.9893 24.2199C26.1164 24.3157 26.2436 24.4114 26.3708 24.507C26.4356 24.5556 26.5003 24.6042 26.5669 24.6542C26.8545 24.8682 27.146 25.0756 27.4381 25.2824C28.0635 25.7257 28.6859 26.1734 29.3075 26.6228C29.4035 26.6921 29.4995 26.7615 29.5955 26.8308C30.0518 27.1606 30.5079 27.4907 30.9638 27.8212C31.1709 27.9714 31.3782 28.1215 31.5855 28.2716C31.6843 28.3432 31.783 28.4148 31.8818 28.4866C32.0193 28.5865 32.1569 28.6862 32.2946 28.7858C32.3548 28.8296 32.3548 28.8296 32.4161 28.8743C32.5273 28.9547 32.6393 29.0334 32.7519 29.1114C32.7899 29.1383 32.8278 29.1651 32.8669 29.1928C33.0733 29.3372 33.0733 29.3372 33.3111 29.3561C33.3478 29.3328 33.3845 29.3094 33.4223 29.2854C33.4656 29.2594 33.5089 29.2334 33.5534 29.2066C33.5993 29.1765 33.6451 29.1465 33.6923 29.1155C33.7938 29.0537 33.8953 28.992 33.997 28.9304C34.0516 28.8965 34.1063 28.8627 34.1626 28.8278C34.4964 28.6259 34.8385 28.4409 35.1794 28.2533C35.3122 28.1796 35.445 28.1059 35.5777 28.0321C35.6756 27.9778 35.7735 27.9235 35.8714 27.8692C35.8322 27.6155 35.7192 27.4426 35.5861 27.2311C35.5628 27.194 35.5396 27.1569 35.5156 27.1186C35.4383 26.9953 35.3605 26.8724 35.2826 26.7495C35.2281 26.6628 35.1736 26.5761 35.1191 26.4893C34.9728 26.2566 34.826 26.0242 34.6791 25.7919C34.586 25.6446 34.493 25.4973 34.4 25.3499C34.1558 24.9627 33.9114 24.5757 33.6667 24.1888C33.6248 24.1224 33.6248 24.1224 33.582 24.0547C33.5269 23.968 33.4715 23.8816 33.4158 23.7954C33.2841 23.5913 33.1587 23.3868 33.0431 23.1718C32.8219 22.757 32.8219 22.757 32.4585 22.504C32.2585 22.481 32.0734 22.4854 31.8727 22.4995C31.725 22.5017 31.5773 22.5033 31.4297 22.5043C31.3171 22.5064 31.3171 22.5064 31.2023 22.5085C30.8492 22.5072 30.5026 22.4668 30.1524 22.4219C30.0846 22.4134 30.0167 22.405 29.9469 22.3963C29.457 22.3332 28.9695 22.2562 28.4818 22.1767C27.4259 22.0059 26.3883 21.908 25.3203 21.8988C25.2787 21.8982 25.2372 21.8975 25.1944 21.8969C25.0752 21.8953 24.9559 21.8954 24.8367 21.8955C24.7333 21.8952 24.7333 21.8952 24.6277 21.8949C24.2444 21.9429 24.0198 22.14 23.772 22.4423ZM19.6625 23.0307C19.3258 23.6284 18.9901 24.2266 18.6575 24.8268C18.6222 24.8904 18.6222 24.8904 18.5862 24.9554C18.5623 24.9985 18.5385 25.0416 18.5139 25.086C18.1039 25.8257 17.6925 26.5642 17.2746 27.2988C17.2091 27.4139 17.1438 27.5292 17.0784 27.6444C16.8997 27.9593 16.7203 28.2734 16.5351 28.584C16.5081 28.6301 16.481 28.6761 16.4531 28.7236C16.3854 28.8384 16.3167 28.9525 16.2479 29.0665C16.16 29.2325 16.16 29.2325 16.208 29.3773C16.3201 29.5341 16.4373 29.6811 16.5621 29.8266C16.611 29.8836 16.6599 29.9407 16.7103 29.9995C16.8553 30.165 17.0022 30.3268 17.1547 30.4845C17.3979 30.3809 17.5394 30.2084 17.7166 30.0064C18.1161 29.564 18.5106 29.2681 19.0929 29.2259C19.5275 29.2328 19.9422 29.4015 20.2741 29.6999C20.388 29.8677 20.4867 30.0413 20.5799 30.223C20.6329 30.2014 20.6859 30.1798 20.7405 30.1576C21.2144 30.0168 21.7487 30.0058 22.2008 30.223C22.5459 30.4365 22.7342 30.7315 22.9234 31.0975C22.9898 31.3685 23.0073 31.6441 23.0266 31.923C23.0941 31.9467 23.0941 31.9467 23.163 31.971C23.6606 32.1537 23.9929 32.3255 24.2499 32.8383C24.2725 32.9717 24.294 33.1052 24.3149 33.2388C24.3507 33.4454 24.3507 33.4454 24.4334 33.6229C24.5994 33.732 24.7516 33.7804 24.9394 33.8342C25.2633 33.9319 25.4499 34.1421 25.6146 34.4525C25.8047 34.9012 25.805 35.3701 25.7179 35.846C26.7279 36.7514 26.7279 36.7514 27.9134 37.1767C28.146 37.1351 28.2502 37.0091 28.4091 36.8268C28.4508 36.6897 28.4508 36.6897 28.4703 36.5652C28.3073 36.4288 28.1442 36.2927 27.981 36.1566C27.9317 36.1154 27.8824 36.0742 27.8317 36.0318C27.5841 35.8258 27.3356 35.6219 27.0826 35.4236C27.0381 35.3886 26.9937 35.3536 26.9479 35.3176C26.8634 35.2516 26.7787 35.186 26.6936 35.1208C26.3321 34.8376 26.3321 34.8376 26.2683 34.6037C26.2798 34.3667 26.2798 34.3667 26.3295 34.146C26.5582 33.9831 26.6703 33.9873 26.9412 34.0152C27.1048 34.1118 27.1048 34.1118 27.2661 34.2523C27.3288 34.3055 27.3915 34.3588 27.4561 34.4137C27.4905 34.4437 27.525 34.4737 27.5606 34.5046C27.9198 34.8153 28.2874 35.1151 28.6531 35.417C28.7577 35.5038 28.8616 35.5915 28.9654 35.6795C29.187 35.8594 29.3644 36.0019 29.6478 36.0217C29.9714 35.9583 30.1554 35.8353 30.3588 35.5599C30.4432 35.3494 30.4546 35.2236 30.4276 34.996C30.2978 34.8408 30.2978 34.8408 30.1103 34.71C30.0372 34.6536 29.9642 34.5971 29.8912 34.5406C29.8503 34.5095 29.8094 34.4784 29.7673 34.4464C29.5065 34.2448 29.253 34.0329 28.9979 33.8232C28.6904 33.5707 28.3835 33.3194 28.0637 33.0851C28.021 33.0534 27.9782 33.0217 27.9342 32.989C27.8559 32.9313 27.7768 32.8748 27.6968 32.8196C27.4967 32.6715 27.4345 32.5935 27.3729 32.3375C27.3694 32.1245 27.3755 32.0274 27.4917 31.8576C27.6888 31.7522 27.8229 31.766 28.0422 31.7922C28.2345 31.9003 28.3996 32.0407 28.5697 32.1845C28.6195 32.2251 28.6693 32.2658 28.7206 32.3076C28.8271 32.3947 28.9332 32.4822 29.039 32.5702C29.263 32.7564 29.4888 32.9401 29.7146 33.1238C29.8224 33.2115 29.9299 33.2995 30.0372 33.3878C30.2943 33.5988 30.5532 33.8066 30.8163 34.0089C30.8888 34.0646 30.8888 34.0646 30.9626 34.1215C31.1836 34.2657 31.3306 34.286 31.5898 34.2768C31.9066 34.166 32.0464 34.0006 32.2014 33.6883C32.2294 33.4382 32.2294 33.4382 32.1234 33.3386C32.0686 33.2994 32.0686 33.2994 32.0127 33.2595C31.9714 33.2293 31.9302 33.1992 31.8877 33.1681C31.8424 33.1361 31.797 33.1042 31.7503 33.0713C31.6541 33.0012 31.558 32.931 31.4619 32.8608C31.4121 32.8247 31.3623 32.7887 31.311 32.7515C31.0758 32.5794 30.8454 32.4004 30.6149 32.2213C30.5229 32.15 30.4308 32.0787 30.3387 32.0075C30.293 31.972 30.2472 31.9366 30.2 31.9001C30.0129 31.7553 29.8255 31.6109 29.6381 31.4665C29.4562 31.3263 29.2745 31.1857 29.0929 31.0451C28.959 30.9417 28.825 30.8388 28.6908 30.7358C28.6071 30.6711 28.5234 30.6064 28.4397 30.5417C28.4012 30.5123 28.3627 30.483 28.3231 30.4527C28.1524 30.3201 28.0382 30.2167 27.9198 30.0268C27.8916 29.7904 27.892 29.6779 28.0192 29.4792C28.2114 29.3387 28.3006 29.3435 28.5315 29.373C28.6908 29.4691 28.8288 29.5643 28.9749 29.6795C29.0383 29.7278 29.0383 29.7278 29.103 29.7771C29.2393 29.8812 29.3747 29.9867 29.5101 30.0922C29.6001 30.1613 29.6901 30.2304 29.7801 30.2993C30.0112 30.4767 30.2414 30.6551 30.4715 30.8338C30.7464 31.0472 31.022 31.2596 31.2976 31.472C31.5367 31.6563 31.7753 31.8414 32.0131 32.0277C32.0626 32.0662 32.112 32.1048 32.163 32.1445C32.2572 32.2181 32.3514 32.2919 32.4454 32.366C32.9054 32.7475 32.9054 32.7475 33.4591 32.8342C33.712 32.7916 33.8596 32.717 34.0364 32.5114C34.2215 32.2278 34.2354 32.0156 34.2084 31.6839C34.0399 31.1641 33.5581 30.9094 33.1495 30.6275C33.0384 30.5498 32.9275 30.4719 32.8166 30.3939C32.7372 30.3382 32.6579 30.2825 32.5784 30.2268C32.1364 29.9169 31.6987 29.6003 31.261 29.2834C31.0691 29.1444 30.8772 29.0056 30.6852 28.8669C30.5865 28.7955 30.4879 28.7242 30.3892 28.6529C30.036 28.3974 29.6827 28.1423 29.3293 27.8873C29.2786 27.8507 29.228 27.8142 29.1758 27.7766C28.9207 27.5925 28.6656 27.4086 28.4105 27.2247C27.9418 26.8868 27.4735 26.5486 27.0062 26.2086C26.7964 26.056 26.5866 25.9037 26.3767 25.7513C26.2773 25.6791 26.178 25.6067 26.0787 25.5343C25.9418 25.4343 25.8047 25.3347 25.6674 25.2352C25.6273 25.2057 25.5871 25.1762 25.5458 25.1458C25.3446 25.0005 25.1528 24.8807 24.9227 24.7961C24.7581 24.9702 24.5938 25.1446 24.4296 25.3192C24.3605 25.3921 24.3605 25.3921 24.2901 25.4665C24.0317 25.7416 23.7852 26.0227 23.5472 26.318C22.9591 27.0346 22.1818 27.5297 21.2872 27.6232C20.6939 27.6416 20.0644 27.5015 19.6013 27.0845C19.4553 26.9285 19.4209 26.8576 19.4011 26.6366C19.4207 26.3945 19.4695 26.318 19.6166 26.1365C19.6834 26.0524 19.6834 26.0524 19.7516 25.9666C19.8029 25.904 19.8542 25.8414 19.9071 25.7769C19.9661 25.7035 20.0249 25.63 20.0837 25.5565C20.1776 25.439 20.2716 25.3216 20.366 25.2045C20.5988 24.9157 20.8258 24.6225 21.0502 24.3262C21.1571 24.1871 21.2652 24.0498 21.3751 23.9134C21.4217 23.8553 21.4217 23.8553 21.4693 23.7961C21.5304 23.7203 21.5917 23.6447 21.6532 23.5694C21.814 23.391 21.814 23.391 21.8644 23.1615C21.6479 23.0844 21.4471 23.0811 21.2215 23.0754C21.1769 23.0741 21.1324 23.0727 21.0865 23.0713C20.9444 23.067 20.8023 23.0632 20.6602 23.0593C20.5638 23.0565 20.4674 23.0537 20.371 23.0508C20.1348 23.0438 19.8986 23.0372 19.6625 23.0307ZM18.4391 30.746C18.3707 30.8141 18.3021 30.8819 18.2334 30.9496C18.1605 31.0233 18.0876 31.0971 18.0148 31.171C17.9793 31.2059 17.9438 31.2408 17.9073 31.2767C17.7265 31.4651 17.6505 31.57 17.5833 31.8377C17.5827 32.1159 17.6631 32.2352 17.8275 32.446C18.0202 32.549 18.1727 32.5731 18.378 32.5114C18.6043 32.3396 18.7942 32.1328 18.9896 31.923C19.046 31.8658 19.1024 31.8087 19.1605 31.7498C19.5148 31.3983 19.5148 31.3983 19.7236 30.9422C19.7182 30.7093 19.6652 30.6191 19.5325 30.4314C19.365 30.2746 19.365 30.2746 19.154 30.2393C18.8237 30.3111 18.6732 30.4959 18.4391 30.746ZM20.4796 31.7513C20.4424 31.791 20.4052 31.8306 20.3669 31.8715C20.2888 31.9548 20.2109 32.0384 20.1331 32.122C20.0141 32.2499 19.8945 32.3771 19.7748 32.5043C19.6987 32.5856 19.6228 32.667 19.5468 32.7484C19.4933 32.8052 19.4933 32.8052 19.4387 32.8632C19.1549 33.1614 19.1549 33.1614 19.0415 33.5576C19.0662 33.8036 19.087 33.9201 19.2458 34.1092C19.4421 34.2258 19.5594 34.2768 19.7848 34.2768C20.1141 34.1037 20.3537 33.8931 20.6096 33.615C20.6452 33.577 20.6808 33.5389 20.7175 33.4998C20.7921 33.4198 20.8666 33.3396 20.9408 33.2592C21.054 33.1366 21.168 33.015 21.2822 32.8934C21.3549 32.8152 21.4276 32.737 21.5003 32.6588C21.5341 32.6227 21.568 32.5866 21.6028 32.5494C21.8284 32.3038 22.0228 32.0808 22.0785 31.7309C22.0354 31.4489 21.928 31.3418 21.7421 31.1384C21.2225 30.8606 20.8166 31.3886 20.4796 31.7513ZM21.9645 33.5662C21.9353 33.5975 21.9061 33.6287 21.876 33.6609C21.815 33.7264 21.7541 33.792 21.6933 33.8578C21.6002 33.9586 21.5065 34.0588 21.4127 34.159C21.0222 34.5373 21.0222 34.5373 20.8667 35.0491C20.8685 35.2662 20.8854 35.3223 21.0005 35.515C21.1681 35.6889 21.233 35.7115 21.4668 35.7561C21.825 35.7465 22.0172 35.4933 22.2558 35.2329C22.3709 35.1081 22.4884 34.9861 22.6061 34.864C22.6953 34.7705 22.7845 34.6769 22.8737 34.5833C22.9169 34.5379 22.9601 34.4926 23.0047 34.4459C23.0454 34.4025 23.086 34.359 23.1279 34.3143C23.1826 34.2563 23.1826 34.2563 23.2384 34.197C23.3657 34.0394 23.4504 33.8985 23.4619 33.6883C23.4372 33.4702 23.4103 33.324 23.298 33.1367C22.7454 32.758 22.3747 33.1258 21.9645 33.5662ZM23.6382 35.1922C23.5795 35.2534 23.5207 35.3147 23.4619 35.3758C23.0356 35.7724 23.0356 35.7724 22.8201 36.2996C22.8285 36.5029 22.8285 36.5029 22.9425 36.651C23.1245 36.7893 23.2308 36.8268 23.4547 36.8268C23.7565 36.6417 23.9886 36.4048 24.2308 36.1402C24.2655 36.1031 24.3002 36.0659 24.336 36.0276C24.6658 35.6955 24.6658 35.6955 24.8271 35.2616C24.793 35.0065 24.7374 34.9038 24.5557 34.7345C24.1207 34.6272 23.923 34.8851 23.6382 35.1922Z" fill="white"/>
</g>
<defs>
<clipPath id="clip0_559_709">
<rect width="31.3168" height="33.4766" fill="white" transform="translate(9.30469 8.52344)"/>
</clipPath>
</defs>
</svg>
