<svg width="97" height="34" viewBox="0 0 97 34" fill="none" xmlns="http://www.w3.org/2000/svg">
<mask id="path-1-outside-1_559_524" maskUnits="userSpaceOnUse" x="-0.300781" y="-0.819946" width="97" height="35" fill="black">
<rect fill="white" x="-0.300781" y="-0.819946" width="97" height="35"/>
<path d="M1.49922 6.18005V2.02005H9.81922V31.1801H5.21922V6.18005H1.49922ZM16.0836 16.2201C16.0836 11.6067 16.8569 8.00672 18.4036 5.42005C19.9769 2.80672 22.6703 1.50005 26.4836 1.50005C30.2969 1.50005 32.9769 2.80672 34.5236 5.42005C36.0969 8.00672 36.8836 11.6067 36.8836 16.2201C36.8836 20.8867 36.0969 24.5401 34.5236 27.1801C32.9769 29.7934 30.2969 31.1001 26.4836 31.1001C22.6703 31.1001 19.9769 29.7934 18.4036 27.1801C16.8569 24.5401 16.0836 20.8867 16.0836 16.2201ZM32.4036 16.2201C32.4036 14.0601 32.2569 12.2334 31.9636 10.7401C31.6969 9.24672 31.1369 8.03339 30.2836 7.10005C29.4303 6.14005 28.1636 5.66005 26.4836 5.66005C24.8036 5.66005 23.5369 6.14005 22.6836 7.10005C21.8303 8.03339 21.2569 9.24672 20.9636 10.7401C20.6969 12.2334 20.5636 14.0601 20.5636 16.2201C20.5636 18.4601 20.6969 20.3401 20.9636 21.8601C21.2303 23.3801 21.7903 24.6067 22.6436 25.5401C23.5236 26.4734 24.8036 26.9401 26.4836 26.9401C28.1636 26.9401 29.4303 26.4734 30.2836 25.5401C31.1636 24.6067 31.7369 23.3801 32.0036 21.8601C32.2703 20.3401 32.4036 18.4601 32.4036 16.2201ZM41.7086 16.2201C41.7086 11.6067 42.4819 8.00672 44.0286 5.42005C45.6019 2.80672 48.2953 1.50005 52.1086 1.50005C55.9219 1.50005 58.6019 2.80672 60.1486 5.42005C61.7219 8.00672 62.5086 11.6067 62.5086 16.2201C62.5086 20.8867 61.7219 24.5401 60.1486 27.1801C58.6019 29.7934 55.9219 31.1001 52.1086 31.1001C48.2953 31.1001 45.6019 29.7934 44.0286 27.1801C42.4819 24.5401 41.7086 20.8867 41.7086 16.2201ZM58.0286 16.2201C58.0286 14.0601 57.8819 12.2334 57.5886 10.7401C57.3219 9.24672 56.7619 8.03339 55.9086 7.10005C55.0553 6.14005 53.7886 5.66005 52.1086 5.66005C50.4286 5.66005 49.1619 6.14005 48.3086 7.10005C47.4553 8.03339 46.8819 9.24672 46.5886 10.7401C46.3219 12.2334 46.1886 14.0601 46.1886 16.2201C46.1886 18.4601 46.3219 20.3401 46.5886 21.8601C46.8553 23.3801 47.4153 24.6067 48.2686 25.5401C49.1486 26.4734 50.4286 26.9401 52.1086 26.9401C53.7886 26.9401 55.0553 26.4734 55.9086 25.5401C56.7886 24.6067 57.3619 23.3801 57.6286 21.8601C57.8953 20.3401 58.0286 18.4601 58.0286 16.2201ZM66.6136 9.06005C66.6136 7.11339 67.1736 5.59339 68.2936 4.50005C69.4403 3.38005 70.9069 2.82005 72.6936 2.82005C74.4803 2.82005 75.9336 3.38005 77.0536 4.50005C78.2003 5.59339 78.7736 7.11339 78.7736 9.06005C78.7736 11.0067 78.2003 12.5401 77.0536 13.6601C75.9336 14.7801 74.4803 15.3401 72.6936 15.3401C70.9069 15.3401 69.4403 14.7801 68.2936 13.6601C67.1736 12.5401 66.6136 11.0067 66.6136 9.06005ZM91.0136 3.34005L75.0536 31.1801H70.5736L86.5336 3.34005H91.0136ZM72.6936 5.58005C71.0136 5.58005 70.1736 6.74005 70.1736 9.06005C70.1736 11.4067 71.0136 12.5801 72.6936 12.5801C73.4936 12.5801 74.1069 12.3001 74.5336 11.7401C74.9869 11.1534 75.2136 10.2601 75.2136 9.06005C75.2136 6.74005 74.3736 5.58005 72.6936 5.58005ZM82.8936 25.4201C82.8936 23.4734 83.4536 21.9534 84.5736 20.8601C85.7203 19.7401 87.1869 19.1801 88.9736 19.1801C90.7336 19.1801 92.1736 19.7401 93.2936 20.8601C94.4403 21.9534 95.0136 23.4734 95.0136 25.4201C95.0136 27.3667 94.4403 28.9001 93.2936 30.0201C92.1736 31.1401 90.7336 31.7001 88.9736 31.7001C87.1869 31.7001 85.7203 31.1401 84.5736 30.0201C83.4536 28.9001 82.8936 27.3667 82.8936 25.4201ZM88.9336 21.9401C87.2536 21.9401 86.4136 23.1001 86.4136 25.4201C86.4136 27.7401 87.2536 28.9001 88.9336 28.9001C90.6136 28.9001 91.4536 27.7401 91.4536 25.4201C91.4536 23.1001 90.6136 21.9401 88.9336 21.9401Z"/>
</mask>
<path d="M1.49922 6.18005H-0.000781178V7.68005H1.49922V6.18005ZM1.49922 2.02005V0.520052H-0.000781178V2.02005H1.49922ZM9.81922 2.02005H11.3192V0.520052H9.81922V2.02005ZM9.81922 31.1801V32.6801H11.3192V31.1801H9.81922ZM5.21922 31.1801H3.71922V32.6801H5.21922V31.1801ZM5.21922 6.18005H6.71922V4.68005H5.21922V6.18005ZM1.49922 6.18005H2.99922V2.02005H1.49922H-0.000781178V6.18005H1.49922ZM1.49922 2.02005V3.52005H9.81922V2.02005V0.520052H1.49922V2.02005ZM9.81922 2.02005H8.31922V31.1801H9.81922H11.3192V2.02005H9.81922ZM9.81922 31.1801V29.6801H5.21922V31.1801V32.6801H9.81922V31.1801ZM5.21922 31.1801H6.71922V6.18005H5.21922H3.71922V31.1801H5.21922ZM5.21922 6.18005V4.68005H1.49922V6.18005V7.68005H5.21922V6.18005ZM18.4036 5.42005L17.1185 4.64638L17.1162 4.65026L18.4036 5.42005ZM34.5236 5.42005L33.2327 6.18403L33.2373 6.19182L33.242 6.19955L34.5236 5.42005ZM34.5236 27.1801L33.2351 26.4121L33.2327 26.4161L34.5236 27.1801ZM18.4036 27.1801L17.1094 27.9383L17.1139 27.946L17.1185 27.9537L18.4036 27.1801ZM31.9636 10.7401L30.487 11.0037L30.4892 11.0165L30.4917 11.0292L31.9636 10.7401ZM30.2836 7.10005L29.1625 8.0966L29.1695 8.10445L29.1766 8.11221L30.2836 7.10005ZM22.6836 7.10005L23.7906 8.11221L23.7977 8.10445L23.8047 8.0966L22.6836 7.10005ZM20.9636 10.7401L19.4917 10.4509L19.4892 10.4636L19.487 10.4764L20.9636 10.7401ZM20.9636 21.8601L22.441 21.6009V21.6009L20.9636 21.8601ZM22.6436 25.5401L21.5366 26.5522L21.5443 26.5607L21.5522 26.5691L22.6436 25.5401ZM30.2836 25.5401L29.1922 24.511L29.1843 24.5194L29.1766 24.5279L30.2836 25.5401ZM32.0036 21.8601L33.481 22.1193V22.1193L32.0036 21.8601ZM16.0836 16.2201H17.5836C17.5836 11.7453 18.3386 8.45166 19.691 6.18984L18.4036 5.42005L17.1162 4.65026C15.3753 7.56178 14.5836 11.4682 14.5836 16.2201H16.0836ZM18.4036 5.42005L19.6887 6.19372C20.9205 4.14766 23.0443 3.00005 26.4836 3.00005V1.50005V5.14984e-05C22.2962 5.14984e-05 19.0334 1.46578 17.1185 4.64638L18.4036 5.42005ZM26.4836 1.50005V3.00005C29.9237 3.00005 32.0274 4.14748 33.2327 6.18403L34.5236 5.42005L35.8145 4.65607C33.9264 1.46596 30.6701 5.14984e-05 26.4836 5.14984e-05V1.50005ZM34.5236 5.42005L33.242 6.19955C34.6163 8.45897 35.3836 11.7486 35.3836 16.2201H36.8836H38.3836C38.3836 11.4649 37.5775 7.55447 35.8051 4.64055L34.5236 5.42005ZM36.8836 16.2201H35.3836C35.3836 20.7459 34.6161 24.0949 33.2351 26.4121L34.5236 27.1801L35.8121 27.948C37.5778 24.9852 38.3836 21.0276 38.3836 16.2201H36.8836ZM34.5236 27.1801L33.2327 26.4161C32.0274 28.4526 29.9237 29.6001 26.4836 29.6001V31.1001V32.6001C30.6701 32.6001 33.9264 31.1341 35.8145 27.944L34.5236 27.1801ZM26.4836 31.1001V29.6001C23.0443 29.6001 20.9205 28.4524 19.6887 26.4064L18.4036 27.1801L17.1185 27.9537C19.0334 31.1343 22.2962 32.6001 26.4836 32.6001V31.1001ZM18.4036 27.1801L19.6978 26.4218C18.3388 24.1021 17.5836 20.7491 17.5836 16.2201H16.0836H14.5836C14.5836 21.0244 15.3751 24.978 17.1094 27.9383L18.4036 27.1801ZM32.4036 16.2201H33.9036C33.9036 13.9998 33.7535 12.0699 33.4355 10.4509L31.9636 10.7401L30.4917 11.0292C30.7604 12.3969 30.9036 14.1203 30.9036 16.2201H32.4036ZM31.9636 10.7401L33.4402 10.4764C33.1337 8.75989 32.4707 7.26926 31.3906 6.0879L30.2836 7.10005L29.1766 8.11221C29.8031 8.79751 30.2601 9.73355 30.487 11.0037L31.9636 10.7401ZM30.2836 7.10005L31.4047 6.1035C30.1854 4.73179 28.4522 4.16005 26.4836 4.16005V5.66005V7.16005C27.875 7.16005 28.6751 7.54831 29.1625 8.0966L30.2836 7.10005ZM26.4836 5.66005V4.16005C24.515 4.16005 22.7818 4.73179 21.5625 6.1035L22.6836 7.10005L23.8047 8.0966C24.2921 7.54831 25.0922 7.16005 26.4836 7.16005V5.66005ZM22.6836 7.10005L21.5766 6.0879C20.503 7.26207 19.8272 8.74287 19.4917 10.4509L20.9636 10.7401L22.4355 11.0292C22.6866 9.75057 23.1575 8.8047 23.7906 8.11221L22.6836 7.10005ZM20.9636 10.7401L19.487 10.4764C19.1998 12.0847 19.0636 14.0055 19.0636 16.2201H20.5636H22.0636C22.0636 14.1146 22.1941 12.3821 22.4402 11.0037L20.9636 10.7401ZM20.5636 16.2201H19.0636C19.0636 18.5118 19.1994 20.4849 19.4862 22.1193L20.9636 21.8601L22.441 21.6009C22.1944 20.1952 22.0636 18.4083 22.0636 16.2201H20.5636ZM20.9636 21.8601L19.4862 22.1193C19.7912 23.8581 20.452 25.366 21.5366 26.5522L22.6436 25.5401L23.7506 24.5279C23.1285 23.8474 22.6693 22.902 22.441 21.6009L20.9636 21.8601ZM22.6436 25.5401L21.5522 26.5691C22.7962 27.8884 24.5247 28.4401 26.4836 28.4401V26.9401V25.4401C25.0825 25.4401 24.251 25.0584 23.735 24.511L22.6436 25.5401ZM26.4836 26.9401V28.4401C28.4396 28.4401 30.1681 27.8894 31.3906 26.5522L30.2836 25.5401L29.1766 24.5279C28.6924 25.0574 27.8876 25.4401 26.4836 25.4401V26.9401ZM30.2836 25.5401L31.375 26.5691C32.4939 25.3824 33.1741 23.8687 33.481 22.1193L32.0036 21.8601L30.5262 21.6009C30.2997 22.8914 29.8333 23.8311 29.1922 24.511L30.2836 25.5401ZM32.0036 21.8601L33.481 22.1193C33.7678 20.4849 33.9036 18.5118 33.9036 16.2201H32.4036H30.9036C30.9036 18.4083 30.7728 20.1952 30.5262 21.6009L32.0036 21.8601ZM44.0286 5.42005L42.7435 4.64638L42.7412 4.65026L44.0286 5.42005ZM60.1486 5.42005L58.8577 6.18403L58.8623 6.19182L58.867 6.19955L60.1486 5.42005ZM60.1486 27.1801L58.8601 26.4121L58.8577 26.4161L60.1486 27.1801ZM44.0286 27.1801L42.7344 27.9383L42.7389 27.946L42.7435 27.9537L44.0286 27.1801ZM57.5886 10.7401L56.112 11.0037L56.1142 11.0165L56.1167 11.0292L57.5886 10.7401ZM55.9086 7.10005L54.7875 8.0966L54.7945 8.10445L54.8016 8.11221L55.9086 7.10005ZM48.3086 7.10005L49.4156 8.11221L49.4227 8.10445L49.4297 8.0966L48.3086 7.10005ZM46.5886 10.7401L45.1167 10.4509L45.1142 10.4636L45.112 10.4764L46.5886 10.7401ZM46.5886 21.8601L48.066 21.6009V21.6009L46.5886 21.8601ZM48.2686 25.5401L47.1616 26.5522L47.1693 26.5607L47.1772 26.5691L48.2686 25.5401ZM55.9086 25.5401L54.8172 24.511L54.8093 24.5194L54.8016 24.5279L55.9086 25.5401ZM57.6286 21.8601L59.106 22.1193V22.1193L57.6286 21.8601ZM41.7086 16.2201H43.2086C43.2086 11.7453 43.9636 8.45166 45.316 6.18984L44.0286 5.42005L42.7412 4.65026C41.0003 7.56178 40.2086 11.4682 40.2086 16.2201H41.7086ZM44.0286 5.42005L45.3137 6.19372C46.5455 4.14766 48.6693 3.00005 52.1086 3.00005V1.50005V5.14984e-05C47.9212 5.14984e-05 44.6584 1.46578 42.7435 4.64638L44.0286 5.42005ZM52.1086 1.50005V3.00005C55.5487 3.00005 57.6524 4.14748 58.8577 6.18403L60.1486 5.42005L61.4395 4.65607C59.5514 1.46596 56.2951 5.14984e-05 52.1086 5.14984e-05V1.50005ZM60.1486 5.42005L58.867 6.19955C60.2413 8.45897 61.0086 11.7486 61.0086 16.2201H62.5086H64.0086C64.0086 11.4649 63.2025 7.55447 61.4301 4.64055L60.1486 5.42005ZM62.5086 16.2201H61.0086C61.0086 20.7459 60.2411 24.0949 58.8601 26.4121L60.1486 27.1801L61.4371 27.948C63.2028 24.9852 64.0086 21.0276 64.0086 16.2201H62.5086ZM60.1486 27.1801L58.8577 26.4161C57.6524 28.4526 55.5487 29.6001 52.1086 29.6001V31.1001V32.6001C56.2951 32.6001 59.5514 31.1341 61.4395 27.944L60.1486 27.1801ZM52.1086 31.1001V29.6001C48.6693 29.6001 46.5455 28.4524 45.3137 26.4064L44.0286 27.1801L42.7435 27.9537C44.6584 31.1343 47.9212 32.6001 52.1086 32.6001V31.1001ZM44.0286 27.1801L45.3228 26.4218C43.9638 24.1021 43.2086 20.7491 43.2086 16.2201H41.7086H40.2086C40.2086 21.0244 41.0001 24.978 42.7344 27.9383L44.0286 27.1801ZM58.0286 16.2201H59.5286C59.5286 13.9998 59.3785 12.0699 59.0605 10.4509L57.5886 10.7401L56.1167 11.0292C56.3854 12.3969 56.5286 14.1203 56.5286 16.2201H58.0286ZM57.5886 10.7401L59.0652 10.4764C58.7587 8.75989 58.0957 7.26926 57.0156 6.0879L55.9086 7.10005L54.8016 8.11221C55.4281 8.79751 55.8851 9.73355 56.112 11.0037L57.5886 10.7401ZM55.9086 7.10005L57.0297 6.1035C55.8104 4.73179 54.0772 4.16005 52.1086 4.16005V5.66005V7.16005C53.5 7.16005 54.3001 7.54831 54.7875 8.0966L55.9086 7.10005ZM52.1086 5.66005V4.16005C50.14 4.16005 48.4068 4.73179 47.1875 6.1035L48.3086 7.10005L49.4297 8.0966C49.9171 7.54831 50.7172 7.16005 52.1086 7.16005V5.66005ZM48.3086 7.10005L47.2015 6.0879C46.128 7.26207 45.4522 8.74287 45.1167 10.4509L46.5886 10.7401L48.0605 11.0292C48.3116 9.75057 48.7825 8.8047 49.4156 8.11221L48.3086 7.10005ZM46.5886 10.7401L45.112 10.4764C44.8248 12.0847 44.6886 14.0055 44.6886 16.2201H46.1886H47.6886C47.6886 14.1146 47.8191 12.3821 48.0652 11.0037L46.5886 10.7401ZM46.1886 16.2201H44.6886C44.6886 18.5118 44.8244 20.4849 45.1112 22.1193L46.5886 21.8601L48.066 21.6009C47.8194 20.1952 47.6886 18.4083 47.6886 16.2201H46.1886ZM46.5886 21.8601L45.1112 22.1193C45.4162 23.8581 46.077 25.366 47.1616 26.5522L48.2686 25.5401L49.3756 24.5279C48.7535 23.8474 48.2943 22.902 48.066 21.6009L46.5886 21.8601ZM48.2686 25.5401L47.1772 26.5691C48.4212 27.8884 50.1497 28.4401 52.1086 28.4401V26.9401V25.4401C50.7075 25.4401 49.876 25.0584 49.36 24.511L48.2686 25.5401ZM52.1086 26.9401V28.4401C54.0646 28.4401 55.7931 27.8894 57.0156 26.5522L55.9086 25.5401L54.8016 24.5279C54.3174 25.0574 53.5126 25.4401 52.1086 25.4401V26.9401ZM55.9086 25.5401L57 26.5691C58.1189 25.3824 58.7991 23.8687 59.106 22.1193L57.6286 21.8601L56.1512 21.6009C55.9247 22.8914 55.4583 23.8311 54.8172 24.511L55.9086 25.5401ZM57.6286 21.8601L59.106 22.1193C59.3928 20.4849 59.5286 18.5118 59.5286 16.2201H58.0286H56.5286C56.5286 18.4083 56.3978 20.1952 56.1512 21.6009L57.6286 21.8601ZM68.2936 4.50005L69.3414 5.57341L69.3417 5.57312L68.2936 4.50005ZM77.0536 4.50005L75.9929 5.56071L76.0056 5.57334L76.0185 5.58566L77.0536 4.50005ZM77.0536 13.6601L76.0055 12.587L75.9992 12.5932L75.9929 12.5994L77.0536 13.6601ZM68.2936 13.6601L67.2329 14.7207L67.2392 14.727L67.2455 14.7331L68.2936 13.6601ZM91.0136 3.34005L92.3149 4.08607L93.6025 1.84005H91.0136V3.34005ZM75.0536 31.1801V32.6801H75.9227L76.3549 31.9261L75.0536 31.1801ZM70.5736 31.1801L69.2723 30.434L67.9847 32.6801H70.5736V31.1801ZM86.5336 3.34005V1.84005H85.6645L85.2323 2.59403L86.5336 3.34005ZM74.5336 11.7401L73.3466 10.8229L73.3404 10.831L74.5336 11.7401ZM84.5736 20.8601L85.6214 21.9334L85.6217 21.9331L84.5736 20.8601ZM93.2936 20.8601L92.2329 21.9207L92.2456 21.9333L92.2585 21.9457L93.2936 20.8601ZM93.2936 30.0201L92.2455 28.947L92.2392 28.9532L92.2329 28.9594L93.2936 30.0201ZM84.5736 30.0201L83.5129 31.0807L83.5192 31.087L83.5255 31.0931L84.5736 30.0201ZM66.6136 9.06005H68.1136C68.1136 7.41287 68.5777 6.31893 69.3414 5.57341L68.2936 4.50005L67.2458 3.42669C65.7695 4.86784 65.1136 6.8139 65.1136 9.06005H66.6136ZM68.2936 4.50005L69.3417 5.57312C70.175 4.75924 71.2497 4.32005 72.6936 4.32005V2.82005V1.32005C70.5642 1.32005 68.7056 2.00087 67.2455 3.42699L68.2936 4.50005ZM72.6936 2.82005V4.32005C74.138 4.32005 75.1912 4.759 75.9929 5.56071L77.0536 4.50005L78.1143 3.43939C76.676 2.00111 74.8225 1.32005 72.6936 1.32005V2.82005ZM77.0536 4.50005L76.0185 5.58566C76.8027 6.33339 77.2736 7.4232 77.2736 9.06005H78.7736H80.2736C80.2736 6.80357 79.5978 4.85338 78.0887 3.41444L77.0536 4.50005ZM78.7736 9.06005H77.2736C77.2736 10.6955 76.803 11.808 76.0055 12.587L77.0536 13.6601L78.1017 14.7331C79.5975 13.2721 80.2736 11.3179 80.2736 9.06005H78.7736ZM77.0536 13.6601L75.9929 12.5994C75.1912 13.4011 74.138 13.8401 72.6936 13.8401V15.3401V16.8401C74.8225 16.8401 76.676 16.159 78.1143 14.7207L77.0536 13.6601ZM72.6936 15.3401V13.8401C71.2497 13.8401 70.175 13.4009 69.3417 12.587L68.2936 13.6601L67.2455 14.7331C68.7056 16.1592 70.5642 16.8401 72.6936 16.8401V15.3401ZM68.2936 13.6601L69.3543 12.5994C68.5773 11.8224 68.1136 10.7057 68.1136 9.06005H66.6136H65.1136C65.1136 11.3078 65.7699 13.2577 67.2329 14.7207L68.2936 13.6601ZM91.0136 3.34005L89.7123 2.59403L73.7523 30.434L75.0536 31.1801L76.3549 31.9261L92.3149 4.08607L91.0136 3.34005ZM75.0536 31.1801V29.6801H70.5736V31.1801V32.6801H75.0536V31.1801ZM70.5736 31.1801L71.8749 31.9261L87.8349 4.08607L86.5336 3.34005L85.2323 2.59403L69.2723 30.434L70.5736 31.1801ZM86.5336 3.34005V4.84005H91.0136V3.34005V1.84005H86.5336V3.34005ZM72.6936 5.58005V4.08005C71.4674 4.08005 70.3421 4.52978 69.5887 5.57029C68.9002 6.521 68.6736 7.7638 68.6736 9.06005H70.1736H71.6736C71.6736 8.0363 71.867 7.53911 72.0185 7.32982C72.105 7.21032 72.2398 7.08005 72.6936 7.08005V5.58005ZM70.1736 9.06005H68.6736C68.6736 10.3671 68.8994 11.617 69.5839 12.5732C70.3347 13.6219 71.4607 14.0801 72.6936 14.0801V12.5801V11.0801C72.2465 11.0801 72.1125 10.9516 72.0233 10.8269C71.8678 10.6097 71.6736 10.0996 71.6736 9.06005H70.1736ZM72.6936 12.5801V14.0801C73.889 14.0801 74.975 13.6358 75.7267 12.6491L74.5336 11.7401L73.3404 10.831C73.2389 10.9643 73.0982 11.0801 72.6936 11.0801V12.5801ZM74.5336 11.7401L75.7205 12.6572C76.4684 11.6893 76.7136 10.4021 76.7136 9.06005H75.2136H73.7136C73.7136 10.118 73.5054 10.6174 73.3467 10.8229L74.5336 11.7401ZM75.2136 9.06005H76.7136C76.7136 7.7638 76.487 6.521 75.7985 5.57029C75.045 4.52978 73.9198 4.08005 72.6936 4.08005V5.58005V7.08005C73.1474 7.08005 73.2822 7.21032 73.3687 7.32982C73.5202 7.53911 73.7136 8.0363 73.7136 9.06005H75.2136ZM82.8936 25.4201H84.3936C84.3936 23.7729 84.8577 22.6789 85.6214 21.9334L84.5736 20.8601L83.5258 19.7867C82.0495 21.2278 81.3936 23.1739 81.3936 25.4201H82.8936ZM84.5736 20.8601L85.6217 21.9331C86.455 21.1192 87.5297 20.6801 88.9736 20.6801V19.1801V17.6801C86.8442 17.6801 84.9856 18.3609 83.5255 19.787L84.5736 20.8601ZM88.9736 19.1801V20.6801C90.3842 20.6801 91.4267 21.1145 92.2329 21.9207L93.2936 20.8601L94.3543 19.7994C92.9204 18.3656 91.083 17.6801 88.9736 17.6801V19.1801ZM93.2936 20.8601L92.2585 21.9457C93.0427 22.6934 93.5136 23.7832 93.5136 25.4201H95.0136H96.5136C96.5136 23.1636 95.8378 21.2134 94.3287 19.7744L93.2936 20.8601ZM95.0136 25.4201H93.5136C93.5136 27.0555 93.043 28.168 92.2455 28.947L93.2936 30.0201L94.3417 31.0931C95.8375 29.6321 96.5136 27.6779 96.5136 25.4201H95.0136ZM93.2936 30.0201L92.2329 28.9594C91.4267 29.7656 90.3842 30.2001 88.9736 30.2001V31.7001V33.2001C91.083 33.2001 92.9204 32.5145 94.3543 31.0807L93.2936 30.0201ZM88.9736 31.7001V30.2001C87.5297 30.2001 86.455 29.7609 85.6217 28.947L84.5736 30.0201L83.5255 31.0931C84.9856 32.5192 86.8442 33.2001 88.9736 33.2001V31.7001ZM84.5736 30.0201L85.6343 28.9594C84.8573 28.1824 84.3936 27.0657 84.3936 25.4201H82.8936H81.3936C81.3936 27.6678 82.0499 29.6177 83.5129 31.0807L84.5736 30.0201ZM88.9336 21.9401V20.4401C87.7074 20.4401 86.5822 20.8898 85.8287 21.9303C85.1402 22.881 84.9136 24.1238 84.9136 25.4201H86.4136H87.9136C87.9136 24.3963 88.1069 23.8991 88.2585 23.6898C88.345 23.5703 88.4798 23.4401 88.9336 23.4401V21.9401ZM86.4136 25.4201H84.9136C84.9136 26.7163 85.1402 27.9591 85.8287 28.9098C86.5822 29.9503 87.7074 30.4001 88.9336 30.4001V28.9001V27.4001C88.4798 27.4001 88.345 27.2698 88.2585 27.1503C88.1069 26.941 87.9136 26.4438 87.9136 25.4201H86.4136ZM88.9336 28.9001V30.4001C90.1598 30.4001 91.285 29.9503 92.0385 28.9098C92.727 27.9591 92.9536 26.7163 92.9536 25.4201H91.4536H89.9536C89.9536 26.4438 89.7602 26.941 89.6087 27.1503C89.5221 27.2698 89.3874 27.4001 88.9336 27.4001V28.9001ZM91.4536 25.4201H92.9536C92.9536 24.1238 92.727 22.881 92.0385 21.9303C91.285 20.8898 90.1598 20.4401 88.9336 20.4401V21.9401V23.4401C89.3874 23.4401 89.5221 23.5703 89.6087 23.6898C89.7602 23.8991 89.9536 24.3963 89.9536 25.4201H91.4536Z" fill="white" mask="url(#path-1-outside-1_559_524)"/>
</svg>
