<svg width="43" height="42" viewBox="0 0 43 42" fill="none" xmlns="http://www.w3.org/2000/svg">
<ellipse cx="15.2286" cy="15" rx="15.2286" ry="15" fill="#3E82DA"/>
<g clip-path="url(#clip0_559_552)">
<path d="M24.9021 13.9646C24.9792 13.9643 25.0564 13.9638 25.1336 13.9632C25.3429 13.9619 25.5521 13.9624 25.7614 13.9633C25.9805 13.964 26.1996 13.9633 26.4187 13.9629C26.7867 13.9624 27.1547 13.9631 27.5226 13.9644C27.9479 13.9659 28.3731 13.9654 28.7984 13.9639C29.1636 13.9626 29.5289 13.9625 29.8942 13.9632C30.1123 13.9636 30.3304 13.9637 30.5485 13.9627C30.7535 13.962 30.9586 13.9625 31.1636 13.9641C31.2388 13.9644 31.314 13.9643 31.3892 13.9637C31.9638 13.9596 31.9638 13.9596 32.2094 14.1156C32.3211 14.3083 32.3325 14.4249 32.3276 14.6471C32.3267 14.7178 32.3258 14.7884 32.3249 14.8612C32.3226 14.9353 32.3203 15.0094 32.318 15.0835C32.3166 15.1587 32.3154 15.2338 32.3142 15.309C32.311 15.4925 32.3065 15.6759 32.3009 15.8594C32.3492 15.8591 32.3492 15.8591 32.3985 15.8588C33.1822 15.8539 33.9659 15.8503 34.7495 15.8481C35.1285 15.8469 35.5075 15.8454 35.8865 15.8429C36.2521 15.8405 36.6176 15.8392 36.9832 15.8386C37.1229 15.8382 37.2625 15.8374 37.4021 15.8363C37.5974 15.8347 37.7926 15.8345 37.9878 15.8346C38.0458 15.8338 38.1039 15.833 38.1636 15.8322C38.5543 15.8344 38.5543 15.8344 38.7336 15.9601C38.8783 16.1874 38.8712 16.3979 38.8704 16.6579C38.8705 16.7009 38.8706 16.7438 38.8707 16.7881C38.871 16.9332 38.8708 17.0783 38.8707 17.2234C38.8708 17.328 38.8709 17.4327 38.8711 17.5373C38.8714 17.8257 38.8714 18.1141 38.8713 18.4025C38.8713 18.7132 38.8716 19.0239 38.8719 19.3346C38.8724 19.9436 38.8725 20.5526 38.8725 21.1617C38.8726 21.6565 38.8727 22.1514 38.8728 22.6462C38.8732 23.8198 38.8736 24.9934 38.8736 26.167C38.8736 26.2045 38.8736 26.2421 38.8736 26.2808C38.8735 26.4711 38.8735 26.6614 38.8735 26.8517C38.8735 26.9084 38.8735 26.9084 38.8735 26.9663C38.8735 27.0427 38.8735 27.1192 38.8735 27.1956C38.8735 28.3852 38.8739 29.5747 38.8747 30.7642C38.8755 32.1 38.876 33.4357 38.8759 34.7714C38.8759 35.4789 38.876 36.1865 38.8766 36.894C38.8771 37.4963 38.8773 38.0986 38.8769 38.7009C38.8767 39.0084 38.8767 39.3159 38.8772 39.6234C38.8776 39.9047 38.8775 40.1859 38.877 40.4672C38.877 40.5692 38.8771 40.6712 38.8774 40.7731C38.8777 40.9113 38.8775 41.0495 38.877 41.1877C38.8773 41.2277 38.8776 41.2676 38.8778 41.3088C38.8763 41.5259 38.8594 41.6988 38.754 41.8906C38.5586 42.0209 38.4745 42.0138 38.2424 42.0141C38.2068 42.0143 38.1713 42.0145 38.1346 42.0147C38.0145 42.0152 37.8945 42.0149 37.7745 42.0146C37.6879 42.0148 37.6012 42.0151 37.5146 42.0154C37.276 42.0161 37.0374 42.016 36.7987 42.0159C36.5416 42.0159 36.2845 42.0165 36.0274 42.017C35.5234 42.0179 35.0195 42.0182 34.5155 42.0183C34.106 42.0183 33.6966 42.0186 33.2871 42.0189C32.1271 42.0199 30.9671 42.0204 29.8071 42.0203C29.7445 42.0203 29.6819 42.0203 29.6174 42.0203C29.5548 42.0203 29.4921 42.0203 29.4276 42.0203C28.4117 42.0202 27.3959 42.0213 26.38 42.0228C25.3379 42.0244 24.2957 42.0251 23.2536 42.025C22.6681 42.025 22.0826 42.0253 21.4972 42.0265C20.9988 42.0275 20.5004 42.0277 20.002 42.027C19.7476 42.0266 19.4932 42.0266 19.2387 42.0276C19.006 42.0284 18.7733 42.0283 18.5406 42.0273C18.4562 42.0271 18.3718 42.0273 18.2874 42.028C18.173 42.0287 18.0587 42.0282 17.9444 42.0272C17.8808 42.0273 17.8171 42.0273 17.7516 42.0273C17.5545 41.994 17.4916 41.9379 17.3712 41.7813C17.3057 41.5847 17.3088 41.406 17.3093 41.2015C17.3092 41.1585 17.3091 41.1156 17.309 41.0713C17.3087 40.9262 17.3088 40.7811 17.3088 40.636C17.3087 40.5314 17.3085 40.4268 17.3083 40.3221C17.3079 40.0337 17.3078 39.7453 17.3078 39.4569C17.3077 39.1462 17.3073 38.8355 17.3069 38.5248C17.3061 37.8451 17.3058 37.1654 17.3056 36.4856C17.3054 36.0615 17.3052 35.6373 17.3049 35.2132C17.3043 34.0396 17.3037 32.866 17.3035 31.6924C17.3035 31.6165 17.3035 31.5406 17.3035 31.4647C17.3035 31.3886 17.3035 31.3125 17.3035 31.2364C17.3034 31.0838 17.3034 30.9311 17.3034 30.7785C17.3034 30.7406 17.3034 30.7028 17.3034 30.6638C17.3032 29.4361 17.3023 28.2083 17.301 26.9806C17.2997 25.6831 17.2989 24.3855 17.2989 23.088C17.2988 22.3805 17.2985 21.673 17.2975 20.9654C17.2967 20.3631 17.2964 19.7608 17.2968 19.1585C17.297 18.851 17.297 18.5435 17.2962 18.236C17.2955 17.9547 17.2956 17.6735 17.2963 17.3922C17.2964 17.2902 17.2962 17.1882 17.2957 17.0863C17.2951 16.9481 17.2955 16.8099 17.2962 16.6717C17.2958 16.6317 17.2953 16.5918 17.2949 16.5506C17.2981 16.2455 17.3765 16.0728 17.59 15.8594C17.7016 15.8459 17.7016 15.8459 17.8419 15.8462C17.8949 15.8461 17.948 15.8459 18.0027 15.8458C18.0903 15.8464 18.0903 15.8464 18.1797 15.847C18.241 15.847 18.3024 15.8469 18.3656 15.8469C18.5692 15.847 18.7728 15.8479 18.9764 15.8487C19.1172 15.8489 19.2581 15.8491 19.3989 15.8492C19.7322 15.8496 20.0656 15.8504 20.3989 15.8515C20.7783 15.8527 21.1577 15.8533 21.5372 15.8539C22.3178 15.855 23.0984 15.857 23.879 15.8594C23.8776 15.8128 23.8762 15.7662 23.8747 15.7181C23.87 15.5444 23.8666 15.3706 23.864 15.1968C23.8626 15.1218 23.8608 15.0467 23.8584 14.9717C23.8551 14.8635 23.8537 14.7553 23.8523 14.6471C23.8509 14.5821 23.8495 14.5171 23.848 14.4501C23.879 14.2735 23.879 14.2735 23.9706 14.1156C24.2623 13.9302 24.5652 13.9619 24.9021 13.9646ZM24.8634 14.9844C24.8634 15.8867 24.8634 16.7891 24.8634 17.7188C26.9929 17.7188 29.1225 17.7188 31.3165 17.7188C31.3165 16.8164 31.3165 15.9141 31.3165 14.9844C29.187 14.9844 27.0575 14.9844 24.8634 14.9844ZM18.3009 16.8438C18.3009 24.8205 18.3009 32.7972 18.3009 41.0156C24.7617 41.0156 31.2225 41.0156 37.879 41.0156C37.879 33.0389 37.879 25.0622 37.879 16.8438C36.0382 16.8438 34.1975 16.8438 32.3009 16.8438C32.2828 17.3671 32.2648 17.8905 32.2462 18.4297C32.0301 18.6458 31.9025 18.6553 31.6095 18.6561C31.5132 18.6566 31.5132 18.6566 31.4148 18.6571C31.3443 18.6571 31.2737 18.6572 31.201 18.6573C31.126 18.6575 31.051 18.6578 30.9759 18.6581C30.7721 18.6588 30.5683 18.6592 30.3644 18.6594C30.2371 18.6596 30.1097 18.6598 29.9824 18.66C29.584 18.6608 29.1855 18.6613 28.7871 18.6615C28.3272 18.6618 27.8672 18.6627 27.4073 18.6643C27.0517 18.6655 26.6962 18.666 26.3407 18.6661C26.1283 18.6662 25.916 18.6665 25.7036 18.6675C25.5039 18.6684 25.3041 18.6685 25.1044 18.668C24.9962 18.6679 24.8881 18.6687 24.7799 18.6695C24.6831 18.669 24.6831 18.669 24.5843 18.6685C24.5283 18.6686 24.4723 18.6687 24.4146 18.6688C24.2204 18.6429 24.0732 18.5692 23.9337 18.4297C23.9157 17.9063 23.8976 17.383 23.879 16.8438C22.0382 16.8438 20.1975 16.8438 18.3009 16.8438Z" fill="white"/>
<path d="M33.767 21.9078C33.8644 21.9067 33.8644 21.9067 33.9639 21.9057C34.0341 21.9058 34.1043 21.906 34.1767 21.9062C34.2488 21.9059 34.3209 21.9056 34.3951 21.9053C34.5477 21.9048 34.7003 21.9049 34.8529 21.9055C35.0482 21.9061 35.2436 21.905 35.4389 21.9034C35.6254 21.9022 35.812 21.9025 35.9985 21.9027C36.1037 21.9018 36.1037 21.9018 36.211 21.9009C36.2761 21.9014 36.3413 21.9019 36.4084 21.9024C36.4657 21.9024 36.523 21.9025 36.5821 21.9025C36.7717 21.9372 36.8348 21.9968 36.9506 22.1486C37.0219 22.3753 37.0132 22.6025 37.013 22.8378C37.0131 22.8858 37.0133 22.9338 37.0135 22.9832C37.0139 23.1442 37.014 23.3053 37.0141 23.4663C37.0143 23.5817 37.0146 23.697 37.0149 23.8123C37.0156 24.1259 37.016 24.4394 37.0162 24.753C37.0164 24.9488 37.0166 25.1446 37.0169 25.3405C37.0176 25.9529 37.0181 26.5654 37.0183 27.1779C37.0186 27.8853 37.0196 28.5928 37.0211 29.3002C37.0223 29.8468 37.0229 30.3934 37.0229 30.94C37.023 31.2665 37.0233 31.5931 37.0243 31.9197C37.0252 32.2268 37.0253 32.5339 37.0248 32.841C37.0248 32.9538 37.025 33.0665 37.0256 33.1792C37.0263 33.3331 37.026 33.487 37.0254 33.6408C37.026 33.7078 37.026 33.7078 37.0267 33.7761C37.0244 34.0418 36.9866 34.2222 36.8412 34.4533C36.6748 34.5759 36.5237 34.5767 36.3208 34.5777C36.2604 34.5782 36.2 34.5787 36.1378 34.5793C36.0728 34.5792 36.0078 34.5792 35.9408 34.5791C35.8738 34.5794 35.8068 34.5796 35.7377 34.5798C35.596 34.5802 35.4543 34.5802 35.3125 34.5799C35.0957 34.5798 34.8788 34.5811 34.6619 34.5824C34.5243 34.5826 34.3866 34.5826 34.2489 34.5825C34.184 34.5831 34.1191 34.5836 34.0523 34.5841C33.9917 34.5837 33.9311 34.5834 33.8687 34.583C33.789 34.5831 33.789 34.5831 33.7076 34.5831C33.5278 34.5582 33.4291 34.5109 33.2865 34.3986C33.155 34.1572 33.1618 33.9156 33.1633 33.6478C33.163 33.5757 33.163 33.5757 33.1628 33.5021C33.1623 33.3411 33.1627 33.1802 33.163 33.0191C33.1629 32.9037 33.1627 32.7883 33.1624 32.6728C33.1619 32.3593 33.1621 32.0458 33.1625 31.7322C33.1627 31.4043 33.1625 31.0763 33.1623 30.7484C33.1621 30.1976 33.1624 29.6469 33.1629 29.0961C33.1635 28.4591 33.1633 27.8221 33.1627 27.1852C33.1622 26.6385 33.1621 26.0919 33.1624 25.5452C33.1626 25.2186 33.1626 24.892 33.1623 24.5654C33.1619 24.2584 33.1622 23.9514 33.1628 23.6443C33.1629 23.5316 33.1629 23.4188 33.1626 23.3061C33.1624 23.1523 33.1627 22.9985 33.1633 22.8448C33.163 22.8 33.1628 22.7553 33.1625 22.7091C33.1644 22.4314 33.1943 22.2244 33.3556 21.9962C33.4935 21.8999 33.5998 21.9086 33.767 21.9078ZM34.1615 22.9142C34.1615 26.4334 34.1615 29.9525 34.1615 33.5783C34.7751 33.5783 35.3887 33.5783 36.0209 33.5783C36.0209 30.0592 36.0209 26.54 36.0209 22.9142C35.4073 22.9142 34.7937 22.9142 34.1615 22.9142Z" fill="white"/>
<path d="M29.112 23.7724C29.1757 23.7715 29.2394 23.7707 29.305 23.7698C29.3739 23.7695 29.4427 23.7692 29.5137 23.7689C29.5844 23.7684 29.6552 23.7679 29.7281 23.7674C29.8778 23.7665 30.0276 23.766 30.1774 23.7659C30.3689 23.7656 30.5605 23.7635 30.752 23.761C30.9351 23.759 31.1182 23.7589 31.3013 23.7586C31.37 23.7575 31.4386 23.7565 31.5093 23.7554C31.5734 23.7557 31.6374 23.756 31.7034 23.7564C31.7596 23.7561 31.8159 23.7558 31.8738 23.7555C32.0899 23.8026 32.1638 23.8913 32.3015 24.0626C32.3284 24.2138 32.3384 24.3314 32.3358 24.4822C32.3362 24.5241 32.3366 24.5659 32.337 24.609C32.338 24.749 32.337 24.8889 32.336 25.0289C32.3363 25.1294 32.3367 25.2298 32.3372 25.3302C32.3382 25.6029 32.3375 25.8755 32.3364 26.1482C32.3355 26.4334 32.336 26.7186 32.3363 27.0038C32.3365 27.4827 32.3357 27.9616 32.3341 28.4405C32.3324 28.9944 32.3324 29.5483 32.3333 30.1022C32.3342 30.6348 32.3338 31.1675 32.3329 31.7001C32.3325 31.9269 32.3326 32.1537 32.333 32.3805C32.3334 32.6474 32.3327 32.9143 32.3312 33.1813C32.3308 33.2794 32.3308 33.3774 32.3312 33.4755C32.3317 33.6092 32.3308 33.7428 32.3296 33.8765C32.3301 33.9154 32.3305 33.9544 32.331 33.9945C32.3279 34.1801 32.3139 34.2735 32.1972 34.4209C32.0136 34.5605 31.9076 34.57 31.6791 34.5723C31.5869 34.5733 31.5869 34.5733 31.4927 34.5744C31.426 34.5748 31.3592 34.5752 31.2904 34.5756C31.1878 34.5763 31.1878 34.5763 31.0832 34.577C30.9382 34.5777 30.7933 34.5783 30.6483 34.5787C30.4629 34.5793 30.2776 34.5812 30.0923 34.5834C29.9151 34.5852 29.738 34.5854 29.5609 34.5859C29.4613 34.5873 29.4613 34.5873 29.3596 34.5888C29.2976 34.5886 29.2355 34.5885 29.1716 34.5883C29.1172 34.5886 29.0627 34.5889 29.0067 34.5893C28.8144 34.5552 28.7227 34.477 28.5827 34.3438C28.5016 34.1816 28.5203 34.0166 28.5207 33.8387C28.5206 33.7974 28.5205 33.7562 28.5204 33.7137C28.52 33.5747 28.5201 33.4358 28.5201 33.2968C28.5199 33.1975 28.5198 33.0981 28.5195 32.9988C28.5191 32.7284 28.5189 32.458 28.5189 32.1876C28.5188 31.9622 28.5186 31.7367 28.5185 31.5112C28.518 30.9794 28.5179 30.4475 28.5179 29.9157C28.5179 29.3665 28.5174 28.8174 28.5165 28.2682C28.5158 27.7972 28.5155 27.3263 28.5155 26.8553C28.5155 26.5738 28.5154 26.2922 28.5148 26.0107C28.5143 25.746 28.5143 25.4812 28.5147 25.2165C28.5147 25.1192 28.5146 25.022 28.5143 24.9247C28.5139 24.7921 28.5141 24.6595 28.5145 24.5269C28.5142 24.4883 28.514 24.4496 28.5137 24.4098C28.5151 24.2129 28.5219 24.0618 28.6374 23.8985C28.8238 23.7743 28.8928 23.7747 29.112 23.7724ZM29.5124 24.7735C29.5124 27.6791 29.5124 30.5846 29.5124 33.5782C30.108 33.5782 30.7035 33.5782 31.3171 33.5782C31.3171 30.6727 31.3171 27.7671 31.3171 24.7735C30.7216 24.7735 30.126 24.7735 29.5124 24.7735Z" fill="white"/>
<path d="M24.4775 25.6139C24.5733 25.6129 24.5733 25.6129 24.6711 25.6118C24.7396 25.6125 24.808 25.6133 24.8786 25.614C24.9847 25.6138 24.9847 25.6138 25.0929 25.6136C25.2422 25.6135 25.3916 25.6143 25.5409 25.6158C25.7321 25.6176 25.9233 25.6173 26.1145 25.6163C26.2972 25.6156 26.48 25.6166 26.6628 25.6174C26.7314 25.6172 26.8 25.6169 26.8706 25.6166C26.9662 25.6179 26.9662 25.6179 27.0637 25.6192C27.1197 25.6196 27.1757 25.6199 27.2334 25.6203C27.4182 25.6557 27.482 25.7231 27.5991 25.8672C27.6736 26.0163 27.6612 26.1344 27.6618 26.3013C27.6622 26.3706 27.6626 26.4398 27.663 26.5112C27.6632 26.5883 27.6633 26.6655 27.6635 26.7427C27.6638 26.8236 27.6642 26.9045 27.6645 26.9854C27.6655 27.2057 27.6661 27.4259 27.6665 27.6461C27.6668 27.7837 27.6671 27.9212 27.6675 28.0587C27.6685 28.4889 27.6693 28.9191 27.6698 29.3493C27.6703 29.8462 27.6717 30.343 27.6739 30.8399C27.6756 31.2237 27.6764 31.6076 27.6766 31.9914C27.6767 32.2208 27.6772 32.4501 27.6786 32.6795C27.6798 32.8952 27.6801 33.111 27.6795 33.3268C27.6795 33.4059 27.6798 33.4851 27.6806 33.5643C27.6816 33.6724 27.681 33.7806 27.6804 33.8887C27.6806 33.9492 27.6807 34.0097 27.6808 34.072C27.6475 34.2723 27.5747 34.3632 27.435 34.5078C27.2931 34.5787 27.1895 34.5698 27.0306 34.5704C26.938 34.5709 26.938 34.5709 26.8436 34.5715C26.7432 34.5716 26.7432 34.5716 26.6408 34.5717C26.5723 34.5718 26.5037 34.572 26.4332 34.5722C26.288 34.5725 26.1428 34.5726 25.9976 34.5726C25.8118 34.5726 25.6259 34.5733 25.4401 34.5743C25.2627 34.575 25.0853 34.575 24.9079 34.5751C24.8412 34.5755 24.7744 34.5759 24.7057 34.5763C24.6437 34.5761 24.5816 34.5759 24.5177 34.5758C24.4359 34.5759 24.4359 34.5759 24.3524 34.576C24.2017 34.5618 24.1153 34.5362 23.9897 34.4531C23.8613 34.2605 23.8663 34.1815 23.8653 33.9535C23.8648 33.8833 23.8643 33.813 23.8637 33.7407C23.8636 33.6627 23.8636 33.5847 23.8636 33.5067C23.8632 33.4246 23.8627 33.3426 23.8622 33.2606C23.861 33.0377 23.8605 32.8148 23.8602 32.5918C23.86 32.4526 23.8597 32.3133 23.8593 32.1741C23.858 31.6883 23.8573 31.2026 23.8571 30.7168C23.8569 30.2639 23.8552 29.8111 23.8529 29.3582C23.851 28.9694 23.8502 28.5807 23.8502 28.1919C23.8501 27.9597 23.8496 27.7275 23.8481 27.4953C23.8467 27.2769 23.8465 27.0585 23.8474 26.8401C23.8475 26.7599 23.8471 26.6798 23.8463 26.5996C23.8452 26.4902 23.8459 26.3807 23.8467 26.2713C23.8466 26.1794 23.8466 26.1794 23.8464 26.0857C23.9176 25.742 24.1457 25.6142 24.4775 25.6139ZM24.8647 26.6328C24.8647 28.9247 24.8647 31.2167 24.8647 33.5781C25.4603 33.5781 26.0558 33.5781 26.6694 33.5781C26.6694 31.2861 26.6694 28.9942 26.6694 26.6328C26.0739 26.6328 25.4783 26.6328 24.8647 26.6328Z" fill="white"/>
<path d="M36.457 18.7032C36.5112 19.01 36.5653 19.3168 36.6211 19.6329C36.4945 19.6527 36.368 19.6726 36.2376 19.693C33.2915 20.0883 33.2915 20.0883 30.6499 21.3384C30.6028 21.3723 30.5557 21.4061 30.5071 21.441C30.0898 21.7457 29.6982 22.073 29.3227 22.4276C29.1654 22.5738 29.0029 22.712 28.835 22.8458C28.8027 22.8716 28.7704 22.8974 28.7371 22.924C27.7881 23.6345 26.3499 23.4397 25.2299 23.3831C24.0576 23.3247 23.3155 23.3584 22.3628 24.1276C22.2005 24.2567 22.0319 24.3608 21.8538 24.4669C21.8032 24.4986 21.7526 24.5302 21.7005 24.5627C21.5978 24.6269 21.495 24.691 21.3922 24.755C21.1456 24.9086 20.8999 25.0631 20.6566 25.2219C20.6162 25.248 20.5758 25.2741 20.5341 25.3011C20.4605 25.3488 20.3872 25.397 20.3143 25.4459C20.1875 25.5276 20.0852 25.5912 19.9329 25.6026C19.7707 25.5005 19.6921 25.3428 19.5996 25.1802C19.5797 25.1466 19.5598 25.1129 19.5394 25.0782C19.4905 24.9952 19.4424 24.9117 19.3945 24.8282C19.5216 24.6902 19.6562 24.5959 19.8156 24.4975C19.8675 24.4652 19.9195 24.4329 19.973 24.3997C20.0291 24.3651 20.0852 24.3306 20.1431 24.295C20.2625 24.2209 20.3819 24.1469 20.5013 24.0728C20.5626 24.0349 20.6239 23.9969 20.6871 23.9579C20.9195 23.8138 21.1511 23.6687 21.3828 23.5234C21.8375 23.2384 22.2931 22.9549 22.751 22.6749C22.8125 22.6372 22.8125 22.6372 22.8752 22.5989C23.1701 22.419 23.2926 22.361 23.6381 22.3812C23.7155 22.3853 23.7929 22.3893 23.8703 22.3932C23.9116 22.3953 23.9529 22.3974 23.9955 22.3996C26.2546 22.5067 27.8755 22.4787 29.6524 20.9322C29.9834 20.6459 30.3417 20.4035 30.707 20.1634C30.8054 20.0977 30.9017 20.0297 30.9979 19.9606C31.31 19.7446 31.5669 19.61 31.9379 19.5226C31.9758 19.5136 32.0137 19.5046 32.0527 19.4953C32.4751 19.3961 32.9 19.3088 33.3253 19.2233C33.4094 19.2064 33.4934 19.1894 33.5775 19.1724C33.7515 19.1373 33.9256 19.1023 34.0997 19.0675C34.3227 19.0228 34.5455 18.9776 34.7683 18.9321C34.9409 18.8971 35.1135 18.8624 35.2862 18.8279C35.3685 18.8113 35.4507 18.7946 35.5329 18.7778C35.6472 18.7545 35.7615 18.7317 35.8759 18.7091C35.9732 18.6895 35.9732 18.6895 36.0725 18.6695C36.2383 18.6485 36.2383 18.6485 36.457 18.7032Z" fill="white"/>
<path d="M19.1758 37.2969C25.0591 37.2969 30.9423 37.2969 37.0039 37.2969C37.0039 37.6217 37.0039 37.9466 37.0039 38.2812C31.1206 38.2812 25.2373 38.2812 19.1758 38.2812C19.1758 37.9564 19.1758 37.6316 19.1758 37.2969Z" fill="white"/>
<path d="M19.8095 27.491C19.8721 27.4902 19.9347 27.4893 19.9992 27.4884C20.0669 27.4881 20.1346 27.4878 20.2043 27.4875C20.2738 27.487 20.3434 27.4865 20.415 27.486C20.5622 27.4852 20.7094 27.4847 20.8566 27.4845C21.0448 27.4842 21.233 27.4822 21.4213 27.4797C21.6012 27.4776 21.7812 27.4776 21.9611 27.4772C22.0623 27.4756 22.0623 27.4756 22.1656 27.474C22.686 27.4767 22.686 27.4767 22.8539 27.6362C22.9815 27.83 23.0109 27.9705 23.0117 28.1974C23.012 28.2492 23.0124 28.3009 23.0127 28.3542C23.0128 28.4392 23.0128 28.4392 23.0129 28.526C23.0133 28.6156 23.0133 28.6156 23.0137 28.7071C23.0145 28.9053 23.0149 29.1034 23.0152 29.3016C23.0155 29.4391 23.0158 29.5766 23.0161 29.7142C23.0166 29.9658 23.0169 30.2175 23.0171 30.4692C23.0174 30.8393 23.0183 31.2093 23.0199 31.5794C23.0212 31.9002 23.0217 32.221 23.0217 32.5418C23.0219 32.6782 23.0223 32.8145 23.0231 32.9508C23.024 33.1416 23.0239 33.3323 23.0235 33.523C23.024 33.5794 23.0246 33.6357 23.0251 33.6938C23.0234 33.985 23.0145 34.2069 22.84 34.4531C22.6736 34.5757 22.5225 34.5765 22.3196 34.5775C22.2592 34.578 22.1988 34.5785 22.1365 34.5791C22.0715 34.579 22.0065 34.579 21.9396 34.5789C21.8725 34.5792 21.8055 34.5794 21.7365 34.5796C21.5948 34.5799 21.453 34.58 21.3113 34.5797C21.0944 34.5796 20.8776 34.5808 20.6607 34.5822C20.523 34.5824 20.3854 34.5824 20.2477 34.5823C20.1828 34.5828 20.1179 34.5833 20.051 34.5839C19.9904 34.5835 19.9299 34.5832 19.8674 34.5828C19.7877 34.5829 19.7877 34.5829 19.7064 34.5829C19.5265 34.558 19.4279 34.5107 19.2853 34.3984C19.1952 34.2137 19.1622 34.0642 19.1617 33.8597C19.1613 33.8078 19.1609 33.7559 19.1605 33.7024C19.1606 33.6461 19.1608 33.5899 19.1609 33.5319C19.1606 33.4721 19.1603 33.4123 19.1601 33.3507C19.1593 33.1531 19.1593 32.9556 19.1595 32.758C19.1593 32.6206 19.159 32.4833 19.1588 32.3459C19.1584 32.058 19.1584 31.77 19.1587 31.4821C19.159 31.1498 19.1583 30.8174 19.1572 30.485C19.1561 30.1648 19.1559 29.8445 19.1561 29.5242C19.1561 29.3881 19.1558 29.2521 19.1552 29.1161C19.1546 28.9259 19.1549 28.7357 19.1556 28.5455C19.1551 28.4893 19.1547 28.4331 19.1543 28.3752C19.1565 28.0828 19.1696 27.8669 19.34 27.6172C19.5253 27.4936 19.592 27.4933 19.8095 27.491ZM20.1603 28.4922C20.1603 30.1705 20.1603 31.8489 20.1603 33.5781C20.7739 33.5781 21.3875 33.5781 22.0197 33.5781C22.0197 31.8997 22.0197 30.2214 22.0197 28.4922C21.4061 28.4922 20.7925 28.4922 20.1603 28.4922Z" fill="white"/>
<path d="M19.1758 35.4375C22.5866 35.4375 25.9975 35.4375 29.5117 35.4375C29.5117 35.7623 29.5117 36.0872 29.5117 36.4219C26.1009 36.4219 22.69 36.4219 19.1758 36.4219C19.1758 36.097 19.1758 35.7722 19.1758 35.4375Z" fill="white"/>
<path d="M27.5977 39.1562C30.7017 39.1562 33.8058 39.1562 37.0039 39.1562C37.0039 39.4811 37.0039 39.8059 37.0039 40.1406C33.8998 40.1406 30.7958 40.1406 27.5977 40.1406C27.5977 39.8158 27.5977 39.4909 27.5977 39.1562Z" fill="white"/>
<path d="M19.1758 39.1562C21.6662 39.1562 24.1567 39.1562 26.7227 39.1562C26.7227 39.4811 26.7227 39.8059 26.7227 40.1406C24.2322 40.1406 21.7417 40.1406 19.1758 40.1406C19.1758 39.8158 19.1758 39.4909 19.1758 39.1562Z" fill="white"/>
<path d="M30.3867 35.4375C32.5704 35.4375 34.7541 35.4375 37.0039 35.4375C37.0039 35.7623 37.0039 36.0872 37.0039 36.4219C34.8202 36.4219 32.6366 36.4219 30.3867 36.4219C30.3867 36.097 30.3867 35.7722 30.3867 35.4375Z" fill="white"/>
</g>
<defs>
<clipPath id="clip0_559_552">
<rect width="28" height="28" fill="white" transform="translate(14.0898 14)"/>
</clipPath>
</defs>
</svg>
