<svg width="41" height="42" viewBox="0 0 41 42" fill="none" xmlns="http://www.w3.org/2000/svg">
<ellipse cx="15.2286" cy="15.0581" rx="15.2286" ry="15.0581" fill="#3E82DA"/>
<path d="M27.6408 12.1409C27.8288 12.1389 27.8288 12.1389 28.0206 12.1369C28.2854 12.1347 28.5502 12.1334 28.815 12.1329C29.2186 12.1311 29.622 12.1238 30.0256 12.1163C30.2833 12.1149 30.5411 12.1138 30.7989 12.1131C30.9788 12.1088 30.9788 12.1088 31.1624 12.1044C32.0464 12.1114 32.3785 12.3372 33.0181 12.9368C33.567 13.0408 33.567 13.0408 34.1387 13.0294C34.8962 13.037 35.3709 13.0621 35.9816 13.5295C36.5743 14.3145 36.5743 14.3145 36.5743 14.7149C36.6895 14.7134 36.8046 14.7118 36.9233 14.7102C37.4429 14.7041 37.9625 14.7002 38.4821 14.6964C38.6634 14.6939 38.8447 14.6914 39.0314 14.6889C39.2043 14.6879 39.3771 14.687 39.5552 14.686C39.7151 14.6844 39.875 14.6829 40.0396 14.6813C40.427 14.7149 40.427 14.7149 40.7233 15.0113C40.7522 15.3679 40.7626 15.7074 40.7599 16.0641C40.7603 16.1738 40.7607 16.2835 40.761 16.3965C40.7619 16.7659 40.7606 17.1352 40.7593 17.5046C40.7595 17.7686 40.7598 18.0327 40.7602 18.2967C40.7609 19.0152 40.7597 19.7337 40.7582 20.4522C40.7569 21.2027 40.7572 21.9531 40.7573 22.7036C40.7571 23.9638 40.7558 25.2241 40.7538 26.4843C40.7515 27.9435 40.7507 29.4027 40.7508 30.8619C40.7509 32.2631 40.7501 33.6642 40.7489 35.0654C40.7484 35.6629 40.7481 36.2604 40.748 36.8579C40.7479 37.5607 40.747 38.2636 40.7455 38.9664C40.7451 39.2252 40.7449 39.4839 40.745 39.7426C40.745 40.0942 40.7442 40.4458 40.7431 40.7975C40.7434 40.9012 40.7436 41.0049 40.7438 41.1118C40.7402 41.8146 40.7402 41.8146 40.5751 41.9797C40.2829 41.9943 39.9902 41.9984 39.6976 41.9985C39.4115 41.9991 39.4115 41.9991 39.1196 41.9997C38.9062 41.9995 38.6929 41.9992 38.4795 41.9988C38.2564 41.999 38.0332 41.9993 37.8101 41.9996C37.2024 42.0003 36.5947 42 35.987 41.9996C35.3525 41.9992 34.7179 41.9995 34.0834 41.9998C33.0175 42 31.9517 41.9997 30.8859 41.999C29.6519 41.9982 28.4179 41.9984 27.1838 41.9993C26.1263 41.9999 25.0687 42 24.0111 41.9996C23.3786 41.9994 22.7462 41.9994 22.1137 41.9999C21.5192 42.0003 20.9247 42 20.3302 41.9991C20.1114 41.9989 19.8926 41.999 19.6738 41.9993C19.3763 41.9997 19.0789 41.9991 18.7814 41.9985C18.6146 41.9984 18.4477 41.9984 18.2758 41.9983C17.9039 41.9797 17.9039 41.9797 17.7557 41.8315C17.7406 41.4854 17.7352 41.1437 17.7359 40.7975C17.7356 40.688 17.7353 40.5786 17.7349 40.4658C17.734 40.0963 17.7341 39.7268 17.7342 39.3574C17.7338 39.0936 17.7333 38.8298 17.7327 38.566C17.7314 37.8475 17.7311 37.129 17.731 36.4104C17.7308 35.8117 17.7303 35.2129 17.7297 34.6141C17.7285 33.202 17.7282 31.7899 17.7283 30.3778C17.7284 28.9187 17.7268 27.4596 17.7245 26.0005C17.7225 24.7499 17.7217 23.4993 17.7218 22.2487C17.7219 21.5008 17.7214 20.7529 17.7199 20.0051C17.7184 19.302 17.7184 18.5989 17.7195 17.8958C17.7197 17.6372 17.7193 17.3785 17.7184 17.1198C17.7173 16.7679 17.718 16.4161 17.7191 16.0641C17.7183 15.9607 17.7176 15.8573 17.7168 15.7508C17.7219 15.0451 17.7219 15.0451 18.0521 14.7149C18.4258 14.6813 18.4258 14.6813 18.8914 14.686C19.0576 14.6869 19.2237 14.6879 19.395 14.6889C19.5692 14.6914 19.7434 14.6939 19.9228 14.6964C20.1859 14.6984 20.1859 14.6984 20.4542 14.7005C20.8883 14.704 21.3224 14.7088 21.7565 14.7149C21.8019 14.5982 21.8472 14.4814 21.8939 14.3612C22.1524 13.7316 22.465 13.3693 23.0901 13.085C23.8755 12.9762 24.6728 13.0339 25.461 13.085C25.4977 12.9933 25.5343 12.9016 25.5721 12.8071C26.0241 12.0387 26.8375 12.1462 27.6408 12.1409ZM18.793 15.7522C18.793 24.065 18.793 32.3777 18.793 40.9424C25.6877 40.9424 32.5824 40.9424 39.6861 40.9424C39.6861 32.6296 39.6861 24.3169 39.6861 15.7522C38.6592 15.7522 37.6323 15.7522 36.5743 15.7522C36.3787 16.1434 36.1831 16.5346 35.9816 16.9376C35.6089 17.3583 35.4225 17.3786 34.8557 17.4386C34.6386 17.4412 34.4215 17.4414 34.2044 17.4397C34.0855 17.4404 33.9667 17.4412 33.8442 17.442C33.4517 17.444 33.0592 17.4427 32.6667 17.4412C32.3936 17.4415 32.1205 17.4419 31.8474 17.4425C31.275 17.4431 30.7027 17.4422 30.1303 17.4401C29.3972 17.4376 28.6641 17.439 27.931 17.4417C27.3669 17.4433 26.8029 17.4428 26.2389 17.4416C25.9686 17.4413 25.6983 17.4417 25.428 17.4427C25.0499 17.4439 24.6719 17.4421 24.2938 17.4397C24.1824 17.4406 24.071 17.4415 23.9562 17.4424C23.2927 17.4344 22.8529 17.3814 22.3493 16.9376C22.1537 16.5464 21.9581 16.1552 21.7565 15.7522C20.7786 15.7522 19.8006 15.7522 18.793 15.7522Z" fill="white"/>
<path d="M28.0288 34.253C28.1756 34.2522 28.1756 34.2522 28.3253 34.2515C28.6502 34.2501 28.9751 34.2498 29.3 34.2496C29.5249 34.2491 29.7499 34.2486 29.9749 34.2481C30.4472 34.2472 30.9194 34.247 31.3916 34.2471C31.9977 34.2471 32.6038 34.245 33.2099 34.2425C33.6748 34.2408 34.1396 34.2405 34.6045 34.2406C34.828 34.2404 35.0515 34.2398 35.275 34.2386C35.5872 34.2372 35.8994 34.2376 36.2116 34.2385C36.4784 34.2382 36.4784 34.2382 36.7507 34.2379C37.1679 34.2745 37.1679 34.2745 37.4642 34.5709C37.3848 35.0948 37.3848 35.0948 37.1679 35.3118C36.855 35.3265 36.5416 35.3307 36.2284 35.3309C36.0813 35.3313 36.0813 35.3313 35.9313 35.3317C35.6057 35.3324 35.2801 35.3319 34.9544 35.3314C34.7291 35.3315 34.5038 35.3317 34.2784 35.3319C33.8056 35.3321 33.3327 35.3318 32.8598 35.3311C32.2524 35.3302 31.645 35.3307 31.0375 35.3316C30.572 35.3321 30.1065 35.332 29.6411 35.3316C29.417 35.3315 29.193 35.3316 28.9689 35.3319C28.6564 35.3323 28.3438 35.3318 28.0312 35.3309C27.853 35.3308 27.6747 35.3307 27.4911 35.3306C27.0918 35.3118 27.0918 35.3118 26.9436 35.1636C26.9251 34.7931 26.9251 34.7931 26.9436 34.4227C27.2171 34.1491 27.6627 34.2541 28.0288 34.253Z" fill="white"/>
<path d="M27.0915 27.6066C30.4655 27.6066 33.8396 27.6066 37.3158 27.6066C37.3892 27.9733 37.3892 27.9733 37.464 28.3475C37.0519 28.7595 36.8045 28.6814 36.2273 28.6822C36.1309 28.6827 36.0345 28.6832 35.9352 28.6837C35.6159 28.685 35.2967 28.6842 34.9774 28.6832C34.7559 28.6834 34.5345 28.6837 34.313 28.684C33.8486 28.6845 33.3843 28.6838 32.9199 28.6824C32.3239 28.6808 31.728 28.6817 31.132 28.6835C30.6747 28.6846 30.2173 28.6842 29.7599 28.6835C29.5402 28.6833 29.3204 28.6835 29.1006 28.6842C28.7937 28.685 28.4869 28.6838 28.18 28.6822C28.0052 28.6819 27.8304 28.6817 27.6503 28.6814C27.2397 28.6438 27.2397 28.6438 26.9434 28.3475C26.9923 28.103 27.0412 27.8585 27.0915 27.6066Z" fill="white"/>
<path d="M27.0915 20.79C30.4655 20.79 33.8396 20.79 37.3158 20.79C37.3892 21.1568 37.3892 21.1568 37.464 21.5309C37.0519 21.943 36.8045 21.8649 36.2273 21.8656C36.1309 21.8662 36.0345 21.8667 35.9352 21.8672C35.6159 21.8685 35.2967 21.8676 34.9774 21.8666C34.7559 21.8668 34.5345 21.8671 34.313 21.8675C33.8486 21.8679 33.3843 21.8673 32.9199 21.8659C32.3239 21.8642 31.728 21.8652 31.132 21.867C30.6747 21.868 30.2173 21.8677 29.7599 21.8669C29.5402 21.8667 29.3204 21.867 29.1006 21.8677C28.7937 21.8684 28.4869 21.8673 28.18 21.8656C28.0052 21.8654 27.8304 21.8652 27.6503 21.8649C27.2397 21.8273 27.2397 21.8273 26.9434 21.5309C26.9923 21.2864 27.0412 21.0419 27.0915 20.79Z" fill="white"/>
<path d="M27.0915 37.683C28.1902 37.6796 29.2889 37.6769 30.3876 37.6753C30.8977 37.6745 31.4078 37.6735 31.9179 37.6718C32.5038 37.6699 33.0897 37.6692 33.6756 37.6685C33.9516 37.6674 33.9516 37.6674 34.2331 37.6662C34.4022 37.6662 34.5713 37.6662 34.7455 37.6662C34.8952 37.6658 35.045 37.6655 35.1992 37.6652C35.5377 37.683 35.5377 37.683 35.6859 37.8312C35.6919 38.078 35.6922 38.3252 35.6859 38.572C35.3068 38.7616 35.0368 38.7401 34.6124 38.7418C34.4502 38.7427 34.2881 38.7436 34.121 38.7446C33.9452 38.7448 33.7693 38.7449 33.5882 38.7451C33.4084 38.7456 33.2287 38.7461 33.0435 38.7466C32.6628 38.7474 32.2821 38.7477 31.9015 38.7477C31.317 38.748 30.7327 38.7507 30.1483 38.7535C29.7792 38.7539 29.4101 38.7542 29.041 38.7544C28.8652 38.7554 28.6894 38.7565 28.5083 38.7576C28.265 38.7569 28.265 38.7569 28.0168 38.7562C27.8736 38.7564 27.7303 38.7566 27.5828 38.7569C27.2397 38.7202 27.2397 38.7202 26.9434 38.4239C26.9989 38.0349 26.9989 38.0349 27.0915 37.683Z" fill="white"/>
<path d="M27.5828 30.8292C27.7976 30.8295 27.7976 30.8295 28.0168 30.8299C28.179 30.8294 28.3412 30.829 28.5083 30.8285C28.772 30.8301 28.772 30.8301 29.041 30.8317C29.3107 30.8318 29.3107 30.8318 29.5858 30.8319C29.9664 30.8324 30.3471 30.8335 30.7278 30.8354C31.3122 30.8381 31.8965 30.8384 32.4809 30.8384C32.85 30.8391 33.2191 30.84 33.5882 30.841C33.764 30.8411 33.9398 30.8413 34.121 30.8415C34.2831 30.8424 34.4453 30.8434 34.6124 30.8443C34.8273 30.8452 34.8273 30.8452 35.0465 30.8461C35.3895 30.8659 35.3895 30.8659 35.6859 31.014C35.6922 31.2609 35.6919 31.508 35.6859 31.7549C35.5377 31.9031 35.5377 31.9031 35.1992 31.9209C35.0495 31.9206 34.8998 31.9203 34.7455 31.9199C34.5764 31.9199 34.4074 31.9199 34.2331 31.9199C34.0492 31.9191 33.8652 31.9184 33.6756 31.9176C33.3947 31.9173 33.3947 31.9173 33.1082 31.9169C32.6095 31.9163 32.1108 31.9149 31.6122 31.9133C31.1037 31.9118 30.5952 31.9111 30.0866 31.9103C29.0883 31.9087 28.0899 31.9062 27.0915 31.9031C26.9989 31.5512 26.9989 31.5512 26.9434 31.1622C27.2397 30.8659 27.2397 30.8659 27.5828 30.8292Z" fill="white"/>
<path d="M27.5828 24.0132C27.7976 24.0135 27.7976 24.0135 28.0168 24.0138C28.179 24.0134 28.3412 24.0129 28.5083 24.0125C28.772 24.014 28.772 24.014 29.041 24.0157C29.3107 24.0158 29.3107 24.0158 29.5858 24.0159C29.9664 24.0163 30.3471 24.0175 30.7278 24.0193C31.3122 24.022 31.8965 24.0224 32.4809 24.0223C32.85 24.0231 33.2191 24.0239 33.5882 24.0249C33.764 24.0251 33.9398 24.0253 34.121 24.0254C34.2831 24.0264 34.4453 24.0273 34.6124 24.0283C34.8273 24.0292 34.8273 24.0292 35.0465 24.03C35.3895 24.0498 35.3895 24.0498 35.6859 24.198C35.6922 24.4449 35.6919 24.692 35.6859 24.9389C35.5377 25.0871 35.5377 25.0871 35.1992 25.1049C35.0495 25.1046 34.8998 25.1042 34.7455 25.1039C34.5764 25.1039 34.4074 25.1039 34.2331 25.1039C34.0492 25.1031 33.8652 25.1023 33.6756 25.1015C33.3947 25.1012 33.3947 25.1012 33.1082 25.1009C32.6095 25.1002 32.1108 25.0989 31.6122 25.0972C31.1037 25.0957 30.5952 25.0951 30.0866 25.0943C29.0883 25.0927 28.0899 25.0902 27.0915 25.0871C26.9989 24.7352 26.9989 24.7352 26.9434 24.3462C27.2397 24.0498 27.2397 24.0498 27.5828 24.0132Z" fill="white"/>
<path d="M25.2093 27.3421C25.2924 27.3805 25.3755 27.4188 25.4611 27.4584C25.5711 27.7858 25.5711 27.7858 25.6093 28.1993C25.3794 28.5418 25.3794 28.5418 25.0339 28.8875C24.9098 29.0121 24.7856 29.1368 24.6577 29.2652C24.5255 29.3933 24.3933 29.5213 24.2571 29.6533C24.1284 29.7842 23.9997 29.9152 23.867 30.0501C22.9067 30.9979 22.9067 30.9979 22.4069 31.0722C21.8604 30.9834 21.5605 30.6296 21.1917 30.246C21.1173 30.1745 21.0429 30.1029 20.9663 30.0292C20.6167 29.6749 20.4318 29.4623 20.375 28.9604C20.3909 28.856 20.4067 28.7515 20.423 28.6438C20.7535 28.5333 20.7535 28.5333 21.1639 28.4956C21.4956 28.7405 21.4956 28.7405 21.8029 29.0791C21.9063 29.1905 22.0096 29.3018 22.1161 29.4165C22.1931 29.5038 22.27 29.5911 22.3494 29.6811C23.1345 29.0325 23.8313 28.3368 24.5228 27.5886C24.8684 27.3102 24.8684 27.3102 25.2093 27.3421Z" fill="white"/>
<path d="M25.2834 20.6734C25.3907 20.7118 25.4981 20.7501 25.6087 20.7897C25.612 21.4805 25.3767 21.823 24.9263 22.3114C24.7019 22.5378 24.4755 22.7621 24.2473 22.9846C24.0793 23.1569 24.0793 23.1569 23.9078 23.3327C23.4475 23.789 23.0711 24.1435 22.4697 24.3952C21.8719 24.3247 21.5743 24.0089 21.1819 23.5866C21.1081 23.5144 21.0344 23.4422 20.9585 23.3678C20.613 23.011 20.4309 22.7914 20.375 22.2912C20.3907 22.1869 20.4063 22.0826 20.4225 21.9751C20.753 21.8646 20.753 21.8646 21.1634 21.8269C21.495 22.0718 21.495 22.0718 21.8024 22.4104C21.9057 22.5218 22.009 22.6331 22.1155 22.7478C22.1925 22.8351 22.2695 22.9224 22.3488 23.0124C23.1323 22.3651 23.8229 21.6716 24.5078 20.9199C24.8678 20.6415 24.8678 20.6415 25.2834 20.6734Z" fill="white"/>
<path d="M25.2984 34.1417C25.4006 34.1854 25.5028 34.2292 25.6081 34.2743C25.6624 34.7557 25.6478 34.9596 25.3614 35.36C24.992 35.7352 24.6222 36.1093 24.2467 36.4784C24.1186 36.6106 23.9906 36.7428 23.8586 36.8789C23.734 37.0031 23.6093 37.1273 23.4809 37.2552C23.3669 37.3692 23.2528 37.4832 23.1353 37.6007C22.7927 37.8305 22.7927 37.8305 22.4064 37.814C21.8946 37.624 21.5574 37.2855 21.1813 36.9044C21.1056 36.8335 21.03 36.7627 20.9521 36.6897C20.7379 36.4761 20.7379 36.4761 20.4219 36.0524C20.4485 35.6287 20.4485 35.6287 20.5701 35.3115C20.8757 35.2467 20.8757 35.2467 21.3109 35.3115C21.6921 35.6258 22.0211 35.9792 22.3482 36.3487C22.7848 36.1537 23.073 35.9498 23.3941 35.5969C23.4758 35.5102 23.5574 35.4236 23.6416 35.3344C23.811 35.1518 23.9792 34.9681 24.1463 34.7833C24.7746 34.1227 24.7746 34.1227 25.2984 34.1417Z" fill="white"/>
</svg>
