<svg width="45" height="42" viewBox="0 0 45 42" fill="none" xmlns="http://www.w3.org/2000/svg">
<ellipse cx="16.4" cy="16.1538" rx="16.4" ry="16.1538" fill="#3E82DA"/>
<g clip-path="url(#clip0_559_581)">
<path d="M33.8195 17.418C33.8702 17.4612 33.9208 17.5045 33.973 17.549C35.5109 18.8935 36.4998 20.7969 36.6778 22.838C36.817 24.9592 36.1827 26.6125 35.1353 28.4078C34.8277 28.9381 34.5698 29.4633 34.3685 30.0445C34.353 30.0888 34.3376 30.1331 34.3216 30.1787C33.9129 31.3733 33.7104 32.6431 33.6868 33.9047C33.6854 33.9824 33.6839 34.06 33.6824 34.14C33.6798 34.2997 33.6779 34.4593 33.6767 34.619C33.6648 35.1657 33.6045 35.6124 33.2748 36.0601C32.7275 36.5712 32.7275 36.5712 32.4166 36.5712C32.4194 36.6478 32.4223 36.7244 32.4252 36.8033C32.4439 37.5153 32.4476 38.0661 31.9362 38.6108C31.7256 38.8054 31.4976 39.0111 31.1966 39.0111C31.1981 39.0657 31.1995 39.1203 31.2009 39.1765C31.2116 39.8906 31.1944 40.4657 30.7087 41.0241C30.2815 41.4144 29.9167 41.5311 29.3469 41.5347C29.292 41.5352 29.237 41.5358 29.1803 41.5363C29.0641 41.5372 28.9479 41.5378 28.8316 41.538C28.6554 41.5387 28.4794 41.5417 28.3032 41.5448C27.6541 41.5506 27.114 41.554 26.6151 41.0864C26.1565 40.6103 26.0609 40.093 26.069 39.4457C26.0693 39.4038 26.0696 39.3618 26.0699 39.3185C26.0706 39.216 26.0717 39.1136 26.0728 39.0111C26.0176 38.9949 25.9623 38.9787 25.9053 38.9621C25.4474 38.7938 25.122 38.4074 24.9139 37.9742C24.8605 37.7963 24.8457 37.6382 24.8469 37.4528C24.8472 37.3756 24.8472 37.3756 24.8475 37.2968C24.8483 37.2169 24.8483 37.2169 24.8491 37.1355C24.8494 37.0813 24.8496 37.0271 24.8499 36.9713C24.8506 36.8379 24.8516 36.7046 24.8529 36.5712C24.7976 36.555 24.7423 36.5388 24.6854 36.5221C24.2275 36.3539 23.9021 35.9675 23.6939 35.5343C23.6295 35.3282 23.6236 35.135 23.6201 34.9198C23.6177 34.8088 23.6177 34.8088 23.6152 34.6956C23.6135 34.6163 23.6118 34.5371 23.6101 34.4554C23.5476 32.1008 23.0732 30.0674 21.9127 28.0186C20.742 25.9509 20.2127 23.8431 20.8311 21.4901C21.4358 19.3647 22.8153 17.6019 24.7347 16.509C27.6081 14.9408 31.3355 15.259 33.8195 17.418ZM27.1365 16.7241C27.0651 16.7404 27.0651 16.7404 26.9923 16.7569C25.2819 17.1668 23.6951 18.2644 22.7403 19.7504C21.746 21.3755 21.3321 23.2956 21.7736 25.1697C22.012 26.1165 22.5161 26.9643 22.9971 27.8061C23.9667 29.5037 24.3678 31.2268 24.6089 33.1554C25.7764 33.1554 26.9439 33.1554 28.1468 33.1554C28.1468 32.1086 28.1468 31.0619 28.1468 29.9835C27.9656 29.9634 27.7844 29.9432 27.5978 29.9225C27.3931 29.7178 27.3834 29.6306 27.3157 29.3583C27.2168 29.0853 27.1266 28.9355 26.8744 28.7974C26.455 28.6061 26.1093 28.4683 25.6459 28.5805C25.5867 28.612 25.5276 28.6435 25.4667 28.6759C25.2295 28.7872 25.0438 28.8397 24.7919 28.7635C24.5642 28.6045 24.3758 28.4126 24.1819 28.2146C24.1258 28.1598 24.0696 28.1051 24.0118 28.0487C23.4633 27.5113 23.4633 27.5113 23.4233 27.2424C23.4242 27.0111 23.519 26.8665 23.6291 26.6667C23.7445 26.4125 23.769 26.2542 23.6887 25.9912C23.4518 25.3616 23.4518 25.3616 22.931 24.9714C22.8783 24.9509 22.8256 24.9304 22.7713 24.9093C22.6919 24.8778 22.6919 24.8778 22.6108 24.8456C22.4789 24.7921 22.4789 24.7921 22.352 24.7987C22.2805 24.5843 22.28 24.3892 22.2786 24.1661C22.2783 24.1222 22.2779 24.0784 22.2775 24.0332C22.277 23.9406 22.2766 23.8479 22.2763 23.7553C22.2757 23.6138 22.2739 23.4723 22.2719 23.3308C22.2715 23.2407 22.2712 23.1506 22.271 23.0605C22.2702 23.0183 22.2695 22.9761 22.2687 22.9326C22.2696 22.7468 22.2814 22.62 22.3725 22.4562C22.5182 22.3163 22.6694 22.2899 22.8628 22.2368C23.1064 22.1497 23.2339 22.1025 23.3804 21.8865C23.4556 21.7004 23.5142 21.514 23.5719 21.3218C23.6141 21.2501 23.6572 21.1788 23.7016 21.1083C23.778 20.8026 23.6608 20.6187 23.5231 20.3437C23.4418 20.1428 23.4249 20.0116 23.4499 19.7969C23.5133 19.6844 23.5133 19.6844 23.6101 19.5834C23.6482 19.5431 23.6863 19.5027 23.7256 19.4612C23.7756 19.4109 23.8255 19.3607 23.8769 19.3089C23.9483 19.2359 24.0197 19.1629 24.0911 19.0899C24.2426 18.9363 24.3943 18.7828 24.5472 18.6306C24.5796 18.5982 24.612 18.5659 24.6454 18.5325C24.7744 18.4155 24.8468 18.3944 25.0225 18.3801C25.2957 18.3994 25.4828 18.5152 25.7202 18.6441C25.9442 18.7165 26.041 18.6659 26.2558 18.5769C26.3213 18.5588 26.3868 18.5406 26.4543 18.5219C26.8625 18.3997 26.8625 18.3997 27.1615 18.1135C27.2411 17.9397 27.2411 17.9397 27.2971 17.7668C27.3588 17.5864 27.4209 17.4479 27.5368 17.296C27.6881 17.2395 27.6881 17.2395 27.8532 17.2159C27.9082 17.2074 27.9631 17.1988 28.0198 17.19C28.0617 17.1847 28.1036 17.1794 28.1468 17.174C28.1468 16.9928 28.1468 16.8117 28.1468 16.625C27.7939 16.6147 27.4801 16.6455 27.1365 16.7241ZM29.1227 16.625C29.1227 17.9535 29.1227 19.2821 29.1227 20.6509C29.2032 20.6509 29.2838 20.6509 29.3667 20.6509C29.3679 20.6118 29.3691 20.5728 29.3704 20.5325C29.3762 20.3546 29.3829 20.1768 29.3896 19.9989C29.3924 19.9068 29.3924 19.9068 29.3953 19.8127C29.3977 19.7532 29.4 19.6936 29.4025 19.6322C29.4044 19.5776 29.4063 19.523 29.4083 19.4667C29.4298 19.2921 29.4702 19.1609 29.5497 19.0039C29.75 18.8704 29.8043 18.8682 30.0355 18.8717C30.1238 18.871 30.1238 18.871 30.2139 18.8704C30.3376 18.8705 30.4614 18.8717 30.5851 18.8742C30.7577 18.8718 30.9078 18.8659 31.0746 18.8209C31.2031 18.6878 31.2449 18.5688 31.3186 18.3939C31.4294 18.2877 31.4294 18.2877 31.5359 18.2186C31.5889 18.183 31.5889 18.183 31.6429 18.1466C31.8771 18.0151 32.1038 18.0106 32.367 17.9937C32.4446 17.9885 32.5222 17.9834 32.6022 17.9782C32.6617 17.9745 32.7213 17.9708 32.7826 17.967C31.7723 17.1407 30.428 16.625 29.1227 16.625ZM28.0858 18.4549C28.0772 18.494 28.0686 18.5331 28.0598 18.5734C27.9773 18.8173 27.8933 19.0029 27.6595 19.1318C27.4133 19.2361 27.1614 19.3168 26.9063 19.3961C26.7175 19.4549 26.5545 19.5228 26.3845 19.6239C26.1507 19.762 26.036 19.7729 25.7679 19.7359C25.6235 19.6746 25.4856 19.6082 25.3478 19.5334C25.2196 19.4781 25.2196 19.4781 25.095 19.5331C24.8832 19.6756 24.7027 19.8373 24.5479 20.0409C24.5376 20.2476 24.6181 20.366 24.7042 20.5556C24.796 20.783 24.8141 20.8975 24.7919 21.1388C24.7071 21.3357 24.7071 21.3357 24.5937 21.5429C24.442 21.8238 24.334 22.0817 24.2544 22.3931C24.1903 22.6031 24.1545 22.699 23.9791 22.8337C23.8251 22.9108 23.6731 22.9721 23.5109 23.0298C23.3902 23.0902 23.3902 23.0902 23.267 23.1518C23.267 23.4537 23.267 23.7556 23.267 24.0667C23.3877 24.0919 23.5085 24.117 23.6329 24.143C23.9406 24.2578 24.0699 24.3488 24.2127 24.6464C24.3203 24.9074 24.4088 25.1741 24.4948 25.4429C24.5614 25.6295 24.6491 25.7989 24.7463 25.9713C24.8942 26.3227 24.6711 26.7819 24.5479 27.1166C24.6319 27.2104 24.7173 27.303 24.8033 27.3949C24.8507 27.4466 24.8982 27.4982 24.947 27.5515C25.0862 27.6828 25.0862 27.6828 25.2527 27.6582C25.4247 27.5964 25.5913 27.5282 25.7581 27.4535C26.0985 27.371 26.396 27.5358 26.6943 27.6846C26.9763 27.8236 27.2442 27.9351 27.5482 28.0201C27.7499 28.0876 27.822 28.1224 27.9371 28.3039C27.9986 28.4563 28.0477 28.6038 28.0858 28.7635C28.1059 28.7635 28.126 28.7635 28.1468 28.7635C28.1468 28.1395 28.1468 27.5155 28.1468 26.8726C27.9656 26.8122 27.7844 26.7518 27.5978 26.6896C27.1424 26.537 26.8009 26.3346 26.4388 26.0186C26.4019 25.9896 26.3649 25.9605 26.3268 25.9305C25.8753 25.5402 25.5061 24.8061 25.4126 24.2166C25.3349 23.1306 25.4811 22.2264 26.2063 21.3676C26.769 20.7777 27.381 20.5619 28.1468 20.3459C28.1468 19.7219 28.1468 19.0979 28.1468 18.4549C28.1266 18.4549 28.1065 18.4549 28.0858 18.4549ZM33.6975 18.8209C33.7011 18.8755 33.7046 18.9301 33.7083 18.9863C33.7268 19.4842 33.7112 19.8839 33.3926 20.2849C33.0653 20.5742 32.7751 20.6887 32.3442 20.7309C31.9275 20.6968 31.5667 20.5721 31.2881 20.2506C31.1904 20.123 31.1029 19.9918 31.0136 19.8579C30.865 19.8357 30.865 19.8357 30.701 19.8465C30.6029 19.8502 30.5048 19.854 30.4037 19.8579C30.4037 20.1196 30.4037 20.3812 30.4037 20.6509C30.5081 20.666 30.6125 20.6811 30.7201 20.6966C31.001 20.7479 31.1816 20.7997 31.3796 21.0168C31.52 21.2345 31.5204 21.4296 31.5269 21.685C31.5281 21.7252 31.5293 21.7655 31.5305 21.807C31.5341 21.935 31.5369 22.063 31.5398 22.191C31.5421 22.2781 31.5445 22.3651 31.5469 22.4522C31.5527 22.665 31.5579 22.8779 31.5626 23.0908C31.6603 23.0963 31.758 23.1003 31.8557 23.1036C31.9373 23.1072 31.9373 23.1072 32.0206 23.1109C32.1776 23.1043 32.1776 23.1043 32.2834 22.9943C32.4349 22.7874 32.4349 22.7874 32.4776 22.5418C32.9342 22.2945 33.3717 22.1408 33.891 22.2697C34.3455 22.4252 34.5863 22.6649 34.7955 23.0908C34.9226 23.5143 34.8655 23.8885 34.694 24.2881C34.5093 24.6158 34.2336 24.8046 33.8805 24.9207C33.4266 24.9752 32.9769 24.9564 32.5996 24.6767C32.49 24.5353 32.3944 24.3949 32.3063 24.2392C32.0878 24.057 31.8358 24.1079 31.5626 24.1277C31.5621 24.1794 31.5615 24.2311 31.5609 24.2843C31.5582 24.4774 31.5544 24.6704 31.55 24.8634C31.5483 24.9467 31.547 25.03 31.5461 25.1133C31.5448 25.2335 31.5418 25.3537 31.5388 25.474C31.5375 25.5462 31.5362 25.6183 31.5349 25.6927C31.4867 25.9883 31.3533 26.1834 31.1242 26.3732C30.8837 26.4747 30.6638 26.4872 30.4037 26.5066C30.4037 26.7683 30.4037 27.03 30.4037 27.2996C30.7424 27.3336 30.7424 27.3336 31.0746 27.2996C31.1846 27.1867 31.2391 27.0777 31.3074 26.9362C31.4275 26.7289 31.5937 26.6681 31.8066 26.5676C31.8469 26.5475 31.8871 26.5274 31.9286 26.5066C32.4267 26.4636 32.7819 26.4893 33.2096 26.7506C33.27 26.7707 33.3303 26.7909 33.3926 26.8116C33.4536 26.9069 33.4536 26.9069 33.5146 27.0556C33.5473 27.1286 33.58 27.2015 33.6137 27.2767C33.7662 27.7014 33.7551 28.0717 33.5641 28.4814C33.3599 28.846 33.1191 29.0241 32.728 29.1576C32.3358 29.2581 31.9787 29.1978 31.6236 29.0075C31.4093 28.8583 31.2295 28.7278 31.1349 28.4795C31.0292 28.3249 31.0292 28.3249 30.8764 28.3094C30.698 28.2993 30.5214 28.2971 30.3427 28.2984C30.2207 28.2984 30.0987 28.2977 29.9767 28.2961C29.9226 28.2964 29.8685 28.2967 29.8128 28.2971C29.642 28.271 29.5912 28.2293 29.4887 28.0926C29.428 27.9106 29.4158 27.7754 29.4084 27.5848C29.4059 27.5221 29.4033 27.4594 29.4007 27.3948C29.3983 27.3294 29.3959 27.264 29.3934 27.1967C29.3908 27.1306 29.3881 27.0645 29.3854 26.9964C29.3789 26.8331 29.3727 26.6699 29.3667 26.5066C29.2862 26.5066 29.2057 26.5066 29.1227 26.5066C29.1227 28.7007 29.1227 30.8948 29.1227 33.1554C30.2902 33.1554 31.4577 33.1554 32.6606 33.1554C32.7411 32.5917 32.8216 32.0281 32.9046 31.4474C33.2431 29.802 33.9002 28.4092 34.7269 26.9565C35.6447 25.3387 35.9005 23.6038 35.4307 21.7941C35.1461 20.7731 34.6121 19.4362 33.6975 18.8209ZM32.0544 19.0687C31.9489 19.2611 31.9982 19.408 32.0506 19.6139C32.2183 19.7528 32.2183 19.7528 32.3861 19.7245C32.5541 19.6699 32.6282 19.6424 32.7216 19.4919C32.708 19.2694 32.6982 19.1635 32.5386 19.0039C32.3496 18.9838 32.223 18.9763 32.0544 19.0687ZM27.6702 21.5506C27.6069 21.5817 27.5436 21.6128 27.4784 21.6449C26.9224 21.9561 26.6186 22.436 26.4202 23.0326C26.2849 23.6077 26.3517 24.1532 26.6218 24.6767C26.9485 25.2002 27.3815 25.5692 27.9638 25.7747C28.0242 25.7747 28.0845 25.7747 28.1468 25.7747C28.1468 24.3254 28.1468 22.8761 28.1468 21.3828C27.9626 21.3828 27.8341 21.4689 27.6702 21.5506ZM29.1227 21.6878C29.1227 22.9358 29.1227 24.1838 29.1227 25.4697C29.5857 25.4697 30.0487 25.4697 30.5257 25.4697C30.5257 24.2217 30.5257 22.9736 30.5257 21.6878C30.0627 21.6878 29.5997 21.6878 29.1227 21.6878ZM33.2553 23.2814C33.1313 23.3925 33.1313 23.3925 33.1219 23.5787C33.137 23.7569 33.137 23.7569 33.2134 23.8799C33.4057 23.9854 33.5527 23.9361 33.7585 23.8837C33.8974 23.7161 33.8974 23.7161 33.8691 23.5482C33.8155 23.3833 33.7778 23.3121 33.6365 23.2128C33.4034 23.1946 33.4034 23.1946 33.2553 23.2814ZM32.0544 27.5474C31.9489 27.7397 31.9982 27.8867 32.0506 28.0926C32.2183 28.2314 32.2183 28.2314 32.3861 28.2031C32.5541 28.1485 32.6282 28.121 32.7216 27.9706C32.708 27.7481 32.6982 27.6422 32.5386 27.4826C32.3496 27.4625 32.223 27.4549 32.0544 27.5474ZM24.6699 34.1923C24.5853 35.0537 24.5853 35.0537 24.9139 35.4733C25.0913 35.5967 25.2354 35.6107 25.4487 35.6116C25.5362 35.6124 25.5362 35.6124 25.6255 35.6132C25.7208 35.6131 25.7208 35.6131 25.8181 35.613C25.8854 35.6134 25.9526 35.6138 26.022 35.6142C26.2446 35.6154 26.4673 35.6156 26.69 35.6158C26.8446 35.6162 26.9993 35.6166 27.154 35.617C27.4784 35.6177 27.8028 35.618 28.1271 35.6179C28.5016 35.6178 28.8761 35.6191 29.2506 35.621C29.6113 35.6228 29.972 35.6232 30.3328 35.6232C30.486 35.6233 30.6393 35.6239 30.7926 35.6248C31.0069 35.626 31.2212 35.6256 31.4356 35.6249C31.5306 35.6259 31.5306 35.6259 31.6275 35.627C31.9802 35.6239 32.2052 35.5999 32.4776 35.3513C32.6678 35.0164 32.6678 35.0164 32.5996 34.1923C29.9828 34.1923 27.366 34.1923 24.6699 34.1923ZM25.8899 36.6322C25.8053 37.4936 25.8053 37.4936 26.1338 37.9132C26.3516 38.0584 26.5069 38.0532 26.7583 38.0529C26.8031 38.0533 26.8478 38.0537 26.8939 38.0541C27.042 38.0553 27.19 38.0555 27.3381 38.0557C27.441 38.0561 27.544 38.0565 27.6469 38.0569C27.8628 38.0576 28.0786 38.0579 28.2945 38.0578C28.571 38.0578 28.8474 38.0594 29.1238 38.0615C29.3364 38.0629 29.5491 38.0631 29.7618 38.0631C29.8637 38.0632 29.9656 38.0638 30.0675 38.0647C30.2101 38.0659 30.3527 38.0655 30.4954 38.0648C30.5583 38.0658 30.5583 38.0658 30.6225 38.0669C30.8313 38.0642 30.9478 38.0382 31.1261 37.9266C31.5188 37.5223 31.3796 37.2761 31.3796 36.6322C29.568 36.6322 27.7564 36.6322 25.8899 36.6322ZM27.1098 39.0721C27.0776 39.7136 27.0776 39.7136 27.2928 40.2311C27.682 40.6103 28.1086 40.5491 28.6233 40.5513C28.7298 40.5532 28.7298 40.5532 28.8383 40.5551C29.2241 40.5569 29.5177 40.5484 29.8547 40.3531C30.2409 39.9567 30.1597 39.6508 30.1597 39.0721C29.1532 39.0721 28.1468 39.0721 27.1098 39.0721Z" fill="white"/>
<path d="M17.5942 17.845C17.7756 17.9254 17.941 18.0255 18.1089 18.131C18.154 18.1585 18.1992 18.186 18.2458 18.2144C19.0924 18.7332 19.0924 18.7332 19.3021 18.943C19.3434 19.3691 19.3434 19.3691 19.203 19.5797C19.0261 19.696 18.9027 19.7187 18.6922 19.736C18.5482 19.6833 18.5482 19.6833 18.4024 19.5949C18.1836 19.4655 17.9649 19.3389 17.74 19.2203C17.6909 19.1941 17.6417 19.1679 17.591 19.1408C17.4929 19.0885 17.3944 19.0366 17.2957 18.9852C17.0369 18.8448 16.8548 18.7404 16.7402 18.455C16.7402 18.199 16.7633 18.0741 16.927 17.8755C17.1634 17.7548 17.3449 17.7811 17.5942 17.845Z" fill="white"/>
<path d="M38.6984 30.0447C38.8886 30.1238 38.8886 30.1238 39.0785 30.2341C39.1476 30.274 39.2166 30.3139 39.2878 30.355C39.3231 30.3761 39.3585 30.3972 39.3948 30.4189C39.5026 30.483 39.6112 30.5454 39.72 30.6076C40.32 30.9588 40.32 30.9588 40.5284 31.2646C40.5627 31.4476 40.5627 31.4476 40.5284 31.6306C40.4026 31.806 40.4026 31.806 40.2234 31.9356C39.8091 31.9968 39.5396 31.8242 39.1941 31.623C39.1424 31.5941 39.0907 31.5651 39.0375 31.5353C38.0724 30.9885 38.0724 30.9885 37.9665 30.7767C37.9366 30.5123 37.9374 30.3912 38.0923 30.1705C38.3184 30.0117 38.426 30.0209 38.6984 30.0447Z" fill="white"/>
<path d="M18.9963 30.0448C19.2215 30.2029 19.2908 30.2913 19.3394 30.5633C19.2929 30.8239 19.1982 30.9251 18.9963 31.0817C18.7639 31.2286 18.5244 31.3613 18.2834 31.4935C18.2189 31.5294 18.1544 31.5653 18.0879 31.6024C17.4196 31.9739 17.4196 31.9739 17.0444 31.9357C16.8378 31.7863 16.7524 31.7 16.7051 31.4477C16.759 31.1602 16.9151 31.0084 17.1499 30.8411C17.511 30.6287 17.511 30.6287 17.6559 30.5458C17.7646 30.4834 17.8723 30.4193 17.98 30.3551C18.049 30.3152 18.1181 30.2753 18.1893 30.2342C18.2519 30.1978 18.3146 30.1614 18.3791 30.1239C18.6014 30.0314 18.7577 30.0214 18.9963 30.0448Z" fill="white"/>
<path d="M40.2848 17.8451C40.4373 17.9748 40.4373 17.9748 40.5288 18.1501C40.5288 18.3839 40.5171 18.5198 40.3627 18.6992C40.1027 18.9274 39.7976 19.0864 39.4994 19.2595C39.4338 19.2986 39.3681 19.3378 39.3005 19.3781C39.2367 19.4153 39.1729 19.4525 39.1072 19.4909C39.0494 19.5248 38.9915 19.5587 38.9319 19.5936C38.6887 19.7087 38.4882 19.7618 38.2261 19.6903C38.0889 19.6141 38.0889 19.6141 37.9669 19.4311C37.9225 19.0873 37.9225 19.0873 37.9669 18.9431C38.2695 18.64 38.6473 18.4406 39.0153 18.2264C39.1065 18.1725 39.1065 18.1725 39.1996 18.1175C39.8471 17.7376 39.8471 17.7376 40.2848 17.8451Z" fill="white"/>
<path d="M35.4674 13.0262C35.6123 13.1253 35.6123 13.1253 35.7114 13.2702C35.739 13.5905 35.6928 13.7838 35.5353 14.0617C35.4796 14.1608 35.4796 14.1608 35.4227 14.2618C35.3834 14.3296 35.344 14.3974 35.3035 14.4672C35.2653 14.5355 35.2271 14.6037 35.1878 14.674C34.7325 15.4731 34.7325 15.4731 34.4245 15.5654C34.2252 15.5587 34.0838 15.5386 33.912 15.4356C33.7804 15.2163 33.7712 15.0403 33.8205 14.7951C33.9305 14.5499 34.0622 14.3205 34.2014 14.0907C34.2667 13.9828 34.3305 13.8741 34.3941 13.7652C34.9177 12.8803 34.9177 12.8803 35.4674 13.0262Z" fill="white"/>
<path d="M22.3516 13.0261C22.6597 13.3529 22.8821 13.7684 23.1064 14.1545C23.1397 14.2093 23.173 14.2641 23.2072 14.3206C23.4047 14.6606 23.4997 14.8889 23.4495 15.283C23.358 15.4355 23.358 15.4355 23.2056 15.527C22.8751 15.5742 22.8751 15.5742 22.7176 15.527C22.3799 15.2211 22.1867 14.8608 21.9665 14.4671C21.9272 14.3994 21.8878 14.3316 21.8473 14.2617C21.8101 14.1957 21.773 14.1296 21.7347 14.0616C21.7009 14.0019 21.667 13.9422 21.6322 13.8807C21.545 13.6631 21.5378 13.5025 21.5586 13.2701C21.7798 12.9802 22.0058 12.9108 22.3516 13.0261Z" fill="white"/>
<path d="M40.2462 24.3396C40.2954 24.3394 40.3446 24.3392 40.3952 24.3389C40.499 24.3388 40.6028 24.3392 40.7066 24.3402C40.8652 24.3415 41.0237 24.3402 41.1824 24.3387C41.2834 24.3388 41.3843 24.3392 41.4853 24.3396C41.5563 24.3389 41.5563 24.3389 41.6287 24.3381C41.8443 24.3419 41.9697 24.3536 42.1444 24.4849C42.267 24.6563 42.2949 24.7715 42.2992 24.982C42.2267 25.1499 42.1675 25.2521 42.0156 25.3554C41.8176 25.4294 41.6273 25.4276 41.4188 25.4273C41.3752 25.4276 41.3316 25.4279 41.2866 25.4281C41.1946 25.4285 41.1026 25.4285 41.0105 25.4283C40.8702 25.4281 40.73 25.4295 40.5897 25.431C40.5001 25.4312 40.4105 25.4312 40.3208 25.4312C40.2791 25.4317 40.2374 25.4323 40.1945 25.4329C39.9305 25.4303 39.7645 25.3872 39.5543 25.226C39.4589 25.0351 39.4508 24.8228 39.4933 24.616C39.6972 24.3321 39.921 24.3362 40.2462 24.3396Z" fill="white"/>
<path d="M15.7854 24.3394C15.8346 24.3392 15.8838 24.3389 15.9344 24.3387C16.0382 24.3385 16.142 24.339 16.2457 24.34C16.4044 24.3413 16.5629 24.34 16.7216 24.3384C16.8226 24.3386 16.9235 24.3389 17.0245 24.3394C17.0955 24.3386 17.0955 24.3386 17.1679 24.3379C17.3864 24.3417 17.5094 24.3534 17.6852 24.4882C17.813 24.665 17.8119 24.776 17.8017 24.9877C17.7646 25.1646 17.6758 25.243 17.5334 25.3478C17.3527 25.4381 17.1681 25.4199 16.9699 25.4211C16.9261 25.4215 16.8823 25.4218 16.8372 25.4222C16.7445 25.4228 16.6517 25.4232 16.5589 25.4234C16.4176 25.424 16.2762 25.4259 16.1349 25.4278C16.0447 25.4282 15.9545 25.4285 15.8643 25.4288C15.8222 25.4295 15.7802 25.4303 15.7368 25.431C15.4706 25.4298 15.3063 25.3865 15.0935 25.2258C14.9759 25.0707 14.971 24.995 14.9791 24.7988C15.1055 24.3656 15.3752 24.3351 15.7854 24.3394Z" fill="white"/>
<path d="M28.6344 11.2268C28.6746 11.2261 28.7149 11.2255 28.7564 11.2249C28.9409 11.2739 29.0061 11.3496 29.1224 11.5012C29.1466 11.6788 29.1566 11.8328 29.1548 12.0102C29.155 12.0594 29.1552 12.1085 29.1555 12.1592C29.1556 12.263 29.1552 12.3667 29.1542 12.4705C29.1529 12.6292 29.1542 12.7877 29.1557 12.9464C29.1556 13.0473 29.1552 13.1483 29.1548 13.2492C29.1553 13.2966 29.1557 13.3439 29.1563 13.3927C29.1525 13.6097 29.1412 13.7336 29.0074 13.9084C28.8522 14.0211 28.7658 14.0586 28.5734 14.0631C28.2294 13.9242 28.2294 13.9242 28.1464 13.7582C28.1381 13.592 28.1334 13.4274 28.1319 13.2611C28.1314 13.2118 28.1309 13.1624 28.1304 13.1116C28.1295 13.0071 28.1289 12.9026 28.1284 12.7981C28.1273 12.6384 28.1247 12.4787 28.122 12.319C28.1214 12.2175 28.1208 12.116 28.1204 12.0145C28.1194 11.9668 28.1183 11.919 28.1172 11.8699C28.1181 11.6498 28.127 11.5267 28.2624 11.3492C28.4009 11.2497 28.4658 11.2241 28.6344 11.2268Z" fill="white"/>
</g>
<defs>
<clipPath id="clip0_559_581">
<rect width="31.2308" height="31.2308" fill="white" transform="translate(13.0195 10.7693)"/>
</clipPath>
</defs>
</svg>
