<svg width="45" height="42" viewBox="0 0 45 42" fill="none" xmlns="http://www.w3.org/2000/svg">
<ellipse cx="16.8316" cy="16.5789" rx="16.8316" ry="16.5789" fill="#3E82DA"/>
<g clip-path="url(#clip0_559_599)">
<path d="M27.6551 17.209C27.7487 17.2086 27.8424 17.2083 27.9388 17.2079C28.1366 17.2074 28.3344 17.2082 28.5322 17.2098C28.7852 17.2119 29.0381 17.2107 29.291 17.2085C29.5331 17.2069 29.7751 17.2081 30.0172 17.209C30.1078 17.2082 30.1984 17.2075 30.2918 17.2068C30.9124 17.215 30.9124 17.215 31.2114 17.411C31.3499 17.643 31.3736 17.7689 31.3667 18.0376C31.3656 18.1169 31.3644 18.1962 31.3632 18.2779C31.3603 18.3599 31.3573 18.4419 31.3542 18.5265C31.3518 18.6516 31.3518 18.6516 31.3493 18.7792C31.3451 18.9848 31.3393 19.1901 31.3319 19.3955C31.3821 19.4084 31.4323 19.4212 31.4841 19.4345C31.8926 19.542 32.2833 19.6597 32.6689 19.8323C32.7169 19.8537 32.7649 19.8751 32.8143 19.8971C33.7293 20.3164 34.5152 20.8534 35.2538 21.5347C35.3221 21.5972 35.3904 21.6596 35.4608 21.7239C37.1371 23.3249 38.1479 25.6221 38.2082 27.9327C38.2269 28.9592 38.1819 29.9564 37.8922 30.9473C37.8777 30.9971 37.8632 31.0469 37.8483 31.0982C37.5959 31.9347 37.5959 31.9347 37.2504 32.2308C37.0319 32.3401 36.8499 32.3185 36.6087 32.3021C36.4074 32.2127 36.2904 32.1393 36.1585 31.9634C36.0292 31.54 36.1373 31.1552 36.2789 30.7512C36.7876 29.2843 36.7946 27.5774 36.3234 26.0984C36.2976 26.0172 36.2718 25.9359 36.2452 25.8522C35.8769 24.8186 35.3265 23.9305 34.612 23.1035C34.5661 23.0502 34.5201 22.9969 34.4728 22.9419C33.4453 21.843 32.1091 21.2311 30.6901 20.8217C30.0895 20.6358 30.0895 20.6358 29.9058 20.3225C29.8815 20.1396 29.8815 20.1396 29.8849 19.9359C29.8854 19.87 29.8859 19.8041 29.8865 19.7363C29.8884 19.6532 29.8904 19.5702 29.8924 19.4847C29.8968 19.2199 29.9012 18.9552 29.9058 18.6824C29.1998 18.6824 28.4939 18.6824 27.7665 18.6824C27.7778 19.2062 27.7778 19.2062 27.7922 19.7298C27.7955 20.0285 27.7939 20.2612 27.6713 20.5362C27.3775 20.7572 27.0543 20.8473 26.7058 20.9554C25.684 21.2927 24.8257 21.7003 23.9873 22.3904C23.9257 22.4411 23.8641 22.4917 23.8006 22.5439C22.6955 23.4958 21.9416 24.717 21.4915 26.0984C21.469 26.1674 21.469 26.1674 21.4461 26.2379C21.0138 27.6409 21.0486 29.2669 21.4915 30.6621C21.5139 30.7347 21.5139 30.7347 21.5367 30.8088C22.1582 32.7759 23.571 34.3402 25.3869 35.2929C27.2166 36.2125 29.3083 36.4113 31.2608 35.7669C31.5953 35.6602 31.8371 35.6403 32.1876 35.7249C32.4149 35.8748 32.5225 35.9815 32.5809 36.2511C32.6037 36.599 32.6037 36.599 32.5441 36.7945C32.2421 37.1096 31.953 37.2322 31.5369 37.3427C31.4882 37.3569 31.4395 37.3711 31.3893 37.3857C30.5795 37.6127 29.7821 37.6795 28.9431 37.6769C28.8931 37.6769 28.843 37.6768 28.7915 37.6767C26.2918 37.6665 24.1575 36.7173 22.3472 35.0118C22.2999 34.9691 22.2525 34.9263 22.2037 34.8823C20.9948 33.7469 20.2982 32.2321 19.8514 30.6621C19.8256 30.5735 19.7998 30.4849 19.7732 30.3936C19.2302 28.1003 19.72 25.5135 20.9168 23.5093C21.3029 22.8931 21.7786 22.3478 22.2759 21.82C22.3186 21.7726 22.3614 21.7253 22.4054 21.6765C23.3849 20.6335 24.7537 19.8538 26.1265 19.4668C26.1971 19.4668 26.2677 19.4668 26.3404 19.4668C26.3385 19.4125 26.3367 19.3582 26.3347 19.3023C26.3273 19.0556 26.3227 18.8089 26.3181 18.5621C26.3151 18.4767 26.3121 18.3912 26.3091 18.3032C26.3079 18.2207 26.3068 18.1382 26.3056 18.0532C26.3037 17.9774 26.3018 17.9016 26.2999 17.8235C26.3404 17.6128 26.3404 17.6128 26.461 17.41C26.8374 17.1648 27.2153 17.2054 27.6551 17.209Z" fill="white"/>
<path d="M29.9074 11.5072C30.1614 11.5224 30.2626 11.551 30.4868 11.6855C30.6794 12.0065 30.6959 12.2564 30.6205 12.6214C30.4995 12.8976 30.3549 13.1518 30.1927 13.4058C30.2646 13.4111 30.3366 13.4164 30.4108 13.4219C33.8281 13.7166 36.9332 15.2599 39.3913 17.6129C39.4268 17.6464 39.4622 17.6799 39.4988 17.7145C41.996 20.0841 43.7961 23.7253 43.8963 27.1942C43.8981 27.3065 43.8996 27.4187 43.9007 27.531C43.9014 27.5919 43.9021 27.6527 43.9028 27.7154C43.915 29.0549 43.9111 30.3504 43.5984 31.6604C43.5812 31.7337 43.564 31.807 43.5463 31.8825C43.2885 32.9482 42.9317 33.9524 42.4575 34.9406C42.4186 35.0216 42.4186 35.0216 42.379 35.1042C41.7255 36.4426 40.8428 37.6405 39.8191 38.7198C39.7541 38.7891 39.7541 38.7891 39.6877 38.8597C39.4774 39.0632 39.3233 39.1745 39.0258 39.1923C38.7247 39.1437 38.6031 39.0789 38.393 38.8625C38.2658 38.608 38.2697 38.3548 38.3217 38.0781C38.4552 37.8581 38.6403 37.6897 38.8208 37.5076C39.413 36.8611 39.929 36.1853 40.3896 35.4397C40.4165 35.397 40.4434 35.3542 40.4711 35.3102C41.7542 33.2502 42.3476 30.8357 42.3416 28.4249C42.3416 28.3655 42.3416 28.3061 42.3415 28.2449C42.337 26.7281 42.0988 25.3224 41.6018 23.8879C41.5779 23.8182 41.5779 23.8182 41.5535 23.7471C40.685 21.2761 39.0005 19.0837 36.8955 17.5416C36.8552 17.5119 36.8148 17.4822 36.7732 17.4517C34.8568 16.0648 32.6658 15.2951 30.3353 14.9745C30.3823 15.0422 30.4294 15.1098 30.4779 15.1795C30.6636 15.507 30.6895 15.8187 30.6205 16.1867C30.4868 16.4096 30.4868 16.4096 30.264 16.5433C30.0162 16.592 29.7958 16.6083 29.5509 16.5433C29.153 16.2377 28.9247 15.7788 28.6729 15.3533C28.6269 15.2793 28.5809 15.2053 28.5335 15.129C28.2632 14.6728 28.0642 14.295 28.1961 13.7623C28.3293 13.4302 28.4961 13.1237 28.6729 12.813C28.7175 12.7308 28.7622 12.6486 28.8082 12.5639C29.3976 11.4992 29.3976 11.4992 29.9074 11.5072Z" fill="white"/>
<path d="M32.8046 23.1731C34.1764 24.2368 35.0272 25.6769 35.3264 27.3819C35.357 27.7065 35.3638 28.0276 35.362 28.3535C35.3613 28.4839 35.3613 28.4839 35.3606 28.6169C35.3306 30.1144 34.8264 31.4637 33.8289 32.5873C33.7912 32.6351 33.7535 32.6829 33.7147 32.7322C32.8056 33.8607 31.331 34.6061 29.907 34.7979C28.1487 34.9495 26.44 34.6945 25.0225 33.5812C24.9149 33.4883 24.8079 33.3948 24.7016 33.3004C24.6538 33.2627 24.606 33.225 24.5567 33.1862C23.4282 32.2771 22.6828 30.8025 22.491 29.3785C22.3394 27.6202 22.5944 25.9115 23.7077 24.494C23.8006 24.3864 23.8941 24.2794 23.9885 24.1731C24.0262 24.1253 24.0639 24.0775 24.1027 24.0282C26.1708 21.461 30.2525 21.2817 32.8046 23.1731ZM25.4146 24.8861C25.37 24.9247 25.3253 24.9634 25.2793 25.0031C24.5469 25.6593 24.0491 26.7916 23.9759 27.7633C23.9398 29.1899 24.1067 30.4296 25.0938 31.5445C25.2002 31.6549 25.3071 31.7649 25.4146 31.8743C25.4532 31.9187 25.4917 31.9632 25.5314 32.0091C26.347 32.9213 27.6457 33.2958 28.8279 33.3678C29.9922 33.3977 31.1804 32.9784 32.0551 32.213C32.1722 32.1013 32.2881 31.9884 32.4028 31.8743C32.4579 31.8216 32.5131 31.7689 32.5699 31.7147C33.4765 30.791 33.9002 29.5181 33.9002 28.2376C33.8006 26.838 33.2471 25.64 32.2432 24.6588C30.2153 22.9139 27.3182 23.0415 25.4146 24.8861Z" fill="white"/>
<path d="M23.9893 14.4038C24.1858 14.5594 24.3056 14.6799 24.4172 14.903C24.447 15.1652 24.4299 15.3059 24.3091 15.5428C24.0849 15.8159 23.8802 15.8973 23.557 16.0216C22.1573 16.6046 20.8959 17.4359 19.7903 18.4728C19.6396 18.611 19.6396 18.611 19.4563 18.7558C19.1978 18.9652 18.998 19.2133 18.7839 19.4667C18.7301 19.5276 18.6763 19.5885 18.6209 19.6513C16.5343 22.062 15.4692 25.1714 15.477 28.34C15.477 28.3992 15.4771 28.4584 15.4771 28.5194C15.4801 29.5181 15.5552 30.4722 15.789 31.4463C15.8035 31.5089 15.818 31.5715 15.833 31.636C16.3943 33.9887 17.6108 36.0625 19.283 37.7926C19.3775 37.8926 19.3775 37.8926 19.4738 37.9946C20.1358 38.6796 20.8708 39.2266 21.6746 39.733C21.8976 39.8951 22.0402 40.0259 22.0949 40.3015C22.0954 40.5931 22.0887 40.748 21.9303 41.0015C21.7005 41.2178 21.5369 41.2422 21.2205 41.2377C20.9485 41.1985 20.7578 41.054 20.5398 40.8945C20.4935 40.862 20.4471 40.8295 20.3994 40.796C19.752 40.3375 19.1477 39.8334 18.57 39.2901C18.5102 39.234 18.5102 39.234 18.4493 39.1768C17.4136 38.1959 16.5736 37.1013 15.8603 35.8673C15.8308 35.8169 15.8013 35.7664 15.7709 35.7144C14.4899 33.4934 13.9023 30.9738 13.9082 28.4246C13.9083 28.3587 13.9084 28.2927 13.9084 28.2248C13.9118 27.1607 13.9723 26.1387 14.2202 25.0999C14.2374 25.0266 14.2546 24.9533 14.2724 24.8778C14.5302 23.8121 14.8869 22.8079 15.3611 21.8198C15.3871 21.7658 15.413 21.7118 15.4397 21.6561C16.0943 20.3153 16.9791 19.1257 17.9995 18.0405C18.0381 17.9991 18.0766 17.9578 18.1164 17.9151C19.3238 16.6298 22.039 14.089 23.9893 14.4038Z" fill="white"/>
<path d="M31.6885 25.1004C31.9283 25.2443 32.014 25.3447 32.0885 25.6143C32.1192 25.9009 32.0933 26.095 31.9358 26.3396C31.6885 26.6198 31.4207 26.868 31.1409 27.1148C30.626 27.554 30.626 27.554 30.3403 28.1446C30.336 28.3133 30.336 28.4822 30.3409 28.651C30.329 29.0253 30.1596 29.2578 29.9058 29.5214C29.5231 29.8483 29.1506 29.8584 28.6546 29.8431C28.1683 29.7711 27.895 29.5291 27.5839 29.1649C27.3943 28.768 27.4184 28.3061 27.4814 27.8814C27.6351 27.4967 27.8857 27.1856 28.262 27.0024C28.429 26.9476 28.5534 26.9567 28.7284 26.963C29.2848 26.9136 29.6154 26.4538 29.9727 26.0675C30.0823 25.9521 30.1924 25.8372 30.3026 25.7224C30.4018 25.6185 30.4999 25.5136 30.598 25.4086C30.9385 25.0637 31.2226 25.0314 31.6885 25.1004Z" fill="white"/>
</g>
<defs>
<clipPath id="clip0_559_599">
<rect width="30.9474" height="30.9474" fill="white" transform="translate(13.3633 11.0526)"/>
</clipPath>
</defs>
</svg>
