<svg width="43" height="42" viewBox="0 0 43 42" fill="none" xmlns="http://www.w3.org/2000/svg">
<ellipse cx="16.3634" cy="16.1183" rx="16.3634" ry="16.1183" fill="#3E82DA"/>
<path d="M28.9524 12.8953C29.0974 12.8963 29.2425 12.8974 29.392 12.8984C30.4924 12.9212 31.4453 13.0473 32.4576 13.5024C32.6204 13.574 32.7832 13.6456 32.9509 13.7194C35.2085 14.8278 36.8126 16.7004 37.7385 19.024C38.1688 20.445 38.3257 22.3218 37.9561 23.7666C37.6507 23.7744 37.3451 23.7741 37.0397 23.7666C36.9792 23.7061 36.9187 23.6456 36.8564 23.5833C36.8564 23.2809 36.8564 22.9785 36.8564 22.6669C35.9492 22.6064 35.0419 22.5459 34.1072 22.4836C34.1223 22.7255 34.1374 22.9675 34.153 23.2168C34.153 24.1246 33.9997 24.9514 33.7864 25.8286C33.7577 25.952 33.7289 26.0753 33.6993 26.2024C33.4793 27.0569 33.1572 27.6503 32.6409 28.3488C32.278 28.2581 32.278 28.2581 31.9078 28.1656C31.9683 27.7422 32.0287 27.3188 32.0911 26.8825C30.8209 26.7011 30.8209 26.7011 29.5251 26.516C29.5251 26.6974 29.5251 26.8789 29.5251 27.0658C29.0715 27.1566 29.0715 27.1566 28.6087 27.2491C28.5482 27.0072 28.4877 26.7652 28.4254 26.516C27.1553 26.6974 27.1553 26.6974 25.8595 26.8825C25.9502 27.5176 25.9502 27.5176 26.0427 28.1656C25.6798 28.2563 25.6798 28.2563 25.3096 28.3488C24.7156 27.5452 24.3921 26.8062 24.1641 25.8286C24.1174 25.6365 24.1174 25.6365 24.0698 25.4406C23.8398 24.4373 23.7789 23.5142 23.8434 22.4836C22.9361 22.5441 22.0289 22.6046 21.0941 22.6669C21.0941 22.9693 21.0941 23.2717 21.0941 23.5833C20.9108 23.7666 20.9108 23.7666 20.4412 23.7781C20.2937 23.7743 20.1463 23.7705 19.9944 23.7666C19.3963 21.4489 20.0553 19.2819 21.1034 17.2162C22.2968 15.2192 24.311 13.774 26.5346 13.1208C27.3441 12.9265 28.1222 12.8891 28.9524 12.8953ZM29.5251 14.0523C29.5251 15.141 29.5251 16.2298 29.5251 17.3515C30.4324 17.3515 31.3396 17.3515 32.2743 17.3515C31.6296 15.9009 31.1327 14.8274 29.7084 14.0523C29.6479 14.0523 29.5874 14.0523 29.5251 14.0523ZM26.7759 15.152C26.3418 15.8673 26.0173 16.5839 25.6762 17.3515C26.5834 17.3515 27.4907 17.3515 28.4254 17.3515C28.4254 16.2628 28.4254 15.174 28.4254 14.0523C27.8184 14.0523 27.1729 14.7572 26.7759 15.152ZM24.313 15.4613C24.1356 15.5868 23.9582 15.7123 23.7753 15.8415C23.2937 16.2516 23.0319 16.6102 22.7437 17.1682C23.3485 17.2287 23.9533 17.2892 24.5765 17.3515C24.6252 17.2277 24.6738 17.1039 24.724 16.9763C24.7887 16.8128 24.8534 16.6493 24.9201 16.4809C25.0158 16.2385 25.0158 16.2385 25.1134 15.9912C25.2848 15.5784 25.4705 15.182 25.6762 14.7855C25.0977 14.7855 24.7757 15.1289 24.313 15.4613ZM32.2743 14.7855C32.6372 15.5718 33.0001 16.3581 33.374 17.1682C33.9184 17.1682 34.4627 17.1682 35.0236 17.1682C34.8196 16.3523 34.7041 16.2538 34.0613 15.7706C33.9205 15.6624 33.7797 15.5542 33.6346 15.4427C33.1352 15.0948 33.1352 15.0948 32.2743 14.7855ZM22.0105 18.0847C21.3981 19.1871 21.1183 20.1391 20.9108 21.3839C21.8786 21.3839 22.8463 21.3839 23.8434 21.3839C23.9643 20.3556 24.0853 19.3274 24.2099 18.2679C23.4841 18.2075 22.7583 18.147 22.0105 18.0847ZM33.7406 18.2679C33.8616 19.2962 33.9825 20.3244 34.1072 21.3839C35.0144 21.3839 35.9217 21.3839 36.8564 21.3839C36.7837 20.0754 36.5922 19.2207 35.94 18.0847C35.0818 18.0695 35.0818 18.0695 33.7406 18.2679ZM25.3096 18.4512C24.8838 19.9027 24.8838 19.9027 24.943 21.3839C26.0922 21.3839 27.2414 21.3839 28.4254 21.3839C28.4254 20.4161 28.4254 19.4483 28.4254 18.4512C27.3972 18.4512 26.369 18.4512 25.3096 18.4512ZM29.5251 18.4512C29.5251 19.419 29.5251 20.3868 29.5251 21.3839C30.6743 21.3839 31.8235 21.3839 33.0075 21.3839C33.0667 19.9027 33.0667 19.9027 32.6409 18.4512C31.6127 18.4512 30.5845 18.4512 29.5251 18.4512ZM24.943 22.4836C24.9075 23.787 24.9075 23.787 25.1263 24.9695C25.1868 25.1774 25.2473 25.3853 25.3096 25.5995C26.3685 25.6216 27.377 25.5687 28.4254 25.4162C28.4254 24.4485 28.4254 23.4807 28.4254 22.4836C27.2762 22.4836 26.1271 22.4836 24.943 22.4836ZM29.5251 22.4836C29.5251 23.4514 29.5251 24.4191 29.5251 25.4162C30.3404 25.5327 31.0045 25.6219 31.8047 25.611C31.9632 25.6093 32.1217 25.6077 32.2851 25.606C32.4025 25.6038 32.5199 25.6017 32.6409 25.5995C32.7014 25.3916 32.7619 25.1837 32.8242 24.9695C32.8582 24.8525 32.8922 24.7355 32.9273 24.615C33.044 23.9137 33.0075 23.1946 33.0075 22.4836C31.8583 22.4836 30.7091 22.4836 29.5251 22.4836Z" fill="white"/>
<path d="M34.5257 36.7351C34.8386 36.9635 34.8386 36.9635 35.2051 37.5134C35.287 38.0528 35.273 38.595 35.2739 39.14C35.2783 39.2872 35.2828 39.4344 35.2875 39.5861C35.2912 40.3345 35.2657 40.7165 34.8572 41.3639C34.2673 41.9231 33.9314 41.9367 33.1362 41.9447C32.9337 41.9471 32.7312 41.9494 32.5225 41.9519C32.3028 41.9532 32.083 41.9546 31.8566 41.956C31.519 41.9582 31.519 41.9582 31.1744 41.9605C30.6973 41.963 30.2201 41.965 29.7429 41.9664C29.0128 41.9688 28.2828 41.9776 27.5527 41.9857C27.0896 41.9875 26.6265 41.9891 26.1634 41.9903C25.8355 41.9952 25.8355 41.9952 25.5009 42.0001C23.9839 41.9961 23.9839 41.9961 23.2498 41.5638C22.6287 40.8277 22.6892 40.1231 22.6732 39.1973C22.6663 39.0493 22.6595 38.9013 22.6524 38.7488C22.641 37.972 22.6621 37.6207 23.1378 36.9807C23.6585 36.5968 24.123 36.3413 24.7237 36.1043C24.9919 35.9955 24.9919 35.9955 25.2656 35.8845C28.4222 34.7967 31.6133 35.087 34.5257 36.7351ZM23.8416 37.8799C23.8317 38.2999 23.8246 38.72 23.8187 39.14C23.8145 39.374 23.8102 39.6079 23.8058 39.8489C23.7763 40.4617 23.7763 40.4617 24.2082 40.8126C24.6279 40.8687 24.6279 40.8687 25.1189 40.86C25.3085 40.8612 25.4981 40.8623 25.6934 40.8635C25.8988 40.8628 26.1043 40.862 26.3159 40.8612C26.5261 40.8616 26.7362 40.8619 26.9528 40.8623C27.3977 40.8626 27.8427 40.8619 28.2876 40.8604C28.9707 40.8584 29.6536 40.8603 30.3367 40.8627C30.7682 40.8624 31.1996 40.862 31.6311 40.8612C31.9393 40.8624 31.9393 40.8624 32.2536 40.8635C32.538 40.8618 32.538 40.8618 32.8282 40.86C32.9956 40.8597 33.163 40.8594 33.3354 40.8591C33.7768 40.8505 33.7768 40.8505 34.1054 40.446C34.1501 39.8306 34.1501 39.8306 34.1283 39.14C34.125 38.9052 34.1217 38.6703 34.1183 38.4284C34.1141 38.2474 34.1098 38.0664 34.1054 37.8799C30.649 35.8594 27.3482 35.9555 23.8416 37.8799Z" fill="white"/>
<path d="M41.6228 32.3811C42.158 32.8468 42.3344 33.217 42.3931 33.937C42.41 34.953 42.4217 35.7392 41.8061 36.5968C41.1544 37.0412 40.544 37.0107 39.7714 37.0121C39.6471 37.0124 39.5229 37.0128 39.395 37.0131C39.1334 37.0134 38.8718 37.0127 38.6103 37.0112C38.2092 37.0092 37.8083 37.0111 37.4073 37.0135C37.1529 37.0132 36.8985 37.0128 36.6441 37.0121C36.4126 37.0116 36.1812 37.0112 35.9427 37.0108C35.3912 36.9634 35.3912 36.9634 35.0246 36.5968C35.0851 36.3549 35.1456 36.1129 35.2079 35.8636C37.1434 35.8032 39.0788 35.7427 41.0729 35.6803C41.0729 35.0755 41.0729 34.4706 41.0729 33.8475C39.9905 32.765 38.5708 32.4464 37.0715 32.3611C35.7716 32.406 34.534 32.7156 33.3751 33.2976C32.8711 33.3205 32.8711 33.3205 32.4587 33.2976C32.3982 32.9952 32.3377 32.6927 32.2754 32.3811C35.2659 30.6806 38.6436 30.6477 41.6228 32.3811Z" fill="white"/>
<path d="M25.6769 32.3802C25.6164 32.6826 25.556 32.9851 25.4936 33.2967C24.7849 33.3359 24.3085 33.2259 23.6608 32.9415C21.7107 32.0914 19.7991 32.3508 17.8402 33.089C17.3678 33.3008 17.3678 33.3008 16.8794 33.8465C16.8794 34.4514 16.8794 35.0562 16.8794 35.6794C19.7826 35.7701 19.7826 35.7701 22.7444 35.8627C22.7444 36.1651 22.7444 36.4676 22.7444 36.7791C22.2581 37.2655 20.8698 37.0046 20.1701 37.0065C19.7702 37.0082 19.3705 37.0139 18.9707 37.0197C18.7155 37.0209 18.4604 37.0219 18.2053 37.0226C17.8572 37.0251 17.8572 37.0251 17.5021 37.0278C16.8338 36.9577 16.493 36.8174 15.963 36.4126C15.4527 35.4876 15.5003 34.5077 15.5964 33.4799C15.8788 32.6992 16.3259 32.3793 17.0576 31.9972C19.9658 30.6915 22.8887 30.8252 25.6769 32.3802Z" fill="white"/>
<path d="M30.5087 28.1995C31.3924 28.8098 31.867 29.4961 32.0895 30.5479C32.1073 31.6472 31.9179 32.4544 31.1731 33.2973C30.2902 33.9683 29.6104 34.1511 28.5026 34.1006C27.5267 33.9468 26.9489 33.5225 26.339 32.7359C25.8791 31.9046 25.7803 31.3106 25.8579 30.3646C26.1896 29.3983 26.634 28.7251 27.5074 28.1652C28.5038 27.833 29.5202 27.8518 30.5087 28.1995ZM27.0721 30.147C26.8937 30.7714 26.9765 31.2065 27.1408 31.831C27.6904 32.4792 28.0734 32.8909 28.9278 32.988C29.6858 32.9151 30.0437 32.6849 30.6232 32.1975C30.9488 31.6595 30.993 31.3594 30.9669 30.7312C30.7818 30.0967 30.5243 29.7432 30.0734 29.2649C28.848 28.6522 27.8386 29.1365 27.0721 30.147Z" fill="white"/>
<path d="M21.8292 25.0506C22.7121 25.4837 23.2224 26.0043 23.662 26.8835C23.8358 27.86 23.6615 28.616 23.1122 29.4495C22.4377 30.0734 21.9638 30.342 21.0388 30.4118C20.0628 30.3456 19.5031 30.0754 18.8394 29.3579C18.3204 28.589 18.2849 27.9796 18.3468 27.0668C18.9681 25.3992 20.1485 24.8493 21.8292 25.0506ZM19.6298 26.8835C19.401 27.5076 19.401 27.5076 19.4465 28.1665C19.7961 28.8098 20.0241 29.03 20.718 29.2662C21.3898 29.2662 21.6698 29.1254 22.1957 28.7164C22.6226 28.1892 22.6226 28.1892 22.5509 27.5364C22.4296 26.8682 22.4296 26.8682 21.9666 26.4367C20.9873 25.8802 20.3879 26.0622 19.6298 26.8835Z" fill="white"/>
<path d="M37.7724 25.0496C38.7103 25.536 39.2711 26.0634 39.6052 27.0658C39.6778 28.0279 39.5806 28.6335 39.0553 29.4486C38.3809 30.0725 37.907 30.341 36.982 30.4108C36.006 30.3447 35.4463 30.0744 34.7826 29.3569C34.2548 28.575 34.1656 27.8059 34.29 26.8825C35.0273 25.4079 36.1576 24.7602 37.7724 25.0496ZM35.573 26.8825C35.3442 27.5067 35.3442 27.5067 35.3897 28.1655C35.7393 28.8088 35.9673 29.029 36.6612 29.2653C37.333 29.2653 37.613 29.1245 38.1389 28.7154C38.5658 28.1883 38.5658 28.1883 38.494 27.5355C38.3728 26.8672 38.3728 26.8672 37.9098 26.4357C36.9305 25.8793 36.3311 26.0612 35.573 26.8825Z" fill="white"/>
</svg>
