<svg width="10" height="10" viewBox="0 0 10 10" fill="none" xmlns="http://www.w3.org/2000/svg">
<path fill-rule="evenodd" clip-rule="evenodd" d="M1.44369 8.55712C0.833496 7.94693 0.833496 6.96484 0.833496 5.00065C0.833496 3.03647 0.833496 2.05437 1.44369 1.44418C2.05388 0.833984 3.03598 0.833984 5.00016 0.833984C6.96435 0.833984 7.94644 0.833984 8.55663 1.44418C9.16683 2.05437 9.16683 3.03647 9.16683 5.00065C9.16683 6.96484 9.16683 7.94693 8.55663 8.55712C7.94644 9.16732 6.96435 9.16732 5.00016 9.16732C3.03598 9.16732 2.05388 9.16732 1.44369 8.55712ZM5.00016 6.97982C5.17275 6.97982 5.31266 6.83991 5.31266 6.66732V4.08843L6.02919 4.80496C6.15123 4.92699 6.34909 4.92699 6.47113 4.80496C6.59317 4.68292 6.59317 4.48505 6.47113 4.36301L5.22113 3.11301C5.16253 3.05441 5.08304 3.02148 5.00016 3.02148C4.91728 3.02148 4.8378 3.05441 4.77919 3.11301L3.52919 4.36301C3.40715 4.48505 3.40715 4.68292 3.52919 4.80496C3.65123 4.92699 3.84909 4.92699 3.97113 4.80496L4.68766 4.08843V6.66732C4.68766 6.83991 4.82757 6.97982 5.00016 6.97982Z" fill="url(#paint0_linear_3499_5044)"/>
<defs>
<linearGradient id="paint0_linear_3499_5044" x1="3.77567" y1="-1.68174" x2="-1.09815" y2="11.0419" gradientUnits="userSpaceOnUse">
<stop stop-color="#36A764"/>
<stop offset="1" stop-color="#2B834F"/>
</linearGradient>
</defs>
</svg>
