<svg width="34" height="34" viewBox="0 0 34 34" fill="none" xmlns="http://www.w3.org/2000/svg">
<rect width="34" height="34" rx="17" fill="#252525"/>
<path d="M23.5275 11.0078H14.489C13.6771 11.0078 13.0166 11.6683 13.0166 12.4812C13.0166 13.2931 13.6771 13.9536 14.489 13.9536H23.5275C24.3394 13.9536 24.9999 13.2931 24.9999 12.4812C24.9999 11.6683 24.3394 11.0078 23.5275 11.0078Z" fill="#5A5A5A"/>
<path d="M10.4729 11.0078C9.66078 11.0078 9 11.6686 9 12.4807C9 13.2929 9.66078 13.9536 10.4729 13.9536C11.2851 13.9536 11.9458 13.2929 11.9458 12.4807C11.9458 11.6686 11.2851 11.0078 10.4729 11.0078Z" fill="#5A5A5A"/>
<path d="M10.4729 15.5273C9.66078 15.5273 9 16.1881 9 17.0002C9 17.8124 9.66078 18.4732 10.4729 18.4732C11.2851 18.4732 11.9458 17.8124 11.9458 17.0002C11.9458 16.1881 11.2851 15.5273 10.4729 15.5273Z" fill="#5A5A5A"/>
<path d="M10.4729 20.0449C9.66078 20.0449 9 20.7057 9 21.5178C9 22.33 9.66078 22.9907 10.4729 22.9907C11.2851 22.9907 11.9458 22.33 11.9458 21.5178C11.9458 20.7057 11.2851 20.0449 10.4729 20.0449Z" fill="#5A5A5A"/>
<path d="M23.5275 15.5273H14.489C13.6771 15.5273 13.0166 16.1879 13.0166 17.0007C13.0166 17.8126 13.6771 18.4732 14.489 18.4732H23.5275C24.3394 18.4732 24.9999 17.8126 24.9999 17.0007C24.9999 16.1878 24.3394 15.5273 23.5275 15.5273Z" fill="#5A5A5A"/>
<path d="M23.5275 20.0449H14.489C13.6771 20.0449 13.0166 20.7055 13.0166 21.5183C13.0166 22.3302 13.6771 22.9907 14.489 22.9907H23.5275C24.3394 22.9907 24.9999 22.3302 24.9999 21.5183C24.9999 20.7055 24.3394 20.0449 23.5275 20.0449Z" fill="#5A5A5A"/>
</svg>
