<svg width="0" height="0"  style="visibility: hidden; position: absolute;" aria-hidden="true">
    <symbol id="icon-name" width="155" height="131" viewBox="0 0 155 131"  xmlns="http://www.w3.org/2000/svg">
          <path d="M49.6561 0.014923C50.005 0.0124621 50.354 0.0105982 50.703 0.00917192C50.9064 0.00831128 51.1099 0.00714989 51.3133 0.00519614C51.5004 0.00340127 51.6875 0.00243926 51.8746 0.00210372C51.9423 0.00183623 52.0099 0.00126989 52.0775 0.000361028C52.8665 -0.00987001 53.5798 0.196262 54.1618 0.757559C54.7158 1.31191 54.9866 1.9772 55 2.76833C54.9884 3.19167 54.9375 3.51541 54.7454 3.89474C54.7224 3.94067 54.7224 3.94067 54.699 3.98752C54.5363 4.3119 54.3694 4.63406 54.2008 4.95538C54.185 4.98569 54.1691 5.016 54.1528 5.04723C53.9323 5.46813 53.7061 5.88496 53.4727 6.29864C53.2373 6.71816 53.0158 7.14497 52.7936 7.57177C52.7624 7.63152 52.7313 7.69127 52.7002 7.75102C52.685 7.78014 52.6699 7.80926 52.6542 7.83927C52.4827 8.16826 52.3068 8.49485 52.1305 8.82125C52.0427 8.98387 51.9556 9.14686 51.869 9.31012C51.6416 9.73845 51.4119 10.1649 51.1742 10.5874C50.9297 11.0225 50.698 11.4639 50.4678 11.9069C50.2521 12.3219 50.0305 12.7324 49.8007 13.1395C49.5825 13.5281 49.3773 13.9233 49.1718 14.3189C48.978 14.6917 48.7809 15.0618 48.5742 15.4274C48.3406 15.8409 48.1204 16.2608 47.902 16.6827C47.6136 17.2393 47.3176 17.7901 47.0083 18.3352C46.9567 18.4275 46.9072 18.5205 46.8586 18.6145C46.3801 19.5308 45.5446 20.1847 44.5757 20.4977C43.9771 20.6499 43.385 20.6387 42.7717 20.6231C42.515 20.6172 42.2581 20.6149 42.0013 20.6123C41.6093 20.6083 41.2174 20.6032 40.8255 20.5921C40.5304 20.5838 40.2356 20.5804 39.9405 20.5798C39.8288 20.5787 39.717 20.576 39.6054 20.5716C39.024 20.5287 39.024 20.5287 38.5178 20.7629C38.35 20.9838 38.2402 21.2248 38.1405 21.4833C38.0788 21.6366 37.9997 21.7723 37.9154 21.9139C37.6149 22.4465 37.3169 22.9802 37.0226 23.5164C36.8495 23.8307 36.672 24.142 36.4922 24.4525C36.2766 24.825 36.0691 25.201 35.8667 25.581C35.6799 25.9314 35.4858 26.2773 35.2902 26.6227C35.1551 26.8615 35.0217 27.1012 34.8885 27.3411C34.5879 27.8816 34.2859 28.4211 33.981 28.9591C33.9171 29.0723 33.8537 29.1858 33.7906 29.2995C33.3406 30.1001 32.6726 30.6831 31.7863 30.9314C30.9174 31.1039 30.1291 30.9484 29.3699 30.4956C28.8733 30.1535 28.5562 29.7163 28.2619 29.1954C28.1976 29.0819 28.1324 28.9689 28.0672 28.856C27.6641 28.158 27.2667 27.4567 26.8689 26.7556C26.8144 26.6595 26.7599 26.5635 26.7053 26.4675C26.6515 26.3727 26.5978 26.2779 26.5441 26.1831C26.4074 25.9422 26.2694 25.7022 26.1292 25.4634C26.1012 25.4156 26.0733 25.3678 26.0445 25.3185C25.9913 25.2277 25.9378 25.137 25.8839 25.0466C25.8601 25.0059 25.8363 24.9651 25.8117 24.9232C25.7803 24.87 25.7803 24.87 25.7482 24.8157C25.6891 24.6881 25.6639 24.585 25.6548 24.4442C25.6919 24.3425 25.6919 24.3425 25.7522 24.2445C25.7745 24.2073 25.7969 24.17 25.8199 24.1316C25.8447 24.0919 25.8695 24.0522 25.8951 24.0112C25.9475 23.9244 25.9998 23.8377 26.052 23.7508C26.0793 23.7061 26.1065 23.6613 26.1346 23.6152C26.2653 23.3985 26.3906 23.1786 26.5161 22.9588C26.5669 22.8703 26.6176 22.7818 26.6685 22.6933C26.6937 22.6493 26.7189 22.6054 26.7449 22.5601C26.871 22.3403 26.9973 22.1206 27.1236 21.9009C27.161 21.8357 27.161 21.8357 27.1992 21.7692C27.3246 21.551 27.4501 21.3328 27.5756 21.1147C27.8402 20.6549 28.1037 20.1944 28.3655 19.733C28.4453 19.5926 28.5251 19.4522 28.605 19.3118C28.6524 19.2285 28.6997 19.1451 28.747 19.0617C28.8068 18.9565 28.8669 18.8514 28.9271 18.7464C28.9441 18.7163 28.9611 18.6863 28.9787 18.6553C29.0553 18.5221 29.1302 18.411 29.2403 18.3051C29.4715 18.6817 29.6941 19.062 29.9099 19.448C29.9394 19.5006 29.9689 19.5531 29.9984 19.6057C30.1403 19.8583 30.2817 20.1112 30.4226 20.3643C30.4857 20.4775 30.5489 20.5907 30.6121 20.7038C30.6424 20.7579 30.6725 20.8121 30.7025 20.8663C30.7444 20.9418 30.7865 21.0172 30.8287 21.0926C30.8645 21.157 30.8645 21.157 30.901 21.2227C30.9599 21.3175 31.0159 21.3881 31.0978 21.4624C31.1151 21.4316 31.1324 21.4009 31.1503 21.3692C31.1748 21.3255 31.1994 21.2819 31.2247 21.237C31.2523 21.1879 31.28 21.1388 31.3084 21.0883C31.3705 20.978 31.4325 20.8678 31.4946 20.7575C31.6518 20.4783 31.809 20.1991 31.966 19.9197C32.2708 19.3777 32.5767 18.8363 32.8843 18.2959C33.0672 17.9745 33.249 17.6525 33.4302 17.3301C33.4735 17.2532 33.5168 17.1763 33.5601 17.0994C33.5889 17.0483 33.6176 16.9973 33.6463 16.9463C33.6606 16.9211 33.6748 16.8958 33.6894 16.8698C33.7773 16.7137 33.8649 16.5573 33.9522 16.4007C33.9959 16.3226 34.0396 16.2445 34.0835 16.1665C34.1377 16.0699 34.1917 15.9732 34.2455 15.8763C34.662 15.137 35.1923 14.5542 36.0113 14.2916C36.3473 14.2202 36.6791 14.221 37.021 14.2221C37.1052 14.222 37.1052 14.2221 37.191 14.222C37.3439 14.222 37.4967 14.2223 37.6496 14.2226C37.8097 14.2229 37.9698 14.2229 38.1299 14.2229C38.4327 14.2231 38.7354 14.2234 39.0382 14.2239C39.383 14.2244 39.7279 14.2246 40.0728 14.2248C40.7818 14.2253 41.4908 14.2261 42.1998 14.227C42.2128 14.1933 42.2258 14.1595 42.2393 14.1247C42.2898 13.9987 42.35 13.8834 42.4151 13.7644C42.441 13.7171 42.4668 13.6698 42.4934 13.621C42.5215 13.57 42.5496 13.5189 42.5778 13.4679C42.5993 13.4287 42.5993 13.4287 42.6212 13.3888C42.8488 12.9738 43.0829 12.5631 43.3201 12.1537C43.5092 11.8262 43.6897 11.4947 43.8674 11.1608C44.0541 10.8107 44.2481 10.4651 44.4434 10.12C44.5813 9.8763 44.7177 9.63175 44.8538 9.38703C44.8772 9.34493 44.9006 9.30283 44.9248 9.25946C45.0184 9.09111 45.112 8.92274 45.2056 8.75434C45.2737 8.63178 45.3418 8.50922 45.41 8.38669C45.4437 8.32605 45.4437 8.32605 45.4781 8.26418C45.613 8.02189 45.7486 7.78001 45.8848 7.53845C45.9084 7.49654 45.9084 7.49654 45.9325 7.45378C46.01 7.31634 46.0876 7.17894 46.1652 7.04159C46.2073 6.96712 46.2073 6.96712 46.2501 6.89114C46.2875 6.82499 46.2875 6.82499 46.3257 6.7575C46.3786 6.66162 46.428 6.56377 46.4764 6.46548C41.9717 6.46548 37.467 6.46548 32.8257 6.46548C32.5977 6.87066 32.3696 7.27584 32.1346 7.6933C31.9455 8.02639 31.7564 8.35945 31.5669 8.69231C31.432 8.9293 31.2973 9.16639 31.1626 9.40347C31.1086 9.49848 31.0546 9.59349 31.0006 9.6885C30.9605 9.75905 30.9605 9.75905 30.9196 9.83102C26.7888 17.0993 26.7888 17.0993 26.7078 17.2417C26.6537 17.3368 26.5997 17.4319 26.5457 17.527C26.4113 17.7635 26.2769 17.9999 26.1423 18.2363C25.8477 18.754 25.5545 19.2725 25.2627 19.7919C25.04 20.1882 24.8145 20.5829 24.5873 20.9766C24.3938 21.3127 24.2031 21.6504 24.0133 21.9886C23.7993 22.3698 23.5837 22.7501 23.3653 23.1287C23.1479 23.5056 22.9332 23.884 22.72 24.2633C22.4164 24.8038 22.1107 25.343 21.8041 25.8818C21.6692 26.1187 21.5345 26.3558 21.3998 26.5929C21.3458 26.6879 21.2918 26.7829 21.2378 26.8779C21.2111 26.925 21.1843 26.972 21.1568 27.0205C21.0758 27.163 20.9948 27.3055 20.9138 27.448C20.887 27.4951 20.8603 27.5422 20.8327 27.5907C20.779 27.6852 20.7252 27.7797 20.6714 27.8742C20.5467 28.0932 20.4224 28.3124 20.2997 28.5325C20.2569 28.6094 20.2139 28.6861 20.1709 28.7628C20.1175 28.8582 20.0643 28.9538 20.0114 29.0496C19.556 29.8604 19.0065 30.4575 18.1383 30.8026C17.2975 31.0263 16.4854 30.9903 15.7065 30.5669C15.5238 30.4555 15.3606 30.3317 15.2008 30.1887C15.1529 30.1463 15.1529 30.1463 15.1041 30.103C14.9153 29.9242 14.7649 29.7334 14.6278 29.5119C14.611 29.4851 14.5943 29.4584 14.577 29.4308C14.4003 29.1466 14.233 28.8569 14.0669 28.5662C14.0187 28.4823 13.9705 28.3984 13.9222 28.3145C13.8901 28.2586 13.858 28.2027 13.8259 28.1468C13.684 27.8996 13.5408 27.6531 13.3973 27.4069C13.3636 27.349 13.3636 27.349 13.3291 27.29C13.2843 27.2131 13.2395 27.1362 13.1947 27.0594C13.0785 26.8601 12.9625 26.6607 12.8465 26.4614C12.7997 26.381 12.7529 26.3006 12.7061 26.2202C9.05584 19.9495 9.05584 19.9495 8.98568 19.829C8.93878 19.7484 8.89187 19.6679 8.84497 19.5873C8.72956 19.3891 8.61417 19.1908 8.49882 18.9925C8.24206 18.5513 7.98495 18.1102 7.7275 17.6693C7.4474 17.1897 7.16776 16.7098 6.88844 16.2297C6.77217 16.0298 6.65585 15.8301 6.53954 15.6303C6.49274 15.5499 6.44594 15.4695 6.39915 15.3891C6.37598 15.3493 6.35282 15.3095 6.32895 15.2685C4.76121 12.5753 3.19347 9.88217 1.62573 7.18902C1.59096 7.12929 1.59096 7.12929 1.55549 7.06836C1.50882 6.98819 1.46217 6.90801 1.41552 6.82783C1.29659 6.62343 1.17749 6.41915 1.05808 6.21505C0.940455 6.01394 0.823336 5.81253 0.706689 5.61082C0.665748 5.54011 0.624683 5.46948 0.583464 5.39894C0.110378 4.58766 -0.135723 3.69791 0.0773387 2.75086C0.124186 2.58008 0.185864 2.41892 0.254182 2.25582C0.273449 2.20874 0.292716 2.16165 0.312567 2.11314C0.678946 1.29971 1.37593 0.711303 2.19001 0.397654C2.54453 0.272022 2.88336 0.225581 3.25754 0.224714C3.30214 0.224274 3.34673 0.223834 3.39268 0.22338C3.5429 0.222015 3.69313 0.221272 3.84336 0.220539C3.95348 0.219704 4.0636 0.21884 4.17372 0.217947C4.44656 0.215827 4.71939 0.214225 4.99223 0.212816C5.21757 0.21165 5.44291 0.210319 5.66824 0.208895C8.2106 0.192982 10.753 0.188982 13.2954 0.187043C13.6586 0.186751 14.0218 0.186261 14.385 0.1857C14.8322 0.185021 15.2794 0.184683 15.7267 0.184766C15.958 0.184804 16.1892 0.184705 16.4205 0.18424C16.6344 0.183817 16.8483 0.183809 17.0622 0.184125C17.1399 0.18417 17.2176 0.184066 17.2953 0.1838C18.0507 0.18138 18.6705 0.296247 19.248 0.827938C19.2809 0.865019 19.3139 0.902101 19.3479 0.940305C19.3866 0.9827 19.4253 1.02509 19.4651 1.06877C19.6427 1.28001 19.7704 1.51848 19.904 1.75976C19.9468 1.83599 19.9896 1.91221 20.0323 1.98843C20.0769 2.06798 20.1213 2.14762 20.1657 2.22728C20.2528 2.38349 20.3404 2.53939 20.4282 2.69519C20.4424 2.72042 20.4566 2.74565 20.4712 2.77164C20.5 2.82262 20.5287 2.8736 20.5574 2.92457C20.6009 3.00178 20.6443 3.07901 20.6877 3.15625C20.9071 3.54639 21.128 3.9356 21.3495 4.32451C21.4934 4.57738 21.6367 4.83055 21.7793 5.08419C21.8025 5.12549 21.8025 5.12549 21.8262 5.16762C21.9008 5.30038 21.9753 5.43318 22.0498 5.56603C22.0768 5.61413 22.1038 5.66224 22.1316 5.7118C22.1573 5.75781 22.183 5.80382 22.2094 5.85123C22.2591 5.93761 22.3108 6.02289 22.3645 6.1068C22.5414 6.38401 22.5414 6.38401 22.5553 6.55164C22.4699 6.7622 22.358 6.95326 22.2421 7.14791C22.1866 7.2428 22.1311 7.33769 22.0756 7.43259C22.046 7.48289 22.0164 7.53317 21.9868 7.58346C21.8508 7.81467 21.7172 8.04729 21.5833 8.27975C21.5058 8.4143 21.428 8.54874 21.3503 8.68319C21.1804 8.97723 21.0106 9.2713 20.8408 9.56539C20.7643 9.69779 20.6879 9.83018 20.6114 9.96257C20.5808 10.0156 20.5502 10.0685 20.5196 10.1215C19.7393 11.4727 19.7393 11.4727 18.9591 12.8238C18.8353 12.6735 18.7342 12.5222 18.6395 12.3516C18.612 12.3023 18.5844 12.253 18.5561 12.2023C18.5417 12.1763 18.5273 12.1503 18.5125 12.1235C18.4356 11.9848 18.358 11.8463 18.2806 11.7079C18.2649 11.6798 18.2492 11.6517 18.233 11.6228C18.0874 11.3623 17.9391 11.1035 17.79 10.8451C17.4441 10.2449 17.1023 9.64241 16.7605 9.03991C16.2183 8.07683 16.2183 8.07683 15.6623 7.12205C15.5896 6.99169 15.5896 6.99169 15.5321 6.8551C15.4634 6.70438 15.3977 6.58843 15.2872 6.46548C15.0781 6.38985 14.8731 6.39866 14.6541 6.40574C14.5898 6.40589 14.5255 6.40581 14.4612 6.40551C14.2872 6.40536 14.1133 6.40845 13.9394 6.41213C13.7574 6.41542 13.5754 6.41573 13.3933 6.41635C13.0489 6.41798 12.7046 6.4223 12.3602 6.42758C11.9681 6.43347 11.5759 6.43636 11.1837 6.439C10.3772 6.4445 9.57071 6.45375 8.76426 6.46548C8.8578 6.63798 8.95139 6.81045 9.04502 6.9829C9.07675 7.04135 9.10847 7.09981 9.14017 7.15827C9.37114 7.58419 9.60612 8.00752 9.84489 8.429C9.98903 8.68408 10.1298 8.94104 10.2708 9.19792C10.4719 9.56405 10.6771 9.92735 10.8864 10.2887C11.1002 10.6581 11.3056 11.031 11.5058 11.4081C11.665 11.7066 11.8317 11.9998 12.0014 12.2921C12.2306 12.6871 12.4492 13.0868 12.6627 13.4907C12.875 13.8915 13.0969 14.286 13.3205 14.6803C13.4361 14.885 13.5503 15.0905 13.6646 15.2959C13.6879 15.3378 13.7112 15.3798 13.7353 15.423C13.7826 15.5081 13.8299 15.5931 13.8772 15.6782C13.971 15.8468 14.0648 16.0154 14.1587 16.184C14.229 16.3102 14.2992 16.4363 14.3694 16.5624C14.4624 16.7294 14.5554 16.8964 14.6485 17.0633C14.8922 17.5004 15.1349 17.938 15.3763 18.3764C15.5814 18.7488 15.7884 19.1199 15.9976 19.4899C16.1985 19.8458 16.3955 20.2038 16.5915 20.5624C16.7137 20.7851 16.8377 21.0038 16.9779 21.2154C17.0151 21.287 17.0151 21.287 17.0151 21.4185C17.0437 21.4185 17.0722 21.4185 17.1015 21.4185C17.1133 21.387 17.1251 21.3556 17.1372 21.3231C17.1875 21.2004 17.245 21.0879 17.3089 20.972C17.333 20.9282 17.3571 20.8844 17.382 20.8393C17.4209 20.7692 17.4209 20.7692 17.4606 20.6977C17.5012 20.6245 17.5012 20.6245 17.5426 20.5497C17.7374 20.1991 17.937 19.8516 18.1398 19.5057C18.321 19.1965 18.4988 18.8855 18.6756 18.5737C18.8841 18.2058 19.0936 17.8385 19.3047 17.472C19.5146 17.1073 19.7233 16.7418 19.931 16.3757C20.2633 15.7903 20.5987 15.2068 20.9345 14.6235C21.2481 14.0788 21.5602 13.5333 21.8704 12.9866C22.0756 12.6252 22.2824 12.2648 22.4897 11.9047C22.6747 11.5832 22.8582 11.2609 23.0413 10.9382C23.2737 10.5287 23.5075 10.1201 23.7424 9.71214C23.9274 9.39063 24.111 9.06834 24.2941 8.74571C24.5264 8.33621 24.7603 7.92762 24.9952 7.51961C25.1802 7.1981 25.3637 6.8758 25.5468 6.55318C25.8791 5.96777 26.2144 5.38424 26.5503 4.80096C26.8363 4.30415 27.1213 3.80682 27.4043 3.30824C27.4853 3.1657 27.5663 3.02317 27.6474 2.88065C27.7017 2.78512 27.7559 2.68957 27.8102 2.594C28.9512 0.585006 28.9512 0.585005 30.1204 0.189364C30.5358 0.0876023 30.9585 0.0998592 31.3829 0.0985413C31.4562 0.0981595 31.5294 0.0977594 31.6026 0.0973425C31.8034 0.096253 32.0042 0.0954247 32.205 0.0946399C32.4219 0.0937461 32.6389 0.0926096 32.8558 0.0915036C33.2816 0.0893715 33.7073 0.0874636 34.133 0.0856301C34.6323 0.0834713 35.1316 0.0810879 35.6308 0.078696C36.5261 0.0744145 37.4213 0.0703335 38.3166 0.0663659C39.1769 0.0625528 40.0372 0.0586078 40.8975 0.054504C40.9763 0.0541283 40.9763 0.0541283 41.0567 0.0537451C41.1091 0.053495 41.1615 0.0532449 41.2155 0.0529872C41.3212 0.0524831 41.4269 0.0519791 41.5326 0.0514752C41.5848 0.0512265 41.6369 0.0509777 41.6907 0.0507214C42.5195 0.0467755 43.3483 0.0429612 44.1771 0.0391566C44.4729 0.0377967 44.7688 0.0364184 45.0647 0.0350238C45.3026 0.0339034 45.5405 0.0327935 45.7784 0.0316894C45.8249 0.0314737 45.8713 0.031258 45.9192 0.0310357C46.419 0.0287295 46.9189 0.0265975 47.4187 0.0249455C47.4841 0.0247291 47.4841 0.0247291 47.5507 0.0245084C47.7251 0.0239362 47.8994 0.0233692 48.0737 0.0228288C48.6012 0.0211828 49.1286 0.0186782 49.6561 0.014923Z"  />
    </symbol>
</svg>