<svg width="58" height="35" viewBox="0 0 58 35" fill="none" xmlns="http://www.w3.org/2000/svg">
<mask id="path-1-outside-1_89_338" maskUnits="userSpaceOnUse" x="-0.120117" y="-0.160156" width="58" height="35" fill="black">
<rect fill="white" x="-0.120117" y="-0.160156" width="58" height="35"/>
<path d="M0.999883 15.8798C0.999883 11.2665 1.82655 7.65318 3.47988 5.03984C5.15988 2.42651 7.93322 1.11984 11.7999 1.11984C15.6666 1.11984 18.4266 2.42651 20.0799 5.03984C21.7599 7.65318 22.5999 11.2665 22.5999 15.8798C22.5999 20.5198 21.7599 24.1598 20.0799 26.7998C18.4266 29.4398 15.6666 30.7598 11.7999 30.7598C7.93322 30.7598 5.15988 29.4398 3.47988 26.7998C1.82655 24.1598 0.999883 20.5198 0.999883 15.8798ZM17.0799 15.8798C17.0799 13.9065 16.9466 12.2532 16.6799 10.9198C16.4399 9.55984 15.9332 8.45318 15.1599 7.59984C14.4132 6.74651 13.2932 6.31984 11.7999 6.31984C10.3066 6.31984 9.17322 6.74651 8.39988 7.59984C7.65322 8.45318 7.14655 9.55984 6.87988 10.9198C6.63988 12.2532 6.51988 13.9065 6.51988 15.8798C6.51988 17.9065 6.63988 19.6132 6.87988 20.9998C7.11988 22.3598 7.62655 23.4665 8.39988 24.3198C9.17322 25.1465 10.3066 25.5598 11.7999 25.5598C13.2932 25.5598 14.4265 25.1465 15.1999 24.3198C15.9732 23.4665 16.4799 22.3598 16.7199 20.9998C16.9599 19.6132 17.0799 17.9065 17.0799 15.8798ZM26.9393 9.35984C27.0726 6.69318 28.0059 4.63984 29.7393 3.19984C31.4993 1.73318 33.8059 0.999842 36.6593 0.999842C38.6059 0.999842 40.2726 1.34651 41.6593 2.03984C43.0459 2.70651 44.0859 3.62651 44.7793 4.79984C45.4993 5.94651 45.8593 7.25318 45.8593 8.71984C45.8593 10.3998 45.4193 11.8265 44.5393 12.9998C43.6859 14.1465 42.6593 14.9198 41.4593 15.3198V15.4798C43.0059 15.9598 44.2059 16.8132 45.0593 18.0398C45.9393 19.2665 46.3793 20.8398 46.3793 22.7598C46.3793 24.3598 46.0059 25.7865 45.2593 27.0398C44.5393 28.2932 43.4593 29.2798 42.0193 29.9998C40.6059 30.6932 38.8993 31.0398 36.8993 31.0398C33.8859 31.0398 31.4326 30.2798 29.5393 28.7598C27.6459 27.2398 26.6459 24.9998 26.5393 22.0398H31.9793C32.0326 23.3465 32.4726 24.3998 33.2993 25.1998C34.1526 25.9732 35.3126 26.3598 36.7793 26.3598C38.1393 26.3598 39.1793 25.9865 39.8993 25.2398C40.6459 24.4665 41.0193 23.4798 41.0193 22.2798C41.0193 20.6798 40.5126 19.5332 39.4993 18.8398C38.4859 18.1465 36.9126 17.7998 34.7793 17.7998H33.6193V13.1998H34.7793C38.5659 13.1998 40.4593 11.9332 40.4593 9.39984C40.4593 8.25318 40.1126 7.35984 39.4193 6.71984C38.7526 6.07984 37.7793 5.75984 36.4993 5.75984C35.2459 5.75984 34.2726 6.10651 33.5793 6.79984C32.9126 7.46651 32.5259 8.31984 32.4193 9.35984H26.9393ZM55.7886 15.6878L51.4686 33.7358H49.2766L53.5966 15.6878H55.7886Z"/>
</mask>
<path d="M3.47988 5.03984L2.63868 4.49907L2.6348 4.5052L3.47988 5.03984ZM20.0799 5.03984L19.2348 5.5745L19.2387 5.5806L20.0799 5.03984ZM20.0799 26.7998L19.2362 26.263L19.2324 26.2691L20.0799 26.7998ZM3.47988 26.7998L2.63234 27.3306L2.63622 27.3367L3.47988 26.7998ZM16.6799 10.9198L15.6951 11.0936L15.6971 11.1048L15.6993 11.116L16.6799 10.9198ZM15.1599 7.59984L14.4073 8.25835L14.413 8.26491L14.4189 8.27136L15.1599 7.59984ZM8.39988 7.59984L7.6589 6.92832L7.65304 6.93478L7.64731 6.94134L8.39988 7.59984ZM6.87988 10.9198L5.89857 10.7274L5.89708 10.735L5.8957 10.7427L6.87988 10.9198ZM6.87988 20.9998L5.89453 21.1704L5.8951 21.1736L6.87988 20.9998ZM8.39988 24.3198L7.6589 24.9914L7.66421 24.9972L7.66961 25.003L8.39988 24.3198ZM15.1999 24.3198L15.9302 25.003L15.9356 24.9972L15.9409 24.9914L15.1999 24.3198ZM16.7199 20.9998L17.7047 21.1736L17.7052 21.1704L16.7199 20.9998ZM0.999883 15.8798H1.99988C1.99988 11.3687 2.81103 7.96748 4.32496 5.57448L3.47988 5.03984L2.6348 4.5052C0.842072 7.33887 -0.000117064 11.1643 -0.000117064 15.8798H0.999883ZM3.47988 5.03984L4.32106 5.5806C5.77093 3.32525 8.17835 2.11984 11.7999 2.11984V1.11984V0.119843C7.68808 0.119843 4.54883 1.52777 2.6387 4.49908L3.47988 5.03984ZM11.7999 1.11984V2.11984C15.422 2.11984 17.8118 3.32517 19.2348 5.57448L20.0799 5.03984L20.925 4.5052C19.0413 1.52785 15.9111 0.119843 11.7999 0.119843V1.11984ZM20.0799 5.03984L19.2387 5.5806C20.7762 7.97227 21.5999 11.371 21.5999 15.8798H22.5999H23.5999C23.5999 11.162 22.7436 7.33408 20.9211 4.49908L20.0799 5.03984ZM22.5999 15.8798H21.5999C21.5999 20.4158 20.7761 23.8432 19.2362 26.263L20.0799 26.7998L20.9235 27.3367C22.7437 24.4765 23.5999 20.6239 23.5999 15.8798H22.5999ZM20.0799 26.7998L19.2324 26.2691C17.8074 28.5444 15.4176 29.7598 11.7999 29.7598V30.7598V31.7598C15.9155 31.7598 19.0457 30.3353 20.9274 27.3306L20.0799 26.7998ZM11.7999 30.7598V29.7598C8.18262 29.7598 5.7753 28.5443 4.32354 26.263L3.47988 26.7998L2.63622 27.3367C4.54447 30.3354 7.68381 31.7598 11.7999 31.7598V30.7598ZM3.47988 26.7998L4.3274 26.2691C2.81116 23.848 1.99988 20.4181 1.99988 15.8798H0.999883H-0.000117064C-0.000117064 20.6216 0.841941 24.4717 2.63237 27.3306L3.47988 26.7998ZM17.0799 15.8798H18.0799C18.0799 13.8673 17.9444 12.1434 17.6605 10.7237L16.6799 10.9198L15.6993 11.116C15.9487 12.363 16.0799 13.9457 16.0799 15.8798H17.0799ZM16.6799 10.9198L17.6647 10.7461C17.3985 9.23779 16.824 7.94692 15.9009 6.92832L15.1599 7.59984L14.4189 8.27136C15.0425 8.95943 15.4813 9.88189 15.6951 11.0936L16.6799 10.9198ZM15.1599 7.59984L15.9125 6.94134C14.9202 5.80738 13.4847 5.31984 11.7999 5.31984V6.31984V7.31984C13.1018 7.31984 13.9062 7.68564 14.4073 8.25835L15.1599 7.59984ZM11.7999 6.31984V5.31984C10.113 5.31984 8.67418 5.80801 7.6589 6.92832L8.39988 7.59984L9.14087 8.27136C9.67226 7.68501 10.5001 7.31984 11.7999 7.31984V6.31984ZM8.39988 7.59984L7.64731 6.94134C6.76148 7.95372 6.19162 9.23287 5.89857 10.7274L6.87988 10.9198L7.8612 11.1123C8.10148 9.88682 8.54496 8.95264 9.15246 8.25835L8.39988 7.59984ZM6.87988 10.9198L5.8957 10.7427C5.64161 12.1543 5.51988 13.8714 5.51988 15.8798H6.51988H7.51988C7.51988 13.9416 7.63816 12.352 7.86407 11.097L6.87988 10.9198ZM6.51988 15.8798H5.51988C5.51988 17.9411 5.64157 19.7088 5.89453 21.1704L6.87988 20.9998L7.86523 20.8293C7.6382 19.5175 7.51988 17.872 7.51988 15.8798H6.51988ZM6.87988 20.9998L5.8951 21.1736C6.16126 22.6819 6.73579 23.9728 7.6589 24.9914L8.39988 24.3198L9.14087 23.6483C8.51731 22.9603 8.0785 22.0378 7.86467 20.8261L6.87988 20.9998ZM8.39988 24.3198L7.66961 25.003C8.68715 26.0907 10.1224 26.5598 11.7999 26.5598V25.5598V24.5598C10.4907 24.5598 9.65928 24.2023 9.13015 23.6367L8.39988 24.3198ZM11.7999 25.5598V26.5598C13.4774 26.5598 14.9126 26.0907 15.9302 25.003L15.1999 24.3198L14.4696 23.6367C13.9405 24.2023 13.109 24.5598 11.7999 24.5598V25.5598ZM15.1999 24.3198L15.9409 24.9914C16.864 23.9728 17.4385 22.6819 17.7047 21.1736L16.7199 20.9998L15.7351 20.8261C15.5213 22.0378 15.0825 22.9603 14.4589 23.6483L15.1999 24.3198ZM16.7199 20.9998L17.7052 21.1704C17.9582 19.7088 18.0799 17.9411 18.0799 15.8798H17.0799H16.0799C16.0799 17.872 15.9616 19.5175 15.7345 20.8293L16.7199 20.9998ZM26.9393 9.35984L25.9405 9.30991L25.888 10.3598H26.9393V9.35984ZM29.7393 3.19984L30.3783 3.96903L30.3794 3.96806L29.7393 3.19984ZM41.6593 2.03984L41.212 2.93427L41.219 2.93774L41.226 2.9411L41.6593 2.03984ZM44.7793 4.79984L43.9183 5.30857L43.9252 5.32019L43.9324 5.33161L44.7793 4.79984ZM44.5393 12.9998L43.7393 12.3998L43.737 12.4028L44.5393 12.9998ZM41.4593 15.3198L41.143 14.3712L40.4593 14.5991V15.3198H41.4593ZM41.4593 15.4798H40.4593V16.2165L41.1629 16.4349L41.4593 15.4798ZM45.0593 18.0398L44.2384 18.6109L44.2425 18.6169L44.2467 18.6228L45.0593 18.0398ZM45.2593 27.0398L44.4002 26.528L44.3961 26.5348L44.3922 26.5417L45.2593 27.0398ZM42.0193 29.9998L42.4597 30.8977L42.4665 30.8943L42.0193 29.9998ZM29.5393 28.7598L28.9132 29.5396V29.5396L29.5393 28.7598ZM26.5393 22.0398V21.0398H25.5026L25.5399 22.0759L26.5393 22.0398ZM31.9793 22.0398L32.9784 21.9991L32.9393 21.0398H31.9793V22.0398ZM33.2993 25.1998L32.6038 25.9184L32.6156 25.9298L32.6277 25.9408L33.2993 25.1998ZM39.8993 25.2398L39.1799 24.5452L39.1794 24.5457L39.8993 25.2398ZM33.6193 17.7998H32.6193V18.7998H33.6193V17.7998ZM33.6193 13.1998V12.1998H32.6193V13.1998H33.6193ZM39.4193 6.71984L38.7267 7.44123L38.7338 7.44801L38.741 7.45465L39.4193 6.71984ZM33.5793 6.79984L34.2864 7.50695V7.50695L33.5793 6.79984ZM32.4193 9.35984V10.3598H33.3219L33.414 9.46187L32.4193 9.35984ZM26.9393 9.35984L27.938 9.40978C28.0602 6.96635 28.9001 5.1971 30.3783 3.96903L29.7393 3.19984L29.1002 2.43065C27.1118 4.08259 26.085 6.42 25.9405 9.30991L26.9393 9.35984ZM29.7393 3.19984L30.3794 3.96806C31.919 2.6851 33.9807 1.99984 36.6593 1.99984V0.999842V-0.00015831C33.6311 -0.00015831 31.0795 0.781254 29.0991 2.43162L29.7393 3.19984ZM36.6593 0.999842V1.99984C38.4894 1.99984 39.9951 2.32582 41.212 2.93427L41.6593 2.03984L42.1065 1.14542C40.55 0.367196 38.7225 -0.00015831 36.6593 -0.00015831V0.999842ZM41.6593 2.03984L41.226 2.9411C42.4582 3.5335 43.3382 4.32685 43.9183 5.30857L44.7793 4.79984L45.6402 4.29111C44.8336 2.92617 43.6337 1.87951 42.0926 1.13859L41.6593 2.03984ZM44.7793 4.79984L43.9324 5.33161C44.544 6.30571 44.8593 7.42503 44.8593 8.71984H45.8593H46.8593C46.8593 7.08133 46.4545 5.58731 45.6261 4.26807L44.7793 4.79984ZM45.8593 8.71984H44.8593C44.8593 10.2163 44.471 11.4241 43.7393 12.3998L44.5393 12.9998L45.3393 13.5998C46.3675 12.2289 46.8593 10.5834 46.8593 8.71984H45.8593ZM44.5393 12.9998L43.737 12.4028C42.9894 13.4075 42.1242 14.0441 41.143 14.3712L41.4593 15.3198L41.7755 16.2685C43.1943 15.7956 44.3825 14.8855 45.3415 13.5969L44.5393 12.9998ZM41.4593 15.3198H40.4593V15.4798H41.4593H42.4593V15.3198H41.4593ZM41.4593 15.4798L41.1629 16.4349C42.5158 16.8548 43.5231 17.5827 44.2384 18.6109L45.0593 18.0398L45.8802 17.4688C44.8887 16.0436 43.4961 15.0649 41.7557 14.5248L41.4593 15.4798ZM45.0593 18.0398L44.2467 18.6228C44.9753 19.6384 45.3793 20.9919 45.3793 22.7598H46.3793H47.3793C47.3793 20.6878 46.9032 18.8947 45.8718 17.4569L45.0593 18.0398ZM46.3793 22.7598H45.3793C45.3793 24.1976 45.0458 25.4442 44.4002 26.528L45.2593 27.0398L46.1184 27.5516C46.966 26.1288 47.3793 24.5221 47.3793 22.7598H46.3793ZM45.2593 27.0398L44.3922 26.5417C43.7811 27.6055 42.8569 28.463 41.572 29.1054L42.0193 29.9998L42.4665 30.8943C44.0616 30.0967 45.2975 28.9809 46.1264 27.538L45.2593 27.0398ZM42.0193 29.9998L41.5788 29.1021C40.3345 29.7125 38.7866 30.0398 36.8993 30.0398V31.0398V32.0398C39.0119 32.0398 40.8773 31.6739 42.4597 30.8976L42.0193 29.9998ZM36.8993 31.0398V30.0398C34.0573 30.0398 31.8417 29.3259 30.1653 27.98L29.5393 28.7598L28.9132 29.5396C31.0235 31.2338 33.7146 32.0398 36.8993 32.0398V31.0398ZM29.5393 28.7598L30.1653 27.98C28.5478 26.6815 27.6373 24.7431 27.5386 22.0038L26.5393 22.0398L25.5399 22.0759C25.6545 25.2566 26.7441 27.7982 28.9132 29.5396L29.5393 28.7598ZM26.5393 22.0398V23.0398H31.9793V22.0398V21.0398H26.5393V22.0398ZM31.9793 22.0398L30.9801 22.0806C31.0423 23.6059 31.5671 24.9151 32.6038 25.9184L33.2993 25.1998L33.9947 24.4812C33.3781 23.8846 33.0228 23.0871 32.9784 21.9991L31.9793 22.0398ZM33.2993 25.1998L32.6277 25.9408C33.7111 26.9227 35.1346 27.3598 36.7793 27.3598V26.3598V25.3598C35.4906 25.3598 34.594 25.0237 33.9708 24.4589L33.2993 25.1998ZM36.7793 26.3598V27.3598C38.3225 27.3598 39.6571 26.9317 40.6191 25.934L39.8993 25.2398L39.1794 24.5457C38.7015 25.0414 37.956 25.3598 36.7793 25.3598V26.3598ZM39.8993 25.2398L40.6187 25.9344C41.5669 24.9523 42.0193 23.7062 42.0193 22.2798H41.0193H40.0193C40.0193 23.2535 39.725 23.9807 39.1799 24.5452L39.8993 25.2398ZM41.0193 22.2798H42.0193C42.0193 20.461 41.4302 18.9493 40.0639 18.0145L39.4993 18.8398L38.9346 19.6651C39.595 20.117 40.0193 20.8987 40.0193 22.2798H41.0193ZM39.4993 18.8398L40.0639 18.0145C38.8015 17.1507 36.9826 16.7998 34.7793 16.7998V17.7998V18.7998C36.8426 18.7998 38.1704 19.1423 38.9346 19.6651L39.4993 18.8398ZM34.7793 17.7998V16.7998H33.6193V17.7998V18.7998H34.7793V17.7998ZM33.6193 17.7998H34.6193V13.1998H33.6193H32.6193V17.7998H33.6193ZM33.6193 13.1998V14.1998H34.7793V13.1998V12.1998H33.6193V13.1998ZM34.7793 13.1998V14.1998C36.7526 14.1998 38.4077 13.8755 39.5953 13.081C40.8541 12.2389 41.4593 10.9563 41.4593 9.39984H40.4593H39.4593C39.4593 10.3767 39.1178 10.9941 38.4832 11.4187C37.7775 11.8908 36.5926 12.1998 34.7793 12.1998V13.1998ZM40.4593 9.39984H41.4593C41.4593 8.03895 41.0392 6.85427 40.0975 5.98504L39.4193 6.71984L38.741 7.45465C39.186 7.86541 39.4593 8.4674 39.4593 9.39984H40.4593ZM39.4193 6.71984L40.1118 5.99846C39.1971 5.12037 37.9367 4.75984 36.4993 4.75984V5.75984V6.75984C37.6218 6.75984 38.3081 7.03932 38.7267 7.44123L39.4193 6.71984ZM36.4993 5.75984V4.75984C35.0581 4.75984 33.8014 5.16346 32.8722 6.09274L33.5793 6.79984L34.2864 7.50695C34.7438 7.04956 35.4338 6.75984 36.4993 6.75984V5.75984ZM33.5793 6.79984L32.8722 6.09274C32.025 6.93991 31.5519 8.01554 31.4245 9.25781L32.4193 9.35984L33.414 9.46187C33.5 8.62414 33.8002 7.99311 34.2864 7.50695L33.5793 6.79984ZM32.4193 9.35984V8.35984H26.9393V9.35984V10.3598H32.4193V9.35984ZM55.7886 15.6878L56.7611 15.9206L57.0562 14.6878H55.7886V15.6878ZM51.4686 33.7358V34.7358H52.2575L52.4411 33.9686L51.4686 33.7358ZM49.2766 33.7358L48.304 33.5031L48.009 34.7358H49.2766V33.7358ZM53.5966 15.6878V14.6878H52.8077L52.624 15.4551L53.5966 15.6878ZM55.7886 15.6878L54.816 15.4551L50.496 33.5031L51.4686 33.7358L52.4411 33.9686L56.7611 15.9206L55.7886 15.6878ZM51.4686 33.7358V32.7358H49.2766V33.7358V34.7358H51.4686V33.7358ZM49.2766 33.7358L50.2491 33.9686L54.5691 15.9206L53.5966 15.6878L52.624 15.4551L48.304 33.5031L49.2766 33.7358ZM53.5966 15.6878V16.6878H55.7886V15.6878V14.6878H53.5966V15.6878Z" fill="url(#paint0_linear_89_338)" mask="url(#path-1-outside-1_89_338)"/>
<defs>
<linearGradient id="paint0_linear_89_338" x1="27.8799" y1="-11.1602" x2="28.3002" y2="52.4891" gradientUnits="userSpaceOnUse">
<stop stop-color="#FFF0F0"/>
<stop offset="1" stop-color="#FFF0F0" stop-opacity="0.16"/>
</linearGradient>
</defs>
</svg>
