<svg width="60" height="35" viewBox="0 0 60 35" fill="none" xmlns="http://www.w3.org/2000/svg">
<mask id="path-1-outside-1_89_347" maskUnits="userSpaceOnUse" x="-0.120117" y="-0.279785" width="60" height="35" fill="black">
<rect fill="white" x="-0.120117" y="-0.279785" width="60" height="35"/>
<path d="M0.999883 15.7602C0.999883 11.1469 1.82655 7.53355 3.47988 4.92021C5.15988 2.30688 7.93322 1.00021 11.7999 1.00021C15.6666 1.00021 18.4266 2.30688 20.0799 4.92021C21.7599 7.53355 22.5999 11.1469 22.5999 15.7602C22.5999 20.4002 21.7599 24.0402 20.0799 26.6802C18.4266 29.3202 15.6666 30.6402 11.7999 30.6402C7.93322 30.6402 5.15988 29.3202 3.47988 26.6802C1.82655 24.0402 0.999883 20.4002 0.999883 15.7602ZM17.0799 15.7602C17.0799 13.7869 16.9466 12.1335 16.6799 10.8002C16.4399 9.44021 15.9332 8.33355 15.1599 7.48021C14.4132 6.62688 13.2932 6.20021 11.7999 6.20021C10.3066 6.20021 9.17322 6.62688 8.39988 7.48021C7.65322 8.33355 7.14655 9.44021 6.87988 10.8002C6.63988 12.1335 6.51988 13.7869 6.51988 15.7602C6.51988 17.7869 6.63988 19.4935 6.87988 20.8802C7.11988 22.2402 7.62655 23.3469 8.39988 24.2002C9.17322 25.0269 10.3066 25.4402 11.7999 25.4402C13.2932 25.4402 14.4265 25.0269 15.1999 24.2002C15.9732 23.3469 16.4799 22.2402 16.7199 20.8802C16.9599 19.4935 17.0799 17.7869 17.0799 15.7602ZM26.6193 25.0402V20.6402L39.6993 1.92021H46.2193V20.1602H49.7393V25.0402H46.2193V30.7202H40.6193V25.0402H26.6193ZM40.9793 7.92021L32.7793 20.1602H40.9793V7.92021ZM58.2886 15.5682L53.9686 33.6162H51.7766L56.0966 15.5682H58.2886Z"/>
</mask>
<path d="M3.47988 4.92021L2.63868 4.37944L2.6348 4.38557L3.47988 4.92021ZM20.0799 4.92021L19.2348 5.45487L19.2387 5.46097L20.0799 4.92021ZM20.0799 26.6802L19.2362 26.1433L19.2324 26.1494L20.0799 26.6802ZM3.47988 26.6802L2.63234 27.211L2.63622 27.2171L3.47988 26.6802ZM16.6799 10.8002L15.6951 10.974L15.6971 10.9852L15.6993 10.9963L16.6799 10.8002ZM15.1599 7.48021L14.4073 8.13872L14.413 8.14528L14.4189 8.15173L15.1599 7.48021ZM8.39988 7.48021L7.6589 6.80869L7.65304 6.81515L7.64731 6.82171L8.39988 7.48021ZM6.87988 10.8002L5.89857 10.6078L5.89708 10.6154L5.8957 10.6231L6.87988 10.8002ZM6.87988 20.8802L5.89453 21.0508L5.8951 21.054L6.87988 20.8802ZM8.39988 24.2002L7.6589 24.8717L7.66421 24.8776L7.66961 24.8834L8.39988 24.2002ZM15.1999 24.2002L15.9302 24.8834L15.9356 24.8776L15.9409 24.8717L15.1999 24.2002ZM16.7199 20.8802L17.7047 21.054L17.7052 21.0508L16.7199 20.8802ZM0.999883 15.7602H1.99988C1.99988 11.2491 2.81103 7.84785 4.32496 5.45485L3.47988 4.92021L2.6348 4.38557C0.842072 7.21924 -0.000117064 11.0447 -0.000117064 15.7602H0.999883ZM3.47988 4.92021L4.32106 5.46097C5.77093 3.20562 8.17835 2.00021 11.7999 2.00021V1.00021V0.000213623C7.68808 0.000213623 4.54883 1.40814 2.6387 4.37946L3.47988 4.92021ZM11.7999 1.00021V2.00021C15.422 2.00021 17.8118 3.20554 19.2348 5.45485L20.0799 4.92021L20.925 4.38557C19.0413 1.40822 15.9111 0.000213623 11.7999 0.000213623V1.00021ZM20.0799 4.92021L19.2387 5.46097C20.7762 7.85264 21.5999 11.2514 21.5999 15.7602H22.5999H23.5999C23.5999 11.0424 22.7436 7.21445 20.9211 4.37946L20.0799 4.92021ZM22.5999 15.7602H21.5999C21.5999 20.2962 20.7761 23.7236 19.2362 26.1433L20.0799 26.6802L20.9235 27.2171C22.7437 24.3568 23.5999 20.5043 23.5999 15.7602H22.5999ZM20.0799 26.6802L19.2324 26.1494C17.8074 28.4248 15.4176 29.6402 11.7999 29.6402V30.6402V31.6402C15.9155 31.6402 19.0457 30.2156 20.9274 27.211L20.0799 26.6802ZM11.7999 30.6402V29.6402C8.18262 29.6402 5.7753 28.4247 4.32354 26.1433L3.47988 26.6802L2.63622 27.2171C4.54447 30.2158 7.68381 31.6402 11.7999 31.6402V30.6402ZM3.47988 26.6802L4.3274 26.1494C2.81116 23.7284 1.99988 20.2984 1.99988 15.7602H0.999883H-0.000117064C-0.000117064 20.502 0.841941 24.3521 2.63237 27.211L3.47988 26.6802ZM17.0799 15.7602H18.0799C18.0799 13.7477 17.9444 12.0237 17.6605 10.6041L16.6799 10.8002L15.6993 10.9963C15.9487 12.2433 16.0799 13.8261 16.0799 15.7602H17.0799ZM16.6799 10.8002L17.6647 10.6264C17.3985 9.11816 16.824 7.82729 15.9009 6.80869L15.1599 7.48021L14.4189 8.15173C15.0425 8.8398 15.4813 9.76226 15.6951 10.974L16.6799 10.8002ZM15.1599 7.48021L15.9125 6.82171C14.9202 5.68775 13.4847 5.20021 11.7999 5.20021V6.20021V7.20021C13.1018 7.20021 13.9062 7.56601 14.4073 8.13872L15.1599 7.48021ZM11.7999 6.20021V5.20021C10.113 5.20021 8.67418 5.68839 7.6589 6.80869L8.39988 7.48021L9.14087 8.15173C9.67226 7.56538 10.5001 7.20021 11.7999 7.20021V6.20021ZM8.39988 7.48021L7.64731 6.82171C6.76148 7.83409 6.19162 9.11324 5.89857 10.6078L6.87988 10.8002L7.8612 10.9926C8.10148 9.76719 8.54496 8.83301 9.15246 8.13872L8.39988 7.48021ZM6.87988 10.8002L5.8957 10.6231C5.64161 12.0347 5.51988 13.7518 5.51988 15.7602H6.51988H7.51988C7.51988 13.822 7.63816 12.2324 7.86407 10.9774L6.87988 10.8002ZM6.51988 15.7602H5.51988C5.51988 17.8214 5.64157 19.5892 5.89453 21.0508L6.87988 20.8802L7.86523 20.7097C7.6382 19.3979 7.51988 17.7523 7.51988 15.7602H6.51988ZM6.87988 20.8802L5.8951 21.054C6.16126 22.5623 6.73579 23.8531 7.6589 24.8717L8.39988 24.2002L9.14087 23.5287C8.51731 22.8406 8.0785 21.9182 7.86467 20.7064L6.87988 20.8802ZM8.39988 24.2002L7.66961 24.8834C8.68715 25.9711 10.1224 26.4402 11.7999 26.4402V25.4402V24.4402C10.4907 24.4402 9.65928 24.0827 9.13015 23.5171L8.39988 24.2002ZM11.7999 25.4402V26.4402C13.4774 26.4402 14.9126 25.9711 15.9302 24.8834L15.1999 24.2002L14.4696 23.5171C13.9405 24.0827 13.109 24.4402 11.7999 24.4402V25.4402ZM15.1999 24.2002L15.9409 24.8717C16.864 23.8531 17.4385 22.5623 17.7047 21.054L16.7199 20.8802L15.7351 20.7064C15.5213 21.9182 15.0825 22.8406 14.4589 23.5287L15.1999 24.2002ZM16.7199 20.8802L17.7052 21.0508C17.9582 19.5892 18.0799 17.8214 18.0799 15.7602H17.0799H16.0799C16.0799 17.7523 15.9616 19.3979 15.7345 20.7097L16.7199 20.8802ZM26.6193 25.0402H25.6193V26.0402H26.6193V25.0402ZM26.6193 20.6402L25.7995 20.0675L25.6193 20.3255V20.6402H26.6193ZM39.6993 1.92021V0.920214H39.1781L38.8795 1.34746L39.6993 1.92021ZM46.2193 1.92021H47.2193V0.920214H46.2193V1.92021ZM46.2193 20.1602H45.2193V21.1602H46.2193V20.1602ZM49.7393 20.1602H50.7393V19.1602H49.7393V20.1602ZM49.7393 25.0402V26.0402H50.7393V25.0402H49.7393ZM46.2193 25.0402V24.0402H45.2193V25.0402H46.2193ZM46.2193 30.7202V31.7202H47.2193V30.7202H46.2193ZM40.6193 30.7202H39.6193V31.7202H40.6193V30.7202ZM40.6193 25.0402H41.6193V24.0402H40.6193V25.0402ZM40.9793 7.92021H41.9793V4.63084L40.1485 7.36363L40.9793 7.92021ZM32.7793 20.1602L31.9485 19.6036L30.9057 21.1602H32.7793V20.1602ZM40.9793 20.1602V21.1602H41.9793V20.1602H40.9793ZM26.6193 25.0402H27.6193V20.6402H26.6193H25.6193V25.0402H26.6193ZM26.6193 20.6402L27.439 21.213L40.519 2.49297L39.6993 1.92021L38.8795 1.34746L25.7995 20.0675L26.6193 20.6402ZM39.6993 1.92021V2.92021H46.2193V1.92021V0.920214H39.6993V1.92021ZM46.2193 1.92021H45.2193V20.1602H46.2193H47.2193V1.92021H46.2193ZM46.2193 20.1602V21.1602H49.7393V20.1602V19.1602H46.2193V20.1602ZM49.7393 20.1602H48.7393V25.0402H49.7393H50.7393V20.1602H49.7393ZM49.7393 25.0402V24.0402H46.2193V25.0402V26.0402H49.7393V25.0402ZM46.2193 25.0402H45.2193V30.7202H46.2193H47.2193V25.0402H46.2193ZM46.2193 30.7202V29.7202H40.6193V30.7202V31.7202H46.2193V30.7202ZM40.6193 30.7202H41.6193V25.0402H40.6193H39.6193V30.7202H40.6193ZM40.6193 25.0402V24.0402H26.6193V25.0402V26.0402H40.6193V25.0402ZM40.9793 7.92021L40.1485 7.36363L31.9485 19.6036L32.7793 20.1602L33.6101 20.7168L41.8101 8.47679L40.9793 7.92021ZM32.7793 20.1602V21.1602H40.9793V20.1602V19.1602H32.7793V20.1602ZM40.9793 20.1602H41.9793V7.92021H40.9793H39.9793V20.1602H40.9793ZM58.2886 15.5682L59.2611 15.801L59.5562 14.5682H58.2886V15.5682ZM53.9686 33.6162V34.6162H54.7575L54.9411 33.849L53.9686 33.6162ZM51.7766 33.6162L50.804 33.3834L50.509 34.6162H51.7766V33.6162ZM56.0966 15.5682V14.5682H55.3077L55.124 15.3354L56.0966 15.5682ZM58.2886 15.5682L57.316 15.3354L52.996 33.3834L53.9686 33.6162L54.9411 33.849L59.2611 15.801L58.2886 15.5682ZM53.9686 33.6162V32.6162H51.7766V33.6162V34.6162H53.9686V33.6162ZM51.7766 33.6162L52.7491 33.849L57.0691 15.801L56.0966 15.5682L55.124 15.3354L50.804 33.3834L51.7766 33.6162ZM56.0966 15.5682V16.5682H58.2886V15.5682V14.5682H56.0966V15.5682Z" fill="url(#paint0_linear_89_347)" mask="url(#path-1-outside-1_89_347)"/>
<defs>
<linearGradient id="paint0_linear_89_347" x1="29.3799" y1="-11.2798" x2="29.7796" y2="52.3698" gradientUnits="userSpaceOnUse">
<stop stop-color="#FFF0F0"/>
<stop offset="1" stop-color="#FFF0F0" stop-opacity="0.16"/>
</linearGradient>
</defs>
</svg>
