<svg width="58" height="56" viewBox="0 0 58 56" fill="none" xmlns="http://www.w3.org/2000/svg">
<mask id="path-1-outside-1_89_326" maskUnits="userSpaceOnUse" x="1" y="11" width="57" height="35" fill="black">
<rect fill="white" x="1" y="11" width="57" height="35"/>
<path d="M2.12 27.04C2.12 22.4267 2.94667 18.8133 4.6 16.2C6.28 13.5867 9.05333 12.28 12.92 12.28C16.7867 12.28 19.5467 13.5867 21.2 16.2C22.88 18.8133 23.72 22.4267 23.72 27.04C23.72 31.68 22.88 35.32 21.2 37.96C19.5467 40.6 16.7867 41.92 12.92 41.92C9.05333 41.92 6.28 40.6 4.6 37.96C2.94667 35.32 2.12 31.68 2.12 27.04ZM18.2 27.04C18.2 25.0667 18.0667 23.4133 17.8 22.08C17.56 20.72 17.0533 19.6133 16.28 18.76C15.5333 17.9067 14.4133 17.48 12.92 17.48C11.4267 17.48 10.2933 17.9067 9.52 18.76C8.77333 19.6133 8.26667 20.72 8 22.08C7.76 23.4133 7.64 25.0667 7.64 27.04C7.64 29.0667 7.76 30.7733 8 32.16C8.24 33.52 8.74667 34.6267 9.52 35.48C10.2933 36.3067 11.4267 36.72 12.92 36.72C14.4133 36.72 15.5467 36.3067 16.32 35.48C17.0933 34.6267 17.6 33.52 17.84 32.16C18.08 30.7733 18.2 29.0667 18.2 27.04ZM29.7394 35.68C32.2994 33.5467 34.3394 31.7733 35.8594 30.36C37.3794 28.92 38.646 27.4267 39.6594 25.88C40.6727 24.3333 41.1794 22.8133 41.1794 21.32C41.1794 19.96 40.8594 18.8933 40.2194 18.12C39.5794 17.3467 38.5927 16.96 37.2594 16.96C35.926 16.96 34.8994 17.4133 34.1794 18.32C33.4594 19.2 33.086 20.4133 33.0594 21.96H27.6194C27.726 18.76 28.6727 16.3333 30.4594 14.68C32.2727 13.0267 34.566 12.2 37.3394 12.2C40.3794 12.2 42.7127 13.0133 44.3394 14.64C45.966 16.24 46.7794 18.36 46.7794 21C46.7794 23.08 46.2194 25.0667 45.0994 26.96C43.9794 28.8533 42.6994 30.5067 41.2594 31.92C39.8194 33.3067 37.9394 34.9867 35.6194 36.96H47.4194V41.6H27.6594V37.44L29.7394 35.68ZM55.9321 26.848L51.6121 44.896H49.4201L53.7401 26.848H55.9321Z"/>
</mask>
<path d="M4.6 16.2L3.7588 15.6592L3.75492 15.6654L4.6 16.2ZM21.2 16.2L20.3549 16.7347L20.3588 16.7408L21.2 16.2ZM21.2 37.96L20.3563 37.4231L20.3525 37.4292L21.2 37.96ZM4.6 37.96L3.75246 38.4908L3.75634 38.4969L4.6 37.96ZM17.8 22.08L16.8152 22.2538L16.8172 22.265L16.8194 22.2761L17.8 22.08ZM16.28 18.76L15.5274 19.4185L15.5332 19.4251L15.539 19.4315L16.28 18.76ZM9.52 18.76L8.77901 18.0885L8.77316 18.0949L8.76742 18.1015L9.52 18.76ZM8 22.08L7.01869 21.8876L7.01719 21.8952L7.01582 21.9028L8 22.08ZM8 32.16L7.01464 32.3305L7.01522 32.3338L8 32.16ZM9.52 35.48L8.77901 36.1515L8.78432 36.1574L8.78973 36.1632L9.52 35.48ZM16.32 35.48L17.0503 36.1632L17.0557 36.1574L17.061 36.1515L16.32 35.48ZM17.84 32.16L18.8248 32.3338L18.8254 32.3305L17.84 32.16ZM2.12 27.04H3.12C3.12 22.5289 3.93114 19.1276 5.44508 16.7346L4.6 16.2L3.75492 15.6654C1.96219 18.499 1.12 22.3245 1.12 27.04H2.12ZM4.6 16.2L5.44118 16.7408C6.89105 14.4854 9.29847 13.28 12.92 13.28V12.28V11.28C8.8082 11.28 5.66895 12.6879 3.75882 15.6592L4.6 16.2ZM12.92 12.28V13.28C16.5421 13.28 18.9319 14.4853 20.3549 16.7346L21.2 16.2L22.0451 15.6654C20.1615 12.688 17.0313 11.28 12.92 11.28V12.28ZM21.2 16.2L20.3588 16.7408C21.8963 19.1324 22.72 22.5311 22.72 27.04H23.72H24.72C24.72 22.3222 23.8637 18.4942 22.0412 15.6592L21.2 16.2ZM23.72 27.04H22.72C22.72 31.576 21.8962 35.0034 20.3563 37.4231L21.2 37.96L22.0437 38.4969C23.8638 35.6366 24.72 31.784 24.72 27.04H23.72ZM21.2 37.96L20.3525 37.4292C18.9275 39.7046 16.5378 40.92 12.92 40.92V41.92V42.92C17.0356 42.92 20.1658 41.4954 22.0475 38.4908L21.2 37.96ZM12.92 41.92V40.92C9.30274 40.92 6.89541 39.7044 5.44366 37.4231L4.6 37.96L3.75634 38.4969C5.66459 41.4955 8.80393 42.92 12.92 42.92V41.92ZM4.6 37.96L5.44752 37.4292C3.93128 35.0081 3.12 31.5782 3.12 27.04H2.12H1.12C1.12 31.7818 1.96206 35.6319 3.75248 38.4908L4.6 37.96ZM18.2 27.04H19.2C19.2 25.0275 19.0645 23.3035 18.7806 21.8839L17.8 22.08L16.8194 22.2761C17.0688 23.5231 17.2 25.1059 17.2 27.04H18.2ZM17.8 22.08L18.7848 21.9062C18.5186 20.3979 17.9441 19.1071 17.021 18.0885L16.28 18.76L15.539 19.4315C16.1626 20.1196 16.6014 21.042 16.8152 22.2538L17.8 22.08ZM16.28 18.76L17.0326 18.1015C16.0404 16.9675 14.6048 16.48 12.92 16.48V17.48V18.48C14.2219 18.48 15.0263 18.8458 15.5274 19.4185L16.28 18.76ZM12.92 17.48V16.48C11.2332 16.48 9.79429 16.9682 8.77901 18.0885L9.52 18.76L10.261 19.4315C10.7924 18.8452 11.6202 18.48 12.92 18.48V17.48ZM9.52 18.76L8.76742 18.1015C7.88159 19.1139 7.31174 20.393 7.01869 21.8876L8 22.08L8.98131 22.2724C9.2216 21.047 9.66507 20.1128 10.2726 19.4185L9.52 18.76ZM8 22.08L7.01582 21.9028C6.76172 23.3145 6.64 25.0315 6.64 27.04H7.64H8.64C8.64 25.1018 8.75828 23.5122 8.98418 22.2572L8 22.08ZM7.64 27.04H6.64C6.64 29.1012 6.76168 30.869 7.01465 32.3305L8 32.16L8.98535 31.9895C8.75832 30.6777 8.64 29.0321 8.64 27.04H7.64ZM8 32.16L7.01522 32.3338C7.28138 33.842 7.85591 35.1329 8.77901 36.1515L9.52 35.48L10.261 34.8085C9.63742 34.1204 9.19862 33.1979 8.98478 31.9862L8 32.16ZM9.52 35.48L8.78973 36.1632C9.80727 37.2509 11.2425 37.72 12.92 37.72V36.72V35.72C11.6109 35.72 10.7794 35.3625 10.2503 34.7968L9.52 35.48ZM12.92 36.72V37.72C14.5975 37.72 16.0327 37.2509 17.0503 36.1632L16.32 35.48L15.5897 34.7968C15.0606 35.3625 14.2291 35.72 12.92 35.72V36.72ZM16.32 35.48L17.061 36.1515C17.9841 35.1329 18.5586 33.842 18.8248 32.3338L17.84 32.16L16.8552 31.9862C16.6414 33.1979 16.2026 34.1204 15.579 34.8085L16.32 35.48ZM17.84 32.16L18.8254 32.3305C19.0783 30.869 19.2 29.1012 19.2 27.04H18.2H17.2C17.2 29.0321 17.0817 30.6777 16.8547 31.9895L17.84 32.16ZM29.7394 35.68L29.0992 34.9118L29.0934 34.9166L29.7394 35.68ZM35.8594 30.36L36.5403 31.0924L36.5471 31.086L35.8594 30.36ZM39.6594 25.88L40.4958 26.428V26.428L39.6594 25.88ZM40.2194 18.12L39.449 18.7576V18.7576L40.2194 18.12ZM34.1794 18.32L34.9533 18.9532L34.958 18.9476L34.9625 18.9419L34.1794 18.32ZM33.0594 21.96V22.96H34.0423L34.0592 21.9772L33.0594 21.96ZM27.6194 21.96L26.6199 21.9267L26.5855 22.96H27.6194V21.96ZM30.4594 14.68L29.7856 13.941L29.7802 13.946L30.4594 14.68ZM44.3394 14.64L43.6322 15.3471L43.6381 15.3529L44.3394 14.64ZM45.0994 26.96L45.9601 27.4691V27.4691L45.0994 26.96ZM41.2594 31.92L41.953 32.6404L41.9598 32.6337L41.2594 31.92ZM35.6194 36.96L34.9715 36.1983L32.9003 37.96H35.6194V36.96ZM47.4194 36.96H48.4194V35.96H47.4194V36.96ZM47.4194 41.6V42.6H48.4194V41.6H47.4194ZM27.6594 41.6H26.6594V42.6H27.6594V41.6ZM27.6594 37.44L27.0134 36.6766L26.6594 36.9762V37.44H27.6594ZM29.7394 35.68L30.3796 36.4482C32.9462 34.3093 35.0016 32.5231 36.5403 31.0923L35.8594 30.36L35.1784 29.6277C33.6771 31.0236 31.6525 32.784 29.0992 34.9118L29.7394 35.68ZM35.8594 30.36L36.5471 31.086C38.1161 29.5995 39.4348 28.0475 40.4958 26.428L39.6594 25.88L38.8229 25.332C37.8573 26.8059 36.6426 28.2405 35.1716 29.634L35.8594 30.36ZM39.6594 25.88L40.4958 26.428C41.5904 24.7574 42.1794 23.0499 42.1794 21.32H41.1794H40.1794C40.1794 22.5768 39.755 23.9093 38.8229 25.332L39.6594 25.88ZM41.1794 21.32H42.1794C42.1794 19.8098 41.8234 18.4898 40.9898 17.4824L40.2194 18.12L39.449 18.7576C39.8953 19.2969 40.1794 20.1102 40.1794 21.32H41.1794ZM40.2194 18.12L40.9898 17.4824C40.102 16.4097 38.7863 15.96 37.2594 15.96V16.96V17.96C38.3991 17.96 39.0568 18.2836 39.449 18.7576L40.2194 18.12ZM37.2594 16.96V15.96C35.6731 15.96 34.3362 16.5145 33.3963 17.6981L34.1794 18.32L34.9625 18.9419C35.4626 18.3121 36.179 17.96 37.2594 17.96V16.96ZM34.1794 18.32L33.4054 17.6868C32.4993 18.7943 32.0887 20.2516 32.0595 21.9428L33.0594 21.96L34.0592 21.9772C34.0834 20.575 34.4195 19.6057 34.9533 18.9532L34.1794 18.32ZM33.0594 21.96V20.96H27.6194V21.96V22.96H33.0594V21.96ZM27.6194 21.96L28.6188 21.9933C28.7195 18.9727 29.604 16.834 31.1386 15.414L30.4594 14.68L29.7802 13.946C27.7414 15.8327 26.7326 18.5473 26.6199 21.9267L27.6194 21.96ZM30.4594 14.68L31.1331 15.419C32.738 13.9557 34.7804 13.2 37.3394 13.2V12.2V11.2C34.3517 11.2 31.8074 12.0977 29.7856 13.941L30.4594 14.68ZM37.3394 12.2V13.2C40.2025 13.2 42.2475 13.9624 43.6323 15.3471L44.3394 14.64L45.0465 13.9329C43.1779 12.0643 40.5562 11.2 37.3394 11.2V12.2ZM44.3394 14.64L43.6381 15.3529C45.0434 16.7351 45.7794 18.5824 45.7794 21H46.7794H47.7794C47.7794 18.1376 46.8887 15.7449 45.0406 13.9271L44.3394 14.64ZM46.7794 21H45.7794C45.7794 22.8904 45.273 24.7025 44.2387 26.4509L45.0994 26.96L45.9601 27.4691C47.1658 25.4309 47.7794 23.2696 47.7794 21H46.7794ZM45.0994 26.96L44.2387 26.4509C43.159 28.276 41.9315 29.8591 40.5589 31.2063L41.2594 31.92L41.9598 32.6337C43.4672 31.1542 44.7997 29.4306 45.9601 27.4691L45.0994 26.96ZM41.2594 31.92L40.5657 31.1997C39.1461 32.5668 37.283 34.2322 34.9715 36.1983L35.6194 36.96L36.2673 37.7217C38.5958 35.7412 40.4927 34.0466 41.953 32.6403L41.2594 31.92ZM35.6194 36.96V37.96H47.4194V36.96V35.96H35.6194V36.96ZM47.4194 36.96H46.4194V41.6H47.4194H48.4194V36.96H47.4194ZM47.4194 41.6V40.6H27.6594V41.6V42.6H47.4194V41.6ZM27.6594 41.6H28.6594V37.44H27.6594H26.6594V41.6H27.6594ZM27.6594 37.44L28.3053 38.2034L30.3853 36.4434L29.7394 35.68L29.0934 34.9166L27.0134 36.6766L27.6594 37.44ZM55.9321 26.848L56.9047 27.0808L57.1997 25.848H55.9321V26.848ZM51.6121 44.896V45.896H52.401L52.5847 45.1288L51.6121 44.896ZM49.4201 44.896L48.4476 44.6632L48.1525 45.896H49.4201V44.896ZM53.7401 26.848V25.848H52.9512L52.7676 26.6152L53.7401 26.848ZM55.9321 26.848L54.9596 26.6152L50.6396 44.6632L51.6121 44.896L52.5847 45.1288L56.9047 27.0808L55.9321 26.848ZM51.6121 44.896V43.896H49.4201V44.896V45.896H51.6121V44.896ZM49.4201 44.896L50.3927 45.1288L54.7127 27.0808L53.7401 26.848L52.7676 26.6152L48.4476 44.6632L49.4201 44.896ZM53.7401 26.848V27.848H55.9321V26.848V25.848H53.7401V26.848Z" fill="url(#paint0_linear_89_326)" mask="url(#path-1-outside-1_89_326)"/>
<defs>
<linearGradient id="paint0_linear_89_326" x1="28.5" y1="-1.84422e-09" x2="28.9277" y2="63.6492" gradientUnits="userSpaceOnUse">
<stop stop-color="#FFF0F0"/>
<stop offset="1" stop-color="#FFF0F0" stop-opacity="0.16"/>
</linearGradient>
</defs>
</svg>
