<svg width="30" height="29" viewBox="0 0 30 29" fill="none" xmlns="http://www.w3.org/2000/svg">
<path d="M14.595 7.31473e-05C14.6499 8.47852e-05 14.7047 9.64225e-05 14.7612 0.000108413C15.6856 0.00205906 16.5746 0.0620838 17.4827 0.240821C17.5363 0.251125 17.5899 0.261428 17.6451 0.272043C19.4824 0.634803 21.3716 1.3644 22.8881 2.44195C22.9221 2.46575 22.9562 2.48955 22.9912 2.51407C24.1135 3.30042 25.1704 4.18128 26.0176 5.24838C26.0628 5.3035 26.1081 5.35862 26.1547 5.4154C27.9915 7.66339 29.1907 10.5521 29.2175 13.4386C29.2181 13.4886 29.2186 13.5386 29.2192 13.5901C29.2373 15.6267 28.9946 17.5475 28.1797 19.4457C28.1608 19.4899 28.1419 19.5342 28.1225 19.5798C27.5981 20.7914 26.9034 21.9323 26.026 22.9371C25.9463 23.0287 25.8682 23.1217 25.7922 23.2162C25.2184 23.9252 24.5372 24.5667 23.7985 25.1136C23.7151 25.1781 23.7151 25.1781 23.63 25.244C21.8318 26.629 19.7546 27.5017 17.5147 27.9647C17.4629 27.9754 17.4112 27.9862 17.3579 27.9972C16.4591 28.1728 15.5736 28.2159 14.659 28.2123C14.6038 28.2122 14.5485 28.2121 14.4916 28.212C13.676 28.2092 12.8789 28.1881 12.0772 28.03C11.9896 28.0132 11.9896 28.0132 11.9003 27.996C9.06863 27.4387 6.53414 26.1738 4.45271 24.2331C4.42077 24.2034 4.38882 24.1737 4.35591 24.1431C3.95849 23.7719 3.59214 23.394 3.25782 22.9675C3.21425 22.9146 3.17069 22.8618 3.1258 22.8073C1.71525 21.0911 0.756311 19.06 0.299055 16.9144C0.282195 16.836 0.282195 16.836 0.264993 16.756C-0.0677781 15.1268 -0.100145 13.2619 0.242156 11.6317C0.252223 11.5821 0.26229 11.5326 0.272662 11.4815C0.786332 9.00534 1.90707 6.60264 3.71302 4.75313C3.77374 4.68457 3.8342 4.61578 3.89438 4.54677C4.39039 3.99808 4.93456 3.48918 5.5338 3.04726C5.56432 3.02454 5.59484 3.00182 5.62629 2.97842C7.65124 1.47814 9.95009 0.501738 12.4755 0.130765C12.54 0.121047 12.6044 0.111329 12.6708 0.101316C13.3125 0.0134144 13.9476 -0.00119972 14.595 7.31473e-05ZM16.5723 1.1763C16.7984 1.43576 17.0321 1.68621 17.2728 1.93294C17.5856 2.25679 17.8834 2.58764 18.1655 2.9372C18.1903 2.96762 18.2151 2.99805 18.2406 3.02939C19.0655 4.04526 19.732 5.13967 20.3276 6.29392C20.7221 6.26675 21.0554 6.12077 21.4158 5.97063C21.4809 5.94377 21.5459 5.9169 21.6129 5.88923C22.43 5.54633 23.2091 5.14631 23.9692 4.6981C23.6875 4.35203 23.3618 4.08543 23.0019 3.81765C22.9695 3.7935 22.9371 3.76935 22.9037 3.74446C21.8307 2.95039 20.6345 2.27801 19.3603 1.83664C19.3218 1.82305 19.2832 1.80945 19.2434 1.79545C18.7394 1.61953 18.2311 1.47362 17.7103 1.3517C17.662 1.34031 17.6138 1.32892 17.5641 1.31719C17.2348 1.24315 16.9092 1.20148 16.5723 1.1763ZM9.34606 2.05675C9.27913 2.08556 9.27913 2.08556 9.21086 2.11495C7.76218 2.74385 6.44285 3.56551 5.3062 4.64307C5.57834 4.87689 5.89111 5.03389 6.20948 5.20023C6.26929 5.23154 6.3291 5.26285 6.39073 5.29511C6.99952 5.60872 7.62568 5.87898 8.26497 6.12884C8.30795 6.14584 8.35093 6.16285 8.39521 6.18037C8.59418 6.25643 8.73078 6.29392 8.94776 6.29392C8.9654 6.25916 8.98304 6.2244 9.00121 6.18859C9.8859 4.45996 11.0207 2.94599 12.3927 1.55035C12.4411 1.50096 12.4411 1.50096 12.4904 1.45058C12.5335 1.40693 12.5335 1.40693 12.5775 1.3624C12.6524 1.28598 12.6524 1.28598 12.7031 1.1763C11.5888 1.1763 10.3504 1.61919 9.34606 2.05675ZM13.7344 1.68875C13.7013 1.71852 13.6681 1.7483 13.6339 1.77898C13.1685 2.19913 12.7111 2.62733 12.3048 3.10229C12.2807 3.13034 12.2566 3.1584 12.2318 3.1873C10.7615 4.79606 10.7615 4.79605 9.97195 6.67912C10.7442 6.86804 11.5153 7.03093 12.3048 7.13654C12.4012 7.14965 12.4012 7.14965 12.4996 7.16303C13.0438 7.23202 13.5733 7.25475 14.1256 7.28443C14.1256 5.34138 14.1256 3.39834 14.1256 1.39641C13.9897 1.39641 13.8344 1.59876 13.7344 1.68875ZM15.1498 1.39641C15.1498 3.33946 15.1498 5.2825 15.1498 7.28443C16.3735 7.20504 16.3735 7.20504 17.5787 7.04368C17.685 7.02589 17.685 7.02589 17.7935 7.00774C18.3033 6.92039 18.8056 6.81679 19.3034 6.67912C19.2708 6.48664 19.2208 6.33626 19.1241 6.16538C19.099 6.12085 19.0738 6.07632 19.048 6.03044C19.0208 5.98346 18.9936 5.93649 18.9656 5.88809C18.9374 5.83912 18.9093 5.79016 18.8802 5.73971C18.1156 4.427 17.135 3.25259 16.0602 2.16681C16.0319 2.13813 16.0035 2.10946 15.9744 2.07991C15.7091 1.81273 15.4718 1.60401 15.1498 1.39641ZM4.50961 5.41347C2.40384 7.731 1.32119 10.5589 1.09565 13.6127C3.06721 13.6127 5.03877 13.6127 7.07008 13.6127C7.12549 13.4519 7.13864 13.3326 7.14743 13.1645C7.25478 11.3679 7.61546 9.64872 8.22318 7.94971C8.3019 7.72956 8.37249 7.50919 8.43567 7.28443C8.15949 7.16475 7.88257 7.04696 7.6044 6.93169C6.59763 6.51249 5.61638 6.06049 4.69186 5.48849C4.58301 5.40864 4.58301 5.40864 4.50961 5.41347ZM24.4546 5.55878C23.412 6.16338 22.3444 6.72344 21.1934 7.11159C21.0927 7.1465 20.9943 7.18741 20.8966 7.2294C20.8314 7.41856 20.8464 7.44753 20.9197 7.62513C20.9384 7.67181 20.9571 7.7185 20.9763 7.76659C21.0073 7.84287 21.0073 7.84287 21.0389 7.92069C21.6866 9.58684 22.0476 11.3701 22.129 13.1482C22.1371 13.3156 22.1502 13.4527 22.2053 13.6127C24.1769 13.6127 26.1484 13.6127 28.1797 13.6127C28.0349 12.0018 27.7881 10.4704 27.0987 8.9903C27.0788 8.94715 27.0589 8.90401 27.0385 8.85955C26.5506 7.80844 25.9553 6.86959 25.221 5.96375C25.1968 5.9336 25.1726 5.90346 25.1476 5.8724C24.9614 5.63921 24.9614 5.63921 24.7658 5.41347C24.6531 5.41347 24.5473 5.50442 24.4546 5.55878ZM9.45985 7.6146C8.66012 9.51439 8.15117 11.5538 8.15117 13.6127C10.1227 13.6127 12.0943 13.6127 14.1256 13.6127C14.1256 11.8512 14.1256 10.0898 14.1256 8.27493C13.168 8.19322 13.168 8.19322 12.191 8.10985C11.3586 7.99203 10.5513 7.83985 9.73795 7.63636C9.62099 7.60895 9.62099 7.60895 9.45985 7.6146ZM19.4148 7.66704C17.9991 8.01249 16.6192 8.14955 15.1498 8.27493C15.1498 10.0364 15.1498 11.7978 15.1498 13.6127C17.1214 13.6127 19.0929 13.6127 21.1242 13.6127C21.1242 11.5538 20.6153 9.51439 19.8155 7.6146C19.6636 7.6146 19.5598 7.63077 19.4148 7.66704ZM1.09565 14.6032C1.36328 17.5797 2.29475 20.1355 4.22511 22.4722C4.46488 22.3887 4.67439 22.2711 4.89012 22.142C5.97029 21.5082 7.07561 20.9639 8.26497 20.5462C8.19551 20.2158 8.10454 19.9003 7.99663 19.5799C7.50562 18.1153 7.20799 16.5879 7.14347 15.0481C7.13658 14.8862 7.12351 14.7582 7.07008 14.6032C5.09852 14.6032 3.12695 14.6032 1.09565 14.6032ZM8.15117 14.6032C8.15117 16.4699 8.53807 18.4367 9.28915 20.161C9.64752 20.1008 10.0028 20.0336 10.3572 19.9546C10.898 19.835 11.4398 19.7356 11.9883 19.6554C12.045 19.6469 12.1017 19.6384 12.1601 19.6297C12.8144 19.5379 13.4634 19.499 14.1256 19.4457C14.1256 17.8476 14.1256 16.2496 14.1256 14.6032C12.154 14.6032 10.1825 14.6032 8.15117 14.6032ZM15.1498 14.6032C15.1498 16.2012 15.1498 17.7992 15.1498 19.4457C16.0511 19.5274 16.0511 19.5274 16.9706 19.6107C17.8508 19.7386 18.7067 19.8709 19.5599 20.1105C19.7611 20.1703 19.7611 20.1703 19.9862 20.161C20.7275 18.4225 21.1242 16.4816 21.1242 14.6032C19.1527 14.6032 17.1811 14.6032 15.1498 14.6032ZM22.2053 14.6032C22.1499 14.764 22.1367 14.8833 22.128 15.0514C22.0264 16.7509 21.7185 18.415 21.1347 20.023C21.1185 20.0678 21.1023 20.1125 21.0856 20.1587C21.071 20.1978 21.0565 20.2369 21.0416 20.2773C21.0025 20.3895 21.0025 20.3895 21.0104 20.5462C21.0433 20.5589 21.0761 20.5716 21.11 20.5847C22.3895 21.0808 23.6681 21.6068 24.7953 22.3888C24.8652 22.4301 24.8652 22.4301 24.9365 22.4722C25.1788 22.3941 25.2778 22.2209 25.4237 22.0285C25.454 21.9889 25.4843 21.9492 25.5155 21.9083C26.2622 20.9179 26.899 19.831 27.3263 18.6753C27.3402 18.6381 27.3542 18.6009 27.3686 18.5626C27.8505 17.2715 28.0788 15.9702 28.1797 14.6032C26.2082 14.6032 24.2366 14.6032 22.2053 14.6032ZM12.8469 20.5297C12.7412 20.5424 12.7412 20.5424 12.6334 20.5555C12.5613 20.5649 12.4893 20.5743 12.4151 20.584C12.3584 20.5913 12.3584 20.5913 12.3006 20.5987C11.4299 20.7105 10.5747 20.8705 9.74435 21.1515C10.3339 23.1074 12.3518 25.6758 14.1256 26.8194C14.1256 24.7311 14.1256 22.6428 14.1256 20.4912C13.4787 20.4841 13.4787 20.4841 12.8469 20.5297ZM15.1498 20.4912C15.1498 22.5795 15.1498 24.6678 15.1498 26.8194C15.5147 26.5593 15.5147 26.5593 15.843 26.2737C15.8826 26.2356 15.9222 26.1976 15.9629 26.1584C16.0032 26.1189 16.0435 26.0794 16.0851 26.0387C16.1275 25.9973 16.17 25.956 16.2138 25.9134C16.482 25.6495 16.7338 25.3817 16.9695 25.0901C17.0931 24.9377 17.2236 24.7924 17.3546 24.6458C18.1043 23.7765 18.7028 22.7934 19.2537 21.7981C19.2962 21.7223 19.2962 21.7223 19.3396 21.645C19.3782 21.5739 19.3782 21.5739 19.4177 21.5015C19.4409 21.4592 19.4642 21.4169 19.4882 21.3733C19.548 21.2532 19.548 21.2532 19.4741 21.0965C19.349 21.0451 19.349 21.0451 19.1934 21.014C19.1053 20.9937 19.1053 20.9937 19.0154 20.973C18.952 20.9592 18.8887 20.9455 18.8234 20.9314C18.7587 20.917 18.694 20.9026 18.6274 20.8877C18.097 20.7715 17.5664 20.6721 17.0275 20.6012C16.9849 20.5956 16.9423 20.5899 16.8984 20.5841C16.7673 20.5671 16.6361 20.5512 16.5047 20.5359C16.4481 20.529 16.4481 20.529 16.3903 20.5219C15.9724 20.477 15.5784 20.4912 15.1498 20.4912ZM20.5552 21.4817C20.5381 21.5159 20.521 21.5502 20.5034 21.5855C19.9582 22.6715 19.3679 23.705 18.6207 24.6733C18.5794 24.7284 18.5381 24.7834 18.4955 24.8401C18.0044 25.4882 17.4547 26.0836 16.8827 26.6655C16.8505 26.6984 16.8182 26.7313 16.785 26.7653C16.7419 26.8089 16.7419 26.8089 16.6979 26.8534C16.623 26.9299 16.623 26.9299 16.5723 27.0395C19.3992 26.8413 22.328 25.2808 24.2537 23.2976C24.1047 23.1447 23.9631 23.0309 23.7745 22.927C23.726 22.9002 23.6775 22.8734 23.6276 22.8457C23.576 22.8178 23.5245 22.7899 23.4713 22.7611C23.4177 22.7319 23.364 22.7026 23.3087 22.6725C21.9888 21.8778 21.9888 21.8778 20.5552 21.4817ZM5.0217 23.2426C6.2683 24.6834 8.09579 25.755 9.91505 26.3792C9.95331 26.3926 9.99157 26.4061 10.031 26.4199C10.5353 26.596 11.0439 26.7421 11.5651 26.8641C11.6134 26.8755 11.6616 26.8869 11.7113 26.8986C12.0406 26.9727 12.3662 27.0144 12.7031 27.0395C12.477 26.7801 12.2433 26.5296 12.0025 26.2829C10.6236 24.8536 9.61887 23.22 8.72016 21.4817C7.62065 21.4817 5.90453 22.6378 5.0217 23.2426Z" fill="white"/>
</svg>
