<svg width="45" height="41" viewBox="0 0 45 41" fill="none" xmlns="http://www.w3.org/2000/svg">
<ellipse cx="15.2286" cy="15" rx="15.2286" ry="15" fill="#3E82DA"/>
<path d="M18.7707 15.0227C18.8713 15.0214 18.8713 15.0214 18.974 15.02C19.2792 15.0176 19.5844 15.0153 19.8897 15.0141C20.0509 15.0134 20.2121 15.0118 20.3734 15.0096C20.5684 15.0069 20.7634 15.0056 20.9584 15.0052C21.0686 15.0046 21.1789 15.0028 21.2891 15.0009C21.3562 15.001 21.4232 15.0012 21.4923 15.0013C21.5513 15.0009 21.6103 15.0005 21.6711 15C21.8249 15.0333 21.8249 15.0333 21.957 15.1596C22.047 15.3067 22.047 15.3067 22.0435 15.5049C21.9739 15.752 21.9739 15.752 21.8249 15.8536C21.6571 15.9087 21.5451 15.9151 21.3697 15.9151C21.2812 15.9155 21.2812 15.9155 21.191 15.9158C21.1272 15.9158 21.0633 15.9159 20.9975 15.9159C20.8619 15.9169 20.7264 15.918 20.5908 15.9191C20.3773 15.9207 20.1639 15.9219 19.9505 15.9219C19.7443 15.9221 19.5381 15.924 19.3319 15.9262C19.2691 15.9258 19.2062 15.9254 19.1415 15.925C18.6907 15.9317 18.1814 16.0034 17.8435 16.3274C17.8199 16.3515 17.7962 16.3756 17.7719 16.4004C17.7353 16.4004 17.6986 16.4004 17.6609 16.4004C17.6378 16.446 17.6378 16.446 17.6142 16.4925C17.5698 16.5799 17.5251 16.6672 17.4802 16.7544C17.4562 16.8011 17.4322 16.8479 17.4075 16.896C17.3834 16.9429 17.3593 16.9898 17.3345 17.0381C17.2405 17.2313 17.2097 17.3793 17.2091 17.591C17.2088 17.6451 17.2085 17.6991 17.2082 17.7547C17.2082 17.8142 17.2082 17.8738 17.2081 17.9351C17.2079 17.9982 17.2077 18.0613 17.2074 18.1263C17.2068 18.3017 17.2064 18.4772 17.2062 18.6526C17.2058 18.8417 17.2052 19.0309 17.2046 19.22C17.2032 19.677 17.2024 20.134 17.2017 20.5909C17.2015 20.7201 17.2013 20.8492 17.2011 20.9783C17.1997 21.7804 17.1984 22.5825 17.1977 23.3847C17.1976 23.5705 17.1974 23.7563 17.1973 23.9421C17.1972 23.9883 17.1972 24.0345 17.1971 24.0821C17.1964 24.8296 17.1946 25.5771 17.1923 26.3245C17.1899 27.0923 17.1886 27.8601 17.1883 28.6279C17.1881 29.0588 17.1875 29.4897 17.1856 29.9207C17.1841 30.2878 17.1835 30.655 17.1841 31.0222C17.1844 31.2093 17.1842 31.3965 17.1829 31.5836C17.1816 31.7871 17.1821 31.9905 17.1829 32.1939C17.1822 32.2523 17.1814 32.3108 17.1806 32.3709C17.1852 32.8013 17.2699 33.2901 17.5868 33.6114C17.6112 33.6346 17.6357 33.6578 17.6609 33.6817C17.6609 33.7178 17.6609 33.7539 17.6609 33.7911C17.7071 33.8138 17.7071 33.8138 17.7543 33.837C17.8431 33.8808 17.9317 33.9248 18.0202 33.969C18.0914 34.0044 18.0914 34.0044 18.164 34.0406C18.2116 34.0643 18.2592 34.0881 18.3082 34.1126C18.5475 34.2255 18.7309 34.2356 18.9945 34.2361C19.0346 34.2362 19.0747 34.2363 19.116 34.2365C19.2515 34.2369 19.3869 34.2369 19.5224 34.237C19.6201 34.2372 19.7178 34.2374 19.8154 34.2377C20.0847 34.2384 20.354 34.2387 20.6233 34.2389C20.9134 34.2392 21.2035 34.2399 21.4936 34.2405C22.1947 34.2418 22.8958 34.2426 23.5969 34.2433C23.7949 34.2435 23.9929 34.2437 24.1909 34.244C25.4202 34.2453 26.6495 34.2465 27.8788 34.2472C28.1636 34.2474 28.4485 34.2475 28.7333 34.2477C28.8041 34.2478 28.8749 34.2478 28.9478 34.2478C30.0945 34.2485 31.2411 34.2503 32.3877 34.2526C33.5647 34.2549 34.7417 34.2562 35.9187 34.2565C36.5796 34.2567 37.2406 34.2573 37.9015 34.2591C38.4644 34.2607 39.0274 34.2613 39.5903 34.2607C39.8775 34.2604 40.1646 34.2605 40.4518 34.2619C40.7149 34.2631 40.978 34.2631 41.2412 34.262C41.3361 34.2619 41.4311 34.2622 41.526 34.263C42.0712 34.2675 42.551 34.2379 43.0339 33.9551C43.0898 33.9009 43.1455 33.8463 43.2004 33.7911C43.2371 33.7911 43.2737 33.7911 43.3115 33.7911C43.3346 33.7455 43.3346 33.7455 43.3581 33.699C43.4026 33.6116 43.4473 33.5243 43.4921 33.4371C43.5161 33.3904 43.5401 33.3436 43.5648 33.2955C43.5889 33.2486 43.613 33.2017 43.6379 33.1534C43.7319 32.9602 43.7627 32.8122 43.7633 32.6005C43.7635 32.5464 43.7638 32.4924 43.7641 32.4368C43.7641 32.3773 43.7642 32.3177 43.7642 32.2564C43.7644 32.1933 43.7647 32.1302 43.7649 32.0652C43.7655 31.8898 43.7659 31.7143 43.7662 31.5389C43.7665 31.3498 43.7671 31.1606 43.7677 30.9715C43.7691 30.5145 43.7699 30.0575 43.7706 29.6006C43.7708 29.4714 43.7711 29.3423 43.7713 29.2132C43.7727 28.4111 43.7739 27.609 43.7746 26.8068C43.7748 26.621 43.7749 26.4352 43.7751 26.2494C43.7751 26.1801 43.7751 26.1801 43.7752 26.1094C43.7759 25.3619 43.7778 24.6145 43.7801 23.867C43.7824 23.0992 43.7837 22.3314 43.784 21.5636C43.7842 21.1327 43.7849 20.7018 43.7867 20.2708C43.7883 19.9037 43.7889 19.5365 43.7882 19.1693C43.788 18.9822 43.7881 18.795 43.7895 18.6079C43.7908 18.4044 43.7903 18.201 43.7894 17.9976C43.7902 17.9392 43.7909 17.8807 43.7917 17.8206C43.7872 17.3902 43.7025 16.9014 43.3856 16.5801C43.3611 16.5569 43.3367 16.5337 43.3115 16.5098C43.3115 16.4737 43.3115 16.4376 43.3115 16.4004C43.2806 16.3853 43.2498 16.3701 43.218 16.3545C43.1293 16.3107 43.0406 16.2667 42.9521 16.2225C42.9047 16.1989 42.8572 16.1753 42.8083 16.1509C42.7369 16.1153 42.7369 16.1153 42.6641 16.0789C42.4483 15.9771 42.2857 15.956 42.0488 15.9557C41.9819 15.9554 41.915 15.9552 41.8461 15.955C41.7715 15.955 41.6969 15.955 41.6223 15.955C41.5433 15.9548 41.4644 15.9547 41.3854 15.9544C41.1679 15.9539 40.9505 15.9537 40.733 15.9536C40.4986 15.9534 40.2643 15.9528 40.0299 15.9523C39.6237 15.9515 39.2174 15.9509 38.8111 15.9504C38.2234 15.9496 37.6357 15.9485 37.0481 15.9472C36.0942 15.9451 35.1404 15.9432 34.1865 15.9415C34.1009 15.9413 34.1009 15.9413 34.0135 15.9411C33.2028 15.9397 32.3921 15.9384 31.5815 15.9371C31.5244 15.937 31.4673 15.937 31.4085 15.9369C31.323 15.9367 31.323 15.9367 31.2357 15.9366C30.2857 15.9351 29.3356 15.9333 28.3855 15.931C27.7992 15.9297 27.2129 15.9287 26.6266 15.9281C26.2249 15.9277 25.8232 15.9269 25.4216 15.9258C25.1897 15.9252 24.9578 15.9248 24.7259 15.9248C24.5137 15.9248 24.3015 15.9243 24.0893 15.9235C24.0125 15.9232 23.9356 15.9232 23.8587 15.9233C23.7544 15.9235 23.6501 15.923 23.5458 15.9224C23.4878 15.9223 23.4298 15.9222 23.37 15.9221C23.2041 15.9075 23.0843 15.8712 22.9353 15.7989C22.815 15.6534 22.8246 15.5753 22.8347 15.3853C22.893 15.1423 22.893 15.1423 23.0464 15.0333C23.1913 15.0126 23.1913 15.0126 23.3694 15.0125C23.4372 15.012 23.505 15.0115 23.5748 15.0111C23.6505 15.0114 23.7261 15.0117 23.8018 15.012C23.8818 15.0118 23.9619 15.0115 24.0419 15.0112C24.2624 15.0104 24.483 15.0106 24.7035 15.011C24.9412 15.0113 25.1788 15.0106 25.4165 15.01C25.8824 15.0091 26.3483 15.009 26.8142 15.0093C27.193 15.0095 27.5719 15.0095 27.9507 15.0092C28.0046 15.0091 28.0585 15.0091 28.114 15.009C28.2234 15.009 28.3328 15.0089 28.4423 15.0088C29.4696 15.008 30.4969 15.0083 31.5242 15.009C32.4635 15.0095 33.4028 15.0088 34.3421 15.0075C35.3065 15.0062 36.271 15.0056 37.2354 15.006C37.7769 15.0062 38.3183 15.0061 38.8598 15.0051C39.321 15.0043 39.7823 15.0043 40.2435 15.0052C40.4787 15.0057 40.7139 15.0058 40.9491 15.005C41.1648 15.0042 41.3805 15.0045 41.5962 15.0055C41.6738 15.0057 41.7515 15.0056 41.8292 15.005C42.5522 15 43.1223 15.1464 43.7001 15.5801C43.7574 15.6207 43.8146 15.6613 43.8736 15.7032C44.3035 16.1082 44.6731 16.6939 44.7067 17.2942C44.7068 17.3658 44.7068 17.3658 44.707 17.4388C44.7072 17.4941 44.7075 17.5494 44.7077 17.6063C44.7077 17.6973 44.7077 17.6973 44.7077 17.79C44.7079 17.8545 44.7081 17.919 44.7083 17.9854C44.7088 18.1645 44.7091 18.3436 44.7092 18.5226C44.7094 18.7157 44.71 18.9089 44.7104 19.102C44.7115 19.5684 44.7121 20.0349 44.7126 20.5013C44.7128 20.7211 44.7131 20.9409 44.7134 21.1607C44.7144 21.8916 44.7152 22.6225 44.7156 23.3534C44.7157 23.5431 44.7158 23.7327 44.7159 23.9224C44.7159 23.9695 44.7159 24.0166 44.716 24.0652C44.7164 24.8283 44.7178 25.5913 44.7196 26.3543C44.7215 27.1382 44.7225 27.922 44.7227 28.7059C44.7228 29.1458 44.7233 29.5857 44.7247 30.0256C44.7259 30.4004 44.7263 30.7752 44.7258 31.1499C44.7255 31.341 44.7256 31.532 44.7267 31.723C44.7277 31.9307 44.7273 32.1383 44.7266 32.3459C44.7275 32.4354 44.7275 32.4354 44.7284 32.5267C44.7231 33.1572 44.5307 33.6744 44.1443 34.1739C44.0825 34.2585 44.0825 34.2585 44.0194 34.3448C43.5478 34.8304 42.9122 35.1595 42.2247 35.1911C42.0948 35.1919 41.9649 35.1912 41.835 35.1893C41.7634 35.1893 41.6918 35.1894 41.6181 35.1894C41.4243 35.1895 41.2305 35.1879 41.0366 35.186C40.8332 35.1843 40.6297 35.1841 40.4262 35.1838C40.042 35.1829 39.6578 35.1807 39.2736 35.1779C38.8358 35.1749 38.3979 35.1734 37.96 35.172C37.0603 35.1692 36.1607 35.1644 35.261 35.1583C35.2707 35.1887 35.2804 35.2192 35.2905 35.2506C35.3916 35.5672 35.4924 35.8839 35.5931 36.2007C35.6307 36.3189 35.6684 36.4372 35.7062 36.5554C35.7604 36.7251 35.8143 36.895 35.8682 37.0648C35.8852 37.1178 35.9022 37.1708 35.9197 37.2254C35.9353 37.2746 35.9509 37.3239 35.9669 37.3747C35.9876 37.4397 35.9876 37.4397 36.0087 37.506C36.0383 37.6192 36.0383 37.6192 36.0383 37.7833C36.0875 37.7824 36.1367 37.7815 36.1874 37.7806C36.3727 37.7778 36.5579 37.7758 36.7431 37.7742C36.8228 37.7734 36.9025 37.7723 36.9822 37.7709C38.1478 37.7505 38.1478 37.7505 38.5853 38.1456C38.9226 38.4696 39.0456 38.7665 39.0676 39.2291C39.0506 39.6933 38.8904 40.0295 38.5506 40.3501C38.1717 40.6804 37.6847 40.7058 37.2025 40.7029C37.1127 40.7033 37.1127 40.7033 37.0211 40.7038C36.8215 40.7046 36.622 40.7042 36.4224 40.7038C36.2789 40.7041 36.1354 40.7045 35.9919 40.7049C35.6432 40.7059 35.2945 40.7059 34.9457 40.7056C34.6621 40.7054 34.3785 40.7055 34.0949 40.7058C34.0545 40.7058 34.0141 40.7059 33.9724 40.7059C33.8902 40.706 33.8081 40.7061 33.7259 40.7062C32.9563 40.7069 32.1866 40.7066 31.4169 40.706C30.7137 40.7054 30.0104 40.7061 29.3072 40.7074C28.5841 40.7088 27.861 40.7093 27.1379 40.7089C26.7323 40.7088 26.3268 40.7089 25.9212 40.7098C25.5398 40.7107 25.1584 40.7105 24.7769 40.7094C24.6372 40.7092 24.4974 40.7094 24.3576 40.71C24.1664 40.7107 23.9752 40.7101 23.784 40.7091C23.729 40.7096 23.6741 40.7101 23.6176 40.7107C23.1438 40.7058 22.6887 40.6071 22.3281 40.2886C21.9952 39.9158 21.8933 39.547 21.9115 39.0528C21.9721 38.6181 22.1913 38.3166 22.5161 38.0278C23.0166 37.7432 23.5492 37.7629 24.1082 37.773C24.1886 37.7738 24.269 37.7746 24.3494 37.7752C24.5443 37.777 24.7392 37.7799 24.9341 37.7833C24.9492 37.7127 24.9643 37.6421 24.9798 37.5693C25.0406 37.3005 25.1183 37.0392 25.2017 36.7764C25.2163 36.7298 25.231 36.6832 25.2461 36.6351C25.2922 36.488 25.3387 36.3409 25.3852 36.1939C25.4168 36.0934 25.4484 35.9929 25.48 35.8924C25.5569 35.6476 25.6341 35.4029 25.7114 35.1583C25.6743 35.1585 25.6372 35.1588 25.5989 35.159C24.6933 35.1651 23.7877 35.1696 22.8821 35.1724C22.4442 35.1738 22.0062 35.1757 21.5683 35.1789C21.1862 35.1816 20.8042 35.1834 20.4222 35.184C20.2202 35.1843 20.0182 35.1852 19.8162 35.1872C19.5899 35.1894 19.3636 35.1894 19.1373 35.1893C19.0714 35.1903 19.0055 35.1913 18.9375 35.1923C18.2083 35.1879 17.593 34.922 17.0501 34.4473C16.4725 33.8503 16.2557 33.1882 16.258 32.3817C16.2577 32.3171 16.2575 32.2525 16.2572 32.1859C16.2566 32.0072 16.2566 31.8285 16.2567 31.6498C16.2567 31.4568 16.2561 31.2638 16.2556 31.0708C16.2547 30.6929 16.2543 30.3151 16.2543 29.9372C16.2542 29.6299 16.254 29.3225 16.2537 29.0152C16.2527 28.1432 16.2522 27.2712 16.2522 26.3991C16.2523 26.3521 16.2523 26.3052 16.2523 26.2568C16.2523 26.2097 16.2523 26.1627 16.2523 26.1142C16.2523 25.3522 16.2513 24.5903 16.2497 23.8283C16.2481 23.0452 16.2473 22.2621 16.2474 21.4789C16.2475 21.0396 16.2472 20.6002 16.246 20.1608C16.2449 19.7867 16.2447 19.4125 16.2455 19.0384C16.2458 18.8477 16.2458 18.657 16.2449 18.4663C16.244 18.259 16.2445 18.0518 16.2454 17.8445C16.2448 17.785 16.2442 17.7254 16.2437 17.6641C16.2494 17.0339 16.4419 16.5168 16.828 16.0176C16.8693 15.9612 16.9105 15.9048 16.953 15.8467C17.4342 15.3512 18.0711 15.031 18.7707 15.0227ZM26.6552 35.1583C26.1319 36.451 26.1319 36.451 25.8779 37.7833C28.9194 37.7833 31.9608 37.7833 35.0944 37.7833C34.87 36.899 34.5875 36.0299 34.3171 35.1583C31.7887 35.1583 29.2603 35.1583 26.6552 35.1583ZM22.9909 38.8223C22.8638 38.9983 22.8243 39.1022 22.8243 39.3179C22.8948 39.522 22.9886 39.6167 23.1574 39.752C23.3161 39.804 23.4613 39.8136 23.6277 39.8139C23.6774 39.8141 23.7271 39.8143 23.7784 39.8145C23.8328 39.8145 23.8871 39.8144 23.9432 39.8144C24.0011 39.8145 24.0591 39.8147 24.1188 39.8149C24.3136 39.8153 24.5085 39.8154 24.7033 39.8155C24.8427 39.8158 24.9822 39.816 25.1216 39.8163C25.5008 39.817 25.8801 39.8174 26.2593 39.8176C26.4961 39.8178 26.733 39.818 26.9698 39.8183C27.6256 39.8189 28.2814 39.8195 28.9372 39.8197C29.0001 39.8197 29.0001 39.8197 29.0643 39.8197C29.1064 39.8197 29.1485 39.8197 29.1918 39.8198C29.277 39.8198 29.3623 39.8198 29.4475 39.8198C29.4898 39.8198 29.5321 39.8199 29.5756 39.8199C30.2607 39.8201 30.9458 39.821 31.6309 39.8223C32.3344 39.8236 33.0379 39.8243 33.7414 39.8244C34.1364 39.8244 34.5313 39.8247 34.9263 39.8257C35.2977 39.8266 35.6692 39.8267 36.0406 39.8262C36.177 39.8262 36.3134 39.8264 36.4497 39.827C36.6358 39.8277 36.8219 39.8274 37.008 39.8268C37.062 39.8272 37.116 39.8277 37.1717 39.8281C37.4843 39.8259 37.7054 39.7909 37.9815 39.6426C38.1297 39.4784 38.148 39.3982 38.148 39.1778C38.0819 38.9499 38.0023 38.8589 37.8149 38.7129C37.6562 38.6612 37.5111 38.6513 37.3446 38.6511C37.2949 38.6509 37.2452 38.6506 37.194 38.6504C37.1396 38.6505 37.0852 38.6505 37.0292 38.6506C36.9712 38.6504 36.9132 38.6502 36.8535 38.6501C36.6587 38.6496 36.4639 38.6495 36.2691 38.6494C36.1296 38.6492 35.9902 38.6489 35.8508 38.6486C35.4715 38.6479 35.0923 38.6475 34.713 38.6473C34.4762 38.6472 34.2394 38.6469 34.0026 38.6467C33.3468 38.646 32.691 38.6454 32.0352 38.6453C31.9932 38.6452 31.9512 38.6452 31.908 38.6452C31.8659 38.6452 31.8239 38.6452 31.7805 38.6452C31.6953 38.6452 31.6101 38.6451 31.5248 38.6451C31.4826 38.6451 31.4403 38.6451 31.3967 38.6451C30.7116 38.6449 30.0265 38.6439 29.3414 38.6426C28.6379 38.6413 27.9344 38.6407 27.2309 38.6406C26.8359 38.6405 26.441 38.6402 26.0461 38.6392C25.6746 38.6383 25.3032 38.6382 24.9317 38.6387C24.7953 38.6387 24.659 38.6385 24.5226 38.638C24.3365 38.6373 24.1504 38.6376 23.9643 38.6382C23.9103 38.6377 23.8563 38.6373 23.8006 38.6368C23.4885 38.6391 23.2654 38.6716 22.9909 38.8223Z" fill="white"/>
<path d="M19.2198 17.2074C19.2593 17.2072 19.2989 17.2071 19.3396 17.2069C19.4729 17.2065 19.6061 17.2069 19.7394 17.2072C19.8356 17.2071 19.9318 17.2069 20.028 17.2067C20.293 17.2063 20.5579 17.2065 20.8228 17.2068C21.1084 17.2071 21.3939 17.2067 21.6794 17.2064C22.2389 17.2059 22.7985 17.206 23.358 17.2063C23.8126 17.2066 24.2673 17.2066 24.7219 17.2065C24.7865 17.2065 24.8511 17.2065 24.9177 17.2065C25.049 17.2064 25.1802 17.2064 25.3115 17.2063C26.5434 17.206 27.7752 17.2064 29.0071 17.207C30.0648 17.2075 31.1225 17.2074 32.1802 17.2069C33.4076 17.2063 34.6349 17.2061 35.8623 17.2064C35.9931 17.2064 36.1238 17.2065 36.2546 17.2065C36.3512 17.2065 36.3512 17.2065 36.4497 17.2066C36.9039 17.2066 37.3582 17.2065 37.8124 17.2062C38.3657 17.2059 38.9191 17.206 39.4724 17.2066C39.7549 17.2069 40.0374 17.207 40.3199 17.2066C40.5782 17.2063 40.8366 17.2065 41.0949 17.2071C41.1886 17.2072 41.2823 17.2071 41.376 17.2069C41.5029 17.2065 41.6298 17.2069 41.7568 17.2074C41.8627 17.2074 41.8627 17.2074 41.9708 17.2074C42.1385 17.2204 42.2311 17.2399 42.3697 17.3305C42.5183 17.5241 42.4964 17.7484 42.4952 17.9807C42.4954 18.0244 42.4957 18.0682 42.4959 18.1133C42.4964 18.2601 42.4962 18.4069 42.496 18.5537C42.4962 18.6589 42.4965 18.7641 42.4969 18.8693C42.4976 19.1551 42.4976 19.441 42.4975 19.7269C42.4974 19.9654 42.4977 20.2039 42.498 20.4424C42.4986 21.005 42.4986 21.5677 42.4983 22.1303C42.4979 22.711 42.4986 23.2917 42.4998 23.8724C42.5008 24.3708 42.5011 24.8691 42.5009 25.3675C42.5008 25.6652 42.501 25.963 42.5018 26.2607C42.5025 26.5407 42.5024 26.8206 42.5016 27.1006C42.5015 27.2034 42.5016 27.3062 42.5021 27.409C42.5027 27.5492 42.5022 27.6894 42.5015 27.8297C42.5019 27.8704 42.5024 27.9112 42.5028 27.9532C42.5002 28.1948 42.4656 28.3494 42.3142 28.5414C42.1558 28.6195 42.0458 28.6131 41.87 28.5961C41.7784 28.5239 41.6868 28.4518 41.5924 28.3774C41.5924 24.9846 41.5924 21.5918 41.5924 18.0961C34.2637 18.0961 26.9349 18.0961 19.3841 18.0961C19.3841 22.283 19.3841 26.4699 19.3841 30.7836C26.7128 30.7836 34.0416 30.7836 41.5924 30.7836C41.5924 30.4047 41.5924 30.0257 41.5924 29.6352C41.8586 29.373 41.8586 29.373 42.0921 29.3618C42.2492 29.4013 42.3394 29.4274 42.4321 29.5611C42.5336 29.8297 42.5014 30.1318 42.5013 30.4157C42.5016 30.5336 42.5036 30.6513 42.5057 30.7692C42.506 30.8446 42.5062 30.92 42.5063 30.9953C42.5068 31.0635 42.5073 31.1317 42.5077 31.202C42.4759 31.4179 42.4155 31.5072 42.2587 31.6586C42.0651 31.7222 41.9143 31.7203 41.7099 31.7205C41.651 31.7207 41.651 31.7207 41.5909 31.7209C41.4582 31.7212 41.3256 31.7211 41.1929 31.721C41.0972 31.7211 41.0015 31.7213 40.9059 31.7215C40.6422 31.7219 40.3785 31.722 40.1148 31.7221C39.8307 31.7222 39.5466 31.7226 39.2626 31.723C38.6411 31.7237 38.0196 31.724 37.3981 31.7243C37.0102 31.7244 36.6224 31.7247 36.2346 31.7249C35.1614 31.7256 34.0882 31.7261 33.0151 31.7263C32.9464 31.7263 32.8777 31.7263 32.8069 31.7264C32.7035 31.7264 32.7035 31.7264 32.5981 31.7264C32.4586 31.7264 32.319 31.7264 32.1794 31.7265C32.1102 31.7265 32.0409 31.7265 31.9696 31.7265C30.8471 31.7267 29.7246 31.7277 28.6021 31.7289C27.4506 31.7302 26.299 31.7309 25.1474 31.731C24.5005 31.731 23.8536 31.7314 23.2066 31.7323C22.6559 31.7332 22.1051 31.7335 21.5544 31.733C21.2733 31.7328 20.9921 31.7329 20.711 31.7336C20.4538 31.7343 20.1966 31.7343 19.9394 31.7336C19.8462 31.7335 19.7529 31.7337 19.6597 31.7341C19.5333 31.7347 19.4069 31.7343 19.2805 31.7337C19.2102 31.7337 19.1399 31.7337 19.0675 31.7338C18.8679 31.7115 18.7654 31.6686 18.6068 31.5493C18.4915 31.3789 18.4819 31.3426 18.4818 31.1495C18.4815 31.1012 18.4812 31.0528 18.4809 31.0029C18.4812 30.9497 18.4814 30.8965 18.4817 30.8417C18.4815 30.7852 18.4813 30.7287 18.4811 30.6705C18.4807 30.4803 18.481 30.2901 18.4814 30.0999C18.4812 29.964 18.481 29.828 18.4808 29.692C18.4803 29.3604 18.4804 29.0289 18.4807 28.6973C18.481 28.4279 18.481 28.1584 18.4809 27.889C18.4809 27.8507 18.4809 27.8123 18.4808 27.7729C18.4808 27.695 18.4808 27.6172 18.4807 27.5394C18.4804 26.8091 18.4808 26.0788 18.4814 25.3486C18.4819 24.7217 18.4818 24.0949 18.4813 23.4681C18.4807 22.7406 18.4805 22.013 18.4808 21.2855C18.4808 21.2079 18.4809 21.1304 18.4809 21.0528C18.4809 21.0146 18.4809 20.9765 18.481 20.9372C18.481 20.668 18.4809 20.3989 18.4806 20.1297C18.4803 19.7675 18.4805 19.4054 18.4812 19.0432C18.4813 18.91 18.4813 18.7768 18.481 18.6437C18.4807 18.4624 18.4811 18.2811 18.4817 18.0997C18.4814 18.0466 18.4812 17.9936 18.4809 17.9389C18.4812 17.8903 18.4815 17.8418 18.4818 17.7918C18.4818 17.7499 18.4818 17.7081 18.4818 17.665C18.4983 17.5283 18.5291 17.4451 18.6068 17.3305C18.7976 17.1928 18.9895 17.2074 19.2198 17.2074Z" fill="white"/>
<path d="M30.4831 32.4443C30.7093 32.4908 30.7909 32.5702 30.9273 32.752C30.967 32.9608 30.9434 33.0508 30.8405 33.2373C30.7052 33.3535 30.7052 33.3535 30.5144 33.3877C30.266 33.3448 30.1851 33.2807 30.039 33.0801C30.0043 32.916 30.0043 32.916 30.039 32.752C30.1753 32.5702 30.2569 32.4908 30.4831 32.4443Z" fill="white"/>
</svg>
