<svg width="62" height="21" viewBox="0 0 62 21" fill="none" xmlns="http://www.w3.org/2000/svg">
<mask id="path-1-outside-1_89_713" maskUnits="userSpaceOnUse" x="-0.696045" y="-0.83197" width="62" height="22" fill="black">
<rect fill="white" x="-0.696045" y="-0.83197" width="62" height="22"/>
<path d="M4.45596 19.168V4.07203H0.999955V1.28803H7.71996V19.168H4.45596ZM19.1996 19.456C17.7756 19.456 16.5276 19.072 15.4556 18.304C14.3836 17.536 13.5436 16.456 12.9356 15.064C12.3436 13.672 12.0476 12.056 12.0476 10.216C12.0476 8.36003 12.3436 6.74403 12.9356 5.36803C13.5276 3.99203 14.3596 2.92003 15.4316 2.15203C16.5036 1.38403 17.7516 1.00003 19.1756 1.00003C20.6316 1.00003 21.8876 1.38403 22.9436 2.15203C24.0156 2.92003 24.8556 4.00003 25.4636 5.39203C26.0716 6.76803 26.3756 8.37603 26.3756 10.216C26.3756 12.056 26.0716 13.672 25.4636 15.064C24.8716 16.44 24.0396 17.52 22.9676 18.304C21.8956 19.072 20.6396 19.456 19.1996 19.456ZM19.2236 16.48C20.0396 16.48 20.7356 16.232 21.3116 15.736C21.8876 15.224 22.3276 14.504 22.6316 13.576C22.9516 12.632 23.1116 11.512 23.1116 10.216C23.1116 8.92003 22.9516 7.80803 22.6316 6.88003C22.3276 5.93603 21.8796 5.21603 21.2876 4.72003C20.7116 4.22403 20.0076 3.97603 19.1756 3.97603C18.3756 3.97603 17.6876 4.22403 17.1116 4.72003C16.5356 5.21603 16.0876 5.93603 15.7676 6.88003C15.4636 7.80803 15.3116 8.92003 15.3116 10.216C15.3116 11.496 15.4636 12.608 15.7676 13.552C16.0876 14.48 16.5356 15.2 17.1116 15.712C17.7036 16.224 18.4076 16.48 19.2236 16.48ZM36.9118 19.456C35.4878 19.456 34.2398 19.072 33.1678 18.304C32.0958 17.536 31.2558 16.456 30.6478 15.064C30.0558 13.672 29.7598 12.056 29.7598 10.216C29.7598 8.36003 30.0558 6.74403 30.6478 5.36803C31.2398 3.99203 32.0718 2.92003 33.1438 2.15203C34.2158 1.38403 35.4638 1.00003 36.8878 1.00003C38.3438 1.00003 39.5998 1.38403 40.6558 2.15203C41.7278 2.92003 42.5678 4.00003 43.1758 5.39203C43.7838 6.76803 44.0878 8.37603 44.0878 10.216C44.0878 12.056 43.7838 13.672 43.1758 15.064C42.5838 16.44 41.7518 17.52 40.6798 18.304C39.6078 19.072 38.3518 19.456 36.9118 19.456ZM36.9358 16.48C37.7518 16.48 38.4478 16.232 39.0238 15.736C39.5998 15.224 40.0398 14.504 40.3438 13.576C40.6638 12.632 40.8238 11.512 40.8238 10.216C40.8238 8.92003 40.6638 7.80803 40.3438 6.88003C40.0398 5.93603 39.5918 5.21603 38.9998 4.72003C38.4238 4.22403 37.7198 3.97603 36.8878 3.97603C36.0878 3.97603 35.3998 4.22403 34.8238 4.72003C34.2478 5.21603 33.7998 5.93603 33.4798 6.88003C33.1758 7.80803 33.0238 8.92003 33.0238 10.216C33.0238 11.496 33.1758 12.608 33.4798 13.552C33.7998 14.48 34.2478 15.2 34.8238 15.712C35.4158 16.224 36.1198 16.48 36.9358 16.48ZM52.704 19.168V14.512H48.048V11.8H52.704V7.16803H55.416V11.8H60.048V14.512H55.416V19.168H52.704Z"/>
</mask>
<path d="M4.45596 19.168H3.45596V20.168H4.45596V19.168ZM4.45596 4.07203H5.45596V3.07203H4.45596V4.07203ZM0.999955 4.07203H-4.48823e-05V5.07203H0.999955V4.07203ZM0.999955 1.28803V0.288029H-4.48823e-05V1.28803H0.999955ZM7.71996 1.28803H8.71996V0.288029H7.71996V1.28803ZM7.71996 19.168V20.168H8.71996V19.168H7.71996ZM4.45596 19.168H5.45596V4.07203H4.45596H3.45596V19.168H4.45596ZM4.45596 4.07203V3.07203H0.999955V4.07203V5.07203H4.45596V4.07203ZM0.999955 4.07203H1.99996V1.28803H0.999955H-4.48823e-05V4.07203H0.999955ZM0.999955 1.28803V2.28803H7.71996V1.28803V0.288029H0.999955V1.28803ZM7.71996 1.28803H6.71996V19.168H7.71996H8.71996V1.28803H7.71996ZM7.71996 19.168V18.168H4.45596V19.168V20.168H7.71996V19.168ZM15.4556 18.304L14.8733 19.1169L15.4556 18.304ZM12.9356 15.064L12.0154 15.4554L12.0192 15.4643L12.9356 15.064ZM12.9356 5.36803L12.0171 4.97282H12.0171L12.9356 5.36803ZM15.4316 2.15203L14.8493 1.33912V1.33912L15.4316 2.15203ZM22.9436 2.15203L22.3555 2.96079L22.3613 2.96494L22.9436 2.15203ZM25.4636 5.39203L24.5472 5.7923L24.549 5.79619L25.4636 5.39203ZM25.4636 15.064L24.5472 14.6638L24.5451 14.6688L25.4636 15.064ZM22.9676 18.304L23.5501 19.117L23.558 19.1112L22.9676 18.304ZM21.3116 15.736L21.9642 16.4938L21.9701 16.4887L21.976 16.4834L21.3116 15.736ZM22.6316 13.576L21.6845 13.255L21.6813 13.2647L22.6316 13.576ZM22.6316 6.88003L21.6798 7.18656L21.6829 7.19632L21.6863 7.20602L22.6316 6.88003ZM21.2876 4.72003L20.6351 5.47787L20.6454 5.48655L21.2876 4.72003ZM17.1116 4.72003L16.4591 3.96226V3.96226L17.1116 4.72003ZM15.7676 6.88003L14.8205 6.55897L14.8173 6.56872L15.7676 6.88003ZM15.7676 13.552L14.8158 13.8586L14.8189 13.8683L14.8223 13.878L15.7676 13.552ZM17.1116 15.712L16.4472 16.4595L16.4575 16.4684L17.1116 15.712ZM19.1996 19.456V18.456C17.9669 18.456 16.9264 18.1276 16.038 17.4911L15.4556 18.304L14.8733 19.1169C16.1288 20.0165 17.5843 20.456 19.1996 20.456V19.456ZM15.4556 18.304L16.038 17.4911C15.1336 16.8432 14.399 15.9161 13.852 14.6638L12.9356 15.064L12.0192 15.4643C12.6882 16.9959 13.6337 18.2289 14.8733 19.1169L15.4556 18.304ZM12.9356 15.064L13.8559 14.6727C13.3266 13.4281 13.0476 11.9499 13.0476 10.216H12.0476H11.0476C11.0476 12.1621 11.3607 13.9159 12.0154 15.4554L12.9356 15.064ZM12.0476 10.216H13.0476C13.0476 8.4644 13.3271 6.98838 13.8542 5.76324L12.9356 5.36803L12.0171 4.97282C11.3601 6.49968 11.0476 8.25566 11.0476 10.216H12.0476ZM12.9356 5.36803L13.8542 5.76324C14.3843 4.53126 15.1093 3.61309 16.014 2.96494L15.4316 2.15203L14.8493 1.33912C13.61 2.22697 12.671 3.4528 12.0171 4.97282L12.9356 5.36803ZM15.4316 2.15203L16.014 2.96494C16.9024 2.32847 17.9429 2.00003 19.1756 2.00003V1.00003V2.90871e-05C17.5603 2.90871e-05 16.1048 0.43959 14.8493 1.33912L15.4316 2.15203ZM19.1756 1.00003V2.00003C20.4458 2.00003 21.4899 2.33126 22.3555 2.96076L22.9436 2.15203L23.5318 1.34329C22.2854 0.436796 20.8175 2.90871e-05 19.1756 2.90871e-05V1.00003ZM22.9436 2.15203L22.3613 2.96494C23.2657 3.6129 24.0002 4.53994 24.5472 5.7923L25.4636 5.39203L26.38 4.99176C25.7111 3.46012 24.7656 2.22715 23.526 1.33912L22.9436 2.15203ZM25.4636 5.39203L24.549 5.79619C25.0896 7.0198 25.3756 8.48491 25.3756 10.216H26.3756H27.3756C27.3756 8.26715 27.0537 6.51626 26.3783 4.98787L25.4636 5.39203ZM26.3756 10.216H25.3756C25.3756 11.9468 25.0897 13.4217 24.5472 14.6638L25.4636 15.064L26.38 15.4643C27.0535 13.9223 27.3756 12.1653 27.3756 10.216H26.3756ZM25.4636 15.064L24.5451 14.6688C24.0145 15.9021 23.2873 16.8314 22.3773 17.4969L22.9676 18.304L23.558 19.1112C24.792 18.2087 25.7288 16.978 26.3822 15.4592L25.4636 15.064ZM22.9676 18.304L22.3853 17.4911C21.4988 18.1262 20.451 18.456 19.1996 18.456V19.456V20.456C20.8283 20.456 22.2925 20.0179 23.55 19.1169L22.9676 18.304ZM19.2236 16.48V17.48C20.2601 17.48 21.1928 17.1581 21.9642 16.4938L21.3116 15.736L20.6591 14.9783C20.2785 15.306 19.8192 15.48 19.2236 15.48V16.48ZM21.3116 15.736L21.976 16.4834C22.7151 15.8265 23.2374 14.9392 23.582 13.8873L22.6316 13.576L21.6813 13.2647C21.4179 14.0688 21.0602 14.6216 20.6473 14.9886L21.3116 15.736ZM22.6316 13.576L23.5787 13.8971C23.9425 12.8239 24.1116 11.5902 24.1116 10.216H23.1116H22.1116C22.1116 11.4338 21.9608 12.4401 21.6846 13.255L22.6316 13.576ZM23.1116 10.216H24.1116C24.1116 8.84251 23.9427 7.61443 23.577 6.55404L22.6316 6.88003L21.6863 7.20602C21.9606 8.00163 22.1116 8.99755 22.1116 10.216H23.1116ZM22.6316 6.88003L23.5835 6.5735C23.2379 5.50037 22.7022 4.60056 21.9299 3.95351L21.2876 4.72003L20.6454 5.48655C21.0571 5.83149 21.4174 6.37169 21.6798 7.18656L22.6316 6.88003ZM21.2876 4.72003L21.9402 3.96226C21.165 3.29478 20.2228 2.97603 19.1756 2.97603V3.97603V4.97603C19.7925 4.97603 20.2583 5.15327 20.6351 5.4778L21.2876 4.72003ZM19.1756 3.97603V2.97603C18.1498 2.97603 17.2267 3.30129 16.4591 3.96226L17.1116 4.72003L17.7642 5.4778C18.1486 5.14677 18.6015 4.97603 19.1756 4.97603V3.97603ZM17.1116 4.72003L16.4591 3.96226C15.7118 4.60581 15.1806 5.49705 14.8206 6.55899L15.7676 6.88003L16.7147 7.20107C16.9947 6.37501 17.3595 5.82625 17.7642 5.4778L17.1116 4.72003ZM15.7676 6.88003L14.8173 6.56872C14.4716 7.62397 14.3116 8.8467 14.3116 10.216H15.3116H16.3116C16.3116 8.99335 16.4556 7.99209 16.718 7.19134L15.7676 6.88003ZM15.3116 10.216H14.3116C14.3116 11.5715 14.4722 12.7915 14.8158 13.8586L15.7676 13.552L16.7195 13.2455C16.4551 12.4245 16.3116 11.4206 16.3116 10.216H15.3116ZM15.7676 13.552L14.8223 13.878C15.1832 14.9248 15.7125 15.8063 16.4473 16.4594L17.1116 15.712L17.776 14.9646C17.3588 14.5938 16.9921 14.0353 16.713 13.226L15.7676 13.552ZM17.1116 15.712L16.4575 16.4684C17.2395 17.1447 18.1786 17.48 19.2236 17.48V16.48V15.48C18.6367 15.48 18.1678 15.3034 17.7658 14.9557L17.1116 15.712ZM33.1678 18.304L32.5854 19.1169L33.1678 18.304ZM30.6478 15.064L29.7276 15.4554L29.7314 15.4643L30.6478 15.064ZM30.6478 5.36803L29.7292 4.97282V4.97282L30.6478 5.36803ZM33.1438 2.15203L32.5614 1.33912V1.33912L33.1438 2.15203ZM40.6558 2.15203L40.0676 2.96079L40.0734 2.96494L40.6558 2.15203ZM43.1758 5.39203L42.2594 5.7923L42.2611 5.79619L43.1758 5.39203ZM43.1758 15.064L42.2594 14.6638L42.2572 14.6688L43.1758 15.064ZM40.6798 18.304L41.2622 19.117L41.2701 19.1112L40.6798 18.304ZM39.0238 15.736L39.6764 16.4938L39.6823 16.4887L39.6882 16.4834L39.0238 15.736ZM40.3438 13.576L39.3967 13.255L39.3935 13.2647L40.3438 13.576ZM40.3438 6.88003L39.392 7.18656L39.3951 7.19632L39.3985 7.20602L40.3438 6.88003ZM38.9998 4.72003L38.3472 5.47787L38.3576 5.48655L38.9998 4.72003ZM34.8238 4.72003L34.1713 3.96226V3.96226L34.8238 4.72003ZM33.4798 6.88003L32.5327 6.55897L32.5295 6.56872L33.4798 6.88003ZM33.4798 13.552L32.528 13.8586L32.5311 13.8683L32.5345 13.878L33.4798 13.552ZM34.8238 15.712L34.1594 16.4595L34.1697 16.4684L34.8238 15.712ZM36.9118 19.456V18.456C35.6791 18.456 34.6386 18.1276 33.7502 17.4911L33.1678 18.304L32.5854 19.1169C33.841 20.0165 35.2965 20.456 36.9118 20.456V19.456ZM33.1678 18.304L33.7502 17.4911C32.8458 16.8432 32.1112 15.9161 31.5642 14.6638L30.6478 15.064L29.7314 15.4643C30.4004 16.9959 31.3459 18.2289 32.5854 19.1169L33.1678 18.304ZM30.6478 15.064L31.5681 14.6727C31.0388 13.4281 30.7598 11.9499 30.7598 10.216H29.7598H28.7598C28.7598 12.1621 29.0729 13.9159 29.7276 15.4554L30.6478 15.064ZM29.7598 10.216H30.7598C30.7598 8.4644 31.0393 6.98838 31.5664 5.76324L30.6478 5.36803L29.7292 4.97282C29.0723 6.49968 28.7598 8.25566 28.7598 10.216H29.7598ZM30.6478 5.36803L31.5664 5.76324C32.0965 4.53126 32.8215 3.61309 33.7262 2.96494L33.1438 2.15203L32.5614 1.33912C31.3222 2.22697 30.3832 3.4528 29.7292 4.97282L30.6478 5.36803ZM33.1438 2.15203L33.7262 2.96494C34.6146 2.32847 35.6551 2.00003 36.8878 2.00003V1.00003V2.90871e-05C35.2725 2.90871e-05 33.817 0.43959 32.5614 1.33912L33.1438 2.15203ZM36.8878 1.00003V2.00003C38.158 2.00003 39.2021 2.33126 40.0677 2.96076L40.6558 2.15203L41.244 1.34329C39.9976 0.436796 38.5297 2.90871e-05 36.8878 2.90871e-05V1.00003ZM40.6558 2.15203L40.0734 2.96494C40.9779 3.6129 41.7124 4.53994 42.2594 5.7923L43.1758 5.39203L44.0922 4.99176C43.4232 3.46012 42.4778 2.22715 41.2382 1.33912L40.6558 2.15203ZM43.1758 5.39203L42.2611 5.79619C42.8018 7.0198 43.0878 8.48491 43.0878 10.216H44.0878H45.0878C45.0878 8.26715 44.7659 6.51626 44.0905 4.98787L43.1758 5.39203ZM44.0878 10.216H43.0878C43.0878 11.9468 42.8019 13.4217 42.2594 14.6638L43.1758 15.064L44.0922 15.4643C44.7657 13.9223 45.0878 12.1653 45.0878 10.216H44.0878ZM43.1758 15.064L42.2572 14.6688C41.7267 15.9021 40.9995 16.8314 40.0895 17.4969L40.6798 18.304L41.2701 19.1112C42.5042 18.2087 43.441 16.978 44.0944 15.4592L43.1758 15.064ZM40.6798 18.304L40.0974 17.4911C39.211 18.1262 38.1631 18.456 36.9118 18.456V19.456V20.456C38.5405 20.456 40.0047 20.0179 41.2622 19.1169L40.6798 18.304ZM36.9358 16.48V17.48C37.9723 17.48 38.9049 17.1581 39.6764 16.4938L39.0238 15.736L38.3713 14.9783C37.9907 15.306 37.5314 15.48 36.9358 15.48V16.48ZM39.0238 15.736L39.6882 16.4834C40.4273 15.8265 40.9496 14.9392 41.2941 13.8873L40.3438 13.576L39.3935 13.2647C39.1301 14.0688 38.7724 14.6216 38.3595 14.9886L39.0238 15.736ZM40.3438 13.576L41.2909 13.8971C41.6547 12.8239 41.8238 11.5902 41.8238 10.216H40.8238H39.8238C39.8238 11.4338 39.673 12.4401 39.3968 13.255L40.3438 13.576ZM40.8238 10.216H41.8238C41.8238 8.84251 41.6549 7.61443 41.2892 6.55404L40.3438 6.88003L39.3985 7.20602C39.6728 8.00163 39.8238 8.99755 39.8238 10.216H40.8238ZM40.3438 6.88003L41.2957 6.5735C40.9501 5.50037 40.4143 4.60056 39.6421 3.95351L38.9998 4.72003L38.3576 5.48655C38.7693 5.83149 39.1296 6.37169 39.392 7.18656L40.3438 6.88003ZM38.9998 4.72003L39.6524 3.96226C38.8772 3.29478 37.935 2.97603 36.8878 2.97603V3.97603V4.97603C37.5047 4.97603 37.9704 5.15327 38.3473 5.4778L38.9998 4.72003ZM36.8878 3.97603V2.97603C35.862 2.97603 34.9389 3.30129 34.1713 3.96226L34.8238 4.72003L35.4764 5.4778C35.8608 5.14677 36.3137 4.97603 36.8878 4.97603V3.97603ZM34.8238 4.72003L34.1713 3.96226C33.424 4.60581 32.8927 5.49705 32.5328 6.55899L33.4798 6.88003L34.4269 7.20107C34.7069 6.37501 35.0717 5.82625 35.4764 5.4778L34.8238 4.72003ZM33.4798 6.88003L32.5295 6.56872C32.1838 7.62397 32.0238 8.8467 32.0238 10.216H33.0238H34.0238C34.0238 8.99335 34.1678 7.99209 34.4301 7.19134L33.4798 6.88003ZM33.0238 10.216H32.0238C32.0238 11.5715 32.1844 12.7915 32.528 13.8586L33.4798 13.552L34.4317 13.2455C34.1673 12.4245 34.0238 11.4206 34.0238 10.216H33.0238ZM33.4798 13.552L32.5345 13.878C32.8954 14.9248 33.4247 15.8063 34.1595 16.4594L34.8238 15.712L35.4882 14.9646C35.071 14.5938 34.7043 14.0353 34.4252 13.226L33.4798 13.552ZM34.8238 15.712L34.1697 16.4684C34.9516 17.1447 35.8907 17.48 36.9358 17.48V16.48V15.48C36.3489 15.48 35.88 15.3034 35.478 14.9557L34.8238 15.712ZM52.704 19.168H51.704V20.168H52.704V19.168ZM52.704 14.512H53.704V13.512H52.704V14.512ZM48.048 14.512H47.048V15.512H48.048V14.512ZM48.048 11.8V10.8H47.048V11.8H48.048ZM52.704 11.8V12.8H53.704V11.8H52.704ZM52.704 7.16803V6.16803H51.704V7.16803H52.704ZM55.416 7.16803H56.416V6.16803H55.416V7.16803ZM55.416 11.8H54.416V12.8H55.416V11.8ZM60.048 11.8H61.048V10.8H60.048V11.8ZM60.048 14.512V15.512H61.048V14.512H60.048ZM55.416 14.512V13.512H54.416V14.512H55.416ZM55.416 19.168V20.168H56.416V19.168H55.416ZM52.704 19.168H53.704V14.512H52.704H51.704V19.168H52.704ZM52.704 14.512V13.512H48.048V14.512V15.512H52.704V14.512ZM48.048 14.512H49.048V11.8H48.048H47.048V14.512H48.048ZM48.048 11.8V12.8H52.704V11.8V10.8H48.048V11.8ZM52.704 11.8H53.704V7.16803H52.704H51.704V11.8H52.704ZM52.704 7.16803V8.16803H55.416V7.16803V6.16803H52.704V7.16803ZM55.416 7.16803H54.416V11.8H55.416H56.416V7.16803H55.416ZM55.416 11.8V12.8H60.048V11.8V10.8H55.416V11.8ZM60.048 11.8H59.048V14.512H60.048H61.048V11.8H60.048ZM60.048 14.512V13.512H55.416V14.512V15.512H60.048V14.512ZM55.416 14.512H54.416V19.168H55.416H56.416V14.512H55.416ZM55.416 19.168V18.168H52.704V19.168V20.168H55.416V19.168Z" fill="url(#paint0_linear_89_713)" mask="url(#path-1-outside-1_89_713)"/>
<defs>
<linearGradient id="paint0_linear_89_713" x1="34.804" y1="-7.83197" x2="34.9342" y2="30.8135" gradientUnits="userSpaceOnUse">
<stop stop-color="#FFF0F0"/>
<stop offset="1" stop-color="#FFF0F0" stop-opacity="0.16"/>
</linearGradient>
</defs>
</svg>
