<svg width="41" height="42" viewBox="0 0 41 42" fill="none" xmlns="http://www.w3.org/2000/svg">
<ellipse cx="15.2286" cy="15" rx="15.2286" ry="15" fill="#3E82DA"/>
<path d="M27.6666 12.0365C27.8542 12.0345 27.8542 12.0345 28.0456 12.0324C28.3099 12.0303 28.5742 12.029 28.8385 12.0284C29.2413 12.0267 29.6439 12.0194 30.0467 12.0119C30.304 12.0105 30.5613 12.0095 30.8185 12.0088C30.9981 12.0044 30.9981 12.0044 31.1813 12C32.0636 12.007 32.3951 12.2324 33.0334 12.8308C33.5814 12.9346 33.5814 12.9346 34.1519 12.9233C34.908 12.9309 35.3817 12.9559 35.9913 13.4224C36.5828 14.2058 36.5828 14.2058 36.5828 14.6055C36.6978 14.604 36.8127 14.6024 36.9311 14.6008C37.4497 14.5947 37.9683 14.5908 38.4869 14.587C38.6679 14.5846 38.8488 14.5821 39.0352 14.5795C39.2077 14.5786 39.3802 14.5776 39.558 14.5766C39.7175 14.5751 39.8771 14.5735 40.0415 14.5719C40.428 14.6055 40.428 14.6055 40.7238 14.9013C40.7527 15.2572 40.763 15.5961 40.7604 15.9521C40.7607 16.0616 40.7611 16.171 40.7615 16.2838C40.7623 16.6525 40.761 17.0211 40.7597 17.3898C40.7599 17.6533 40.7602 17.9169 40.7606 18.1804C40.7613 18.8975 40.7602 19.6146 40.7587 20.3317C40.7574 21.0807 40.7576 21.8297 40.7577 22.5787C40.7575 23.8365 40.7563 25.0944 40.7542 26.3522C40.7519 27.8086 40.7511 29.2649 40.7512 30.7213C40.7513 32.1198 40.7506 33.5182 40.7494 34.9167C40.7488 35.513 40.7486 36.1094 40.7485 36.7057C40.7483 37.4072 40.7474 38.1087 40.7459 38.8102C40.7455 39.0684 40.7453 39.3266 40.7454 39.5848C40.7455 39.9358 40.7447 40.2867 40.7436 40.6377C40.7438 40.7412 40.744 40.8447 40.7443 40.9514C40.7407 41.6528 40.7407 41.6528 40.5759 41.8176C40.2843 41.8322 39.9921 41.8363 39.7001 41.8364C39.4145 41.837 39.4145 41.837 39.1232 41.8376C38.9102 41.8374 38.6973 41.8371 38.4843 41.8367C38.2616 41.8369 38.0389 41.8372 37.8162 41.8375C37.2097 41.8382 36.6032 41.8379 35.9967 41.8375C35.3633 41.8371 34.73 41.8374 34.0967 41.8377C33.0329 41.8379 31.9692 41.8376 30.9054 41.8369C29.6738 41.8361 28.4421 41.8363 27.2105 41.8372C26.155 41.8378 25.0994 41.8379 24.0439 41.8375C23.4126 41.8373 22.7814 41.8373 22.1501 41.8378C21.5568 41.8382 20.9634 41.8379 20.3701 41.837C20.1517 41.8368 19.9333 41.8369 19.7149 41.8372C19.418 41.8376 19.1212 41.837 18.8243 41.8364C18.6578 41.8363 18.4912 41.8363 18.3196 41.8362C17.9485 41.8176 17.9485 41.8176 17.8006 41.6697C17.7855 41.3243 17.78 40.9832 17.7808 40.6377C17.7805 40.5285 17.7801 40.4192 17.7798 40.3067C17.7789 39.9379 17.779 39.5691 17.7791 39.2004C17.7787 38.9371 17.7782 38.6738 17.7776 38.4106C17.7763 37.6934 17.7759 36.9763 17.7759 36.2591C17.7757 35.6615 17.7752 35.0639 17.7746 34.4662C17.7734 33.0569 17.7731 31.6475 17.7732 30.2381C17.7733 28.7818 17.7717 27.3256 17.7694 25.8693C17.7674 24.6211 17.7666 23.3729 17.7667 22.1247C17.7668 21.3783 17.7664 20.6319 17.7648 19.8855C17.7634 19.1837 17.7633 18.482 17.7644 17.7803C17.7646 17.5221 17.7642 17.2639 17.7633 17.0058C17.7622 16.6546 17.7629 16.3034 17.764 15.9521C17.7633 15.8489 17.7625 15.7457 17.7617 15.6394C17.7668 14.9351 17.7668 14.9351 18.0964 14.6055C18.4694 14.5719 18.4694 14.5719 18.934 14.5766C19.0999 14.5776 19.2658 14.5785 19.4366 14.5795C19.6105 14.582 19.7844 14.5845 19.9635 14.587C20.226 14.589 20.226 14.589 20.4938 14.5911C20.9271 14.5946 21.3604 14.5994 21.7937 14.6055C21.8389 14.489 21.8842 14.3725 21.9308 14.2524C22.1888 13.6241 22.5007 13.2625 23.1247 12.9787C23.9085 12.8701 24.7043 12.9277 25.491 12.9787C25.5276 12.8872 25.5642 12.7957 25.6019 12.7014C26.053 11.9345 26.8648 12.0418 27.6666 12.0365ZM18.8358 15.6408C18.8358 23.9375 18.8358 32.2342 18.8358 40.7824C25.7172 40.7824 32.5986 40.7824 39.6886 40.7824C39.6886 32.4856 39.6886 24.1889 39.6886 15.6408C38.6637 15.6408 37.6388 15.6408 36.5828 15.6408C36.3876 16.0312 36.1924 16.4216 35.9913 16.8239C35.6193 17.2437 35.4333 17.264 34.8675 17.3239C34.6509 17.3265 34.4342 17.3267 34.2175 17.325C34.0988 17.3258 33.9802 17.3265 33.858 17.3273C33.4662 17.3293 33.0745 17.328 32.6828 17.3265C32.4102 17.3268 32.1376 17.3272 31.865 17.3278C31.2937 17.3284 30.7225 17.3275 30.1512 17.3254C29.4195 17.3229 28.6879 17.3243 27.9562 17.327C27.3932 17.3286 26.8303 17.3281 26.2674 17.3269C25.9976 17.3267 25.7278 17.327 25.4581 17.328C25.0807 17.3292 24.7034 17.3275 24.3261 17.325C24.2149 17.3259 24.1037 17.3268 23.9891 17.3277C23.3268 17.3197 22.8879 17.2668 22.3852 16.8239C22.19 16.4335 21.9948 16.043 21.7937 15.6408C20.8176 15.6408 19.8415 15.6408 18.8358 15.6408Z" fill="white"/>
<path d="M28.0533 34.1057C28.1998 34.105 28.1998 34.105 28.3492 34.1042C28.6735 34.1028 28.9977 34.1025 29.322 34.1024C29.5465 34.1019 29.7711 34.1014 29.9956 34.1009C30.467 34.1 30.9383 34.0997 31.4096 34.0998C32.0146 34.0998 32.6195 34.0978 33.2244 34.0953C33.6884 34.0936 34.1523 34.0933 34.6163 34.0934C34.8394 34.0932 35.0624 34.0926 35.2855 34.0914C35.5971 34.09 35.9087 34.0904 36.2203 34.0913C36.4866 34.091 36.4866 34.091 36.7583 34.0906C37.1747 34.1272 37.1747 34.1272 37.4705 34.423C37.3912 34.9459 37.3912 34.9459 37.1747 35.1625C36.8624 35.1772 36.5497 35.1814 36.2371 35.1816C36.0903 35.182 36.0903 35.182 35.9405 35.1824C35.6155 35.183 35.2905 35.1826 34.9656 35.1821C34.7407 35.1822 34.5157 35.1823 34.2908 35.1825C33.8189 35.1827 33.3469 35.1824 32.875 35.1817C32.2687 35.1809 31.6625 35.1814 31.0562 35.1823C30.5916 35.1828 30.127 35.1826 29.6624 35.1822C29.4388 35.1821 29.2152 35.1823 28.9916 35.1826C28.6796 35.183 28.3677 35.1824 28.0557 35.1816C27.8778 35.1815 27.6999 35.1814 27.5166 35.1812C27.1181 35.1625 27.1181 35.1625 26.9702 35.0146C26.9517 34.6448 26.9517 34.6448 26.9702 34.2751C27.2432 34.0021 27.6879 34.1069 28.0533 34.1057Z" fill="white"/>
<path d="M27.1176 27.4722C30.4851 27.4722 33.8526 27.4722 37.3221 27.4722C37.3954 27.8382 37.3954 27.8382 37.47 28.2116C37.0588 28.6229 36.8118 28.5449 36.2358 28.5457C36.1396 28.5462 36.0434 28.5467 35.9442 28.5473C35.6255 28.5486 35.3069 28.5477 34.9882 28.5467C34.7672 28.5469 34.5462 28.5472 34.3252 28.5476C33.8617 28.548 33.3982 28.5474 32.9347 28.546C32.3399 28.5443 31.7451 28.5453 31.1503 28.547C30.6938 28.5481 30.2373 28.5478 29.7809 28.547C29.5615 28.5468 29.3422 28.547 29.1228 28.5477C28.8165 28.5485 28.5103 28.5473 28.204 28.5457C28.0295 28.5454 27.855 28.5452 27.6753 28.545C27.2655 28.5074 27.2655 28.5074 26.9697 28.2116C27.0185 27.9676 27.0673 27.7236 27.1176 27.4722Z" fill="white"/>
<path d="M27.1176 20.6689C30.4851 20.6689 33.8526 20.6689 37.3221 20.6689C37.3954 21.035 37.3954 21.035 37.47 21.4084C37.0588 21.8197 36.8118 21.7417 36.2358 21.7425C36.1396 21.743 36.0434 21.7435 35.9442 21.744C35.6255 21.7453 35.3069 21.7445 34.9882 21.7435C34.7672 21.7437 34.5462 21.744 34.3252 21.7443C33.8617 21.7448 33.3982 21.7441 32.9347 21.7427C32.3399 21.7411 31.7451 21.742 31.1503 21.7438C30.6938 21.7449 30.2373 21.7445 29.7809 21.7438C29.5615 21.7436 29.3422 21.7438 29.1228 21.7445C28.8165 21.7453 28.5103 21.7441 28.204 21.7425C28.0295 21.7422 27.855 21.742 27.6753 21.7417C27.2655 21.7042 27.2655 21.7042 26.9697 21.4084C27.0185 21.1644 27.0673 20.9204 27.1176 20.6689Z" fill="white"/>
<path d="M27.1176 37.529C28.2142 37.5256 29.3107 37.523 30.4073 37.5214C30.9164 37.5206 31.4256 37.5195 31.9347 37.5179C32.5194 37.516 33.1042 37.5152 33.689 37.5146C33.9644 37.5134 33.9644 37.5134 34.2454 37.5123C34.4142 37.5122 34.583 37.5122 34.7568 37.5122C34.9063 37.5119 35.0557 37.5116 35.2096 37.5112C35.5474 37.529 35.5474 37.529 35.6953 37.6769C35.7013 37.9233 35.7017 38.17 35.6953 38.4164C35.317 38.6055 35.0475 38.5841 34.624 38.5857C34.4621 38.5867 34.3002 38.5876 34.1335 38.5886C33.958 38.5888 33.7825 38.5889 33.6017 38.5891C33.4223 38.5896 33.2429 38.5901 33.058 38.5906C32.6781 38.5913 32.2982 38.5917 31.9183 38.5917C31.335 38.592 30.7517 38.5947 30.1685 38.5975C29.8001 38.5979 29.4317 38.5982 29.0633 38.5983C28.8879 38.5994 28.7124 38.6005 28.5316 38.6016C28.2888 38.6009 28.2888 38.6009 28.0411 38.6002C27.8981 38.6004 27.7552 38.6006 27.6079 38.6008C27.2655 38.5643 27.2655 38.5643 26.9697 38.2685C27.0252 37.8803 27.0252 37.8803 27.1176 37.529Z" fill="white"/>
<path d="M27.6079 30.6887C27.8223 30.689 27.8223 30.689 28.0411 30.6894C28.2029 30.6889 28.3648 30.6885 28.5316 30.688C28.7948 30.6896 28.7948 30.6896 29.0633 30.6912C29.3325 30.6913 29.3325 30.6913 29.607 30.6914C29.987 30.6919 30.3669 30.693 30.7468 30.6949C31.3301 30.6976 31.9133 30.6979 32.4966 30.6979C32.865 30.6986 33.2334 30.6994 33.6017 30.7005C33.7772 30.7006 33.9527 30.7008 34.1335 30.701C34.2953 30.7019 34.4572 30.7028 34.624 30.7038C34.8384 30.7047 34.8384 30.7047 35.0572 30.7055C35.3996 30.7253 35.3996 30.7253 35.6953 30.8732C35.7017 31.1196 35.7013 31.3662 35.6953 31.6126C35.5474 31.7605 35.5474 31.7605 35.2096 31.7783C35.0602 31.778 34.9108 31.7777 34.7568 31.7773C34.5881 31.7773 34.4193 31.7773 34.2454 31.7773C34.0618 31.7765 33.8782 31.7758 33.689 31.775C33.4086 31.7747 33.4086 31.7747 33.1226 31.7743C32.6249 31.7737 32.1272 31.7723 31.6295 31.7707C31.122 31.7692 30.6145 31.7685 30.1069 31.7678C29.1105 31.7661 28.1141 31.7636 27.1176 31.7605C27.0252 31.4093 27.0252 31.4093 26.9697 31.0211C27.2655 30.7253 27.2655 30.7253 27.6079 30.6887Z" fill="white"/>
<path d="M27.6079 23.886C27.8223 23.8863 27.8223 23.8863 28.0411 23.8866C28.2029 23.8862 28.3648 23.8857 28.5316 23.8853C28.7948 23.8868 28.7948 23.8868 29.0633 23.8885C29.3325 23.8886 29.3325 23.8886 29.607 23.8887C29.987 23.8891 30.3669 23.8903 30.7468 23.8921C31.3301 23.8948 31.9133 23.8952 32.4966 23.8951C32.865 23.8958 33.2334 23.8967 33.6017 23.8977C33.7772 23.8979 33.9527 23.898 34.1335 23.8982C34.2953 23.8992 34.4572 23.9001 34.624 23.9011C34.8384 23.9019 34.8384 23.9019 35.0572 23.9028C35.3996 23.9226 35.3996 23.9226 35.6953 24.0705C35.7017 24.3169 35.7013 24.5635 35.6953 24.8099C35.5474 24.9578 35.5474 24.9578 35.2096 24.9756C35.0602 24.9753 34.9108 24.9749 34.7568 24.9746C34.5881 24.9746 34.4193 24.9746 34.2454 24.9746C34.0618 24.9738 33.8782 24.973 33.689 24.9722C33.4086 24.9719 33.4086 24.9719 33.1226 24.9716C32.6249 24.9709 32.1272 24.9696 31.6295 24.968C31.122 24.9664 30.6145 24.9658 30.1069 24.965C29.1105 24.9634 28.1141 24.9609 27.1176 24.9578C27.0252 24.6066 27.0252 24.6066 26.9697 24.2183C27.2655 23.9226 27.2655 23.9226 27.6079 23.886Z" fill="white"/>
<path d="M25.24 27.2084C25.3229 27.2467 25.4059 27.285 25.4913 27.3245C25.6011 27.6513 25.6011 27.6513 25.6392 28.0639C25.4098 28.4058 25.4098 28.4058 25.065 28.7508C24.941 28.8752 24.8171 28.9996 24.6895 29.1278C24.5575 29.2556 24.4256 29.3834 24.2897 29.5151C24.1612 29.6458 24.0327 29.7765 23.9003 29.9111C22.9419 30.8571 22.9419 30.8571 22.443 30.9313C21.8976 30.8426 21.5983 30.4896 21.2302 30.1067C21.1559 30.0353 21.0817 29.9639 21.0052 29.8903C20.6563 29.5367 20.4718 29.3245 20.415 28.8236C20.4309 28.7193 20.4467 28.6151 20.463 28.5076C20.7929 28.3973 20.7929 28.3973 21.2024 28.3597C21.5335 28.6041 21.5335 28.6041 21.8402 28.942C21.9434 29.0532 22.0465 29.1643 22.1528 29.2788C22.2296 29.366 22.3064 29.4531 22.3856 29.5429C23.1692 28.8956 23.8647 28.2011 24.5549 27.4545C24.8997 27.1766 24.8997 27.1766 25.24 27.2084Z" fill="white"/>
<path d="M25.314 20.5526C25.4211 20.5909 25.5282 20.6292 25.6386 20.6687C25.6419 21.3581 25.4071 21.7 24.9575 22.1875C24.7336 22.4134 24.5076 22.6373 24.2799 22.8594C24.1121 23.0314 24.1121 23.0314 23.941 23.2069C23.4816 23.6623 23.106 24.0161 22.5057 24.2672C21.9091 24.1969 21.6121 23.8817 21.2204 23.4602C21.1468 23.3881 21.0732 23.3161 20.9974 23.2418C20.6526 22.8857 20.4708 22.6666 20.415 22.1673C20.4307 22.0632 20.4463 21.9591 20.4624 21.8519C20.7923 21.7415 20.7923 21.7415 21.2019 21.704C21.5329 21.9483 21.5329 21.9483 21.8397 22.2863C21.9428 22.3974 22.0459 22.5086 22.1522 22.6231C22.229 22.7102 22.3058 22.7973 22.385 22.8871C23.1671 22.2411 23.8563 21.5489 24.5398 20.7987C24.8992 20.5208 24.8992 20.5208 25.314 20.5526Z" fill="white"/>
<path d="M25.3288 33.9948C25.4308 34.0385 25.5328 34.0822 25.6379 34.1271C25.692 34.6076 25.6775 34.8112 25.3917 35.2108C25.023 35.5853 24.6538 35.9586 24.2791 36.327C24.1513 36.4589 24.0235 36.5909 23.8918 36.7268C23.7674 36.8507 23.643 36.9746 23.5148 37.1023C23.401 37.2161 23.2871 37.3299 23.1698 37.4471C22.8279 37.6765 22.8279 37.6765 22.4424 37.66C21.9316 37.4704 21.595 37.1326 21.2196 36.7522C21.1441 36.6815 21.0686 36.6108 20.9908 36.5379C20.7771 36.3247 20.7771 36.3247 20.4617 35.9018C20.4882 35.479 20.4882 35.479 20.6096 35.1624C20.9146 35.0977 20.9146 35.0977 21.349 35.1624C21.7295 35.476 22.0578 35.8288 22.3843 36.1976C22.82 36.003 23.1077 35.7994 23.4282 35.4472C23.5097 35.3607 23.5912 35.2743 23.6751 35.1852C23.8442 35.003 24.0122 34.8196 24.1789 34.6352C24.806 33.9759 24.806 33.9759 25.3288 33.9948Z" fill="white"/>
</svg>
