<svg width="49" height="32" viewBox="0 0 49 32" fill="none" xmlns="http://www.w3.org/2000/svg">
<mask id="path-1-outside-1_210_10975" maskUnits="userSpaceOnUse" x="-0.399902" y="-0.319824" width="49" height="32" fill="black">
<rect fill="white" x="-0.399902" y="-0.319824" width="49" height="32"/>
<path d="M1.0001 15.7202C1.0001 11.1068 1.77343 7.50684 3.3201 4.92017C4.89343 2.30684 7.58676 1.00017 11.4001 1.00017C15.2134 1.00017 17.8934 2.30684 19.4401 4.92017C21.0134 7.50684 21.8001 11.1068 21.8001 15.7202C21.8001 20.3868 21.0134 24.0402 19.4401 26.6802C17.8934 29.2935 15.2134 30.6002 11.4001 30.6002C7.58676 30.6002 4.89343 29.2935 3.3201 26.6802C1.77343 24.0402 1.0001 20.3868 1.0001 15.7202ZM17.3201 15.7202C17.3201 13.5602 17.1734 11.7335 16.8801 10.2402C16.6134 8.74684 16.0534 7.53351 15.2001 6.60017C14.3468 5.64017 13.0801 5.16018 11.4001 5.16018C9.7201 5.16018 8.45343 5.64017 7.6001 6.60017C6.74676 7.53351 6.17343 8.74684 5.8801 10.2402C5.61343 11.7335 5.4801 13.5602 5.4801 15.7202C5.4801 17.9602 5.61343 19.8402 5.8801 21.3602C6.14676 22.8802 6.70676 24.1068 7.5601 25.0402C8.4401 25.9735 9.7201 26.4402 11.4001 26.4402C13.0801 26.4402 14.3468 25.9735 15.2001 25.0402C16.0801 24.1068 16.6534 22.8802 16.9201 21.3602C17.1868 19.8402 17.3201 17.9602 17.3201 15.7202ZM45.4251 5.44017H32.0251V13.4002C32.5851 12.6535 33.4118 12.0268 34.5051 11.5202C35.6251 11.0135 36.8118 10.7602 38.0651 10.7602C40.3051 10.7602 42.1184 11.2402 43.5051 12.2002C44.9184 13.1602 45.9184 14.3735 46.5051 15.8402C47.1184 17.3068 47.4251 18.8535 47.4251 20.4802C47.4251 22.4535 47.0384 24.2135 46.2651 25.7602C45.5184 27.2802 44.3851 28.4802 42.8651 29.3602C41.3718 30.2402 39.5318 30.6802 37.3451 30.6802C34.4384 30.6802 32.1051 29.9602 30.3451 28.5202C28.5851 27.0802 27.5318 25.1735 27.1851 22.8002H31.6251C31.9184 24.0535 32.5718 25.0535 33.5851 25.8002C34.5984 26.5202 35.8651 26.8802 37.3851 26.8802C39.2784 26.8802 40.6918 26.3068 41.6251 25.1602C42.5851 24.0135 43.0651 22.4935 43.0651 20.6002C43.0651 18.6802 42.5851 17.2135 41.6251 16.2002C40.6651 15.1602 39.2518 14.6402 37.3851 14.6402C36.0784 14.6402 34.9718 14.9735 34.0651 15.6402C33.1851 16.2802 32.5451 17.1602 32.1451 18.2802H27.8251V1.44018H45.4251V5.44017Z"/>
</mask>
<path d="M3.3201 4.92017L2.46337 4.40439L2.46183 4.40698L3.3201 4.92017ZM19.4401 4.92017L18.5795 5.42953L18.5857 5.43984L19.4401 4.92017ZM19.4401 26.6802L18.5811 26.1682L18.5795 26.1709L19.4401 26.6802ZM3.3201 26.6802L2.45721 27.1857L2.46338 27.196L3.3201 26.6802ZM16.8801 10.2402L15.8957 10.416L15.8972 10.4245L15.8988 10.4329L16.8801 10.2402ZM15.2001 6.60017L14.4526 7.2646L14.4621 7.27494L15.2001 6.60017ZM7.6001 6.60017L8.3382 7.27501L8.34751 7.26454L7.6001 6.60017ZM5.8801 10.2402L4.89885 10.0474L4.89719 10.0559L4.89567 10.0644L5.8801 10.2402ZM5.8801 21.3602L6.86506 21.1874V21.1874L5.8801 21.3602ZM7.5601 25.0402L6.82207 25.7149L6.82725 25.7206L6.83251 25.7262L7.5601 25.0402ZM15.2001 25.0402L14.4725 24.3542L14.4672 24.3597L14.4621 24.3654L15.2001 25.0402ZM16.9201 21.3602L17.9051 21.533V21.533L16.9201 21.3602ZM1.0001 15.7202H2.0001C2.0001 11.1992 2.7612 7.80347 4.17837 5.43337L3.3201 4.92017L2.46183 4.40698C0.785665 7.21021 9.77516e-05 11.0145 9.77516e-05 15.7202H1.0001ZM3.3201 4.92017L4.17682 5.43596C5.52247 3.2008 7.83613 2.00017 11.4001 2.00017V1.00017V0.000173569C7.3374 0.000173569 4.26439 1.41288 2.46338 4.40439L3.3201 4.92017ZM11.4001 1.00017V2.00017C14.9646 2.00017 17.2604 3.20068 18.5795 5.42949L19.4401 4.92017L20.3007 4.41085C18.5264 1.413 15.4622 0.000173569 11.4001 0.000173569V1.00017ZM19.4401 4.92017L18.5857 5.43984C20.0264 7.80834 20.8001 11.2014 20.8001 15.7202H21.8001H22.8001C22.8001 11.0123 22.0005 7.20534 20.2945 4.40051L19.4401 4.92017ZM21.8001 15.7202H20.8001C20.8001 20.2929 20.0262 23.7434 18.5811 26.1682L19.4401 26.6802L20.2991 27.1921C22.0007 24.337 22.8001 20.4807 22.8001 15.7202H21.8001ZM19.4401 26.6802L18.5795 26.1709C17.2604 28.3997 14.9646 29.6002 11.4001 29.6002V30.6002V31.6002C15.4622 31.6002 18.5264 30.1873 20.3007 27.1895L19.4401 26.6802ZM11.4001 30.6002V29.6002C7.83613 29.6002 5.52247 28.3995 4.17682 26.1644L3.3201 26.6802L2.46338 27.196C4.26439 30.1875 7.3374 31.6002 11.4001 31.6002V30.6002ZM3.3201 26.6802L4.18293 26.1747C2.76135 23.7482 2.0001 20.2951 2.0001 15.7202H1.0001H9.77516e-05C9.77516e-05 20.4786 0.785516 24.3322 2.45727 27.1857L3.3201 26.6802ZM17.3201 15.7202H18.3201C18.3201 13.52 18.1711 11.6245 17.8613 10.0474L16.8801 10.2402L15.8988 10.4329C16.1757 11.8425 16.3201 13.6003 16.3201 15.7202H17.3201ZM16.8801 10.2402L17.8645 10.0644C17.5713 8.42229 16.9426 7.02409 15.9381 5.9254L15.2001 6.60017L14.4621 7.27494C15.1642 8.04292 15.6556 9.0714 15.8957 10.416L16.8801 10.2402ZM15.2001 6.60017L15.9475 5.93581C14.8502 4.70134 13.2725 4.16018 11.4001 4.16018V5.16018V6.16018C12.8877 6.16018 13.8433 6.57901 14.4527 7.26454L15.2001 6.60017ZM11.4001 5.16018V4.16018C9.52771 4.16018 7.95 4.70134 6.85269 5.93581L7.6001 6.60017L8.34751 7.26454C8.95686 6.57901 9.91248 6.16018 11.4001 6.16018V5.16018ZM7.6001 6.60017L6.86207 5.9254C5.86194 7.0193 5.2203 8.41094 4.89885 10.0474L5.8801 10.2402L6.86135 10.4329C7.12656 9.08274 7.63159 8.04772 8.33813 7.27494L7.6001 6.60017ZM5.8801 10.2402L4.89567 10.0644C4.61532 11.6344 4.4801 13.5238 4.4801 15.7202H5.4801H6.4801C6.4801 13.5966 6.61155 11.8326 6.86453 10.416L5.8801 10.2402ZM5.4801 15.7202H4.4801C4.4801 17.9947 4.6151 19.9367 4.89514 21.533L5.8801 21.3602L6.86506 21.1874C6.61176 19.7436 6.4801 17.9257 6.4801 15.7202H5.4801ZM5.8801 21.3602L4.89514 21.533C5.18741 23.1989 5.81461 24.613 6.82207 25.7149L7.5601 25.0402L8.29813 24.3654C7.59891 23.6006 7.10612 22.5615 6.86506 21.1874L5.8801 21.3602ZM7.5601 25.0402L6.83251 25.7262C7.95514 26.9169 9.53418 27.4402 11.4001 27.4402V26.4402V25.4402C9.90602 25.4402 8.92506 25.0302 8.28769 24.3542L7.5601 25.0402ZM11.4001 26.4402V27.4402C13.2641 27.4402 14.8386 26.9175 15.9381 25.7149L15.2001 25.0402L14.4621 24.3654C13.8549 25.0295 12.8961 25.4402 11.4001 25.4402V26.4402ZM15.2001 25.0402L15.9277 25.7262C16.9669 24.6239 17.6116 23.2059 17.9051 21.533L16.9201 21.3602L15.9351 21.1874C15.6953 22.5544 15.1933 23.5897 14.4725 24.3542L15.2001 25.0402ZM16.9201 21.3602L17.9051 21.533C18.1851 19.9367 18.3201 17.9947 18.3201 15.7202H17.3201H16.3201C16.3201 17.9257 16.1884 19.7436 15.9351 21.1874L16.9201 21.3602ZM45.4251 5.44017V6.44017H46.4251V5.44017H45.4251ZM32.0251 5.44017V4.44017H31.0251V5.44017H32.0251ZM32.0251 13.4002H31.0251V16.4002L32.8251 14.0002L32.0251 13.4002ZM34.5051 11.5202L34.0929 10.609L34.0846 10.6129L34.5051 11.5202ZM43.5051 12.2002L42.9359 13.0224L42.9432 13.0274L43.5051 12.2002ZM46.5051 15.8402L45.5766 16.2116L45.5795 16.2188L45.5825 16.226L46.5051 15.8402ZM46.2651 25.7602L45.3706 25.313L45.3675 25.3193L46.2651 25.7602ZM42.8651 29.3602L42.364 28.4947L42.3574 28.4986L42.8651 29.3602ZM30.3451 28.5202L30.9783 27.7462V27.7462L30.3451 28.5202ZM27.1851 22.8002V21.8002H26.0284L26.1956 22.9447L27.1851 22.8002ZM31.6251 22.8002L32.5988 22.5723L32.4181 21.8002H31.6251V22.8002ZM33.5851 25.8002L32.9919 26.6052L32.9989 26.6104L33.0059 26.6154L33.5851 25.8002ZM41.6251 25.1602L40.8583 24.5182L40.8495 24.5289L41.6251 25.1602ZM41.6251 16.2002L40.8902 16.8785L40.8991 16.8879L41.6251 16.2002ZM34.0651 15.6402L34.6533 16.4489L34.6575 16.4458L34.0651 15.6402ZM32.1451 18.2802V19.2802H32.8498L33.0868 18.6165L32.1451 18.2802ZM27.8251 18.2802H26.8251V19.2802H27.8251V18.2802ZM27.8251 1.44018V0.440176H26.8251V1.44018H27.8251ZM45.4251 1.44018H46.4251V0.440176H45.4251V1.44018ZM45.4251 5.44017V4.44017H32.0251V5.44017V6.44017H45.4251V5.44017ZM32.0251 5.44017H31.0251V13.4002H32.0251H33.0251V5.44017H32.0251ZM32.0251 13.4002L32.8251 14.0002C33.2612 13.4187 33.9398 12.8843 34.9256 12.4275L34.5051 11.5202L34.0846 10.6129C32.8838 11.1694 31.909 11.8883 31.2251 12.8002L32.0251 13.4002ZM34.5051 11.5202L34.9173 12.4313C35.9052 11.9844 36.951 11.7602 38.0651 11.7602V10.7602V9.76017C36.6725 9.76017 35.345 10.0426 34.0929 10.6091L34.5051 11.5202ZM38.0651 10.7602V11.7602C40.1675 11.7602 41.7634 12.2107 42.9359 13.0224L43.5051 12.2002L44.0743 11.378C42.4734 10.2697 40.4427 9.76017 38.0651 9.76017V10.7602ZM43.5051 12.2002L42.9432 13.0274C44.2057 13.885 45.0701 14.9452 45.5766 16.2116L46.5051 15.8402L47.4336 15.4688C46.7668 13.8018 45.6311 12.4354 44.067 11.373L43.5051 12.2002ZM46.5051 15.8402L45.5825 16.226C46.1435 17.5676 46.4251 18.9828 46.4251 20.4802H47.4251H48.4251C48.4251 18.7242 48.0933 17.0461 47.4277 15.4544L46.5051 15.8402ZM47.4251 20.4802H46.4251C46.4251 22.3203 46.0654 23.9236 45.3707 25.313L46.2651 25.7602L47.1595 26.2074C48.0115 24.5034 48.4251 22.5867 48.4251 20.4802H47.4251ZM46.2651 25.7602L45.3675 25.3193C44.7115 26.6548 43.7195 27.71 42.3641 28.4948L42.8651 29.3602L43.3661 30.2256C45.0507 29.2503 46.3254 27.9056 47.1627 26.2011L46.2651 25.7602ZM42.8651 29.3602L42.3574 28.4986C41.0533 29.2671 39.3993 29.6802 37.3451 29.6802V30.6802V31.6802C39.6642 31.6802 41.6903 31.2132 43.3728 30.2217L42.8651 29.3602ZM37.3451 30.6802V29.6802C34.6039 29.6802 32.5149 29.0034 30.9783 27.7462L30.3451 28.5202L29.7119 29.2941C31.6953 30.917 34.273 31.6802 37.3451 31.6802V30.6802ZM30.3451 28.5202L30.9783 27.7462C29.4227 26.4735 28.4874 24.7969 28.1746 22.6556L27.1851 22.8002L26.1956 22.9447C26.5762 25.5501 27.7474 27.6869 29.7119 29.2941L30.3451 28.5202ZM27.1851 22.8002V23.8002H31.6251V22.8002V21.8002H27.1851V22.8002ZM31.6251 22.8002L30.6514 23.0281C30.9976 24.5072 31.7825 25.7141 32.9919 26.6052L33.5851 25.8002L34.1783 24.9951C33.3611 24.3929 32.8393 23.5999 32.5988 22.5723L31.6251 22.8002ZM33.5851 25.8002L33.0059 26.6154C34.2231 27.4802 35.7045 27.8802 37.3851 27.8802V26.8802V25.8802C36.0257 25.8802 34.9738 25.5602 34.1643 24.985L33.5851 25.8002ZM37.3851 26.8802V27.8802C39.4877 27.8802 41.2263 27.2342 42.4007 25.7914L41.6251 25.1602L40.8495 24.5289C40.1572 25.3795 39.0691 25.8802 37.3851 25.8802V26.8802ZM41.6251 25.1602L42.3919 25.8021C43.5391 24.4318 44.0651 22.6642 44.0651 20.6002H43.0651H42.0651C42.0651 22.3228 41.6311 23.5952 40.8583 24.5182L41.6251 25.1602ZM43.0651 20.6002H44.0651C44.0651 18.5217 43.5442 16.7718 42.3511 15.5124L41.6251 16.2002L40.8991 16.8879C41.626 17.6552 42.0651 18.8387 42.0651 20.6002H43.0651ZM41.6251 16.2002L42.3599 15.5219C41.1553 14.217 39.4374 13.6402 37.3851 13.6402V14.6402V15.6402C39.0662 15.6402 40.1749 16.1034 40.8903 16.8785L41.6251 16.2002ZM37.3851 14.6402V13.6402C35.9009 13.6402 34.5777 14.022 33.4727 14.8345L34.0651 15.6402L34.6575 16.4458C35.3658 15.925 36.256 15.6402 37.3851 15.6402V14.6402ZM34.0651 15.6402L33.4769 14.8314C32.4191 15.6008 31.6644 16.6528 31.2034 17.9438L32.1451 18.2802L33.0868 18.6165C33.4258 17.6675 33.9511 16.9596 34.6533 16.4489L34.0651 15.6402ZM32.1451 18.2802V17.2802H27.8251V18.2802V19.2802H32.1451V18.2802ZM27.8251 18.2802H28.8251V1.44018H27.8251H26.8251V18.2802H27.8251ZM27.8251 1.44018V2.44018H45.4251V1.44018V0.440176H27.8251V1.44018ZM45.4251 1.44018H44.4251V5.44017H45.4251H46.4251V1.44018H45.4251Z" fill="url(#paint0_linear_210_10975)" mask="url(#path-1-outside-1_210_10975)"/>
<defs>
<linearGradient id="paint0_linear_210_10975" x1="24.6001" y1="-11.3198" x2="25.069" y2="52.3288" gradientUnits="userSpaceOnUse">
<stop stop-color="#FFF0F0"/>
<stop offset="1" stop-color="#FFF0F0" stop-opacity="0.16"/>
</linearGradient>
</defs>
</svg>
