<svg width="47" height="32" viewBox="0 0 47 32" fill="none" xmlns="http://www.w3.org/2000/svg">
<mask id="path-1-outside-1_210_10960" maskUnits="userSpaceOnUse" x="-0.399902" y="-0.160156" width="47" height="33" fill="black">
<rect fill="white" x="-0.399902" y="-0.160156" width="47" height="33"/>
<path d="M1.0001 15.8798C1.0001 11.2665 1.77343 7.66651 3.3201 5.07984C4.89343 2.46651 7.58676 1.15984 11.4001 1.15984C15.2134 1.15984 17.8934 2.46651 19.4401 5.07984C21.0134 7.66651 21.8001 11.2665 21.8001 15.8798C21.8001 20.5465 21.0134 24.1998 19.4401 26.8398C17.8934 29.4532 15.2134 30.7598 11.4001 30.7598C7.58676 30.7598 4.89343 29.4532 3.3201 26.8398C1.77343 24.1998 1.0001 20.5465 1.0001 15.8798ZM17.3201 15.8798C17.3201 13.7198 17.1734 11.8932 16.8801 10.3998C16.6134 8.90651 16.0534 7.69318 15.2001 6.75984C14.3468 5.79984 13.0801 5.31984 11.4001 5.31984C9.7201 5.31984 8.45343 5.79984 7.6001 6.75984C6.74676 7.69318 6.17343 8.90651 5.8801 10.3998C5.61343 11.8932 5.4801 13.7198 5.4801 15.8798C5.4801 18.1198 5.61343 19.9998 5.8801 21.5198C6.14676 23.0398 6.70676 24.2665 7.5601 25.1998C8.4401 26.1332 9.7201 26.5998 11.4001 26.5998C13.0801 26.5998 14.3468 26.1332 15.2001 25.1998C16.0801 24.2665 16.6534 23.0398 16.9201 21.5198C17.1868 19.9998 17.3201 18.1198 17.3201 15.8798ZM26.5451 8.87984C26.7051 6.39984 27.6518 4.46651 29.3851 3.07984C31.1451 1.69318 33.3851 0.999842 36.1051 0.999842C37.9718 0.999842 39.5851 1.33318 40.9451 1.99984C42.3051 2.66651 43.3318 3.57318 44.0251 4.71984C44.7184 5.86651 45.0651 7.15984 45.0651 8.59984C45.0651 10.2532 44.6251 11.6665 43.7451 12.8398C42.8651 14.0132 41.8118 14.7998 40.5851 15.1998V15.3598C42.1584 15.8398 43.3851 16.7198 44.2651 17.9998C45.1451 19.2532 45.5851 20.8665 45.5851 22.8398C45.5851 24.4132 45.2251 25.8132 44.5051 27.0398C43.7851 28.2665 42.7184 29.2398 41.3051 29.9598C39.8918 30.6532 38.1984 30.9998 36.2251 30.9998C33.3451 30.9998 30.9718 30.2665 29.1051 28.7998C27.2651 27.3065 26.2784 25.1732 26.1451 22.3998H30.5451C30.6518 23.8132 31.1984 24.9732 32.1851 25.8798C33.1718 26.7598 34.5051 27.1998 36.1851 27.1998C37.8118 27.1998 39.0651 26.7598 39.9451 25.8798C40.8251 24.9732 41.2651 23.8132 41.2651 22.3998C41.2651 20.5332 40.6651 19.2132 39.4651 18.4398C38.2918 17.6398 36.4784 17.2398 34.0251 17.2398H32.9851V13.4798H34.0651C36.2251 13.4532 37.8651 13.0932 38.9851 12.3998C40.1318 11.7065 40.7051 10.6132 40.7051 9.11984C40.7051 7.83984 40.2918 6.82651 39.4651 6.07984C38.6384 5.30651 37.4651 4.91984 35.9451 4.91984C34.4518 4.91984 33.2918 5.30651 32.4651 6.07984C31.6384 6.82651 31.1451 7.75984 30.9851 8.87984H26.5451Z"/>
</mask>
<path d="M3.3201 5.07984L2.46337 4.56406L2.46183 4.56665L3.3201 5.07984ZM19.4401 5.07984L18.5795 5.5892L18.5857 5.59951L19.4401 5.07984ZM19.4401 26.8398L18.5811 26.3279L18.5795 26.3305L19.4401 26.8398ZM3.3201 26.8398L2.45721 27.3454L2.46338 27.3556L3.3201 26.8398ZM16.8801 10.3998L15.8957 10.5756L15.8972 10.5841L15.8988 10.5926L16.8801 10.3998ZM15.2001 6.75984L14.4526 7.42427L14.4621 7.43461L15.2001 6.75984ZM7.6001 6.75984L8.3382 7.43468L8.34751 7.42421L7.6001 6.75984ZM5.8801 10.3998L4.89885 10.2071L4.89719 10.2156L4.89567 10.2241L5.8801 10.3998ZM5.8801 21.5198L6.86506 21.347V21.347L5.8801 21.5198ZM7.5601 25.1998L6.82207 25.8746L6.82725 25.8803L6.83251 25.8859L7.5601 25.1998ZM15.2001 25.1998L14.4725 24.5138L14.4672 24.5194L14.4621 24.5251L15.2001 25.1998ZM16.9201 21.5198L17.9051 21.6926V21.6926L16.9201 21.5198ZM1.0001 15.8798H2.0001C2.0001 11.3589 2.7612 7.96314 4.17837 5.59303L3.3201 5.07984L2.46183 4.56665C0.785665 7.36988 9.77516e-05 11.1741 9.77516e-05 15.8798H1.0001ZM3.3201 5.07984L4.17682 5.59562C5.52247 3.36047 7.83613 2.15984 11.4001 2.15984V1.15984V0.159842C7.3374 0.159842 4.26439 1.57255 2.46338 4.56406L3.3201 5.07984ZM11.4001 1.15984V2.15984C14.9646 2.15984 17.2604 3.36035 18.5795 5.58916L19.4401 5.07984L20.3007 4.57052C18.5264 1.57267 15.4622 0.159842 11.4001 0.159842V1.15984ZM19.4401 5.07984L18.5857 5.59951C20.0264 7.96801 20.8001 11.3611 20.8001 15.8798H21.8001H22.8001C22.8001 11.1719 22.0005 7.36501 20.2945 4.56017L19.4401 5.07984ZM21.8001 15.8798H20.8001C20.8001 20.4526 20.0262 23.9031 18.5811 26.3279L19.4401 26.8398L20.2991 27.3518C22.0007 24.4966 22.8001 20.6404 22.8001 15.8798H21.8001ZM19.4401 26.8398L18.5795 26.3305C17.2604 28.5593 14.9646 29.7598 11.4001 29.7598V30.7598V31.7598C15.4622 31.7598 18.5264 30.347 20.3007 27.3492L19.4401 26.8398ZM11.4001 30.7598V29.7598C7.83613 29.7598 5.52247 28.5592 4.17682 26.3241L3.3201 26.8398L2.46338 27.3556C4.26439 30.3471 7.3374 31.7598 11.4001 31.7598V30.7598ZM3.3201 26.8398L4.18293 26.3343C2.76135 23.9079 2.0001 20.4548 2.0001 15.8798H1.0001H9.77516e-05C9.77516e-05 20.6383 0.785516 24.4918 2.45727 27.3453L3.3201 26.8398ZM17.3201 15.8798H18.3201C18.3201 13.6797 18.1711 11.7842 17.8613 10.2071L16.8801 10.3998L15.8988 10.5926C16.1757 12.0022 16.3201 13.76 16.3201 15.8798H17.3201ZM16.8801 10.3998L17.8645 10.2241C17.5713 8.58195 16.9426 7.18376 15.9381 6.08507L15.2001 6.75984L14.4621 7.43461C15.1642 8.20259 15.6556 9.23106 15.8957 10.5756L16.8801 10.3998ZM15.2001 6.75984L15.9475 6.09548C14.8502 4.861 13.2725 4.31984 11.4001 4.31984V5.31984V6.31984C12.8877 6.31984 13.8433 6.73868 14.4527 7.42421L15.2001 6.75984ZM11.4001 5.31984V4.31984C9.52771 4.31984 7.95 4.861 6.85269 6.09548L7.6001 6.75984L8.34751 7.42421C8.95686 6.73868 9.91248 6.31984 11.4001 6.31984V5.31984ZM7.6001 6.75984L6.86207 6.08507C5.86194 7.17896 5.2203 8.57061 4.89885 10.2071L5.8801 10.3998L6.86135 10.5926C7.12656 9.24241 7.63159 8.20739 8.33813 7.43461L7.6001 6.75984ZM5.8801 10.3998L4.89567 10.2241C4.61532 11.794 4.4801 13.6834 4.4801 15.8798H5.4801H6.4801C6.4801 13.7562 6.61155 11.9923 6.86453 10.5756L5.8801 10.3998ZM5.4801 15.8798H4.4801C4.4801 18.1543 4.6151 20.0964 4.89514 21.6926L5.8801 21.5198L6.86506 21.347C6.61176 19.9033 6.4801 18.0853 6.4801 15.8798H5.4801ZM5.8801 21.5198L4.89514 21.6926C5.18741 23.3586 5.81461 24.7727 6.82207 25.8746L7.5601 25.1998L8.29813 24.5251C7.59891 23.7603 7.10612 22.7211 6.86506 21.347L5.8801 21.5198ZM7.5601 25.1998L6.83251 25.8859C7.95514 27.0765 9.53418 27.5998 11.4001 27.5998V26.5998V25.5998C9.90602 25.5998 8.92506 25.1898 8.28769 24.5138L7.5601 25.1998ZM11.4001 26.5998V27.5998C13.2641 27.5998 14.8386 27.0772 15.9381 25.8746L15.2001 25.1998L14.4621 24.5251C13.8549 25.1892 12.8961 25.5998 11.4001 25.5998V26.5998ZM15.2001 25.1998L15.9277 25.8859C16.9669 24.7836 17.6116 23.3656 17.9051 21.6926L16.9201 21.5198L15.9351 21.347C15.6953 22.7141 15.1933 23.7494 14.4725 24.5138L15.2001 25.1998ZM16.9201 21.5198L17.9051 21.6926C18.1851 20.0964 18.3201 18.1543 18.3201 15.8798H17.3201H16.3201C16.3201 18.0853 16.1884 19.9033 15.9351 21.347L16.9201 21.5198ZM26.5451 8.87984L25.5472 8.81546L25.4785 9.87984H26.5451V8.87984ZM29.3851 3.07984L28.7662 2.29433L28.7604 2.29897L29.3851 3.07984ZM40.9451 1.99984L40.5049 2.89776V2.89776L40.9451 1.99984ZM44.0251 4.71984L44.8808 4.20242L44.8808 4.20242L44.0251 4.71984ZM43.7451 12.8398L44.5451 13.4398V13.4398L43.7451 12.8398ZM40.5851 15.1998L40.2751 14.2491L39.5851 14.4741V15.1998H40.5851ZM40.5851 15.3598H39.5851V16.1003L40.2933 16.3163L40.5851 15.3598ZM44.2651 17.9998L43.441 18.5664L43.4467 18.5745L44.2651 17.9998ZM44.5051 27.0398L43.6427 26.5336V26.5336L44.5051 27.0398ZM41.3051 29.9598L41.7455 30.8576L41.7523 30.8543L41.759 30.8509L41.3051 29.9598ZM29.1051 28.7998L28.4749 29.5763L28.4811 29.5813L28.4873 29.5862L29.1051 28.7998ZM26.1451 22.3998V21.3998H25.0959L25.1463 22.4479L26.1451 22.3998ZM30.5451 22.3998L31.5423 22.3246L31.4725 21.3998H30.5451V22.3998ZM32.1851 25.8798L31.5085 26.6162L31.5139 26.6212L31.5195 26.6261L32.1851 25.8798ZM39.9451 25.8798L40.6522 26.5869L40.6575 26.5817L40.6627 26.5763L39.9451 25.8798ZM39.4651 18.4398L38.9018 19.2661L38.9125 19.2734L38.9234 19.2804L39.4651 18.4398ZM32.9851 17.2398H31.9851V18.2398H32.9851V17.2398ZM32.9851 13.4798V12.4798H31.9851V13.4798H32.9851ZM34.0651 13.4798V14.4799L34.0774 14.4798L34.0651 13.4798ZM38.9851 12.3998L38.4677 11.5441L38.4587 11.5496L38.9851 12.3998ZM39.4651 6.07984L38.7819 6.81011L38.7883 6.81609L38.7948 6.82195L39.4651 6.07984ZM32.4651 6.07984L33.1354 6.82195L33.1419 6.81609L33.1483 6.81011L32.4651 6.07984ZM30.9851 8.87984V9.87984H31.8524L31.975 9.02126L30.9851 8.87984ZM26.5451 8.87984L27.543 8.94423C27.6873 6.70768 28.5236 5.04963 30.0098 3.86071L29.3851 3.07984L28.7604 2.29897C26.7799 3.88338 25.7229 6.09201 25.5472 8.81546L26.5451 8.87984ZM29.3851 3.07984L30.004 3.86533C31.5523 2.64544 33.5601 1.99984 36.1051 1.99984V0.999842V-0.00015831C33.2101 -0.00015831 30.7379 0.740911 28.7662 2.29435L29.3851 3.07984ZM36.1051 0.999842V1.99984C37.8539 1.99984 39.3101 2.31204 40.5049 2.89776L40.9451 1.99984L41.3853 1.10192C39.8601 0.354307 38.0896 -0.00015831 36.1051 -0.00015831V0.999842ZM40.9451 1.99984L40.5049 2.89776C41.7159 3.49137 42.5877 4.27534 43.1694 5.23726L44.0251 4.71984L44.8808 4.20242C44.0758 2.87101 42.8943 1.84165 41.3853 1.10192L40.9451 1.99984ZM44.0251 4.71984L43.1694 5.23726C43.7613 6.21617 44.0651 7.32811 44.0651 8.59984H45.0651H46.0651C46.0651 6.99157 45.6756 5.51685 44.8808 4.20242L44.0251 4.71984ZM45.0651 8.59984H44.0651C44.0651 10.0657 43.679 11.2614 42.9451 12.2398L43.7451 12.8398L44.5451 13.4398C45.5712 12.0717 46.0651 10.4407 46.0651 8.59984H45.0651ZM43.7451 12.8398L42.9451 12.2398C42.171 13.272 41.2802 13.9213 40.2751 14.2491L40.5851 15.1998L40.8951 16.1506C42.3433 15.6783 43.5592 14.7543 44.5451 13.4398L43.7451 12.8398ZM40.5851 15.1998H39.5851V15.3598H40.5851H41.5851V15.1998H40.5851ZM40.5851 15.3598L40.2933 16.3163C41.6639 16.7345 42.6971 17.4843 43.4411 18.5664L44.2651 17.9998L45.0891 17.4333C44.0731 15.9554 42.6529 14.9452 40.8769 14.4034L40.5851 15.3598ZM44.2651 17.9998L43.4467 18.5745C44.1785 19.6168 44.5851 21.013 44.5851 22.8398H45.5851H46.5851C46.5851 20.72 46.1117 18.8896 45.0835 17.4252L44.2651 17.9998ZM45.5851 22.8398H44.5851C44.5851 24.2546 44.2633 25.4764 43.6427 26.5336L44.5051 27.0398L45.3675 27.546C46.1869 26.15 46.5851 24.5717 46.5851 22.8398H45.5851ZM44.5051 27.0398L43.6427 26.5336C43.0302 27.5771 42.1146 28.4252 40.8512 29.0688L41.3051 29.9598L41.759 30.8509C43.3222 30.0545 44.54 28.9559 45.3675 27.546L44.5051 27.0398ZM41.3051 29.9598L40.8647 29.0621C39.6187 29.6733 38.0835 29.9998 36.2251 29.9998V30.9998V31.9998C38.3134 31.9998 40.1648 31.6331 41.7455 30.8576L41.3051 29.9598ZM36.2251 30.9998V29.9998C33.5199 29.9998 31.3782 29.3141 29.7229 28.0135L29.1051 28.7998L28.4873 29.5862C30.5653 31.2189 33.1703 31.9998 36.2251 31.9998V30.9998ZM29.1051 28.7998L29.7353 28.0234C28.1547 26.7406 27.2662 24.8945 27.1439 22.3518L26.1451 22.3998L25.1463 22.4479C25.2907 25.4518 26.3755 27.8724 28.4749 29.5763L29.1051 28.7998ZM26.1451 22.3998V23.3998H30.5451V22.3998V21.3998H26.1451V22.3998ZM30.5451 22.3998L29.5479 22.4751C29.6725 24.1254 30.3234 25.5272 31.5085 26.6162L32.1851 25.8798L32.8617 25.1435C32.0734 24.4192 31.631 23.5009 31.5423 22.3246L30.5451 22.3998ZM32.1851 25.8798L31.5195 26.6261C32.7348 27.7101 34.3282 28.1998 36.1851 28.1998V27.1998V26.1998C34.682 26.1998 33.6087 25.8096 32.8507 25.1335L32.1851 25.8798ZM36.1851 27.1998V28.1998C37.9923 28.1998 39.5322 27.7069 40.6522 26.5869L39.9451 25.8798L39.238 25.1727C38.598 25.8128 37.6313 26.1998 36.1851 26.1998V27.1998ZM39.9451 25.8798L40.6627 26.5763C41.7459 25.4603 42.2651 24.0397 42.2651 22.3998H41.2651H40.2651C40.2651 23.5867 39.9043 24.4861 39.2275 25.1834L39.9451 25.8798ZM41.2651 22.3998H42.2651C42.2651 20.3107 41.5788 18.6124 40.0068 17.5993L39.4651 18.4398L38.9234 19.2804C39.7514 19.814 40.2651 20.7556 40.2651 22.3998H41.2651ZM39.4651 18.4398L40.0284 17.6136C38.6071 16.6445 36.5497 16.2398 34.0251 16.2398V17.2398V18.2398C36.4071 18.2398 37.9764 18.6352 38.9018 19.2661L39.4651 18.4398ZM34.0251 17.2398V16.2398H32.9851V17.2398V18.2398H34.0251V17.2398ZM32.9851 17.2398H33.9851V13.4798H32.9851H31.9851V17.2398H32.9851ZM32.9851 13.4798V14.4798H34.0651V13.4798V12.4798H32.9851V13.4798ZM34.0651 13.4798L34.0774 14.4798C36.315 14.4521 38.1674 14.0821 39.5115 13.2501L38.9851 12.3998L38.4587 11.5496C37.5628 12.1042 36.1352 12.4542 34.0528 12.4799L34.0651 13.4798ZM38.9851 12.3998L39.5025 13.2556C40.9876 12.3576 41.7051 10.9153 41.7051 9.11984H40.7051H39.7051C39.7051 10.3111 39.2759 11.0554 38.4677 11.5441L38.9851 12.3998ZM40.7051 9.11984H41.7051C41.7051 7.60348 41.2042 6.30309 40.1354 5.33774L39.4651 6.07984L38.7948 6.82195C39.3794 7.34993 39.7051 8.07621 39.7051 9.11984H40.7051ZM39.4651 6.07984L40.1483 5.34957C39.0804 4.35058 37.6301 3.91984 35.9451 3.91984V4.91984V5.91984C37.3001 5.91984 38.1965 6.26244 38.7819 6.81011L39.4651 6.07984ZM35.9451 4.91984V3.91984C34.2812 3.91984 32.8468 4.35345 31.7819 5.34957L32.4651 6.07984L33.1483 6.81011C33.7368 6.25957 34.6223 5.91984 35.9451 5.91984V4.91984ZM32.4651 6.07984L31.7948 5.33774C30.7917 6.24377 30.1876 7.39094 29.9951 8.73842L30.9851 8.87984L31.975 9.02126C32.1026 8.12875 32.4852 7.40925 33.1354 6.82195L32.4651 6.07984ZM30.9851 8.87984V7.87984H26.5451V8.87984V9.87984H30.9851V8.87984Z" fill="url(#paint0_linear_210_10960)" mask="url(#path-1-outside-1_210_10960)"/>
<defs>
<linearGradient id="paint0_linear_210_10960" x1="23.6001" y1="-11.1602" x2="24.0877" y2="52.4882" gradientUnits="userSpaceOnUse">
<stop stop-color="#FFF0F0"/>
<stop offset="1" stop-color="#FFF0F0" stop-opacity="0.16"/>
</linearGradient>
</defs>
</svg>
