<svg width="47" height="32" viewBox="0 0 47 32" fill="none" xmlns="http://www.w3.org/2000/svg">
<mask id="path-1-outside-1_210_10950" maskUnits="userSpaceOnUse" x="-0.399902" y="-0.240234" width="48" height="32" fill="black">
<rect fill="white" x="-0.399902" y="-0.240234" width="48" height="32"/>
<path d="M1.0001 15.7998C1.0001 11.1864 1.77343 7.58643 3.3201 4.99976C4.89343 2.38643 7.58676 1.07976 11.4001 1.07976C15.2134 1.07976 17.8934 2.38643 19.4401 4.99976C21.0134 7.58643 21.8001 11.1864 21.8001 15.7998C21.8001 20.4664 21.0134 24.1198 19.4401 26.7598C17.8934 29.3731 15.2134 30.6798 11.4001 30.6798C7.58676 30.6798 4.89343 29.3731 3.3201 26.7598C1.77343 24.1198 1.0001 20.4664 1.0001 15.7998ZM17.3201 15.7998C17.3201 13.6398 17.1734 11.8131 16.8801 10.3198C16.6134 8.82643 16.0534 7.6131 15.2001 6.67976C14.3468 5.71976 13.0801 5.23977 11.4001 5.23977C9.7201 5.23977 8.45343 5.71976 7.6001 6.67976C6.74676 7.6131 6.17343 8.82643 5.8801 10.3198C5.61343 11.8131 5.4801 13.6398 5.4801 15.7998C5.4801 18.0398 5.61343 19.9198 5.8801 21.4398C6.14676 22.9598 6.70676 24.1864 7.5601 25.1198C8.4401 26.0531 9.7201 26.5198 11.4001 26.5198C13.0801 26.5198 14.3468 26.0531 15.2001 25.1198C16.0801 24.1864 16.6534 22.9598 16.9201 21.4398C17.1868 19.9198 17.3201 18.0398 17.3201 15.7998ZM29.1451 24.5598C31.7051 22.3464 33.7184 20.5331 35.1851 19.1198C36.6784 17.6798 37.9184 16.1864 38.9051 14.6398C39.8918 13.0931 40.3851 11.5464 40.3851 9.99976C40.3851 8.39976 39.9984 7.14643 39.2251 6.23976C38.4784 5.3331 37.2918 4.87977 35.6651 4.87977C34.0918 4.87977 32.8651 5.38643 31.9851 6.39976C31.1318 7.38643 30.6784 8.71976 30.6251 10.3998H26.2251C26.3051 7.35976 27.2118 5.03976 28.9451 3.43976C30.7051 1.8131 32.9318 0.999765 35.6251 0.999765C38.5318 0.999765 40.7984 1.79976 42.4251 3.39977C44.0784 4.99977 44.9051 7.1331 44.9051 9.79976C44.9051 11.7198 44.4118 13.5731 43.4251 15.3598C42.4651 17.1198 41.3051 18.7064 39.9451 20.1198C38.6118 21.5064 36.9051 23.1198 34.8251 24.9598L33.0251 26.5598H45.7051V30.3598H26.2651V27.0398L29.1451 24.5598Z"/>
</mask>
<path d="M3.3201 4.99976L2.46337 4.48398L2.46183 4.48657L3.3201 4.99976ZM19.4401 4.99976L18.5795 5.50912L18.5857 5.51943L19.4401 4.99976ZM19.4401 26.7598L18.5811 26.2478L18.5795 26.2504L19.4401 26.7598ZM3.3201 26.7598L2.45721 27.2653L2.46338 27.2755L3.3201 26.7598ZM16.8801 10.3198L15.8957 10.4956L15.8972 10.504L15.8988 10.5125L16.8801 10.3198ZM15.2001 6.67976L14.4526 7.34419L14.4621 7.35453L15.2001 6.67976ZM7.6001 6.67976L8.3382 7.3546L8.34751 7.34413L7.6001 6.67976ZM5.8801 10.3198L4.89885 10.127L4.89719 10.1355L4.89567 10.144L5.8801 10.3198ZM5.8801 21.4398L6.86506 21.267V21.267L5.8801 21.4398ZM7.5601 25.1198L6.82207 25.7945L6.82725 25.8002L6.83251 25.8058L7.5601 25.1198ZM15.2001 25.1198L14.4725 24.4338L14.4672 24.4393L14.4621 24.445L15.2001 25.1198ZM16.9201 21.4398L17.9051 21.6126V21.6126L16.9201 21.4398ZM1.0001 15.7998H2.0001C2.0001 11.2788 2.7612 7.88306 4.17837 5.51296L3.3201 4.99976L2.46183 4.48657C0.785665 7.2898 9.77516e-05 11.0941 9.77516e-05 15.7998H1.0001ZM3.3201 4.99976L4.17682 5.51554C5.52247 3.28039 7.83613 2.07976 11.4001 2.07976V1.07976V0.0797634C7.3374 0.0797634 4.26439 1.49247 2.46338 4.48398L3.3201 4.99976ZM11.4001 1.07976V2.07976C14.9646 2.07976 17.2604 3.28027 18.5795 5.50908L19.4401 4.99976L20.3007 4.49044C18.5264 1.49259 15.4622 0.0797634 11.4001 0.0797634V1.07976ZM19.4401 4.99976L18.5857 5.51943C20.0264 7.88793 20.8001 11.281 20.8001 15.7998H21.8001H22.8001C22.8001 11.0919 22.0005 7.28493 20.2945 4.4801L19.4401 4.99976ZM21.8001 15.7998H20.8001C20.8001 20.3725 20.0262 23.823 18.5811 26.2478L19.4401 26.7598L20.2991 27.2717C22.0007 24.4166 22.8001 20.5603 22.8001 15.7998H21.8001ZM19.4401 26.7598L18.5795 26.2504C17.2604 28.4793 14.9646 29.6798 11.4001 29.6798V30.6798V31.6798C15.4622 31.6798 18.5264 30.2669 20.3007 27.2691L19.4401 26.7598ZM11.4001 30.6798V29.6798C7.83613 29.6798 5.52247 28.4791 4.17682 26.244L3.3201 26.7598L2.46338 27.2755C4.26439 30.2671 7.3374 31.6798 11.4001 31.6798V30.6798ZM3.3201 26.7598L4.18293 26.2543C2.76135 23.8278 2.0001 20.3747 2.0001 15.7998H1.0001H9.77516e-05C9.77516e-05 20.5582 0.785516 24.4118 2.45727 27.2653L3.3201 26.7598ZM17.3201 15.7998H18.3201C18.3201 13.5996 18.1711 11.7041 17.8613 10.127L16.8801 10.3198L15.8988 10.5125C16.1757 11.9221 16.3201 13.6799 16.3201 15.7998H17.3201ZM16.8801 10.3198L17.8645 10.144C17.5713 8.50188 16.9426 7.10368 15.9381 6.00499L15.2001 6.67976L14.4621 7.35453C15.1642 8.12251 15.6556 9.15099 15.8957 10.4956L16.8801 10.3198ZM15.2001 6.67976L15.9475 6.0154C14.8502 4.78093 13.2725 4.23977 11.4001 4.23977V5.23977V6.23977C12.8877 6.23977 13.8433 6.6586 14.4527 7.34413L15.2001 6.67976ZM11.4001 5.23977V4.23977C9.52771 4.23977 7.95 4.78093 6.85269 6.0154L7.6001 6.67976L8.34751 7.34413C8.95686 6.6586 9.91248 6.23977 11.4001 6.23977V5.23977ZM7.6001 6.67976L6.86207 6.00499C5.86194 7.09889 5.2203 8.49053 4.89885 10.127L5.8801 10.3198L6.86135 10.5125C7.12656 9.16233 7.63159 8.12731 8.33813 7.35453L7.6001 6.67976ZM5.8801 10.3198L4.89567 10.144C4.61532 11.714 4.4801 13.6034 4.4801 15.7998H5.4801H6.4801C6.4801 13.6762 6.61155 11.9122 6.86453 10.4956L5.8801 10.3198ZM5.4801 15.7998H4.4801C4.4801 18.0743 4.6151 20.0163 4.89514 21.6126L5.8801 21.4398L6.86506 21.267C6.61176 19.8232 6.4801 18.0053 6.4801 15.7998H5.4801ZM5.8801 21.4398L4.89514 21.6126C5.18741 23.2785 5.81461 24.6926 6.82207 25.7945L7.5601 25.1198L8.29813 24.445C7.59891 23.6802 7.10612 22.641 6.86506 21.267L5.8801 21.4398ZM7.5601 25.1198L6.83251 25.8058C7.95514 26.9964 9.53418 27.5198 11.4001 27.5198V26.5198V25.5198C9.90602 25.5198 8.92506 25.1097 8.28769 24.4338L7.5601 25.1198ZM11.4001 26.5198V27.5198C13.2641 27.5198 14.8386 26.9971 15.9381 25.7945L15.2001 25.1198L14.4621 24.445C13.8549 25.1091 12.8961 25.5198 11.4001 25.5198V26.5198ZM15.2001 25.1198L15.9277 25.8058C16.9669 24.7035 17.6116 23.2855 17.9051 21.6126L16.9201 21.4398L15.9351 21.267C15.6953 22.634 15.1933 23.6693 14.4725 24.4338L15.2001 25.1198ZM16.9201 21.4398L17.9051 21.6126C18.1851 20.0163 18.3201 18.0743 18.3201 15.7998H17.3201H16.3201C16.3201 18.0053 16.1884 19.8232 15.9351 21.267L16.9201 21.4398ZM29.1451 24.5598L29.7976 25.3175L29.7991 25.3162L29.1451 24.5598ZM35.1851 19.1198L35.879 19.8398L35.8792 19.8396L35.1851 19.1198ZM39.2251 6.23977L38.4532 6.87547L38.4587 6.88214L38.4643 6.88871L39.2251 6.23977ZM31.9851 6.39977L31.2301 5.74408L31.2287 5.74561L31.9851 6.39977ZM30.6251 10.3998V11.3998H31.5939L31.6246 10.4315L30.6251 10.3998ZM26.2251 10.3998L25.2254 10.3735L25.1984 11.3998H26.2251V10.3998ZM28.9451 3.43976L29.6234 4.17457L29.6238 4.17414L28.9451 3.43976ZM42.4251 3.39977L41.7238 4.11271L41.7297 4.11837L42.4251 3.39977ZM43.4251 15.3598L42.5497 14.8763L42.5472 14.8809L43.4251 15.3598ZM39.9451 20.1198L39.2245 19.4264L39.2243 19.4267L39.9451 20.1198ZM34.8251 24.9598L34.1625 24.2108L34.1607 24.2124L34.8251 24.9598ZM33.0251 26.5598L32.3607 25.8124L30.3949 27.5598H33.0251V26.5598ZM45.7051 26.5598H46.7051V25.5598H45.7051V26.5598ZM45.7051 30.3598V31.3598H46.7051V30.3598H45.7051ZM26.2651 30.3598H25.2651V31.3598H26.2651V30.3598ZM26.2651 27.0398L25.6126 26.282L25.2651 26.5812V27.0398H26.2651ZM29.1451 24.5598L29.7991 25.3162C32.3651 23.0977 34.3937 21.2711 35.879 19.8398L35.1851 19.1198L34.4912 18.3997C33.0431 19.7951 31.0451 21.5952 28.4911 23.8033L29.1451 24.5598ZM35.1851 19.1198L35.8792 19.8396C37.422 18.352 38.7141 16.7985 39.7482 15.1776L38.9051 14.6398L38.062 14.1019C37.1228 15.5743 35.9349 17.0075 34.491 18.3999L35.1851 19.1198ZM38.9051 14.6398L39.7482 15.1776C40.818 13.5006 41.3851 11.77 41.3851 9.99976H40.3851H39.3851C39.3851 11.3228 38.9656 12.6856 38.062 14.1019L38.9051 14.6398ZM40.3851 9.99976H41.3851C41.3851 8.24397 40.9596 6.73241 39.9859 5.59082L39.2251 6.23977L38.4643 6.88871C39.0372 7.56045 39.3851 8.55556 39.3851 9.99976H40.3851ZM39.2251 6.23977L39.997 5.60406C38.995 4.38725 37.4696 3.87976 35.6651 3.87976V4.87976V5.87976C37.1139 5.87976 37.9619 6.27894 38.4532 6.87547L39.2251 6.23977ZM35.6651 4.87976V3.87976C33.8572 3.87976 32.3333 4.47363 31.2301 5.74408L31.9851 6.39977L32.7401 7.05545C33.3968 6.29923 34.3264 5.87976 35.6651 5.87976V4.87976ZM31.9851 6.39977L31.2287 5.74561C30.1867 6.95049 29.6841 8.52592 29.6256 10.368L30.6251 10.3998L31.6246 10.4315C31.6728 8.91361 32.0769 7.82237 32.7415 7.05392L31.9851 6.39977ZM30.6251 10.3998V9.39977H26.2251V10.3998V11.3998H30.6251V10.3998ZM26.2251 10.3998L27.2248 10.4261C27.2998 7.57401 28.1415 5.54247 29.6234 4.17457L28.9451 3.43976L28.2668 2.70496C26.282 4.53706 25.3104 7.14552 25.2254 10.3735L26.2251 10.3998ZM28.9451 3.43976L29.6238 4.17414C31.1758 2.73977 33.1498 1.99977 35.6251 1.99977V0.999765V-0.000234604C32.7138 -0.000234604 30.2344 0.886424 28.2664 2.70539L28.9451 3.43976ZM35.6251 0.999765V1.99977C38.3446 1.99977 40.3318 2.74343 41.7239 4.11269L42.4251 3.39977L43.1263 2.68684C41.2651 0.856099 38.7189 -0.000234604 35.6251 -0.000234604V0.999765ZM42.4251 3.39977L41.7297 4.11837C43.1571 5.49971 43.9051 7.35715 43.9051 9.79976H44.9051H45.9051C45.9051 6.90905 44.9998 4.49982 43.1205 2.68116L42.4251 3.39977ZM44.9051 9.79976H43.9051C43.9051 11.54 43.46 13.2281 42.5497 14.8763L43.4251 15.3598L44.3005 15.8432C45.3636 13.9181 45.9051 11.8995 45.9051 9.79976H44.9051ZM43.4251 15.3598L42.5472 14.8809C41.6289 16.5645 40.5214 18.0787 39.2245 19.4264L39.9451 20.1198L40.6657 20.8131C42.0888 19.3342 43.3013 17.6751 44.303 15.8386L43.4251 15.3598ZM39.9451 20.1198L39.2243 19.4267C37.9158 20.7875 36.2304 22.3815 34.1625 24.2108L34.8251 24.9598L35.4877 25.7088C37.5798 23.858 39.3078 22.2254 40.6659 20.8129L39.9451 20.1198ZM34.8251 24.9598L34.1607 24.2124L32.3607 25.8124L33.0251 26.5598L33.6895 27.3072L35.4895 25.7072L34.8251 24.9598ZM33.0251 26.5598V27.5598H45.7051V26.5598V25.5598H33.0251V26.5598ZM45.7051 26.5598H44.7051V30.3598H45.7051H46.7051V26.5598H45.7051ZM45.7051 30.3598V29.3598H26.2651V30.3598V31.3598H45.7051V30.3598ZM26.2651 30.3598H27.2651V27.0398H26.2651H25.2651V30.3598H26.2651ZM26.2651 27.0398L26.9176 27.7975L29.7976 25.3175L29.1451 24.5598L28.4926 23.802L25.6126 26.282L26.2651 27.0398Z" fill="url(#paint0_linear_210_10950)" mask="url(#path-1-outside-1_210_10950)"/>
<defs>
<linearGradient id="paint0_linear_210_10950" x1="23.1001" y1="-11.2402" x2="23.5977" y2="52.4079" gradientUnits="userSpaceOnUse">
<stop stop-color="#FFF0F0"/>
<stop offset="1" stop-color="#FFF0F0" stop-opacity="0.16"/>
</linearGradient>
</defs>
</svg>
