<svg width="36" height="32" viewBox="0 0 36 32" fill="none" xmlns="http://www.w3.org/2000/svg">
<mask id="path-1-outside-1_210_10915" maskUnits="userSpaceOnUse" x="-0.399902" y="-0.319824" width="36" height="32" fill="black">
<rect fill="white" x="-0.399902" y="-0.319824" width="36" height="32"/>
<path d="M1.0001 15.7202C1.0001 11.1068 1.77343 7.50684 3.3201 4.92017C4.89343 2.30684 7.58676 1.00017 11.4001 1.00017C15.2134 1.00017 17.8934 2.30684 19.4401 4.92017C21.0134 7.50684 21.8001 11.1068 21.8001 15.7202C21.8001 20.3868 21.0134 24.0402 19.4401 26.6802C17.8934 29.2935 15.2134 30.6002 11.4001 30.6002C7.58676 30.6002 4.89343 29.2935 3.3201 26.6802C1.77343 24.0402 1.0001 20.3868 1.0001 15.7202ZM17.3201 15.7202C17.3201 13.5602 17.1734 11.7335 16.8801 10.2402C16.6134 8.74684 16.0534 7.53351 15.2001 6.60017C14.3468 5.64017 13.0801 5.16018 11.4001 5.16018C9.7201 5.16018 8.45343 5.64017 7.6001 6.60017C6.74676 7.53351 6.17343 8.74684 5.8801 10.2402C5.61343 11.7335 5.4801 13.5602 5.4801 15.7202C5.4801 17.9602 5.61343 19.8402 5.8801 21.3602C6.14676 22.8802 6.70676 24.1068 7.5601 25.0402C8.4401 25.9735 9.7201 26.4402 11.4001 26.4402C13.0801 26.4402 14.3468 25.9735 15.2001 25.0402C16.0801 24.1068 16.6534 22.8802 16.9201 21.3602C17.1868 19.8402 17.3201 17.9602 17.3201 15.7202ZM26.0251 5.68018V1.52017H34.3451V30.6802H29.7451V5.68018H26.0251Z"/>
</mask>
<path d="M3.3201 4.92017L2.46337 4.40439L2.46183 4.40698L3.3201 4.92017ZM19.4401 4.92017L18.5795 5.42953L18.5857 5.43984L19.4401 4.92017ZM19.4401 26.6802L18.5811 26.1682L18.5795 26.1709L19.4401 26.6802ZM3.3201 26.6802L2.45721 27.1857L2.46338 27.196L3.3201 26.6802ZM16.8801 10.2402L15.8957 10.416L15.8972 10.4245L15.8988 10.4329L16.8801 10.2402ZM15.2001 6.60017L14.4526 7.2646L14.4621 7.27494L15.2001 6.60017ZM7.6001 6.60017L8.3382 7.27501L8.34751 7.26454L7.6001 6.60017ZM5.8801 10.2402L4.89885 10.0474L4.89719 10.0559L4.89567 10.0644L5.8801 10.2402ZM5.8801 21.3602L6.86506 21.1874V21.1874L5.8801 21.3602ZM7.5601 25.0402L6.82207 25.7149L6.82725 25.7206L6.83251 25.7262L7.5601 25.0402ZM15.2001 25.0402L14.4725 24.3542L14.4672 24.3597L14.4621 24.3654L15.2001 25.0402ZM16.9201 21.3602L17.9051 21.533V21.533L16.9201 21.3602ZM1.0001 15.7202H2.0001C2.0001 11.1992 2.7612 7.80347 4.17837 5.43337L3.3201 4.92017L2.46183 4.40698C0.785665 7.21021 9.77516e-05 11.0145 9.77516e-05 15.7202H1.0001ZM3.3201 4.92017L4.17682 5.43596C5.52247 3.2008 7.83613 2.00017 11.4001 2.00017V1.00017V0.000173569C7.3374 0.000173569 4.26439 1.41288 2.46338 4.40439L3.3201 4.92017ZM11.4001 1.00017V2.00017C14.9646 2.00017 17.2604 3.20068 18.5795 5.42949L19.4401 4.92017L20.3007 4.41085C18.5264 1.413 15.4622 0.000173569 11.4001 0.000173569V1.00017ZM19.4401 4.92017L18.5857 5.43984C20.0264 7.80834 20.8001 11.2014 20.8001 15.7202H21.8001H22.8001C22.8001 11.0123 22.0005 7.20534 20.2945 4.40051L19.4401 4.92017ZM21.8001 15.7202H20.8001C20.8001 20.2929 20.0262 23.7434 18.5811 26.1682L19.4401 26.6802L20.2991 27.1921C22.0007 24.337 22.8001 20.4807 22.8001 15.7202H21.8001ZM19.4401 26.6802L18.5795 26.1709C17.2604 28.3997 14.9646 29.6002 11.4001 29.6002V30.6002V31.6002C15.4622 31.6002 18.5264 30.1873 20.3007 27.1895L19.4401 26.6802ZM11.4001 30.6002V29.6002C7.83613 29.6002 5.52247 28.3995 4.17682 26.1644L3.3201 26.6802L2.46338 27.196C4.26439 30.1875 7.3374 31.6002 11.4001 31.6002V30.6002ZM3.3201 26.6802L4.18293 26.1747C2.76135 23.7482 2.0001 20.2951 2.0001 15.7202H1.0001H9.77516e-05C9.77516e-05 20.4786 0.785516 24.3322 2.45727 27.1857L3.3201 26.6802ZM17.3201 15.7202H18.3201C18.3201 13.52 18.1711 11.6245 17.8613 10.0474L16.8801 10.2402L15.8988 10.4329C16.1757 11.8425 16.3201 13.6003 16.3201 15.7202H17.3201ZM16.8801 10.2402L17.8645 10.0644C17.5713 8.42229 16.9426 7.02409 15.9381 5.9254L15.2001 6.60017L14.4621 7.27494C15.1642 8.04292 15.6556 9.0714 15.8957 10.416L16.8801 10.2402ZM15.2001 6.60017L15.9475 5.93581C14.8502 4.70134 13.2725 4.16018 11.4001 4.16018V5.16018V6.16018C12.8877 6.16018 13.8433 6.57901 14.4527 7.26454L15.2001 6.60017ZM11.4001 5.16018V4.16018C9.52771 4.16018 7.95 4.70134 6.85269 5.93581L7.6001 6.60017L8.34751 7.26454C8.95686 6.57901 9.91248 6.16018 11.4001 6.16018V5.16018ZM7.6001 6.60017L6.86207 5.9254C5.86194 7.0193 5.2203 8.41094 4.89885 10.0474L5.8801 10.2402L6.86135 10.4329C7.12656 9.08274 7.63159 8.04772 8.33813 7.27494L7.6001 6.60017ZM5.8801 10.2402L4.89567 10.0644C4.61532 11.6344 4.4801 13.5238 4.4801 15.7202H5.4801H6.4801C6.4801 13.5966 6.61155 11.8326 6.86453 10.416L5.8801 10.2402ZM5.4801 15.7202H4.4801C4.4801 17.9947 4.6151 19.9367 4.89514 21.533L5.8801 21.3602L6.86506 21.1874C6.61176 19.7436 6.4801 17.9257 6.4801 15.7202H5.4801ZM5.8801 21.3602L4.89514 21.533C5.18741 23.1989 5.81461 24.613 6.82207 25.7149L7.5601 25.0402L8.29813 24.3654C7.59891 23.6006 7.10612 22.5615 6.86506 21.1874L5.8801 21.3602ZM7.5601 25.0402L6.83251 25.7262C7.95514 26.9169 9.53418 27.4402 11.4001 27.4402V26.4402V25.4402C9.90602 25.4402 8.92506 25.0302 8.28769 24.3542L7.5601 25.0402ZM11.4001 26.4402V27.4402C13.2641 27.4402 14.8386 26.9175 15.9381 25.7149L15.2001 25.0402L14.4621 24.3654C13.8549 25.0295 12.8961 25.4402 11.4001 25.4402V26.4402ZM15.2001 25.0402L15.9277 25.7262C16.9669 24.6239 17.6116 23.2059 17.9051 21.533L16.9201 21.3602L15.9351 21.1874C15.6953 22.5544 15.1933 23.5897 14.4725 24.3542L15.2001 25.0402ZM16.9201 21.3602L17.9051 21.533C18.1851 19.9367 18.3201 17.9947 18.3201 15.7202H17.3201H16.3201C16.3201 17.9257 16.1884 19.7436 15.9351 21.1874L16.9201 21.3602ZM26.0251 5.68018H25.0251V6.68018H26.0251V5.68018ZM26.0251 1.52017V0.520174H25.0251V1.52017H26.0251ZM34.3451 1.52017H35.3451V0.520174H34.3451V1.52017ZM34.3451 30.6802V31.6802H35.3451V30.6802H34.3451ZM29.7451 30.6802H28.7451V31.6802H29.7451V30.6802ZM29.7451 5.68018H30.7451V4.68018H29.7451V5.68018ZM26.0251 5.68018H27.0251V1.52017H26.0251H25.0251V5.68018H26.0251ZM26.0251 1.52017V2.52017H34.3451V1.52017V0.520174H26.0251V1.52017ZM34.3451 1.52017H33.3451V30.6802H34.3451H35.3451V1.52017H34.3451ZM34.3451 30.6802V29.6802H29.7451V30.6802V31.6802H34.3451V30.6802ZM29.7451 30.6802H30.7451V5.68018H29.7451H28.7451V30.6802H29.7451ZM29.7451 5.68018V4.68018H26.0251V5.68018V6.68018H29.7451V5.68018Z" fill="url(#paint0_linear_210_10915)" mask="url(#path-1-outside-1_210_10915)"/>
<defs>
<linearGradient id="paint0_linear_210_10915" x1="18.6001" y1="-11.3198" x2="19.2096" y2="52.3264" gradientUnits="userSpaceOnUse">
<stop stop-color="#FFF0F0"/>
<stop offset="1" stop-color="#FFF0F0" stop-opacity="0.16"/>
</linearGradient>
</defs>
</svg>
