<svg width="40" height="40" viewBox="0 0 40 40" fill="none" xmlns="http://www.w3.org/2000/svg">
<ellipse cx="15.2286" cy="15" rx="15.2286" ry="15" fill="#3E82DA"/>
<path d="M26.9445 12.0006C27.0795 12.0015 27.2145 12.0025 27.3536 12.0035C28.3777 12.0247 29.2645 12.142 30.2067 12.5656C30.3582 12.6322 30.5097 12.6989 30.6658 12.7675C32.7667 13.799 34.2596 15.5417 35.1213 17.7041C35.5218 19.0265 35.6678 20.7731 35.3238 22.1177C35.0396 22.125 34.7552 22.1246 34.471 22.1177C34.4147 22.0614 34.3584 22.0051 34.3004 21.9471C34.3004 21.6657 34.3004 21.3842 34.3004 21.0942C33.4561 21.0379 32.6117 20.9817 31.7418 20.9237C31.7559 21.1488 31.77 21.374 31.7845 21.606C31.7845 22.4508 31.6418 23.2202 31.4433 24.0366C31.4165 24.1514 31.3898 24.2662 31.3622 24.3844C31.1575 25.1797 30.8577 25.7319 30.3772 26.382C30.0395 26.2976 30.0395 26.2976 29.695 26.2114C29.7513 25.8174 29.8075 25.4234 29.8655 25.0174C28.6835 24.8485 28.6835 24.8485 27.4775 24.6763C27.4775 24.8451 27.4775 25.014 27.4775 25.188C27.0554 25.2724 27.0554 25.2724 26.6247 25.3586C26.5684 25.1334 26.5121 24.9082 26.4541 24.6763C25.2721 24.8451 25.2721 24.8451 24.0661 25.0174C24.1505 25.6084 24.1505 25.6084 24.2367 26.2114C23.899 26.2958 23.899 26.2958 23.5544 26.382C23.0016 25.6341 22.7005 24.9464 22.4883 24.0366C22.4449 23.8579 22.4449 23.8579 22.4006 23.6755C22.1865 22.7418 22.1299 21.8828 22.1898 20.9237C21.3455 20.98 20.5012 21.0362 19.6313 21.0942C19.6313 21.3757 19.6313 21.6571 19.6313 21.9471C19.4607 22.1177 19.4607 22.1177 19.0236 22.1283C18.8864 22.1248 18.7492 22.1213 18.6078 22.1177C18.0512 19.9607 18.6645 17.9441 19.6399 16.0217C20.7505 14.1633 22.6251 12.8183 24.6944 12.2105C25.4478 12.0296 26.172 11.9948 26.9445 12.0006ZM27.4775 13.0773C27.4775 14.0905 27.4775 15.1037 27.4775 16.1476C28.3219 16.1476 29.1662 16.1476 30.0361 16.1476C29.4361 14.7977 28.9737 13.7986 27.6481 13.0773C27.5918 13.0773 27.5355 13.0773 27.4775 13.0773ZM24.919 14.1008C24.515 14.7664 24.213 15.4333 23.8955 16.1476C24.7399 16.1476 25.5842 16.1476 26.4541 16.1476C26.4541 15.1344 26.4541 14.1212 26.4541 13.0773C25.8892 13.0773 25.2884 13.7333 24.919 14.1008ZM22.6269 14.3886C22.4618 14.5054 22.2967 14.6221 22.1265 14.7424C21.6783 15.124 21.4347 15.4578 21.1664 15.9771C21.7293 16.0333 22.2922 16.0896 22.8721 16.1476C22.9174 16.0324 22.9627 15.9172 23.0094 15.7985C23.0696 15.6463 23.1299 15.4942 23.1919 15.3374C23.281 15.1118 23.281 15.1118 23.3718 14.8817C23.5313 14.4975 23.7041 14.1287 23.8955 13.7596C23.3572 13.7596 23.0575 14.0792 22.6269 14.3886ZM30.0361 13.7596C30.3738 14.4914 30.7116 15.2231 31.0595 15.9771C31.5661 15.9771 32.0727 15.9771 32.5947 15.9771C32.4049 15.2178 32.2973 15.1261 31.6992 14.6764C31.5681 14.5757 31.4371 14.475 31.3021 14.3713C30.8373 14.0475 30.8373 14.0475 30.0361 13.7596ZM20.4841 16.8299C19.9142 17.8558 19.6538 18.7419 19.4607 19.9002C20.3613 19.9002 21.2619 19.9002 22.1898 19.9002C22.3024 18.9433 22.415 17.9864 22.531 17.0005C21.8555 16.9442 21.1801 16.8879 20.4841 16.8299ZM31.4007 17.0005C31.5132 17.9574 31.6258 18.9143 31.7418 19.9002C32.5861 19.9002 33.4305 19.9002 34.3004 19.9002C34.2327 18.6825 34.0545 17.8872 33.4475 16.8299C32.6489 16.8158 32.6489 16.8158 31.4007 17.0005ZM23.5544 17.1711C23.1581 18.5219 23.1581 18.5219 23.2133 19.9002C24.2827 19.9002 25.3522 19.9002 26.4541 19.9002C26.4541 18.9996 26.4541 18.099 26.4541 17.1711C25.4972 17.1711 24.5403 17.1711 23.5544 17.1711ZM27.4775 17.1711C27.4775 18.0717 27.4775 18.9723 27.4775 19.9002C28.547 19.9002 29.6165 19.9002 30.7184 19.9002C30.7735 18.5219 30.7735 18.5219 30.3772 17.1711C29.4203 17.1711 28.4634 17.1711 27.4775 17.1711ZM23.2133 20.9237C23.1802 22.1366 23.1802 22.1366 23.3838 23.2371C23.4401 23.4305 23.4964 23.624 23.5544 23.8234C24.5399 23.8439 25.4784 23.7948 26.4541 23.6528C26.4541 22.7522 26.4541 21.8516 26.4541 20.9237C25.3846 20.9237 24.3152 20.9237 23.2133 20.9237ZM27.4775 20.9237C27.4775 21.8243 27.4775 22.7249 27.4775 23.6528C28.2363 23.7612 28.8543 23.8443 29.599 23.8341C29.7466 23.8325 29.8941 23.831 30.0461 23.8294C30.1554 23.8274 30.2647 23.8254 30.3772 23.8234C30.4335 23.6299 30.4898 23.4364 30.5478 23.2371C30.5795 23.1282 30.6111 23.0194 30.6438 22.9072C30.7524 22.2546 30.7184 21.5853 30.7184 20.9237C29.6489 20.9237 28.5794 20.9237 27.4775 20.9237Z" fill="white"/>
<path d="M32.1323 34.1865C32.4234 34.399 32.4234 34.399 32.7646 34.9108C32.8408 35.4128 32.8277 35.9174 32.8285 36.4246C32.8327 36.5616 32.8369 36.6986 32.8412 36.8397C32.8446 37.5361 32.821 37.8917 32.4408 38.4941C31.8918 39.0145 31.5792 39.0272 30.8391 39.0347C30.6507 39.0369 30.4622 39.0391 30.268 39.0413C30.0635 39.0426 29.859 39.0438 29.6483 39.0451C29.3341 39.0472 29.3341 39.0472 29.0134 39.0493C28.5694 39.0517 28.1253 39.0535 27.6812 39.0548C27.0017 39.0571 26.3224 39.0653 25.6429 39.0728C25.2119 39.0745 24.7809 39.076 24.35 39.0771C24.0448 39.0816 24.0448 39.0816 23.7334 39.0862C22.3216 39.0825 22.3216 39.0825 21.6384 38.6801C21.0604 37.9952 21.1167 37.3394 21.1018 36.4779C21.0954 36.3401 21.089 36.2024 21.0825 36.0605C21.0718 35.3376 21.0915 35.0107 21.5342 34.415C22.0187 34.0578 22.451 33.82 23.0101 33.5995C23.2597 33.4982 23.2597 33.4982 23.5144 33.3949C26.452 32.3826 29.4219 32.6528 32.1323 34.1865ZM22.1892 35.2519C22.18 35.6428 22.1734 36.0337 22.1679 36.4246C22.1639 36.6423 22.1599 36.8599 22.1559 37.0842C22.1284 37.6546 22.1284 37.6546 22.5303 37.9811C22.9209 38.0333 22.9209 38.0333 23.3778 38.0252C23.5543 38.0263 23.7307 38.0274 23.9125 38.0285C24.1037 38.0278 24.2949 38.0271 24.4919 38.0264C24.6875 38.0267 24.883 38.027 25.0846 38.0274C25.4987 38.0276 25.9128 38.027 26.3269 38.0255C26.9625 38.0237 27.5981 38.0255 28.2338 38.0277C28.6353 38.0275 29.0369 38.027 29.4384 38.0264C29.7252 38.0274 29.7252 38.0274 30.0178 38.0285C30.2825 38.0269 30.2825 38.0269 30.5525 38.0252C30.7083 38.0249 30.8641 38.0247 31.0246 38.0244C31.4354 38.0164 31.4354 38.0164 31.7412 37.6399C31.7827 37.0672 31.7827 37.0672 31.7625 36.4246C31.7594 36.206 31.7563 35.9875 31.7531 35.7623C31.7492 35.5939 31.7452 35.4254 31.7412 35.2519C28.5244 33.3715 25.4525 33.4609 22.1892 35.2519Z" fill="white"/>
<path d="M38.7353 30.1345C39.2333 30.5678 39.3975 30.9123 39.4522 31.5823C39.4679 32.5278 39.4788 33.2595 38.9058 34.0576C38.2993 34.4712 37.7313 34.4428 37.0122 34.4441C36.8966 34.4444 36.781 34.4447 36.6619 34.4451C36.4185 34.4453 36.1751 34.4447 35.9317 34.4432C35.5584 34.4414 35.1853 34.4432 34.8121 34.4454C34.5754 34.4452 34.3386 34.4447 34.1019 34.4441C33.8865 34.4437 33.6711 34.4433 33.4491 34.4429C32.9358 34.3988 32.9358 34.3988 32.5947 34.0576C32.651 33.8325 32.7073 33.6073 32.7653 33.3753C34.5665 33.319 36.3677 33.2628 38.2235 33.2048C38.2235 32.6419 38.2235 32.079 38.2235 31.499C37.2162 30.4917 35.895 30.1952 34.4996 30.1158C33.2898 30.1576 32.1381 30.4457 31.0596 30.9873C30.5905 31.0086 30.5905 31.0086 30.2067 30.9873C30.1504 30.7059 30.0941 30.4244 30.0361 30.1345C32.8192 28.5519 35.9627 28.5213 38.7353 30.1345Z" fill="white"/>
<path d="M23.8954 30.1339C23.8391 30.4154 23.7829 30.6968 23.7249 30.9868C23.0653 31.0233 22.6219 30.9209 22.0192 30.6563C20.2043 29.8651 18.4253 30.1065 16.6022 30.7936C16.1626 30.9907 16.1626 30.9907 15.708 31.4985C15.708 32.0614 15.708 32.6243 15.708 33.2042C18.4099 33.2887 18.4099 33.2887 21.1663 33.3748C21.1663 33.6562 21.1663 33.9377 21.1663 34.2277C20.7137 34.6803 19.4217 34.4375 18.7706 34.4392C18.3984 34.4409 18.0264 34.4462 17.6543 34.4515C17.4168 34.4527 17.1794 34.4536 16.942 34.4542C16.618 34.4566 16.618 34.4566 16.2875 34.459C15.6656 34.3938 15.3484 34.2633 14.8552 33.8865C14.3803 33.0257 14.4246 32.1138 14.514 31.1574C14.7768 30.4308 15.1929 30.1331 15.8739 29.7775C18.5804 28.5624 21.3006 28.6868 23.8954 30.1339Z" fill="white"/>
<path d="M28.3937 26.2429C29.2162 26.8108 29.6578 27.4495 29.8649 28.4284C29.8814 29.4513 29.7052 30.2025 29.012 30.9869C28.1904 31.6114 27.5577 31.7815 26.5267 31.7345C25.6186 31.5914 25.0808 31.1965 24.5132 30.4646C24.0852 29.6909 23.9933 29.1381 24.0654 28.2578C24.3742 27.3585 24.7877 26.732 25.6006 26.2109C26.5278 25.9018 27.4738 25.9192 28.3937 26.2429ZM25.1955 28.0552C25.0294 28.6363 25.1065 29.0412 25.2594 29.6224C25.7709 30.2256 26.1273 30.6087 26.9225 30.6991C27.6279 30.6313 27.961 30.417 28.5003 29.9635C28.8033 29.4628 28.8445 29.1835 28.8201 28.5989C28.6479 28.0084 28.4083 27.6795 27.9886 27.2343C26.8482 26.6641 25.9088 27.1149 25.1955 28.0552Z" fill="white"/>
<path d="M20.3141 23.3127C21.1358 23.7158 21.6107 24.2003 22.0198 25.0185C22.1816 25.9273 22.0194 26.6308 21.5081 27.4065C20.8804 27.9871 20.4394 28.237 19.5785 28.302C18.6702 28.2404 18.1493 27.9889 17.5317 27.3212C17.0487 26.6057 17.0157 26.0385 17.0733 25.189C17.6514 23.6371 18.75 23.1255 20.3141 23.3127ZM18.2673 25.0185C18.0543 25.5993 18.0543 25.5993 18.0967 26.2125C18.422 26.8111 18.6342 27.016 19.28 27.2359C19.9052 27.2359 20.1658 27.1049 20.6553 26.7242C21.0525 26.2336 21.0525 26.2336 20.9857 25.6261C20.8729 25.0042 20.8729 25.0042 20.442 24.6027C19.5306 24.0848 18.9728 24.2541 18.2673 25.0185Z" fill="white"/>
<path d="M35.1526 23.3118C36.0256 23.7644 36.5474 24.2553 36.8584 25.1881C36.9259 26.0834 36.8354 26.6471 36.3466 27.4055C35.719 27.9861 35.278 28.2361 34.4171 28.301C33.5088 28.2395 32.9879 27.988 32.3702 27.3202C31.879 26.5925 31.796 25.8768 31.9118 25.0175C32.5979 23.6452 33.6499 23.0425 35.1526 23.3118ZM33.1058 25.0175C32.8929 25.5984 32.8929 25.5984 32.9352 26.2115C33.2606 26.8101 33.4728 27.0151 34.1186 27.235C34.7438 27.235 35.0043 27.1039 35.4938 26.7232C35.891 26.2327 35.891 26.2327 35.8243 25.6252C35.7114 25.0033 35.7114 25.0033 35.2806 24.6017C34.3691 24.0839 33.8113 24.2532 33.1058 25.0175Z" fill="white"/>
</svg>
