<svg width="49" height="32" viewBox="0 0 49 32" fill="none" xmlns="http://www.w3.org/2000/svg">
<mask id="path-1-outside-1_210_10965" maskUnits="userSpaceOnUse" x="-0.399902" y="-0.120117" width="49" height="32" fill="black">
<rect fill="white" x="-0.399902" y="-0.120117" width="49" height="32"/>
<path d="M1.0001 15.9199C1.0001 11.3065 1.77343 7.70655 3.3201 5.11988C4.89343 2.50655 7.58676 1.19988 11.4001 1.19988C15.2134 1.19988 17.8934 2.50655 19.4401 5.11988C21.0134 7.70655 21.8001 11.3065 21.8001 15.9199C21.8001 20.5865 21.0134 24.2399 19.4401 26.8799C17.8934 29.4932 15.2134 30.7999 11.4001 30.7999C7.58676 30.7999 4.89343 29.4932 3.3201 26.8799C1.77343 24.2399 1.0001 20.5865 1.0001 15.9199ZM17.3201 15.9199C17.3201 13.7599 17.1734 11.9332 16.8801 10.4399C16.6134 8.94655 16.0534 7.73321 15.2001 6.79988C14.3468 5.83988 13.0801 5.35988 11.4001 5.35988C9.7201 5.35988 8.45343 5.83988 7.6001 6.79988C6.74676 7.73321 6.17343 8.94655 5.8801 10.4399C5.61343 11.9332 5.4801 13.7599 5.4801 15.9199C5.4801 18.1599 5.61343 20.0399 5.8801 21.5599C6.14676 23.0799 6.70676 24.3065 7.5601 25.2399C8.4401 26.1732 9.7201 26.6399 11.4001 26.6399C13.0801 26.6399 14.3468 26.1732 15.2001 25.2399C16.0801 24.3065 16.6534 23.0799 16.9201 21.5599C17.1868 20.0399 17.3201 18.1599 17.3201 15.9199ZM42.3051 8.47988C42.0118 7.25322 41.4784 6.33322 40.7051 5.71988C39.9318 5.10655 38.8518 4.79988 37.4651 4.79988C35.3584 4.79988 33.7851 5.61322 32.7451 7.23988C31.7051 8.83988 31.1584 11.5065 31.1051 15.2399C31.7984 14.0665 32.8118 13.1599 34.1451 12.5199C35.4784 11.8799 36.9184 11.5599 38.4651 11.5599C40.2251 11.5599 41.7718 11.9465 43.1051 12.7199C44.4651 13.4665 45.5184 14.5599 46.2651 15.9999C47.0384 17.4399 47.4251 19.1599 47.4251 21.1599C47.4251 23.0265 47.0518 24.6932 46.3051 26.1599C45.5851 27.6265 44.5051 28.7865 43.0651 29.6399C41.6251 30.4665 39.8918 30.8799 37.8651 30.8799C35.1184 30.8799 32.9584 30.2799 31.3851 29.0799C29.8384 27.8532 28.7451 26.1332 28.1051 23.9199C27.4918 21.7065 27.1851 18.9465 27.1851 15.6399C27.1851 5.87988 30.6251 0.999881 37.5051 0.999881C40.1718 0.999881 42.2651 1.71988 43.7851 3.15988C45.3318 4.59988 46.2384 6.37321 46.5051 8.47988H42.3051ZM37.4651 15.3999C35.8384 15.3999 34.4518 15.8932 33.3051 16.8799C32.1851 17.8399 31.6251 19.2399 31.6251 21.0799C31.6251 22.9199 32.1451 24.3865 33.1851 25.4799C34.2518 26.5465 35.7318 27.0799 37.6251 27.0799C39.3051 27.0799 40.6251 26.5599 41.5851 25.5199C42.5718 24.4799 43.0651 23.0932 43.0651 21.3599C43.0651 19.5465 42.5851 18.1065 41.6251 17.0399C40.6918 15.9465 39.3051 15.3999 37.4651 15.3999Z"/>
</mask>
<path d="M3.3201 5.11988L2.46337 4.6041L2.46183 4.60669L3.3201 5.11988ZM19.4401 5.11988L18.5795 5.62924L18.5857 5.63955L19.4401 5.11988ZM19.4401 26.8799L18.5811 26.3679L18.5795 26.3706L19.4401 26.8799ZM3.3201 26.8799L2.45721 27.3854L2.46338 27.3957L3.3201 26.8799ZM16.8801 10.4399L15.8957 10.6157L15.8972 10.6242L15.8988 10.6326L16.8801 10.4399ZM15.2001 6.79988L14.4526 7.46431L14.4621 7.47465L15.2001 6.79988ZM7.6001 6.79988L8.3382 7.47472L8.34751 7.46424L7.6001 6.79988ZM5.8801 10.4399L4.89885 10.2471L4.89719 10.2556L4.89567 10.2641L5.8801 10.4399ZM5.8801 21.5599L6.86506 21.3871V21.3871L5.8801 21.5599ZM7.5601 25.2399L6.82207 25.9146L6.82725 25.9203L6.83251 25.9259L7.5601 25.2399ZM15.2001 25.2399L14.4725 24.5539L14.4672 24.5595L14.4621 24.5651L15.2001 25.2399ZM16.9201 21.5599L17.9051 21.7327V21.7327L16.9201 21.5599ZM1.0001 15.9199H2.0001C2.0001 11.3989 2.7612 8.00318 4.17837 5.63307L3.3201 5.11988L2.46183 4.60669C0.785665 7.40992 9.77516e-05 11.2142 9.77516e-05 15.9199H1.0001ZM3.3201 5.11988L4.17682 5.63566C5.52247 3.40051 7.83613 2.19988 11.4001 2.19988V1.19988V0.199881C7.3374 0.199881 4.26439 1.61259 2.46338 4.6041L3.3201 5.11988ZM11.4001 1.19988V2.19988C14.9646 2.19988 17.2604 3.40039 18.5795 5.6292L19.4401 5.11988L20.3007 4.61056C18.5264 1.61271 15.4622 0.199881 11.4001 0.199881V1.19988ZM19.4401 5.11988L18.5857 5.63955C20.0264 8.00805 20.8001 11.4011 20.8001 15.9199H21.8001H22.8001C22.8001 11.212 22.0005 7.40505 20.2945 4.60021L19.4401 5.11988ZM21.8001 15.9199H20.8001C20.8001 20.4926 20.0262 23.9431 18.5811 26.3679L19.4401 26.8799L20.2991 27.3918C22.0007 24.5367 22.8001 20.6805 22.8001 15.9199H21.8001ZM19.4401 26.8799L18.5795 26.3706C17.2604 28.5994 14.9646 29.7999 11.4001 29.7999V30.7999V31.7999C15.4622 31.7999 18.5264 30.3871 20.3007 27.3892L19.4401 26.8799ZM11.4001 30.7999V29.7999C7.83613 29.7999 5.52247 28.5993 4.17682 26.3641L3.3201 26.8799L2.46338 27.3957C4.26439 30.3872 7.3374 31.7999 11.4001 31.7999V30.7999ZM3.3201 26.8799L4.18293 26.3744C2.76135 23.9479 2.0001 20.4948 2.0001 15.9199H1.0001H9.77516e-05C9.77516e-05 20.6783 0.785516 24.5319 2.45727 27.3854L3.3201 26.8799ZM17.3201 15.9199H18.3201C18.3201 13.7197 18.1711 11.8242 17.8613 10.2471L16.8801 10.4399L15.8988 10.6326C16.1757 12.0422 16.3201 13.8 16.3201 15.9199H17.3201ZM16.8801 10.4399L17.8645 10.2641C17.5713 8.62199 16.9426 7.2238 15.9381 6.12511L15.2001 6.79988L14.4621 7.47465C15.1642 8.24263 15.6556 9.2711 15.8957 10.6157L16.8801 10.4399ZM15.2001 6.79988L15.9475 6.13552C14.8502 4.90104 13.2725 4.35988 11.4001 4.35988V5.35988V6.35988C12.8877 6.35988 13.8433 6.77872 14.4527 7.46424L15.2001 6.79988ZM11.4001 5.35988V4.35988C9.52771 4.35988 7.95 4.90104 6.85269 6.13552L7.6001 6.79988L8.34751 7.46424C8.95686 6.77872 9.91248 6.35988 11.4001 6.35988V5.35988ZM7.6001 6.79988L6.86207 6.12511C5.86194 7.219 5.2203 8.61065 4.89885 10.2471L5.8801 10.4399L6.86135 10.6326C7.12656 9.28245 7.63159 8.24743 8.33813 7.47465L7.6001 6.79988ZM5.8801 10.4399L4.89567 10.2641C4.61532 11.8341 4.4801 13.7235 4.4801 15.9199H5.4801H6.4801C6.4801 13.7963 6.61155 12.0324 6.86453 10.6157L5.8801 10.4399ZM5.4801 15.9199H4.4801C4.4801 18.1944 4.6151 20.1364 4.89514 21.7327L5.8801 21.5599L6.86506 21.3871C6.61176 19.9433 6.4801 18.1254 6.4801 15.9199H5.4801ZM5.8801 21.5599L4.89514 21.7327C5.18741 23.3986 5.81461 24.8127 6.82207 25.9146L7.5601 25.2399L8.29813 24.5651C7.59891 23.8004 7.10612 22.7612 6.86506 21.3871L5.8801 21.5599ZM7.5601 25.2399L6.83251 25.9259C7.95514 27.1166 9.53418 27.6399 11.4001 27.6399V26.6399V25.6399C9.90602 25.6399 8.92506 25.2299 8.28769 24.5539L7.5601 25.2399ZM11.4001 26.6399V27.6399C13.2641 27.6399 14.8386 27.1172 15.9381 25.9147L15.2001 25.2399L14.4621 24.5651C13.8549 25.2292 12.8961 25.6399 11.4001 25.6399V26.6399ZM15.2001 25.2399L15.9277 25.9259C16.9669 24.8237 17.6116 23.4056 17.9051 21.7327L16.9201 21.5599L15.9351 21.3871C15.6953 22.7541 15.1933 23.7894 14.4725 24.5539L15.2001 25.2399ZM16.9201 21.5599L17.9051 21.7327C18.1851 20.1364 18.3201 18.1944 18.3201 15.9199H17.3201H16.3201C16.3201 18.1254 16.1884 19.9433 15.9351 21.3871L16.9201 21.5599ZM42.3051 8.47988L41.3325 8.71246L41.516 9.47988H42.3051V8.47988ZM40.7051 5.71988L41.3265 4.93638V4.93638L40.7051 5.71988ZM32.7451 7.23988L33.5836 7.78489L33.5876 7.77854L32.7451 7.23988ZM31.1051 15.2399L30.1052 15.2256L30.0514 18.9887L31.966 15.7486L31.1051 15.2399ZM43.1051 12.7199L42.6034 13.5849L42.6135 13.5908L42.6238 13.5965L43.1051 12.7199ZM46.2651 15.9999L45.3773 16.4602L45.3807 16.4666L45.3841 16.473L46.2651 15.9999ZM46.3051 26.1599L45.4139 25.7062L45.4106 25.7127L45.4074 25.7192L46.3051 26.1599ZM43.0651 29.6399L43.563 30.5072L43.5749 30.5002L43.0651 29.6399ZM31.3851 29.0799L30.7637 29.8634L30.7711 29.8693L30.7786 29.875L31.3851 29.0799ZM28.1051 23.9199L27.1414 24.1869L27.1445 24.1977L28.1051 23.9199ZM43.7851 3.15988L43.0973 3.88586L43.1037 3.89178L43.7851 3.15988ZM46.5051 8.47988V9.47988H47.6397L47.4972 8.3543L46.5051 8.47988ZM33.3051 16.8799L33.9559 17.6391L33.9573 17.6379L33.3051 16.8799ZM33.1851 25.4799L32.4605 26.1691L32.4692 26.1782L32.478 26.187L33.1851 25.4799ZM41.5851 25.5199L40.8596 24.8316L40.8503 24.8416L41.5851 25.5199ZM41.6251 17.0399L40.8645 17.6891L40.873 17.6991L40.8818 17.7088L41.6251 17.0399ZM42.3051 8.47988L43.2777 8.24731C42.9469 6.86417 42.319 5.72353 41.3265 4.93638L40.7051 5.71988L40.0837 6.50338C40.6379 6.9429 41.0766 7.64226 41.3325 8.71246L42.3051 8.47988ZM40.7051 5.71988L41.3265 4.93638C40.3171 4.13579 38.9878 3.79988 37.4651 3.79988V4.79988V5.79988C38.7158 5.79988 39.5465 6.0773 40.0837 6.50338L40.7051 5.71988ZM37.4651 4.79988V3.79988C35.0543 3.79988 33.1455 4.75724 31.9026 6.70122L32.7451 7.23988L33.5876 7.77854C34.4247 6.46919 35.6625 5.79988 37.4651 5.79988V4.79988ZM32.7451 7.23988L31.9067 6.69489C30.7049 8.54377 30.1591 11.4536 30.1052 15.2256L31.1051 15.2399L32.105 15.2542C32.1578 11.5595 32.7053 9.13599 33.5835 7.78487L32.7451 7.23988ZM31.1051 15.2399L31.966 15.7486C32.55 14.7603 33.4071 13.9834 34.5778 13.4214L34.1451 12.5199L33.7124 11.6184C32.2165 12.3364 31.0468 13.3728 30.2442 14.7312L31.1051 15.2399ZM34.1451 12.5199L34.5778 13.4214C35.7699 12.8492 37.0612 12.5599 38.4651 12.5599V11.5599V10.5599C36.7757 10.5599 35.187 10.9106 33.7124 11.6184L34.1451 12.5199ZM38.4651 11.5599V12.5599C40.0743 12.5599 41.443 12.9119 42.6034 13.5849L43.1051 12.7199L43.6068 11.8549C42.1005 10.9812 40.3759 10.5599 38.4651 10.5599V11.5599ZM43.1051 12.7199L42.6238 13.5965C43.8019 14.2432 44.7175 15.1877 45.3773 16.4602L46.2651 15.9999L47.1529 15.5396C46.3193 13.932 45.1283 12.6899 43.5864 11.8433L43.1051 12.7199ZM46.2651 15.9999L45.3841 16.473C46.0637 17.7385 46.4251 19.2885 46.4251 21.1599H47.4251H48.4251C48.4251 19.0313 48.0132 17.1413 47.1461 15.5268L46.2651 15.9999ZM47.4251 21.1599H46.4251C46.4251 22.8902 46.08 24.3979 45.4139 25.7062L46.3051 26.1599L47.1963 26.6136C48.0236 24.9885 48.4251 23.1629 48.4251 21.1599H47.4251ZM46.3051 26.1599L45.4074 25.7192C44.7754 27.0068 43.8323 28.0229 42.5553 28.7796L43.0651 29.6399L43.5749 30.5002C45.1779 29.5502 46.3948 28.2463 47.2028 26.6006L46.3051 26.1599ZM43.0651 29.6399L42.5672 28.7726C41.3089 29.495 39.7554 29.8799 37.8651 29.8799V30.8799V31.8799C40.0281 31.8799 41.9413 31.4381 43.563 30.5071L43.0651 29.6399ZM37.8651 30.8799V29.8799C35.2542 29.8799 33.3343 29.3089 31.9915 28.2848L31.3851 29.0799L30.7786 29.875C32.5826 31.2509 34.9827 31.8799 37.8651 31.8799V30.8799ZM31.3851 29.0799L32.0065 28.2964C30.6487 27.2195 29.6579 25.6901 29.0657 23.6421L28.1051 23.9199L27.1445 24.1977C27.8323 26.5763 29.0281 28.4869 30.7637 29.8634L31.3851 29.0799ZM28.1051 23.9199L29.0688 23.6528C28.4876 21.5554 28.1851 18.8922 28.1851 15.6399H27.1851H26.1851C26.1851 19.0009 26.496 21.8577 27.1414 24.1869L28.1051 23.9199ZM27.1851 15.6399H28.1851C28.1851 10.8469 29.0353 7.43084 30.5824 5.23604C32.0845 3.10522 34.3332 1.99988 37.5051 1.99988V0.999882V-0.000118256C33.797 -0.000118256 30.8857 1.33454 28.9478 4.08372C27.0549 6.76892 26.1851 10.6729 26.1851 15.6399H27.1851ZM37.5051 0.999882V1.99988C39.9888 1.99988 41.81 2.66624 43.0974 3.88583L43.7851 3.15988L44.4728 2.43393C42.7202 0.773522 40.3548 -0.000118256 37.5051 -0.000118256V0.999882ZM43.7851 3.15988L43.1037 3.89178C44.4781 5.17142 45.2756 6.7298 45.513 8.60546L46.5051 8.47988L47.4972 8.3543C47.2013 6.01663 46.1854 4.02835 44.4665 2.42799L43.7851 3.15988ZM46.5051 8.47988V7.47988H42.3051V8.47988V9.47988H46.5051V8.47988ZM37.4651 15.3999V14.3999C35.6186 14.3999 33.9952 14.9668 32.6529 16.1219L33.3051 16.8799L33.9573 17.6379C34.9083 16.8196 36.0583 16.3999 37.4651 16.3999V15.3999ZM33.3051 16.8799L32.6543 16.1206C31.2594 17.3162 30.6251 19.0262 30.6251 21.0799H31.6251H32.6251C32.6251 19.4535 33.1108 18.3635 33.9559 17.6391L33.3051 16.8799ZM31.6251 21.0799H30.6251C30.6251 23.117 31.2066 24.8508 32.4605 26.1691L33.1851 25.4799L33.9097 24.7907C33.0836 23.9223 32.6251 22.7228 32.6251 21.0799H31.6251ZM33.1851 25.4799L32.478 26.187C33.7773 27.4863 35.5379 28.0799 37.6251 28.0799V27.0799V26.0799C35.9256 26.0799 34.7263 25.6068 33.8922 24.7728L33.1851 25.4799ZM37.6251 27.0799V28.0799C39.5274 28.0799 41.1352 27.4815 42.3199 26.1982L41.5851 25.5199L40.8503 24.8416C40.115 25.6382 39.0828 26.0799 37.6251 26.0799V27.0799ZM41.5851 25.5199L42.3106 26.2081C43.509 24.9449 44.0651 23.2926 44.0651 21.3599H43.0651H42.0651C42.0651 22.8938 41.6345 24.0149 40.8596 24.8316L41.5851 25.5199ZM43.0651 21.3599H44.0651C44.0651 19.367 43.5338 17.6658 42.3684 16.3709L41.6251 17.0399L40.8818 17.7088C41.6364 18.5473 42.0651 19.7261 42.0651 21.3599H43.0651ZM41.6251 17.0399L42.3857 16.3906C41.2117 15.0155 39.5096 14.3999 37.4651 14.3999V15.3999V16.3999C39.1006 16.3999 40.1718 16.8776 40.8645 17.6891L41.6251 17.0399Z" fill="url(#paint0_linear_210_10965)" mask="url(#path-1-outside-1_210_10965)"/>
<defs>
<linearGradient id="paint0_linear_210_10965" x1="24.6001" y1="-11.1201" x2="25.069" y2="52.5285" gradientUnits="userSpaceOnUse">
<stop stop-color="#FFF0F0"/>
<stop offset="1" stop-color="#FFF0F0" stop-opacity="0.16"/>
</linearGradient>
</defs>
</svg>
