<svg width="42" height="40" viewBox="0 0 42 40" fill="none" xmlns="http://www.w3.org/2000/svg">
<ellipse cx="15.2286" cy="15" rx="15.2286" ry="15" fill="#3E82DA"/>
<path d="M26.7294 13.0107C26.8097 13.01 26.8097 13.01 26.8917 13.0092C26.978 13.0089 26.978 13.0089 27.0661 13.0085C27.1554 13.0081 27.1554 13.0081 27.2464 13.0076C27.3723 13.0071 27.4983 13.0068 27.6242 13.0066C27.8163 13.0061 28.0084 13.0044 28.2005 13.0028C28.3229 13.0024 28.4454 13.0022 28.5678 13.002C28.6537 13.001 28.6537 13.001 28.7413 13C29.166 13.0012 29.4791 13.064 29.8074 13.3579C30.0789 13.6732 30.1183 14.0429 30.1088 14.4423C30.1085 14.4906 30.1082 14.539 30.1079 14.5888C30.1067 14.7415 30.1041 14.8941 30.1014 15.0467C30.1004 15.151 30.0994 15.2552 30.0985 15.3594C30.0962 15.6134 30.0926 15.8673 30.0883 16.1213C30.1243 16.127 30.1603 16.1328 30.1974 16.1387C30.5298 16.195 30.8422 16.2709 31.1595 16.3842C31.2038 16.3998 31.2481 16.4155 31.2937 16.4316C31.989 16.6851 32.6526 17.018 33.2955 17.3831C33.3599 17.3175 33.3599 17.3175 33.4256 17.2505C33.5857 17.0875 33.7463 16.9251 33.9071 16.7628C33.9765 16.6926 34.0458 16.6223 34.1149 16.5519C34.2145 16.4503 34.3146 16.3493 34.4148 16.2484C34.4454 16.217 34.476 16.1856 34.5075 16.1533C34.7938 15.8669 35.0667 15.725 35.4735 15.6982C36.2013 15.7115 36.7122 16.4228 37.1947 16.9C37.2528 16.9572 37.3111 17.0141 37.3698 17.0708C38.1808 17.8546 38.1808 17.8546 38.218 18.4347C38.1746 19.0946 37.6672 19.5106 37.2224 19.9397C37.1576 20.0031 37.093 20.0666 37.0284 20.1301C36.8714 20.2842 36.7136 20.4375 36.5553 20.5904C36.622 20.7964 36.6935 20.9777 36.8017 21.1654C37.1681 21.8268 37.4383 22.4972 37.6594 23.2192C37.6797 23.2848 37.6999 23.3504 37.7208 23.418C37.7646 23.5873 37.7646 23.5873 37.7646 23.7976C37.8271 23.7965 37.8897 23.7954 37.9541 23.7942C38.1883 23.7904 38.4225 23.788 38.6567 23.786C38.7576 23.785 38.8586 23.7835 38.9596 23.7817C40.1759 23.7602 40.1759 23.7602 40.5464 24.1C40.7966 24.3652 40.8821 24.6194 40.8863 24.9839C40.8878 25.0425 40.8893 25.1011 40.8909 25.1615C40.8615 25.3562 40.813 25.4167 40.6563 25.5326C40.469 25.556 40.3449 25.5632 40.177 25.4725C40.0445 25.342 40.0287 25.2337 39.9925 25.0529C39.9714 24.9493 39.948 24.846 39.9202 24.744C39.7956 24.6817 39.7195 24.6845 39.5805 24.6839C39.5319 24.6836 39.4832 24.6832 39.4331 24.6828C39.3805 24.6826 39.3278 24.6824 39.2735 24.6822C39.1624 24.6809 39.0513 24.6797 38.9403 24.6784C38.7648 24.6765 38.5893 24.675 38.4138 24.6743C38.2447 24.6734 38.0756 24.6713 37.9065 24.669C37.8541 24.6691 37.8017 24.6692 37.7478 24.6693C37.5179 24.6653 37.3811 24.6613 37.1812 24.5406C37.0603 24.4053 37.0221 24.3013 36.9759 24.1262C36.9589 24.0655 36.9419 24.0047 36.9243 23.9422C36.9067 23.8771 36.889 23.812 36.8707 23.745C36.5957 22.8031 36.2361 21.9232 35.7342 21.0781C35.5048 20.6901 35.5048 20.6901 35.5563 20.4326C35.7078 20.1753 35.8924 19.9809 36.1073 19.7754C36.1735 19.7108 36.2397 19.6462 36.3058 19.5815C36.4094 19.4809 36.5132 19.3805 36.6174 19.2804C36.7185 19.1831 36.8188 19.085 36.919 18.9868C36.9659 18.9424 36.9659 18.9424 37.0138 18.8971C37.1522 18.7604 37.2309 18.667 37.2974 18.4813C37.2894 18.2815 37.2326 18.2242 37.0932 18.0831C37.0494 18.0379 37.0057 17.9927 36.9606 17.9461C36.9136 17.8991 36.8666 17.8522 36.8182 17.8038C36.7727 17.7563 36.7273 17.7087 36.6805 17.6598C36.5405 17.5135 36.3986 17.3693 36.2562 17.2254C36.2084 17.176 36.1605 17.1266 36.1111 17.0757C36.0645 17.0286 36.0178 16.9815 35.9697 16.9329C35.9281 16.8906 35.8866 16.8482 35.8437 16.8046C35.6962 16.6852 35.585 16.63 35.3986 16.5945C35.2914 16.639 35.2914 16.639 35.207 16.7333C35.1535 16.7852 35.1535 16.7852 35.099 16.8382C35.0591 16.8792 35.0191 16.9202 34.978 16.9625C34.9074 17.0326 34.9074 17.0326 34.8353 17.1041C34.6494 17.2891 34.4655 17.476 34.2821 17.6635C34.203 17.7441 34.1236 17.8245 34.0441 17.9048C33.9975 17.9523 33.9509 17.9998 33.9029 18.0487C33.7248 18.2121 33.5806 18.3161 33.3415 18.3591C33.097 18.3236 32.9401 18.2341 32.7282 18.111C31.9488 17.6634 31.1377 17.3071 30.2701 17.0725C30.139 17.037 30.0084 17.0002 29.878 16.9625C29.8189 16.9461 29.8189 16.9461 29.7586 16.9293C29.5794 16.8725 29.4681 16.8168 29.3419 16.6761C29.2135 16.4233 29.2182 16.2146 29.2205 15.935C29.2198 15.8557 29.2198 15.8557 29.219 15.7748C29.2175 15.6066 29.2174 15.4384 29.2174 15.2702C29.2173 15.1014 29.2168 14.9326 29.2153 14.7639C29.2144 14.659 29.2143 14.5542 29.2149 14.4493C29.2144 14.3782 29.2144 14.3782 29.2138 14.3057C29.2139 14.264 29.2139 14.2224 29.214 14.1794C29.1889 14.04 29.1519 13.9945 29.0367 13.913C28.9246 13.8892 28.9246 13.8892 28.7993 13.8926C28.7514 13.8921 28.7035 13.8916 28.6541 13.8911C28.5768 13.8916 28.5768 13.8916 28.4978 13.8921C28.4447 13.8919 28.3916 13.8918 28.3369 13.8916C28.2247 13.8915 28.1124 13.8918 28.0002 13.8925C27.8281 13.8933 27.6561 13.8925 27.484 13.8915C27.375 13.8916 27.2661 13.8918 27.1571 13.8921C27.1055 13.8918 27.0539 13.8914 27.0007 13.8911C26.9289 13.8919 26.9289 13.8919 26.8556 13.8926C26.8134 13.8928 26.7713 13.8929 26.7279 13.893C26.5882 13.9185 26.5423 13.9555 26.4604 14.0708C26.4368 14.1796 26.4368 14.1796 26.4402 14.3009C26.4397 14.3472 26.4391 14.3935 26.4386 14.4413C26.4387 14.4912 26.4389 14.5412 26.4391 14.5926C26.4382 14.67 26.4382 14.67 26.4373 14.7488C26.4355 14.9139 26.4347 15.0789 26.4341 15.2439C26.4334 15.4606 26.4316 15.6772 26.4292 15.8939C26.4294 15.9436 26.4295 15.9932 26.4297 16.0443C26.4266 16.3174 26.411 16.5203 26.2501 16.7522C26.1492 16.8241 26.1492 16.8241 26.0357 16.8683C25.9937 16.8847 25.9517 16.9011 25.9085 16.9181C25.696 16.9898 25.4813 17.0478 25.2643 17.1038C24.423 17.334 23.6437 17.6853 22.8932 18.1272C22.6249 18.2845 22.4684 18.3721 22.1491 18.3295C21.6795 18.0754 21.3059 17.5966 20.9383 17.2177C20.8479 17.1249 20.7571 17.0325 20.6662 16.9401C20.6387 16.9115 20.6112 16.8829 20.5829 16.8533C20.4812 16.7503 20.3841 16.6596 20.257 16.5893C19.9549 16.6041 19.701 16.9219 19.4962 17.1248C19.4652 17.1552 19.4343 17.1857 19.4024 17.2171C19.3376 17.2812 19.2728 17.3454 19.2082 17.4098C19.1095 17.508 19.0097 17.6052 18.9099 17.7023C18.8468 17.765 18.7837 17.8277 18.7207 17.8904C18.6909 17.9192 18.6611 17.948 18.6304 17.9776C18.4995 18.11 18.4198 18.2129 18.362 18.3911C18.3638 18.5648 18.3842 18.6075 18.5038 18.7298C18.5379 18.7654 18.572 18.8011 18.6072 18.8378C18.6687 18.8985 18.6687 18.8985 18.7315 18.9605C18.7801 19.0092 18.8287 19.0578 18.8787 19.108C19.0734 19.3022 19.2694 19.4948 19.4666 19.6865C19.5514 19.7691 19.6358 19.8522 19.72 19.9354C19.7459 19.9603 19.7719 19.9853 19.7985 20.0109C19.9469 20.1582 20.0408 20.2834 20.0986 20.4852C20.0968 20.845 19.918 21.1154 19.7437 21.4185C19.4444 21.9451 19.1779 22.4709 18.9911 23.0484C18.9779 23.0884 18.9646 23.1284 18.9509 23.1696C18.8869 23.3656 18.8283 23.5614 18.7792 23.7616C18.7705 23.7971 18.7617 23.8326 18.7527 23.8692C18.7298 23.9654 18.7083 24.0619 18.687 24.1584C18.6047 24.3824 18.473 24.5315 18.2584 24.6388C18.1813 24.6445 18.1041 24.647 18.0269 24.6479C17.979 24.6487 17.9311 24.6494 17.8817 24.6501C17.8039 24.6509 17.8039 24.6509 17.7246 24.6518C17.6154 24.6535 17.5062 24.6552 17.3971 24.657C17.2245 24.6595 17.0519 24.6618 16.8792 24.6639C16.713 24.666 16.5468 24.6687 16.3806 24.6715C16.3029 24.6721 16.3029 24.6721 16.2237 24.6728C16.1756 24.6737 16.1276 24.6746 16.078 24.6755C16.0146 24.6763 16.0146 24.6763 15.9499 24.6771C15.8239 24.6852 15.8239 24.6852 15.6821 24.7966C15.63 24.9394 15.6228 25.0734 15.6227 25.2245C15.6225 25.2667 15.6223 25.309 15.6222 25.3526C15.6223 25.3979 15.6224 25.4431 15.6225 25.4897C15.6224 25.5366 15.6224 25.5836 15.6223 25.6319C15.6223 25.731 15.6224 25.8302 15.6226 25.9293C15.6229 26.0807 15.6226 26.232 15.6223 26.3834C15.6223 26.4799 15.6224 26.5763 15.6225 26.6727C15.6224 26.7178 15.6223 26.763 15.6222 26.8095C15.623 27.0217 15.629 27.2183 15.6821 27.4254C15.7123 27.4257 15.7426 27.426 15.7737 27.4264C16.0894 27.4297 16.4049 27.4342 16.7205 27.4392C16.8382 27.441 16.9559 27.4424 17.0736 27.4436C17.243 27.4454 17.4124 27.4482 17.5818 27.4511C17.6343 27.4514 17.6867 27.4518 17.7407 27.4521C18.0203 27.458 18.2306 27.4727 18.4687 27.6357C18.5974 27.7733 18.6525 27.8977 18.6997 28.0785C18.7118 28.1234 18.7239 28.1682 18.7363 28.2144C18.7489 28.262 18.7614 28.3096 18.7743 28.3587C19.031 29.2906 19.3787 30.1486 19.885 30.9744C20.0323 31.2241 20.1134 31.3923 20.0986 31.6842C19.9551 31.9819 19.7722 32.1865 19.5342 32.4125C19.4654 32.4795 19.3966 32.5466 19.3278 32.6137C19.2199 32.718 19.1118 32.8221 19.0034 32.9259C18.8982 33.0269 18.7939 33.1288 18.6896 33.2307C18.6406 33.277 18.6406 33.277 18.5906 33.3242C18.5458 33.3681 18.5458 33.3681 18.5001 33.413C18.4737 33.4384 18.4472 33.4638 18.42 33.49C18.3395 33.614 18.344 33.6949 18.3635 33.8399C18.4229 33.9396 18.4229 33.9396 18.5121 34.025C18.5446 34.0588 18.5771 34.0927 18.6106 34.1275C18.6641 34.1809 18.6641 34.1809 18.7186 34.2354C18.7551 34.2725 18.7916 34.3096 18.8291 34.3478C18.9065 34.426 18.9841 34.5039 19.0621 34.5814C19.1812 34.7003 19.2984 34.8209 19.4156 34.9417C19.4909 35.0175 19.5664 35.0931 19.642 35.1687C19.6769 35.2049 19.7118 35.2412 19.7478 35.2785C19.914 35.4407 19.996 35.5176 20.2322 35.5398C20.4742 35.4466 20.6079 35.3111 20.7821 35.1233C20.8325 35.0713 20.8325 35.0713 20.8839 35.0182C20.991 34.9076 21.0969 34.7961 21.2027 34.6844C21.3085 34.5729 21.4145 34.4616 21.5214 34.3512C21.5878 34.2826 21.6536 34.2134 21.7186 34.1435C21.9169 33.9384 22.0683 33.8353 22.3594 33.7873C22.6385 33.8363 22.8513 33.9572 23.0856 34.1093C23.8314 34.5735 24.6468 34.8826 25.4914 35.1161C25.5319 35.1274 25.5723 35.1388 25.6139 35.1505C25.692 35.1722 25.7703 35.1932 25.8488 35.2135C26.0716 35.2749 26.2127 35.338 26.3553 35.5223C26.4048 35.6711 26.4146 35.7634 26.4153 35.9175C26.4159 35.9893 26.4159 35.9893 26.4164 36.0626C26.4166 36.1142 26.4169 36.1658 26.4171 36.219C26.4183 36.328 26.4196 36.437 26.4209 36.546C26.4227 36.718 26.4243 36.89 26.425 37.0621C26.4258 37.228 26.4279 37.3938 26.4302 37.5597C26.4301 37.6371 26.4301 37.6371 26.4299 37.7161C26.4308 37.764 26.4317 37.8119 26.4326 37.8612C26.4329 37.9034 26.4332 37.9455 26.4335 37.9889C26.4523 38.1065 26.4523 38.1065 26.5528 38.1911C26.6828 38.2631 26.7562 38.2763 26.9036 38.2768C26.9493 38.2773 26.9949 38.2778 27.0419 38.2783C27.0907 38.278 27.1396 38.2776 27.1899 38.2773C27.2658 38.2775 27.2658 38.2775 27.3431 38.2778C27.4499 38.2779 27.5567 38.2776 27.6634 38.2769C27.8268 38.2761 27.9902 38.2769 28.1536 38.2779C28.2574 38.2778 28.3611 38.2776 28.4649 38.2773C28.5382 38.2778 28.5382 38.2778 28.613 38.2783C28.6586 38.2778 28.7042 38.2773 28.7512 38.2768C28.7912 38.2766 28.8312 38.2765 28.8724 38.2764C29.0187 38.2502 29.0897 38.2035 29.1944 38.0986C29.2256 37.9878 29.2256 37.9878 29.2206 37.8629C29.2212 37.8153 29.2217 37.7678 29.2222 37.7188C29.2218 37.6675 29.2214 37.6162 29.2209 37.5634C29.2214 37.5106 29.2219 37.4577 29.2224 37.4033C29.224 37.2342 29.2241 37.0651 29.224 36.8959C29.2242 36.7272 29.2247 36.5584 29.2262 36.3897C29.227 36.2846 29.2272 36.1796 29.2265 36.0746C29.2299 35.6232 29.2299 35.6232 29.4048 35.4172C29.5524 35.2821 29.6872 35.2276 29.8794 35.1769C29.9549 35.1567 29.9549 35.1567 30.0319 35.136C30.1102 35.1158 30.1102 35.1158 30.1901 35.0951C30.2421 35.0813 30.2942 35.0674 30.3478 35.053C30.5759 34.9926 30.8029 34.936 31.0347 34.8914C31.0328 34.8423 31.031 34.7931 31.0291 34.7425C31.0172 34.1637 31.0885 33.62 31.1924 33.0512C31.1395 33.0747 31.0865 33.0982 31.032 33.1225C29.1627 33.9338 27.05 34.0518 25.1297 33.3204C23.193 32.5376 21.5744 31.0935 20.7295 29.1605C20.1401 27.6702 19.8888 25.8947 20.3089 24.3234C20.319 24.2831 20.3292 24.2428 20.3397 24.2013C20.5691 23.3068 20.9272 22.449 21.4656 21.6945C21.5013 21.6432 21.537 21.592 21.5738 21.5392C22.6167 20.1112 24.0618 19.1262 25.7539 18.6319C25.798 18.6189 25.842 18.6059 25.8875 18.5926C26.5248 18.4144 27.1508 18.362 27.811 18.3657C27.848 18.3658 27.8849 18.3659 27.923 18.366C28.4996 18.3689 29.0544 18.3969 29.6151 18.5398C29.6562 18.55 29.6973 18.5602 29.7396 18.5707C31.4272 19.0001 32.9278 19.9844 33.979 21.379C34.0109 21.4212 34.0109 21.4212 34.0434 21.4643C35.2595 23.1065 35.7835 25.2082 35.4939 27.2283C35.3712 27.9957 35.1224 28.71 34.8202 29.4234C34.8647 29.4126 34.9091 29.4018 34.955 29.3907C35.5397 29.2518 36.0601 29.2055 36.6604 29.2131C36.6824 29.1331 36.7043 29.0531 36.7262 28.9732C36.7406 28.9209 36.755 28.8687 36.7699 28.8148C36.8042 28.6867 36.8369 28.5588 36.8681 28.4299C36.8767 28.3952 36.8853 28.3605 36.8942 28.3248C36.9191 28.2246 36.9433 28.1243 36.9675 28.0239C37.0445 27.7994 37.1325 27.6425 37.3437 27.5245C37.5757 27.4562 37.8005 27.4613 38.0412 27.4599C38.0931 27.4592 38.145 27.4584 38.1985 27.4576C38.4201 27.4543 38.6417 27.4522 38.8633 27.45C39.0252 27.4483 39.1871 27.4459 39.3491 27.4435C39.3995 27.4432 39.4498 27.4429 39.5018 27.4427C39.5483 27.4419 39.5948 27.4412 39.6427 27.4405C39.6837 27.4401 39.7247 27.4398 39.767 27.4394C39.8802 27.434 39.8802 27.434 39.9728 27.3203C40.0016 27.1741 40.0196 27.028 40.0381 26.8801C40.078 26.7419 40.078 26.7419 40.1753 26.6462C40.344 26.5536 40.4675 26.5606 40.6563 26.5842C40.8086 26.6981 40.8606 26.7608 40.8946 26.9498C40.8906 27.3686 40.8641 27.6785 40.5696 27.9904C40.2396 28.2909 39.9516 28.3354 39.5167 28.341C39.4437 28.3425 39.4437 28.3425 39.3693 28.3441C39.2145 28.3472 39.0596 28.3497 38.9048 28.3521C38.7996 28.3541 38.6945 28.3562 38.5893 28.3583C38.3319 28.3634 38.0745 28.3676 37.8171 28.3718C37.7304 28.6841 37.6436 28.9964 37.5543 29.3182C37.6757 29.3529 37.7972 29.3876 37.9223 29.4234C39.3248 29.8516 40.4298 30.7801 41.1361 32.0621C41.7596 33.2348 41.9459 34.7273 41.5637 36.0089C41.5419 36.0739 41.52 36.1389 41.4976 36.2058C41.4807 36.2565 41.4807 36.2565 41.4634 36.3081C41.01 37.631 40.0502 38.7528 38.7984 39.3786C37.6993 39.9025 37.6993 39.9025 37.1336 39.7811C36.9854 39.6568 36.977 39.5798 36.9529 39.3868C36.9805 39.1662 37.0149 39.128 37.1862 38.9924C37.3166 38.9449 37.4405 38.9061 37.574 38.8709C38.7788 38.5206 39.7274 37.7692 40.3409 36.679C40.4697 36.424 40.5668 36.1614 40.6563 35.8904C40.6741 35.8385 40.692 35.7867 40.7103 35.7333C41.034 34.6071 40.8158 33.3358 40.2589 32.3239C40.0441 31.9692 39.79 31.664 39.4996 31.3687C39.4454 31.3135 39.4454 31.3135 39.3901 31.2572C38.5874 30.4932 37.4659 30.1137 36.3713 30.0872C35.1694 30.1175 34.0799 30.5697 33.2061 31.3991C32.3297 32.3217 31.8978 33.49 31.9174 34.7559C31.9479 35.6489 32.2458 36.4817 32.7697 37.2048C32.8036 37.2523 32.8375 37.2997 32.8724 37.3486C33.5294 38.21 34.4446 38.6959 35.4804 38.9592C35.8236 39.0484 35.8236 39.0484 35.9244 39.2028C35.9638 39.5577 35.9638 39.5577 35.8455 39.7548C35.6137 39.8939 35.3413 39.8519 35.0864 39.791C35.015 39.771 34.9438 39.7502 34.8728 39.7285C34.8345 39.717 34.7961 39.7054 34.7566 39.6935C34.1045 39.4864 33.5085 39.1644 32.98 38.7296C32.9282 38.6869 32.8763 38.6443 32.8229 38.6004C32.0333 37.9266 31.4373 36.9548 31.1924 35.943C31.1924 35.8736 31.1924 35.8042 31.1924 35.7326C31.1341 35.751 31.0758 35.7694 31.0158 35.7883C30.9388 35.8125 30.8619 35.8366 30.7849 35.8608C30.7274 35.879 30.7274 35.879 30.6687 35.8975C30.6314 35.9092 30.5941 35.9208 30.5557 35.9329C30.5216 35.9436 30.4874 35.9544 30.4522 35.9654C30.3491 35.9962 30.2453 36.0223 30.1408 36.0481C30.1401 36.1452 30.1401 36.1452 30.1394 36.2442C30.1372 36.4856 30.1338 36.727 30.1299 36.9685C30.1285 37.0727 30.1273 37.1769 30.1266 37.2812C30.1255 37.4316 30.123 37.5819 30.1203 37.7322C30.1202 37.7784 30.1202 37.8245 30.1201 37.872C30.1115 38.2384 30.0151 38.5116 29.7802 38.7949C29.7474 38.8232 29.7146 38.8515 29.6808 38.8807C29.6485 38.9099 29.6163 38.939 29.583 38.969C29.2476 39.1718 28.865 39.1664 28.4851 39.166C28.4332 39.1662 28.3814 39.1664 28.328 39.1667C28.2188 39.167 28.1097 39.167 28.0005 39.1668C27.8349 39.1666 27.6692 39.1678 27.5035 39.1692C27.397 39.1693 27.2904 39.1693 27.1838 39.1693C27.1349 39.1698 27.086 39.1702 27.0357 39.1707C26.6115 39.1678 26.2082 39.1155 25.8854 38.8216C25.5795 38.5059 25.5427 38.1554 25.5397 37.7374C25.5388 37.6889 25.5378 37.6404 25.5368 37.5904C25.534 37.4367 25.5322 37.283 25.5305 37.1292C25.5287 37.0245 25.5269 36.9198 25.525 36.8151C25.5206 36.5594 25.517 36.3038 25.514 36.0481C25.4822 36.0396 25.4504 36.0312 25.4177 36.0225C24.3424 35.7351 23.3875 35.3194 22.412 34.7863C22.0543 35.0804 21.7345 35.4085 21.4111 35.7395C21.339 35.8133 21.2665 35.8866 21.1941 35.96C21.1515 36.0034 21.109 36.0469 21.0652 36.0916C20.7918 36.3407 20.5536 36.4227 20.1906 36.4326C20.1437 36.4345 20.0968 36.4365 20.0484 36.4385C19.6121 36.3776 19.3272 36.0972 19.0296 35.7975C18.9697 35.7382 18.9697 35.7382 18.9087 35.6777C18.825 35.5944 18.7415 35.5107 18.6583 35.4269C18.5314 35.2992 18.4032 35.1728 18.2749 35.0465C18.1934 34.965 18.1119 34.8835 18.0306 34.8019C17.9925 34.7644 17.9543 34.727 17.9151 34.6885C17.6534 34.422 17.5094 34.1908 17.4487 33.8152C17.4491 33.78 17.4496 33.7447 17.45 33.7084C17.4496 33.6732 17.4492 33.6379 17.4487 33.6016C17.5138 33.1987 17.6763 32.9658 17.9667 32.6955C17.9993 32.6639 18.0319 32.6323 18.0654 32.5998C18.1686 32.4998 18.2725 32.4008 18.3766 32.302C18.5146 32.171 18.6517 32.0392 18.7882 31.9068C18.8362 31.8621 18.8362 31.8621 18.8851 31.8165C18.9836 31.7241 18.9836 31.7241 19.0996 31.579C19.0767 31.4152 19.0103 31.2891 18.9302 31.1455C18.6706 30.6712 18.4278 30.1987 18.2353 29.6928C18.2113 29.6303 18.2113 29.6303 18.1868 29.5664C18.0429 29.1759 17.9409 28.7745 17.8377 28.3718C17.773 28.3713 17.7083 28.3708 17.6417 28.3703C17.4002 28.3682 17.1588 28.3648 16.9174 28.3609C16.8131 28.3594 16.7089 28.3583 16.6047 28.3576C16.4543 28.3564 16.304 28.354 16.1536 28.3513C16.1075 28.3512 16.0613 28.3511 16.0138 28.3511C15.6559 28.3427 15.3742 28.2545 15.1025 28.0153C15.079 27.9855 15.0556 27.9556 15.0314 27.9249C15.0072 27.8951 14.9829 27.8653 14.9579 27.8345C14.8208 27.6354 14.7749 27.4913 14.773 27.2479C14.7723 27.1914 14.7716 27.1349 14.7709 27.0766C14.7708 27.0158 14.7707 26.9549 14.7706 26.8923C14.7702 26.8294 14.7699 26.7665 14.7695 26.7017C14.769 26.5686 14.7687 26.4354 14.7688 26.3023C14.7685 26.0993 14.7666 25.8964 14.7646 25.6934C14.7643 25.564 14.7641 25.4345 14.764 25.3051C14.7633 25.2447 14.7625 25.1842 14.7617 25.122C14.7642 24.6821 14.832 24.3885 15.1431 24.0703C15.5073 23.8252 15.8194 23.7744 16.2473 23.7822C16.2945 23.7824 16.3418 23.7826 16.3905 23.7829C16.5399 23.7837 16.6893 23.7857 16.8388 23.7877C16.9407 23.7885 17.0426 23.7892 17.1446 23.7899C17.3932 23.7916 17.6417 23.7943 17.8903 23.7976C17.8973 23.7341 17.9043 23.6706 17.9115 23.6052C17.9479 23.3149 18.0369 23.049 18.1302 22.7723C18.1582 22.6889 18.1582 22.6889 18.1867 22.6038C18.3698 22.0729 18.6023 21.5865 18.8843 21.1016C18.9142 21.05 18.944 20.9984 18.9747 20.9453C19.0014 20.9016 19.0281 20.858 19.0556 20.813C19.1121 20.6998 19.1121 20.6998 19.0679 20.6012C18.9678 20.4432 18.8387 20.3218 18.704 20.1938C18.6454 20.1367 18.5868 20.0797 18.5282 20.0226C18.4363 19.9336 18.3442 19.8448 18.2517 19.7565C17.8741 19.3952 17.5501 19.0831 17.4399 18.5548C17.4408 18.0604 17.6682 17.6822 18.0081 17.3353C18.0422 17.3019 18.0763 17.2685 18.1115 17.234C18.1655 17.1799 18.1655 17.1799 18.2205 17.1246C18.2961 17.0491 18.3719 16.974 18.4481 16.8991C18.564 16.7851 18.6784 16.6699 18.7929 16.5544C18.8669 16.4808 18.941 16.4072 19.0152 16.3336C19.049 16.2996 19.0828 16.2655 19.1176 16.2304C19.4254 15.9305 19.7526 15.7252 20.1885 15.6959C20.89 15.7235 21.3487 16.3652 21.8073 16.8278C21.8611 16.8819 21.9149 16.9359 21.9688 16.9899C22.0991 17.1209 22.2293 17.252 22.3594 17.3831C22.4107 17.3552 22.462 17.3272 22.5149 17.2984C23.17 16.9429 23.8273 16.6037 24.5348 16.3645C24.5716 16.3519 24.6084 16.3394 24.6464 16.3264C24.9481 16.2289 25.254 16.1726 25.5666 16.1213C25.5654 16.0238 25.5654 16.0238 25.5641 15.9244C25.5612 15.6823 25.5594 15.4402 25.5579 15.198C25.5572 15.0934 25.5561 14.9889 25.5547 14.8843C25.5528 14.7335 25.5519 14.5828 25.5512 14.432C25.5504 14.3856 25.5496 14.3392 25.5487 14.2914C25.5486 13.8476 25.6807 13.5507 25.9872 13.2295C26.2317 13.0566 26.4338 13.013 26.7294 13.0107ZM28.2481 19.2234C28.2481 19.501 28.2481 19.7786 28.2481 20.0646C28.3224 20.0767 28.3968 20.0889 28.4734 20.1014C29.1678 20.2187 29.8029 20.3777 30.4563 20.6429C30.507 20.5698 30.5573 20.4963 30.6075 20.4228C30.6355 20.3819 30.6636 20.341 30.6925 20.2989C30.7707 20.1714 30.8256 20.0471 30.8769 19.9069C30.041 19.5309 29.1753 19.2234 28.2481 19.2234ZM24.7779 19.9069C24.8994 20.1498 25.0209 20.3927 25.146 20.6429C25.2067 20.6223 25.2674 20.6017 25.33 20.5805C25.3735 20.5662 25.4169 20.5519 25.4617 20.5372C25.5762 20.4994 25.6905 20.4608 25.8046 20.4217C26.3322 20.2454 26.8566 20.1429 27.4068 20.0646C27.4068 19.787 27.4068 19.5094 27.4068 19.2234C26.5106 19.2234 25.5755 19.5137 24.7779 19.9069ZM22.9213 21.2706C22.4106 21.7336 22.4106 21.7336 22.1491 22.3254C22.2517 22.3929 22.3575 22.4558 22.4645 22.516C22.5231 22.5492 22.5817 22.5824 22.642 22.6166C22.6875 22.642 22.7331 22.6673 22.78 22.6935C22.968 22.5082 23.1483 22.3173 23.3255 22.1217C23.6666 21.7483 23.9964 21.4094 24.4099 21.1161C24.3803 20.9079 24.3187 20.7728 24.1996 20.6002C24.1714 20.5587 24.1432 20.5171 24.1142 20.4743C24.0903 20.4432 24.0664 20.4121 24.0419 20.3801C23.7012 20.3801 23.1451 21.0482 22.9213 21.2706ZM31.613 20.3801C31.561 20.4531 31.5096 20.5265 31.4586 20.6002C31.4156 20.6615 31.4156 20.6615 31.3717 20.7241C31.2951 20.8574 31.2662 20.9648 31.245 21.1161C31.278 21.1422 31.3111 21.1683 31.3452 21.1952C31.4877 21.3083 31.6293 21.4223 31.7707 21.5368C31.8261 21.5811 31.8261 21.5811 31.8827 21.6263C32.1412 21.8415 32.3475 22.0848 32.5553 22.349C32.6755 22.5012 32.6755 22.5012 32.8749 22.6935C33.0831 22.572 33.2913 22.4506 33.5058 22.3254C33.317 21.5702 32.386 20.8641 31.7707 20.4326C31.7187 20.4153 31.6666 20.3979 31.613 20.3801ZM24.1076 22.447C23.1785 23.4111 22.5987 24.7637 22.6223 26.111C22.6555 26.8901 22.8443 27.6041 23.1415 28.3225C23.2518 28.6013 23.2883 28.7666 23.2006 29.0553C23.0342 29.3147 22.8214 29.4306 22.5566 29.5712C22.5174 29.5926 22.4782 29.614 22.4378 29.636C22.3419 29.6883 22.2455 29.7399 22.1491 29.7914C22.2153 30.0961 22.4243 30.2937 22.6223 30.5275C22.6583 30.5707 22.6943 30.6138 22.7313 30.6583C23.9038 32.0171 25.5855 32.7682 27.3542 32.946C28.846 33.05 30.2234 32.6253 31.5079 31.8945C31.5528 31.8704 31.5977 31.8464 31.644 31.8216C31.9319 31.6531 32.1095 31.4259 32.303 31.1603C32.5579 30.8149 32.8699 30.5484 33.1998 30.2747C33.3615 30.1401 33.4729 30.0362 33.5584 29.844C33.5324 29.8297 33.5064 29.8154 33.4797 29.8007C33.3609 29.7349 33.2427 29.6679 33.1246 29.6008C33.0837 29.5784 33.0429 29.5559 33.0008 29.5328C32.7526 29.3907 32.5756 29.2722 32.4542 29.0027C32.3879 28.6344 32.5114 28.3375 32.6547 28.0038C33.1672 26.7307 33.1755 25.3833 32.65 24.1087C32.3849 23.4957 32.0915 23.0088 31.613 22.5357C31.5692 22.4917 31.5254 22.4478 31.4803 22.4024C31.4374 22.3597 31.3944 22.3169 31.3501 22.2728C31.2933 22.2162 31.2933 22.2162 31.2353 22.1584C29.1965 20.2256 26.0419 20.6062 24.1076 22.447ZM21.6759 23.0089C21.3103 23.848 20.9924 24.7091 20.9924 25.6378C21.27 25.6378 21.5476 25.6378 21.8336 25.6378C21.85 25.5308 21.85 25.5308 21.8667 25.4217C21.9796 24.7259 22.1582 24.0867 22.412 23.4295C22.1691 23.2907 21.9261 23.1519 21.6759 23.0089ZM33.9264 23.0089C33.6141 23.1911 33.6141 23.1911 33.2955 23.377C33.3366 23.6237 33.3795 23.7872 33.4729 24.0112C33.669 24.5081 33.7691 25.0029 33.8213 25.5326C33.8386 25.5673 33.856 25.602 33.8738 25.6378C34.1514 25.6378 34.4291 25.6378 34.7151 25.6378C34.6378 24.9098 34.4897 24.236 34.2386 23.5478C34.2257 23.5121 34.2128 23.4763 34.1995 23.4395C34.1281 23.2511 34.0723 23.1548 33.9264 23.0089ZM20.9924 26.479C21.0169 27.2404 21.1593 28.5388 21.7285 29.1079C21.8327 29.0491 21.9367 28.9899 22.0406 28.9304C22.0986 28.8975 22.1565 28.8646 22.2162 28.8306C22.3633 28.7546 22.3633 28.7546 22.412 28.6347C22.3683 28.5205 22.3203 28.408 22.2707 28.2962C22.0237 27.7147 21.9225 27.1016 21.8336 26.479C21.556 26.479 21.2784 26.479 20.9924 26.479ZM33.8738 26.479C33.8065 26.6136 33.7982 26.7337 33.7785 26.8832C33.6964 27.4331 33.5638 27.9689 33.329 28.4743C33.2867 28.6104 33.283 28.6646 33.3481 28.7924C33.493 28.8873 33.493 28.8873 33.6668 28.9633C33.7249 28.9907 33.783 29.0181 33.8428 29.0463C33.8878 29.0666 33.9327 29.087 33.979 29.1079C34.4104 28.3519 34.7151 27.3569 34.7151 26.479C34.4375 26.479 34.1599 26.479 33.8738 26.479Z" fill="white"/>
<path d="M28.5633 25.0064C28.8366 25.2423 29.0369 25.4822 29.0891 25.8476C29.0827 25.8829 29.0764 25.9183 29.0698 25.9547C29.0482 26.0943 29.0482 26.1848 29.0891 26.3208C29.2722 26.4958 29.4896 26.6104 29.7102 26.7316C29.7726 26.7676 29.8349 26.8038 29.8972 26.8403C30.0227 26.9136 30.1487 26.986 30.2751 27.0579C30.5322 27.2058 30.7837 27.3619 31.0345 27.5202C31.0759 27.5457 31.1173 27.5712 31.1599 27.5975C31.1977 27.6212 31.2354 27.6448 31.2743 27.6691C31.3069 27.6894 31.3395 27.7096 31.3731 27.7305C31.5116 27.8361 31.5574 27.9324 31.5832 28.1019C31.5602 28.2662 31.5602 28.2662 31.4485 28.4173C31.2652 28.5528 31.2054 28.5554 30.9819 28.5291C30.8443 28.4631 30.7225 28.396 30.5941 28.3155C30.5566 28.2927 30.5191 28.27 30.4805 28.2466C30.2383 28.0989 29.9985 27.9472 29.7582 27.7965C29.7019 27.7611 29.6455 27.7258 29.5874 27.6894C29.4757 27.6191 29.3641 27.5486 29.2527 27.4777C29.2012 27.4451 29.1496 27.4125 29.0965 27.3789C29.0278 27.3352 29.0278 27.3352 28.9577 27.2906C28.8282 27.2158 28.7053 27.1563 28.5633 27.1095C28.4494 27.142 28.4494 27.142 28.3432 27.2081C28.0373 27.3572 27.7627 27.3787 27.4352 27.2814C27.1833 27.179 27.0063 27.0561 26.8283 26.8466C26.799 26.8141 26.7697 26.7815 26.7395 26.748C26.5517 26.4439 26.5139 26.0876 26.588 25.7423C26.7022 25.382 26.9375 25.0998 27.2587 24.9045C27.7202 24.7302 28.1344 24.7526 28.5633 25.0064ZM27.5808 25.7228C27.45 25.8399 27.45 25.8399 27.4033 26.0021C27.3942 26.1678 27.3942 26.1678 27.4888 26.311C27.6444 26.4506 27.7236 26.4828 27.9324 26.4785C28.0968 26.3836 28.1755 26.3164 28.2479 26.1401C28.2479 25.9636 28.1957 25.882 28.0901 25.7425C27.8888 25.6083 27.7896 25.5965 27.5808 25.7228Z" fill="white"/>
<path d="M38.6286 32.8046C38.8652 33.0527 38.9609 33.2529 38.9868 33.59C38.9483 34.1677 38.5937 34.4633 38.2014 34.842C38.1449 34.8977 38.0883 34.9534 38.0319 35.0093C37.7699 35.2671 37.5036 35.5178 37.2245 35.7571C37.0509 35.9106 36.8928 36.0799 36.734 36.2484C36.5232 36.4654 36.3333 36.6069 36.0293 36.6473C35.9773 36.6469 35.9252 36.6465 35.8716 36.646C35.8195 36.6464 35.7675 36.6469 35.7139 36.6473C35.299 36.5922 35.0669 36.3125 34.7905 36.025C34.563 35.7908 34.3413 35.5661 34.084 35.3645C33.8251 35.0121 33.7885 34.7411 33.8211 34.3129C33.9125 34.028 34.094 33.8362 34.3469 33.682C34.6549 33.5613 34.9234 33.5512 35.2318 33.6713C35.4018 33.7656 35.5345 33.8899 35.6705 34.0276C35.7738 34.1242 35.7738 34.1242 35.9767 34.1026C36.0799 34.016 36.1686 33.9315 36.2604 33.834C36.2872 33.8065 36.3141 33.779 36.3417 33.7506C36.4276 33.6625 36.5128 33.5737 36.5978 33.4848C36.6823 33.3967 36.767 33.3088 36.8522 33.2213C36.9052 33.1669 36.9578 33.1122 37.0099 33.057C37.4411 32.6137 38.0919 32.3803 38.6286 32.8046ZM37.4477 33.8245C37.4128 33.8605 37.3778 33.8964 37.3418 33.9334C37.1925 34.0871 37.0447 34.2422 36.8968 34.3973C36.7885 34.5103 36.6794 34.6226 36.5703 34.7348C36.5374 34.7699 36.5044 34.805 36.4705 34.8412C36.2638 35.0536 36.115 35.161 35.819 35.2067C35.5204 35.1086 35.3398 34.8934 35.1385 34.6639C35.0592 34.5754 35.0592 34.5754 34.9252 34.4707C34.7789 34.472 34.7789 34.472 34.6623 34.5232C34.7063 34.8465 35.0086 35.0564 35.2275 35.2757C35.2991 35.3502 35.2991 35.3502 35.3721 35.4262C35.4185 35.4728 35.4648 35.5195 35.5126 35.5676C35.5549 35.6106 35.5973 35.6536 35.6409 35.6979C35.7593 35.7978 35.7593 35.7978 35.9001 35.7848C36.0528 35.723 36.1332 35.6519 36.2472 35.5333C36.2872 35.4924 36.3271 35.4516 36.3683 35.4094C36.4093 35.3664 36.4504 35.3234 36.4927 35.279C36.7521 35.0107 37.0112 34.7494 37.2946 34.5064C37.4668 34.3569 37.6308 34.1995 37.794 34.0402C37.8276 34.0085 37.8613 33.9768 37.8959 33.9442C37.9274 33.9133 37.9589 33.8824 37.9913 33.8506C38.034 33.8095 38.034 33.8095 38.0775 33.7676C38.1455 33.6823 38.1455 33.6823 38.115 33.5663C38.0976 33.5195 38.0976 33.5195 38.0798 33.4717C37.7749 33.4096 37.6384 33.6212 37.4477 33.8245Z" fill="white"/>
</svg>
