<svg width="40" height="40" viewBox="0 0 40 40" fill="none" xmlns="http://www.w3.org/2000/svg">
<rect width="40" height="40" fill="#3E82DA"/>
<path d="M10.3153 13.0859C10.2209 13.135 10.1265 13.229 10.0773 13.3271C9.99526 13.4865 9.99526 13.5437 10.0035 17.5941C10.0158 21.669 10.0158 21.7017 10.1019 21.812C10.1471 21.8733 10.2373 21.9633 10.2988 22.0082C10.4096 22.09 10.467 22.094 12.1696 22.1063L13.9295 22.1186L13.9418 24.8447C13.9541 27.5668 13.9541 27.5708 14.0444 27.7139C14.2208 27.9959 14.2372 28 15.5705 28H16.7643L16.9243 27.8529C17.0843 27.7098 17.1007 27.6689 18.1181 24.6322L19.1437 21.5545L19.1355 17.4837C19.1232 13.4456 19.1232 13.4129 19.0371 13.3026C18.992 13.2412 18.9017 13.1513 18.8402 13.1064C18.7294 13.0205 18.6966 13.0205 14.5982 13.0124C10.5491 13.0042 10.4629 13.0042 10.3153 13.0859Z" fill="white"/>
<path d="M22.241 13.0572C22.0728 13.1308 21.9005 13.3392 21.8718 13.5027C21.8594 13.5763 21.8553 15.4482 21.8594 17.6675C21.8718 21.6689 21.8718 21.7016 21.9579 21.8119C22.003 21.8732 22.0933 21.9632 22.1548 22.0081C22.2656 22.0899 22.323 22.0939 24.0502 22.1062L25.8306 22.1185L25.8388 24.8937L25.8511 27.6729L26.007 27.8241L26.1588 27.9795L27.369 27.9917C28.7106 28.004 28.7516 27.9958 28.9075 27.7424C28.9526 27.6688 29.4408 26.2588 29.9946 24.6075L30.9997 21.5994V17.5449C30.9997 13.5599 30.9997 13.4864 30.9177 13.327C30.8643 13.2207 30.7782 13.1349 30.6715 13.0817C30.5115 13 30.4418 13 26.4378 13C23.1435 13.0041 22.3394 13.0123 22.241 13.0572Z" fill="white"/>
</svg>
