<svg width="1920" height="354" viewBox="0 0 1920 354" fill="none" xmlns="http://www.w3.org/2000/svg">
<path d="M571.73 78.7793C593.06 78.7793 614.389 78.7793 636.364 78.7793C637.129 81.0716 637.129 81.0716 637.419 82.2236C637.514 82.5984 637.514 82.5984 637.611 82.9808C637.71 83.3707 637.71 83.3707 637.81 83.7686C638.252 85.4967 638.696 87.2207 639.213 88.9279C639.731 90.6359 640.177 92.3595 640.622 94.0878C640.951 95.3617 641.298 96.6267 641.68 97.886C642.267 99.8261 642.766 101.788 643.262 103.753C643.58 105.002 643.917 106.238 644.302 107.468C644.765 108.948 645.155 110.443 645.535 111.947C646.011 113.807 646.502 115.656 647.059 117.494C647.527 119.054 647.927 120.632 648.332 122.209C648.662 123.483 649.009 124.748 649.39 126.007C649.978 127.948 650.476 129.91 650.973 131.875C651.29 133.123 651.628 134.359 652.013 135.589C652.476 137.07 652.866 138.564 653.246 140.068C653.721 141.928 654.213 143.778 654.769 145.615C655.238 147.176 655.637 148.753 656.043 150.331C656.373 151.605 656.72 152.87 657.101 154.129C657.688 156.069 658.187 158.031 658.683 159.996C659.001 161.245 659.338 162.481 659.723 163.711C660.187 165.191 660.577 166.685 660.957 168.19C661.432 170.05 661.924 171.899 662.48 173.737C662.948 175.297 663.348 176.875 663.754 178.452C664.083 179.726 664.431 180.991 664.812 182.25C665.399 184.19 665.898 186.153 666.394 188.118C666.712 189.366 667.049 190.602 667.434 191.832C667.898 193.313 668.288 194.807 668.667 196.311C669.143 198.171 669.635 200.021 670.191 201.858C670.659 203.419 671.059 204.996 671.465 206.574C671.794 207.847 672.141 209.112 672.523 210.372C673.11 212.312 673.609 214.274 674.105 216.239C674.423 217.488 674.76 218.724 675.145 219.953C675.608 221.434 675.998 222.928 676.378 224.432C676.853 226.293 677.345 228.142 677.902 229.98C678.37 231.54 678.77 233.117 679.175 234.695C679.505 235.969 679.852 237.234 680.233 238.493C680.82 240.433 681.319 242.395 681.815 244.361C682.201 245.874 682.628 247.367 683.095 248.858C683.394 249.825 683.666 250.798 683.933 251.774C683.983 251.956 684.033 252.137 684.084 252.324C684.204 252.76 684.324 253.195 684.443 253.631C684.778 253.003 685.008 252.406 685.191 251.719C685.244 251.523 685.297 251.327 685.351 251.124C685.407 250.913 685.463 250.702 685.52 250.485C685.642 250.032 685.764 249.579 685.885 249.126C685.947 248.894 686.009 248.663 686.073 248.424C686.357 247.362 686.648 246.301 686.938 245.24C687.051 244.823 687.165 244.406 687.279 243.989C687.502 243.169 687.726 242.35 687.95 241.53C688.562 239.291 689.17 237.05 689.772 234.808C690.539 231.958 691.314 229.112 692.092 226.265C692.76 223.822 693.424 221.379 694.081 218.933C694.847 216.083 695.623 213.237 696.401 210.39C697.069 207.947 697.733 205.504 698.39 203.058C699.156 200.208 699.932 197.362 700.71 194.515C701.378 192.072 702.042 189.629 702.699 187.183C703.356 184.739 704.02 182.296 704.687 179.854C704.97 178.82 705.252 177.785 705.534 176.751C705.871 175.514 706.209 174.277 706.547 173.041C707.159 170.801 707.766 168.561 708.369 166.319C709.135 163.469 709.911 160.622 710.689 157.776C711.357 155.333 712.02 152.889 712.678 150.444C713.444 147.594 714.22 144.747 714.998 141.901C715.666 139.458 716.329 137.014 716.987 134.569C717.753 131.719 718.528 128.872 719.307 126.026C719.974 123.583 720.638 121.139 721.296 118.694C722.062 115.844 722.837 112.997 723.616 110.151C724.283 107.708 724.947 105.264 725.605 102.819C726.262 100.374 726.925 97.9317 727.593 95.4901C727.875 94.4557 728.157 93.421 728.439 92.3864C728.777 91.1496 729.114 89.9129 729.452 88.6764C729.563 88.2688 729.675 87.8613 729.786 87.4538C729.868 87.1538 729.868 87.1538 729.952 86.8477C730.276 85.6615 730.595 84.4742 730.911 83.2858C730.983 83.0148 731.056 82.7439 731.13 82.4648C731.272 81.933 731.413 81.401 731.553 80.8688C731.617 80.6292 731.681 80.3896 731.746 80.1426C731.831 79.8215 731.831 79.8215 731.918 79.4939C732.068 79.0061 732.068 79.0061 732.295 78.7793C732.653 78.7573 733.012 78.7512 733.371 78.7514C733.605 78.7509 733.84 78.7505 734.081 78.75C734.342 78.7507 734.602 78.7513 734.871 78.752C735.145 78.7518 735.419 78.7516 735.702 78.7514C736.467 78.7511 737.232 78.7518 737.996 78.753C738.82 78.7539 739.643 78.7536 740.467 78.7534C741.895 78.7533 743.323 78.754 744.751 78.7553C746.815 78.7571 748.88 78.7577 750.945 78.758C754.294 78.7585 757.643 78.76 760.992 78.7622C764.247 78.7642 767.501 78.7659 770.755 78.7668C771.056 78.7669 771.056 78.7669 771.363 78.767C772.368 78.7673 773.374 78.7676 774.38 78.7679C782.728 78.7702 791.076 78.7742 799.423 78.7793C799.679 79.6882 799.934 80.5972 800.189 81.5062C800.261 81.7622 800.333 82.0182 800.407 82.2819C800.899 84.0386 801.372 85.7983 801.819 87.5672C802.329 89.5616 802.868 91.544 803.444 93.5204C803.917 95.1565 804.345 96.8031 804.767 98.4529C805.192 100.11 805.62 101.762 806.114 103.4C807.209 107.037 808.145 110.721 809.09 114.399C809.547 116.177 810.023 117.944 810.556 119.701C811.081 121.452 811.521 123.225 811.975 124.996C812.379 126.569 812.803 128.133 813.257 129.693C813.789 131.517 814.274 133.351 814.746 135.192C815.164 136.826 815.586 138.455 816.078 140.068C816.679 142.041 817.177 144.041 817.686 146.038C818.154 147.868 818.635 149.69 819.185 151.496C819.708 153.232 820.143 154.99 820.593 156.746C820.997 158.319 821.421 159.884 821.875 161.443C822.407 163.267 822.892 165.101 823.364 166.942C823.788 168.599 824.216 170.251 824.71 171.889C825.806 175.526 826.741 179.21 827.687 182.888C828.145 184.672 828.622 186.446 829.153 188.209C830.198 191.699 831.089 195.236 831.996 198.763C832.453 200.541 832.929 202.308 833.461 204.065C833.986 205.816 834.427 207.589 834.88 209.36C835.285 210.933 835.708 212.498 836.163 214.057C836.694 215.882 837.18 217.716 837.651 219.557C838.069 221.19 838.492 222.819 838.983 224.432C839.584 226.405 840.082 228.405 840.592 230.403C841.059 232.233 841.54 234.054 842.091 235.861C842.534 237.332 842.911 238.819 843.292 240.307C843.77 242.171 844.26 244.029 844.795 245.878C845.28 247.558 845.76 249.239 846.226 250.924C846.286 251.136 846.346 251.348 846.407 251.566C846.462 251.764 846.516 251.962 846.572 252.165C846.62 252.339 846.669 252.513 846.718 252.692C846.822 253.178 846.822 253.178 846.822 254.085C846.971 254.085 847.121 254.085 847.275 254.085C847.295 253.952 847.314 253.819 847.335 253.683C847.752 251.132 848.519 248.669 849.25 246.194C849.94 243.856 850.604 241.519 851.183 239.15C851.76 236.796 852.416 234.466 853.103 232.141C853.794 229.8 854.458 227.461 855.038 225.09C855.615 222.735 856.272 220.405 856.958 218.081C857.649 215.74 858.314 213.4 858.894 211.029C859.471 208.675 860.127 206.344 860.813 204.02C861.504 201.679 862.169 199.34 862.749 196.968C863.326 194.614 863.982 192.284 864.669 189.959C865.36 187.618 866.024 185.279 866.604 182.908C867.181 180.553 867.838 178.223 868.524 175.899C869.215 173.557 869.88 171.218 870.46 168.847C871.037 166.493 871.693 164.162 872.379 161.838C873.07 159.497 873.735 157.157 874.315 154.786C874.892 152.432 875.548 150.102 876.235 147.777C876.926 145.436 877.59 143.097 878.171 140.725C878.747 138.371 879.404 136.041 880.09 133.716C880.781 131.375 881.446 129.036 882.026 126.665C882.603 124.31 883.259 121.98 883.945 119.656C884.637 117.315 885.301 114.975 885.881 112.604C886.458 110.25 887.114 107.919 887.801 105.595C888.492 103.254 889.157 100.914 889.737 98.5432C890.313 96.189 890.97 93.8587 891.656 91.5342C892.34 89.2182 893.01 86.9056 893.571 84.5562C894.038 82.6132 894.591 80.7107 895.127 78.7793C916.531 78.7793 937.935 78.7793 959.988 78.7793C959.478 81.0755 959.478 81.0755 959.225 82.0008C959.167 82.2122 959.11 82.4236 959.05 82.6413C958.989 82.8669 958.927 83.0926 958.863 83.325C958.763 83.6922 958.763 83.6922 958.661 84.0668C958.438 84.8832 958.214 85.6995 957.991 86.5157C957.831 87.1024 957.671 87.6891 957.511 88.2759C957.166 89.5377 956.821 90.7994 956.476 92.061C955.976 93.8893 955.477 95.7177 954.978 97.5462C954.168 100.515 953.357 103.484 952.546 106.453C952.497 106.63 952.449 106.807 952.399 106.99C952.007 108.424 951.615 109.859 951.223 111.293C950.883 112.538 950.543 113.784 950.202 115.03C950.154 115.205 950.107 115.38 950.057 115.561C949.257 118.489 948.457 121.418 947.658 124.346C947.167 126.145 946.675 127.944 946.184 129.743C945.846 130.979 945.508 132.214 945.171 133.45C944.977 134.16 944.783 134.87 944.589 135.58C943.845 138.299 943.107 141.018 942.44 143.757C942.169 144.867 941.864 145.962 941.533 147.056C941.026 148.741 940.58 150.439 940.144 152.145C939.678 153.965 939.196 155.774 938.65 157.571C938.199 159.078 937.813 160.6 937.423 162.123C936.957 163.943 936.475 165.752 935.929 167.55C935.478 169.056 935.091 170.579 934.701 172.102C934.235 173.922 933.753 175.731 933.208 177.529C932.756 179.035 932.37 180.557 931.98 182.08C931.514 183.9 931.032 185.71 930.486 187.507C930.035 189.013 929.648 190.536 929.258 192.059C928.792 193.879 928.311 195.688 927.765 197.486C927.313 198.992 926.927 200.514 926.537 202.037C926.071 203.857 925.589 205.667 925.043 207.464C924.592 208.971 924.205 210.493 923.815 212.016C923.35 213.836 922.868 215.645 922.322 217.443C921.871 218.949 921.484 220.471 921.094 221.995C920.628 223.815 920.146 225.624 919.6 227.421C919.149 228.928 918.763 230.45 918.373 231.973C917.907 233.793 917.425 235.602 916.879 237.4C916.428 238.906 916.041 240.429 915.651 241.952C915.185 243.772 914.703 245.581 914.158 247.379C913.706 248.885 913.32 250.407 912.93 251.93C912.464 253.75 911.982 255.56 911.436 257.357C910.985 258.863 910.598 260.386 910.208 261.909C909.742 263.729 909.261 265.538 908.715 267.336C908.263 268.842 907.877 270.364 907.487 271.887C907.021 273.707 906.539 275.517 905.993 277.314C905.542 278.821 905.155 280.343 904.765 281.866C904.299 283.686 903.818 285.495 903.272 287.293C902.821 288.799 902.434 290.321 902.044 291.845C901.578 293.665 901.096 295.474 900.55 297.271C900.099 298.778 899.713 300.3 899.323 301.823C898.857 303.643 898.375 305.452 897.829 307.25C897.378 308.756 896.991 310.279 896.601 311.802C896.135 313.622 895.653 315.431 895.108 317.229C894.656 318.735 894.27 320.257 893.88 321.78C893.414 323.6 892.932 325.41 892.386 327.207C891.935 328.714 891.548 330.236 891.158 331.759C890.692 333.579 890.211 335.388 889.665 337.186C889.213 338.692 888.827 340.214 888.437 341.737C887.965 343.581 887.479 345.415 886.929 347.237C886.454 348.819 886.024 350.412 885.594 352.006C885.54 352.209 885.485 352.412 885.428 352.621C885.38 352.802 885.331 352.983 885.281 353.17C885.173 353.558 885.049 353.942 884.922 354.324C860.075 354.324 835.228 354.324 809.629 354.324C808.955 351.63 808.955 351.63 808.268 348.881C807.943 347.654 807.943 347.654 807.614 346.428C807.271 345.15 806.941 343.869 806.61 342.588C806.542 342.325 806.474 342.062 806.403 341.791C806.263 341.249 806.123 340.707 805.983 340.165C805.649 338.875 805.314 337.585 804.98 336.295C804.847 335.784 804.715 335.274 804.583 334.764C804.517 334.511 804.452 334.259 804.384 333.998C802.499 326.727 802.499 326.727 800.614 319.456C800.549 319.203 800.483 318.951 800.416 318.691C800.283 318.18 800.151 317.669 800.018 317.158C799.69 315.893 799.363 314.629 799.035 313.364C798.292 310.503 797.552 307.64 796.813 304.777C796.088 301.963 795.359 299.15 794.629 296.337C794.299 295.067 793.97 293.796 793.64 292.525C793.508 292.015 793.376 291.504 793.244 290.994C792.45 287.933 791.656 284.871 790.862 281.809C790.797 281.557 790.731 281.304 790.664 281.044C790.531 280.533 790.399 280.022 790.266 279.511C789.939 278.247 789.611 276.982 789.283 275.718C788.54 272.856 787.8 269.994 787.062 267.131C786.336 264.317 785.607 261.504 784.877 258.691C784.547 257.42 784.218 256.149 783.889 254.878C783.756 254.368 783.624 253.858 783.492 253.348C782.169 248.245 780.846 243.142 779.523 238.04C779.458 237.787 779.392 237.535 779.325 237.274C779.192 236.763 779.06 236.252 778.927 235.741C778.599 234.477 778.272 233.213 777.943 231.948C777.201 229.087 776.461 226.224 775.722 223.361C774.996 220.547 774.268 217.734 773.538 214.921C773.208 213.65 772.879 212.38 772.549 211.109C772.417 210.599 772.285 210.088 772.152 209.578C769.771 200.393 769.771 200.393 769.573 199.627C769.441 199.119 769.309 198.611 769.177 198.103C768.837 196.791 768.498 195.479 768.16 194.166C767.252 190.628 767.252 190.628 766.251 187.115C766.075 186.461 765.96 185.811 765.859 185.142C764.848 188.727 763.939 192.334 763.048 195.95C762.648 197.568 762.245 199.182 761.779 200.783C761.188 202.811 760.694 204.863 760.189 206.913C759.622 209.22 759.045 211.516 758.38 213.797C757.833 215.747 757.369 217.72 756.885 219.686C756.345 221.879 755.786 224.064 755.172 226.238C754.602 228.27 754.103 230.32 753.599 232.37C752.543 236.66 752.543 236.66 752.026 238.433C751.435 240.46 750.942 242.51 750.438 244.56C749.87 246.865 749.294 249.16 748.63 251.439C748.131 253.217 747.704 255.014 747.263 256.806C746.695 259.112 746.119 261.409 745.454 263.69C744.907 265.64 744.442 267.613 743.958 269.579C743.418 271.772 742.859 273.957 742.245 276.131C741.675 278.163 741.176 280.213 740.672 282.263C739.616 286.553 739.616 286.553 739.099 288.326C738.509 290.352 738.015 292.403 737.511 294.453C736.943 296.759 736.367 299.056 735.702 301.336C735.155 303.286 734.69 305.259 734.207 307.225C733.666 309.419 733.107 311.603 732.494 313.777C731.924 315.81 731.424 317.86 730.92 319.909C730.357 322.196 729.785 324.473 729.126 326.734C728.578 328.685 728.114 330.658 727.63 332.625C727.087 334.83 726.524 337.026 725.908 339.212C725.436 340.893 725.015 342.586 724.598 344.282C722.873 351.295 722.873 351.295 721.863 354.324C697.016 354.324 672.169 354.324 646.57 354.324C646.196 352.827 645.821 351.331 645.436 349.788C645.022 348.277 645.022 348.277 644.6 346.767C644.272 345.603 643.953 344.436 643.636 343.268C643.579 343.059 643.522 342.85 643.463 342.634C643.347 342.208 643.231 341.781 643.115 341.355C642.831 340.311 642.546 339.267 642.261 338.222C642.147 337.807 642.034 337.391 641.921 336.975C641.836 336.666 641.836 336.666 641.751 336.351C636.138 315.77 630.525 295.19 574.395 89.3806C574.282 88.9678 574.17 88.555 574.057 88.1422C573.761 87.0579 573.466 85.9733 573.173 84.8883C573.112 84.6629 573.05 84.4375 572.988 84.2053C572.871 83.7749 572.755 83.3443 572.638 82.9137C572.419 82.1057 572.198 81.3124 571.918 80.5227C571.73 79.9132 571.73 79.9132 571.73 78.7793Z" fill="#F6F8FA"/>
<path d="M0 35.4604C20.5808 35.4604 41.1616 35.4604 62.3661 35.4604C63.4087 36.9498 64.3809 38.4026 65.286 39.9678C66.4306 41.9253 67.5939 43.8706 68.7728 45.8076C68.8537 45.9406 68.9347 46.0736 69.018 46.2106C69.4321 46.8912 69.8463 47.5716 70.2607 48.2519C70.9899 49.4496 71.7173 50.6484 72.4448 51.8471C72.846 52.5081 73.2474 53.1691 73.6487 53.8301C73.8093 54.0947 73.97 54.3593 74.1306 54.6239C74.2101 54.7548 74.2897 54.8858 74.3716 55.0207C78.4679 61.7676 82.5642 68.5145 86.6606 75.2614C86.7401 75.3923 86.8196 75.5233 86.9015 75.6582C87.0622 75.9229 87.2229 76.1875 87.3835 76.4522C87.7846 77.1127 88.1857 77.7733 88.5867 78.4339C89.316 79.635 90.0452 80.8361 90.7743 82.0373C92.3404 84.6176 93.907 87.1977 95.4769 89.7757C97.1294 92.4894 98.7782 95.2055 100.427 97.9217C101.153 99.1189 101.88 100.316 102.607 101.513C103.008 102.174 103.41 102.835 103.811 103.496C103.972 103.761 104.133 104.025 104.293 104.29C116.221 123.935 116.221 123.935 132.245 150.327C132.364 150.524 132.364 150.524 132.485 150.724C132.646 150.989 132.807 151.254 132.967 151.518C133.369 152.179 133.77 152.839 134.171 153.5C134.9 154.701 135.629 155.902 136.358 157.103C137.924 159.684 139.491 162.264 141.061 164.842C142.713 167.556 144.362 170.272 146.011 172.988C146.737 174.185 147.464 175.382 148.191 176.579C148.592 177.24 148.994 177.901 149.395 178.562C149.556 178.827 149.716 179.091 149.877 179.356C157.829 192.453 165.78 205.55 174.214 219.44C174.375 219.705 174.536 219.97 174.696 220.235C175.096 220.893 175.496 221.551 175.895 222.21C176.641 223.438 177.387 224.667 178.133 225.895C178.482 226.469 178.83 227.042 179.179 227.616C179.343 227.887 179.508 228.158 179.672 228.429C179.902 228.807 180.132 229.185 180.361 229.563C180.491 229.776 180.621 229.99 180.755 230.21C181.36 231.211 181.961 232.215 182.563 233.218C182.675 135.328 182.675 135.328 182.789 35.4604C203.52 35.4604 224.25 35.4604 245.609 35.4604C245.609 140.685 245.609 245.909 245.609 354.321C224.879 354.321 204.148 354.321 182.789 354.321C179.41 348.863 179.41 348.863 177.97 346.483C177.808 346.215 177.646 345.948 177.483 345.68C177.15 345.129 176.816 344.579 176.482 344.028C175.755 342.828 175.027 341.629 174.298 340.429C173.897 339.768 173.496 339.107 173.094 338.446C172.934 338.182 172.773 337.917 172.612 337.653C164.661 324.556 156.709 311.459 71.4092 170.965C71.3297 170.834 71.2502 170.703 71.1683 170.568C71.0075 170.303 70.8468 170.039 70.686 169.774C70.2862 169.115 69.8864 168.457 69.4865 167.798C68.742 166.573 67.9978 165.346 67.2549 164.119C66.9087 163.548 66.5624 162.976 66.216 162.405C66.0529 162.136 65.89 161.866 65.7271 161.597C65.4994 161.221 65.2713 160.844 65.0433 160.468C64.8503 160.149 64.8503 160.149 64.6534 159.824C63.9776 158.731 63.2831 157.649 62.5929 156.564C62.5181 221.824 62.4432 287.084 62.3661 354.321C41.7853 354.321 21.2045 354.321 0 354.321C0 249.097 0 143.873 0 35.4604Z" fill="#F6F8FA"/>
<path d="M1734.26 78.6894C1734.8 78.6884 1735.35 78.6872 1735.89 78.6857C1737.22 78.6827 1738.54 78.6829 1739.86 78.6845C1741.45 78.6862 1743.04 78.684 1744.63 78.6816C1747.74 78.6772 1750.85 78.6766 1753.96 78.6778C1756.69 78.6789 1759.41 78.6787 1762.14 78.6774C1762.51 78.6772 1762.87 78.6771 1763.24 78.6769C1763.79 78.6766 1764.35 78.6764 1764.9 78.6761C1770.03 78.6737 1775.17 78.6726 1780.31 78.6744C1780.5 78.6745 1780.69 78.6745 1780.89 78.6746C1782.46 78.6752 1784.03 78.6757 1785.6 78.6763C1791.71 78.6786 1797.82 78.6767 1803.93 78.6715C1810.82 78.6655 1817.7 78.6626 1824.59 78.6643C1825.32 78.6644 1826.06 78.6646 1826.8 78.6647C1826.98 78.6648 1827.16 78.6648 1827.34 78.6648C1830.06 78.6654 1832.78 78.6636 1835.5 78.6606C1838.6 78.6572 1841.7 78.657 1844.8 78.661C1846.38 78.663 1847.95 78.6636 1849.53 78.66C1855.75 78.6472 1861.88 78.6363 1868.04 79.6844C1868.27 79.7239 1868.5 79.7633 1868.74 79.804C1876.47 81.139 1884.1 84.0966 1890.72 88.3023C1890.96 88.4584 1891.21 88.6145 1891.46 88.7753C1896.41 92.0094 1901.19 96.0058 1905 100.549C1905.1 100.66 1905.19 100.771 1905.29 100.885C1908.24 104.403 1910.83 108.254 1912.94 112.342C1913.09 112.624 1913.09 112.624 1913.23 112.913C1917.83 121.938 1920.01 131.497 1920 141.599C1920 142.057 1920 142.516 1920 142.975C1920 144.232 1920 145.49 1920 146.748C1920 148.126 1920 149.504 1920 150.882C1920 153.253 1920 155.623 1919.99 157.993C1919.99 161.39 1919.99 164.787 1919.99 168.184C1919.99 176.349 1919.99 184.515 1919.98 192.68C1919.98 210.923 1919.98 229.165 1919.97 247.96C1868.41 247.96 1816.84 247.96 1763.72 247.96C1763.88 246.777 1764.06 245.922 1764.45 244.827C1764.94 243.416 1765.36 241.995 1765.75 240.554C1766.11 239.243 1766.49 237.942 1766.89 236.642C1767.58 234.386 1768.26 232.126 1768.94 229.865C1769.04 229.526 1769.14 229.186 1769.24 228.847C1769.66 227.455 1770.08 226.062 1770.49 224.669C1770.8 223.637 1771.11 222.605 1771.42 221.574C1771.49 221.325 1771.49 221.325 1771.57 221.071C1772.24 218.826 1772.93 216.586 1773.65 214.356C1774.09 213.007 1774.48 211.649 1774.85 210.281C1775.21 208.961 1775.6 207.652 1776 206.344C1776.58 204.463 1777.15 202.58 1777.71 200.695C1777.78 200.46 1777.85 200.224 1777.93 199.981C1778.21 199.023 1778.5 198.064 1778.78 197.105C1779.98 193.098 1781.22 189.107 1782.54 185.14C1807.16 185.14 1831.78 185.14 1857.15 185.14C1859.75 168.485 1859.75 168.485 1853.68 145.24C1850.56 142.368 1847.12 141.914 1843.06 141.935C1842.62 141.934 1842.19 141.933 1841.75 141.931C1840.56 141.927 1839.37 141.929 1838.18 141.932C1836.89 141.934 1835.61 141.931 1834.32 141.928C1831.8 141.924 1829.29 141.925 1826.77 141.928C1824.72 141.93 1822.68 141.93 1820.63 141.929C1820.19 141.929 1820.19 141.929 1819.75 141.929C1819.16 141.928 1818.56 141.928 1817.97 141.928C1812.58 141.925 1807.19 141.928 1801.8 141.933C1796.88 141.937 1791.96 141.937 1787.04 141.932C1781.51 141.927 1775.98 141.925 1770.45 141.928C1769.86 141.929 1769.27 141.929 1768.68 141.929C1768.39 141.929 1768.1 141.929 1767.8 141.93C1765.76 141.93 1763.71 141.929 1761.67 141.927C1759.18 141.924 1756.69 141.925 1754.2 141.93C1752.93 141.932 1751.66 141.933 1750.39 141.93C1749.22 141.927 1748.06 141.929 1746.9 141.934C1746.48 141.935 1746.06 141.934 1745.64 141.932C1741.71 141.913 1738.43 142.733 1735.42 145.438C1733.24 147.745 1732.12 150.88 1732.13 154.006C1732.13 154.225 1732.13 154.444 1732.13 154.67C1732.13 155.405 1732.13 156.141 1732.13 156.876C1732.13 157.408 1732.13 157.94 1732.13 158.472C1732.12 159.782 1732.12 161.092 1732.12 162.402C1732.12 163.971 1732.12 165.54 1732.12 167.109C1732.11 170.542 1732.11 173.975 1732.11 177.408C1732.11 177.675 1732.11 177.675 1732.11 177.947C1732.11 178.214 1732.11 178.214 1732.11 178.487C1732.11 180.461 1732.11 182.436 1732.1 184.411C1732.1 190.376 1732.1 196.342 1732.1 202.308C1732.1 202.594 1732.1 202.594 1732.1 202.886C1732.1 203.66 1732.1 204.433 1732.1 205.206C1732.1 205.788 1732.1 206.37 1732.1 206.952C1732.1 207.144 1732.1 207.337 1732.1 207.535C1732.09 213.575 1732.09 219.615 1732.08 225.655C1732.07 232.442 1732.07 239.229 1732.07 246.016C1732.07 246.74 1732.07 247.465 1732.07 248.189C1732.07 248.367 1732.07 248.545 1732.07 248.729C1732.07 251.595 1732.06 254.461 1732.06 257.327C1732.05 260.21 1732.05 263.092 1732.05 265.975C1732.06 267.536 1732.06 269.096 1732.05 270.657C1732.05 272.087 1732.05 273.517 1732.05 274.947C1732.05 275.463 1732.05 275.979 1732.05 276.495C1732.02 280.348 1732.35 283.739 1734.69 286.967C1734.79 287.11 1734.89 287.253 1735 287.401C1736.8 289.702 1739.78 291.231 1742.62 291.729C1743.56 291.794 1744.48 291.792 1745.42 291.789C1745.7 291.789 1745.98 291.79 1746.27 291.791C1747.04 291.793 1747.82 291.793 1748.6 291.793C1749.44 291.792 1750.29 291.794 1751.13 291.796C1752.62 291.799 1754.1 291.801 1755.58 291.801C1757.78 291.801 1759.99 291.804 1762.19 291.807C1765.9 291.813 1769.6 291.817 1773.31 291.819C1776.98 291.822 1780.65 291.825 1784.32 291.829C1784.55 291.83 1784.77 291.83 1785.01 291.83C1786.17 291.832 1787.33 291.833 1788.48 291.835C1796.69 291.845 1804.9 291.853 1813.11 291.86C1821.08 291.867 1829.05 291.875 1837.03 291.884C1837.27 291.884 1837.52 291.885 1837.77 291.885C1840.24 291.888 1842.71 291.89 1845.17 291.893C1850.2 291.899 1855.23 291.905 1860.26 291.91C1860.49 291.911 1860.72 291.911 1860.96 291.911C1876.39 291.928 1891.83 291.942 1907.27 291.956C1907.09 292.612 1906.91 293.268 1906.72 293.924C1906.67 294.109 1906.62 294.294 1906.57 294.484C1906.23 295.705 1905.88 296.923 1905.52 298.137C1905.47 298.308 1905.42 298.479 1905.37 298.656C1905.21 299.187 1905.05 299.717 1904.89 300.248C1904.68 300.952 1904.47 301.656 1904.26 302.361C1904.21 302.533 1904.16 302.705 1904.1 302.883C1903.66 304.381 1903.21 305.881 1902.77 307.382C1902.38 308.704 1901.99 310.025 1901.6 311.346C1901.11 313.009 1900.62 314.671 1900.13 316.335C1899.56 318.27 1898.99 320.202 1898.41 322.134C1898 323.527 1897.59 324.92 1897.18 326.314C1896.61 328.248 1896.04 330.181 1895.46 332.113C1895.05 333.506 1894.64 334.899 1894.23 336.293C1893.66 338.227 1893.09 340.159 1892.52 342.092C1892.02 343.758 1891.53 345.425 1891.04 347.092C1890.62 348.522 1890.2 349.952 1889.77 351.381C1889.69 351.664 1889.6 351.948 1889.52 352.24C1889.31 352.934 1889.11 353.628 1888.9 354.322C1873.58 354.338 1858.25 354.352 1842.93 354.361C1842.7 354.361 1842.48 354.361 1842.24 354.361C1837.31 354.364 1832.37 354.366 1827.44 354.368C1825.02 354.37 1822.6 354.371 1820.18 354.372C1819.94 354.372 1819.7 354.372 1819.45 354.372C1811.65 354.376 1803.85 354.383 1796.06 354.391C1788.04 354.4 1780.02 354.405 1772.01 354.407C1770.87 354.408 1769.74 354.408 1768.6 354.408C1768.38 354.408 1768.16 354.408 1767.93 354.408C1764.34 354.409 1760.76 354.414 1757.18 354.419C1753.57 354.424 1749.96 354.426 1746.36 354.425C1744.22 354.424 1742.08 354.426 1739.94 354.432C1738.5 354.435 1737.07 354.435 1735.63 354.433C1734.82 354.431 1734 354.431 1733.19 354.435C1723.3 354.483 1713.65 352.595 1704.75 348.199C1704.56 348.104 1704.36 348.008 1704.16 347.91C1701.26 346.477 1698.54 344.857 1695.91 342.983C1695.78 342.891 1695.65 342.799 1695.51 342.705C1692.02 340.204 1688.4 337.265 1685.65 333.943C1685.33 333.556 1685 333.177 1684.66 332.802C1674.16 321.029 1669.51 305.778 1669.54 290.24C1669.54 289.436 1669.54 288.631 1669.54 287.827C1669.54 286.421 1669.53 285.015 1669.54 283.609C1669.54 281.518 1669.54 279.427 1669.53 277.336C1669.53 273.383 1669.53 269.43 1669.53 265.476C1669.53 262.422 1669.53 259.367 1669.53 256.312C1669.53 255.872 1669.53 255.432 1669.53 254.993C1669.53 254.33 1669.53 253.667 1669.53 253.004C1669.53 246.846 1669.53 240.687 1669.53 234.528C1669.53 234.296 1669.53 234.064 1669.53 233.825C1669.53 232.65 1669.53 231.474 1669.53 230.299C1669.53 230.065 1669.53 229.832 1669.53 229.591C1669.53 229.119 1669.53 228.647 1669.53 228.175C1669.53 220.836 1669.53 213.497 1669.52 206.158C1669.52 197.9 1669.52 189.643 1669.52 181.385C1669.52 180.503 1669.52 179.621 1669.52 178.739C1669.52 178.522 1669.52 178.305 1669.52 178.081C1669.52 174.815 1669.52 171.549 1669.51 168.282C1669.51 164.563 1669.51 160.844 1669.51 157.124C1669.51 155.048 1669.51 152.972 1669.51 150.895C1669.51 149.502 1669.51 148.109 1669.51 146.715C1669.51 145.926 1669.51 145.136 1669.51 144.346C1669.5 141.067 1669.6 137.823 1669.91 134.559C1669.94 134.265 1669.96 133.972 1669.99 133.669C1670.69 126.764 1672.87 119.91 1675.95 113.702C1676.03 113.527 1676.12 113.352 1676.21 113.171C1678.27 108.955 1680.89 105.063 1683.89 101.456C1684.04 101.263 1684.04 101.263 1684.21 101.066C1686.46 98.3235 1688.89 95.7335 1691.69 93.5308C1692.07 93.2281 1692.45 92.9177 1692.82 92.5988C1704.3 82.7612 1719.4 78.6462 1734.26 78.6894Z" fill="#F6F8FA"/>
<path d="M355.172 78.6894C355.716 78.6884 356.261 78.6872 356.805 78.6857C358.128 78.6827 359.451 78.6829 360.774 78.6845C362.363 78.6862 363.952 78.684 365.54 78.6816C368.653 78.6772 371.765 78.6766 374.877 78.6778C377.601 78.6789 380.326 78.6787 383.05 78.6774C383.417 78.6772 383.784 78.6771 384.151 78.6769C384.704 78.6766 385.258 78.6764 385.811 78.6761C390.947 78.6737 396.082 78.6726 401.218 78.6744C401.411 78.6745 401.605 78.6745 401.804 78.6746C403.372 78.6752 404.94 78.6757 406.508 78.6763C412.62 78.6786 418.732 78.6767 424.845 78.6715C431.73 78.6655 438.615 78.6626 445.5 78.6643C446.236 78.6644 446.972 78.6646 447.708 78.6647C447.889 78.6648 448.07 78.6648 448.257 78.6648C450.977 78.6654 453.697 78.6636 456.417 78.6606C459.515 78.6572 462.612 78.657 465.71 78.661C467.288 78.663 468.865 78.6636 470.442 78.66C476.667 78.6472 482.797 78.6363 488.949 79.6844C489.182 79.7239 489.415 79.7633 489.655 79.804C497.381 81.139 505.017 84.0966 511.627 88.3023C511.873 88.4584 512.119 88.6145 512.372 88.7753C517.326 92.0094 522.104 96.0058 525.915 100.549C526.008 100.66 526.102 100.771 526.199 100.885C529.156 104.403 531.747 108.254 533.852 112.342C533.998 112.624 533.998 112.624 534.147 112.913C538.744 121.938 540.926 131.497 540.91 141.599C540.91 142.057 540.91 142.516 540.91 142.975C540.911 144.232 540.91 145.49 540.909 146.748C540.908 148.126 540.908 149.504 540.908 150.882C540.908 153.253 540.908 155.623 540.907 157.993C540.905 161.39 540.904 164.787 540.904 168.184C540.903 176.349 540.9 184.515 540.897 192.68C540.892 210.923 540.887 229.165 540.883 247.96C489.318 247.96 437.754 247.96 384.627 247.96C384.796 246.777 384.976 245.922 385.364 244.827C385.852 243.416 386.268 241.995 386.659 240.554C387.017 239.243 387.404 237.942 387.804 236.642C388.494 234.386 389.174 232.126 389.85 229.865C389.952 229.526 390.053 229.186 390.155 228.847C390.572 227.455 390.988 226.062 391.404 224.669C391.713 223.637 392.022 222.605 392.331 221.574C392.405 221.325 392.405 221.325 392.481 221.071C393.155 218.826 393.843 216.586 394.566 214.356C395.003 213.007 395.391 211.649 395.762 210.281C396.122 208.961 396.514 207.652 396.916 206.344C397.491 204.463 398.061 202.58 398.624 200.695C398.694 200.46 398.765 200.224 398.837 199.981C399.124 199.023 399.411 198.064 399.697 197.105C400.892 193.098 402.128 189.107 403.45 185.14C428.072 185.14 452.695 185.14 478.063 185.14C480.658 168.485 480.658 168.485 474.59 145.24C471.471 142.368 468.034 141.914 463.971 141.935C463.536 141.934 463.1 141.933 462.665 141.931C461.474 141.927 460.284 141.929 459.093 141.932C457.807 141.934 456.521 141.931 455.234 141.928C452.717 141.924 450.199 141.925 447.682 141.928C445.636 141.93 443.59 141.93 441.543 141.929C441.106 141.929 441.106 141.929 440.66 141.929C440.068 141.928 439.476 141.928 438.883 141.928C433.492 141.925 428.1 141.928 422.709 141.933C417.791 141.937 412.873 141.937 407.954 141.932C402.424 141.927 396.893 141.925 391.363 141.928C390.773 141.929 390.183 141.929 389.593 141.929C389.303 141.929 389.013 141.929 388.714 141.93C386.67 141.93 384.627 141.929 382.583 141.927C380.092 141.924 377.602 141.925 375.111 141.93C373.841 141.932 372.57 141.933 371.3 141.93C370.136 141.927 368.973 141.929 367.809 141.934C367.389 141.935 366.969 141.934 366.549 141.932C362.626 141.913 359.345 142.733 356.336 145.438C354.156 147.745 353.031 150.88 353.045 154.006C353.044 154.225 353.043 154.444 353.042 154.67C353.04 155.405 353.041 156.141 353.042 156.876C353.041 157.408 353.039 157.94 353.038 158.472C353.035 159.782 353.034 161.092 353.035 162.402C353.035 163.971 353.032 165.54 353.029 167.109C353.024 170.542 353.022 173.975 353.021 177.408C353.021 177.675 353.021 177.675 353.021 177.947C353.02 178.214 353.02 178.214 353.02 178.487C353.02 180.461 353.018 182.436 353.017 184.411C353.012 190.376 353.009 196.342 353.008 202.308C353.008 202.594 353.008 202.594 353.008 202.886C353.008 203.66 353.008 204.433 353.008 205.206C353.007 205.788 353.007 206.37 353.007 206.952C353.007 207.144 353.007 207.337 353.007 207.535C353.007 213.575 353.002 219.615 352.993 225.655C352.984 232.442 352.979 239.229 352.979 246.016C352.979 246.74 352.979 247.465 352.979 248.189C352.979 248.367 352.979 248.545 352.979 248.729C352.978 251.595 352.974 254.461 352.969 257.327C352.964 260.21 352.963 263.092 352.966 265.975C352.968 267.536 352.968 269.096 352.963 270.657C352.958 272.087 352.959 273.517 352.963 274.947C352.964 275.463 352.963 275.979 352.96 276.495C352.937 280.348 353.265 283.739 355.599 286.967C355.701 287.11 355.803 287.253 355.908 287.401C357.707 289.702 360.689 291.231 363.536 291.729C364.468 291.794 365.397 291.792 366.331 291.789C366.611 291.789 366.891 291.79 367.179 291.791C367.956 291.793 368.733 291.793 369.51 291.793C370.356 291.792 371.201 291.794 372.047 291.796C373.529 291.799 375.01 291.801 376.492 291.801C378.695 291.801 380.898 291.804 383.101 291.807C386.808 291.813 390.514 291.817 394.22 291.819C397.89 291.822 401.559 291.825 405.229 291.829C405.457 291.83 405.685 291.83 405.92 291.83C407.079 291.832 408.237 291.833 409.396 291.835C417.603 291.845 425.81 291.853 434.017 291.86C441.991 291.867 449.964 291.875 457.938 291.884C458.183 291.884 458.429 291.885 458.682 291.885C461.15 291.888 463.618 291.89 466.086 291.893C471.114 291.899 476.141 291.905 481.169 291.91C481.4 291.911 481.631 291.911 481.869 291.911C497.307 291.928 512.745 291.942 528.183 291.956C528.001 292.612 527.819 293.268 527.637 293.924C527.586 294.109 527.534 294.294 527.482 294.484C527.143 295.705 526.797 296.923 526.432 298.137C526.381 298.308 526.33 298.479 526.277 298.656C526.119 299.187 525.96 299.717 525.801 300.248C525.591 300.952 525.381 301.656 525.171 302.361C525.119 302.533 525.068 302.705 525.015 302.883C524.567 304.381 524.126 305.881 523.685 307.382C523.297 308.704 522.905 310.025 522.513 311.346C522.02 313.009 521.527 314.671 521.039 316.335C520.471 318.27 519.898 320.202 519.325 322.134C518.912 323.527 518.5 324.92 518.091 326.314C517.523 328.248 516.949 330.181 516.376 332.113C515.964 333.506 515.552 334.899 515.142 336.293C514.575 338.227 514.001 340.159 513.428 342.092C512.934 343.758 512.443 345.425 511.953 347.092C511.533 348.522 511.108 349.952 510.685 351.381C510.601 351.664 510.517 351.948 510.43 352.24C510.224 352.934 510.019 353.628 509.813 354.322C494.49 354.338 479.167 354.352 463.844 354.361C463.617 354.361 463.39 354.361 463.156 354.361C458.221 354.364 453.286 354.366 448.351 354.368C445.93 354.37 443.51 354.371 441.089 354.372C440.848 354.372 440.607 354.372 440.359 354.372C432.563 354.376 424.766 354.383 416.969 354.391C408.952 354.4 400.935 354.405 392.919 354.407C391.784 354.408 390.65 354.408 389.516 354.408C389.293 354.408 389.07 354.408 388.84 354.408C385.257 354.409 381.674 354.414 378.091 354.419C374.483 354.424 370.875 354.426 367.267 354.425C365.128 354.424 362.988 354.426 360.849 354.432C359.414 354.435 357.979 354.435 356.545 354.433C355.731 354.431 354.917 354.431 354.103 354.435C344.214 354.483 334.566 352.595 325.663 348.199C325.468 348.104 325.274 348.008 325.073 347.91C322.172 346.477 319.456 344.857 316.818 342.983C316.689 342.891 316.559 342.799 316.426 342.705C312.933 340.204 309.311 337.265 306.561 333.943C306.24 333.556 305.908 333.177 305.573 332.802C295.075 321.029 290.423 305.778 290.451 290.24C290.452 289.436 290.451 288.631 290.449 287.827C290.447 286.421 290.447 285.015 290.448 283.609C290.449 281.518 290.448 279.427 290.446 277.336C290.442 273.383 290.442 269.43 290.442 265.476C290.443 262.422 290.442 259.367 290.441 256.312C290.441 255.872 290.441 255.432 290.441 254.993C290.441 254.33 290.441 253.667 290.44 253.004C290.439 246.846 290.438 240.687 290.438 234.528C290.439 234.296 290.439 234.064 290.439 233.825C290.439 232.65 290.439 231.474 290.439 230.299C290.439 230.065 290.439 229.832 290.439 229.591C290.439 229.119 290.439 228.647 290.44 228.175C290.441 220.836 290.439 213.497 290.435 206.158C290.43 197.9 290.428 189.643 290.429 181.385C290.429 180.503 290.429 179.621 290.429 178.739C290.429 178.522 290.429 178.305 290.429 178.081C290.429 174.815 290.428 171.549 290.425 168.282C290.422 164.563 290.422 160.844 290.425 157.124C290.426 155.048 290.426 152.972 290.423 150.895C290.421 149.502 290.422 148.109 290.424 146.715C290.426 145.926 290.426 145.136 290.423 144.346C290.414 141.067 290.516 137.823 290.82 134.559C290.847 134.265 290.875 133.972 290.903 133.669C291.599 126.764 293.782 119.91 296.861 113.702C296.946 113.527 297.031 113.352 297.119 113.171C299.181 108.955 301.801 105.063 304.798 101.456C304.957 101.263 304.957 101.263 305.119 101.066C307.377 98.3235 309.803 95.7335 312.599 93.5308C312.982 93.2281 313.36 92.9177 313.731 92.5988C325.208 82.7612 340.313 78.6462 355.172 78.6894Z" fill="#F6F8FA"/>
<path d="M1059.64 0.00218926C1060.11 0.00189157 1060.57 0.00129404 1061.04 0.000427704C1062.3 -0.00107521 1063.56 0.00160215 1064.82 0.00503921C1066.18 0.00800333 1067.55 0.00698123 1068.92 0.00646641C1071.28 0.0061113 1073.64 0.00820472 1076 0.0120711C1078.47 0.0161111 1080.94 0.0187183 1083.41 0.0194549C1083.57 0.0195017 1083.72 0.0195484 1083.88 0.0195966C1084.66 0.0198268 1085.45 0.0200319 1086.23 0.0202272C1091.77 0.0216523 1097.31 0.0262252 1102.85 0.0326795C1108.22 0.0389386 1113.6 0.0437529 1118.97 0.0466322C1119.22 0.0467664 1119.22 0.0467664 1119.48 0.0469033C1121.14 0.0478005 1122.81 0.0486685 1124.48 0.0495151C1127.88 0.0512402 1131.27 0.0531597 1134.67 0.0551969C1134.82 0.0552903 1134.98 0.0553837 1135.14 0.0554799C1145.55 0.0617288 1155.95 0.0725221 1166.36 0.0840053C1166.29 0.443122 1166.22 0.802137 1166.15 1.16111C1166.11 1.36105 1166.07 1.56099 1166.03 1.76698C1165.85 2.60062 1165.61 3.40713 1165.36 4.22019C1165.24 4.61872 1165.12 5.01726 1165 5.4158C1164.93 5.64372 1164.86 5.87164 1164.78 6.10647C1164.51 7.006 1164.24 7.90629 1163.96 8.80673C1163.91 8.97928 1163.86 9.15183 1163.81 9.32961C1163.7 9.69014 1163.59 10.0507 1163.48 10.4112C1163.19 11.3491 1162.91 12.2869 1162.63 13.2247C1162.57 13.4151 1162.51 13.6055 1162.45 13.8017C1162.16 14.7737 1161.86 15.7457 1161.57 16.7177C1161.28 17.6743 1160.99 18.6309 1160.7 19.5876C1160.59 19.9459 1160.48 20.3041 1160.37 20.6623C1159.78 22.6037 1159.2 24.5468 1158.63 26.4935C1157.65 29.8311 1156.64 33.1591 1155.63 36.4881C1155.44 37.1097 1155.26 37.7313 1155.07 38.3529C1154.53 40.1164 1154 41.88 1153.47 43.6434C1153.14 44.7324 1152.81 45.8213 1152.48 46.9103C1152.36 47.3192 1152.23 47.7281 1152.11 48.137C1151.41 50.4428 1150.72 52.7503 1150.04 55.0625C1149.68 56.2991 1149.31 57.5326 1148.93 58.7657C1148.63 59.7487 1148.35 60.7342 1148.08 61.7251C1148.02 61.9467 1147.96 62.1683 1147.9 62.3967C1147.85 62.564 1147.81 62.7313 1147.76 62.9037C1147.6 62.9038 1147.44 62.904 1147.27 62.9041C1137.6 62.9122 1127.93 62.9251 1118.26 62.944C1117.1 62.9463 1115.94 62.9485 1114.77 62.9507C1114.54 62.9512 1114.31 62.9516 1114.07 62.9521C1110.33 62.9591 1106.59 62.963 1102.85 62.9656C1099.01 62.9685 1095.17 62.9747 1091.32 62.9841C1088.95 62.9898 1086.59 62.9928 1084.22 62.9925C1082.59 62.9925 1080.96 62.9958 1079.34 63.0017C1078.4 63.005 1077.46 63.0069 1076.53 63.0048C1075.67 63.0029 1074.81 63.0052 1073.95 63.0108C1073.49 63.0127 1073.04 63.0102 1072.58 63.0074C1069.27 63.0387 1066.2 64.1951 1063.77 66.4897C1061.84 68.5691 1060.42 71.3921 1060.42 74.2548C1060.42 74.5378 1060.42 74.8208 1060.42 75.1125C1060.42 75.4271 1060.42 75.7417 1060.42 76.0564C1060.42 76.3902 1060.42 76.724 1060.42 77.0578C1060.42 77.9763 1060.42 78.8947 1060.42 79.8132C1060.42 80.8032 1060.42 81.7932 1060.42 82.7832C1060.42 84.4988 1060.42 86.2145 1060.43 87.9301C1060.43 90.4107 1060.43 92.8912 1060.43 95.3717C1060.43 99.3961 1060.43 103.42 1060.43 107.445C1060.43 111.354 1060.44 115.264 1060.44 119.174C1060.44 119.415 1060.44 119.656 1060.44 119.904C1060.44 121.112 1060.44 122.321 1060.44 123.53C1060.44 133.559 1060.44 143.589 1060.45 153.618C1060.62 153.448 1060.79 153.277 1060.96 153.102C1061.6 152.463 1062.23 151.824 1062.87 151.186C1063.14 150.911 1063.42 150.636 1063.69 150.361C1066.44 147.59 1066.44 147.59 1067.8 146.441C1068.41 145.916 1068.98 145.344 1069.55 144.772C1069.67 144.646 1069.8 144.52 1069.93 144.39C1070.2 144.12 1070.46 143.849 1070.73 143.579C1071.16 143.149 1071.59 142.72 1072.02 142.291C1072.92 141.38 1073.83 140.469 1074.74 139.557C1075.79 138.5 1076.84 137.443 1077.9 136.386C1078.31 135.966 1078.73 135.546 1079.15 135.125C1079.41 134.864 1079.67 134.604 1079.93 134.343C1080.04 134.228 1080.16 134.113 1080.27 133.995C1080.88 133.387 1081.51 132.82 1082.17 132.27C1082.99 131.555 1083.63 130.792 1084.28 129.921C1086.8 126.552 1089.8 122.971 1094.1 122.128C1097.63 121.632 1101.21 121.75 1104.76 121.884C1106.48 121.948 1108.2 121.953 1109.92 121.96C1114.44 122.005 1118.95 122.125 1123.47 122.237C1133.58 122.414 1143.69 122.592 1154.11 122.775C1154.11 143.356 1154.11 163.937 1154.11 185.141C1123.13 185.141 1092.15 185.141 1060.22 185.141C1060.22 240.971 1060.22 296.802 1060.22 354.323C1039.64 354.323 1019.06 354.323 997.857 354.323C997.848 320.076 997.848 320.076 997.846 310.603C997.845 310.051 997.845 309.498 997.845 308.946C997.842 296.041 997.84 283.137 997.838 270.232C997.838 269.813 997.838 269.394 997.838 268.975C997.836 260.178 997.835 251.381 997.834 242.585C997.833 238.166 997.833 233.747 997.832 229.328C997.832 228.661 997.832 227.994 997.832 227.328C997.83 217.066 997.829 206.805 997.826 196.544C997.826 196.213 997.826 196.213 997.826 195.875C997.825 192.32 997.824 188.764 997.823 185.209C997.82 174.964 997.817 164.72 997.816 154.476C997.816 154.265 997.816 154.054 997.816 153.837C997.815 149.209 997.815 144.581 997.814 139.954C997.814 138.091 997.814 136.229 997.814 134.367C997.814 134.163 997.814 133.959 997.814 133.749C997.813 127.189 997.811 120.628 997.809 114.067C997.806 107.455 997.805 100.844 997.805 94.2317C997.806 93.3168 997.806 92.4019 997.806 91.487C997.806 91.3076 997.806 91.1283 997.806 90.9435C997.806 88.1105 997.805 85.2774 997.803 82.4443C997.801 79.6545 997.8 76.8647 997.802 74.0748C997.802 72.5841 997.802 71.0933 997.8 69.6026C997.798 68.2435 997.799 66.8845 997.801 65.5255C997.801 65.0396 997.801 64.5537 997.799 64.0679C997.788 59.5056 998.014 54.9654 998.934 50.4872C998.978 50.2665 998.978 50.2665 999.024 50.0413C999.539 47.4728 1000.17 44.9673 1001.03 42.493C1001.13 42.2158 1001.13 42.2158 1001.22 41.933C1003.99 34.0026 1008.22 27.0233 1013.73 20.7215C1013.91 20.5186 1014.09 20.3157 1014.27 20.1067C1015.94 18.2234 1017.69 16.4389 1019.63 14.8251C1019.74 14.732 1019.85 14.6389 1019.96 14.5429C1031.06 5.21498 1045.14 -0.0684836 1059.64 0.00218926Z" fill="#F6F8FA"/>
<path d="M1492.47 78.7805C1513.05 78.7805 1533.63 78.7805 1554.84 78.7805C1554.91 88.9586 1554.99 99.1368 1555.07 109.623C1555.81 108.875 1556.56 108.127 1557.33 107.355C1557.77 106.978 1558.2 106.6 1558.64 106.225C1559.71 105.265 1560.71 104.232 1561.72 103.213C1562.15 102.783 1562.57 102.354 1563 101.925C1563.91 101.014 1564.82 100.103 1565.72 99.1912C1566.78 98.1337 1567.83 97.0765 1568.88 96.0203C1569.3 95.6004 1569.72 95.1797 1570.14 94.759C1570.4 94.4983 1570.66 94.2376 1570.92 93.9769C1571.03 93.8621 1571.14 93.7473 1571.26 93.629C1571.73 93.1551 1572.2 92.6943 1572.73 92.2755C1573.91 91.3238 1574.65 90.274 1575.47 88.9996C1578.34 84.5545 1582.42 79.6989 1587.76 78.3957C1591.64 77.6168 1595.62 77.5749 1599.56 77.5845C1599.71 77.5848 1599.86 77.5851 1600.02 77.5854C1603.91 77.5959 1607.8 77.7279 1611.69 77.8984C1613.95 77.9964 1616.21 78.0626 1618.47 78.1078C1618.63 78.111 1618.79 78.1142 1618.96 78.1175C1619.76 78.1335 1620.57 78.149 1621.38 78.1642C1628 78.2898 1634.62 78.5052 1641.24 78.7805C1641.07 79.8552 1640.82 80.8773 1640.51 81.9174C1640.43 82.1694 1640.43 82.1694 1640.35 82.4266C1640.25 82.7772 1640.14 83.1277 1640.04 83.4781C1639.8 84.2795 1639.56 85.0819 1639.32 85.8844C1639.28 86.0389 1639.23 86.1935 1639.19 86.3527C1639.05 86.8288 1638.9 87.3049 1638.76 87.781C1638.71 87.9468 1638.67 88.1126 1638.62 88.2835C1637.94 90.5561 1637.3 92.8335 1636.69 95.1225C1636.36 96.3294 1636 97.5118 1635.59 98.6933C1634.83 100.985 1634.22 103.328 1633.58 105.653C1633.51 105.901 1633.44 106.149 1633.37 106.404C1633.24 106.882 1633.11 107.359 1632.97 107.837C1632.66 108.977 1632.32 110.103 1631.94 111.224C1631.51 112.493 1631.15 113.771 1630.81 115.066C1630.41 116.582 1629.98 118.074 1629.46 119.558C1628.71 121.85 1628.1 124.192 1627.46 126.517C1627.39 126.765 1627.32 127.013 1627.25 127.269C1627.11 127.746 1626.98 128.223 1626.85 128.701C1626.54 129.842 1626.2 130.969 1625.82 132.091C1625.33 133.54 1624.93 135.006 1624.55 136.486C1624.21 137.743 1623.83 138.977 1623.42 140.209C1623.37 140.365 1623.31 140.522 1623.26 140.683C1623.13 141.064 1623 141.446 1622.87 141.827C1622.58 141.827 1622.28 141.828 1621.98 141.828C1614.93 141.836 1607.88 141.849 1600.83 141.867C1599.96 141.87 1599.09 141.872 1598.22 141.874C1598.05 141.874 1597.87 141.875 1597.7 141.875C1594.9 141.882 1592.1 141.886 1589.31 141.889C1586.44 141.892 1583.56 141.898 1580.69 141.907C1578.92 141.913 1577.15 141.916 1575.38 141.916C1574.02 141.916 1572.66 141.92 1571.3 141.927C1570.75 141.929 1570.19 141.929 1569.63 141.928C1565.76 141.857 1565.76 141.857 1562.1 142.961C1561.84 143.081 1561.57 143.201 1561.31 143.325C1558.19 145.148 1556.38 147.529 1555.28 150.948C1555.07 151.774 1555.01 152.452 1555.01 153.301C1555.01 153.595 1555.01 153.889 1555 154.192C1555 154.516 1555.01 154.84 1555.01 155.164C1555.01 155.511 1555 155.858 1555 156.205C1555 157.162 1555 158.119 1555 159.076C1555 160.115 1555 161.155 1555 162.195C1555 164.018 1554.99 165.842 1554.99 167.665C1554.99 170.376 1554.99 173.087 1554.99 175.798C1554.98 180.359 1554.98 184.919 1554.98 189.479C1554.97 193.995 1554.97 198.512 1554.97 203.028C1554.97 203.309 1554.96 203.589 1554.96 203.878C1554.96 205.304 1554.96 206.729 1554.96 208.154C1554.95 218.253 1554.94 228.352 1554.93 238.451C1554.93 240.899 1554.93 243.347 1554.93 245.795C1554.93 245.947 1554.93 246.099 1554.93 246.255C1554.92 253.313 1554.92 260.371 1554.91 267.428C1554.91 267.887 1554.91 268.345 1554.91 268.803C1554.91 271.839 1554.9 274.876 1554.9 277.912C1554.9 284.098 1554.89 290.284 1554.88 296.47C1554.88 296.754 1554.88 297.039 1554.88 297.332C1554.88 306.051 1554.87 314.77 1554.86 323.489C1554.86 323.736 1554.86 323.984 1554.86 324.239C1554.85 334.268 1554.85 344.296 1554.84 354.325C1534.26 354.325 1513.68 354.325 1492.47 354.325C1492.47 263.395 1492.47 172.466 1492.47 78.7805Z" fill="#F6F8FA"/>
<path d="M1377.13 78.66C1383.36 78.6471 1389.49 78.6364 1395.64 79.6845C1395.87 79.724 1396.1 79.7632 1396.34 79.8039C1404.07 81.1389 1411.71 84.0967 1418.32 88.3024L1419.06 88.7754C1424.01 92.0095 1428.79 96.0059 1432.6 100.549C1432.7 100.66 1432.79 100.771 1432.89 100.885C1435.84 104.403 1438.44 108.254 1440.54 112.342C1440.69 112.625 1440.69 112.624 1440.84 112.913C1445.09 121.271 1447.62 130.469 1447.6 139.883C1447.6 140.291 1447.6 140.291 1447.6 140.707C1447.6 141.457 1447.6 142.207 1447.6 142.957C1447.6 143.775 1447.6 144.593 1447.61 145.411C1447.61 147.031 1447.61 148.651 1447.61 150.271C1447.61 152.213 1447.61 154.155 1447.61 156.096C1447.62 160.788 1447.62 165.48 1447.62 170.171C1447.62 172.392 1447.62 174.613 1447.62 176.834C1447.62 184.441 1447.63 192.047 1447.63 199.654C1447.63 200.131 1447.63 200.608 1447.63 201.085C1447.63 201.564 1447.63 202.042 1447.63 202.52C1447.63 203.48 1447.63 204.44 1447.63 205.399C1447.63 205.637 1447.63 205.875 1447.63 206.12C1447.63 213.833 1447.63 221.545 1447.64 229.258C1447.64 237.418 1447.64 245.578 1447.65 253.738C1447.65 254.635 1447.65 255.531 1447.65 256.428C1447.65 256.648 1447.65 256.869 1447.65 257.096C1447.65 260.642 1447.65 264.188 1447.65 267.734C1447.65 271.3 1447.66 274.867 1447.65 278.434C1447.65 280.55 1447.65 282.666 1447.66 284.782C1447.66 286.199 1447.66 287.616 1447.66 289.033C1447.66 289.838 1447.66 290.643 1447.66 291.448C1447.7 307.324 1441.95 322.906 1430.94 334.472C1430.51 334.896 1430.09 335.312 1429.66 335.726C1429.11 336.271 1428.56 336.819 1428.03 337.379C1424.84 340.682 1420.91 343.409 1416.96 345.704C1416.79 345.801 1416.62 345.897 1416.45 345.996C1413.75 347.555 1411.02 348.885 1408.11 350.013C1407.82 350.128 1407.82 350.128 1407.53 350.244C1399.75 353.312 1391.74 354.356 1383.44 354.355C1382.89 354.356 1382.33 354.357 1381.78 354.358C1380.43 354.36 1379.08 354.361 1377.73 354.362C1376.11 354.362 1374.49 354.364 1372.87 354.366C1368.96 354.371 1365.04 354.373 1361.13 354.375C1359.28 354.376 1357.42 354.377 1355.57 354.379C1349.22 354.383 1342.86 354.386 1336.51 354.388C1336.11 354.388 1335.71 354.388 1335.31 354.388C1335.01 354.388 1335.01 354.388 1334.71 354.388C1333.71 354.388 1332.71 354.389 1331.71 354.389C1331.41 354.389 1331.41 354.389 1331.11 354.389C1324.67 354.391 1318.24 354.396 1311.8 354.404C1304.99 354.411 1298.17 354.416 1291.36 354.417C1290.61 354.417 1289.86 354.417 1289.11 354.417C1288.93 354.417 1288.74 354.417 1288.55 354.417C1285.6 354.418 1282.64 354.421 1279.68 354.426C1276.71 354.43 1273.73 354.432 1270.75 354.43C1269.14 354.428 1267.53 354.429 1265.92 354.433C1253.52 354.467 1253.52 354.467 1248.23 353.415C1247.76 353.328 1247.29 353.242 1246.82 353.155C1241.8 352.22 1236.93 350.459 1232.35 348.199C1232.16 348.104 1231.96 348.008 1231.76 347.91C1228.86 346.477 1226.14 344.857 1223.51 342.983C1223.38 342.891 1223.25 342.799 1223.12 342.705C1219.62 340.204 1216 337.265 1213.25 333.943C1212.93 333.556 1212.6 333.177 1212.26 332.802C1201.76 321.029 1197.11 305.778 1197.14 290.24C1197.14 289.436 1197.14 288.631 1197.14 287.827C1197.14 286.421 1197.14 285.015 1197.14 283.609C1197.14 281.518 1197.14 279.427 1197.14 277.336C1197.13 273.383 1197.13 269.43 1197.13 265.476C1197.13 262.422 1197.13 259.367 1197.13 256.312C1197.13 255.872 1197.13 255.432 1197.13 254.993C1197.13 254.33 1197.13 253.667 1197.13 253.004C1197.13 249.925 1197.13 246.845 1197.13 243.766V233.825C1197.13 232.65 1197.13 231.474 1197.13 230.299C1197.13 230.065 1197.13 229.832 1197.13 229.592C1197.13 229.12 1197.13 228.647 1197.13 228.175C1197.13 220.836 1197.13 213.497 1197.12 206.158C1197.12 197.901 1197.12 189.643 1197.12 181.385C1197.12 180.503 1197.12 179.621 1197.12 178.739C1197.12 178.522 1197.12 178.305 1197.12 178.081C1197.12 174.815 1197.12 171.549 1197.11 168.282C1197.11 164.563 1197.11 160.844 1197.11 157.124C1197.12 155.048 1197.12 152.971 1197.11 150.895C1197.11 149.502 1197.11 148.109 1197.11 146.715C1197.12 145.926 1197.12 145.136 1197.11 144.346C1197.1 141.067 1197.21 137.823 1197.51 134.559C1197.54 134.265 1197.56 133.971 1197.59 133.669C1198.29 126.764 1200.47 119.91 1203.55 113.702C1203.64 113.527 1203.72 113.352 1203.81 113.171C1205.87 108.955 1208.49 105.063 1211.49 101.456C1211.65 101.263 1211.65 101.263 1211.81 101.066C1214.07 98.3235 1216.49 95.7335 1219.29 93.5308C1219.67 93.2282 1220.05 92.9178 1220.42 92.5989C1231.9 82.7613 1247 78.6463 1261.86 78.6894C1262.41 78.6885 1262.95 78.6872 1263.49 78.6857C1264.82 78.6828 1266.14 78.683 1267.46 78.6846C1269.05 78.6863 1270.64 78.684 1272.23 78.6817C1275.34 78.6772 1278.45 78.6765 1281.57 78.6777C1284.29 78.6787 1287.02 78.6788 1289.74 78.6775C1290.11 78.6773 1290.47 78.677 1290.84 78.6768C1291.39 78.6766 1291.95 78.6764 1292.5 78.6761C1297.64 78.6737 1302.77 78.6726 1307.91 78.6744C1308.1 78.6744 1308.29 78.6745 1308.49 78.6746C1310.06 78.6752 1311.63 78.6758 1313.2 78.6764C1319.31 78.6787 1325.42 78.6768 1331.53 78.6715C1338.42 78.6656 1345.3 78.6626 1352.19 78.6642C1352.93 78.6644 1353.66 78.6645 1354.4 78.6646C1354.58 78.6647 1354.76 78.6648 1354.95 78.6649C1357.67 78.6654 1360.39 78.6636 1363.11 78.6606C1366.2 78.6572 1369.3 78.6571 1372.4 78.6611C1373.98 78.663 1375.55 78.6636 1377.13 78.66ZM1355.23 141.707C1352.3 141.711 1349.37 141.711 1346.44 141.711C1340.91 141.709 1335.38 141.712 1329.85 141.718C1324.93 141.723 1320.01 141.725 1315.08 141.723C1313.82 141.722 1312.56 141.722 1311.3 141.721C1311.06 141.721 1311.06 141.721 1310.83 141.721C1306.85 141.719 1302.88 141.72 1298.9 141.722C1298.31 141.723 1297.72 141.723 1297.12 141.723C1296.82 141.723 1296.53 141.724 1296.24 141.724C1294.19 141.725 1292.14 141.726 1290.1 141.725C1287.58 141.723 1285.06 141.724 1282.54 141.727C1281.25 141.73 1279.97 141.733 1278.68 141.731C1277.49 141.73 1276.3 141.729 1275.11 141.732C1274.67 141.734 1274.24 141.735 1273.8 141.736C1271.92 141.729 1270.02 141.616 1268.2 142.145C1265.03 143.273 1262.25 145.336 1260.78 148.412C1260.68 148.639 1260.57 148.86 1260.47 149.081C1259.43 151.301 1259.43 151.301 1259.45 156.263C1259.45 156.78 1259.45 157.297 1259.45 157.814C1259.45 159.244 1259.45 160.674 1259.45 162.105C1259.46 163.667 1259.46 165.228 1259.45 166.79C1259.45 169.674 1259.45 172.558 1259.46 175.442C1259.46 178.311 1259.46 181.18 1259.46 184.049V186.762C1259.46 193.554 1259.47 200.346 1259.47 207.137C1259.48 213.182 1259.48 219.226 1259.48 225.271V227.018C1259.48 227.986 1259.48 228.953 1259.48 229.921C1259.48 230.117 1259.48 230.308 1259.48 230.499C1259.48 235.562 1259.48 240.625 1259.49 245.688C1259.49 245.873 1259.49 246.053 1259.49 246.233C1259.49 246.957 1259.49 247.681 1259.49 248.405C1259.49 250.92 1259.49 253.435 1259.49 255.95C1259.49 259.206 1259.49 262.463 1259.5 265.72C1259.5 267.29 1259.5 268.861 1259.5 270.432C1259.5 271.743 1259.5 273.053 1259.5 274.364C1259.5 274.897 1259.51 275.43 1259.51 275.963C1259.5 276.699 1259.5 277.435 1259.51 278.171C1259.51 278.397 1259.51 278.616 1259.51 278.836C1259.49 282.427 1260.72 285.734 1263.21 288.37C1266.26 291.247 1269.83 292.095 1273.9 292.071C1274.31 292.068 1274.73 292.067 1275.14 292.067C1276.29 292.071 1277.43 292.071 1278.58 292.067C1279.83 292.063 1281.08 292.062 1282.33 292.063C1284.78 292.066 1287.24 292.064 1289.69 292.059C1292.57 292.053 1295.45 292.051 1298.33 292.051C1303.62 292.05 1308.9 292.045 1314.19 292.038C1319.18 292.03 1324.18 292.025 1329.18 292.023C1329.34 292.023 1329.49 292.023 1329.65 292.023C1330.42 292.023 1331.2 292.022 1331.98 292.022C1332.13 292.022 1332.29 292.022 1332.44 292.022C1332.75 292.022 1333.06 292.022 1333.37 292.022C1338.15 292.02 1342.93 292.017 1347.72 292.013C1349.15 292.012 1350.59 292.01 1352.03 292.009C1355.09 292.007 1358.14 292.005 1361.2 292.001C1362.46 291.999 1363.73 291.997 1364.99 291.996C1366.16 291.995 1367.34 291.994 1368.51 291.992C1368.94 291.991 1369.36 291.99 1369.79 291.989C1370.38 291.989 1370.97 291.99 1371.56 291.988C1371.74 291.988 1371.91 291.987 1372.09 291.986C1375.39 291.993 1378.5 291.048 1380.95 288.758C1384.18 285.292 1384.92 281.561 1384.9 276.99C1384.89 276.475 1384.89 275.96 1384.89 275.445C1384.9 274.019 1384.9 272.593 1384.89 271.167C1384.89 269.611 1384.89 268.054 1384.89 266.498C1384.89 263.623 1384.89 260.748 1384.89 257.873C1384.88 255.014 1384.88 252.155 1384.88 249.296V246.589C1384.88 239.817 1384.87 233.044 1384.86 226.272C1384.85 220.247 1384.85 214.222 1384.85 208.197C1384.85 208 1384.85 207.808 1384.85 207.616C1384.85 207.036 1384.85 206.456 1384.85 205.876C1384.85 205.105 1384.85 204.334 1384.85 203.563C1384.85 203.367 1384.85 203.176 1384.85 202.986C1384.85 197.034 1384.84 191.081 1384.84 185.129C1384.84 183.159 1384.84 181.189 1384.84 179.219C1384.84 179.036 1384.84 178.858 1384.84 178.681C1384.84 178.498 1384.84 178.321 1384.84 178.144C1384.83 174.719 1384.83 171.295 1384.83 167.871C1384.82 166.305 1384.82 164.739 1384.82 163.174C1384.82 161.867 1384.82 160.561 1384.82 159.255C1384.82 158.723 1384.82 158.191 1384.81 157.659C1384.82 156.926 1384.82 156.194 1384.81 155.461C1384.81 155.235 1384.81 155.015 1384.81 154.795C1384.82 152.651 1384.66 150.54 1383.72 148.582C1383.64 148.434 1383.57 148.29 1383.49 148.145C1382.93 147.06 1382.35 146.103 1381.51 145.211C1378.43 142.458 1375.29 141.686 1371.28 141.707C1370.86 141.709 1370.43 141.71 1370.01 141.709C1368.85 141.705 1367.68 141.703 1366.52 141.706C1365.25 141.71 1363.98 141.709 1362.71 141.708C1360.21 141.704 1357.72 141.704 1355.23 141.707Z" fill="#F6F8FA"/>
</svg>
