<svg width="28" height="28" viewBox="0 0 28 28" fill="none" xmlns="http://www.w3.org/2000/svg">
<path d="M19.3333 2C19.6599 2.00004 19.9751 2.11994 20.2192 2.33695C20.4632 2.55397 20.6191 2.853 20.6573 3.17733L20.6667 3.33333V4.66667H23.3333C24.0061 4.66645 24.6541 4.92054 25.1474 5.378C25.6407 5.83545 25.9429 6.46246 25.9933 7.13333L26 7.33333V23.3333C26.0002 24.0061 25.7461 24.6541 25.2887 25.1474C24.8312 25.6407 24.2042 25.9429 23.5333 25.9933L23.3333 26H4.66667C3.9939 26.0002 3.34591 25.7461 2.8526 25.2887C2.35929 24.8312 2.05712 24.2042 2.00667 23.5333L2 23.3333V7.33333C1.99979 6.66056 2.25388 6.01258 2.71133 5.51927C3.16878 5.02596 3.79579 4.72379 4.46667 4.67333L4.66667 4.66667H7.33333V3.33333C7.33371 2.99349 7.46384 2.66662 7.69713 2.41951C7.93042 2.17239 8.24927 2.02369 8.58853 2.00377C8.92778 1.98385 9.26184 2.09423 9.52244 2.31235C9.78305 2.53047 9.95053 2.83987 9.99067 3.17733L10 3.33333V4.66667H18V3.33333C18 2.97971 18.1405 2.64057 18.3905 2.39052C18.6406 2.14048 18.9797 2 19.3333 2ZM23.3333 14H4.66667V23.3333H23.3333V14ZM23.3333 7.33333H4.66667V11.3333H23.3333V7.33333Z" fill="#F15D26"/>
</svg>
