<svg width="59" height="48" viewBox="0 0 59 48" fill="none" xmlns="http://www.w3.org/2000/svg">
<mask id="path-1-outside-1_89_316" maskUnits="userSpaceOnUse" x="-0.120117" y="-0.120117" width="59" height="48" fill="black">
<rect fill="white" x="-0.120117" y="-0.120117" width="59" height="48"/>
<path d="M0.999883 23.9199C0.999883 19.3065 1.82655 15.6932 3.47988 13.0799C5.15988 10.4665 7.93322 9.15988 11.7999 9.15988C15.6666 9.15988 18.4266 10.4665 20.0799 13.0799C21.7599 15.6932 22.5999 19.3065 22.5999 23.9199C22.5999 28.5599 21.7599 32.1999 20.0799 34.8399C18.4266 37.4799 15.6666 38.7999 11.7999 38.7999C7.93322 38.7999 5.15988 37.4799 3.47988 34.8399C1.82655 32.1999 0.999883 28.5599 0.999883 23.9199ZM17.0799 23.9199C17.0799 21.9465 16.9466 20.2932 16.6799 18.9599C16.4399 17.5999 15.9332 16.4932 15.1599 15.6399C14.4132 14.7865 13.2932 14.3599 11.7999 14.3599C10.3066 14.3599 9.17322 14.7865 8.39988 15.6399C7.65322 16.4932 7.14655 17.5999 6.87988 18.9599C6.63988 20.2932 6.51988 21.9465 6.51988 23.9199C6.51988 25.9465 6.63988 27.6532 6.87988 29.0399C7.11988 30.3999 7.62655 31.5065 8.39988 32.3599C9.17322 33.1865 10.3066 33.5999 11.7999 33.5999C13.2932 33.5999 14.4265 33.1865 15.1999 32.3599C15.9732 31.5065 16.4799 30.3999 16.7199 29.0399C16.9599 27.6532 17.0799 25.9465 17.0799 23.9199ZM26.1793 14.8799V9.71988H35.8193V38.8799H30.0593V14.8799H26.1793ZM56.9914 0.999882L46.1914 46.1199H40.7114L51.5114 0.999882H56.9914Z"/>
</mask>
<path d="M3.47988 13.0799L2.63868 12.5391L2.6348 12.5452L3.47988 13.0799ZM20.0799 13.0799L19.2348 13.6145L19.2387 13.6206L20.0799 13.0799ZM20.0799 34.8399L19.2362 34.303L19.2324 34.3091L20.0799 34.8399ZM3.47988 34.8399L2.63234 35.3707L2.63622 35.3768L3.47988 34.8399ZM16.6799 18.9599L15.6951 19.1337L15.6971 19.1449L15.6993 19.156L16.6799 18.9599ZM15.1599 15.6399L14.4073 16.2984L14.413 16.3049L14.4189 16.3114L15.1599 15.6399ZM8.39988 15.6399L7.6589 14.9684L7.65304 14.9748L7.64731 14.9814L8.39988 15.6399ZM6.87988 18.9599L5.89857 18.7675L5.89708 18.7751L5.8957 18.7827L6.87988 18.9599ZM6.87988 29.0399L5.89453 29.2104L5.8951 29.2137L6.87988 29.0399ZM8.39988 32.3599L7.6589 33.0314L7.66421 33.0373L7.66961 33.043L8.39988 32.3599ZM15.1999 32.3599L15.9302 33.043L15.9356 33.0373L15.9409 33.0314L15.1999 32.3599ZM16.7199 29.0399L17.7047 29.2137L17.7052 29.2104L16.7199 29.0399ZM0.999883 23.9199H1.99988C1.99988 19.4088 2.81103 16.0075 4.32496 13.6145L3.47988 13.0799L2.6348 12.5452C0.842072 15.3789 -0.000117064 19.2043 -0.000117064 23.9199H0.999883ZM3.47988 13.0799L4.32106 13.6206C5.77093 11.3653 8.17835 10.1599 11.7999 10.1599V9.15988V8.15988C7.68808 8.15988 4.54883 9.56781 2.6387 12.5391L3.47988 13.0799ZM11.7999 9.15988V10.1599C15.422 10.1599 17.8118 11.3652 19.2348 13.6145L20.0799 13.0799L20.925 12.5452C19.0413 9.56789 15.9111 8.15988 11.7999 8.15988V9.15988ZM20.0799 13.0799L19.2387 13.6206C20.7762 16.0123 21.5999 19.411 21.5999 23.9199H22.5999H23.5999C23.5999 19.2021 22.7436 15.3741 20.9211 12.5391L20.0799 13.0799ZM22.5999 23.9199H21.5999C21.5999 28.4558 20.7761 31.8833 19.2362 34.303L20.0799 34.8399L20.9235 35.3768C22.7437 32.5165 23.5999 28.6639 23.5999 23.9199H22.5999ZM20.0799 34.8399L19.2324 34.3091C17.8074 36.5844 15.4176 37.7999 11.7999 37.7999V38.7999V39.7999C15.9155 39.7999 19.0457 38.3753 20.9274 35.3707L20.0799 34.8399ZM11.7999 38.7999V37.7999C8.18262 37.7999 5.7753 36.5843 4.32354 34.303L3.47988 34.8399L2.63622 35.3768C4.54447 38.3754 7.68381 39.7999 11.7999 39.7999V38.7999ZM3.47988 34.8399L4.3274 34.3091C2.81116 31.888 1.99988 28.4581 1.99988 23.9199H0.999883H-0.000117064C-0.000117064 28.6617 0.841941 32.5117 2.63237 35.3707L3.47988 34.8399ZM17.0799 23.9199H18.0799C18.0799 21.9074 17.9444 20.1834 17.6605 18.7638L16.6799 18.9599L15.6993 19.156C15.9487 20.403 16.0799 21.9857 16.0799 23.9199H17.0799ZM16.6799 18.9599L17.6647 18.7861C17.3985 17.2778 16.824 15.987 15.9009 14.9684L15.1599 15.6399L14.4189 16.3114C15.0425 16.9995 15.4813 17.9219 15.6951 19.1337L16.6799 18.9599ZM15.1599 15.6399L15.9125 14.9814C14.9202 13.8474 13.4847 13.3599 11.7999 13.3599V14.3599V15.3599C13.1018 15.3599 13.9062 15.7257 14.4073 16.2984L15.1599 15.6399ZM11.7999 14.3599V13.3599C10.113 13.3599 8.67418 13.8481 7.6589 14.9684L8.39988 15.6399L9.14087 16.3114C9.67226 15.725 10.5001 15.3599 11.7999 15.3599V14.3599ZM8.39988 15.6399L7.64731 14.9814C6.76148 15.9938 6.19162 17.2729 5.89857 18.7675L6.87988 18.9599L7.8612 19.1523C8.10148 17.9269 8.54496 16.9927 9.15246 16.2984L8.39988 15.6399ZM6.87988 18.9599L5.8957 18.7827C5.64161 20.1944 5.51988 21.9114 5.51988 23.9199H6.51988H7.51988C7.51988 21.9817 7.63816 20.3921 7.86407 19.137L6.87988 18.9599ZM6.51988 23.9199H5.51988C5.51988 25.9811 5.64157 27.7488 5.89453 29.2104L6.87988 29.0399L7.86523 28.8693C7.6382 27.5576 7.51988 25.912 7.51988 23.9199H6.51988ZM6.87988 29.0399L5.8951 29.2137C6.16126 30.7219 6.73579 32.0128 7.6589 33.0314L8.39988 32.3599L9.14087 31.6884C8.51731 31.0003 8.0785 30.0778 7.86467 28.8661L6.87988 29.0399ZM8.39988 32.3599L7.66961 33.043C8.68715 34.1308 10.1224 34.5999 11.7999 34.5999V33.5999V32.5999C10.4907 32.5999 9.65928 32.2423 9.13015 31.6767L8.39988 32.3599ZM11.7999 33.5999V34.5999C13.4774 34.5999 14.9126 34.1308 15.9302 33.043L15.1999 32.3599L14.4696 31.6767C13.9405 32.2423 13.109 32.5999 11.7999 32.5999V33.5999ZM15.1999 32.3599L15.9409 33.0314C16.864 32.0128 17.4385 30.7219 17.7047 29.2137L16.7199 29.0399L15.7351 28.8661C15.5213 30.0778 15.0825 31.0003 14.4589 31.6884L15.1999 32.3599ZM16.7199 29.0399L17.7052 29.2104C17.9582 27.7488 18.0799 25.9811 18.0799 23.9199H17.0799H16.0799C16.0799 25.912 15.9616 27.5576 15.7345 28.8693L16.7199 29.0399ZM26.1793 14.8799H25.1793V15.8799H26.1793V14.8799ZM26.1793 9.71988V8.71988H25.1793V9.71988H26.1793ZM35.8193 9.71988H36.8193V8.71988H35.8193V9.71988ZM35.8193 38.8799V39.8799H36.8193V38.8799H35.8193ZM30.0593 38.8799H29.0593V39.8799H30.0593V38.8799ZM30.0593 14.8799H31.0593V13.8799H30.0593V14.8799ZM26.1793 14.8799H27.1793V9.71988H26.1793H25.1793V14.8799H26.1793ZM26.1793 9.71988V10.7199H35.8193V9.71988V8.71988H26.1793V9.71988ZM35.8193 9.71988H34.8193V38.8799H35.8193H36.8193V9.71988H35.8193ZM35.8193 38.8799V37.8799H30.0593V38.8799V39.8799H35.8193V38.8799ZM30.0593 38.8799H31.0593V14.8799H30.0593H29.0593V38.8799H30.0593ZM30.0593 14.8799V13.8799H26.1793V14.8799V15.8799H30.0593V14.8799ZM56.9914 0.999882L57.964 1.23267L58.2591 -0.000118256H56.9914V0.999882ZM46.1914 46.1199V47.1199H46.9803L47.164 46.3527L46.1914 46.1199ZM40.7114 46.1199L39.7389 45.8871L39.4438 47.1199H40.7114V46.1199ZM51.5114 0.999882V-0.000118256H50.7226L50.5389 0.767096L51.5114 0.999882ZM56.9914 0.999882L56.0189 0.767096L45.2189 45.8871L46.1914 46.1199L47.164 46.3527L57.964 1.23267L56.9914 0.999882ZM46.1914 46.1199V45.1199H40.7114V46.1199V47.1199H46.1914V46.1199ZM40.7114 46.1199L41.684 46.3527L52.484 1.23267L51.5114 0.999882L50.5389 0.767096L39.7389 45.8871L40.7114 46.1199ZM51.5114 0.999882V1.99988H56.9914V0.999882V-0.000118256H51.5114V0.999882Z" fill="url(#paint0_linear_89_316)" mask="url(#path-1-outside-1_89_316)"/>
<defs>
<linearGradient id="paint0_linear_89_316" x1="28.8799" y1="0.879883" x2="29.1784" y2="55.4372" gradientUnits="userSpaceOnUse">
<stop stop-color="#FFF0F0"/>
<stop offset="1" stop-color="#FFF0F0" stop-opacity="0.16"/>
</linearGradient>
</defs>
</svg>
