<svg width="68" height="48" viewBox="0 0 68 48" fill="none" xmlns="http://www.w3.org/2000/svg">
<mask id="path-1-outside-1_89_338" maskUnits="userSpaceOnUse" x="-0.120117" y="-0.120117" width="68" height="48" fill="black">
<rect fill="white" x="-0.120117" y="-0.120117" width="68" height="48"/>
<path d="M0.999883 23.9199C0.999883 19.3065 1.82655 15.6932 3.47988 13.0799C5.15988 10.4665 7.93322 9.15988 11.7999 9.15988C15.6666 9.15988 18.4266 10.4665 20.0799 13.0799C21.7599 15.6932 22.5999 19.3065 22.5999 23.9199C22.5999 28.5599 21.7599 32.1999 20.0799 34.8399C18.4266 37.4799 15.6666 38.7999 11.7999 38.7999C7.93322 38.7999 5.15988 37.4799 3.47988 34.8399C1.82655 32.1999 0.999883 28.5599 0.999883 23.9199ZM17.0799 23.9199C17.0799 21.9465 16.9466 20.2932 16.6799 18.9599C16.4399 17.5999 15.9332 16.4932 15.1599 15.6399C14.4132 14.7865 13.2932 14.3599 11.7999 14.3599C10.3066 14.3599 9.17322 14.7865 8.39988 15.6399C7.65322 16.4932 7.14655 17.5999 6.87988 18.9599C6.63988 20.2932 6.51988 21.9465 6.51988 23.9199C6.51988 25.9465 6.63988 27.6532 6.87988 29.0399C7.11988 30.3999 7.62655 31.5065 8.39988 32.3599C9.17322 33.1865 10.3066 33.5999 11.7999 33.5999C13.2932 33.5999 14.4265 33.1865 15.1999 32.3599C15.9732 31.5065 16.4799 30.3999 16.7199 29.0399C16.9599 27.6532 17.0799 25.9465 17.0799 23.9199ZM26.9393 17.3999C27.0726 14.7332 28.0059 12.6799 29.7393 11.2399C31.4993 9.77321 33.8059 9.03988 36.6593 9.03988C38.6059 9.03988 40.2726 9.38655 41.6593 10.0799C43.0459 10.7465 44.0859 11.6665 44.7793 12.8399C45.4993 13.9865 45.8593 15.2932 45.8593 16.7599C45.8593 18.4399 45.4193 19.8665 44.5393 21.0399C43.6859 22.1865 42.6593 22.9599 41.4593 23.3599V23.5199C43.0059 23.9999 44.2059 24.8532 45.0593 26.0799C45.9393 27.3065 46.3793 28.8799 46.3793 30.7999C46.3793 32.3999 46.0059 33.8265 45.2593 35.0799C44.5393 36.3332 43.4593 37.3199 42.0193 38.0399C40.6059 38.7332 38.8993 39.0799 36.8993 39.0799C33.8859 39.0799 31.4326 38.3199 29.5393 36.7999C27.6459 35.2799 26.6459 33.0399 26.5393 30.0799H31.9793C32.0326 31.3865 32.4726 32.4399 33.2993 33.2399C34.1526 34.0132 35.3126 34.3999 36.7793 34.3999C38.1393 34.3999 39.1793 34.0265 39.8993 33.2799C40.6459 32.5065 41.0193 31.5199 41.0193 30.3199C41.0193 28.7199 40.5126 27.5732 39.4993 26.8799C38.4859 26.1865 36.9126 25.8399 34.7793 25.8399H33.6193V21.2399H34.7793C38.5659 21.2399 40.4593 19.9732 40.4593 17.4399C40.4593 16.2932 40.1126 15.3999 39.4193 14.7599C38.7526 14.1199 37.7793 13.7999 36.4993 13.7999C35.2459 13.7999 34.2726 14.1465 33.5793 14.8399C32.9126 15.5065 32.5259 16.3599 32.4193 17.3999H26.9393ZM66.4446 0.999882L55.6446 46.1199H50.1646L60.9646 0.999882H66.4446Z"/>
</mask>
<path d="M3.47988 13.0799L2.63868 12.5391L2.6348 12.5452L3.47988 13.0799ZM20.0799 13.0799L19.2348 13.6145L19.2387 13.6206L20.0799 13.0799ZM20.0799 34.8399L19.2362 34.303L19.2324 34.3091L20.0799 34.8399ZM3.47988 34.8399L2.63234 35.3707L2.63622 35.3768L3.47988 34.8399ZM16.6799 18.9599L15.6951 19.1337L15.6971 19.1449L15.6993 19.156L16.6799 18.9599ZM15.1599 15.6399L14.4073 16.2984L14.413 16.3049L14.4189 16.3114L15.1599 15.6399ZM8.39988 15.6399L7.6589 14.9684L7.65304 14.9748L7.64731 14.9814L8.39988 15.6399ZM6.87988 18.9599L5.89857 18.7675L5.89708 18.7751L5.8957 18.7827L6.87988 18.9599ZM6.87988 29.0399L5.89453 29.2104L5.8951 29.2137L6.87988 29.0399ZM8.39988 32.3599L7.6589 33.0314L7.66421 33.0373L7.66961 33.043L8.39988 32.3599ZM15.1999 32.3599L15.9302 33.043L15.9356 33.0373L15.9409 33.0314L15.1999 32.3599ZM16.7199 29.0399L17.7047 29.2137L17.7052 29.2104L16.7199 29.0399ZM0.999883 23.9199H1.99988C1.99988 19.4088 2.81103 16.0075 4.32496 13.6145L3.47988 13.0799L2.6348 12.5452C0.842072 15.3789 -0.000117064 19.2043 -0.000117064 23.9199H0.999883ZM3.47988 13.0799L4.32106 13.6206C5.77093 11.3653 8.17835 10.1599 11.7999 10.1599V9.15988V8.15988C7.68808 8.15988 4.54883 9.56781 2.6387 12.5391L3.47988 13.0799ZM11.7999 9.15988V10.1599C15.422 10.1599 17.8118 11.3652 19.2348 13.6145L20.0799 13.0799L20.925 12.5452C19.0413 9.56789 15.9111 8.15988 11.7999 8.15988V9.15988ZM20.0799 13.0799L19.2387 13.6206C20.7762 16.0123 21.5999 19.411 21.5999 23.9199H22.5999H23.5999C23.5999 19.2021 22.7436 15.3741 20.9211 12.5391L20.0799 13.0799ZM22.5999 23.9199H21.5999C21.5999 28.4558 20.7761 31.8833 19.2362 34.303L20.0799 34.8399L20.9235 35.3768C22.7437 32.5165 23.5999 28.6639 23.5999 23.9199H22.5999ZM20.0799 34.8399L19.2324 34.3091C17.8074 36.5844 15.4176 37.7999 11.7999 37.7999V38.7999V39.7999C15.9155 39.7999 19.0457 38.3753 20.9274 35.3707L20.0799 34.8399ZM11.7999 38.7999V37.7999C8.18262 37.7999 5.7753 36.5843 4.32354 34.303L3.47988 34.8399L2.63622 35.3768C4.54447 38.3754 7.68381 39.7999 11.7999 39.7999V38.7999ZM3.47988 34.8399L4.3274 34.3091C2.81116 31.888 1.99988 28.4581 1.99988 23.9199H0.999883H-0.000117064C-0.000117064 28.6617 0.841941 32.5117 2.63237 35.3707L3.47988 34.8399ZM17.0799 23.9199H18.0799C18.0799 21.9074 17.9444 20.1834 17.6605 18.7638L16.6799 18.9599L15.6993 19.156C15.9487 20.403 16.0799 21.9857 16.0799 23.9199H17.0799ZM16.6799 18.9599L17.6647 18.7861C17.3985 17.2778 16.824 15.987 15.9009 14.9684L15.1599 15.6399L14.4189 16.3114C15.0425 16.9995 15.4813 17.9219 15.6951 19.1337L16.6799 18.9599ZM15.1599 15.6399L15.9125 14.9814C14.9202 13.8474 13.4847 13.3599 11.7999 13.3599V14.3599V15.3599C13.1018 15.3599 13.9062 15.7257 14.4073 16.2984L15.1599 15.6399ZM11.7999 14.3599V13.3599C10.113 13.3599 8.67418 13.8481 7.6589 14.9684L8.39988 15.6399L9.14087 16.3114C9.67226 15.725 10.5001 15.3599 11.7999 15.3599V14.3599ZM8.39988 15.6399L7.64731 14.9814C6.76148 15.9938 6.19162 17.2729 5.89857 18.7675L6.87988 18.9599L7.8612 19.1523C8.10148 17.9269 8.54496 16.9927 9.15246 16.2984L8.39988 15.6399ZM6.87988 18.9599L5.8957 18.7827C5.64161 20.1944 5.51988 21.9114 5.51988 23.9199H6.51988H7.51988C7.51988 21.9817 7.63816 20.3921 7.86407 19.137L6.87988 18.9599ZM6.51988 23.9199H5.51988C5.51988 25.9811 5.64157 27.7488 5.89453 29.2104L6.87988 29.0399L7.86523 28.8693C7.6382 27.5576 7.51988 25.912 7.51988 23.9199H6.51988ZM6.87988 29.0399L5.8951 29.2137C6.16126 30.7219 6.73579 32.0128 7.6589 33.0314L8.39988 32.3599L9.14087 31.6884C8.51731 31.0003 8.0785 30.0778 7.86467 28.8661L6.87988 29.0399ZM8.39988 32.3599L7.66961 33.043C8.68715 34.1308 10.1224 34.5999 11.7999 34.5999V33.5999V32.5999C10.4907 32.5999 9.65928 32.2423 9.13015 31.6767L8.39988 32.3599ZM11.7999 33.5999V34.5999C13.4774 34.5999 14.9126 34.1308 15.9302 33.043L15.1999 32.3599L14.4696 31.6767C13.9405 32.2423 13.109 32.5999 11.7999 32.5999V33.5999ZM15.1999 32.3599L15.9409 33.0314C16.864 32.0128 17.4385 30.7219 17.7047 29.2137L16.7199 29.0399L15.7351 28.8661C15.5213 30.0778 15.0825 31.0003 14.4589 31.6884L15.1999 32.3599ZM16.7199 29.0399L17.7052 29.2104C17.9582 27.7488 18.0799 25.9811 18.0799 23.9199H17.0799H16.0799C16.0799 25.912 15.9616 27.5576 15.7345 28.8693L16.7199 29.0399ZM26.9393 17.3999L25.9405 17.3499L25.888 18.3999H26.9393V17.3999ZM29.7393 11.2399L30.3783 12.0091L30.3794 12.0081L29.7393 11.2399ZM41.6593 10.0799L41.212 10.9743L41.219 10.9778L41.226 10.9811L41.6593 10.0799ZM44.7793 12.8399L43.9183 13.3486L43.9252 13.3602L43.9324 13.3716L44.7793 12.8399ZM44.5393 21.0399L43.7393 20.4399L43.737 20.4429L44.5393 21.0399ZM41.4593 23.3599L41.143 22.4112L40.4593 22.6391V23.3599H41.4593ZM41.4593 23.5199H40.4593V24.2566L41.1629 24.4749L41.4593 23.5199ZM45.0593 26.0799L44.2384 26.6509L44.2425 26.6569L44.2467 26.6628L45.0593 26.0799ZM45.2593 35.0799L44.4002 34.5681L44.3961 34.5749L44.3922 34.5818L45.2593 35.0799ZM42.0193 38.0399L42.4597 38.9377L42.4665 38.9343L42.0193 38.0399ZM29.5393 36.7999L28.9132 37.5797V37.5797L29.5393 36.7999ZM26.5393 30.0799V29.0799H25.5026L25.5399 30.1159L26.5393 30.0799ZM31.9793 30.0799L32.9784 30.0391L32.9393 29.0799H31.9793V30.0799ZM33.2993 33.2399L32.6038 33.9585L32.6156 33.9699L32.6277 33.9809L33.2993 33.2399ZM39.8993 33.2799L39.1799 32.5853L39.1794 32.5857L39.8993 33.2799ZM33.6193 25.8399H32.6193V26.8399H33.6193V25.8399ZM33.6193 21.2399V20.2399H32.6193V21.2399H33.6193ZM39.4193 14.7599L38.7267 15.4813L38.7338 15.488L38.741 15.4947L39.4193 14.7599ZM33.5793 14.8399L34.2864 15.547V15.547L33.5793 14.8399ZM32.4193 17.3999V18.3999H33.3219L33.414 17.5019L32.4193 17.3999ZM26.9393 17.3999L27.938 17.4498C28.0602 15.0064 28.9001 13.2371 30.3783 12.0091L29.7393 11.2399L29.1002 10.4707C27.1118 12.1226 26.085 14.46 25.9405 17.3499L26.9393 17.3999ZM29.7393 11.2399L30.3794 12.0081C31.919 10.7251 33.9807 10.0399 36.6593 10.0399V9.03988V8.03988C33.6311 8.03988 31.0795 8.82129 29.0991 10.4717L29.7393 11.2399ZM36.6593 9.03988V10.0399C38.4894 10.0399 39.9951 10.3659 41.212 10.9743L41.6593 10.0799L42.1065 9.18545C40.55 8.40724 38.7225 8.03988 36.6593 8.03988V9.03988ZM41.6593 10.0799L41.226 10.9811C42.4582 11.5735 43.3382 12.3669 43.9183 13.3486L44.7793 12.8399L45.6402 12.3312C44.8336 10.9662 43.6337 9.91955 42.0926 9.17863L41.6593 10.0799ZM44.7793 12.8399L43.9324 13.3716C44.544 14.3457 44.8593 15.4651 44.8593 16.7599H45.8593H46.8593C46.8593 15.1214 46.4545 13.6274 45.6261 12.3081L44.7793 12.8399ZM45.8593 16.7599H44.8593C44.8593 18.2563 44.471 19.4642 43.7393 20.4399L44.5393 21.0399L45.3393 21.6399C46.3675 20.2689 46.8593 18.6234 46.8593 16.7599H45.8593ZM44.5393 21.0399L43.737 20.4429C42.9894 21.4475 42.1242 22.0841 41.143 22.4112L41.4593 23.3599L41.7755 24.3086C43.1943 23.8356 44.3825 22.9256 45.3415 21.6369L44.5393 21.0399ZM41.4593 23.3599H40.4593V23.5199H41.4593H42.4593V23.3599H41.4593ZM41.4593 23.5199L41.1629 24.4749C42.5158 24.8948 43.5231 25.6228 44.2384 26.6509L45.0593 26.0799L45.8802 25.5088C44.8887 24.0836 43.4961 23.1049 41.7557 22.5648L41.4593 23.5199ZM45.0593 26.0799L44.2467 26.6628C44.9753 27.6784 45.3793 29.0319 45.3793 30.7999H46.3793H47.3793C47.3793 28.7278 46.9032 26.9347 45.8718 25.497L45.0593 26.0799ZM46.3793 30.7999H45.3793C45.3793 32.2377 45.0458 33.4843 44.4002 34.5681L45.2593 35.0799L46.1184 35.5917C46.966 34.1688 47.3793 32.5621 47.3793 30.7999H46.3793ZM45.2593 35.0799L44.3922 34.5818C43.7811 35.6455 42.8569 36.503 41.572 37.1455L42.0193 38.0399L42.4665 38.9343C44.0616 38.1368 45.2975 37.0209 46.1264 35.578L45.2593 35.0799ZM42.0193 38.0399L41.5788 37.1421C40.3345 37.7525 38.7866 38.0799 36.8993 38.0799V39.0799V40.0799C39.0119 40.0799 40.8773 39.7139 42.4597 38.9377L42.0193 38.0399ZM36.8993 39.0799V38.0799C34.0573 38.0799 31.8417 37.3659 30.1653 36.0201L29.5393 36.7999L28.9132 37.5797C31.0235 39.2739 33.7146 40.0799 36.8993 40.0799V39.0799ZM29.5393 36.7999L30.1653 36.0201C28.5478 34.7215 27.6373 32.7831 27.5386 30.0439L26.5393 30.0799L25.5399 30.1159C25.6545 33.2966 26.7441 35.8383 28.9132 37.5797L29.5393 36.7999ZM26.5393 30.0799V31.0799H31.9793V30.0799V29.0799H26.5393V30.0799ZM31.9793 30.0799L30.9801 30.1207C31.0423 31.646 31.5671 32.9552 32.6038 33.9585L33.2993 33.2399L33.9947 32.5213C33.3781 31.9246 33.0228 31.1271 32.9784 30.0391L31.9793 30.0799ZM33.2993 33.2399L32.6277 33.9809C33.7111 34.9627 35.1346 35.3999 36.7793 35.3999V34.3999V33.3999C35.4906 33.3999 34.594 33.0637 33.9708 32.4989L33.2993 33.2399ZM36.7793 34.3999V35.3999C38.3225 35.3999 39.6571 34.9717 40.6191 33.974L39.8993 33.2799L39.1794 32.5857C38.7015 33.0814 37.956 33.3999 36.7793 33.3999V34.3999ZM39.8993 33.2799L40.6187 33.9745C41.5669 32.9924 42.0193 31.7462 42.0193 30.3199H41.0193H40.0193C40.0193 31.2935 39.725 32.0207 39.1799 32.5853L39.8993 33.2799ZM41.0193 30.3199H42.0193C42.0193 28.5011 41.4302 26.9894 40.0639 26.0546L39.4993 26.8799L38.9346 27.7052C39.595 28.1571 40.0193 28.9387 40.0193 30.3199H41.0193ZM39.4993 26.8799L40.0639 26.0546C38.8015 25.1908 36.9826 24.8399 34.7793 24.8399V25.8399V26.8399C36.8426 26.8399 38.1704 27.1823 38.9346 27.7052L39.4993 26.8799ZM34.7793 25.8399V24.8399H33.6193V25.8399V26.8399H34.7793V25.8399ZM33.6193 25.8399H34.6193V21.2399H33.6193H32.6193V25.8399H33.6193ZM33.6193 21.2399V22.2399H34.7793V21.2399V20.2399H33.6193V21.2399ZM34.7793 21.2399V22.2399C36.7526 22.2399 38.4077 21.9156 39.5953 21.121C40.8541 20.2789 41.4593 18.9964 41.4593 17.4399H40.4593H39.4593C39.4593 18.4167 39.1178 19.0342 38.4832 19.4587C37.7775 19.9309 36.5926 20.2399 34.7793 20.2399V21.2399ZM40.4593 17.4399H41.4593C41.4593 16.079 41.0392 14.8943 40.0975 14.0251L39.4193 14.7599L38.741 15.4947C39.186 15.9055 39.4593 16.5074 39.4593 17.4399H40.4593ZM39.4193 14.7599L40.1118 14.0385C39.1971 13.1604 37.9367 12.7999 36.4993 12.7999V13.7999V14.7999C37.6218 14.7999 38.3081 15.0794 38.7267 15.4813L39.4193 14.7599ZM36.4993 13.7999V12.7999C35.0581 12.7999 33.8014 13.2035 32.8722 14.1328L33.5793 14.8399L34.2864 15.547C34.7438 15.0896 35.4338 14.7999 36.4993 14.7999V13.7999ZM33.5793 14.8399L32.8722 14.1328C32.025 14.9799 31.5519 16.0556 31.4245 17.2979L32.4193 17.3999L33.414 17.5019C33.5 16.6642 33.8002 16.0332 34.2864 15.547L33.5793 14.8399ZM32.4193 17.3999V16.3999H26.9393V17.3999V18.3999H32.4193V17.3999ZM66.4446 0.999882L67.4171 1.23267L67.7122 -0.000118256H66.4446V0.999882ZM55.6446 46.1199V47.1199H56.4335L56.6171 46.3527L55.6446 46.1199ZM50.1646 46.1199L49.192 45.8871L48.897 47.1199H50.1646V46.1199ZM60.9646 0.999882V-0.000118256H60.1757L59.992 0.767096L60.9646 0.999882ZM66.4446 0.999882L65.472 0.767096L54.672 45.8871L55.6446 46.1199L56.6171 46.3527L67.4171 1.23267L66.4446 0.999882ZM55.6446 46.1199V45.1199H50.1646V46.1199V47.1199H55.6446V46.1199ZM50.1646 46.1199L51.1371 46.3527L61.9371 1.23267L60.9646 0.999882L59.992 0.767096L49.192 45.8871L50.1646 46.1199ZM60.9646 0.999882V1.99988H66.4446V0.999882V-0.000118256H60.9646V0.999882Z" fill="url(#paint0_linear_89_338)" mask="url(#path-1-outside-1_89_338)"/>
<defs>
<linearGradient id="paint0_linear_89_338" x1="33.8799" y1="0.879883" x2="34.1358" y2="55.4376" gradientUnits="userSpaceOnUse">
<stop stop-color="#FFF0F0"/>
<stop offset="1" stop-color="#FFF0F0" stop-opacity="0.16"/>
</linearGradient>
</defs>
</svg>
