<svg width="69" height="49" viewBox="0 0 69 49" fill="none" xmlns="http://www.w3.org/2000/svg">
<mask id="path-1-outside-1_89_326" maskUnits="userSpaceOnUse" x="1" y="-0.120117" width="67" height="48" fill="black">
<rect fill="white" x="1" y="-0.120117" width="67" height="48"/>
<path d="M2.12 23.9199C2.12 19.3065 2.94667 15.6932 4.6 13.0799C6.28 10.4665 9.05333 9.15988 12.92 9.15988C16.7867 9.15988 19.5467 10.4665 21.2 13.0799C22.88 15.6932 23.72 19.3065 23.72 23.9199C23.72 28.5599 22.88 32.1999 21.2 34.8399C19.5467 37.4799 16.7867 38.7999 12.92 38.7999C9.05333 38.7999 6.28 37.4799 4.6 34.8399C2.94667 32.1999 2.12 28.5599 2.12 23.9199ZM18.2 23.9199C18.2 21.9465 18.0667 20.2932 17.8 18.9599C17.56 17.5999 17.0533 16.4932 16.28 15.6399C15.5333 14.7865 14.4133 14.3599 12.92 14.3599C11.4267 14.3599 10.2933 14.7865 9.52 15.6399C8.77333 16.4932 8.26667 17.5999 8 18.9599C7.76 20.2932 7.64 21.9465 7.64 23.9199C7.64 25.9465 7.76 27.6532 8 29.0399C8.24 30.3999 8.74667 31.5065 9.52 32.3599C10.2933 33.1865 11.4267 33.5999 12.92 33.5999C14.4133 33.5999 15.5467 33.1865 16.32 32.3599C17.0933 31.5065 17.6 30.3999 17.84 29.0399C18.08 27.6532 18.2 25.9465 18.2 23.9199ZM29.7394 32.5599C32.2994 30.4265 34.3394 28.6532 35.8594 27.2399C37.3794 25.7999 38.646 24.3065 39.6594 22.7599C40.6727 21.2132 41.1794 19.6932 41.1794 18.1999C41.1794 16.8399 40.8594 15.7732 40.2194 14.9999C39.5794 14.2265 38.5927 13.8399 37.2594 13.8399C35.926 13.8399 34.8994 14.2932 34.1794 15.1999C33.4594 16.0799 33.086 17.2932 33.0594 18.8399H27.6194C27.726 15.6399 28.6727 13.2132 30.4594 11.5599C32.2727 9.90655 34.566 9.07988 37.3394 9.07988C40.3794 9.07988 42.7127 9.89321 44.3394 11.5199C45.966 13.1199 46.7794 15.2399 46.7794 17.8799C46.7794 19.9599 46.2194 21.9465 45.0994 23.8399C43.9794 25.7332 42.6994 27.3865 41.2594 28.7999C39.8194 30.1865 37.9394 31.8665 35.6194 33.8399H47.4194V38.4799H27.6594V34.3199L29.7394 32.5599ZM66.5881 0.999882L55.7881 46.1199H50.3081L61.1081 0.999882H66.5881Z"/>
</mask>
<path d="M4.6 13.0799L3.7588 12.5391L3.75492 12.5452L4.6 13.0799ZM21.2 13.0799L20.3549 13.6145L20.3588 13.6206L21.2 13.0799ZM21.2 34.8399L20.3563 34.303L20.3525 34.3091L21.2 34.8399ZM4.6 34.8399L3.75246 35.3707L3.75634 35.3768L4.6 34.8399ZM17.8 18.9599L16.8152 19.1337L16.8172 19.1449L16.8194 19.156L17.8 18.9599ZM16.28 15.6399L15.5274 16.2984L15.5332 16.3049L15.539 16.3114L16.28 15.6399ZM9.52 15.6399L8.77901 14.9684L8.77316 14.9748L8.76742 14.9814L9.52 15.6399ZM8 18.9599L7.01869 18.7675L7.01719 18.7751L7.01582 18.7827L8 18.9599ZM8 29.0399L7.01464 29.2104L7.01522 29.2137L8 29.0399ZM9.52 32.3599L8.77901 33.0314L8.78432 33.0373L8.78973 33.043L9.52 32.3599ZM16.32 32.3599L17.0503 33.043L17.0557 33.0373L17.061 33.0314L16.32 32.3599ZM17.84 29.0399L18.8248 29.2137L18.8254 29.2104L17.84 29.0399ZM2.12 23.9199H3.12C3.12 19.4088 3.93114 16.0075 5.44508 13.6145L4.6 13.0799L3.75492 12.5452C1.96219 15.3789 1.12 19.2043 1.12 23.9199H2.12ZM4.6 13.0799L5.44118 13.6206C6.89105 11.3653 9.29847 10.1599 12.92 10.1599V9.15988V8.15988C8.8082 8.15988 5.66895 9.56781 3.75882 12.5391L4.6 13.0799ZM12.92 9.15988V10.1599C16.5421 10.1599 18.9319 11.3652 20.3549 13.6145L21.2 13.0799L22.0451 12.5452C20.1615 9.56789 17.0313 8.15988 12.92 8.15988V9.15988ZM21.2 13.0799L20.3588 13.6206C21.8963 16.0123 22.72 19.411 22.72 23.9199H23.72H24.72C24.72 19.2021 23.8637 15.3741 22.0412 12.5391L21.2 13.0799ZM23.72 23.9199H22.72C22.72 28.4558 21.8962 31.8833 20.3563 34.303L21.2 34.8399L22.0437 35.3768C23.8638 32.5165 24.72 28.6639 24.72 23.9199H23.72ZM21.2 34.8399L20.3525 34.3091C18.9275 36.5844 16.5378 37.7999 12.92 37.7999V38.7999V39.7999C17.0356 39.7999 20.1658 38.3753 22.0475 35.3707L21.2 34.8399ZM12.92 38.7999V37.7999C9.30274 37.7999 6.89541 36.5843 5.44366 34.303L4.6 34.8399L3.75634 35.3768C5.66459 38.3754 8.80393 39.7999 12.92 39.7999V38.7999ZM4.6 34.8399L5.44752 34.3091C3.93128 31.888 3.12 28.4581 3.12 23.9199H2.12H1.12C1.12 28.6617 1.96206 32.5117 3.75248 35.3707L4.6 34.8399ZM18.2 23.9199H19.2C19.2 21.9074 19.0645 20.1834 18.7806 18.7638L17.8 18.9599L16.8194 19.156C17.0688 20.403 17.2 21.9857 17.2 23.9199H18.2ZM17.8 18.9599L18.7848 18.7861C18.5186 17.2778 17.9441 15.987 17.021 14.9684L16.28 15.6399L15.539 16.3114C16.1626 16.9995 16.6014 17.9219 16.8152 19.1337L17.8 18.9599ZM16.28 15.6399L17.0326 14.9814C16.0404 13.8474 14.6048 13.3599 12.92 13.3599V14.3599V15.3599C14.2219 15.3599 15.0263 15.7257 15.5274 16.2984L16.28 15.6399ZM12.92 14.3599V13.3599C11.2332 13.3599 9.79429 13.8481 8.77901 14.9684L9.52 15.6399L10.261 16.3114C10.7924 15.725 11.6202 15.3599 12.92 15.3599V14.3599ZM9.52 15.6399L8.76742 14.9814C7.88159 15.9938 7.31174 17.2729 7.01869 18.7675L8 18.9599L8.98131 19.1523C9.2216 17.9269 9.66507 16.9927 10.2726 16.2984L9.52 15.6399ZM8 18.9599L7.01582 18.7827C6.76172 20.1944 6.64 21.9114 6.64 23.9199H7.64H8.64C8.64 21.9817 8.75828 20.3921 8.98418 19.137L8 18.9599ZM7.64 23.9199H6.64C6.64 25.9811 6.76168 27.7488 7.01465 29.2104L8 29.0399L8.98535 28.8693C8.75832 27.5576 8.64 25.912 8.64 23.9199H7.64ZM8 29.0399L7.01522 29.2137C7.28138 30.7219 7.85591 32.0128 8.77901 33.0314L9.52 32.3599L10.261 31.6884C9.63742 31.0003 9.19862 30.0778 8.98478 28.8661L8 29.0399ZM9.52 32.3599L8.78973 33.043C9.80727 34.1308 11.2425 34.5999 12.92 34.5999V33.5999V32.5999C11.6109 32.5999 10.7794 32.2423 10.2503 31.6767L9.52 32.3599ZM12.92 33.5999V34.5999C14.5975 34.5999 16.0327 34.1308 17.0503 33.043L16.32 32.3599L15.5897 31.6767C15.0606 32.2423 14.2291 32.5999 12.92 32.5999V33.5999ZM16.32 32.3599L17.061 33.0314C17.9841 32.0128 18.5586 30.7219 18.8248 29.2137L17.84 29.0399L16.8552 28.8661C16.6414 30.0778 16.2026 31.0003 15.579 31.6884L16.32 32.3599ZM17.84 29.0399L18.8254 29.2104C19.0783 27.7488 19.2 25.9811 19.2 23.9199H18.2H17.2C17.2 25.912 17.0817 27.5576 16.8547 28.8693L17.84 29.0399ZM29.7394 32.5599L29.0992 31.7916L29.0934 31.7965L29.7394 32.5599ZM35.8594 27.2399L36.5403 27.9722L36.5471 27.9658L35.8594 27.2399ZM39.6594 22.7599L40.4958 23.3079V23.3079L39.6594 22.7599ZM40.2194 14.9999L39.449 15.6375V15.6375L40.2194 14.9999ZM34.1794 15.1999L34.9533 15.8331L34.958 15.8275L34.9625 15.8218L34.1794 15.1999ZM33.0594 18.8399V19.8399H34.0423L34.0592 18.8571L33.0594 18.8399ZM27.6194 18.8399L26.6199 18.8066L26.5855 19.8399H27.6194V18.8399ZM30.4594 11.5599L29.7856 10.8209L29.7802 10.8259L30.4594 11.5599ZM44.3394 11.5199L43.6322 12.227L43.6381 12.2328L44.3394 11.5199ZM45.0994 23.8399L45.9601 24.349V24.349L45.0994 23.8399ZM41.2594 28.7999L41.953 29.5202L41.9598 29.5136L41.2594 28.7999ZM35.6194 33.8399L34.9715 33.0782L32.9003 34.8399H35.6194V33.8399ZM47.4194 33.8399H48.4194V32.8399H47.4194V33.8399ZM47.4194 38.4799V39.4799H48.4194V38.4799H47.4194ZM27.6594 38.4799H26.6594V39.4799H27.6594V38.4799ZM27.6594 34.3199L27.0134 33.5565L26.6594 33.8561V34.3199H27.6594ZM29.7394 32.5599L30.3796 33.3281C32.9462 31.1892 35.0016 29.4029 36.5403 27.9722L35.8594 27.2399L35.1784 26.5075C33.6771 27.9035 31.6525 29.6639 29.0992 31.7917L29.7394 32.5599ZM35.8594 27.2399L36.5471 27.9658C38.1161 26.4794 39.4348 24.9273 40.4958 23.3079L39.6594 22.7599L38.8229 22.2119C37.8573 23.6858 36.6426 25.1204 35.1716 26.5139L35.8594 27.2399ZM39.6594 22.7599L40.4958 23.3079C41.5904 21.6373 42.1794 19.9297 42.1794 18.1999H41.1794H40.1794C40.1794 19.4567 39.755 20.7891 38.8229 22.2119L39.6594 22.7599ZM41.1794 18.1999H42.1794C42.1794 16.6897 41.8234 15.3697 40.9898 14.3623L40.2194 14.9999L39.449 15.6375C39.8953 16.1768 40.1794 16.9901 40.1794 18.1999H41.1794ZM40.2194 14.9999L40.9898 14.3623C40.102 13.2896 38.7863 12.8399 37.2594 12.8399V13.8399V14.8399C38.3991 14.8399 39.0568 15.1635 39.449 15.6375L40.2194 14.9999ZM37.2594 13.8399V12.8399C35.6731 12.8399 34.3362 13.3944 33.3963 14.578L34.1794 15.1999L34.9625 15.8218C35.4626 15.192 36.179 14.8399 37.2594 14.8399V13.8399ZM34.1794 15.1999L33.4054 14.5666C32.4993 15.6742 32.0887 17.1315 32.0595 18.8226L33.0594 18.8399L34.0592 18.8571C34.0834 17.4549 34.4195 16.4856 34.9533 15.8331L34.1794 15.1999ZM33.0594 18.8399V17.8399H27.6194V18.8399V19.8399H33.0594V18.8399ZM27.6194 18.8399L28.6188 18.8732C28.7195 15.8526 29.604 13.7139 31.1386 12.2938L30.4594 11.5599L29.7802 10.8259C27.7414 12.7126 26.7326 15.4271 26.6199 18.8066L27.6194 18.8399ZM30.4594 11.5599L31.1331 12.2988C32.738 10.8356 34.7804 10.0799 37.3394 10.0799V9.07988V8.07988C34.3517 8.07988 31.8074 8.97754 29.7856 10.8209L30.4594 11.5599ZM37.3394 9.07988V10.0799C40.2025 10.0799 42.2475 10.8423 43.6323 12.227L44.3394 11.5199L45.0465 10.8128C43.1779 8.94417 40.5562 8.07988 37.3394 8.07988V9.07988ZM44.3394 11.5199L43.6381 12.2328C45.0434 13.615 45.7794 15.4623 45.7794 17.8799H46.7794H47.7794C47.7794 15.0175 46.8887 12.6247 45.0406 10.807L44.3394 11.5199ZM46.7794 17.8799H45.7794C45.7794 19.7703 45.273 21.5823 44.2387 23.3307L45.0994 23.8399L45.9601 24.349C47.1658 22.3108 47.7794 20.1494 47.7794 17.8799H46.7794ZM45.0994 23.8399L44.2387 23.3307C43.159 25.1559 41.9315 26.739 40.5589 28.0862L41.2594 28.7999L41.9598 29.5136C43.4672 28.0341 44.7997 26.3105 45.9601 24.349L45.0994 23.8399ZM41.2594 28.7999L40.5657 28.0796C39.1461 29.4467 37.283 31.112 34.9715 33.0782L35.6194 33.8399L36.2673 34.6016C38.5958 32.6211 40.4927 30.9264 41.953 29.5202L41.2594 28.7999ZM35.6194 33.8399V34.8399H47.4194V33.8399V32.8399H35.6194V33.8399ZM47.4194 33.8399H46.4194V38.4799H47.4194H48.4194V33.8399H47.4194ZM47.4194 38.4799V37.4799H27.6594V38.4799V39.4799H47.4194V38.4799ZM27.6594 38.4799H28.6594V34.3199H27.6594H26.6594V38.4799H27.6594ZM27.6594 34.3199L28.3053 35.0833L30.3853 33.3233L29.7394 32.5599L29.0934 31.7965L27.0134 33.5565L27.6594 34.3199ZM66.5881 0.999882L67.5607 1.23267L67.8557 -0.000118256H66.5881V0.999882ZM55.7881 46.1199V47.1199H56.577L56.7607 46.3527L55.7881 46.1199ZM50.3081 46.1199L49.3356 45.8871L49.0405 47.1199H50.3081V46.1199ZM61.1081 0.999882V-0.000118256H60.3192L60.1356 0.767096L61.1081 0.999882ZM66.5881 0.999882L65.6156 0.767096L54.8156 45.8871L55.7881 46.1199L56.7607 46.3527L67.5607 1.23267L66.5881 0.999882ZM55.7881 46.1199V45.1199H50.3081V46.1199V47.1199H55.7881V46.1199ZM50.3081 46.1199L51.2807 46.3527L62.0807 1.23267L61.1081 0.999882L60.1356 0.767096L49.3356 45.8871L50.3081 46.1199ZM61.1081 0.999882V1.99988H66.5881V0.999882V-0.000118256H61.1081V0.999882Z" fill="url(#paint0_linear_89_326)" mask="url(#path-1-outside-1_89_326)"/>
<defs>
<linearGradient id="paint0_linear_89_326" x1="34.5" y1="0.879883" x2="34.7596" y2="55.4376" gradientUnits="userSpaceOnUse">
<stop stop-color="#FFF0F0"/>
<stop offset="1" stop-color="#FFF0F0" stop-opacity="0.16"/>
</linearGradient>
</defs>
</svg>
