<svg width="26" height="26" viewBox="0 0 26 26" fill="none" xmlns="http://www.w3.org/2000/svg">
<path d="M5.81042 19.9487C5.48553 19.6233 5.45846 19.1125 5.7292 18.7562L5.81042 18.6631L18.6454 5.80675C18.9998 5.45173 19.5744 5.45173 19.9289 5.80675C20.2537 6.13218 20.2808 6.64296 20.0101 6.99929L19.9289 7.09238L7.09391 19.9487C6.73949 20.3037 6.16485 20.3037 5.81042 19.9487Z" fill="white" stroke="white"/>
<path d="M8.96456 7.3801C8.46332 7.38118 8.05612 6.97505 8.05504 6.47298C8.05405 6.01655 8.38905 5.63796 8.82656 5.57209L8.96065 5.56194L19.2919 5.53966C19.7489 5.53867 20.1275 5.87616 20.1918 6.31587L20.2014 6.45062L20.18 16.8C20.179 17.302 19.7718 17.7082 19.2706 17.7072C18.8149 17.7062 18.4384 17.3691 18.3745 16.9306L18.3649 16.7962L18.3839 7.35973L8.96456 7.3801Z" fill="white" stroke="white"/>
</svg>
