<svg width="21" height="21" viewBox="0 0 21 21" fill="none" xmlns="http://www.w3.org/2000/svg">
<path d="M11.4085 0.175727C11.7946 0.40188 12.115 0.760828 12.4295 1.0754C12.482 1.1276 12.482 1.1276 12.5355 1.18086C12.6313 1.27626 12.727 1.37174 12.8226 1.46727C12.9263 1.57075 13.03 1.67411 13.1338 1.77749C13.3835 2.02635 13.633 2.2754 13.8825 2.52448C13.9766 2.61844 14.0707 2.71239 14.1649 2.80634C14.5804 3.22101 14.9958 3.63575 15.4111 4.05065C15.5124 4.15186 15.6137 4.25307 15.715 4.35429C15.7528 4.39201 15.7528 4.39201 15.7913 4.4305C16.1997 4.83847 16.6084 5.24609 17.0173 5.65357C17.4379 6.07272 17.8582 6.49218 18.2781 6.91194C18.5136 7.1473 18.7492 7.38253 18.9852 7.61741C19.186 7.81726 19.3865 8.0174 19.5866 8.2179C19.6886 8.32008 19.7908 8.42211 19.8933 8.52379C20.0046 8.63425 20.1153 8.74535 20.2259 8.85651C20.2581 8.8882 20.2902 8.91989 20.3233 8.95254C20.53 9.16159 20.6815 9.37809 20.8218 9.63599C20.8466 9.68027 20.8714 9.72455 20.897 9.77017C21.0474 10.2512 21.042 10.9468 20.8218 11.4042C20.7421 11.5313 20.7421 11.5313 20.658 11.6422C20.6319 11.6775 20.6058 11.7128 20.579 11.7492C20.2506 12.152 19.8121 12.3762 19.299 12.4508C19.1811 12.4585 19.0667 12.4621 18.9488 12.4617C18.916 12.4616 18.8832 12.4615 18.8494 12.4614C18.8246 12.4613 18.7998 12.4611 18.7743 12.461C18.7744 12.5093 18.7744 12.5093 18.7745 12.5586C18.7763 13.3443 18.7777 14.13 18.7785 14.9157C18.779 15.2957 18.7795 15.6756 18.7805 16.0556C18.7813 16.387 18.7818 16.7183 18.782 17.0497C18.7821 17.225 18.7824 17.4003 18.783 17.5756C18.7835 17.7409 18.7837 17.9063 18.7836 18.0717C18.7836 18.132 18.7837 18.1923 18.7841 18.2526C18.7881 19.0601 18.6563 19.7533 18.0986 20.3655C17.485 20.952 16.7889 20.996 15.9849 20.9934C15.897 20.9934 15.8091 20.9936 15.7212 20.9937C15.5377 20.9939 15.3543 20.9936 15.1708 20.9931C14.9358 20.9924 14.7007 20.9928 14.4657 20.9935C14.2845 20.9939 14.1033 20.9938 13.9221 20.9935C13.8354 20.9934 13.7487 20.9935 13.662 20.9938C13.5411 20.9941 13.4202 20.9936 13.2992 20.9929C13.2635 20.9932 13.2279 20.9934 13.1911 20.9937C12.9978 20.9917 12.8709 20.979 12.7138 20.8542C12.5627 20.6822 12.504 20.5884 12.5034 20.3613C12.5032 20.3176 12.5029 20.2739 12.5027 20.229C12.5027 20.1808 12.5026 20.1327 12.5026 20.0831C12.5024 20.0326 12.5022 19.982 12.5019 19.93C12.5015 19.8199 12.5011 19.7098 12.5009 19.5997C12.5004 19.4254 12.4996 19.251 12.4987 19.0767C12.4962 18.5809 12.494 18.0851 12.4926 17.5893C12.4918 17.3156 12.4907 17.0419 12.489 16.7682C12.4881 16.6235 12.4875 16.4787 12.4874 16.334C12.4873 16.1722 12.4863 16.0104 12.4851 15.8486C12.4853 15.801 12.4854 15.7535 12.4855 15.7045C12.4816 15.3185 12.4186 14.9589 12.1405 14.6719C11.9227 14.5109 11.7245 14.4624 11.4586 14.4606C11.4121 14.4602 11.3657 14.4598 11.3178 14.4594C11.2677 14.4592 11.2176 14.4591 11.166 14.4589C11.1143 14.4586 11.0626 14.4584 11.0093 14.4582C10.8999 14.4578 10.7904 14.4575 10.6809 14.4574C10.5414 14.4571 10.4019 14.4562 10.2624 14.455C10.1285 14.454 9.99464 14.454 9.86075 14.4538C9.81101 14.4533 9.76126 14.4528 9.71001 14.4522C9.38762 14.4531 9.15676 14.4876 8.87733 14.6566C8.64309 14.8971 8.532 15.1724 8.53156 15.5046C8.53139 15.5489 8.53123 15.5932 8.53106 15.6389C8.53108 15.6873 8.5311 15.7357 8.53113 15.7856C8.53098 15.8367 8.53084 15.8879 8.53069 15.9406C8.53039 16.0517 8.53016 16.1628 8.53003 16.274C8.52979 16.4498 8.52911 16.6257 8.52834 16.8015C8.52808 16.8618 8.52782 16.922 8.52756 16.9823C8.52743 17.0124 8.5273 17.0426 8.52717 17.0737C8.52544 17.483 8.52409 17.8923 8.52359 18.3016C8.52324 18.5778 8.52232 18.854 8.52075 19.1303C8.51994 19.2763 8.51943 19.4224 8.51964 19.5685C8.51986 19.7315 8.51883 19.8945 8.51769 20.0575C8.51796 20.1057 8.51823 20.154 8.51851 20.2037C8.51566 20.4526 8.51166 20.6239 8.33219 20.8133C8.12715 20.994 7.95855 21.0006 7.69801 20.9982C7.65962 20.9985 7.62123 20.9988 7.58168 20.9991C7.45508 20.9998 7.32852 20.9994 7.20192 20.9988C7.11347 20.9989 7.02503 20.9991 6.93658 20.9993C6.75118 20.9995 6.56579 20.9992 6.38039 20.9984C6.14384 20.9975 5.90733 20.998 5.67078 20.999C5.48802 20.9996 5.30527 20.9994 5.12252 20.999C5.03537 20.9989 4.94823 20.999 4.86109 20.9994C3.98852 21.0024 3.98852 21.0024 3.58205 20.8133C3.53502 20.7916 3.48799 20.7699 3.43953 20.7475C2.82634 20.3892 2.47481 19.8946 2.27167 19.2165C2.21762 18.8999 2.22525 18.5819 2.22607 18.2617C2.22608 18.1984 2.22607 18.135 2.22605 18.0716C2.22604 17.9003 2.22628 17.7291 2.22657 17.5578C2.22682 17.3785 2.22685 17.1992 2.2269 17.0199C2.22702 16.6808 2.22736 16.3416 2.22777 16.0025C2.22823 15.6162 2.22845 15.23 2.22866 14.8437C2.22909 14.0495 2.22981 13.2553 2.23072 12.461C2.20291 12.4612 2.1751 12.4615 2.14645 12.4617C2.10981 12.4619 2.07316 12.4621 2.03541 12.4622C1.99915 12.4625 1.9629 12.4627 1.92555 12.4629C1.37505 12.4528 0.91384 12.2357 0.521399 11.8624C0.117315 11.4367 -0.00666355 10.9635 0.000272932 10.3879C0.0255283 9.68912 0.397846 9.23817 0.87861 8.7611C0.914219 8.72528 0.949828 8.68946 0.986516 8.65255C1.08421 8.55439 1.18218 8.4565 1.28027 8.35873C1.38645 8.25276 1.49228 8.14644 1.59816 8.04016C1.80514 7.83251 2.01245 7.6252 2.21988 7.41801C2.38855 7.24955 2.5571 7.08096 2.72557 6.9123C2.76164 6.8762 2.76164 6.8762 2.79843 6.83936C2.84729 6.79045 2.89614 6.74154 2.945 6.69263C3.40228 6.23486 3.85996 5.77748 4.31776 5.32023C4.7361 4.90237 5.15398 4.48404 5.57163 4.06548C6.0012 3.63497 6.43109 3.20477 6.8613 2.7749C7.10254 2.53385 7.34366 2.29268 7.58447 2.05119C7.78938 1.84572 7.99457 1.64054 8.20014 1.43572C8.30489 1.33133 8.40952 1.22681 8.51378 1.12193C8.62705 1.00802 8.74094 0.894744 8.85491 0.781525C8.88743 0.748615 8.91995 0.715706 8.95346 0.6818C9.16462 0.473412 9.38206 0.319649 9.64257 0.178286C9.68686 0.153481 9.73115 0.128676 9.77678 0.103119C10.256 -0.046708 10.9519 -0.0421716 11.4085 0.175727ZM9.65101 1.79195C9.61573 1.82703 9.58046 1.86211 9.54411 1.89825C9.44673 1.99521 9.34962 2.09244 9.25263 2.1898C9.14778 2.29491 9.04259 2.39966 8.93743 2.50446C8.73169 2.70962 8.52628 2.91511 8.32098 3.12073C8.15413 3.28783 7.98715 3.45481 7.82009 3.62171C7.7963 3.64548 7.77251 3.66925 7.74799 3.69374C7.69966 3.74203 7.65132 3.79032 7.60299 3.83861C7.14998 4.29119 6.69735 4.74414 6.24484 5.19723C5.85662 5.58593 5.46808 5.97431 5.07931 6.36245C4.62768 6.81334 4.17626 7.26443 3.72515 7.71584C3.67704 7.76398 3.62894 7.81211 3.58083 7.86025C3.55717 7.88393 3.5335 7.90761 3.50911 7.93201C3.34236 8.09884 3.17547 8.26552 3.00853 8.43215C2.8051 8.6352 2.60188 8.83847 2.39895 9.04203C2.29542 9.14586 2.19179 9.2496 2.0879 9.35307C1.97528 9.46524 1.86314 9.57788 1.75104 9.69057C1.71813 9.72319 1.68523 9.75582 1.65132 9.78943C1.44559 9.99732 1.27146 10.1854 1.27097 10.4932C1.27826 10.7042 1.32489 10.819 1.45268 10.9871C1.68417 11.1703 1.84897 11.1963 2.13826 11.199C2.19205 11.2 2.24584 11.201 2.30126 11.202C2.38626 11.2034 2.47124 11.2046 2.55625 11.2051C2.63874 11.2058 2.72122 11.2075 2.80369 11.2092C2.85283 11.2098 2.90197 11.2104 2.95259 11.211C3.15386 11.2427 3.28135 11.3234 3.40385 11.4862C3.47349 11.6309 3.47461 11.7362 3.4747 11.8967C3.47489 11.926 3.47507 11.9553 3.47527 11.9855C3.47574 12.0835 3.47535 12.1814 3.47496 12.2794C3.47513 12.3498 3.47535 12.4202 3.47563 12.4905C3.47611 12.642 3.47621 12.7934 3.47602 12.9449C3.47574 13.1846 3.47639 13.4243 3.47718 13.664C3.47873 14.1731 3.47926 14.6822 3.47968 15.1914C3.48013 15.7403 3.48076 16.2893 3.48257 16.8383C3.48332 17.0763 3.48348 17.3143 3.48319 17.5524C3.48313 17.7008 3.48357 17.8493 3.48415 17.9978C3.48431 18.0664 3.48427 18.1349 3.48399 18.2035C3.48224 18.6783 3.48344 19.1142 3.82951 19.4748C4.11708 19.7233 4.43322 19.7541 4.80453 19.7534C4.84413 19.7534 4.84413 19.7534 4.88453 19.7534C4.97072 19.7534 5.0569 19.7531 5.14309 19.7528C5.20327 19.7527 5.26346 19.7526 5.32364 19.7526C5.48124 19.7524 5.63883 19.752 5.79642 19.7516C5.95756 19.7512 6.1187 19.751 6.27984 19.7508C6.59541 19.7503 6.91098 19.7496 7.22655 19.7488C7.2267 19.7141 7.2267 19.7141 7.22685 19.6786C7.22928 19.1133 7.23239 18.548 7.23621 17.9827C7.23804 17.7093 7.23964 17.4359 7.24074 17.1625C7.24181 16.8984 7.24347 16.6343 7.24552 16.3701C7.2462 16.2696 7.24667 16.1692 7.24693 16.0687C7.2494 15.1894 7.29785 14.4514 7.94045 13.7829C8.47492 13.307 9.07215 13.1717 9.77214 13.1777C9.82982 13.1777 9.8875 13.1776 9.94518 13.1775C10.065 13.1774 10.1848 13.1779 10.3046 13.1789C10.4568 13.18 10.6089 13.1799 10.7611 13.1794C10.8799 13.1791 10.9986 13.1794 11.1174 13.18C11.2003 13.1802 11.2832 13.1801 11.3661 13.1799C12.0351 13.1866 12.6217 13.3634 13.1129 13.8332C13.5991 14.3691 13.749 15.0043 13.7506 15.7097C13.751 15.7536 13.7514 15.7976 13.7518 15.843C13.7531 15.9867 13.7538 16.1305 13.7545 16.2743C13.7552 16.3746 13.756 16.4749 13.7569 16.5753C13.759 16.8381 13.7606 17.1009 13.7621 17.3638C13.7638 17.6325 13.7659 17.9012 13.7679 18.1698C13.7719 18.6962 13.7753 19.2225 13.7785 19.7488C14.1245 19.7507 14.4705 19.7521 14.8165 19.753C14.9772 19.7534 15.1379 19.754 15.2986 19.7549C15.4539 19.7558 15.6093 19.7563 15.7646 19.7565C15.8236 19.7567 15.8826 19.757 15.9416 19.7574C16.4715 19.7613 16.8951 19.7318 17.2924 19.3521C17.5446 18.9703 17.5222 18.5433 17.52 18.103C17.5201 18.0324 17.5202 17.9617 17.5204 17.8911C17.5208 17.7397 17.5207 17.5882 17.5204 17.4368C17.52 17.1973 17.5205 16.9578 17.5211 16.7183C17.5226 16.1237 17.5228 15.5292 17.5227 14.9346C17.5227 14.4718 17.523 14.0091 17.5244 13.5463C17.5251 13.3083 17.525 13.0702 17.5243 12.8322C17.5241 12.6842 17.5246 12.5362 17.5252 12.3882C17.5253 12.3197 17.5252 12.2511 17.5248 12.1826C17.5242 12.0889 17.5247 11.9953 17.5254 11.9016C17.5254 11.823 17.5254 11.823 17.5254 11.7428C17.555 11.5376 17.6437 11.408 17.8048 11.2798C17.9404 11.2215 18.0455 11.217 18.193 11.2161C18.2465 11.2152 18.3 11.2143 18.355 11.2134C18.4112 11.213 18.4673 11.2126 18.5235 11.2123C19.0754 11.2232 19.0754 11.2232 19.5447 10.9692C19.6751 10.8165 19.7283 10.7051 19.7315 10.5035C19.7327 10.4703 19.7338 10.4371 19.735 10.4029C19.6807 10.081 19.4293 9.86404 19.2078 9.64442C19.1727 9.60916 19.1377 9.57389 19.1015 9.53755C19.0045 9.44018 18.9073 9.34309 18.8099 9.24612C18.7048 9.14129 18.6 9.03611 18.4952 8.93097C18.29 8.72526 18.0845 8.51989 17.8788 8.31463C17.7117 8.1478 17.5447 7.98086 17.3778 7.81382C17.354 7.79004 17.3302 7.76625 17.3057 7.74174C17.2574 7.69341 17.2091 7.64508 17.1608 7.59676C16.7082 7.14383 16.2551 6.69127 15.802 6.23884C15.4132 5.85069 15.0248 5.46222 14.6365 5.07351C14.1856 4.62196 13.7344 4.17061 13.2829 3.71958C13.2348 3.67149 13.1866 3.62339 13.1385 3.57529C13.1148 3.55163 13.0911 3.52796 13.0667 3.50358C12.8999 3.33686 12.7332 3.17 12.5665 3.00308C12.3634 2.79969 12.1601 2.59651 11.9565 2.39361C11.8527 2.2901 11.7489 2.18649 11.6454 2.08261C11.5332 1.97001 11.4206 1.85789 11.3079 1.74581C11.2752 1.71291 11.2426 1.68001 11.209 1.64611C11.0011 1.44042 10.813 1.26632 10.5051 1.26582C10.4564 1.26463 10.4564 1.26463 10.4067 1.26342C10.0863 1.32316 9.87082 1.57033 9.65101 1.79195Z" fill="white"/>
</svg>
