<svg width="21" height="21" viewBox="0 0 21 21" fill="none" xmlns="http://www.w3.org/2000/svg">
<g clip-path="url(#clip0_397_42)">
<path d="M8.19009 -0.0125504C8.24447 -0.0124383 8.24447 -0.0124383 8.29996 -0.0123239C8.82396 -0.0105037 9.33085 0.00628867 9.84353 0.123314C9.87596 0.130134 9.90839 0.136955 9.9418 0.143982C11.0177 0.371783 12.0736 0.822529 12.9607 1.47683C13.0019 1.50638 13.043 1.53594 13.0854 1.56639C14.6746 2.74384 15.7677 4.43229 16.2343 6.35C16.2423 6.38275 16.2503 6.41549 16.2585 6.44923C16.3886 7.01609 16.4228 7.57569 16.4214 8.15469C16.4214 8.20704 16.4214 8.20704 16.4213 8.26046C16.417 9.76323 16.0483 11.3272 15.1804 12.5805C15.1233 12.6693 15.1233 12.6693 15.1594 12.7481C15.2351 12.8673 15.3299 12.9619 15.43 13.0604C15.452 13.0823 15.474 13.1043 15.4966 13.1268C15.5703 13.2003 15.6443 13.2735 15.7183 13.3466C15.7712 13.3992 15.8241 13.4519 15.877 13.5045C15.9909 13.6179 16.105 13.7312 16.2191 13.8444C16.3999 14.0236 16.5802 14.2032 16.7606 14.3829C17.2734 14.8937 17.7867 15.4041 18.3003 15.9141C18.584 16.1957 18.8674 16.4776 19.1504 16.7599C19.3293 16.9383 19.5086 17.1163 19.6881 17.294C19.8002 17.4051 19.912 17.5166 20.0236 17.6281C20.0751 17.6795 20.1268 17.7307 20.1786 17.7817C20.6089 18.2059 21.005 18.6213 21.0133 19.2595C21.0092 19.8006 20.9133 20.129 20.5486 20.5491C20.4453 20.6427 20.3382 20.7208 20.2205 20.7952C20.1685 20.8307 20.1685 20.8307 20.1154 20.867C19.7375 21.0607 19.1937 21.0735 18.7875 20.9593C18.325 20.7525 17.9719 20.3685 17.6215 20.0149C17.5681 19.9614 17.5147 19.908 17.4613 19.8547C17.3175 19.7109 17.174 19.5668 17.0307 19.4226C16.8804 19.2715 16.7297 19.1208 16.5791 18.97C16.2944 18.6849 16.0101 18.3996 15.7259 18.1141C15.4021 17.7889 15.0779 17.4641 14.7537 17.1393C14.0873 16.4716 13.4213 15.8035 12.7556 15.135C12.6038 15.1841 12.4759 15.2315 12.3429 15.3196C11.7692 15.6716 11.1453 15.9332 10.4998 16.1194C10.4593 16.1313 10.4593 16.1313 10.4181 16.1434C10.2281 16.1981 10.037 16.2432 9.84353 16.2835C9.81495 16.2897 9.78638 16.2959 9.75693 16.3022C8.75332 16.5101 7.56218 16.51 6.56228 16.2835C6.52979 16.2766 6.4973 16.2698 6.46383 16.2628C5.38797 16.035 4.33217 15.5842 3.44509 14.93C3.40396 14.9004 3.36282 14.8708 3.32044 14.8404C1.73118 13.6629 0.638068 11.9745 0.171532 10.0568C0.163535 10.024 0.155538 9.99129 0.147299 9.95755C0.014217 9.3777 -0.015572 8.80824 -0.0130387 8.21621C-0.0129639 8.17995 -0.0128892 8.14369 -0.0128121 8.10634C-0.010992 7.58234 0.00580039 7.07544 0.122826 6.56277C0.129646 6.53034 0.136466 6.49791 0.143494 6.46449C0.371295 5.38855 0.822041 4.33272 1.47634 3.44558C1.5059 3.40445 1.53545 3.36331 1.5659 3.32093C2.74335 1.73167 4.4318 0.638557 6.34951 0.17202C6.38226 0.164023 6.41501 0.156026 6.44874 0.147787C7.0286 0.0147053 7.59805 -0.0150837 8.19009 -0.0125504ZM6.60952 1.00359C6.52849 1.02385 6.44678 1.04139 6.36505 1.05866C4.50884 1.48561 2.93742 2.76877 1.92751 4.34792C1.91134 4.37321 1.89517 4.3985 1.87851 4.42455C1.4093 5.17327 1.10228 6.02404 0.943138 6.89089C0.93565 6.92947 0.928162 6.96804 0.920447 7.00778C0.851453 7.39874 0.844847 7.78458 0.845726 8.18032C0.845721 8.21464 0.845716 8.24896 0.845711 8.28432C0.846771 8.80048 0.8772 9.29392 1.0031 9.79677C1.02336 9.87781 1.04091 9.95952 1.05817 10.0412C1.48512 11.8975 2.76828 13.4689 4.34743 14.4788C4.37272 14.495 4.39801 14.5111 4.42406 14.5278C5.17272 14.997 6.02357 15.3042 6.8904 15.4632C6.94871 15.4744 6.94871 15.4744 7.00819 15.4858C7.39067 15.553 7.76709 15.5615 8.1542 15.5606C8.20407 15.5606 8.20407 15.5606 8.25494 15.5605C8.82447 15.5591 9.36995 15.5137 9.92556 15.3811C9.95675 15.3739 9.98794 15.3666 10.0201 15.3592C11.8609 14.9163 13.4994 13.6535 14.4901 12.0558C14.9304 11.32 15.2277 10.5554 15.4217 9.72097C15.429 9.69083 15.4364 9.66068 15.4439 9.62963C15.6657 8.68713 15.6349 7.54575 15.4027 6.61067C15.3825 6.52934 15.3649 6.44737 15.3476 6.36538C14.9202 4.50919 13.6377 2.93802 12.0584 1.928C12.0331 1.91183 12.0078 1.89566 11.9817 1.87899C11.233 1.40979 10.3823 1.10276 9.5154 0.943626C9.47683 0.936138 9.43826 0.92865 9.39852 0.920936C9.00756 0.851942 8.62172 0.845335 8.22598 0.846214C8.19165 0.846209 8.15733 0.846204 8.12197 0.846199C7.60582 0.847259 7.11238 0.877688 6.60952 1.00359ZM14.4563 13.5115C14.4318 13.5384 14.4074 13.5653 14.3822 13.5929C14.3549 13.6226 14.3276 13.6522 14.2995 13.6827C14.256 13.7303 14.256 13.7303 14.2117 13.779C13.9697 14.0407 13.7257 14.2897 13.4529 14.5198C13.5187 14.6841 13.6342 14.7937 13.7583 14.9152C13.78 14.9368 13.8017 14.9584 13.8241 14.9807C13.8933 15.0494 13.9628 15.1179 14.0322 15.1863C14.0793 15.233 14.1264 15.2796 14.1734 15.3263C14.2885 15.4405 14.4038 15.5544 14.5193 15.6682C14.6427 15.6093 14.7251 15.5526 14.8192 15.4529C14.9137 15.3553 15.009 15.2647 15.114 15.1786C15.2507 15.0641 15.3651 14.9361 15.48 14.8C15.5398 14.7305 15.602 14.6657 15.6677 14.6018C15.6019 14.4386 15.488 14.3282 15.3653 14.2064C15.3437 14.1848 15.3222 14.1632 15.3 14.1409C15.2546 14.0954 15.2091 14.0501 15.1635 14.0048C15.0935 13.9353 15.024 13.8653 14.9545 13.7953C14.9103 13.7512 14.866 13.707 14.8218 13.663C14.8009 13.6419 14.7801 13.6209 14.7586 13.5993C14.62 13.4416 14.62 13.4416 14.4563 13.5115ZM16.2173 15.2363C16.0802 15.3739 15.9466 15.5118 15.8216 15.6605C15.6264 15.8885 15.3989 16.0839 15.1756 16.2835C15.3599 16.5041 15.5545 16.7097 15.7575 16.9131C15.7903 16.9461 15.8231 16.979 15.8569 17.013C15.9646 17.1213 16.0724 17.2294 16.1803 17.3375C16.2556 17.4131 16.3309 17.4886 16.4061 17.5641C16.5436 17.7019 16.6811 17.8397 16.8186 17.9774C17.0205 18.1794 17.2222 18.3818 17.4235 18.5844C17.5987 18.7605 17.7742 18.9363 17.9498 19.112C18.0242 19.1865 18.0985 19.2611 18.1727 19.3358C18.2764 19.4403 18.3805 19.5443 18.4848 19.6483C18.5152 19.6791 18.5456 19.7099 18.5769 19.7416C18.8034 19.9663 19.0183 20.1618 19.354 20.1646C19.6487 20.1539 19.8346 20.0417 20.0335 19.8299C20.1584 19.6527 20.1608 19.458 20.1683 19.2472C20.0889 18.8915 19.7881 18.6226 19.5375 18.3749C19.5027 18.3401 19.468 18.3052 19.4321 18.2693C19.3377 18.1748 19.243 18.0805 19.1482 17.9864C19.0488 17.8876 18.9497 17.7885 18.8505 17.6894C18.6844 17.5234 18.518 17.3576 18.3515 17.192C18.1375 16.9792 17.9239 16.766 17.7104 16.5527C17.5267 16.3692 17.3428 16.1858 17.159 16.0025C17.0998 15.9436 17.0407 15.8846 16.9817 15.8256C16.872 15.7162 16.7622 15.607 16.6523 15.4978C16.6195 15.465 16.5866 15.4322 16.5528 15.3984C16.5231 15.3689 16.4934 15.3394 16.4627 15.309C16.4368 15.2832 16.4108 15.2574 16.3841 15.2307C16.3 15.1542 16.302 15.1587 16.2173 15.2363Z" fill="white"/>
<path d="M8.09785 1.6279C8.19242 1.62803 8.28694 1.62707 8.38151 1.62603C8.93508 1.62367 9.46965 1.70195 10.0029 1.85362C10.0479 1.86637 10.0479 1.86637 10.0938 1.87937C11.7172 2.35993 13.1284 3.47704 13.9584 4.95542C14.4886 5.93254 14.782 6.98579 14.7788 8.09785C14.7787 8.19242 14.7796 8.28694 14.7807 8.38151C14.783 8.93508 14.7048 9.46965 14.5531 10.0029C14.5403 10.0479 14.5403 10.0479 14.5273 10.0938C14.0468 11.7172 12.9297 13.1284 11.4513 13.9584C10.4742 14.4886 9.42091 14.782 8.30885 14.7788C8.21428 14.7787 8.11976 14.7796 8.02519 14.7807C7.47162 14.783 6.93704 14.7048 6.40379 14.5531C6.35879 14.5403 6.35879 14.5403 6.31288 14.5273C4.68955 14.0468 3.27832 12.9297 2.44834 11.4513C1.91809 10.4742 1.62474 9.42091 1.6279 8.30885C1.62803 8.21428 1.62707 8.11976 1.62603 8.02519C1.62367 7.47162 1.70195 6.93704 1.85362 6.40379C1.86212 6.37379 1.87062 6.34379 1.87937 6.31288C2.35993 4.68955 3.47704 3.27832 4.95542 2.44834C5.93254 1.91809 6.98579 1.62474 8.09785 1.6279ZM6.72679 2.66624C6.68141 2.67844 6.68141 2.67844 6.63512 2.69089C5.17008 3.09272 3.96528 4.09388 3.21258 5.39762C2.9738 5.82411 2.79455 6.25546 2.66624 6.72679C2.65339 6.77178 2.65339 6.77178 2.64028 6.81769C2.39022 7.72238 2.40998 8.77972 2.66624 9.67991C2.67437 9.71016 2.68251 9.74041 2.69089 9.77157C3.09272 11.2366 4.09388 12.4414 5.39762 13.1941C5.82411 13.4329 6.25546 13.6121 6.72679 13.7405C6.75678 13.749 6.78678 13.7576 6.81769 13.7664C7.72238 14.0165 8.77972 13.9967 9.67991 13.7405C9.72528 13.7283 9.72528 13.7283 9.77157 13.7158C11.2366 13.314 12.4414 12.3128 13.1941 11.0091C13.4329 10.5826 13.6121 10.1512 13.7405 9.67991C13.749 9.64991 13.7576 9.61992 13.7664 9.58901C14.0165 8.68432 13.9967 7.62698 13.7405 6.72679C13.7283 6.68141 13.7283 6.68141 13.7158 6.63512C13.314 5.17008 12.3128 3.96528 11.0091 3.21258C10.5826 2.9738 10.1512 2.79455 9.67991 2.66624C9.63491 2.65339 9.63491 2.65339 9.58901 2.64028C8.68432 2.39022 7.62698 2.40998 6.72679 2.66624Z" fill="white"/>
<path d="M8.24318 3.1194C8.2796 3.12018 8.31602 3.12097 8.35354 3.12178C9.69277 3.1662 10.8902 3.81829 11.795 4.78293C12.1967 5.22723 12.6493 5.84685 12.719 6.45448C12.6993 6.59808 12.6662 6.67601 12.578 6.79029C12.449 6.8763 12.3704 6.88583 12.2183 6.89524C12.0741 6.85912 11.9775 6.77577 11.8808 6.66725C11.8174 6.56136 11.7712 6.45055 11.7244 6.33656C11.581 6.01164 11.4131 5.75084 11.1835 5.47779C11.1544 5.44205 11.1253 5.40631 11.0954 5.36949C10.4327 4.58956 9.42849 4.11023 8.41509 4.02671C8.36568 4.02225 8.36568 4.02225 8.31527 4.01769C8.24984 4.01197 8.18434 4.0071 8.11878 4.00319C7.95203 3.98888 7.87558 3.97104 7.73817 3.86745C7.65094 3.74802 7.62823 3.69572 7.63051 3.55006C7.62998 3.51622 7.62945 3.48238 7.62891 3.44752C7.71528 3.12235 7.95744 3.10905 8.24318 3.1194Z" fill="white"/>
<path d="M12.9198 7.79281C13.0479 7.86972 13.0479 7.86972 13.1248 7.99789C13.1654 8.20405 13.1567 8.35494 13.0479 8.53622C12.8667 8.64499 12.7158 8.65368 12.5096 8.61313C12.3814 8.53622 12.3814 8.53622 12.3045 8.40805C12.264 8.20189 12.2727 8.051 12.3814 7.86972C12.5627 7.76095 12.7136 7.75226 12.9198 7.79281Z" fill="white"/>
</g>
<defs>
<clipPath id="clip0_397_42">
<rect width="21" height="21" fill="white"/>
</clipPath>
</defs>
</svg>
