<svg width="21" height="21" viewBox="0 0 21 21" fill="none" xmlns="http://www.w3.org/2000/svg">
<g clip-path="url(#clip0_397_49)">
<path d="M8.77969 -0.0155678C8.81676 -0.0155591 8.85383 -0.0155505 8.89203 -0.0155415C9.45743 -0.0142222 9.9918 0.0197249 10.5408 0.163876C10.6038 0.178925 10.6667 0.193932 10.7297 0.208897C12.8279 0.72974 14.6659 2.14667 15.7908 3.97833C16.4357 5.05086 16.7526 6.23342 16.7495 7.48004C16.7495 7.53154 16.7495 7.53154 16.7495 7.58409C16.7478 8.14656 16.707 8.68084 16.5701 9.22833C16.5572 9.28203 16.5572 9.28203 16.5441 9.33682C16.0804 11.2374 14.896 12.9124 13.2254 13.9378C12.4031 14.4315 11.5214 14.7741 10.5818 14.9705C10.5537 14.9767 10.5255 14.9829 10.4965 14.9893C9.44637 15.2106 8.27679 15.1381 7.21469 15.0335C7.18048 15.0302 7.14627 15.027 7.11102 15.0237C7.01346 15.0115 7.01346 15.0115 6.92238 14.9902C6.61112 14.9251 6.40769 15.0784 6.14956 15.2397C6.10249 15.2681 6.05536 15.2964 6.00817 15.3247C5.91136 15.3828 5.81485 15.4413 5.71856 15.5002C5.50959 15.6278 5.29753 15.7501 5.08572 15.8729C5.00518 15.9199 4.92464 15.9669 4.84411 16.014C4.5299 16.1973 4.21472 16.3789 3.89947 16.5604C3.85802 16.5843 3.81657 16.6082 3.77386 16.6328C3.73349 16.656 3.69313 16.6792 3.65154 16.7031C3.56382 16.7539 3.47643 16.8053 3.38926 16.8571C3.34487 16.8834 3.30049 16.9097 3.25476 16.9369C3.21456 16.9609 3.17437 16.9849 3.13295 17.0097C3.03494 17.0623 3.03494 17.0623 2.95291 17.0623C2.95514 16.9959 2.95514 16.9959 2.95742 16.9282C2.97099 16.5072 2.97961 16.0864 2.98362 15.6652C2.98583 15.4487 2.98967 15.2325 2.99749 15.0161C3.07747 13.9393 3.07747 13.9393 2.65653 12.9963C2.49193 12.8267 2.30636 12.6854 2.11388 12.5488C1.96398 12.4335 1.85701 12.298 1.75064 12.143C1.73284 12.1172 1.71504 12.0915 1.6967 12.065C1.6493 11.9952 1.60368 11.9245 1.55838 11.8533C1.54242 11.8288 1.52647 11.8043 1.51003 11.779C0.688261 10.5065 0.30875 9.05118 0.312528 7.54412C0.312564 7.50896 0.3126 7.47379 0.312637 7.43755C0.314493 6.88568 0.342593 6.35838 0.491971 5.82403C0.506494 5.77138 0.506494 5.77138 0.521311 5.71767C0.83326 4.62494 1.3802 3.67574 2.1326 2.82989C2.15819 2.79933 2.18378 2.76877 2.21014 2.73729C2.73749 2.1089 3.4437 1.6098 4.14236 1.18927C4.17974 1.16676 4.17974 1.16676 4.21786 1.1438C5.16076 0.586856 6.26554 0.257164 7.34158 0.0818443C7.3854 0.0745414 7.42922 0.0672385 7.47437 0.0597143C7.91008 -0.00615899 8.33973 -0.0165203 8.77969 -0.0155678ZM7.01346 1.51739C6.96994 1.52659 6.96994 1.52659 6.92554 1.53598C6.74654 1.57485 6.57218 1.62457 6.39822 1.68145C6.36501 1.69223 6.3318 1.703 6.29759 1.7141C4.5714 2.28435 3.08477 3.39942 2.25052 5.03704C1.85301 5.84047 1.67198 6.66713 1.67117 7.5595C1.67113 7.59098 1.67109 7.62245 1.67105 7.65487C1.67145 8.10941 1.68861 8.54036 1.80447 8.98223C1.81542 9.02839 1.82636 9.07455 1.83764 9.1221C2.16367 10.3842 2.85539 11.3841 3.76297 12.2994C3.78525 12.3219 3.80753 12.3443 3.83049 12.3675C3.85198 12.3889 3.87348 12.4103 3.89563 12.4324C3.924 12.4607 3.924 12.4607 3.95295 12.4895C4.02244 12.5565 4.02244 12.5565 4.12431 12.6219C4.22439 12.7147 4.22439 12.7147 4.25061 12.8231C4.25089 12.8643 4.25116 12.9055 4.25144 12.9479C4.25265 13.0181 4.25265 13.0181 4.25388 13.0897C4.25372 13.14 4.25356 13.1903 4.25339 13.2421C4.25401 13.2938 4.25463 13.3454 4.25527 13.3986C4.25674 13.5357 4.25732 13.6726 4.25749 13.8097C4.25787 13.9496 4.25941 14.0896 4.26084 14.2295C4.26343 14.5039 4.26485 14.7782 4.26541 15.0525C4.5387 14.9079 4.79358 14.7445 5.04775 14.5687C5.12579 14.5153 5.20384 14.462 5.28191 14.4086C5.40354 14.3253 5.52507 14.2418 5.64641 14.158C5.76447 14.0766 5.88289 13.9958 6.00136 13.915C6.03751 13.8898 6.07366 13.8647 6.11091 13.8388C6.3981 13.6438 6.58479 13.5984 6.93143 13.6529C7.4872 13.7394 8.04402 13.7488 8.60533 13.7499C8.72239 13.7503 8.83943 13.7516 8.95649 13.7529C9.59247 13.7565 10.2087 13.6909 10.8228 13.5196C10.8711 13.5064 10.8711 13.5064 10.9203 13.493C12.488 13.0541 13.8212 12.0361 14.6321 10.6254C14.8759 10.1855 15.0441 9.72745 15.1858 9.24627C15.201 9.19546 15.201 9.19546 15.2165 9.14362C15.3616 8.62953 15.3975 8.11137 15.396 7.58001C15.396 7.53567 15.396 7.53567 15.396 7.49043C15.3946 7.01387 15.3544 6.5689 15.2166 6.11114C15.2091 6.08449 15.2017 6.05783 15.194 6.03037C15.0749 5.60749 14.8909 5.22452 14.6834 4.83966C14.6485 4.77431 14.6485 4.77431 14.6129 4.70764C13.7404 3.1438 12.1883 2.05663 10.4972 1.54847C9.93413 1.39039 9.38947 1.33657 8.80789 1.33795C8.77571 1.33794 8.74353 1.33794 8.71037 1.33793C8.13284 1.33919 7.57857 1.39314 7.01346 1.51739Z" fill="white"/>
<path d="M18.0059 5.98828C18.148 6.07118 18.2606 6.1517 18.375 6.27026C18.4012 6.29723 18.4274 6.32419 18.4545 6.35197C18.4824 6.38084 18.5103 6.40971 18.5391 6.43945C18.5886 6.48894 18.5886 6.48894 18.639 6.53943C19.946 7.84635 20.6874 9.53886 20.6898 11.3895C20.685 12.4439 20.4794 13.4046 20.0156 14.3555C20.003 14.3814 19.9905 14.4073 19.9775 14.4341C19.7816 14.8325 19.5484 15.1932 19.2773 15.5449C19.2536 15.5759 19.2299 15.6069 19.2054 15.6389C19.0033 15.8978 18.7848 16.1338 18.5519 16.3652C18.5161 16.4009 18.4803 16.4367 18.4434 16.4735C17.8514 17.0563 17.8514 17.0563 17.5086 17.2296C17.3873 17.3541 17.4083 17.4969 17.4093 17.6614C17.4088 17.6974 17.4084 17.7335 17.408 17.7706C17.4068 17.8898 17.4067 18.0089 17.4066 18.1281C17.406 18.2107 17.4053 18.2933 17.4046 18.3759C17.4028 18.5933 17.402 18.8108 17.4014 19.0282C17.4006 19.2501 17.3988 19.472 17.3972 19.6938C17.3941 20.1292 17.392 20.5646 17.3906 21C17.2605 20.9489 17.1405 20.8961 17.0207 20.8239C16.9894 20.8052 16.9582 20.7864 16.9259 20.7671C16.8923 20.7466 16.8587 20.7262 16.8241 20.7052C16.7883 20.6836 16.7526 20.662 16.7158 20.6398C16.3939 20.4448 16.0749 20.2452 15.7562 20.0451C15.431 19.8412 15.1048 19.6393 14.7753 19.4424C14.5921 19.3326 14.413 19.221 14.2388 19.0973C14.2073 19.0757 14.1758 19.0541 14.1433 19.0319C14.0861 18.9925 14.0298 18.9517 13.975 18.9091C13.7227 18.739 13.4804 18.7987 13.1972 18.8414C12.8543 18.8911 12.5069 18.8833 12.1611 18.8826C12.1235 18.8825 12.0858 18.8825 12.047 18.8825C10.1097 18.8772 8.46435 18.2165 7.01367 16.9395C6.98158 16.9124 6.94949 16.8853 6.91642 16.8574C6.88845 16.8337 6.86048 16.81 6.83167 16.7856C6.80888 16.7664 6.78609 16.7472 6.76261 16.7273C6.68928 16.656 6.62397 16.582 6.55768 16.5041C6.53554 16.4781 6.51339 16.4522 6.49058 16.4254C6.47371 16.4055 6.45684 16.3857 6.43945 16.3652C6.69681 16.3491 6.9541 16.3358 7.21175 16.3252C7.2991 16.3212 7.38641 16.3164 7.47367 16.3108C8.10259 16.2712 8.45646 16.33 8.94141 16.7344C9.00695 16.7765 9.07347 16.8172 9.14136 16.8555C9.16952 16.8714 9.19769 16.8874 9.22671 16.9038C9.25438 16.9189 9.28204 16.9341 9.31055 16.9497C9.34128 16.9666 9.37201 16.9835 9.40367 17.0009C10.2325 17.4476 11.1014 17.6523 12.0391 17.6497C12.134 17.6495 12.2288 17.6505 12.3236 17.6515C12.3873 17.6517 12.4509 17.6517 12.5146 17.6516C12.5629 17.6518 12.5629 17.6518 12.6123 17.6519C12.797 17.6492 12.966 17.6298 13.1462 17.5883C13.6206 17.4839 13.9189 17.4865 14.3372 17.7532C14.4953 17.8596 14.6485 17.9718 14.8015 18.0853C14.8809 18.1413 14.9604 18.1971 15.0401 18.2527C15.1863 18.355 15.3313 18.4587 15.4754 18.564C15.659 18.698 15.8469 18.8248 16.0371 18.9492C16.0362 18.9214 16.0352 18.8935 16.0343 18.8648C16.025 18.5733 16.0205 18.282 16.0186 17.9904C16.0173 17.8818 16.0148 17.7732 16.0111 17.6646C15.9823 16.7849 15.9823 16.7849 16.1417 16.5644C16.2943 16.4271 16.4639 16.3488 16.6544 16.2768C16.8588 16.1883 17.0201 16.0184 17.1855 15.873C17.2195 15.8441 17.2534 15.8151 17.2884 15.7852C18.386 14.8287 19.0895 13.5447 19.2773 12.0996C19.3154 11.405 19.3019 10.7215 19.1133 10.0488C19.1058 10.0214 19.0984 9.99388 19.0907 9.96558C18.8964 9.26923 18.5316 8.55159 18.0417 8.01599C17.96 7.91269 17.9245 7.85697 17.9205 7.72381C17.9254 7.68266 17.9304 7.64151 17.9355 7.59911C17.9573 7.38611 17.9717 7.17547 17.9778 6.9616C17.9787 6.93292 17.9796 6.90424 17.9804 6.87469C17.983 6.78686 17.9855 6.69904 17.9879 6.61121C17.9897 6.5504 17.9915 6.4896 17.9933 6.4288C17.9976 6.28196 18.0018 6.13512 18.0059 5.98828Z" fill="white"/>
<path d="M12.9379 6.62354C13.1768 6.76792 13.3704 6.99226 13.4531 7.25929C13.4861 7.58069 13.4992 7.89992 13.2891 8.16163C13.092 8.36856 12.9133 8.5146 12.6218 8.54455C12.2725 8.5484 12.0309 8.5356 11.7729 8.28996C11.5112 8.0068 11.4647 7.78422 11.4719 7.4006C11.5004 7.07813 11.6504 6.90862 11.8905 6.70333C12.1803 6.50369 12.6161 6.48098 12.9379 6.62354Z" fill="white"/>
<path d="M9.00036 6.62354C9.23927 6.76792 9.43286 6.99226 9.51562 7.25929C9.54864 7.58069 9.56175 7.89992 9.35156 8.16163C9.1545 8.36856 8.97578 8.5146 8.68425 8.54455C8.33496 8.5484 8.09337 8.5356 7.83542 8.28996C7.57367 8.0068 7.52717 7.78422 7.53437 7.4006C7.56289 7.07813 7.71288 6.90862 7.95302 6.70333C8.24277 6.50369 8.67864 6.48098 9.00036 6.62354Z" fill="white"/>
<path d="M5.06286 6.62354C5.30177 6.76792 5.49536 6.99226 5.57812 7.25929C5.61114 7.58069 5.62425 7.89992 5.41406 8.16163C5.217 8.36856 5.03828 8.5146 4.74675 8.54455C4.39746 8.5484 4.15587 8.5356 3.89792 8.28996C3.63617 8.0068 3.58967 7.78422 3.59687 7.4006C3.62539 7.07813 3.77538 6.90862 4.01552 6.70333C4.30527 6.50369 4.74114 6.48098 5.06286 6.62354Z" fill="white"/>
</g>
<defs>
<clipPath id="clip0_397_49">
<rect width="21" height="21" fill="white"/>
</clipPath>
</defs>
</svg>
