<svg width="27" height="21" viewBox="0 0 27 21" fill="none" xmlns="http://www.w3.org/2000/svg">
<path fill-rule="evenodd" clip-rule="evenodd" d="M8.42016 4.12402C9.80477 4.12402 10.0203 4.14476 10.1549 4.28899C10.2773 4.42096 10.3008 4.61044 10.2726 5.24391C10.2443 5.87549 10.2651 6.04989 10.378 6.11116C10.4552 6.15358 10.7856 6.30723 11.7043 6.71635L12.3575 6.08005C12.7161 5.73032 13.0427 5.44375 13.0823 5.44375C13.1218 5.4447 13.6734 5.9641 14.3087 6.59852C14.9432 7.23387 15.4609 7.81738 15.4609 7.89468C15.4599 7.97198 15.1832 8.31228 14.2325 9.26154L14.4236 9.63861C14.5281 9.84599 14.6777 10.175 14.8961 10.7227L15.7197 10.7189C16.2741 10.7161 16.5829 10.7538 16.6638 10.8367C16.7523 10.9263 16.7815 11.3891 16.7758 12.608C16.7711 13.5158 16.7457 14.2784 16.7184 14.3048C16.692 14.3312 16.2694 14.3727 14.8905 14.4462L14.2843 15.896L14.8735 16.4908C15.2114 16.8321 15.4609 17.1658 15.459 17.2742C15.4571 17.3901 15.0156 17.8813 14.3182 18.5468C13.6922 19.1426 13.1322 19.6459 13.0738 19.6638C13.0145 19.6818 12.6822 19.4056 11.7043 18.4054L11.1583 18.6552C10.859 18.7919 10.5183 18.9295 10.4015 18.9616C10.201 19.0153 10.1898 19.0653 10.1916 19.8901C10.1926 20.4491 10.1521 20.8045 10.0787 20.8799C9.99585 20.9647 9.5271 20.9977 8.40604 20.9996C7.27275 21.0005 6.8153 20.9685 6.7287 20.8818C6.64963 20.8013 6.61041 20.4708 6.61104 19.8901C6.61292 19.0653 6.60163 19.0153 6.40114 18.9616C6.28442 18.9295 5.94556 18.7919 5.10689 18.4054L4.448 19.0417C4.08561 19.3914 3.75711 19.678 3.71852 19.678C3.67993 19.677 3.12928 19.1576 2.49393 18.5232C1.78139 17.8096 1.34181 17.2968 1.34181 17.1799C1.34275 17.0753 1.59784 16.7406 2.48922 15.8602L2.24543 15.2239C2.11083 14.8742 2.0007 14.5452 2.0007 14.4933C2.0007 14.4368 1.64867 14.4 1.13003 14.4009C0.550204 14.4016 0.220132 14.3623 0.139811 14.2831C0.0550962 14.1973 0.0155629 13.7081 0.00332636 12.5562C-0.00985142 11.2788 0.0136803 10.9253 0.118161 10.8358C0.200052 10.7651 0.580325 10.7227 1.12532 10.7227C1.76256 10.7227 2.0007 10.6906 2.0007 10.6048C2.0007 10.5398 2.12966 10.2108 2.57205 9.26154L1.95834 8.64881C1.61949 8.31228 1.34369 7.97198 1.34275 7.89468C1.34275 7.81738 1.86045 7.23387 2.49299 6.59852C3.12646 5.96316 3.68746 5.44375 3.74017 5.4447C3.79288 5.4447 4.1195 5.73127 5.09654 6.71635L5.68954 6.46466C6.01616 6.32609 6.35784 6.18846 6.4482 6.15829C6.59128 6.11116 6.6101 5.98861 6.5941 5.22694C6.57998 4.57367 6.60916 4.32104 6.70705 4.23714C6.79836 4.1589 7.32641 4.12402 8.42016 4.12402ZM7.36971 5.70299C7.37253 6.26199 7.33488 6.56458 7.25205 6.64094C7.18522 6.70315 6.89813 6.83418 6.61292 6.93411C6.32772 7.03309 5.87309 7.22633 5.60106 7.36302C5.24526 7.54212 5.06077 7.58737 4.94217 7.52516C4.85181 7.47708 4.56566 7.22162 4.30681 6.95767C4.04796 6.69373 3.79194 6.4788 3.73829 6.47974C3.68369 6.47974 3.33448 6.78799 2.9608 7.16412L2.28214 7.84755C3.20741 8.7723 3.41449 9.05604 3.41355 9.19084C3.41261 9.30773 3.26389 9.71025 3.08222 10.0864C2.9015 10.4625 2.75278 10.8339 2.75372 10.9112C2.75466 10.9885 2.69159 11.1478 2.61347 11.2647C2.48357 11.458 2.39792 11.4768 1.62419 11.4768H0.77705V13.5507C2.15789 13.5441 2.46098 13.5818 2.53723 13.6647C2.60029 13.7317 2.72077 14.0192 2.80737 14.3048C2.89303 14.5904 3.06434 15.025 3.18764 15.271C3.31189 15.5171 3.41261 15.814 3.41166 15.9309C3.41072 16.0629 3.20553 16.3485 2.87043 16.685L2.33015 17.228L3.74205 18.6411C4.61743 17.7653 4.95629 17.5108 5.05983 17.5089C5.16337 17.508 5.48058 17.6305 5.76578 17.7823C6.05099 17.9341 6.47456 18.1122 6.70705 18.1773C6.93955 18.2432 7.20592 18.363 7.29817 18.445C7.43465 18.5656 7.46571 18.741 7.46289 19.3716L7.46007 20.1493H9.43674C9.43015 18.8494 9.46874 18.5581 9.55063 18.4846C9.61746 18.4242 9.94784 18.2828 10.2839 18.1688C10.6199 18.0557 11.0651 17.8615 11.2722 17.738C11.4793 17.6145 11.7014 17.5127 11.7664 17.5117C11.8313 17.5108 12.1485 17.7644 12.4723 18.0745L13.0606 18.6392L14.5271 17.2742C13.6461 16.3607 13.3901 16.0318 13.3901 15.9545C13.3901 15.8772 13.5115 15.5689 13.6593 15.271C13.8071 14.9731 13.9981 14.5065 14.0828 14.2341C14.1741 13.9428 14.3144 13.7005 14.4255 13.6449C14.529 13.5931 14.9319 13.5507 15.3197 13.5507H16.0256V11.5711C14.9309 11.5711 14.529 11.5287 14.4255 11.4768C14.3144 11.4212 14.1741 11.1789 14.0828 10.8876C13.9981 10.6152 13.8071 10.1486 13.6593 9.85071C13.5115 9.55283 13.3901 9.24458 13.3901 9.16728C13.3901 9.08998 13.6433 8.76099 13.952 8.43671L14.5139 7.84755C13.4607 6.78894 13.0936 6.48163 13.0183 6.48163C12.943 6.48068 12.6888 6.69561 12.4535 6.95956C12.2182 7.22256 11.9509 7.47708 11.8605 7.52516C11.7419 7.58737 11.5847 7.54872 11.2957 7.38376C11.0755 7.25744 10.6199 7.06325 10.2839 6.95013C9.94784 6.83795 9.61746 6.6975 9.55063 6.63717C9.4678 6.5627 9.43015 6.26387 9.43297 5.70299L9.43674 4.87815H7.36594L7.36971 5.70299Z" fill="white"/>
<path fill-rule="evenodd" clip-rule="evenodd" d="M22.285 0.0231832L22.3396 0.612348C22.3933 1.18549 22.4045 1.20623 23.1321 1.56255L23.4663 1.19397C23.6819 0.954536 23.8814 0.824448 24.0311 0.825391C24.193 0.825391 24.48 1.04409 24.9921 1.55596C25.3931 1.95753 25.7216 2.36005 25.7216 2.45054C25.7206 2.54104 25.5616 2.78708 25.0147 3.37907L25.1596 3.72785C25.299 4.06439 25.3215 4.07758 25.8185 4.09926C26.1009 4.11152 26.3852 4.17468 26.4492 4.24066C26.532 4.32456 26.5593 4.70163 26.5207 6.7161L25.9277 6.76323C25.3422 6.80942 25.331 6.81602 24.9836 7.5645L25.3535 7.94156C25.5569 8.14895 25.7235 8.40347 25.7235 8.50716C25.7235 8.61934 25.4157 8.99263 24.9686 9.42626C24.5544 9.82784 24.1402 10.1559 24.0499 10.1559C23.9595 10.1549 23.7157 9.98715 23.1321 9.41118L22.7321 9.595C22.3349 9.77882 22.3321 9.78259 22.3358 10.2747C22.3387 10.5622 22.2897 10.8186 22.2182 10.8864C22.1325 10.9685 21.7645 10.9967 19.8377 10.9581L19.7906 9.77976L18.9435 9.35556L18.5435 9.75525C18.3232 9.97489 18.0907 10.1549 18.0258 10.1559C17.9608 10.1559 17.5852 9.84952 17.1918 9.47339C16.7974 9.09727 16.4341 8.70512 16.3832 8.60143C16.307 8.44495 16.3569 8.34879 16.675 8.03583C16.8859 7.82844 17.0591 7.60598 17.06 7.54093C17.06 7.47589 16.9866 7.27416 16.8962 7.09128C16.7372 6.77077 16.7136 6.75946 16.2138 6.76323C15.9173 6.76512 15.6453 6.71516 15.5766 6.64729C15.4947 6.56433 15.457 6.18915 15.4552 5.4435C15.4533 4.67335 15.4881 4.32739 15.5747 4.2482C15.6415 4.18693 15.9446 4.12283 16.2486 4.10681C16.7908 4.07758 16.8021 4.07098 16.9311 3.72314C17.06 3.37247 17.0581 3.36587 16.6844 2.94544C16.4774 2.7126 16.3098 2.48919 16.3117 2.45054C16.3145 2.41189 16.659 2.03012 17.0788 1.60215C17.5504 1.12139 17.9175 0.823505 18.0399 0.822563C18.1481 0.822563 18.407 0.989414 18.9906 1.56632L19.32 1.40701C19.5017 1.32029 19.6805 1.20623 19.7182 1.15438C19.7568 1.10253 19.7812 0.844244 19.7737 0.581241C19.7652 0.317295 19.7953 0.0722018 19.8405 0.0363805C19.8848 0.000559294 20.4533 -0.0173513 22.285 0.0231832ZM20.5465 1.17795C20.5493 1.48714 20.4975 1.67567 20.3818 1.78785C20.2895 1.8774 20.1615 1.95187 20.0966 1.95282C20.0316 1.9547 19.7671 2.06122 19.5083 2.19131C19.2494 2.32046 18.9736 2.42698 18.8964 2.42698C18.8192 2.42698 18.5962 2.27992 18.4023 2.10082L18.0493 1.77371L17.3424 2.47411C17.8563 2.98503 18.005 3.20845 18.0041 3.29894C18.0032 3.38944 17.8959 3.67601 17.7669 3.93524C17.637 4.19447 17.5316 4.46973 17.5316 4.54797C17.5316 4.62527 17.4648 4.75347 17.3838 4.83077C17.2935 4.9175 17.0553 4.97217 16.772 4.97217H16.3079V6.0091C17.0007 6.01099 17.2492 6.04304 17.3076 6.08169C17.3659 6.11939 17.5288 6.4267 17.669 6.76323C17.8102 7.09976 17.9467 7.48154 17.9721 7.61163C18.0088 7.79262 17.942 7.92365 17.6813 8.17723L17.3433 8.50716L18.0964 9.26129L18.8484 8.50716C19.7615 8.92382 20.1314 9.09444 20.2613 9.15571C20.4627 9.25092 20.5004 9.33859 20.5201 9.75902L20.5437 10.2511H21.4849C21.4868 9.7034 21.5405 9.44323 21.6035 9.32068C21.6741 9.18588 21.8878 9.04165 22.1438 8.95587C22.3772 8.87857 22.6521 8.75508 22.7556 8.68344C22.8592 8.6118 23.0493 8.5543 23.1792 8.55524C23.3157 8.55618 23.5435 8.68438 23.7223 8.86255L24.0301 9.16703L24.7323 8.4638C24.1647 7.90574 24.1139 7.79357 24.1506 7.5645C24.176 7.40896 24.3172 6.99419 24.465 6.64352L24.7323 6.00627L25.8148 6.0091V4.97217C25.122 4.97029 24.8566 4.92787 24.7794 4.8779C24.7022 4.827 24.5393 4.52063 24.4179 4.19542C24.2965 3.87114 24.177 3.49879 24.1525 3.36964C24.1177 3.19054 24.1873 3.05479 24.4443 2.80404L24.7803 2.47411L24.0734 1.77371C23.5265 2.27992 23.3035 2.42698 23.2263 2.42698C23.1491 2.42698 22.8837 2.31951 22.638 2.18943C22.3923 2.0584 22.1165 1.95187 22.0262 1.95376C21.9358 1.9547 21.7974 1.89154 21.7202 1.81425C21.6327 1.72658 21.5791 1.49468 21.5791 1.20151V0.730182H20.5437L20.5465 1.17795Z" fill="white"/>
<path fill-rule="evenodd" clip-rule="evenodd" d="M8.54272 9.14385C9.24115 9.16365 9.48023 9.21173 9.90757 9.421C10.1928 9.56145 10.6286 9.87913 10.878 10.128C11.1265 10.3778 11.4437 10.8143 11.584 11.0999C11.808 11.559 11.8372 11.7268 11.8353 12.561C11.8334 13.3924 11.8033 13.565 11.5793 14.0221C11.439 14.3078 11.1218 14.7442 10.8752 14.994C10.6276 15.2429 10.2135 15.5502 9.95463 15.6775C9.69578 15.8047 9.22985 15.948 8.91923 15.997C8.5992 16.0479 8.15021 16.0526 7.88383 16.0083C7.62498 15.9659 7.20141 15.8368 6.94256 15.7218C6.67995 15.6049 6.23944 15.2768 5.9467 14.9789C5.58337 14.6113 5.35276 14.271 5.20121 13.8807C5.03555 13.4556 4.98096 13.1276 4.98096 12.561C4.98096 12.019 5.03649 11.6617 5.18051 11.2884C5.28969 11.0028 5.56172 10.5626 5.7848 10.309C6.00694 10.0564 6.38063 9.73962 6.61312 9.60482C6.84561 9.47096 7.18541 9.30694 7.36614 9.24095C7.56568 9.16742 8.02879 9.12877 8.54272 9.14385ZM6.66018 10.5607C6.35615 10.8275 6.11048 11.1546 5.96553 11.4845C5.8121 11.8352 5.7415 12.1726 5.74056 12.561C5.73993 12.9381 5.80833 13.2837 5.94576 13.5979C6.05871 13.8572 6.30815 14.2324 6.50017 14.4303C6.69124 14.6292 7.01787 14.8809 7.22495 14.9884C7.47344 15.1175 7.84148 15.1986 8.30741 15.2259C8.96441 15.2636 9.05572 15.2448 9.62048 14.9507C10.0246 14.7401 10.333 14.4935 10.5457 14.2107C10.7208 13.9778 10.9298 13.5536 11.0098 13.268C11.1049 12.9287 11.134 12.5865 11.0954 12.2782C11.0625 12.019 10.942 11.6155 10.8262 11.3827C10.7105 11.1498 10.478 10.8209 10.3085 10.6521C10.1401 10.4834 9.82191 10.2543 9.60165 10.1421C9.33496 10.0064 8.98198 9.92847 8.54272 9.90836C8.13421 9.8895 7.74076 9.92909 7.50733 10.013C7.30025 10.0875 6.91903 10.3335 6.66018 10.5607Z" fill="white"/>
<path fill-rule="evenodd" clip-rule="evenodd" d="M21.2491 3.14245C21.5079 3.17168 21.8468 3.24897 22.0021 3.31496C22.1574 3.38095 22.4294 3.55723 22.6064 3.70805C22.7833 3.85794 23.0271 4.19352 23.1467 4.45276C23.2944 4.77138 23.365 5.09942 23.366 5.46612C23.3669 5.764 23.301 6.16746 23.2201 6.36165C23.1391 6.55584 22.9697 6.85278 22.8436 7.02152C22.7174 7.19025 22.3918 7.44006 22.1197 7.57769C21.7743 7.75303 21.4703 7.83032 21.1079 7.83598C20.8236 7.83975 20.3991 7.77188 20.1666 7.68515C19.9191 7.59277 19.5774 7.34862 19.343 7.09693C19.0785 6.81319 18.895 6.50022 18.8008 6.17312C18.7227 5.90069 18.6587 5.59338 18.6587 5.48969C18.6587 5.38599 18.7265 5.06832 18.8102 4.78269C18.9241 4.39148 19.0747 4.15488 19.423 3.81646C19.7186 3.52895 20.0442 3.31873 20.3313 3.22918C20.6109 3.14245 20.9544 3.10946 21.2491 3.14245ZM19.6997 4.68842C19.5868 4.88827 19.5115 5.20406 19.5087 5.48969C19.504 5.83188 19.5623 6.05152 19.7214 6.29095C19.8419 6.47289 20.0866 6.71798 20.2654 6.83581C20.4913 6.98475 20.7267 7.0498 21.0373 7.04791C21.283 7.04603 21.6115 6.98098 21.7668 6.90368C21.9221 6.82639 22.1659 6.6058 22.308 6.41444C22.4944 6.16369 22.5744 5.93463 22.5941 5.58961C22.6148 5.22857 22.5697 5.02213 22.4059 4.73933C22.2873 4.53477 22.0426 4.26799 21.8609 4.14828C21.6228 3.98897 21.4016 3.93052 21.0608 3.93335C20.7493 3.93712 20.4716 4.0097 20.2381 4.14828C20.0442 4.26422 19.8023 4.50649 19.6997 4.68842Z" fill="white"/>
</svg>
