<svg width="17" height="17" viewBox="0 0 17 17" fill="none" xmlns="http://www.w3.org/2000/svg">
<path d="M3.88698 13.1094C3.67849 12.8955 3.66111 12.5598 3.83486 12.3257L3.88698 12.2645L12.1237 3.81607C12.3511 3.58277 12.7199 3.58277 12.9474 3.81607C13.1559 4.02992 13.1732 4.36558 12.9995 4.59973L12.9474 4.66091L4.71065 13.1094C4.4832 13.3427 4.11443 13.3427 3.88698 13.1094Z" fill="white" stroke="white"/>
<path d="M5.91232 4.84953C5.59065 4.85024 5.32933 4.58336 5.32864 4.25343C5.32801 3.95349 5.54299 3.7047 5.82376 3.66141L5.90981 3.65475L12.5398 3.6401C12.8331 3.63946 13.0761 3.86124 13.1173 4.15019L13.1235 4.23873L13.1098 11.0397C13.1091 11.3697 12.8478 11.6366 12.5261 11.6359C12.2337 11.6353 11.9921 11.4137 11.951 11.1255L11.9449 11.0373L11.9571 4.83615L5.91232 4.84953Z" fill="white" stroke="white"/>
</svg>
