<svg width="15" height="17" viewBox="0 0 15 17" fill="none" xmlns="http://www.w3.org/2000/svg">
<path d="M7.06729 16.493C6.69941 16.4927 6.39515 16.2191 6.34674 15.8644L6.34002 15.7658L6.32792 1.23261C6.32759 0.831283 6.65265 0.506217 7.05398 0.506551C7.42185 0.506858 7.72611 0.780484 7.77452 1.13521L7.78124 1.23382L7.79334 15.767C7.79367 16.1683 7.46861 16.4934 7.06729 16.493Z" fill="white" stroke="white"/>
<path d="M1.74201 7.59672C1.45908 7.88087 0.998984 7.88148 0.71436 7.59808C0.455611 7.34044 0.430954 6.93677 0.641178 6.65202L0.711293 6.57043L6.54294 0.713571C6.80091 0.454478 7.20599 0.431226 7.49109 0.643603L7.57275 0.714385L13.4151 6.58096C13.6986 6.86556 13.698 7.32565 13.4139 7.60861C13.1556 7.86584 12.7518 7.88812 12.4676 7.67622L12.3862 7.60562L7.05886 2.25683L1.74201 7.59672Z" fill="white" stroke="white"/>
</svg>
