<svg width="44" height="44" viewBox="0 0 44 44" fill="none" xmlns="http://www.w3.org/2000/svg">
<rect width="44" height="44" fill="#FEFEFE" fill-opacity="0.15"/>
<path d="M19.5605 25.5842C19.5605 24.3977 20.5362 23.6067 21.9996 23.6067C23.463 23.6067 24.4386 24.3977 24.4386 25.5842C24.4386 28.0561 23.9508 32.9999 21.9996 32.9999C20.0484 32.9999 19.5605 28.0561 19.5605 25.5842Z" fill="#FEFEFE"/>
<path fill-rule="evenodd" clip-rule="evenodd" d="M13.4634 21.1348C13.4638 19.5873 13.8739 18.0681 14.6507 16.7358C15.4276 15.4034 16.5428 14.3067 17.8802 13.5598C19.2176 12.8129 20.7282 12.4433 22.2545 12.4894C23.7808 12.5356 25.267 12.9958 26.5581 13.8221C27.8492 14.6485 28.898 15.8106 29.5951 17.1875C30.2922 18.5644 30.6121 20.1056 30.5216 21.6505C30.431 23.1953 29.9332 24.6873 29.0801 25.9708C28.227 27.2544 27.0498 28.2825 25.6712 28.948C25.5908 29.5333 25.4818 30.1141 25.3444 30.6883C29.2224 29.2941 32 25.5437 32 21.1348C32 15.5384 27.522 11 22 11C16.478 11 12 15.5384 12 21.1348C12 25.5437 14.7776 29.2951 18.6556 30.6893L18.6263 30.5657C18.5026 30.0314 18.4033 29.4916 18.3288 28.948C16.8721 28.2448 15.642 27.1376 14.7809 25.7548C13.9198 24.3719 13.463 22.77 13.4634 21.1348Z" fill="#FEFEFE"/>
<path fill-rule="evenodd" clip-rule="evenodd" d="M16.8775 21.1349C16.8775 20.2907 17.0807 19.4593 17.4694 18.7127C17.8581 17.966 18.4207 17.3268 19.1082 16.8502C19.7958 16.3737 20.5876 16.0743 21.4152 15.978C22.2427 15.8817 23.0809 15.9914 23.8571 16.2976C24.6333 16.6038 25.3242 17.0972 25.8698 17.7351C26.4153 18.373 26.7992 19.1361 26.988 19.9583C27.1769 20.7805 27.165 21.637 26.9535 22.4535C26.7419 23.27 26.3371 24.0219 25.7741 24.644C25.8586 24.9426 25.9012 25.2561 25.9019 25.5843C25.9019 25.8691 25.896 26.1865 25.8824 26.5266C27.0045 25.6963 27.8389 24.5276 28.266 23.1876C28.693 21.8477 28.691 20.4051 28.2602 19.0664C27.8293 17.7277 26.9917 16.5614 25.8672 15.7343C24.7426 14.9073 23.3888 14.4619 21.9994 14.4619C20.61 14.4619 19.2562 14.9073 18.1317 15.7343C17.0072 16.5614 16.1696 17.7277 15.7387 19.0664C15.3078 20.4051 15.3058 21.8477 15.7329 23.1876C16.16 24.5276 16.9943 25.6963 18.1165 26.5266C18.1028 26.1865 18.097 25.8691 18.097 25.5843C18.0976 25.2561 18.1402 24.9426 18.2248 24.644C17.3565 23.6875 16.8755 22.4346 16.8775 21.1349Z" fill="#FEFEFE"/>
<path d="M19.8047 20.3932C19.8047 20.9832 20.036 21.5491 20.4476 21.9663C20.8593 22.3835 21.4176 22.6179 21.9998 22.6179C22.582 22.6179 23.1403 22.3835 23.552 21.9663C23.9637 21.5491 24.1949 20.9832 24.1949 20.3932C24.1949 19.8031 23.9637 19.2373 23.552 18.8201C23.1403 18.4028 22.582 18.1685 21.9998 18.1685C21.4176 18.1685 20.8593 18.4028 20.4476 18.8201C20.036 19.2373 19.8047 19.8031 19.8047 20.3932Z" fill="#FEFEFE"/>
</svg>
