<svg width="44" height="44" viewBox="0 0 44 44" fill="none" xmlns="http://www.w3.org/2000/svg">
<rect width="44" height="44" fill="#FEFEFE" fill-opacity="0.15"/>
<path d="M14.4505 21.1058C14.5405 21.7226 14.5473 22.3558 14.4438 22.9727C14.3439 23.5926 13.7469 23.9927 13.1236 23.9429C12.5401 23.8928 12.0736 23.4361 12.0167 22.8295C11.9901 22.5596 12.0133 22.286 12.0133 22.016C12.0099 22.016 12.0099 22.016 12.0065 22.016C12.0065 21.7693 11.9898 21.526 12.0099 21.2827C12.06 20.6093 12.5133 20.156 13.1468 20.1158C13.7805 20.0756 14.3541 20.4757 14.4505 21.1058Z" fill="#FEFEFE"/>
<path d="M18.7785 26.093H18.7751C18.7751 26.3629 18.7983 26.6396 18.7683 26.9064C18.7049 27.4964 18.2084 27.9598 17.625 28C17.0316 28.0399 16.3981 27.5866 16.3381 26.9766C16.2748 26.3864 16.2781 25.7798 16.3313 25.1864C16.3879 24.5696 16.9914 24.1096 17.595 24.1331C18.2084 24.1563 18.7185 24.6398 18.7751 25.2764C18.7986 25.5463 18.7785 25.8197 18.7785 26.093Z" fill="#FEFEFE"/>
<path d="M18.7843 17.732C18.7877 18.3056 18.7843 18.8754 18.7843 19.4455C18.7843 20.1823 18.7911 20.9157 18.7843 21.6525C18.7778 22.1991 18.5011 22.5859 18.0043 22.7927C17.2876 23.0895 16.4642 22.6193 16.3242 21.8494C16.2976 21.6927 16.301 21.526 16.301 21.3627V17.5258C16.301 17.3625 16.2976 17.199 16.321 17.0391C16.4144 16.4223 16.9644 15.9523 17.5711 15.9623C18.1777 15.9688 18.7045 16.4523 18.7744 17.079C18.7979 17.2952 18.7843 17.5153 18.7843 17.732Z" fill="#FEFEFE"/>
<path d="M20.7272 25.2427C20.7238 23.0692 20.7238 20.8956 20.7272 18.7221C20.7272 18.5319 20.7172 18.3387 20.7472 18.1519C20.8471 17.5385 21.4107 17.072 22.014 17.0986C22.6107 17.1252 23.1808 17.6118 23.2006 18.2286C23.204 18.4188 23.2074 18.6086 23.2074 18.7987V25.4029C23.2074 25.7028 23.2074 25.9996 23.0309 26.2664C22.7541 26.6931 22.2341 26.9364 21.774 26.843C21.2441 26.7364 20.8307 26.3363 20.7472 25.8128C20.7172 25.6261 20.7272 25.4329 20.7272 25.2427Z" fill="#FEFEFE"/>
<path d="M23.2043 30.0833C23.2043 30.3266 23.221 30.5734 23.2009 30.8167C23.1475 31.4635 22.6642 31.9267 22.0375 31.9569C21.4241 31.9835 20.8206 31.5501 20.7575 30.9369C20.6975 30.3467 20.6975 29.7401 20.7609 29.1502C20.8307 28.5166 21.3975 28.1101 22.0378 28.1367C22.6778 28.1599 23.1446 28.6035 23.1978 29.2701C23.221 29.54 23.2012 29.8103 23.2012 30.0836C23.2012 30.0836 23.2009 30.0833 23.2043 30.0833Z" fill="#FEFEFE"/>
<path d="M20.7645 14.835C20.6745 14.2182 20.6677 13.5816 20.7713 12.9682C20.8746 12.3514 21.4747 11.9513 22.0949 12.0048C22.6783 12.0583 23.1449 12.5183 23.1983 13.1216C23.2215 13.3915 23.2017 13.6651 23.2017 13.935C23.2017 13.935 23.2017 13.935 23.2051 13.935C23.2051 14.1817 23.2184 14.4251 23.2017 14.6684C23.1483 15.3418 22.6984 15.7919 22.0615 15.8251C21.4212 15.8618 20.8545 15.4618 20.7645 14.835Z" fill="#FEFEFE"/>
<path d="M25.1875 18.8488C25.0976 18.2289 25.0877 17.5954 25.1943 16.9786C25.3044 16.3587 25.9178 15.945 26.521 16.0053C27.1144 16.0653 27.5645 16.512 27.6211 17.1288C27.6477 17.3956 27.6245 17.6721 27.6245 17.9423C27.6279 17.9423 27.6279 17.9423 27.6313 17.9423V18.6757C27.6313 19.2925 27.0847 19.8057 26.4879 19.849C25.8776 19.8923 25.2775 19.4688 25.1875 18.8488Z" fill="#FEFEFE"/>
<path d="M27.6185 22.1957C27.6386 22.359 27.6386 22.5225 27.6386 22.6858V26.4396C27.6386 26.5728 27.6321 26.7095 27.6321 26.8461C27.6253 27.5396 26.9819 28.0263 26.4053 28.0229C25.7952 28.0195 25.265 27.5696 25.1685 26.9395C25.1453 26.7794 25.1518 26.6127 25.1518 26.4495C25.1484 25.8261 25.1484 25.1994 25.1518 24.5727C25.1518 23.8925 25.1518 23.2126 25.1484 22.5358C25.1484 22.2857 25.175 22.0492 25.2851 21.8225C25.5417 21.3059 26.0553 21.0459 26.6387 21.1423C27.1618 21.2289 27.552 21.6423 27.6185 22.1957Z" fill="#FEFEFE"/>
<path d="M31.9292 21.0592C32.0024 21.706 32.0491 22.3593 31.9125 22.9993C31.7758 23.6359 31.2091 24.0026 30.579 23.9361C30.0023 23.8761 29.5556 23.4127 29.5021 22.7958C29.482 22.5259 29.4987 22.2523 29.4987 21.9824C29.4987 21.7357 29.482 21.4923 29.5021 21.249C29.5556 20.6322 29.9387 20.2188 30.5023 20.1388C31.1423 20.0522 31.6358 20.3289 31.8723 20.9055C31.8924 20.9556 31.9258 21.0057 31.9292 21.0592Z" fill="#FEFEFE"/>
<path d="M23.2074 18.7987V25.4029C23.2074 25.7028 23.2074 25.9996 23.0309 26.2664C22.7541 26.6931 22.2341 26.9364 21.774 26.843C21.2441 26.7364 20.8307 26.3363 20.7472 25.8128C20.7172 25.6261 20.7272 25.4329 20.7272 25.2427C20.7238 23.0692 20.7238 20.8956 20.7272 18.7221C20.7272 18.5319 20.7172 18.3387 20.7472 18.1519C20.8471 17.5385 21.4107 17.072 22.014 17.0986C22.6107 17.1252 23.1808 17.6118 23.2006 18.2286C23.2043 18.4188 23.2074 18.6089 23.2074 18.7987Z" fill="#FEFEFE"/>
<path d="M18.7843 19.4455C18.7843 20.1823 18.7911 20.9157 18.7843 21.6525C18.7778 22.1991 18.5011 22.5859 18.0043 22.7927C17.2876 23.0895 16.4642 22.6193 16.3242 21.8494C16.2976 21.6927 16.301 21.526 16.301 21.3627V17.5258C16.301 17.3625 16.2976 17.199 16.321 17.0391C16.4144 16.4223 16.9644 15.9523 17.5711 15.9623C18.1777 15.9688 18.7045 16.4523 18.7744 17.079C18.7976 17.2958 18.7843 17.5156 18.7843 17.7323C18.7877 18.3053 18.7843 18.8754 18.7843 19.4455Z" fill="#FEFEFE"/>
<path d="M27.6386 22.6858V26.4396C27.6386 26.5728 27.6321 26.7095 27.6321 26.8461C27.6253 27.5396 26.9819 28.0263 26.4053 28.0229C25.7952 28.0195 25.265 27.5696 25.1685 26.9395C25.1453 26.7794 25.1518 26.6127 25.1518 26.4495C25.1484 25.8261 25.1484 25.1994 25.1518 24.5727C25.1518 23.8925 25.1518 23.2126 25.1484 22.5358C25.1484 22.2857 25.175 22.0492 25.2851 21.8225C25.5417 21.3059 26.0553 21.0459 26.6387 21.1423C27.1621 21.2289 27.552 21.6423 27.6188 22.1957C27.6386 22.3593 27.6386 22.5225 27.6386 22.6858Z" fill="#FEFEFE"/>
<path d="M18.7751 26.093C18.7751 26.3629 18.7983 26.6396 18.7683 26.9064C18.7049 27.4964 18.2084 27.9598 17.625 28C17.0316 28.0399 16.3981 27.5866 16.3381 26.9766C16.2748 26.3864 16.2781 25.7798 16.3313 25.1864C16.3879 24.5696 16.9914 24.1096 17.595 24.1331C18.2084 24.1563 18.7185 24.6398 18.7751 25.2764C18.7983 25.5463 18.7785 25.8197 18.7785 26.0933H18.7751V26.093Z" fill="#FEFEFE"/>
<path d="M27.6262 17.942C27.6296 17.942 27.6296 17.942 27.633 17.942V18.6754C27.633 19.2922 27.0863 19.8054 26.4896 19.8487C25.8796 19.892 25.2795 19.4687 25.1895 18.8485C25.0995 18.2286 25.0896 17.5951 25.1963 16.9783C25.3063 16.3584 25.9198 15.9447 26.523 16.005C27.1163 16.0649 27.5665 16.5117 27.6231 17.1285C27.6494 17.3953 27.6262 17.6721 27.6262 17.942Z" fill="#FEFEFE"/>
<path d="M23.2015 14.6684C23.148 15.3418 22.6981 15.7919 22.0612 15.8251C21.4212 15.8618 20.8545 15.4618 20.7645 14.835C20.6745 14.2182 20.6677 13.5816 20.7713 12.9682C20.8746 12.3514 21.4747 11.9513 22.0949 12.0048C22.6783 12.0583 23.1449 12.5183 23.1983 13.1216C23.2215 13.3915 23.2017 13.6651 23.2017 13.935C23.2017 13.935 23.2017 13.935 23.2051 13.935C23.2049 14.1817 23.2182 14.4251 23.2015 14.6684Z" fill="#FEFEFE"/>
<path d="M14.4438 22.9727C14.3439 23.5926 13.7469 23.9927 13.1236 23.9429C12.5401 23.8928 12.0736 23.4361 12.0167 22.8295C11.9901 22.5596 12.0133 22.286 12.0133 22.0161C12.0099 22.0161 12.0099 22.0161 12.0065 22.0161C12.0065 21.7693 11.9898 21.526 12.0099 21.2827C12.06 20.6093 12.5133 20.156 13.1468 20.1158C13.7803 20.0759 14.3535 20.4757 14.4503 21.1058C14.5405 21.7224 14.547 22.3559 14.4438 22.9727Z" fill="#FEFEFE"/>
<path d="M31.9125 22.9993C31.7758 23.6359 31.2091 24.0026 30.579 23.9361C30.0023 23.8761 29.5556 23.4127 29.5021 22.7958C29.482 22.5259 29.4987 22.2523 29.4987 21.9824C29.4987 21.7357 29.482 21.4923 29.5021 21.249C29.5556 20.6322 29.9387 20.2188 30.5023 20.1388C31.1423 20.0522 31.6358 20.3289 31.8723 20.9055C31.8924 20.9556 31.9258 21.0054 31.9289 21.0589C32.0024 21.7057 32.0491 22.3593 31.9125 22.9993Z" fill="#FEFEFE"/>
<path d="M23.2009 30.8167C23.1475 31.4635 22.6642 31.9267 22.0375 31.9569C21.4241 31.9835 20.8206 31.5501 20.7575 30.9369C20.6975 30.3467 20.6975 29.7401 20.7609 29.1502C20.8307 28.5166 21.3975 28.1101 22.0378 28.1367C22.6778 28.1599 23.1446 28.6035 23.1978 29.2701C23.221 29.54 23.2012 29.8103 23.2012 30.0836C23.2012 30.0836 23.2012 30.0836 23.2046 30.0836C23.2043 30.3266 23.221 30.5734 23.2009 30.8167Z" fill="#FEFEFE"/>
</svg>
