<svg width="69" height="64" viewBox="0 0 69 64" fill="none" xmlns="http://www.w3.org/2000/svg">
<g clip-path="url(#clip0_444_10649)">
<path d="M19.0849 39.0638L18.4966 39.0389C16.6574 39.0335 14.4414 37.2011 14.4414 34.9275V29.0119C14.4414 26.7361 16.6574 24.9049 18.4966 24.9005L19.0849 24.8745L19.6742 24.9005C21.3289 24.9049 23.8233 26.5442 23.8233 29.0119L23.819 29.8902H20.6381V29.3415C20.6381 28.6021 19.8566 28.0448 19.3482 28.0448H19.332L19.0849 28.034L18.8215 28.0448C18.3142 28.0448 17.5327 28.6064 17.5327 29.3535V34.5838C17.5327 35.3308 18.3142 35.8914 18.8215 35.8914L18.8377 35.8936L19.0849 35.9044L19.3482 35.8925C19.8555 35.8925 20.6381 35.3363 20.6381 34.5979V34.0493H23.819L23.8233 34.9264C23.8233 37.3952 21.3289 39.0335 19.6731 39.04L19.0838 39.0638H19.0849Z" fill="#34373C"/>
<path d="M33.8603 39.0596H30.7668V33.6049H28.0026V39.0596H24.9102V24.8833H28.0026V30.3858H30.7668V24.8833H33.8603V39.0596Z" fill="#34373C"/>
<path d="M39.5907 39.0638L39.0025 39.0389C37.1632 39.0335 34.9473 37.2011 34.9473 34.9275V29.0119C34.9473 26.7361 37.1632 24.9049 39.0025 24.9005L39.5907 24.8745L40.1801 24.9005C41.8337 24.9049 44.3281 26.5442 44.3281 29.0119L44.3249 29.8902H41.1429V29.3415C41.1429 28.6021 40.3603 28.0448 39.8541 28.0448H39.8379L39.5907 28.034L39.3274 28.0448C38.8201 28.0448 38.0386 28.6064 38.0386 29.3535V34.5838C38.0386 35.3308 38.8211 35.8914 39.3274 35.8914L39.3436 35.8936L39.5907 35.9044L39.8541 35.8925C40.3614 35.8925 41.1429 35.3363 41.1429 34.5979V34.0493H44.3249L44.3281 34.9264C44.3281 37.3952 41.8337 39.0335 40.1801 39.04L39.5907 39.0638Z" fill="#34373C"/>
<path d="M54.3651 39.0596H51.2727V33.6049H48.5084V39.0596H45.416V24.8833H48.5084V30.3858H51.2727V24.8833H54.3651V39.0596Z" fill="#34373C"/>
<path d="M14.153 17.3054C17.3663 15.6281 23.1474 14.867 27.7326 14.5211C27.752 11.6609 28.5054 8.84189 29.9647 6.2972C30.7441 4.93865 31.7025 3.71564 32.7959 2.65093C30.39 0.984462 27.5016 0.0444336 24.4934 0.0444336C21.9439 0.0444336 19.4204 0.726415 17.199 2.01882C10.237 6.06842 7.85163 15.0513 11.882 22.0457C12.2091 22.6138 12.5728 23.1548 12.9679 23.6666C13.4816 19.8371 14.153 17.3076 14.153 17.3076V17.3054Z" fill="#EB6627"/>
<path d="M58.5073 10.8499C57.4937 7.07027 55.077 3.91299 51.6997 1.95921C49.4859 0.67656 46.9731 0 44.4333 0C39.2232 0 34.3725 2.81466 31.7755 7.34567C30.5256 9.52605 29.8683 11.9374 29.8262 14.3856C32.5807 14.2338 34.5268 14.2338 34.5268 14.2338C34.5268 14.2338 43.5148 14.2338 50.2004 15.7398C51.5518 15.3885 52.9582 15.2053 54.3916 15.2031H54.4121C55.9913 15.2031 57.5196 15.4264 58.9692 15.8395C59.1009 14.1839 58.9509 12.5012 58.5073 10.8499Z" fill="#874199"/>
<path d="M54.8702 17.311C54.9166 17.4856 56.6328 24.0625 56.6328 32.0143C56.6328 33.9681 56.5292 35.8373 56.3716 37.5493C57.3506 38.5446 58.212 39.6679 58.9254 40.9061C59.7123 42.2711 60.2952 43.7164 60.6697 45.204C62.1614 44.4905 63.5354 43.5191 64.7368 42.3112C67.4892 39.5389 69.0024 35.8579 68.9981 31.9438C68.9895 24.0257 62.6924 17.5572 54.8691 17.3121L54.8702 17.311Z" fill="#E4212A"/>
<path d="M57.1199 41.9576C56.7982 41.4003 56.442 40.869 56.0556 40.3638C55.5408 44.1803 54.8715 46.6957 54.8715 46.6957C51.6507 48.3773 45.8545 49.1385 41.2693 49.4832C41.2499 52.3413 40.4954 55.1592 39.0382 57.7028C38.2589 59.0613 37.3004 60.2844 36.207 61.3502C38.6119 63.0166 41.5003 63.9577 44.5085 63.9577C47.059 63.9577 49.5815 63.2747 51.8029 61.9833C55.177 60.022 57.5873 56.8582 58.5911 53.0764C59.596 49.2946 59.0736 45.3458 57.121 41.9565L57.1199 41.9576Z" fill="#10A6D6"/>
<path d="M34.521 49.7684C34.521 49.7684 25.5061 49.7685 18.8118 48.2592C17.4561 48.6116 16.0465 48.797 14.6087 48.7981H14.5904C13.0102 48.7981 11.4818 48.5758 10.0322 48.1616C9.90052 49.8162 10.0516 51.5011 10.4942 53.1513C11.5066 56.9309 13.9255 60.0882 17.3029 62.0419C19.5177 63.3224 22.0294 63.999 24.5692 63.999C29.7793 63.999 34.63 61.1843 37.227 56.6544C38.4769 54.4751 39.1343 52.0649 39.1774 49.6188C36.4477 49.7674 34.5232 49.7674 34.5232 49.7674L34.521 49.7684Z" fill="#E2BE22"/>
<path d="M12.388 32.0142C12.388 30.0605 12.4916 28.1902 12.6492 26.4771C11.6605 25.4753 10.7905 24.3422 10.0716 23.0954C9.27722 21.7173 8.70083 20.2699 8.33169 18.7964C6.83892 19.5087 5.46272 20.4824 4.26137 21.6924C1.50897 24.4637 -0.00430828 28.1446 9.21309e-06 32.0587C0.0086442 39.4976 5.56526 45.656 12.7247 46.5787C12.7312 46.5809 13.1295 46.6264 13.163 46.6286C13.2407 46.6362 13.9714 46.6817 14.1517 46.6904C14.1085 46.5256 12.388 39.9703 12.388 32.0132V32.0142Z" fill="#31B461"/>
</g>
<defs>
<clipPath id="clip0_444_10649">
<rect width="69" height="64" fill="white"/>
</clipPath>
</defs>
</svg>
