<svg width="119" height="56" viewBox="0 0 119 56" fill="none" xmlns="http://www.w3.org/2000/svg">
<path d="M112.289 9.46875C109.361 8.39498 105.944 8.29736 102.918 8.10213L92.3755 7.12597C85.2495 6.63789 78.1236 6.14981 70.9 5.4665L28.1441 1.75709L17.0158 0.780928L7.93754 0C3.34958 0 1.10439 3.0261 0.32346 6.83312C-0.0670044 8.39498 -0.0669865 9.95683 0.128246 11.4211C0.811559 16.9852 1.39724 22.4517 2.27578 28.0158C2.86148 31.9204 4.13049 35.8251 7.64467 38.0702C11.0612 40.2178 18.3825 39.7297 23.2633 39.7297H82.2234L83.6877 40.9011C85.3472 42.5606 87.2019 44.0248 89.1542 45.2938C92.5707 47.539 97.6468 50.3699 101.844 49.9794C101.031 49.3937 100.292 48.7267 99.6284 47.9783C98.9646 47.2299 98.3919 46.4164 97.9103 45.5379C97.4288 44.6593 97.0481 43.7385 96.7682 42.7753C96.4949 41.8122 96.3322 40.8295 96.2802 39.8273C102.332 39.7297 111.215 40.6083 114.925 35.9227C118.439 31.7252 118.049 25.1849 118.244 20.1089C118.439 15.5209 116.975 11.1282 112.387 9.37114L112.289 9.46875ZM24.8251 28.992H21.6038V23.2326H16.6254V29.0896H13.404V15.0329H16.6254V20.4994H21.7014V15.1305H24.9227V28.992H24.8251ZM36.4414 25.9659C36.3048 26.2847 36.1421 26.5906 35.9534 26.8835C35.7646 27.1763 35.5466 27.4464 35.2994 27.6937C35.0586 27.9475 34.795 28.1752 34.5087 28.377C34.2288 28.5787 33.9295 28.7512 33.6106 28.8943C33.2722 29.018 32.9305 29.1124 32.5856 29.1774C32.2342 29.2425 31.8795 29.2783 31.5216 29.2848C31.1637 29.2913 30.809 29.2718 30.4576 29.2262C30.0997 29.1742 29.7515 29.0961 29.4131 28.992C29.2634 28.9399 29.1202 28.8813 28.9836 28.8162C28.8404 28.7512 28.7037 28.6796 28.5736 28.6015C28.4434 28.5169 28.3165 28.4258 28.1929 28.3282C28.0758 28.2306 27.9619 28.1264 27.8512 28.0158C27.4608 27.6253 27.0703 27.0396 26.8751 26.4539C26.7449 26.083 26.6473 25.7056 26.5822 25.3216C26.5172 24.9376 26.4846 24.5504 26.4846 24.16C26.4846 23.7695 26.5172 23.3823 26.5822 22.9983C26.6473 22.6144 26.7449 22.2369 26.8751 21.866C27.0703 21.3584 27.3371 20.8931 27.6755 20.4701C28.0204 20.0471 28.4206 19.6859 28.8762 19.3865C29.3317 19.0872 29.8231 18.8659 30.3502 18.7228C30.8708 18.5796 31.4045 18.521 31.9511 18.547C32.2765 18.5275 32.6051 18.5405 32.937 18.5861C33.2624 18.6251 33.578 18.7 33.8839 18.8106C34.1963 18.9212 34.4924 19.0612 34.7722 19.2304C35.0586 19.3996 35.3221 19.5948 35.5629 19.8161C36.4414 20.6946 36.8319 21.9636 36.8319 23.7207C36.8319 24.5016 36.7343 25.2826 36.4414 25.9659ZM53.6219 28.992H50.4006V22.6469C50.4006 22.1588 50.4006 21.866 50.2053 21.5731C50.2053 21.2803 49.9125 21.1827 49.522 21.1827C49.3268 21.1827 49.0339 21.1827 48.8387 21.3779L48.1554 22.0612L47.6673 23.0374L47.5697 24.0135V28.992H44.446V22.5493C44.446 22.1588 44.446 21.866 44.2507 21.5731C44.1531 21.2803 43.8603 21.1827 43.4698 21.1827C43.2746 21.1827 42.9817 21.1827 42.7865 21.3779L42.1032 22.0612L41.6151 23.0374L41.4199 24.0135V28.992H38.2962V18.8399H41.2247C41.2312 18.97 41.2377 19.1002 41.2442 19.2304C41.2507 19.3605 41.2539 19.4907 41.2539 19.6208C41.2539 19.751 41.2507 19.8811 41.2442 20.0113C41.2377 20.1414 41.2312 20.2716 41.2247 20.4017C41.5175 19.8161 41.908 19.4256 42.4937 19.0351C42.6433 18.9505 42.7963 18.8789 42.9525 18.8204C43.1086 18.7553 43.2713 18.7032 43.4405 18.6642C43.6032 18.6251 43.7692 18.5959 43.9384 18.5763C44.1076 18.5568 44.2768 18.547 44.446 18.547C45.2269 18.547 45.9102 18.7423 46.3983 19.1327C46.7888 19.4256 47.0816 19.9137 47.3745 20.4017C47.5697 19.9137 47.9602 19.4256 48.5459 19.1327C49.034 18.7423 49.7173 18.547 50.4982 18.547C51.4744 18.547 52.2553 18.8399 52.841 19.5232C53.3291 20.0113 53.6219 20.8898 53.6219 22.0612V28.992ZM64.4573 24.0135V24.6969H58.3075C58.3075 25.3802 58.5027 25.8682 58.9908 26.2587C59.3812 26.6492 59.9669 26.8444 60.8455 26.8444C61.0993 26.8379 61.3499 26.8184 61.5971 26.7858C61.8509 26.7533 62.1015 26.7077 62.3488 26.6492C62.5896 26.5971 62.8303 26.5288 63.0711 26.4442C63.3119 26.3596 63.5462 26.2652 63.774 26.1611L64.1645 28.6015C63.8521 28.7251 63.5365 28.8325 63.2176 28.9236C62.8987 29.0147 62.5765 29.0896 62.2512 29.1481C61.9193 29.2002 61.5874 29.2393 61.2555 29.2653C60.9236 29.2913 60.5917 29.2978 60.2598 29.2848C58.698 29.2848 57.3313 28.7967 56.4528 28.0158C55.5742 27.1373 55.0861 25.8682 55.0861 24.0135C55.0861 23.2326 55.1837 22.5493 55.4766 21.866C55.5156 21.7033 55.5677 21.5406 55.6328 21.3779C55.6979 21.2217 55.7694 21.0688 55.8475 20.9191C55.9321 20.7759 56.0232 20.636 56.1209 20.4994C56.225 20.3627 56.3356 20.2325 56.4528 20.1089C56.8432 19.6208 57.3313 19.2304 57.917 18.9375C58.6003 18.6447 59.2836 18.547 60.0646 18.547C60.2338 18.547 60.3997 18.5536 60.5624 18.5666C60.7316 18.5861 60.8975 18.6121 61.0602 18.6447C61.2229 18.6772 61.3856 18.7162 61.5483 18.7618C61.7045 18.8139 61.8607 18.8724 62.0169 18.9375C62.2902 19.0481 62.5473 19.1881 62.7881 19.3573C63.0289 19.5265 63.2468 19.7217 63.4421 19.943C63.6308 20.1642 63.7968 20.405 63.9399 20.6653C64.0766 20.9191 64.184 21.1892 64.262 21.4755C64.3206 21.6838 64.3695 21.892 64.4085 22.1003C64.441 22.3085 64.4671 22.52 64.4866 22.7348C64.4996 22.9495 64.5061 23.1643 64.5061 23.379C64.4996 23.5873 64.4833 23.7988 64.4573 24.0135ZM74.2189 26.4539C74.1668 26.5906 74.1083 26.7273 74.0432 26.8639C73.9716 26.9941 73.8968 27.121 73.8187 27.2446C73.7341 27.3683 73.643 27.4854 73.5454 27.5961C73.4542 27.7067 73.3534 27.8141 73.2428 27.9182C72.9629 28.1264 72.6668 28.3119 72.3544 28.4746C72.0486 28.6438 71.7297 28.787 71.3978 28.9041C71.0659 29.0147 70.7275 29.1026 70.3826 29.1677C70.0377 29.2327 69.6895 29.2718 69.3381 29.2848C69.0452 29.2848 68.7491 29.2783 68.4498 29.2653C68.1569 29.2523 67.8641 29.2295 67.5713 29.197C67.2784 29.1644 66.9856 29.1221 66.6927 29.0701C66.3999 29.018 66.1103 28.9594 65.8239 28.8943L66.1168 25.8682C66.3641 25.9724 66.6146 26.0635 66.8684 26.1416C67.1287 26.2132 67.389 26.275 67.6493 26.327C67.9096 26.3726 68.1732 26.4084 68.44 26.4344C68.7068 26.4539 68.9737 26.4604 69.2405 26.4539C69.8262 26.4539 70.2166 26.3563 70.6071 26.1611C70.9976 25.8682 71.0952 25.5754 71.0952 24.9897C71.0952 24.5992 71.0952 24.3064 70.7047 24.1112L69.7286 23.5255L68.3619 23.0374L66.9953 22.2565C66.761 22.0807 66.5528 21.879 66.3706 21.6512C66.1818 21.4235 66.0257 21.1794 65.902 20.9191C65.7719 20.6588 65.6775 20.3855 65.6189 20.0991C65.5538 19.8128 65.5246 19.5232 65.5311 19.2304C65.5311 18.931 65.5604 18.6349 65.6189 18.3421C65.684 18.0557 65.7816 17.7759 65.9118 17.5026C66.0354 17.2292 66.1883 16.9754 66.3706 16.7411C66.5593 16.5069 66.7675 16.2954 66.9953 16.1066C67.4834 15.7162 68.0691 15.4233 68.7524 15.1305C69.4357 14.9353 70.2166 14.8376 71.0952 14.8376C71.3099 14.8441 71.5215 14.8539 71.7297 14.8669C71.9445 14.8864 72.1592 14.9092 72.3739 14.9353C72.5822 14.9548 72.7937 14.9808 73.0085 15.0133C73.2167 15.0524 73.425 15.0914 73.6332 15.1305L73.3404 17.9613C72.5594 17.6685 71.7785 17.5709 70.9 17.5709C70.3143 17.5709 69.8262 17.5709 69.5333 17.8637C69.1429 18.1566 68.9476 18.547 69.0453 19.0351C69.0453 19.328 69.2405 19.5232 69.4357 19.7184L70.4119 20.3041L71.8761 20.8898L73.2428 21.6708C73.6332 21.9636 74.0237 22.3541 74.2189 22.8421C74.5118 23.3302 74.707 23.8183 74.707 24.5992C74.707 25.2826 74.6094 25.8682 74.3165 26.5516L74.2189 26.4539ZM80.8568 29.1872C80.629 29.2262 80.4013 29.2523 80.1735 29.2653C79.9457 29.2848 79.7179 29.2946 79.4902 29.2946C79.2624 29.2946 79.0347 29.2848 78.8069 29.2653C78.5791 29.2523 78.3513 29.2262 78.1236 29.1872L77.1474 28.6015L76.6593 27.6253L76.4641 25.9659V21.1827H74.9998V18.8399H76.4641V15.8138L79.6854 14.9353V18.8399H81.833V21.1827H79.6854V25.3802C79.6854 25.8682 79.6854 26.2587 79.8806 26.3563C80.0759 26.6492 80.3687 26.7468 80.7592 26.7468H81.2473L81.833 26.6492L81.9306 29.0896L80.8568 29.2848V29.1872ZM88.959 28.992V27.5277C88.8939 27.6579 88.8223 27.7848 88.7442 27.9084C88.6596 28.0321 88.5685 28.146 88.4709 28.2501C88.3733 28.3607 88.2659 28.4616 88.1487 28.5527C88.0316 28.6438 87.9112 28.7251 87.7876 28.7967C87.2019 29.0896 86.6162 29.2848 85.8352 29.2848C85.3471 29.2848 84.8591 29.1872 84.5662 28.992C84.397 28.9204 84.2376 28.8325 84.0879 28.7284C83.9317 28.6243 83.7918 28.5039 83.6681 28.3672C83.5445 28.2306 83.4339 28.0841 83.3363 27.9279C83.2386 27.7718 83.1606 27.6058 83.102 27.4301C82.9068 27.0396 82.9067 26.6492 82.9067 26.2587C82.9067 25.5754 83.0044 24.9897 83.2972 24.5992C83.59 24.1112 83.9805 23.7207 84.4686 23.4278C84.6183 23.3498 84.7745 23.2782 84.9372 23.2131C85.0934 23.1545 85.2528 23.0992 85.4155 23.0471C85.5847 23.0016 85.7506 22.9593 85.9133 22.9202C86.0825 22.8877 86.2517 22.8617 86.4209 22.8421C87.0066 22.6469 87.7875 22.6469 88.6661 22.6469V22.1588C88.6661 21.7684 88.4709 21.4755 88.2756 21.1827L86.8114 20.9874C86.3233 20.9874 85.8352 20.9874 85.3471 21.1827C85.23 21.2152 85.1129 21.2478 84.9957 21.2803C84.8786 21.3193 84.7647 21.3584 84.6541 21.3974C84.5369 21.4365 84.423 21.4788 84.3124 21.5243C84.2018 21.5699 84.0912 21.6187 83.9805 21.6708L83.4924 19.1327C83.974 18.9635 84.4686 18.8301 84.9762 18.7325C85.4773 18.6349 85.9817 18.5666 86.4893 18.5275C87.0034 18.495 87.5142 18.4982 88.0219 18.5373C88.536 18.5698 89.0436 18.6382 89.5447 18.7423C90.1304 18.9375 90.5208 19.1327 90.9113 19.5232C91.2041 19.8161 91.497 20.2065 91.5946 20.597C91.7898 21.0851 91.7898 21.5731 91.7898 22.0612V27.8206L91.8874 28.992H88.959ZM99.6967 21.6708C98.7206 21.4755 98.1349 21.6708 97.6468 22.1588C97.2563 22.6469 96.9635 23.5255 96.9635 24.7945V28.992H93.8398V18.8399H96.7682C96.7682 18.9896 96.7682 19.136 96.7682 19.2792C96.7617 19.4288 96.7552 19.5753 96.7487 19.7184C96.7357 19.8681 96.7259 20.0145 96.7194 20.1577C96.7064 20.3074 96.6902 20.4538 96.6706 20.597C96.9635 20.0113 97.354 19.5232 97.842 19.0351C98.3301 18.6447 99.0134 18.547 99.7944 18.547L99.5991 21.6708H99.6967ZM107.311 27.2349C107.116 27.6253 106.823 28.0158 106.335 28.3086L104.968 28.992C104.623 29.0831 104.275 29.1481 103.924 29.1872C103.572 29.2327 103.221 29.2555 102.869 29.2555C102.518 29.2555 102.166 29.2327 101.815 29.1872C101.464 29.1481 101.115 29.0831 100.771 28.992L100.966 26.4539C101.551 26.6492 102.235 26.8444 103.016 26.8444C103.504 26.8444 103.797 26.7468 103.992 26.5516C104.187 26.4539 104.285 26.2587 104.285 25.9659C104.285 25.7706 104.285 25.5754 103.992 25.3802C103.94 25.3411 103.888 25.3021 103.836 25.263C103.777 25.2305 103.719 25.198 103.66 25.1654C103.608 25.1329 103.549 25.1003 103.484 25.0678C103.426 25.0418 103.367 25.0157 103.309 24.9897L102.43 24.6969L101.454 24.2088C101.259 23.9159 100.966 23.6231 100.868 23.2326C100.823 23.135 100.78 23.0341 100.741 22.93C100.702 22.8259 100.673 22.7218 100.653 22.6176C100.627 22.507 100.608 22.3996 100.595 22.2955C100.582 22.1849 100.575 22.0742 100.575 21.9636C100.575 21.4755 100.575 20.9874 100.868 20.597C100.966 20.2065 101.259 19.8161 101.649 19.5232L103.016 18.7423C103.25 18.6707 103.491 18.6154 103.738 18.5763C103.979 18.5308 104.223 18.5015 104.47 18.4885C104.717 18.469 104.965 18.4657 105.212 18.4787C105.459 18.4852 105.703 18.508 105.944 18.547L106.92 18.7423L106.823 21.1827L105.847 20.9874L104.968 20.8898C104.578 20.8898 104.285 20.8898 104.089 21.0851L103.797 21.6708C103.797 21.866 103.894 22.0612 104.089 22.1588L104.87 22.5493C105.014 22.6339 105.157 22.7185 105.3 22.8031C105.45 22.8877 105.596 22.9691 105.739 23.0471C105.889 23.1317 106.035 23.2131 106.178 23.2912C106.328 23.3693 106.478 23.4474 106.627 23.5255C106.92 23.7207 107.213 24.0135 107.408 24.404C107.604 24.6969 107.604 25.1849 107.604 25.673C107.604 26.2587 107.604 26.7468 107.311 27.2349Z" fill="#03ACEF"/>
<path d="M20.2368 44.1224L21.5058 46.6604L24.3366 47.1485C24.8247 47.1485 25.0199 47.8318 24.7271 48.1246L22.6772 50.077L23.1652 53.0055C23.1652 53.4935 22.6772 53.7864 22.1891 53.5911L19.651 52.2245L17.113 53.5911C16.7226 53.7864 16.1369 53.4935 16.2345 52.9078L16.7226 50.1746L14.7702 48.2223C14.6661 48.1507 14.5913 48.0563 14.5457 47.9392C14.5002 47.822 14.4937 47.7016 14.5262 47.578C14.5587 47.4544 14.6238 47.3535 14.7214 47.2754C14.8255 47.1973 14.9394 47.155 15.0631 47.1485L17.8939 46.6604L19.163 44.1224C19.3582 43.7319 20.0415 43.7319 20.2368 44.1224ZM46.886 44.22L48.4478 47.3437L51.8644 47.9294C52.5477 47.9294 52.8405 48.7103 52.3525 49.1984L49.8144 51.6388L50.4001 55.0554C50.4327 55.1986 50.4229 55.3385 50.3709 55.4751C50.3253 55.6118 50.244 55.7257 50.1268 55.8168C50.0162 55.9144 49.8893 55.973 49.7461 55.9925C49.6029 56.012 49.463 55.9925 49.3264 55.9339L46.105 54.2745L42.9813 55.9339C42.8512 55.9665 42.721 55.9697 42.5909 55.9437C42.4672 55.9112 42.3533 55.8493 42.2492 55.7582C42.1516 55.6736 42.0833 55.5662 42.0442 55.4361C41.9986 55.3124 41.9856 55.1855 42.0051 55.0554L42.4932 51.6388L39.9552 49.1984C39.8641 49.0878 39.8088 48.9641 39.7893 48.8275C39.7632 48.6908 39.7762 48.5542 39.8283 48.4175C39.8804 48.2873 39.9617 48.18 40.0723 48.0954C40.183 48.0043 40.3066 47.9489 40.4433 47.9294L43.8598 47.3437L45.4217 44.22C45.4803 44.0703 45.5747 43.9467 45.7048 43.8491C45.8415 43.758 45.9911 43.7124 46.1538 43.7124C46.3165 43.7124 46.4662 43.758 46.6029 43.8491C46.733 43.9467 46.8274 44.0703 46.886 44.22ZM33.2197 44.1224L34.3911 46.6604L37.3196 47.1485C37.71 47.1485 37.9053 47.8318 37.6124 48.1246L35.5625 50.077L36.0506 53.0055C36.0506 53.4935 35.5625 53.7864 35.0744 53.5911L32.5364 52.2245L30.096 53.5911C29.6079 53.7864 29.1198 53.4935 29.1198 52.9078L29.6079 50.1746L27.6556 48.2223C27.5514 48.1507 27.4766 48.0563 27.4311 47.9392C27.3855 47.822 27.379 47.7016 27.4115 47.578C27.4441 47.4544 27.5091 47.3535 27.6068 47.2754C27.7109 47.1973 27.8248 47.155 27.9484 47.1485L30.7793 46.6604L32.0483 44.1224C32.2435 43.7319 32.9268 43.7319 33.1221 44.1224H33.2197ZM60.357 44.1224L61.626 46.6604L64.5545 47.1485C65.0426 47.1485 65.2378 47.8318 64.8473 48.1246L62.7974 50.077L63.2855 53.0055C63.2855 53.4935 62.7974 53.7864 62.3093 53.5911L59.8689 52.2245L57.3309 53.5911C56.8428 53.7864 56.3547 53.4935 56.3547 52.9078L56.9404 50.1746L54.8905 48.2223C54.7864 48.1507 54.7115 48.0563 54.666 47.9392C54.6204 47.822 54.6139 47.7016 54.6465 47.578C54.679 47.4544 54.7441 47.3535 54.8417 47.2754C54.9458 47.1973 55.0597 47.155 55.1833 47.1485L58.1118 46.6604L59.2832 44.1224C59.4785 43.7319 60.2594 43.7319 60.357 44.1224ZM71.9733 44.1224L73.2423 46.6604L76.0732 47.1485C76.5613 47.1485 76.7565 47.8318 76.3661 48.1246L74.4137 50.077L74.8042 53.0055C74.9018 53.4935 74.4137 53.7864 73.9256 53.5911L71.3876 52.2245L68.8496 53.5911C68.4591 53.7864 67.8734 53.4935 67.9711 52.9078L68.4591 50.1746L66.5068 48.2223C66.4027 48.1507 66.3278 48.0563 66.2823 47.9392C66.2367 47.822 66.2302 47.7016 66.2628 47.578C66.2953 47.4544 66.3604 47.3535 66.458 47.2754C66.5621 47.1973 66.676 47.155 66.7996 47.1485L69.6305 46.6604L70.8995 44.1224C71.0948 43.7319 71.7781 43.7319 71.8757 44.1224H71.9733Z" fill="#F7941D"/>
<path d="M86.4221 24.99C86.37 25.0095 86.3212 25.0323 86.2756 25.0583C86.2301 25.0843 86.1878 25.1136 86.1487 25.1462C86.1032 25.1787 86.0641 25.2145 86.0316 25.2535C85.9926 25.2926 85.96 25.3349 85.934 25.3804V25.8685C85.934 26.1614 85.934 26.3566 86.1292 26.5518C86.3245 26.7471 86.5197 26.8447 86.9101 26.8447C87.0338 26.8447 87.1542 26.8317 87.2713 26.8056C87.3885 26.7796 87.5023 26.7406 87.613 26.6885C87.7171 26.6429 87.818 26.5811 87.9156 26.503C88.0132 26.4314 88.101 26.3501 88.1791 26.259L88.5696 25.6733L88.6672 24.8924V24.5995H87.3006L86.4221 24.99ZM31.757 21.2806C31.6919 21.2741 31.6268 21.2708 31.5618 21.2708C31.4967 21.2773 31.4284 21.2838 31.3568 21.2903C31.2917 21.2968 31.2299 21.3066 31.1713 21.3196C31.1062 21.3391 31.0412 21.3587 30.9761 21.3782C30.8524 21.4433 30.7386 21.5213 30.6344 21.6125C30.5303 21.6971 30.4359 21.7947 30.3513 21.9053C30.2667 22.0159 30.1951 22.1331 30.1366 22.2567C30.078 22.3804 30.0325 22.5105 29.9999 22.6472C29.8047 22.94 29.8047 23.3305 29.8047 23.8186C29.8047 24.7947 29.9023 25.4781 30.1951 25.8685C30.488 26.3566 30.9761 26.5518 31.6594 26.5518C32.2451 26.5518 32.6355 26.259 33.026 25.8685C33.4165 25.3804 33.6117 24.6971 33.6117 23.9162C33.6117 22.94 33.4165 22.3543 33.1236 21.9639C32.8308 21.4758 32.3427 21.2806 31.757 21.2806ZM59.9681 20.7925C59.5776 20.7925 59.1872 20.9877 58.7967 21.3782C58.5039 21.671 58.4062 22.0615 58.3086 22.6472H61.4323C61.4323 22.0615 61.3347 21.671 61.0419 21.2806C60.8466 20.9877 60.4562 20.7925 60.0657 20.7925H59.9681Z" fill="#03ACEF"/>
</svg>
