<svg width="36" height="36" viewBox="0 0 36 36" fill="none" xmlns="http://www.w3.org/2000/svg">
<rect width="36" height="36" fill="#F6F8FA"/>
<path d="M18 8C23.52 8 28 12.48 28 18C28 23.52 23.52 28 18 28C12.48 28 8 23.52 8 18C8 12.48 12.48 8 18 8ZM21.2217 21.083C19.0453 19.9677 16.5449 19.7079 14.1875 20.335C13.7873 20.4415 13.5488 20.8527 13.6553 21.2529C13.7618 21.6529 14.1722 21.8913 14.5723 21.7852C16.5746 21.2524 18.6947 21.4724 20.5381 22.417C20.9067 22.6059 21.358 22.4604 21.5469 22.0918C21.7358 21.7232 21.5903 21.2719 21.2217 21.083ZM16.75 16.5C15.4479 16.5 14.187 16.7137 13.0107 17.1094C12.6183 17.2415 12.4071 17.6671 12.5391 18.0596C12.6713 18.4519 13.0968 18.6632 13.4893 18.5312C14.513 18.1869 15.6122 18 16.75 18C18.6324 18 20.4023 18.5129 21.9219 19.3984C22.2797 19.607 22.7396 19.4857 22.9482 19.1279C23.1568 18.7701 23.0356 18.3101 22.6777 18.1016C20.9374 17.0873 18.9074 16.5 16.75 16.5ZM17.25 13C15.5491 13 13.9287 13.3407 12.4551 13.9707C12.0744 14.1336 11.8978 14.5743 12.0605 14.9551C12.2235 15.3357 12.6642 15.5124 13.0449 15.3496C14.3313 14.7997 15.7509 14.5 17.25 14.5C19.5044 14.5 21.5984 15.192 23.3281 16.3701C23.6704 16.603 24.137 16.5141 24.3701 16.1719C24.603 15.8296 24.5141 15.363 24.1719 15.1299C22.2017 13.7881 19.8155 13 17.25 13Z" fill="#34373C" fill-opacity="0.2"/>
</svg>
