<svg width="36" height="36" viewBox="0 0 36 36" fill="none" xmlns="http://www.w3.org/2000/svg">
<rect width="36" height="36" fill="#F6F8FA"/>
<path d="M10.4505 17.1058C10.5405 17.7226 10.5473 18.3558 10.4438 18.9727C10.3439 19.5926 9.74687 19.9927 9.12356 19.9429C8.54013 19.8928 8.07357 19.4361 8.01669 18.8295C7.9901 18.5596 8.0133 18.286 8.0133 18.016C8.0099 18.016 8.0099 18.016 8.00651 18.016C8.00651 17.7693 7.98981 17.526 8.0099 17.2827C8.05998 16.6093 8.51325 16.156 9.14676 16.1158C9.78054 16.0756 10.3541 16.4757 10.4505 17.1058Z" fill="#34373C" fill-opacity="0.2"/>
<path d="M14.7785 22.093H14.7751C14.7751 22.3629 14.7983 22.6396 14.7683 22.9064C14.7049 23.4964 14.2084 23.9598 13.625 24C13.0316 24.0399 12.3981 23.5866 12.3381 22.9766C12.2748 22.3864 12.2781 21.7798 12.3313 21.1864C12.3879 20.5696 12.9914 20.1096 13.595 20.1331C14.2084 20.1563 14.7185 20.6398 14.7751 21.2764C14.7986 21.5463 14.7785 21.8197 14.7785 22.093Z" fill="#34373C" fill-opacity="0.2"/>
<path d="M14.7843 13.7321C14.7877 14.3056 14.7843 14.8755 14.7843 15.4456C14.7843 16.1824 14.7911 16.9158 14.7843 17.6525C14.7778 18.1992 14.5011 18.586 14.0043 18.7928C13.2876 19.0896 12.4642 18.6193 12.3242 17.8495C12.2976 17.6927 12.301 17.5261 12.301 17.3628V13.5258C12.301 13.3626 12.2976 13.199 12.321 13.0392C12.4144 12.4224 12.9644 11.9524 13.5711 11.9623C14.1777 11.9688 14.7045 12.4524 14.7744 13.0791C14.7979 13.2953 14.7843 13.5154 14.7843 13.7321Z" fill="#34373C" fill-opacity="0.2"/>
<path d="M16.7272 21.2428C16.7238 19.0692 16.7238 16.8957 16.7272 14.7221C16.7272 14.532 16.7172 14.3387 16.7472 14.152C16.8471 13.5386 17.4107 13.072 18.014 13.0986C18.6107 13.1252 19.1808 13.6119 19.2006 14.2287C19.204 14.4188 19.2074 14.6087 19.2074 14.7988V21.4029C19.2074 21.7029 19.2074 21.9997 19.0309 22.2665C18.7541 22.6931 18.2341 22.9365 17.774 22.8431C17.2441 22.7364 16.8307 22.3363 16.7472 21.8129C16.7172 21.6262 16.7272 21.4329 16.7272 21.2428Z" fill="#34373C" fill-opacity="0.2"/>
<path d="M19.2043 26.0832C19.2043 26.3266 19.221 26.5733 19.2009 26.8166C19.1475 27.4634 18.6642 27.9266 18.0375 27.9569C17.4241 27.9835 16.8206 27.55 16.7575 26.9369C16.6975 26.3467 16.6975 25.74 16.7609 25.1501C16.8307 24.5166 17.3975 24.11 18.0378 24.1366C18.6778 24.1598 19.1446 24.6035 19.1978 25.2701C19.221 25.54 19.2012 25.8102 19.2012 26.0835C19.2012 26.0835 19.2009 26.0832 19.2043 26.0832Z" fill="#34373C" fill-opacity="0.2"/>
<path d="M16.7645 10.835C16.6745 10.2182 16.6677 9.58162 16.7713 8.9682C16.8746 8.35139 17.4747 7.9513 18.0949 8.00478C18.6783 8.05825 19.1449 8.51832 19.1983 9.12155C19.2215 9.39148 19.2017 9.66508 19.2017 9.93501C19.2017 9.93501 19.2017 9.93501 19.2051 9.93501C19.2051 10.1817 19.2184 10.4251 19.2017 10.6684C19.1483 11.3418 18.6984 11.7919 18.0615 11.8251C17.4212 11.8618 16.8545 11.4618 16.7645 10.835Z" fill="#34373C" fill-opacity="0.2"/>
<path d="M21.1875 14.8489C21.0976 14.229 21.0877 13.5955 21.1943 12.9786C21.3044 12.3587 21.9178 11.9451 22.521 12.0053C23.1144 12.0653 23.5645 12.5121 23.6211 13.1289C23.6477 13.3957 23.6245 13.6721 23.6245 13.9423C23.6279 13.9423 23.6279 13.9423 23.6313 13.9423V14.6757C23.6313 15.2925 23.0847 15.8058 22.4879 15.8491C21.8776 15.8924 21.2775 15.4688 21.1875 14.8489Z" fill="#34373C" fill-opacity="0.2"/>
<path d="M23.6185 18.1958C23.6386 18.359 23.6386 18.5226 23.6386 18.6858V22.4396C23.6386 22.5729 23.6321 22.7095 23.6321 22.8462C23.6253 23.5397 22.9819 24.0264 22.4053 24.023C21.7952 24.0196 21.265 23.5697 21.1685 22.9396C21.1453 22.7794 21.1518 22.6128 21.1518 22.4495C21.1484 21.8262 21.1484 21.1995 21.1518 20.5728C21.1518 19.8926 21.1518 19.2127 21.1484 18.5359C21.1484 18.2858 21.175 18.0492 21.2851 17.8226C21.5417 17.3059 22.0553 17.0459 22.6387 17.1424C23.1618 17.229 23.552 17.6424 23.6185 18.1958Z" fill="#34373C" fill-opacity="0.2"/>
<path d="M27.9292 17.0592C28.0024 17.706 28.0491 18.3593 27.9125 18.9993C27.7758 19.6359 27.2091 20.0026 26.579 19.9361C26.0023 19.8761 25.5556 19.4127 25.5021 18.7958C25.482 18.5259 25.4987 18.2523 25.4987 17.9824C25.4987 17.7357 25.482 17.4923 25.5021 17.249C25.5556 16.6322 25.9387 16.2188 26.5023 16.1388C27.1423 16.0522 27.6358 16.3289 27.8723 16.9055C27.8924 16.9556 27.9258 17.0057 27.9292 17.0592Z" fill="#34373C" fill-opacity="0.2"/>
<path d="M19.2074 14.7988V21.4029C19.2074 21.7029 19.2074 21.9997 19.0309 22.2665C18.7541 22.6931 18.2341 22.9365 17.774 22.8431C17.2441 22.7364 16.8307 22.3363 16.7472 21.8129C16.7172 21.6262 16.7272 21.4329 16.7272 21.2428C16.7238 19.0692 16.7238 16.8957 16.7272 14.7221C16.7272 14.532 16.7172 14.3387 16.7472 14.152C16.8471 13.5386 17.4107 13.072 18.014 13.0986C18.6107 13.1252 19.1808 13.6119 19.2006 14.2287C19.2043 14.4188 19.2074 14.609 19.2074 14.7988Z" fill="#34373C" fill-opacity="0.2"/>
<path d="M14.7843 15.4456C14.7843 16.1824 14.7911 16.9158 14.7843 17.6525C14.7778 18.1992 14.5011 18.586 14.0043 18.7928C13.2876 19.0896 12.4642 18.6193 12.3242 17.8495C12.2976 17.6927 12.301 17.5261 12.301 17.3628V13.5258C12.301 13.3626 12.2976 13.199 12.321 13.0392C12.4144 12.4224 12.9644 11.9524 13.5711 11.9623C14.1777 11.9688 14.7045 12.4524 14.7744 13.0791C14.7976 13.2958 14.7843 13.5157 14.7843 13.7324C14.7877 14.3053 14.7843 14.8755 14.7843 15.4456Z" fill="#34373C" fill-opacity="0.2"/>
<path d="M23.6386 18.6858V22.4396C23.6386 22.5729 23.6321 22.7095 23.6321 22.8462C23.6253 23.5397 22.9819 24.0264 22.4053 24.023C21.7952 24.0196 21.265 23.5697 21.1685 22.9396C21.1453 22.7794 21.1518 22.6128 21.1518 22.4495C21.1484 21.8262 21.1484 21.1995 21.1518 20.5728C21.1518 19.8926 21.1518 19.2127 21.1484 18.5359C21.1484 18.2858 21.175 18.0492 21.2851 17.8226C21.5417 17.3059 22.0553 17.0459 22.6387 17.1424C23.1621 17.229 23.552 17.6424 23.6188 18.1958C23.6386 18.3593 23.6386 18.5226 23.6386 18.6858Z" fill="#34373C" fill-opacity="0.2"/>
<path d="M14.7751 22.093C14.7751 22.3629 14.7983 22.6396 14.7683 22.9064C14.7049 23.4964 14.2084 23.9598 13.625 24C13.0316 24.0399 12.3981 23.5866 12.3381 22.9766C12.2748 22.3864 12.2781 21.7798 12.3313 21.1864C12.3879 20.5696 12.9914 20.1096 13.595 20.1331C14.2084 20.1563 14.7185 20.6398 14.7751 21.2764C14.7983 21.5463 14.7785 21.8197 14.7785 22.0933H14.7751V22.093Z" fill="#34373C" fill-opacity="0.2"/>
<path d="M23.6262 13.942C23.6296 13.942 23.6296 13.942 23.633 13.942V14.6754C23.633 15.2922 23.0863 15.8054 22.4896 15.8487C21.8796 15.892 21.2795 15.4687 21.1895 14.8485C21.0995 14.2286 21.0896 13.5951 21.1963 12.9783C21.3063 12.3584 21.9198 11.9447 22.523 12.005C23.1163 12.0649 23.5665 12.5117 23.6231 13.1285C23.6494 13.3953 23.6262 13.6721 23.6262 13.942Z" fill="#34373C" fill-opacity="0.2"/>
<path d="M19.2015 10.6684C19.148 11.3418 18.6981 11.7919 18.0612 11.8251C17.4212 11.8618 16.8545 11.4618 16.7645 10.835C16.6745 10.2182 16.6677 9.58162 16.7713 8.9682C16.8746 8.35139 17.4747 7.9513 18.0949 8.00478C18.6783 8.05825 19.1449 8.51832 19.1983 9.12155C19.2215 9.39148 19.2017 9.66508 19.2017 9.93501C19.2017 9.93501 19.2017 9.93501 19.2051 9.93501C19.2049 10.1817 19.2182 10.4251 19.2015 10.6684Z" fill="#34373C" fill-opacity="0.2"/>
<path d="M10.4438 18.9727C10.3439 19.5927 9.74688 19.9927 9.12356 19.943C8.54013 19.8929 8.07356 19.4362 8.01669 18.8296C7.9901 18.5597 8.0133 18.2861 8.0133 18.0161C8.0099 18.0161 8.0099 18.0161 8.00651 18.0161C8.00651 17.7694 7.98981 17.5261 8.0099 17.2827C8.05998 16.6093 8.51326 16.1561 9.14676 16.1159C9.78026 16.076 10.3535 16.4758 10.4503 17.1059C10.5405 17.7224 10.547 18.3559 10.4438 18.9727Z" fill="#34373C" fill-opacity="0.2"/>
<path d="M27.9125 18.9993C27.7758 19.6359 27.2091 20.0026 26.579 19.9361C26.0023 19.8761 25.5556 19.4127 25.5021 18.7958C25.482 18.5259 25.4987 18.2523 25.4987 17.9824C25.4987 17.7357 25.482 17.4923 25.5021 17.249C25.5556 16.6322 25.9387 16.2188 26.5023 16.1388C27.1423 16.0522 27.6358 16.3289 27.8723 16.9055C27.8924 16.9556 27.9258 17.0054 27.9289 17.0589C28.0024 17.7057 28.0491 18.3593 27.9125 18.9993Z" fill="#34373C" fill-opacity="0.2"/>
<path d="M19.2009 26.8166C19.1475 27.4634 18.6642 27.9266 18.0375 27.9569C17.4241 27.9835 16.8206 27.55 16.7575 26.9369C16.6975 26.3467 16.6975 25.74 16.7609 25.1501C16.8307 24.5166 17.3975 24.11 18.0378 24.1366C18.6778 24.1598 19.1446 24.6035 19.1978 25.2701C19.221 25.54 19.2012 25.8102 19.2012 26.0835C19.2012 26.0835 19.2012 26.0835 19.2046 26.0835C19.2043 26.3266 19.221 26.5733 19.2009 26.8166Z" fill="#34373C" fill-opacity="0.2"/>
</svg>
