<svg width="36" height="36" viewBox="0 0 36 36" fill="none" xmlns="http://www.w3.org/2000/svg">
<rect width="36" height="36" fill="#F6F8FA"/>
<path d="M15.5605 21.5842C15.5605 20.3977 16.5362 19.6067 17.9996 19.6067C19.463 19.6067 20.4386 20.3977 20.4386 21.5842C20.4386 24.0561 19.9508 28.9999 17.9996 28.9999C16.0484 28.9999 15.5605 24.0561 15.5605 21.5842Z" fill="#34373C" fill-opacity="0.2"/>
<path fill-rule="evenodd" clip-rule="evenodd" d="M9.46341 17.1348C9.46385 15.5873 9.87386 14.0681 10.6507 12.7358C11.4276 11.4034 12.5428 10.3067 13.8802 9.55981C15.2176 8.81294 16.7282 8.44331 18.2545 8.48945C19.7808 8.53559 21.267 8.99581 22.5581 9.82214C23.8492 10.6485 24.898 11.8106 25.5951 13.1875C26.2922 14.5644 26.6121 16.1056 26.5216 17.6505C26.431 19.1953 25.9332 20.6873 25.0801 21.9708C24.227 23.2544 23.0498 24.2825 21.6712 24.948C21.5908 25.5333 21.4818 26.1141 21.3444 26.6883C25.2224 25.2941 28 21.5437 28 17.1348C28 11.5384 23.522 7 18 7C12.478 7 8 11.5384 8 17.1348C8 21.5437 10.7776 25.2951 14.6556 26.6893L14.6263 26.5657C14.5026 26.0314 14.4033 25.4916 14.3288 24.948C12.8721 24.2448 11.642 23.1376 10.7809 21.7548C9.91976 20.3719 9.46296 18.77 9.46341 17.1348Z" fill="#34373C" fill-opacity="0.2"/>
<path fill-rule="evenodd" clip-rule="evenodd" d="M12.8775 17.1349C12.8775 16.2907 13.0807 15.4593 13.4694 14.7127C13.8581 13.966 14.4207 13.3268 15.1082 12.8502C15.7958 12.3737 16.5876 12.0743 17.4152 11.978C18.2427 11.8817 19.0809 11.9914 19.8571 12.2976C20.6333 12.6038 21.3242 13.0972 21.8698 13.7351C22.4153 14.373 22.7992 15.1361 22.988 15.9583C23.1769 16.7805 23.165 17.637 22.9535 18.4535C22.7419 19.27 22.3371 20.0219 21.7741 20.644C21.8586 20.9426 21.9012 21.2561 21.9019 21.5843C21.9019 21.8691 21.896 22.1865 21.8824 22.5266C23.0045 21.6963 23.8389 20.5276 24.266 19.1876C24.693 17.8477 24.691 16.4051 24.2602 15.0664C23.8293 13.7277 22.9917 12.5614 21.8672 11.7343C20.7426 10.9073 19.3888 10.4619 17.9994 10.4619C16.61 10.4619 15.2562 10.9073 14.1317 11.7343C13.0072 12.5614 12.1696 13.7277 11.7387 15.0664C11.3078 16.4051 11.3058 17.8477 11.7329 19.1876C12.16 20.5276 12.9943 21.6963 14.1165 22.5266C14.1028 22.1865 14.097 21.8691 14.097 21.5843C14.0976 21.2561 14.1402 20.9426 14.2248 20.644C13.3565 19.6875 12.8755 18.4346 12.8775 17.1349Z" fill="#34373C" fill-opacity="0.2"/>
<path d="M15.8047 16.3932C15.8047 16.9832 16.036 17.5491 16.4476 17.9663C16.8593 18.3835 17.4176 18.6179 17.9998 18.6179C18.582 18.6179 19.1403 18.3835 19.552 17.9663C19.9637 17.5491 20.1949 16.9832 20.1949 16.3932C20.1949 15.8031 19.9637 15.2373 19.552 14.8201C19.1403 14.4028 18.582 14.1685 17.9998 14.1685C17.4176 14.1685 16.8593 14.4028 16.4476 14.8201C16.036 15.2373 15.8047 15.8031 15.8047 16.3932Z" fill="#34373C" fill-opacity="0.2"/>
</svg>
