<svg width="180" height="39" viewBox="0 0 180 39" fill="none" xmlns="http://www.w3.org/2000/svg">
<g clip-path="url(#clip0_474_7549)">
<path d="M124.978 25.3847C124.668 25.3552 124.381 25.2373 124.115 25.0162C123.85 24.795 123.717 24.5223 123.717 24.1907V18.8395H127.322V15.8913H123.717V12.1838L120.341 13.1494V15.8913H118.219V18.8395H120.341V24.2127C120.341 27.8631 122.905 28.6499 124.993 28.6499C125.759 28.6499 126.592 28.5246 127.491 28.274V25.0861C126.729 25.34 126.069 25.4142 125.531 25.4142C125.472 25.4142 125.287 25.4068 124.978 25.3847Z" fill="#001A43"/>
<path d="M48.9402 19.9672C49.5372 19.5766 50.0162 19.0532 50.3701 18.3972C50.7238 17.7487 50.9007 17.0411 50.9007 16.2893C50.9007 15.0289 50.429 13.9822 49.4856 13.142C48.542 12.3017 47.289 11.8816 45.7338 11.8816H38.0684V28.3921H46.3235C47.9378 28.3921 49.2276 27.972 50.1784 27.1244C51.1293 26.2841 51.6083 25.23 51.6083 23.9549C51.6083 23.1221 51.3873 22.3481 50.945 21.6331C50.5028 20.9181 49.8321 20.3578 48.9402 19.9672ZM41.4882 15.0656H45.6159C46.1761 15.0656 46.6403 15.2426 46.9942 15.6036C47.3479 15.9647 47.5248 16.3998 47.5248 16.9009C47.5248 17.4094 47.3479 17.8371 46.9942 18.1982C46.6405 18.5592 46.1761 18.7436 45.6159 18.7436H41.4882V15.0656ZM47.466 24.6845C47.1121 25.0308 46.6551 25.2077 46.0875 25.2077H41.4882V21.596H46.0875C46.6551 21.596 47.1121 21.773 47.466 22.1267C47.8197 22.4805 47.9966 22.908 47.9966 23.4092C47.9966 23.9177 47.8197 24.3378 47.466 24.6843V24.6845Z" fill="#001A43"/>
<path d="M62.1867 22.3479C62.1867 23.2177 61.9286 23.94 61.4201 24.5297C60.9042 25.1194 60.2334 25.4142 59.4005 25.4142C58.7077 25.4142 58.1254 25.171 57.6462 24.6845C57.1671 24.1979 56.9239 23.5642 56.9239 22.7754V15.8911H53.5039V23.6452C53.5039 25.1415 54.0124 26.3428 55.037 27.2421C56.0615 28.1488 57.2778 28.5984 58.6929 28.5984C60.0786 28.5984 61.2432 28.1488 62.1867 27.2349V28.3921H65.6067V15.8913H62.1867V22.3479Z" fill="#001A43"/>
<path d="M71.5763 15.8911H68.1562V28.3919H71.5763V15.8911Z" fill="#001A43"/>
<path d="M69.9035 10.8421C69.3212 10.8421 68.8201 11.0338 68.4146 11.4318C68.0092 11.8224 67.8027 12.3015 67.8027 12.8691C67.8027 13.4366 68.0092 13.9084 68.4146 14.299C68.8199 14.6822 69.3212 14.8739 69.9035 14.8739C70.4858 14.8739 70.9796 14.6748 71.3851 14.2842C71.7978 13.9084 71.9969 13.4366 71.9969 12.8691C71.9969 12.3015 71.798 11.8224 71.3851 11.4318C70.9797 11.0338 70.4858 10.8421 69.9035 10.8421Z" fill="#001A43"/>
<path d="M77.4964 11.8815H74.0762V28.392H77.4964V11.8815Z" fill="#001A43"/>
<path d="M88.7725 16.9526C87.8144 16.0976 86.6645 15.6774 85.3304 15.6774C83.6278 15.6774 82.1757 16.2966 80.967 17.5422C79.7507 18.7952 79.1465 20.3283 79.1465 22.1416C79.1465 23.8811 79.7583 25.392 80.9744 26.6672C82.1905 27.9423 83.6425 28.5762 85.3304 28.5762C86.6793 28.5762 87.8291 28.1709 88.7725 27.3528V28.3921H92.1925V11.8816H88.7725V16.9526ZM88.0133 24.4854C87.3572 25.1561 86.5686 25.4878 85.6546 25.4878C84.711 25.4878 83.9224 25.1562 83.2885 24.5001C82.6473 23.8368 82.3303 23.0481 82.3303 22.1414C82.3303 21.2274 82.6473 20.4388 83.2885 19.7681C83.9224 19.0974 84.711 18.7657 85.6546 18.7657C86.5686 18.7657 87.3572 19.1048 88.0133 19.7829C88.6766 20.4536 89.0081 21.2423 89.0081 22.1416C89.0081 23.0335 88.6766 23.8147 88.0133 24.4856V24.4854Z" fill="#001A43"/>
<path d="M104.613 17.1369C103.426 16.164 102.078 15.6774 100.552 15.6774C98.7902 15.6774 97.2793 16.2966 96.0263 17.5422C94.7512 18.7952 94.1172 20.3283 94.1172 22.1416C94.1172 23.9033 94.7364 25.4142 95.9894 26.6819C97.2425 27.9423 98.7608 28.5762 100.552 28.5762C101.746 28.5762 102.911 28.2814 104.046 27.6917C105.173 27.102 105.984 26.3207 106.471 25.3478L103.5 24.5001C102.734 25.2077 101.746 25.5616 100.552 25.5616C99.8003 25.5616 99.1442 25.3773 98.5988 25.0014C98.046 24.633 97.6774 24.1022 97.4859 23.4093H106.876C106.965 23.0187 107.016 22.6132 107.016 22.1857C107.016 21.7434 106.957 21.2864 106.854 20.8148C106.537 19.3406 105.785 18.1098 104.613 17.1369ZM97.4857 20.8148C97.6774 20.2178 98.0385 19.7166 98.5839 19.3113C99.1219 18.8985 99.7706 18.6921 100.53 18.6921C101.282 18.6921 101.93 18.8984 102.461 19.3113C102.999 19.7166 103.36 20.2179 103.544 20.8148H97.4857Z" fill="#001A43"/>
<path d="M148.83 17.1369C147.651 16.164 146.302 15.6774 144.776 15.6774C143.014 15.6774 141.503 16.2966 140.243 17.5422C138.975 18.7952 138.334 20.3283 138.334 22.1416C138.334 23.9033 138.961 25.4142 140.206 26.6819C141.459 27.9423 142.978 28.5762 144.776 28.5762C145.97 28.5762 147.135 28.2814 148.262 27.6917C149.398 27.102 150.208 26.3207 150.695 25.3478L147.724 24.5001C146.95 25.2077 145.97 25.5616 144.776 25.5616C144.017 25.5616 143.368 25.3773 142.816 25.0014C142.263 24.633 141.894 24.1022 141.71 23.4093H151.093C151.189 23.0187 151.233 22.6132 151.233 22.1857C151.233 21.7434 151.181 21.2864 151.071 20.8148C150.754 19.3406 150.01 18.1098 148.83 17.1369H148.83ZM141.71 20.8148C141.894 20.2178 142.262 19.7166 142.8 19.3113C143.346 18.8985 143.995 18.6921 144.754 18.6921C145.506 18.6921 146.147 18.8984 146.685 19.3113C147.216 19.7166 147.577 20.2179 147.768 20.8148H141.71Z" fill="#001A43"/>
<path d="M163.666 17.0336C162.641 16.1269 161.425 15.6773 160.01 15.6773C158.624 15.6773 157.467 16.1343 156.524 17.041V15.8911H153.104V28.392H156.524V21.9278C156.524 21.058 156.774 20.3357 157.29 19.746C157.799 19.1563 158.469 18.8615 159.302 18.8615C159.995 18.8615 160.578 19.1047 161.064 19.5912C161.543 20.0778 161.779 20.7189 161.779 21.5003V28.392H165.199V20.6305C165.199 19.1342 164.69 17.9329 163.666 17.0336Z" fill="#001A43"/>
<path d="M176.58 11.8815V16.9526C175.621 16.0976 174.479 15.6775 173.138 15.6775C171.442 15.6775 169.983 16.2967 168.774 17.5423C167.565 18.7953 166.961 20.3283 166.961 22.1417C166.961 23.8812 167.565 25.3921 168.789 26.6672C170.005 27.9423 171.457 28.5763 173.138 28.5763C174.494 28.5763 175.636 28.1709 176.58 27.3528V28.3922H180V11.8816L176.58 11.8815ZM175.828 24.4854C175.165 25.1561 174.383 25.4879 173.469 25.4879C172.526 25.4879 171.737 25.1563 171.096 24.5002C170.462 23.8369 170.145 23.0481 170.145 22.1415C170.145 21.2274 170.462 20.4388 171.096 19.7682C171.737 19.0975 172.526 18.7657 173.469 18.7657C174.383 18.7657 175.165 19.1049 175.828 19.7829C176.491 20.4536 176.816 21.2424 176.816 22.1417C176.816 23.0336 176.491 23.8148 175.828 24.4856V24.4854Z" fill="#001A43"/>
<path d="M115.721 15.7441C114.196 15.7437 113.053 16.3555 112.301 17.5633L112.302 15.8917L108.882 15.8908L108.879 28.3912L112.298 28.3921V22.1269C112.299 19.946 114.195 18.8399 115.72 18.8404C116.068 18.8404 116.428 18.8786 116.803 18.9367L116.804 15.8406C116.429 15.7824 116.069 15.7444 115.721 15.7443L115.721 15.7441Z" fill="#001A43"/>
<path d="M136.383 15.7441C134.858 15.7437 133.715 16.3555 132.963 17.5633L132.964 15.8917L129.544 15.8908L129.541 28.3912L132.96 28.3921V22.1269C132.961 19.946 134.857 18.8399 136.382 18.8404C136.73 18.8404 137.091 18.8786 137.466 18.9367L137.466 15.8406C137.091 15.7824 136.731 15.7444 136.383 15.7443L136.383 15.7441Z" fill="#001A43"/>
<path d="M12.94 7.31681H6.33942V0.0561523H0V20.1168V20.1173C0.00036 27.1863 5.73102 32.917 12.8 32.917C19.8689 32.917 25.6 27.1861 25.6 20.1168C25.6 13.0945 19.9444 7.39205 12.9398 7.31663L12.94 7.31681ZM12.8002 26.5581C9.24264 26.5581 6.35886 23.6741 6.35886 20.1168C6.35886 16.5595 9.24264 13.6755 12.8002 13.6755C16.3577 13.6755 19.2415 16.5593 19.2415 20.1168C19.2415 23.6743 16.3575 26.5581 12.8002 26.5581Z" fill="#001A43"/>
<path d="M21.9316 3.84442L20.6442 6.07426C25.571 8.82808 28.9028 14.0943 28.9028 20.1396C28.9028 29.0333 21.6931 36.243 12.7995 36.243C9.78035 36.243 6.95597 35.4114 4.54109 33.966L3.25391 36.1953C6.04931 37.8635 9.31415 38.8238 12.7995 38.8238C23.102 38.8238 31.4837 30.4421 31.4837 20.1396C31.4837 13.152 27.6273 7.04914 21.9316 3.84442Z" fill="#00D8D8"/>
</g>
<defs>
<clipPath id="clip0_474_7549">
<rect width="180" height="38.88" fill="white"/>
</clipPath>
</defs>
</svg>
