<svg width="215" height="52" viewBox="0 0 215 52" fill="none" xmlns="http://www.w3.org/2000/svg">
<g clip-path="url(#clip0_444_10590)">
<mask id="mask0_444_10590" style="mask-type:luminance" maskUnits="userSpaceOnUse" x="0" y="2" width="93" height="50">
<path d="M0 2.68837H92.2609V51.333H0V2.68837Z" fill="white"/>
</mask>
<g mask="url(#mask0_444_10590)">
<path d="M17.6087 17.723C17.4352 17.559 17.1442 17.5646 16.9516 17.5685L16.8811 17.5694C16.5886 17.5694 16.3112 17.549 16.1279 17.3035C15.9063 17.0142 15.9097 16.1051 15.9106 15.7174L15.9111 15.629V5.54399C15.9111 5.46033 15.9078 5.35852 15.9048 5.2505C15.8915 4.8177 15.8701 4.09176 16.0625 3.8415C16.1822 3.67686 16.5014 3.68928 16.7583 3.69975L16.926 3.70401C17.5572 3.70401 17.6254 3.31066 17.6254 3.14127C17.6254 2.99184 17.5801 2.87627 17.4914 2.79785C17.3424 2.66559 17.1246 2.68362 16.9493 2.69835C16.8993 2.70262 16.8521 2.70651 16.8135 2.70651H14.3026C14.0429 2.70651 13.7194 2.70651 13.5451 3.13749L9.05211 14.3336L5.08999 3.55556C5.07048 3.49614 5.05328 3.43719 5.0362 3.38057C4.93753 3.04896 4.83556 2.70651 4.35341 2.70651H1.73712C1.6976 2.70651 1.65088 2.70262 1.60088 2.69835C1.4256 2.68362 1.20727 2.66559 1.05822 2.79785C0.969551 2.87627 0.924788 2.99184 0.924788 3.14127C0.924788 3.31066 0.99297 3.70401 1.62417 3.70401C2.13353 3.70401 2.45419 3.73117 2.58519 3.86671C2.7257 4.01224 2.7296 4.34105 2.68435 4.97942L1.98496 15.8226C1.91398 17.1203 1.83396 17.5694 0.74427 17.5694C0.0963575 17.5694 0 17.8657 0 18.0432C0 18.2482 0.090015 18.4923 0.518379 18.4923C0.848068 18.4923 1.18727 18.4713 1.51562 18.4514C1.84726 18.4309 2.18975 18.41 2.52664 18.41C2.85962 18.41 3.20126 18.4304 3.53144 18.4509C3.86637 18.4713 4.21326 18.4923 4.55625 18.4923C4.75201 18.4923 5.21038 18.4923 5.21038 18.0432C5.21038 17.9219 5.16708 17.8163 5.0856 17.7382C4.90643 17.566 4.59918 17.568 4.39573 17.5694H4.35329C3.90358 17.5694 3.58096 17.4632 3.36751 17.2454C2.94586 16.8134 2.95964 15.9677 3.02209 14.9073L3.65097 5.23431L7.96718 17.3301L7.97242 17.3501C8.02341 17.5503 8.11769 17.9238 8.45836 17.9238C8.74755 17.9238 8.8505 17.6341 8.91904 17.4428L8.94478 17.3724L13.8051 4.96554V15.629L13.8056 15.7617C13.8089 16.1884 13.8151 16.9823 13.5154 17.2578C13.3028 17.4528 12.8646 17.5694 12.5639 17.5694L12.4939 17.5685C12.3009 17.5646 12.0098 17.559 11.8364 17.723C11.7501 17.8039 11.7068 17.9119 11.7068 18.0432C11.7068 18.2482 11.8088 18.4923 12.2933 18.4923C12.7335 18.4923 13.1871 18.4713 13.6254 18.4514C14.0695 18.4309 14.5292 18.41 14.9824 18.41C15.3406 18.41 15.7065 18.4304 16.0601 18.4509C16.417 18.4713 16.7862 18.4923 17.1511 18.4923C17.6362 18.4923 17.7382 18.2482 17.7382 18.0432C17.7382 17.9119 17.6943 17.8039 17.6085 17.723M27.2239 10.2193C26.838 10.2193 26.5778 9.77452 26.2486 9.21177C25.7808 8.41204 25.1986 7.41685 24.1074 7.41685C23.287 7.41685 22.3637 7.92066 21.8124 8.4202C20.7714 9.3892 20.1491 10.8915 20.1491 12.4365C20.1491 14.8869 21.79 17.5323 24.4405 17.5323C25.4778 17.5323 26.384 17.1617 27.061 16.46L27.1049 16.4096C27.2459 16.2431 27.3754 16.1056 27.5331 16.1056C27.7123 16.1056 27.8577 16.2654 27.8577 16.462C27.8577 16.6027 27.7785 16.862 27.0949 17.4894C26.1139 18.3401 24.8841 18.7881 23.5367 18.7881C20.5712 18.7881 18.0665 16.1128 18.0665 12.946C18.0665 9.53473 20.9639 6.65341 24.3928 6.65341C25.2776 6.65341 26.6013 6.92596 27.415 7.52487C27.728 7.75747 27.7 8.1971 27.6775 8.5505C27.6723 8.62942 27.6675 8.70468 27.6675 8.7674C27.6675 8.7926 27.6708 8.84253 27.6742 8.89965C27.7033 9.364 27.7161 9.87815 27.4946 10.1052C27.4221 10.1803 27.3288 10.2193 27.2239 10.2193ZM45.9403 17.723C45.767 17.559 45.4759 17.5646 45.2834 17.5685L45.2129 17.5694C44.9203 17.5694 44.643 17.549 44.4596 17.3035C44.238 17.0142 44.2414 16.1051 44.2424 15.7174L44.2427 15.629V5.54399C44.2427 5.46033 44.2394 5.35852 44.2366 5.2505C44.2237 4.8177 44.2022 4.09176 44.3943 3.8415C44.5139 3.67686 44.8336 3.68928 45.0899 3.69975L45.2581 3.70401C45.889 3.70401 45.957 3.31066 45.957 3.14127C45.957 2.99184 45.9123 2.87627 45.8232 2.79785C45.6745 2.66559 45.4563 2.68362 45.2809 2.69835C45.2309 2.70262 45.1837 2.70651 45.1452 2.70651H42.6348C42.3746 2.70651 42.0516 2.70651 41.8767 3.13749L37.3833 14.3336L33.4221 3.55556C33.4021 3.49614 33.3849 3.43719 33.3677 3.38057C33.2697 3.04896 33.1677 2.70651 32.6851 2.70651H30.0684C30.0298 2.70651 29.9825 2.70262 29.9325 2.69835C29.7573 2.68362 29.5391 2.66559 29.3899 2.79785C29.3012 2.87627 29.2565 2.99184 29.2565 3.14127C29.2565 3.31066 29.3246 3.70401 29.956 3.70401C30.4652 3.70401 30.7859 3.73117 30.917 3.86671C31.058 4.01224 31.0613 4.34105 31.0165 4.97942L30.3171 15.8226C30.2461 17.1203 30.1655 17.5694 29.0759 17.5694C28.4284 17.5694 28.3317 17.8657 28.3317 18.0432C28.3317 18.2482 28.4218 18.4923 28.85 18.4923C29.1797 18.4923 29.5191 18.4713 29.8473 18.4514C30.1789 18.4309 30.5214 18.41 30.8578 18.41C31.1914 18.41 31.5329 18.4304 31.8631 18.4509C32.198 18.4713 32.5444 18.4923 32.888 18.4923C33.0838 18.4923 33.5422 18.4923 33.5422 18.0432C33.5422 17.9219 33.4992 17.8163 33.4174 17.7382C33.2382 17.566 32.9308 17.568 32.7274 17.5694H32.6851C32.2352 17.5694 31.9127 17.4632 31.6993 17.2454C31.2776 16.8134 31.2919 15.9677 31.3539 14.9073L31.9828 5.23431L36.299 17.3301L36.3042 17.3501C36.3552 17.5503 36.45 17.9238 36.7906 17.9238C37.0793 17.9238 37.1828 17.6341 37.2508 17.4428L37.2766 17.3724L42.1369 4.96554V15.629L42.1374 15.7622C42.1407 16.1884 42.1474 16.9823 41.8477 17.2578C41.6347 17.4528 41.1964 17.5694 40.8957 17.5694L40.8252 17.5685C40.6327 17.5646 40.3416 17.559 40.1681 17.723C40.0819 17.8039 40.0391 17.9119 40.0391 18.0432C40.0391 18.2482 40.1406 18.4923 40.625 18.4923C41.0659 18.4923 41.5185 18.4713 41.9572 18.4514C42.4013 18.4309 42.8615 18.41 43.3142 18.41C43.6725 18.41 44.0384 18.4304 44.3919 18.4509C44.7493 18.4713 45.118 18.4923 45.4834 18.4923C45.968 18.4923 46.07 18.2482 46.07 18.0432C46.07 17.9119 46.0262 17.8039 45.9403 17.723Z" fill="#46505C"/>
</g>
<path d="M52.2977 12.0091C53.0997 11.6068 53.0997 11.6068 53.0997 10.7177V9.59594C53.0997 8.26342 53.0068 7.45431 51.7231 7.45431C50.4854 7.45431 49.7288 8.04701 49.1122 9.50083L49.0612 9.61871C48.9155 9.95933 48.7645 10.3124 48.3728 10.4974C48.1297 10.6291 47.6118 10.8447 47.2903 10.8447C46.9777 10.8447 46.8262 10.6948 46.8262 10.386C46.8262 9.6673 47.3861 8.90191 47.8654 8.46569C49.0237 7.35104 50.705 6.65702 52.2502 6.65702C53.286 6.65702 54.0535 6.89826 54.5332 7.37394C55.0778 7.86008 55.0665 8.48226 55.056 9.08458L55.0526 9.34093V15.3571V15.4014C55.0526 15.811 55.0513 16.77 55.4109 17.1173C55.4982 17.202 55.602 17.2434 55.7277 17.2434C56.0313 17.2434 56.2405 17.0283 56.4077 16.8561C56.5377 16.7219 56.6497 16.6063 56.7984 16.6063C56.9779 16.6063 57.1233 16.7662 57.1233 16.9627C57.1233 17.2971 56.7331 17.6519 56.5239 17.8428L56.5025 17.8623C56.0118 18.2294 55.3767 18.6396 54.7053 18.6396C53.8415 18.6396 53.4961 17.8118 53.2674 17.2633C53.2012 17.1049 53.111 16.888 53.0601 16.8533L53.0897 16.8604L53.125 16.8547C53.0825 16.8733 52.9376 16.9984 52.8104 17.1087C52.1802 17.6549 50.8685 18.7913 49.2299 18.7913C48.0759 18.7913 46.8495 18.0345 46.8495 16.6311C46.8495 14.8001 48.9225 13.7222 50.2939 13.0096L50.4496 12.9287L52.2977 12.0091ZM50.7221 13.705C49.7926 14.2121 48.9327 14.8372 48.9327 15.9685C48.9327 16.966 49.7383 17.32 50.4287 17.32C51.1805 17.32 51.97 16.9574 52.5412 16.3505C53.0768 15.7568 53.0997 15.3667 53.0997 14.5408V13.0115C53.0997 12.9939 53.101 12.9701 53.103 12.9377C53.1245 12.5506 53.082 12.4611 53.0625 12.4401L53.0897 12.4506L53.0945 12.4501C53.074 12.4535 53.0148 12.482 52.9833 12.4972C52.9476 12.5149 52.9133 12.5315 52.88 12.5429L52.9024 12.5329L50.7221 13.705ZM57.9023 15.2263L57.9061 15.1897C57.9304 14.9752 57.9799 14.529 58.3683 14.529C58.7909 14.529 58.8881 15.0209 59.0004 15.5903C59.2039 16.6192 59.4827 18.0282 61.4957 18.0282C62.8302 18.0282 64.2496 17.2043 64.2496 15.6773C64.2496 14.2673 63.1204 13.746 62.0617 13.3682L61.8464 13.295C60.3523 12.7841 58.3053 12.0848 58.3053 10.0065C58.3053 9.04074 58.7642 8.17829 59.6308 7.51191C60.3984 6.93346 61.3518 6.65324 62.5458 6.65324C63.1666 6.65324 64.4554 6.82069 65.0629 7.08325C65.4841 7.29734 65.4526 7.76156 65.4279 8.13506C65.4216 8.22019 65.4159 8.30008 65.4159 8.37193C65.4159 8.3891 65.4202 8.43708 65.4244 8.48798C65.4631 8.9432 65.4864 9.44651 65.2759 9.6673C65.2434 9.702 65.204 9.72958 65.1603 9.74832C65.1166 9.76706 65.0695 9.77655 65.0219 9.77617C64.7231 9.77617 64.5998 9.47172 64.4431 9.0869C64.1504 8.36438 63.7498 7.37491 62.1165 7.37491C61.2831 7.37491 60.0782 7.9938 60.0782 9.11259C60.0782 10.378 61.2394 10.8023 62.5838 11.2932C64.1995 11.8831 66.0305 12.5519 66.0305 14.9109C66.0305 17.5878 63.2948 18.7918 61.3533 18.7918C60.539 18.7918 59.0953 18.4764 58.2425 18.0068C57.8199 17.8084 57.8242 17.436 57.8284 17.0754L57.8294 16.9551L57.9023 15.2263ZM73.2126 16.9636C73.2126 16.8072 73.0739 16.6316 72.8886 16.6316C72.7685 16.6316 72.6642 16.7215 72.4735 16.8838C72.172 17.1401 71.7169 17.5283 71.1753 17.5283C70.8846 17.5283 70.6545 17.4422 70.472 17.2657C69.9288 16.741 69.9293 15.535 69.9298 14.7374V14.6836V8.20302C69.9298 7.95239 69.9746 7.85862 70.0123 7.82392C70.0723 7.76875 70.2171 7.77545 70.401 7.78397C70.4846 7.78861 70.5684 7.79112 70.6521 7.79152H71.9843C72.081 7.79152 72.1673 7.7959 72.243 7.79968C72.455 7.81015 72.6222 7.81819 72.7442 7.70591C72.8638 7.59655 72.88 7.41668 72.88 7.23876C72.88 7.05085 72.88 6.73642 72.5079 6.73642L70.1647 6.7369C69.9746 6.72217 69.9298 6.70646 69.9298 6.37777V4.56349C69.9298 4.18378 69.7406 4.10389 69.582 4.10389C69.3495 4.10389 69.2413 4.33649 69.1999 4.42649C68.6682 5.61993 68.015 6.23079 66.9835 6.94905L66.9291 6.9924C66.8091 7.088 66.6442 7.21879 66.6442 7.43909C66.6442 7.53469 66.6809 7.61847 66.7514 7.6807C66.9153 7.82684 67.2074 7.81721 67.4684 7.79639L67.5389 7.79152L67.6906 7.78969C67.7896 7.78726 67.913 7.78446 67.9345 7.8054C67.945 7.81441 67.9763 7.86288 67.9763 8.10036V14.6836L67.974 15.0471C67.963 16.0374 67.9516 17.1596 68.5295 17.9479C68.9321 18.4764 69.6187 18.7918 70.3672 18.7918C71.1995 18.7918 72.0219 18.4373 72.6847 17.7947C72.829 17.6809 73.2126 17.3052 73.2126 16.9636ZM83.1665 15.702C83.0193 15.702 82.895 15.821 82.6686 16.0379C82.1875 16.5008 81.2904 17.3617 79.6456 17.3617C76.7192 17.3617 75.1879 14.7535 75.1879 12.1771C75.1879 11.8656 75.2227 11.6876 75.2971 11.6158C75.3804 11.5354 75.581 11.5363 75.8845 11.5377H76.0055H83.2142C83.3482 11.5377 83.6578 11.4802 83.6578 10.9478C83.6578 10.0759 83.2947 8.95842 82.7945 8.29058C82.0007 7.24972 80.7053 6.65275 79.2411 6.65275C77.5835 6.65275 76.0651 7.2569 74.8497 8.3986C73.6428 9.52689 73.1049 10.8732 73.1049 12.7641C73.1049 16.1439 75.5495 18.7913 78.6698 18.7913C80.2307 18.7913 81.4237 18.3374 82.5381 17.3185L82.5548 17.3033C83.2185 16.6929 83.5149 16.3096 83.5149 16.0588C83.5149 15.8586 83.3624 15.702 83.1665 15.702ZM75.9479 9.04793C76.6311 8.02656 77.7383 7.41619 78.908 7.41619C79.4979 7.41619 80.3146 7.54419 80.8577 8.14931C81.2102 8.55362 81.4389 9.10261 81.4389 9.54881C81.4389 10.0217 81.2041 10.2895 80.6758 10.4175C80.0067 10.5897 78.6851 10.6154 77.9566 10.6154H76.0299C75.9936 10.6154 75.9541 10.6168 75.9122 10.6177C75.7502 10.6234 75.5053 10.6316 75.4161 10.5483C75.4 10.533 75.3781 10.505 75.3781 10.4379C75.3781 10.0873 75.7244 9.33996 75.9479 9.04793ZM90.7465 6.7788C89.4772 6.7788 88.6243 7.90149 88.1665 8.50467C88.1016 8.59076 88.0306 8.68307 87.9754 8.74871C87.9711 8.69635 87.9701 8.62024 87.9754 8.50796L87.9778 8.43903V7.187L87.9783 7.15035C87.9792 7.02857 87.9816 6.86161 87.8663 6.74884C87.8215 6.70512 87.7405 6.65324 87.6062 6.65324C87.3803 6.65324 87.2365 6.8269 87.1311 6.95391C87.1059 6.98339 87.0835 7.0114 87.0535 7.04428C86.6789 7.52044 85.6817 8.15211 85.152 8.31773C85.1233 8.32772 85.0905 8.33819 85.0562 8.34915C84.8484 8.41382 84.5016 8.52269 84.5016 8.89327C84.5016 9.10979 84.6754 9.2496 84.9448 9.2496H85.254C85.5317 9.2496 85.7479 9.30525 85.8271 9.40377C86.0296 9.62017 86.0258 10.5445 86.0243 10.8475V10.9317V15.7211C86.0243 15.8643 86.0281 16.0032 86.0315 16.1369C86.0563 17.0987 86.0268 17.5654 85.0948 17.6582C85.0544 17.6616 85.0139 17.6642 84.9733 17.6657C84.7336 17.6776 84.2877 17.6991 84.2877 18.1695C84.2877 18.4265 84.4707 18.5795 84.7784 18.5795C85.1486 18.5795 85.5297 18.5605 85.8991 18.542C86.2721 18.5234 86.658 18.5039 87.0368 18.5039C87.3827 18.5039 87.7352 18.5216 88.1083 18.5406C88.488 18.5596 88.8797 18.5795 89.2709 18.5795C89.5448 18.5795 89.7145 18.4126 89.7145 18.1438C89.7145 17.7153 89.258 17.6834 89.0131 17.6662C88.9775 17.6642 88.9419 17.6616 88.9064 17.6582C87.9749 17.5654 87.9459 17.0987 87.9706 16.1369L87.9778 15.7211V11.6957V11.5763C87.9769 10.6316 87.9764 10.0079 88.4952 9.21818C88.7492 8.87671 89.1331 8.36145 89.5805 8.36145C89.8084 8.36145 89.9399 8.5099 90.1351 8.75298C90.3429 9.01127 90.6016 9.33289 91.1029 9.33289C91.7842 9.33289 92.2601 8.84955 92.2601 8.15784C92.2601 7.3715 91.6093 6.7788 90.7465 6.7788ZM7.9855 24.3094V24.23C7.98647 23.8984 7.9883 23.1221 7.84877 22.8718C7.72204 22.6222 7.4648 22.603 7.14072 22.603H7.11694C7.00351 22.6035 6.81396 22.605 6.69248 22.4885C6.6482 22.4461 6.59575 22.3704 6.59575 22.2506C6.59575 22.1526 6.63052 22.067 6.69675 22.0033C6.77822 21.9247 6.90215 21.8828 7.05547 21.8828C7.27416 21.8828 7.49383 21.8995 7.70631 21.9157C7.91219 21.9314 8.12564 21.9471 8.3319 21.9471C8.50961 21.9471 8.68488 21.9319 8.87125 21.9157C9.05616 21.8995 9.24717 21.8828 9.43915 21.8828C9.85459 21.8828 9.89935 22.1298 9.89935 22.2359C9.89935 22.4794 9.69212 22.603 9.28279 22.603C8.75148 22.603 8.72538 22.8576 8.71342 23.4851L8.70671 23.7352L8.7072 28.4938C8.7072 29.4404 8.7072 30.2572 7.87719 31.035C7.25684 31.6092 6.34827 31.8875 5.09807 31.8875C4.42344 31.8875 3.16945 31.7919 2.35651 31.1501C1.45551 30.4845 1.456 29.5627 1.45697 28.5865V28.4938V23.6987L1.45746 23.5174C1.4599 23.1106 1.46124 22.8419 1.34549 22.7297C1.25548 22.6421 1.05532 22.603 0.696603 22.603C0.353985 22.603 0.179688 22.4842 0.179688 22.2506C0.179688 22.1383 0.213474 22.0489 0.280192 21.9842C0.350692 21.9162 0.449854 21.8828 0.583169 21.8828C0.857605 21.8828 1.12728 21.8995 1.38745 21.9157C1.64383 21.9309 1.90876 21.9471 2.17453 21.9471C2.44031 21.9471 2.71243 21.9309 2.97588 21.9152C3.24276 21.8995 3.51902 21.8828 3.79346 21.8828C4.04167 21.8828 4.19657 22.0237 4.19657 22.2506C4.19657 22.4842 4.01789 22.603 3.66576 22.603C3.30752 22.603 3.10737 22.6421 3.01784 22.7297C2.90209 22.8419 2.90356 23.1106 2.90538 23.5169L2.90587 23.6987V28.0052V28.1565C2.90392 28.8078 2.90112 29.792 3.18311 30.2804C3.661 31.1277 4.95402 31.1934 5.33908 31.1934C5.88417 31.1934 6.89178 31.093 7.51603 30.4204C7.98586 29.9009 7.98538 29.2762 7.98538 28.5527L7.9855 24.3094Z" fill="#46505C"/>
<path d="M17.3447 31.0902L17.2837 31.085C16.7905 31.036 16.771 30.829 16.7863 30.2382L16.7901 29.9875V27.5728L16.7905 27.4501C16.792 26.7403 16.7935 26.0059 16.3374 25.3732C15.9125 24.7895 15.3049 24.4936 14.5318 24.4936C13.564 24.4936 12.8722 25.1277 12.4587 25.5063L12.3629 25.5929V24.8937L12.3633 24.8685C12.3643 24.7796 12.3658 24.6573 12.2766 24.5697C12.2409 24.535 12.1771 24.4936 12.0741 24.4936C11.9064 24.4936 11.805 24.6169 11.7378 24.6982L11.6905 24.7539C11.4809 25.0221 10.8958 25.3965 10.589 25.4926L10.5343 25.5102C10.4028 25.5515 10.1569 25.6286 10.1569 25.8979C10.1569 26.0643 10.2903 26.1761 10.489 26.1761H10.6734C10.8459 26.1761 10.9374 26.2128 10.9646 26.2465C11.0118 26.2974 11.068 26.4811 11.0656 27.0685V27.119V29.989L11.0693 30.2396C11.0846 30.8295 11.0646 31.036 10.5724 31.085L10.5029 31.0892C10.3614 31.0959 10.0293 31.1121 10.0293 31.4531C10.0293 31.5954 10.1236 31.761 10.39 31.761C10.6149 31.761 10.8441 31.7453 11.0656 31.7296C11.2871 31.7138 11.5144 31.6967 11.7354 31.6967C11.9374 31.6967 12.1456 31.7119 12.3663 31.7276C12.5945 31.7443 12.8303 31.761 13.0681 31.761C13.2701 31.761 13.4006 31.6344 13.4006 31.4379C13.4006 31.123 13.0633 31.0997 12.9189 31.0902L12.8575 31.085C12.3638 31.036 12.3443 30.8295 12.3591 30.2392C12.3616 30.1558 12.3629 30.0724 12.3629 29.989V27.4239C12.3629 26.8232 12.4005 26.5362 12.7789 26.1162C13.1266 25.7271 13.5826 25.513 14.0629 25.513C14.5788 25.513 15.0257 25.7414 15.2597 26.1247C15.4923 26.5001 15.4923 27.0867 15.4923 27.5571V29.9875C15.4923 30.0741 15.4946 30.1579 15.4965 30.2382C15.5113 30.829 15.4918 31.036 14.9987 31.085L14.929 31.0892C14.787 31.0959 14.455 31.1121 14.455 31.4531C14.455 31.5954 14.5493 31.761 14.8162 31.761C15.0406 31.761 15.2702 31.7448 15.4928 31.7296C15.7133 31.7134 15.941 31.6967 16.1626 31.6967C16.3641 31.6967 16.5723 31.7119 16.793 31.7276C17.0212 31.7443 17.257 31.761 17.4938 31.761C17.6963 31.761 17.8263 31.6344 17.8263 31.4379C17.8263 31.123 17.4891 31.0997 17.3447 31.0902ZM19.4272 22.5898C19.4272 22.0747 19.7793 21.6708 20.2287 21.6708C20.7036 21.6708 20.9867 22.1227 20.9867 22.5594C20.9867 23.1093 20.6708 23.4785 20.2 23.4785C19.7526 23.4785 19.4272 23.1046 19.4272 22.5898ZM20.8561 29.989C20.8559 30.0725 20.8546 30.1561 20.8523 30.2396C20.8371 30.829 20.8571 31.036 21.3492 31.0855L21.4107 31.0902C21.5551 31.0997 21.8924 31.123 21.8924 31.4379C21.8924 31.6344 21.7623 31.7615 21.5599 31.7615C21.323 31.7615 21.0867 31.7443 20.859 31.7276C20.6384 31.7119 20.4307 31.6972 20.2287 31.6972C20.0071 31.6972 19.7793 31.7134 19.5592 31.7296C19.3367 31.7453 19.1075 31.7615 18.8827 31.7615C18.6168 31.7615 18.5219 31.5954 18.5219 31.4531C18.5219 31.1121 18.8541 31.0959 18.9955 31.0892L19.0652 31.0855C19.5578 31.036 19.5778 30.829 19.5626 30.2396L19.5583 29.989V27.119V27.0685C19.5606 26.4811 19.5054 26.2974 19.4577 26.2465C19.4306 26.2133 19.3391 26.1766 19.1672 26.1766H18.9822C18.7836 26.1766 18.6496 26.0643 18.6496 25.8979C18.6496 25.6286 18.8955 25.5515 19.0275 25.5102L19.0823 25.4926C19.3891 25.3965 19.9738 25.0221 20.1838 24.7539L20.231 24.6986C20.2982 24.6169 20.3997 24.4936 20.5674 24.4936C20.6698 24.4936 20.7336 24.535 20.7694 24.5697C20.859 24.6573 20.8576 24.7796 20.8566 24.8685L20.8561 24.8937V29.989ZM29.4685 24.7442C29.3961 24.6773 29.3069 24.682 29.2431 24.6848L29.1978 24.6863H27.1096C27.0161 24.6863 26.7337 24.6863 26.7337 24.9775C26.7337 25.299 27.1448 25.299 27.2796 25.299C27.3721 25.299 27.6727 25.3176 27.6727 25.5568C27.6727 25.6767 27.5922 25.8993 27.5383 26.0473L27.496 26.1671C27.4993 26.1581 26.3978 28.7526 25.9794 29.7382L24.6715 26.2832L24.652 26.2337C24.5882 26.0686 24.4543 25.7262 24.4543 25.5715C24.4543 25.3566 24.6834 25.299 24.8187 25.299L24.8641 25.3009C24.9874 25.3075 25.1743 25.3171 25.2923 25.2091C25.349 25.1572 25.379 25.0873 25.379 25.0079C25.379 24.9094 25.349 24.8308 25.29 24.7743C25.1961 24.6843 25.0675 24.6853 24.9726 24.6858L24.9469 24.6863H22.3798L22.3532 24.6858C22.275 24.6853 22.1673 24.6838 22.0858 24.7614C22.0325 24.8128 22.0053 24.8856 22.0053 24.9775C22.0053 25.1909 22.1502 25.299 22.4279 25.299C22.8796 25.3223 22.9416 25.4893 23.1255 25.9859L23.1626 26.0863L25.2238 31.4446L25.3066 31.6363C25.35 31.7905 25.4577 31.8893 25.5868 31.8893C25.7841 31.8893 25.8841 31.6582 25.9499 31.505L25.9674 31.4655L25.9737 31.4556L25.9784 31.4441L28.0134 26.7047L28.1024 26.4878C28.315 25.9617 28.5565 25.3656 29.0492 25.2975L29.0901 25.2932C29.2146 25.2804 29.5442 25.2466 29.5442 24.9479C29.5442 24.9146 29.5442 24.8138 29.4685 24.7442ZM35.6909 29.9161C35.5742 29.9161 35.4884 29.9994 35.3455 30.1374C35.0653 30.4085 34.5426 30.9133 33.5903 30.9133C31.8888 30.9133 30.9988 29.3796 30.9988 27.8649C30.9988 27.6414 31.0307 27.5871 31.0441 27.5738C31.0746 27.5448 31.2132 27.5452 31.3471 27.5457H31.4186H35.7195C35.7971 27.5457 36.0516 27.5157 36.0516 27.1314C36.0516 26.5981 35.8301 25.9136 35.5237 25.5031C35.0367 24.8627 34.2444 24.4956 33.3491 24.4956C32.3419 24.4956 31.4191 24.8637 30.6815 25.5592C29.942 26.2485 29.6118 27.0682 29.6118 28.2174C29.6118 30.2767 31.1041 31.8898 33.008 31.8898C33.9585 31.8898 34.6846 31.6153 35.3731 30.9899C35.8958 30.506 35.9663 30.3167 35.9663 30.1954C35.9663 30.0389 35.8458 29.9161 35.6909 29.9161ZM31.4414 26.0306C31.8369 25.4374 32.4753 25.0835 33.15 25.0835C33.4878 25.0835 33.9547 25.1557 34.2611 25.4988C34.4621 25.7299 34.5922 26.0425 34.5922 26.2956C34.5922 26.5501 34.4754 26.6824 34.1872 26.7523C33.7956 26.8536 33.0137 26.8688 32.5826 26.8688H31.4329L31.3614 26.8703C31.3081 26.8721 31.1451 26.8773 31.1146 26.8469L31.1122 26.8279C31.1122 26.6328 31.3137 26.1985 31.4414 26.0306ZM40.7651 24.5812C39.9828 24.5812 39.4639 25.2538 39.1809 25.6263V24.8909L39.1813 24.866C39.1823 24.7776 39.1838 24.6573 39.0946 24.5702C39.0585 24.535 38.9946 24.4936 38.8917 24.4936C38.7249 24.4936 38.6234 24.6169 38.5557 24.6982L38.5087 24.7539C38.299 25.0221 37.7139 25.3965 37.4071 25.4921L37.3523 25.5102C37.2203 25.5515 36.9745 25.6286 36.9745 25.8979C36.9745 26.0643 37.1083 26.1766 37.307 26.1766H37.4914C37.6639 26.1766 37.7554 26.2133 37.7826 26.2465C37.8301 26.2974 37.8854 26.4816 37.8831 27.0685V27.119V29.989C37.8831 30.0755 37.8854 30.1587 37.8873 30.2396C37.9026 30.8295 37.8826 31.036 37.3904 31.085L37.3208 31.0897C37.1788 31.0959 36.8473 31.1121 36.8473 31.4531C36.8473 31.5954 36.9411 31.7615 37.2075 31.7615C37.4324 31.7615 37.6619 31.7448 37.8836 31.7291C38.1041 31.7134 38.3319 31.6972 38.5534 31.6972C38.7549 31.6972 38.9636 31.7119 39.1838 31.7281C39.412 31.7443 39.6479 31.7615 39.8851 31.7615C40.0871 31.7615 40.2172 31.6344 40.2172 31.4379C40.2172 31.123 39.8799 31.0997 39.7355 31.0902L39.6745 31.085C39.1818 31.036 39.1613 30.8295 39.1771 30.2396L39.1809 29.989V27.5771V27.5067C39.1809 26.9387 39.1805 26.5958 39.4772 26.1429C39.6207 25.9502 39.8374 25.6581 40.0695 25.6581C40.1738 25.6581 40.2396 25.7337 40.3468 25.8669C40.473 26.0234 40.645 26.2385 40.9781 26.2385C41.424 26.2385 41.7362 25.9231 41.7362 25.4712C41.7362 24.9636 41.3188 24.5812 40.7651 24.5812ZM42.3269 29.6835L42.3298 29.6621C42.3445 29.5261 42.3803 29.2088 42.6728 29.2088C42.9801 29.2088 43.0454 29.5418 43.1149 29.8947C43.2379 30.5208 43.3913 31.3 44.5338 31.3C45.2981 31.3 46.1109 30.8305 46.1109 29.9605C46.1109 29.2378 45.6278 28.9201 44.8483 28.6417L44.7249 28.5999C43.8149 28.2883 42.5675 27.8616 42.5675 26.5714C42.5675 25.9735 42.8477 25.4402 43.378 25.0292C43.8502 24.6686 44.4333 24.4936 45.1609 24.4936C45.5373 24.4936 46.3219 24.5987 46.696 24.7647C46.9904 24.9136 46.969 25.2276 46.9532 25.4569C46.9499 25.5068 46.9465 25.5535 46.9465 25.5939L46.9514 25.6581C46.9757 25.9435 46.99 26.2604 46.8455 26.4126C46.7918 26.4683 46.7203 26.4987 46.6426 26.4987C46.4168 26.4987 46.3272 26.2779 46.2319 26.0444C46.0637 25.6306 45.8335 25.0639 44.9045 25.0639C44.4348 25.0639 43.7548 25.4103 43.7548 26.0373C43.7548 26.748 44.4295 26.9939 45.2104 27.2789C46.1971 27.639 47.3163 28.0472 47.3163 29.5028C47.3163 30.996 45.8579 31.888 44.4481 31.888C43.954 31.888 43.0792 31.6953 42.5637 31.4094C42.2773 31.2752 42.2803 31.0203 42.2826 30.7957L42.2836 30.7239L42.3269 29.6835ZM50.0335 23.4785C50.5047 23.4785 50.8206 23.1093 50.8206 22.5594C50.8206 22.1227 50.5371 21.6708 50.062 21.6708C49.6128 21.6708 49.2612 22.0747 49.2612 22.5898C49.2612 23.105 49.5861 23.4785 50.0335 23.4785ZM51.2447 31.0902L51.1827 31.085C50.6906 31.036 50.6706 30.8295 50.6858 30.2396L50.6901 29.989V24.8937V24.8685C50.6915 24.7796 50.6924 24.6573 50.6029 24.5697C50.5676 24.535 50.5033 24.4936 50.4009 24.4936C50.2337 24.4936 50.1317 24.6169 50.0645 24.6982L50.0173 24.7539C49.8076 25.0221 49.2226 25.3965 48.9162 25.4926L48.8615 25.5102C48.7295 25.5515 48.4836 25.6286 48.4836 25.8979C48.4836 26.0643 48.6171 26.1761 48.8157 26.1761H49.0005C49.1725 26.1761 49.264 26.2128 49.2912 26.2465C49.3384 26.2974 49.3946 26.4811 49.3922 27.0685L49.3917 27.119V29.989C49.3917 30.076 49.3936 30.1592 49.396 30.2396C49.4112 30.8295 49.3912 31.036 48.8991 31.085L48.829 31.0892C48.6876 31.0959 48.3559 31.1121 48.3559 31.4531C48.3559 31.5954 48.4503 31.761 48.7161 31.761C48.941 31.761 49.1707 31.7453 49.3922 31.7296C49.6128 31.7134 49.841 31.6967 50.062 31.6967C50.2642 31.6967 50.4724 31.7119 50.6929 31.7276C50.9206 31.7443 51.157 31.761 51.3932 31.761C51.5958 31.761 51.7264 31.6344 51.7264 31.4379C51.7264 31.123 51.3885 31.0997 51.2447 31.0902ZM55.9858 30.7258C55.9858 30.6011 55.8786 30.4613 55.7247 30.4613C55.627 30.4613 55.5532 30.525 55.4317 30.6293C55.2597 30.7763 54.9996 30.9989 54.7022 30.9989C54.5484 30.9989 54.4269 30.9537 54.3315 30.8614C54.0266 30.5664 54.0266 29.86 54.0271 29.3928V29.3611V25.4798C54.0271 25.3313 54.0543 25.3014 54.0553 25.3004C54.0763 25.2871 54.1725 25.2919 54.2373 25.2942C54.2825 25.2966 54.3345 25.299 54.3902 25.299H55.1849C55.2406 25.299 55.2916 25.3014 55.336 25.3037C55.4722 25.3104 55.5913 25.3166 55.6847 25.23C55.7747 25.1472 55.7871 25.024 55.7871 24.9027C55.7871 24.8028 55.7871 24.5364 55.4975 24.5364L54.1053 24.5369C54.0614 24.5336 54.0453 24.5269 54.0405 24.525C54.0361 24.5164 54.0271 24.4879 54.0271 24.388V23.3053C54.0271 22.9989 53.8341 22.9661 53.7522 22.9661C53.5692 22.9661 53.4892 23.1393 53.4616 23.1982C53.1523 23.8967 52.7693 24.2543 52.16 24.6801L52.1295 24.7048C52.0513 24.7667 51.9341 24.8599 51.9341 25.0226C51.9341 25.0978 51.9646 25.1662 52.0203 25.2158C52.1385 25.3209 52.3295 25.3152 52.4996 25.3019L52.5364 25.299L52.6278 25.298C52.6597 25.2975 52.6964 25.2966 52.7207 25.2975C52.7249 25.3166 52.7288 25.3513 52.7288 25.4184V29.3611L52.7274 29.5779C52.7211 30.1806 52.7141 30.8637 53.0704 31.3537C53.3225 31.6896 53.7522 31.8898 54.2196 31.8898C54.7337 31.8898 55.2402 31.6705 55.6475 31.2724C55.7471 31.1935 55.9858 30.9555 55.9858 30.7258ZM63.4814 24.6863H61.2254C61.0257 24.6863 60.8647 24.8437 60.8647 25.0379C60.8647 25.299 61.2068 25.299 61.3531 25.299C61.7442 25.299 61.9424 25.4312 61.9424 25.6924C61.9424 25.8342 61.8338 26.091 61.769 26.2447L61.7557 26.2751C61.7552 26.2775 60.718 28.881 60.3191 29.8804L58.8812 26.1724L58.8689 26.1419C58.803 25.9722 58.7212 25.7599 58.7212 25.6011C58.7212 25.3075 59.2248 25.299 59.2824 25.299C59.616 25.299 59.785 25.211 59.785 25.0379C59.785 24.8071 59.6035 24.6863 59.4243 24.6863H56.6857C56.4313 24.6863 56.2541 24.8308 56.2541 25.0379C56.2541 25.299 56.6062 25.299 56.7567 25.299C57.1074 25.299 57.2536 25.6224 57.4357 26.1157L57.499 26.2827L59.3701 31.045C59.3898 31.0993 59.4108 31.153 59.433 31.2063C59.4925 31.3528 59.5602 31.5192 59.5602 31.6505C59.5602 31.7567 59.522 31.8532 59.4773 31.9641L59.4434 32.0525L58.9607 33.2594C58.9462 33.2966 58.9322 33.334 58.9189 33.3716C58.8512 33.56 58.7983 33.6861 58.6912 33.7132C58.551 33.746 58.3748 33.7432 58.2199 33.7408L58.1046 33.7394C57.488 33.7394 57.488 34.2679 57.488 34.4934C57.488 34.6885 57.5457 34.8425 57.6582 34.951C57.854 35.1409 58.1656 35.1404 58.4158 35.1404H58.4458C59.0637 35.1404 59.1394 34.9752 59.2848 34.4544L59.2919 34.4268L62.142 27.1847C62.264 26.8803 62.6333 25.953 62.9043 25.5844C63.0263 25.416 63.2884 25.3099 63.4041 25.2975L63.4723 25.2904C63.6161 25.2775 63.8563 25.2552 63.8563 25.0526C63.8563 24.8333 63.7058 24.6863 63.4814 24.6863Z" fill="#46505C"/>
<path d="M67.043 21.8787L67.0477 38.6098C67.4094 42.6033 71.5407 49.2213 78.3583 51.2607L78.7141 51.333L79.0447 51.2607C85.8585 49.2228 89.9864 42.5529 90.3476 38.5117V21.8787H67.043ZM89.7674 38.5117C89.42 42.3755 85.4411 48.7599 78.8732 50.725L78.7708 50.7549L78.736 50.7654L78.7012 50.7759L78.6675 50.7654L78.6327 50.7549L78.5298 50.725C71.9561 48.758 67.9735 42.3968 67.6261 38.5608C67.6248 38.5304 67.6238 22.4402 67.6238 22.4402H89.7674V38.5117Z" fill="white"/>
<path d="M67.6273 38.5606C67.9747 42.3967 71.9573 48.7577 78.531 50.7247L78.6339 50.7547L78.6687 50.7652L78.7025 50.7756L78.7372 50.7652L78.772 50.7547L78.8744 50.7247C85.4424 48.7596 89.4212 42.3751 89.7686 38.5115V22.4399H67.625L67.6273 38.5606ZM68.2057 28.7982V23.0192H89.1882V28.7982V38.5115C88.8856 41.8515 85.2889 48.2182 78.7025 50.1882C72.117 48.2182 68.5078 41.8515 68.2057 38.5115V28.7982Z" fill="#46505C"/>
<path d="M80.9568 36.4375C80.8039 36.1431 80.6319 36.0517 80.4747 36.0023C80.4566 35.9561 80.4324 35.9124 80.4022 35.871C80.1998 35.5908 79.8706 35.5537 79.6343 35.6407C79.5504 35.6717 79.4989 35.6964 79.4594 35.7201L79.5118 35.6497L79.5218 35.6365C79.5604 35.5875 79.5951 35.5366 79.6471 35.4072C79.7366 35.1788 79.6986 34.8611 79.4084 34.6645C79.3661 34.6362 79.3207 34.6127 79.2731 34.5946C79.2235 34.4462 79.1302 34.2784 78.8218 34.1294L78.7376 34.088L78.6533 34.1294C78.3479 34.2764 78.2535 34.4429 78.202 34.5946C78.1544 34.6128 78.1091 34.6363 78.0667 34.6645C77.777 34.8611 77.738 35.1788 77.828 35.4072C77.8795 35.5366 77.9152 35.5875 77.9533 35.6365L77.9638 35.6497L78.021 35.7268C77.9805 35.7011 77.9267 35.6745 77.8342 35.6407C77.5979 35.5537 77.2696 35.5908 77.0667 35.871C77.0374 35.9117 77.013 35.9556 76.9937 36.0018C76.8408 36.0494 76.6665 36.1403 76.5126 36.4375L76.4701 36.5194L76.5126 36.6017C76.665 36.8962 76.837 36.9875 76.9937 37.0369C77.0123 37.0831 77.0372 37.1268 77.0667 37.1682C77.2696 37.4484 77.5979 37.4855 77.8342 37.399C77.9685 37.3494 78.021 37.3147 78.0715 37.2776L78.0857 37.2676L78.1744 37.2058V37.9608L78.082 37.8865L77.9638 38.0454L77.9533 38.0588C77.9152 38.1078 77.8795 38.1587 77.828 38.288C77.738 38.5163 77.777 38.8347 78.0667 39.0301C78.1089 39.0588 78.1543 39.0824 78.202 39.1005C78.2516 39.249 78.3449 39.4174 78.6533 39.5662L78.7376 39.6066L78.8218 39.5662C79.1268 39.4187 79.2212 39.2522 79.2731 39.1005C79.3208 39.0824 79.3662 39.0588 79.4084 39.0301C79.6986 38.8347 79.7366 38.5163 79.6471 38.288C79.5951 38.1587 79.5604 38.1078 79.5218 38.0588L79.5118 38.0454L79.3936 37.8889L79.3007 37.9617V37.2101L79.3837 37.2676L79.3974 37.2776C79.4479 37.3147 79.5009 37.3494 79.6343 37.399C79.8706 37.4855 80.1998 37.4484 80.4022 37.1682C80.4324 37.1268 80.4566 37.0831 80.4747 37.0374C80.6286 36.9893 80.8025 36.899 80.9568 36.6017L80.9988 36.5194L80.9568 36.4375ZM80.5024 36.5179V36.5274L80.4962 36.5361C80.4942 36.5384 80.326 36.7634 80.0855 36.7073C80.1165 36.7744 80.1278 36.8647 80.0621 36.9546C79.9648 37.0888 79.8201 37.0769 79.7571 37.0512L79.7181 37.036L79.7448 37.0041C79.7448 37.0041 79.7733 36.9675 79.7781 36.9171C79.7829 36.868 79.7781 36.7948 79.6853 36.7268C79.6404 36.6939 79.5251 36.6888 79.4784 36.6891V36.6896L79.4713 36.6901H78.9177V38.1405C78.9167 38.1839 78.922 38.3037 78.9568 38.3484C79.0277 38.4384 79.1035 38.4431 79.1545 38.4384C79.2054 38.4336 79.2435 38.406 79.244 38.406L79.2769 38.3808L79.2927 38.4179C79.3194 38.4793 79.3317 38.6191 79.193 38.7134C79.0992 38.7761 79.0063 38.7656 78.9367 38.7357C78.9953 38.9678 78.7623 39.1309 78.76 39.1329L78.7513 39.1386H78.7418H78.7313L78.7233 39.1329C78.7199 39.1309 78.4874 38.9678 78.5461 38.7357C78.4764 38.7656 78.3831 38.7761 78.2897 38.7134C78.1505 38.6191 78.1634 38.4793 78.1897 38.4179L78.2059 38.3803L78.2387 38.406C78.2387 38.406 78.2764 38.4341 78.3287 38.4384C78.3792 38.4431 78.4551 38.4384 78.5256 38.3484C78.5599 38.3052 78.5651 38.1934 78.5636 38.1492V38.1487L78.5631 38.142V36.6901H77.9843H77.979L77.9772 36.6891C77.9305 36.6888 77.8151 36.6939 77.7703 36.7268C77.6775 36.7953 77.6728 36.868 77.677 36.9171C77.6823 36.9675 77.7108 37.0041 77.7118 37.0041L77.737 37.036L77.6984 37.0512C77.644 37.0714 77.5845 37.0728 77.5293 37.0553C77.474 37.0378 77.4262 37.0024 77.3934 36.9546C77.3282 36.8647 77.3382 36.7744 77.3701 36.7073C77.13 36.7634 76.9609 36.5384 76.9595 36.5361L76.9537 36.5279V36.5184V36.5084L76.9595 36.5004C76.9609 36.4975 77.13 36.2729 77.3701 36.329C77.3382 36.262 77.3282 36.1716 77.3934 36.0812C77.4907 35.9471 77.636 35.9594 77.6984 35.9846L77.7375 36.0003L77.7108 36.0322C77.7108 36.0322 77.6823 36.0684 77.677 36.1193C77.6728 36.1683 77.6775 36.2411 77.7703 36.3091C77.8166 36.3434 77.941 36.3481 77.9848 36.3472H78.5631V35.5442V35.5389L78.5636 35.537C78.5651 35.4923 78.5599 35.3805 78.5256 35.3372C78.4551 35.2477 78.3792 35.243 78.3287 35.2474C78.2764 35.2521 78.2387 35.2801 78.2382 35.2801L78.2059 35.3053L78.1897 35.2678C78.1634 35.2073 78.1505 35.067 78.2897 34.9729C78.3831 34.9096 78.4764 34.9205 78.5461 34.9505C78.4874 34.7184 78.7199 34.5547 78.7233 34.5532L78.7309 34.5475H78.7409H78.7513L78.76 34.5532C78.7623 34.5547 78.9953 34.7184 78.9367 34.9505C79.0063 34.9205 79.0992 34.9096 79.193 34.9729C79.3317 35.067 79.3194 35.2073 79.2927 35.2678L79.2764 35.3058L79.244 35.2801C79.2435 35.2801 79.2059 35.2521 79.1545 35.2474C79.103 35.2426 79.0277 35.2477 78.9572 35.3372C78.922 35.3819 78.9167 35.5023 78.9177 35.5451V36.3472H79.4699C79.5146 36.3481 79.6391 36.3434 79.6853 36.3091C79.7781 36.2411 79.7829 36.1683 79.7781 36.1193C79.7733 36.0684 79.7448 36.0323 79.7443 36.0318L79.7186 36.0003L79.7571 35.9846C79.8201 35.9594 79.9648 35.9471 80.0621 36.0812C80.1278 36.1716 80.1165 36.262 80.0855 36.329C80.326 36.2729 80.4942 36.4975 80.4962 36.5004L80.5024 36.5084V36.5179ZM78.7018 50.1882C85.2883 48.2183 88.8845 41.8515 89.1876 38.5116V28.7983H78.7209H78.6713H68.2051V38.5116C68.5072 41.8515 72.1163 48.2183 78.7018 50.1882ZM72.6137 44.5783C72.6137 44.5783 72.6018 44.7443 72.8134 44.907C72.8134 44.907 72.5042 45.1677 72.9159 45.5254C72.9159 45.5254 72.2044 45.2304 72.6137 44.5783ZM75.552 46.8236C74.1761 45.329 75.2294 44.3023 76.2319 43.8946C76.9003 43.6229 76.8818 43.4242 76.8818 43.4242C76.8818 43.4242 77.6265 43.6568 78.0682 43.379C78.0682 43.379 77.9657 43.7191 77.7413 44.0112C76.6326 45.4493 75.866 44.7248 75.866 44.7248C74.9817 45.1221 75.552 46.8236 75.552 46.8236ZM75.5887 43.1692L75.6445 43.1977C76.1637 43.4879 75.7855 43.8665 75.7855 43.8665C75.8255 43.5987 75.7373 43.5002 75.6345 43.4598C75.5916 43.4426 75.5601 43.4373 75.5601 43.4373C75.6463 43.3255 75.5887 43.1692 75.5887 43.1692ZM81.8116 43.4131C81.8116 43.4131 81.7792 43.4183 81.7373 43.4355C81.6344 43.4764 81.5462 43.574 81.5862 43.8423C81.5862 43.8423 81.2075 43.4636 81.7268 43.173L81.7826 43.1445C81.7826 43.1445 81.7249 43.3008 81.8116 43.4131ZM81.0583 41.066L81.1998 41.4229C81.4495 41.9761 81.0831 42.702 81.0831 42.702C81.279 41.7006 80.1835 40.7868 80.1835 40.7868C80.3417 40.3316 80.8201 39.6646 80.8993 39.5566H80.9006C80.9035 39.5927 80.9531 39.714 81.2122 40.1103C81.9588 41.2515 82.6326 41.1744 82.6326 41.1744C82.0065 41.5026 81.0583 41.066 81.0583 41.066ZM80.8491 38.5295C79.5051 40.8366 78.5322 41.151 80.4089 42.7317C80.4089 42.7317 79.2087 43.0552 78.932 42.051C78.932 42.051 78.9905 43.1565 78.7108 43.4482C78.4317 43.1566 78.4869 42.0667 78.4869 42.0667C78.2102 43.0699 77.01 42.747 77.01 42.747C78.8876 41.1663 77.9143 40.8517 76.5701 38.5451C75.2809 36.3321 76.6841 35.3364 77.3268 33.7052C77.6208 33.6781 78.1158 33.5563 78.3354 33.326C78.3354 33.326 78.4402 33.514 78.7123 33.5873C78.982 33.5092 79.1073 33.3208 79.1073 33.3208C79.2902 33.5511 79.8386 33.6781 80.1045 33.6961C80.7473 35.3274 82.1385 36.317 80.8491 38.5295ZM76.5216 39.5563V39.5545C76.6016 39.6643 77.0805 40.3313 77.2382 40.7866C77.2382 40.7866 76.1429 41.7004 76.3391 42.7018C76.3391 42.7018 75.9722 41.9759 76.2224 41.4226C76.2462 41.3702 76.3634 41.0658 76.3634 41.0658C76.3634 41.0658 75.4158 41.5025 74.7897 41.1743C74.7897 41.1743 75.4634 41.2514 76.2095 40.1102C76.4686 39.7139 76.5183 39.5925 76.5216 39.5563ZM81.064 46.9318C80.6491 47.2582 80.3217 46.3429 80.3217 46.3429C80.3217 46.3429 80.2727 47.1821 79.5237 47.1891C79.5237 47.1891 80.6367 46.5593 79.4741 45.0847C79.5866 46.1193 79.2135 47.0821 78.7108 47.0821C78.2082 47.0821 77.8356 46.1193 77.948 45.0847C76.785 46.5593 77.8985 47.1891 77.8985 47.1891C77.1495 47.182 77.1005 46.3429 77.1005 46.3429C77.1005 46.3429 76.7727 47.2582 76.3577 46.9318C75.725 46.4337 76.8265 45.9404 76.8265 45.9404C76.1829 45.901 76.0885 45.5499 76.0885 45.5499C77.7141 45.7206 78.4354 44.0733 78.4354 44.0733C78.5418 44.1761 78.6251 44.1918 78.7095 44.2322C78.7943 44.1918 78.8805 44.1761 78.9863 44.0733C78.9863 44.0733 79.7076 45.7206 81.3337 45.5499C81.3337 45.5499 81.2394 45.901 80.5952 45.9404C80.5952 45.9404 81.6964 46.4337 81.064 46.9318ZM81.8693 46.8233C81.8693 46.8233 82.441 45.1217 81.5557 44.7246C81.5557 44.7246 80.7886 45.449 79.6804 44.0111C79.4556 43.719 79.3546 43.3789 79.3546 43.3789C79.7958 43.6567 80.5404 43.4241 80.5404 43.4241C80.5404 43.4241 80.5214 43.6229 81.1903 43.8945C82.1928 44.3022 83.2462 45.3286 81.8693 46.8233ZM84.5065 45.5253C84.9181 45.1675 84.6089 44.9069 84.6089 44.9069C84.8204 44.7442 84.8085 44.5782 84.8085 44.5782C85.2183 45.2303 84.5065 45.5253 84.5065 45.5253ZM85.2493 43.3056C85.1658 43.3627 85.0634 43.3931 84.9543 43.3931C84.8192 43.3938 84.6883 43.3468 84.5845 43.2604C84.4426 43.144 84.265 43.0797 84.0814 43.0782C84.05 43.0782 84.0186 43.0807 83.9876 43.0858C83.9089 43.0986 83.8494 43.1277 83.8274 43.1638C83.7441 43.3003 83.9342 43.482 84.1086 43.611L84.1463 43.6372C84.2973 43.7423 84.6499 43.9873 84.6712 44.308C84.6817 44.4654 84.6127 44.6134 84.4655 44.7479C84.3959 44.8116 84.2982 44.8468 84.1896 44.8468C84.1348 44.8468 84.0791 44.8378 84.0253 44.8197C83.7832 44.7393 83.6079 44.4985 83.544 44.1604C83.472 43.7755 83.3467 43.5258 83.19 43.4568C83.106 43.4232 83.0166 43.4049 82.9261 43.403C82.8556 43.403 82.8003 43.4182 82.7651 43.4464C82.7226 43.4811 82.6197 43.5562 82.6197 43.5562C82.5412 43.6079 82.4493 43.6357 82.3552 43.6361C82.2635 43.6367 82.1739 43.6082 82.0993 43.5547C81.967 43.4601 81.9088 43.3035 81.9479 43.1465C81.9818 43.0128 82.0475 42.9215 82.1442 42.8758C82.1911 42.8543 82.2422 42.8434 82.2938 42.8439C82.4105 42.8439 82.5259 42.8924 82.6025 42.9285C82.633 42.9433 82.6716 42.9505 82.7169 42.9505C82.7746 42.9505 82.8246 42.938 82.8384 42.9343C82.8546 42.9253 82.8651 42.9081 82.8651 42.9033C82.8651 42.8986 82.8493 42.8709 82.7841 42.841C81.896 42.4305 81.7126 41.9504 81.7054 41.9299L81.6472 41.7725L81.8141 41.7925C81.8746 41.7994 81.9356 41.8029 81.9965 41.8029C82.2905 41.8029 82.5197 41.7254 82.522 41.7245L82.5921 41.6993L82.6378 41.7587C82.6439 41.7663 83.2205 42.497 83.7022 42.497C83.7612 42.4974 83.8197 42.4852 83.8737 42.4613C84.0161 42.3971 84.0791 42.1463 84.081 42.0265C84.0838 41.8376 84.1958 41.6749 84.3668 41.6117C84.4108 41.5951 84.4575 41.5866 84.5045 41.5865C84.6155 41.5865 84.7184 41.6341 84.7952 41.7198C84.9047 41.8443 84.8952 41.9666 84.8794 42.0285C84.8371 42.1997 84.6717 42.3172 84.5432 42.3657C84.4783 42.3904 84.4016 42.4547 84.3878 42.4965C84.3997 42.5202 84.4088 42.5246 84.4412 42.5246L84.5407 42.5208C84.5827 42.5208 84.6179 42.5156 84.6551 42.5099C84.7251 42.4994 84.8176 42.4856 84.9124 42.4856C85.1649 42.4856 85.3283 42.586 85.3978 42.7844C85.4722 42.9955 85.4165 43.1901 85.2493 43.3052M85.0267 41.7368C85.0043 41.5988 84.8481 41.5294 84.8481 41.5294C85.4827 41.314 85.5408 41.8624 85.5408 41.8624C85.3307 41.5208 85.0267 41.7368 85.0267 41.7368ZM85.6523 43.9103C85.9077 43.4356 85.5232 43.2972 85.5232 43.2972C85.6614 43.0726 85.5899 42.9209 85.5899 42.9209C86.2111 43.3918 85.6523 43.9103 85.6523 43.9103ZM83.9851 32.0173C83.9851 32.0173 87.2131 30.3909 87.571 29.3371C87.571 29.3371 87.7205 30.2709 87.6605 30.8746C87.6067 31.4108 86.7462 32.287 84.6674 33.6314C85.9429 33.4425 87.6905 32.7808 88.0712 32.1191C88.0712 32.1191 88.0774 33.0771 87.8574 33.6451C87.6782 34.1061 86.7744 34.4353 84.7389 35.4014C85.7432 35.9362 87.5252 35.3435 88.0351 34.8459C88.0351 34.8459 87.753 35.6821 87.419 36.1959C87.2084 36.5199 86.3641 37.064 84.403 36.7829C85.1306 37.6581 86.5275 38.3184 87.4752 37.9036C87.4752 37.9036 87.3771 38.7357 86.8024 38.9787C86.377 39.1581 85.4798 39.2722 84.0495 38.2009C84.9124 40.2659 87.0169 39.6352 87.0169 39.6352C87.0169 39.6352 86.5195 40.4577 85.9654 40.7427C85.4737 40.9953 84.4607 40.7926 82.8164 39.0648C82.8164 39.0648 82.9194 40.5943 84.5369 41.1084C81.7226 41.0413 81.2185 38.9777 81.2185 38.9777C81.4867 38.5958 81.5344 38.397 81.5344 38.397L81.5786 38.2842C81.7668 38.4806 82.4749 38.7366 82.4749 38.7366C82.4749 38.7366 82.8831 38.3932 82.9851 38.2518C83.259 37.8717 83.302 37.5935 83.302 37.5935C83.7794 37.6054 84.2163 37.2029 84.2163 37.2029C84.2435 36.7796 84.0633 36.4261 84.0633 36.4261C84.403 36.2758 84.7532 35.939 84.7532 35.939C84.5255 35.4723 84.3759 35.3211 84.3759 35.3211C84.9186 34.9148 84.9381 34.666 84.9381 34.666C84.8037 34.3139 84.3092 33.9677 84.3092 33.9677C84.5217 33.6927 84.7217 33.1552 84.7217 33.1552C84.3311 32.7761 83.9538 32.6623 83.9538 32.6623C84.0143 32.4478 84.0004 32.2428 83.9851 32.0173ZM82.8956 30.8052C82.8956 30.8052 83.8479 32.5044 82.9661 33.1275C82.9661 33.1275 83.5154 33.0724 83.9899 33.3197C83.9899 33.3197 83.6612 33.8811 83.3267 34.0738C83.3267 34.0738 84.0261 34.4096 84.2135 34.666C84.2135 34.666 83.7769 35.0418 83.1538 35.0813C83.1538 35.0813 83.7984 35.4761 83.969 35.7863C83.969 35.7863 83.4873 36.1121 82.8751 36.0033C82.8751 36.0033 83.5387 36.4385 83.5897 36.9184C83.5897 36.9184 82.9061 37.1078 82.4353 36.5456C82.4353 36.5456 82.8679 37.2548 82.6092 37.7357C82.5262 37.8894 82.3648 38.0387 82.3648 38.0387C81.9451 37.84 81.8778 37.8218 81.8441 37.3784C81.8278 37.1653 81.8821 37.1335 81.865 36.6711C81.8511 36.292 81.8083 35.9309 81.8083 35.9309C81.8083 35.9309 82.694 35.7897 82.4834 34.2935C82.4834 34.2935 81.2757 35.0827 81.1445 34.0081C80.985 32.7023 83.0299 33.3701 82.8956 30.8052ZM76.0785 31.1496C76.0714 31.2723 76.2162 31.4583 76.3439 31.5492C76.5445 31.6919 78.0962 31.5968 78.2707 31.5891C78.1167 31.2881 77.4221 30.7723 77.0252 30.7867C76.614 30.8004 76.5149 31.1701 76.5149 31.1701C76.3367 30.9736 76.3091 30.662 76.5683 30.398C76.7941 30.1678 77.879 30.1064 77.9319 30.0474C77.9862 29.9894 78.0329 29.8277 78.2877 29.8728C78.5425 29.918 78.7838 30.3209 79.4874 30.1449C79.4874 30.1449 80.064 30.1064 79.9363 29.782C79.8815 29.6421 79.5809 29.6398 79.5809 29.6398C79.5809 29.6398 80.2903 29.518 80.2245 30.0868C80.1774 30.4945 79.5589 30.4313 79.5137 31.1234C79.5074 31.2272 79.4627 32.6086 80.2379 33.1233C80.2379 33.1233 79.316 33.0634 78.9491 32.1181C78.9491 32.1181 78.9491 32.8084 78.7104 32.8108C78.5008 32.8084 78.4169 32.1448 78.4169 32.1448C78.3331 33.0282 77.2672 32.9606 77.2672 32.9606C77.9948 32.8565 77.7742 32.482 77.7093 32.3702C77.6118 32.2019 77.2877 32.2856 77.1867 32.3127C76.7045 32.444 76.7413 32.1438 76.7413 32.1438L77.9757 32.1433C78.3044 32.1171 78.2702 31.8361 78.3069 31.7271L76.5396 31.7657C76.4258 31.7595 76.3701 31.7804 76.1829 31.6572C75.9956 31.5339 76.0785 31.1496 76.0785 31.1496ZM74.5267 30.8052C74.3918 33.3701 76.4373 32.7023 76.2776 34.0081C76.1466 35.0827 74.9388 34.2935 74.9388 34.2935C74.7282 35.7897 75.614 35.9309 75.614 35.9309C75.614 35.9309 75.5711 36.292 75.5573 36.6711C75.5396 37.1335 75.5944 37.1653 75.5783 37.3784C75.5439 37.8218 75.4773 37.84 75.0574 38.0387C75.0574 38.0387 74.8955 37.8894 74.813 37.7357C74.5538 37.2548 74.9869 36.5456 74.9869 36.5456C74.5163 37.1078 73.8325 36.9184 73.8325 36.9184C73.883 36.4385 74.5472 36.0033 74.5472 36.0033C73.9354 36.1121 73.4528 35.7863 73.4528 35.7863C73.6233 35.4761 74.2679 35.0813 74.2679 35.0813C73.6453 35.0418 73.2088 34.666 73.2088 34.666C73.3961 34.4096 74.0946 34.0738 74.0946 34.0738C73.7605 33.8811 73.4323 33.3197 73.4323 33.3197C73.9064 33.0724 74.4561 33.1275 74.4561 33.1275C73.5743 32.5044 74.5267 30.8052 74.5267 30.8052ZM70.4053 39.6352C70.4053 39.6352 72.5098 40.2659 73.3723 38.2009C71.9429 39.2722 71.0457 39.1581 70.6197 38.9787C70.0443 38.7357 69.9471 37.9036 69.9471 37.9036C70.8947 38.3184 72.2911 37.6581 73.0192 36.7829C71.0581 37.064 70.2138 36.5199 70.0028 36.1959C69.6697 35.6821 69.3867 34.8459 69.3867 34.8459C69.8971 35.3435 71.6789 35.9362 72.6828 35.4014C70.6474 34.4353 69.7441 34.1061 69.5649 33.6451C69.3443 33.0771 69.3505 32.1191 69.3505 32.1191C69.7322 32.7808 71.4783 33.4425 72.7547 33.6314C70.6755 32.287 69.8156 31.4108 69.7622 30.8746C69.7017 30.2709 69.8513 29.3371 69.8513 29.3371C70.2086 30.3909 73.437 32.0173 73.437 32.0173C73.4218 32.2428 73.408 32.4478 73.4675 32.6623C73.4675 32.6623 73.0906 32.7761 72.6995 33.1552C72.6995 33.1552 72.9006 33.6927 73.1131 33.9677C73.1131 33.9677 72.6185 34.3139 72.4841 34.666C72.4841 34.666 72.5037 34.9148 73.0464 35.3211C73.0464 35.3211 72.8972 35.4723 72.6685 35.939C72.6685 35.939 73.0192 36.2758 73.3589 36.4261C73.3589 36.4261 73.1793 36.7796 73.2059 37.2029C73.2059 37.2029 73.6428 37.6054 74.1198 37.5935C74.1198 37.5935 74.1627 37.8717 74.4371 38.2518C74.5391 38.3932 74.9474 38.7366 74.9474 38.7366C74.9474 38.7366 75.655 38.4806 75.844 38.2842L75.8879 38.397C75.8879 38.397 75.936 38.5958 76.2042 38.9777C76.2042 38.9777 75.6993 41.0414 72.8854 41.1084C74.5028 40.5941 74.6058 39.0648 74.6058 39.0648C72.9616 40.7926 71.9481 40.9953 71.457 40.7427C70.9028 40.4577 70.4053 39.6352 70.4053 39.6352ZM71.7695 43.9103C71.7695 43.9103 71.2106 43.3918 71.8324 42.9209C71.8324 42.9209 71.7604 43.0726 71.8991 43.2972C71.8991 43.2972 71.5145 43.4356 71.7695 43.9103ZM71.8814 41.8625C71.8814 41.8625 71.9391 41.314 72.5737 41.5295C72.5737 41.5295 72.4175 41.5989 72.3955 41.7369C72.3955 41.7369 72.0916 41.521 71.8814 41.8625ZM72.0239 42.7844C72.0934 42.586 72.2573 42.4856 72.5103 42.4856C72.607 42.4856 72.6995 42.4994 72.7672 42.5099C72.8077 42.5161 72.8491 42.5218 72.8667 42.5218L72.9811 42.5246C73.0154 42.5246 73.023 42.5189 73.0359 42.4984C73.0206 42.4547 72.9434 42.3899 72.8787 42.3652C72.7405 42.3138 72.5828 42.1892 72.5428 42.0288C72.5237 41.9532 72.5232 41.8376 72.6265 41.7201C72.7028 41.634 72.8057 41.5864 72.9172 41.5864C72.9642 41.5866 73.0109 41.5951 73.0549 41.6116C73.2259 41.6745 73.3384 41.8371 73.3418 42.0264C73.3431 42.1425 73.4075 42.3975 73.549 42.4612C73.603 42.4852 73.6614 42.4974 73.7205 42.4968C74.2017 42.4968 74.7783 41.7662 74.784 41.7585L74.8302 41.6991L74.9007 41.7243C74.903 41.7252 75.1246 41.8027 75.4229 41.8027C75.4848 41.8027 75.5467 41.7992 75.6083 41.7922L75.775 41.7722L75.7168 41.9297C75.7097 41.9502 75.5263 42.4301 74.6382 42.8407C74.5725 42.8707 74.5572 42.8983 74.5567 42.9031C74.5572 42.9074 74.5676 42.925 74.5991 42.9402C74.6336 42.947 74.6688 42.9505 74.704 42.9507C74.7497 42.9507 74.7887 42.943 74.8202 42.9283C74.8964 42.8921 75.0112 42.8437 75.1275 42.8437C75.1823 42.8437 75.2328 42.8546 75.2781 42.8761C75.3748 42.9217 75.4405 43.0126 75.4738 43.1463C75.4938 43.2214 75.49 43.3008 75.4632 43.3738C75.4364 43.4467 75.3877 43.5096 75.3238 43.554C75.2489 43.6082 75.1599 43.6368 75.066 43.6368C74.9755 43.6368 74.8864 43.6101 74.8073 43.5592C74.805 43.5578 74.7006 43.4817 74.6568 43.446C74.622 43.4179 74.5668 43.4026 74.4966 43.4026C74.4054 43.4043 74.3153 43.4229 74.2308 43.4573C74.0759 43.5254 73.9507 43.775 73.8777 44.1599C73.8144 44.498 73.6385 44.7383 73.397 44.8187C73.3441 44.8368 73.2886 44.8461 73.2326 44.8463C73.1241 44.8463 73.0259 44.8111 72.9567 44.7473C72.8095 44.6131 72.74 44.4653 72.751 44.3073C72.7719 43.9872 73.1241 43.7422 73.2741 43.638L73.3126 43.6104C73.4871 43.4819 73.6772 43.3002 73.5948 43.1632C73.5728 43.127 73.5128 43.0981 73.4346 43.0852C73.4061 43.0804 73.3746 43.0775 73.3408 43.0775C73.1616 43.0775 72.9734 43.1456 72.8382 43.2597C72.7362 43.3453 72.6047 43.3924 72.468 43.3924C72.3583 43.3924 72.2564 43.362 72.1726 43.3044C72.0053 43.1898 71.9501 42.9952 72.0239 42.784M78.3954 30.6563C78.3954 30.6168 78.3826 30.5797 78.3602 30.5489L78.5079 30.534L78.5579 30.5292L78.5451 30.4827L78.4931 30.2934L78.4812 30.2482L78.4359 30.2652L77.5651 30.5931L78.032 30.5678L78.0043 30.6563C78.0043 30.7605 78.092 30.8451 78.2002 30.8451C78.3083 30.8451 78.3954 30.7605 78.3954 30.6563Z" fill="#FAB93F"/>
<path d="M72.3959 41.7374C72.4178 41.5994 72.5746 41.53 72.5746 41.53C71.9395 41.3146 71.8818 41.863 71.8818 41.863C72.0919 41.5214 72.3959 41.7374 72.3959 41.7374ZM71.8327 42.9214C71.2109 43.3923 71.7698 43.9108 71.7698 43.9108C71.5149 43.4361 71.8995 43.2977 71.8995 43.2977C71.7608 43.0731 71.8327 42.9214 71.8327 42.9214ZM72.8138 44.907C72.6021 44.7443 72.6141 44.5783 72.6141 44.5783C72.2048 45.2304 72.9162 45.5254 72.9162 45.5254C72.5046 45.1676 72.8138 44.907 72.8138 44.907ZM81.7272 43.1731C81.2078 43.4638 81.5866 43.8424 81.5866 43.8424C81.5466 43.5741 81.6347 43.4761 81.7377 43.4356C81.7616 43.4256 81.7865 43.4181 81.812 43.4132C81.7252 43.301 81.7829 43.1445 81.7829 43.1445L81.7272 43.1731ZM84.848 41.5299C84.848 41.5299 85.0047 41.5993 85.027 41.7373C85.027 41.7373 85.3311 41.5214 85.5411 41.8628C85.5411 41.8628 85.4831 41.3144 84.848 41.5299ZM85.5903 42.9214C85.5903 42.9214 85.6622 43.0731 85.5236 43.2977C85.5236 43.2977 85.908 43.4361 85.6526 43.9108C85.6526 43.9108 86.2115 43.3923 85.5903 42.9214Z" fill="#740232"/>
<path d="M84.609 44.9072C84.609 44.9072 84.9182 45.1679 84.5066 45.5256C84.5066 45.5256 85.2184 45.2306 84.8086 44.5785C84.8086 44.5785 84.8205 44.7445 84.609 44.9072ZM77.7414 44.0113C77.9664 43.7193 78.0683 43.3792 78.0683 43.3792C77.6267 43.657 76.8819 43.4244 76.8819 43.4244C76.8819 43.4244 76.9004 43.6232 76.232 43.8948C75.2296 44.3025 74.1762 45.329 75.5522 46.8237C75.5522 46.8237 74.9813 45.1221 75.8661 44.725C75.8661 44.725 76.6327 45.4493 77.7414 44.0113ZM74.4563 33.1282C74.4563 33.1282 73.9065 33.073 73.4324 33.3204C73.4324 33.3204 73.7607 33.8818 74.0947 34.0744C74.0947 34.0744 73.3962 34.4103 73.209 34.6666C73.209 34.6666 73.6454 35.0425 74.2681 35.0819C74.2681 35.0819 73.6234 35.4767 73.4529 35.7869C73.4529 35.7869 73.9356 36.1128 74.5474 36.0039C74.5474 36.0039 73.8831 36.4392 73.8326 36.9191C73.8326 36.9191 74.5164 37.1085 74.9871 36.5462C74.9871 36.5462 74.554 37.2555 74.8132 37.7364C74.8956 37.8901 75.0576 38.0394 75.0576 38.0394C75.4774 37.8406 75.544 37.8225 75.5784 37.3791C75.5945 37.1659 75.5397 37.1342 75.5574 36.6718L75.6136 35.9316C75.6136 35.9316 74.7284 35.7903 74.9389 34.2941C74.9389 34.2941 76.1468 35.0834 76.2778 34.0088C76.4374 32.7029 74.3925 33.3708 74.5269 30.8058C74.5269 30.8058 73.5744 32.5051 74.4563 33.1282Z" fill="#740232"/>
<path d="M74.6069 39.0654C74.6069 39.0654 74.5039 40.5948 72.8864 41.1089C75.7003 41.0418 76.2053 38.9788 76.2053 38.9788C75.9371 38.5964 75.889 38.397 75.889 38.397L75.8451 38.2847C75.656 38.4812 74.948 38.7372 74.948 38.7372C74.948 38.7372 74.5401 38.3937 74.4382 38.2523C74.1637 37.8723 74.1209 37.594 74.1209 37.594C73.6439 37.6059 73.207 37.2035 73.207 37.2035C73.1804 36.7801 73.3599 36.4266 73.3599 36.4266C73.0202 36.2763 72.6696 35.9395 72.6696 35.9395C72.8983 35.4728 73.0474 35.3216 73.0474 35.3216C72.5048 34.9153 72.4852 34.667 72.4852 34.667C72.6196 34.3145 73.1142 33.9682 73.1142 33.9682C72.9017 33.6933 72.7006 33.1557 72.7006 33.1557C73.0917 32.7766 73.4686 32.6634 73.4686 32.6634C73.4091 32.4488 73.4229 32.2433 73.4381 32.0178C73.4381 32.0178 70.2097 30.3914 69.8524 29.3377C69.8524 29.3377 69.7022 30.2715 69.7632 30.8751C69.8167 31.4113 70.677 32.2875 72.7558 33.6319C71.4794 33.443 69.7332 32.7814 69.3516 32.1196C69.3516 32.1196 69.3454 33.0777 69.566 33.6456C69.7452 34.1066 70.649 34.4359 72.6838 35.402C71.68 35.9367 69.8981 35.344 69.3878 34.8464C69.3878 34.8464 69.6708 35.6827 70.0039 36.1965C70.2149 36.5204 71.0592 37.0645 73.0202 36.7834C72.2922 37.6592 70.8957 38.319 69.9481 37.9047C69.9481 37.9047 70.0454 38.7362 70.6208 38.9793C71.0467 39.1586 71.944 39.2727 73.3738 38.2014C72.5109 40.2665 70.4064 39.6358 70.4064 39.6358C70.4064 39.6358 70.9039 40.4583 71.458 40.7432C71.9492 40.9958 72.9627 40.7932 74.6069 39.0654ZM74.7908 41.1746C75.4169 41.5028 76.3645 41.0661 76.3645 41.0661L76.2235 41.4229C75.9733 41.9761 76.3402 42.7021 76.3402 42.7021C76.1439 41.7007 77.2397 40.7868 77.2397 40.7868C77.0815 40.3316 76.6027 39.6646 76.5241 39.5566H76.5227C76.5194 39.5928 76.4697 39.7141 76.2105 40.1103C75.4644 41.2516 74.7908 41.1745 74.7908 41.1745M82.6337 41.1746C82.6337 41.1746 81.9599 41.2517 81.2133 40.1105C80.9541 39.7142 80.9046 39.5929 80.9017 39.5567L80.9012 39.5549C80.8212 39.6648 80.3428 40.3317 80.1846 40.787C80.1846 40.787 81.28 41.7008 81.0841 42.7022C81.0841 42.7022 81.4505 41.9763 81.2009 41.423C81.1766 41.3707 81.0594 41.0662 81.0594 41.0662C81.0594 41.0662 82.0076 41.5028 82.6337 41.1746ZM72.8392 43.2606C72.9811 43.1441 73.1587 43.0797 73.3424 43.0784C73.3736 43.0784 73.4048 43.0809 73.4357 43.0859C73.5139 43.0983 73.5739 43.1278 73.5958 43.164C73.6783 43.301 73.4881 43.4827 73.3137 43.6112L73.2752 43.6388C73.1251 43.7431 72.773 43.988 72.752 44.3081C72.741 44.4661 72.8106 44.614 72.9578 44.7481C73.027 44.8118 73.1251 44.847 73.2337 44.847C73.2896 44.8467 73.3452 44.8374 73.3981 44.8193C73.6396 44.739 73.815 44.4987 73.8788 44.1605C73.9517 43.7757 74.077 43.5254 74.2319 43.4575C74.3165 43.4235 74.4065 43.4051 74.4977 43.4033C74.5678 43.4033 74.6231 43.418 74.6578 43.4466L74.8088 43.5599C74.8875 43.6103 74.9765 43.637 75.067 43.637C75.1596 43.6376 75.2499 43.6088 75.3249 43.5547C75.3887 43.5103 75.4373 43.4475 75.4641 43.3746C75.4909 43.3018 75.4947 43.2225 75.4749 43.1474C75.4416 43.0132 75.3759 42.9224 75.2792 42.8767C75.2339 42.8553 75.1834 42.8443 75.1285 42.8443C75.0123 42.8443 74.8975 42.8928 74.8213 42.929C74.7898 42.9437 74.7508 42.9514 74.705 42.9514C74.6698 42.9512 74.6347 42.9477 74.6001 42.9409C74.5687 42.9257 74.5583 42.908 74.5578 42.9037C74.5583 42.899 74.5736 42.8718 74.6393 42.8414C75.5274 42.4309 75.7108 41.9504 75.7179 41.9304L75.7761 41.7729L75.6093 41.7929C75.5478 41.7998 75.4859 41.8033 75.4239 41.8033C75.1257 41.8033 74.9041 41.7258 74.9018 41.7249L74.8313 41.6997L74.7851 41.7591C74.7798 41.7667 74.2028 42.498 73.7211 42.498C73.6601 42.498 73.6025 42.4856 73.5501 42.4618C73.4086 42.3981 73.3442 42.1426 73.3424 42.027C73.3394 41.8377 73.227 41.675 73.056 41.6123C73.0119 41.5957 72.9653 41.5872 72.9183 41.5871C72.8068 41.5871 72.7038 41.6347 72.6276 41.7208C72.5243 41.8383 72.5248 41.9534 72.5438 42.03C72.5838 42.1897 72.7415 42.3145 72.8802 42.3658C72.9445 42.3906 73.0217 42.4552 73.0374 42.4991C73.024 42.5195 73.0165 42.5253 72.9822 42.5253L72.8673 42.5225C72.8502 42.5225 72.8087 42.5167 72.7682 42.5105C72.7006 42.5 72.6081 42.4863 72.5114 42.4863C72.2584 42.4863 72.095 42.5866 72.0254 42.785C71.9512 42.9962 72.0064 43.1908 72.1736 43.3059C72.2574 43.363 72.3594 43.3934 72.4691 43.3934C72.6058 43.3934 72.7373 43.3462 72.8392 43.2606ZM75.6356 43.4599C75.7384 43.5008 75.8266 43.5989 75.7866 43.8667C75.7866 43.8667 76.1648 43.4885 75.6456 43.1978L75.5898 43.1693C75.5898 43.1693 75.6474 43.3258 75.5612 43.4376C75.5612 43.4376 75.5926 43.4427 75.6356 43.4599ZM81.1914 43.8947C80.5225 43.623 80.5415 43.4242 80.5415 43.4242C80.5415 43.4242 79.7969 43.6568 79.3557 43.3791C79.3557 43.3791 79.4567 43.7192 79.6815 44.0112C80.7897 45.4493 81.5568 44.7247 81.5568 44.7247C82.4421 45.122 81.8704 46.8235 81.8704 46.8235C83.2473 45.3289 82.1938 44.3024 81.1914 43.8947ZM82.4845 34.294C82.695 35.7902 81.8094 35.9315 81.8094 35.9315C81.8094 35.9315 81.8522 36.2925 81.8661 36.6716C81.8832 37.134 81.8289 37.1658 81.8451 37.3789C81.8794 37.8223 81.9461 37.8405 82.3658 38.0392C82.3658 38.0392 82.5273 37.8899 82.6102 37.7362C82.8689 37.2553 82.4363 36.5461 82.4363 36.5461C82.9071 37.1083 83.5908 36.919 83.5908 36.919C83.5398 36.439 82.8762 36.0038 82.8762 36.0038C83.4883 36.1127 83.9701 35.7868 83.9701 35.7868C83.7995 35.4766 83.1549 35.0818 83.1549 35.0818C83.7775 35.0423 84.2145 34.6665 84.2145 34.6665C84.0272 34.4102 83.3278 34.0743 83.3278 34.0743C83.6623 33.8817 83.991 33.3202 83.991 33.3202C83.5165 33.0729 82.9666 33.1281 82.9666 33.1281C83.849 32.5049 82.8966 30.8057 82.8966 30.8057C83.0309 33.3707 80.9861 32.7028 81.1456 34.0087C81.2767 35.0833 82.4845 34.294 82.4845 34.294ZM84.7228 33.1557C84.7228 33.1557 84.5228 33.6933 84.3103 33.9682C84.3103 33.9682 84.8048 34.3145 84.9392 34.667C84.9392 34.667 84.9197 34.9153 84.377 35.3216C84.377 35.3216 84.5261 35.4728 84.7543 35.9395C84.7543 35.9395 84.4041 36.2763 84.0639 36.4266C84.0639 36.4266 84.2445 36.7805 84.2173 37.2035C84.2173 37.2035 83.7804 37.6059 83.3031 37.594C83.3031 37.594 83.2601 37.8723 82.9862 38.2523C82.8842 38.3937 82.476 38.7372 82.476 38.7372C82.476 38.7372 81.7679 38.4812 81.5797 38.2847L81.5354 38.397C81.5354 38.397 81.4877 38.5964 81.2195 38.9788C81.2195 38.9788 81.7236 41.042 84.538 41.1089C82.9204 40.5947 82.8175 39.0654 82.8175 39.0654C84.4618 40.7932 85.4748 40.9958 85.9664 40.7432C86.5205 40.4583 87.0179 39.6358 87.0179 39.6358C87.0179 39.6358 84.9134 40.2665 84.0506 38.2014C85.4808 39.2727 86.3781 39.1586 86.8035 38.9793C87.3781 38.7362 87.4763 37.9042 87.4763 37.9042C86.5286 38.319 85.1316 37.6587 84.4041 36.7834C86.3651 37.0645 87.2094 36.5204 87.4201 36.1965C87.754 35.6827 88.0362 34.8464 88.0362 34.8464C87.5263 35.344 85.7443 35.9362 84.74 35.402C86.7755 34.4359 87.6793 34.1066 87.8584 33.6456C88.0785 33.0777 88.0723 32.1196 88.0723 32.1196C87.6916 32.7814 85.944 33.443 84.668 33.6319C86.7473 32.2875 87.6078 31.4113 87.6616 30.8751C87.7216 30.2715 87.5721 29.3377 87.5721 29.3377C87.2142 30.3914 83.9862 32.0178 83.9862 32.0178C84.0015 32.2433 84.0154 32.4483 83.9549 32.6629C83.9549 32.6629 84.3326 32.7766 84.7228 33.1557ZM84.9134 42.4862C84.8187 42.4862 84.7262 42.4999 84.6562 42.5104C84.619 42.5161 84.5837 42.5218 84.5418 42.5218C84.5385 42.5218 84.4423 42.5251 84.4423 42.5251C84.4098 42.5251 84.4008 42.5204 84.3888 42.4966C84.4026 42.4552 84.4793 42.391 84.5437 42.3663C84.6728 42.3179 84.8382 42.2003 84.8805 42.0291C84.8962 41.9673 84.9058 41.845 84.7962 41.7204C84.7195 41.6348 84.6166 41.5872 84.5056 41.5872C84.4585 41.5873 84.4119 41.5958 84.3679 41.6124C84.1969 41.6756 84.0849 41.8379 84.0816 42.0272C84.0801 42.147 84.0172 42.3977 83.8747 42.4619C83.8207 42.4858 83.7623 42.4982 83.7032 42.4981C83.2216 42.4981 82.645 41.7669 82.6393 41.7593L82.5932 41.6998L82.5226 41.725C82.5207 41.7255 82.2915 41.8035 81.9976 41.8035C81.9366 41.8034 81.8757 41.7999 81.8151 41.793L81.6483 41.773L81.7064 41.9305C81.7136 41.9504 81.8971 42.4309 82.7852 42.8415C82.8504 42.8715 82.8657 42.8986 82.8661 42.9039C82.8666 42.9091 82.8557 42.9258 82.8394 42.9348C82.8257 42.9386 82.7756 42.951 82.718 42.951C82.6727 42.951 82.634 42.9438 82.6035 42.9291C82.5269 42.8929 82.4116 42.8444 82.2948 42.8444C82.2432 42.8439 82.1922 42.8548 82.1453 42.8763C82.0486 42.922 81.9823 43.0133 81.9489 43.1475C81.9099 43.3045 81.9681 43.4605 82.1 43.5553C82.1748 43.6086 82.2644 43.6371 82.3563 43.6366C82.4478 43.6366 82.5383 43.6095 82.6207 43.5567C82.6207 43.5567 82.7237 43.4816 82.7661 43.4469C82.8014 43.4184 82.8566 43.4035 82.9271 43.4035C83.0178 43.4055 83.1074 43.4237 83.1916 43.4574C83.3478 43.5263 83.4731 43.7761 83.545 44.1609C83.6089 44.4991 83.7842 44.7398 84.0263 44.8202C84.0801 44.8382 84.1359 44.8474 84.1906 44.8474C84.2993 44.8474 84.397 44.8122 84.4665 44.7484C84.6138 44.6138 84.6828 44.4658 84.6723 44.3084C84.651 43.9877 84.2979 43.7428 84.1473 43.6381L84.1096 43.6114C83.9352 43.4824 83.7452 43.3007 83.8285 43.1642C83.8505 43.1281 83.91 43.0986 83.9887 43.0862C84.0197 43.0811 84.051 43.0785 84.0824 43.0785C84.266 43.08 84.4435 43.1441 84.5856 43.2602C84.6872 43.3463 84.8187 43.3934 84.9554 43.3934C85.0644 43.3934 85.1669 43.363 85.2503 43.3059C85.4175 43.1908 85.4733 42.9962 85.3989 42.785C85.3294 42.5866 85.1659 42.4862 84.9134 42.4862Z" fill="#740232"/>
<path d="M81.3352 45.5502C79.7091 45.7209 78.9878 44.0736 78.9878 44.0736C78.882 44.1764 78.7958 44.1921 78.711 44.2325C78.6266 44.1921 78.5433 44.1764 78.4369 44.0736C78.4369 44.0736 77.7156 45.7209 76.09 45.5502C76.09 45.5502 76.1844 45.9013 76.828 45.9407C76.828 45.9407 75.7265 46.4341 76.3592 46.9321C76.7742 47.2585 77.102 46.3432 77.102 46.3432C77.102 46.3432 77.151 47.1824 77.9 47.1895C77.9 47.1895 76.7865 46.5596 77.9495 45.0845C77.8371 46.1196 78.2097 47.0824 78.7124 47.0824C79.215 47.0824 79.5881 46.1196 79.4756 45.0845C80.6382 46.5596 79.5252 47.1895 79.5252 47.1895C80.2742 47.1823 80.3232 46.3432 80.3232 46.3432C80.3232 46.3432 80.6506 47.2585 81.0656 46.9321C81.6979 46.4341 80.5967 45.9407 80.5967 45.9407C81.2409 45.9013 81.3352 45.5502 81.3352 45.5502ZM76.1844 31.6577C76.3721 31.781 76.4273 31.76 76.5411 31.7662C76.6488 31.7723 78.1473 31.7291 78.3084 31.7276C78.2717 31.8366 78.3059 32.1177 77.9772 32.1439L76.7428 32.1444C76.7428 32.1444 76.706 32.4445 77.1882 32.3133C77.2887 32.2861 77.6133 32.2024 77.7108 32.3707C77.7757 32.4825 77.9963 32.857 77.2687 32.9611C77.2687 32.9611 78.3346 33.0287 78.4184 32.1453C78.4184 32.1453 78.5023 32.8089 78.7119 32.8113C78.9506 32.8089 78.9506 32.1187 78.9506 32.1187C79.3175 33.0639 80.2394 33.1238 80.2394 33.1238C79.4642 32.6092 79.509 31.2277 79.5152 31.124C79.5604 30.4319 80.1794 30.4956 80.226 30.0874C80.2918 29.5185 79.5824 29.6403 79.5824 29.6403C79.5824 29.6403 79.883 29.6426 79.9378 29.7825C80.0655 30.107 79.4889 30.1455 79.4889 30.1455C78.7853 30.3219 78.5442 29.9191 78.2892 29.8734C78.0343 29.8277 77.9877 29.9899 77.9334 30.0484C77.8805 30.107 76.7956 30.1679 76.5698 30.3985C76.3106 30.6625 76.3382 30.9742 76.5164 31.1706C76.5164 31.1706 76.6155 30.801 77.0267 30.7872C77.4236 30.7733 78.1182 31.2886 78.2722 31.5896C78.0977 31.5973 76.546 31.6924 76.3454 31.5497C76.2177 31.4589 76.0729 31.2729 76.08 31.1501C76.08 31.1501 75.9967 31.535 76.1844 31.6577ZM78.2017 30.8452C78.093 30.8452 78.0058 30.7606 78.0058 30.6563L78.0335 30.5679L77.5666 30.5926L78.4374 30.2653L78.4827 30.2482L78.4946 30.2934L78.5466 30.4828L78.5594 30.5293L78.5094 30.5345L78.3617 30.5493C78.3846 30.5803 78.3969 30.6178 78.3969 30.6563C78.3969 30.7606 78.3097 30.8452 78.2017 30.8452ZM80.106 33.6966C79.8401 33.6785 79.2912 33.5515 79.1088 33.3212C79.1088 33.3212 78.983 33.5096 78.7138 33.5877C78.4417 33.5144 78.3369 33.3265 78.3369 33.3265C78.1173 33.5568 77.6223 33.6785 77.3279 33.7056C76.6856 35.3368 75.2824 36.3325 76.5716 38.5455C77.9158 40.8521 78.8887 41.1666 77.0115 42.7473C77.0115 42.7473 78.2117 43.0702 78.4884 42.067C78.4884 42.067 78.4332 43.1568 78.7124 43.4485C78.992 43.1569 78.9335 42.0513 78.9335 42.0513C79.2102 43.0555 80.4104 42.7321 80.4104 42.7321C78.5337 41.1513 79.5066 40.8368 80.8511 38.5298C82.14 36.3173 80.7488 35.3278 80.106 33.6966ZM80.4762 37.0375C80.4581 37.0832 80.4339 37.1269 80.4037 37.1683C80.2013 37.4485 79.8721 37.4855 79.6358 37.399C79.5024 37.3495 79.4494 37.3148 79.3989 37.2776L79.3852 37.2676L79.3022 37.2102V37.9618L79.3952 37.889L79.5133 38.0455L79.5233 38.0589C79.5619 38.1078 79.5966 38.1587 79.6481 38.288C79.7381 38.5164 79.7001 38.8347 79.4099 39.0302C79.367 39.0592 79.3217 39.0825 79.2746 39.1006C79.2227 39.2523 79.1283 39.4188 78.8238 39.5663L78.7391 39.6067L78.6543 39.5663C78.3464 39.4174 78.2531 39.249 78.2035 39.1006C78.1559 39.0825 78.1107 39.0592 78.0682 39.0302C77.7785 38.8347 77.7395 38.5164 77.8295 38.288C77.881 38.1587 77.9167 38.1078 77.9548 38.0589L77.9653 38.0455L78.0835 37.8865L78.1759 37.9608V37.2059L78.0872 37.2676L78.073 37.2776C78.0225 37.3148 77.97 37.3495 77.8357 37.399C77.5994 37.4855 77.2707 37.4485 77.0682 37.1683C77.0387 37.1277 77.0144 37.0836 76.9957 37.037C76.8385 36.9876 76.6665 36.8962 76.5141 36.6018L76.4716 36.5199L76.5141 36.4376C76.668 36.1403 76.8423 36.0498 76.9957 36.0019C77.0143 35.9562 77.0387 35.9125 77.0682 35.8711C77.2707 35.5909 77.5994 35.5537 77.8357 35.6408C77.9282 35.6745 77.982 35.7012 78.0225 35.7269L77.9653 35.6498L77.9548 35.6365C77.9167 35.5876 77.881 35.5367 77.8295 35.4072C77.7395 35.1789 77.7785 34.8611 78.0682 34.6646C78.1105 34.6362 78.1559 34.6128 78.2035 34.5947C78.255 34.443 78.3494 34.2765 78.6543 34.1295L78.7391 34.0881L78.8238 34.1295C79.1317 34.2784 79.225 34.4462 79.2746 34.5947C79.3222 34.6129 79.3676 34.6363 79.4099 34.6646C79.7001 34.8611 79.7381 35.1789 79.6481 35.4072C79.5966 35.5367 79.5619 35.5876 79.5233 35.6365L79.5133 35.6498L79.4609 35.7197C79.5004 35.6964 79.5519 35.6717 79.6358 35.6408C79.8721 35.5537 80.2013 35.5909 80.4037 35.8711C80.4339 35.9125 80.4581 35.9562 80.4762 36.0024C80.6334 36.0518 80.8054 36.1431 80.9579 36.4376L81.0003 36.5199L80.9579 36.6018C80.804 36.8995 80.6301 36.9894 80.4762 37.0375ZM80.087 36.3291C80.1184 36.2621 80.1293 36.1716 80.0636 36.0813C79.9663 35.9472 79.8216 35.9595 79.7586 35.9847L79.7201 36.0004L79.7458 36.0318C79.7458 36.0323 79.7748 36.0685 79.7796 36.1194C79.7844 36.1683 79.7796 36.2412 79.6868 36.3091C79.6406 36.3435 79.5161 36.3482 79.4714 36.3477H78.9192V35.5452C78.9182 35.5023 78.9235 35.382 78.9587 35.3373C79.0292 35.2478 79.105 35.2431 79.156 35.2474C79.2069 35.2518 79.245 35.2802 79.2455 35.2802L79.2779 35.3059L79.2942 35.2679C79.3209 35.2074 79.3332 35.0666 79.1945 34.9729C79.1007 34.9096 79.0078 34.9201 78.9382 34.9505C78.9968 34.7179 78.7638 34.5547 78.7615 34.5533L78.7528 34.5476H78.7424H78.7328L78.7248 34.5533C78.7214 34.5547 78.4889 34.7179 78.5476 34.9505C78.4779 34.9201 78.3846 34.9096 78.2912 34.9729C78.152 35.0666 78.1649 35.2074 78.1912 35.2679L78.2074 35.3054L78.2397 35.2802C78.2402 35.2802 78.2779 35.2522 78.3302 35.2474C78.3807 35.2431 78.4566 35.2478 78.5271 35.3373C78.5614 35.3805 78.5666 35.4923 78.5651 35.537L78.5646 35.539V35.5442V36.3477H77.9863C77.9425 36.3482 77.8181 36.3435 77.7718 36.3091C77.679 36.2412 77.6743 36.1683 77.6785 36.1194C77.6822 36.088 77.6938 36.058 77.7123 36.0323L77.739 36.0004L77.6999 35.9847C77.6375 35.9595 77.4922 35.9472 77.3949 36.0813C77.3297 36.1716 77.3397 36.2621 77.3716 36.3291C77.1315 36.2726 76.9624 36.4975 76.961 36.5004L76.9552 36.5085V36.5185V36.528L76.961 36.5361C76.9624 36.5389 77.1315 36.7635 77.3716 36.7073C77.3397 36.7744 77.3297 36.8648 77.3949 36.9547C77.4922 37.0889 77.6375 37.0765 77.6999 37.0517L77.7385 37.036L77.7133 37.0046C77.694 36.9791 77.682 36.9489 77.6785 36.9172C77.6743 36.8681 77.679 36.7954 77.7718 36.7268C77.8166 36.6939 77.932 36.6888 77.9787 36.6892L77.9805 36.6902H77.9858H78.5646V38.1425L78.5651 38.1487V38.1492C78.5666 38.1934 78.5614 38.3052 78.5271 38.3484C78.4566 38.4384 78.3807 38.4432 78.3302 38.4389C78.2779 38.4342 78.2402 38.4061 78.2402 38.4061L78.2074 38.3804L78.1912 38.418C78.1649 38.4794 78.152 38.6192 78.2912 38.7134C78.3846 38.7761 78.4779 38.7657 78.5476 38.7357C78.4889 38.9678 78.7214 39.131 78.7248 39.133L78.7328 39.1387H78.7428H78.7528L78.7615 39.133C78.7638 39.131 78.9968 38.9678 78.9382 38.7357C79.0078 38.7657 79.1007 38.7761 79.1945 38.7134C79.3332 38.6192 79.3209 38.4794 79.2942 38.418L79.2784 38.3808L79.2455 38.4061C79.245 38.4061 79.2074 38.4342 79.156 38.4389C79.1045 38.4437 79.0292 38.4384 78.9583 38.3484C78.9235 38.3042 78.9182 38.1839 78.9192 38.1406V36.6902H79.4728L79.4799 36.6892C79.5266 36.6888 79.6419 36.6939 79.6868 36.7268C79.7796 36.7949 79.7844 36.8681 79.7796 36.9172C79.7748 36.9676 79.7458 37.0041 79.7458 37.0041L79.7196 37.036L79.7586 37.0517C79.8216 37.0765 79.9663 37.0889 80.0636 36.9547C80.1293 36.8648 80.1184 36.7744 80.087 36.7073C80.3275 36.7635 80.4957 36.5389 80.4977 36.5361L80.5039 36.5275V36.518V36.5085L80.4977 36.5004C80.4957 36.4975 80.3275 36.2726 80.087 36.3291Z" fill="#740232"/>
<path d="M78.7209 28.7983H89.1876V23.0194H68.2051V28.7983H78.6713H78.7209ZM83.9042 25.0379L84.5332 25.1687L84.6527 24.8443L85.0196 25.2463L84.9134 24.2072L85.2993 24.5156L85.7137 23.734L86.1288 24.5156L86.5142 24.2072L86.408 25.2463L86.7752 24.8443L86.8944 25.1687L87.5238 25.0379L87.3503 25.691L87.649 25.7809L86.6657 26.6809L86.8797 27.0124L85.9039 26.933C85.8796 27.0206 85.8257 27.2512 85.8444 27.5249C85.8572 27.7223 85.9519 27.784 86.0282 27.8341L86.1898 27.9444H85.2388L85.4012 27.8326C85.4789 27.7822 85.5755 27.7199 85.5832 27.5262C85.5942 27.2527 85.545 27.0221 85.5222 26.933L84.5479 27.0124L84.7619 26.6809L83.7784 25.7809L84.0771 25.691L83.9042 25.0379ZM72.79 27.0124L71.8157 26.933C71.7932 27.0225 71.7442 27.2527 71.7552 27.5267C71.7627 27.7199 71.8595 27.7827 71.9372 27.8326L72.1006 27.9444H71.1491L71.3101 27.8341C71.386 27.784 71.4807 27.7223 71.494 27.5252C71.5127 27.2512 71.4588 27.0206 71.4345 26.933L70.4588 27.0124L70.6732 26.6809L69.6892 25.7809L69.9876 25.691L69.8151 25.0379L70.4445 25.1687L70.563 24.8443L70.9299 25.2463L70.8237 24.2072L71.2096 24.5156L71.6247 23.734L72.0396 24.5156L72.4255 24.2072L72.3188 25.2463L72.6862 24.8443L72.8047 25.1687L73.4338 25.0379L73.2613 25.691L73.56 25.7809L72.576 26.6809L72.79 27.0124ZM78.122 28.0163L78.1082 28.0448H75.015V24.583H75.6301V24.0717L76.1299 24.0702C76.139 24.0707 76.7798 24.0969 77.1024 23.9704C77.7113 23.7306 78.1902 23.7111 78.5164 23.9023C78.5336 23.9123 78.5508 23.9227 78.5671 23.9337C78.5803 23.9427 78.5956 23.9494 78.6079 23.9594C78.6108 23.9613 78.6132 23.9637 78.6161 23.9656C78.6613 24.0018 78.7028 24.0422 78.7404 24.0884C78.79 24.028 78.8476 23.9794 78.91 23.9361C78.9272 23.9237 78.9453 23.9128 78.9638 23.9023C79.2907 23.7106 79.7701 23.7306 80.378 23.9704C80.7006 24.0974 81.3414 24.0702 81.348 24.0702L81.8503 24.0717V24.583H82.4657V28.0448H79.3717L79.3579 28.0158C79.356 28.0115 79.1402 27.5719 78.7413 27.5719H78.7366C78.3421 27.5753 78.1244 28.0115 78.122 28.0163Z" fill="#46505C"/>
<path d="M73.2619 25.6909L73.434 25.0378L72.805 25.1686L72.6859 24.8442L72.319 25.2462L72.4258 24.2071L72.0398 24.5155L71.6249 23.7339L71.2098 24.5155L70.8239 24.2071L70.9306 25.2462L70.5633 24.8442L70.4447 25.1686L69.8153 25.0378L69.9878 25.6909L69.6895 25.7808L70.6734 26.6809L70.459 27.0124L71.4347 26.933C71.459 27.0205 71.5129 27.2512 71.4943 27.5252C71.4815 27.7222 71.3862 27.784 71.3103 27.834L71.1493 27.9448H72.1008L71.9374 27.8325C71.8597 27.7826 71.763 27.7198 71.7554 27.5261C71.7444 27.2526 71.7935 27.0225 71.8159 26.933L72.7902 27.0124L72.5763 26.6809L73.5602 25.7808L73.2619 25.6909ZM84.7621 26.6809L84.5481 27.0124L85.5225 26.933C85.5449 27.022 85.5944 27.2526 85.5834 27.5261C85.5758 27.7198 85.4792 27.7821 85.4019 27.8325L85.2385 27.9443H86.19L86.0284 27.834C85.9522 27.7844 85.8574 27.7222 85.8446 27.5248C85.8319 27.3256 85.8522 27.1256 85.9046 26.933L86.8799 27.0124L86.6659 26.6809L87.6493 25.7808L87.3506 25.6909L87.524 25.0378L86.8946 25.1686L86.7755 24.8442L86.4082 25.2462L86.5145 24.2071L86.1285 24.5155L85.7139 23.7339L85.2995 24.5155L84.9136 24.2071L85.0198 25.2462L84.6529 24.8442L84.5334 25.1686L83.9044 25.0378L84.0773 25.6909L83.7786 25.7808L84.7621 26.6809Z" fill="#FAB93F"/>
<path d="M78.742 27.5718C79.1408 27.5718 79.3566 28.0114 79.3585 28.0157L79.3723 28.0447H82.4664V24.583H81.8509V27.5281L81.7999 27.5286C81.7622 27.5286 80.8732 27.5376 80.6845 27.5162C80.5653 27.5024 80.3848 27.4353 80.1756 27.3574C79.7878 27.2127 79.2846 27.0262 78.9645 27.1123C78.9454 27.1176 78.9269 27.1233 78.9092 27.1304C78.884 27.1403 78.863 27.1565 78.8411 27.1713C78.8323 27.177 78.8235 27.1829 78.8149 27.1889C78.803 27.1984 78.7882 27.2037 78.7777 27.2146L78.741 27.2516L78.7044 27.2146C78.6662 27.1755 78.619 27.149 78.568 27.129C78.5519 27.1228 78.5343 27.1181 78.5171 27.1133C78.1969 27.0267 77.6942 27.2127 77.3065 27.3574C77.0973 27.4353 76.9162 27.5024 76.7971 27.5162C76.6957 27.5281 76.3922 27.5304 76.1273 27.5309L75.6822 27.5286L75.6307 27.5281V24.583H75.0156V28.0447H78.1088L78.1226 28.0162C78.125 28.0114 78.3428 27.5752 78.7372 27.5718H78.742Z" fill="#740232"/>
<path d="M75.9263 24.3656L76.125 24.3651L76.2817 24.3676C76.5628 24.3676 76.9521 24.3461 77.2117 24.2443C77.5096 24.1273 77.7706 24.0679 77.988 24.0679C78.1565 24.0679 78.2952 24.1045 78.4005 24.1767L78.4362 24.1992C78.4642 24.2216 78.4898 24.247 78.5124 24.2748L78.5172 24.2805V23.9023C78.1909 23.7111 77.7121 23.7305 77.1032 23.9703C76.7806 24.0969 76.1397 24.0707 76.1307 24.0702L75.6309 24.0717V24.583H75.9263V24.3656Z" fill="#FAB93F"/>
<path d="M75.6823 27.5287L76.1274 27.531L76.7973 27.5163C76.9168 27.5025 77.0974 27.4354 77.3066 27.3575C77.6944 27.2128 78.197 27.0268 78.5172 27.1134V26.8113C78.4596 26.8013 78.3982 26.7961 78.3334 26.7961C77.9683 26.7961 77.5443 26.954 77.2032 27.081C77.0279 27.1462 76.8468 27.2138 76.7635 27.2233C76.731 27.227 76.6043 27.2357 76.1274 27.2361L75.9263 27.2357V24.5831H75.6309V27.5282L75.6823 27.5287Z" fill="#FAB93F"/>
<path d="M78.7415 24.5544L78.965 24.2809V23.9022L78.9112 23.936C78.8487 23.9793 78.7912 24.0279 78.7415 24.0883C78.704 24.0421 78.6625 24.0017 78.6172 23.9655C78.6143 23.9636 78.612 23.9617 78.6091 23.9593C78.5967 23.9493 78.5815 23.9426 78.5682 23.9336L78.5176 23.9022V24.2804L78.7415 24.5544Z" fill="#740232"/>
<path d="M78.9701 24.2743C78.9968 24.2424 79.0316 24.2115 79.0797 24.1777C79.185 24.1045 79.3247 24.0674 79.4942 24.0674C79.7115 24.0674 79.9726 24.1268 80.2708 24.2443C80.5291 24.3462 80.9188 24.3676 81.2 24.3676L81.3529 24.3652L81.5559 24.3656V24.583H81.8513V24.0717L81.349 24.0702C81.3424 24.0702 80.7016 24.0974 80.379 23.9703C79.7711 23.7306 79.2917 23.7106 78.9648 23.9023V24.281L78.9701 24.2743ZM81.5559 27.2356C81.4962 27.2356 81.4292 27.236 81.359 27.236L80.7187 27.2237C80.6354 27.2137 80.4542 27.1461 80.279 27.081C79.9378 26.954 79.5129 26.7955 79.1488 26.7955C79.084 26.7955 79.023 26.8008 78.9648 26.8107V27.1124C79.285 27.0263 79.7881 27.2127 80.1755 27.3574C80.3852 27.4354 80.5657 27.5025 80.6849 27.5162C80.8736 27.5376 81.7626 27.5286 81.8003 27.5286L81.8513 27.5281V24.583H81.5559V27.2356Z" fill="#FAB93F"/>
<path d="M78.7992 26.8569C78.7782 26.8654 78.7597 26.875 78.743 26.8841L78.6753 26.8546C78.6267 26.8355 78.5738 26.8212 78.5176 26.8112V27.1134L78.5682 27.1291C78.6196 27.149 78.6668 27.1756 78.7049 27.2147L78.7415 27.2517L78.7782 27.2147C78.7887 27.2037 78.8035 27.1985 78.8154 27.189L78.8417 27.1713C78.8635 27.1566 78.8845 27.1404 78.9097 27.1304C78.9274 27.1234 78.9459 27.1176 78.965 27.1124V26.8107C78.9059 26.8207 78.8507 26.8364 78.7992 26.8569Z" fill="#740232"/>
<path d="M78.9648 26.8108C79.023 26.8008 79.084 26.7956 79.1488 26.7956C79.5129 26.7956 79.9378 26.954 80.279 27.0811L80.7187 27.2233C80.7511 27.2271 80.8793 27.2361 81.359 27.2361L81.5564 27.2357V24.5831V24.3657L81.3529 24.3652L81.2 24.3677C80.9188 24.3677 80.5291 24.3462 80.2708 24.2444C79.9726 24.1269 79.7115 24.0675 79.4942 24.0675C79.3247 24.0675 79.185 24.1046 79.0797 24.1778C79.0311 24.2116 78.9963 24.2425 78.9701 24.2744L78.9648 24.2811V26.8108Z" fill="#FAB93F"/>
<path d="M78.743 26.884L78.7992 26.8569C78.8507 26.8364 78.9059 26.8207 78.965 26.8107V24.583V24.281L78.7415 24.5545L78.5176 24.2805V24.583V26.8112C78.5716 26.8205 78.6246 26.835 78.6758 26.8546L78.743 26.884Z" fill="#740232"/>
<path d="M78.5167 24.2806L78.5119 24.2749C78.4893 24.2471 78.4637 24.2217 78.4357 24.1992L78.4 24.1768C78.2947 24.1046 78.156 24.068 77.9875 24.068C77.7701 24.068 77.5091 24.1274 77.2112 24.2444C76.9516 24.3462 76.5624 24.3677 76.2812 24.3677L76.1245 24.3652L75.9258 24.3657V24.5831V27.2357L76.1269 27.2361L76.763 27.2233C76.8463 27.2138 77.0274 27.1462 77.2027 27.0811C77.5439 26.954 77.9678 26.7961 78.3329 26.7961C78.3977 26.7961 78.4591 26.8013 78.5167 26.8113V24.2806Z" fill="#FAB93F"/>
<path d="M105.872 52.0002H105.262V0.00432968H105.872V52.0002Z" fill="#46505C"/>
<path d="M123.218 14.9233V18.2399H127.128V19.7521H123.218V23.2148H127.616V24.7271H121.363V13.4115H127.616V14.9233H123.218ZM136.01 16.0612C136.568 16.3537 137.005 16.788 137.32 17.3622C137.635 17.9369 137.793 18.6299 137.793 19.4429V24.7271H135.952V19.7194C135.952 18.9173 135.751 18.3022 135.35 17.874C134.948 17.4458 134.4 17.2324 133.706 17.2324C133.01 17.2324 132.46 17.4465 132.053 17.874C131.645 18.3016 131.442 18.9173 131.442 19.7194V24.7271H129.585V15.7686H131.442V16.7932C131.745 16.4246 132.133 16.1373 132.607 15.9317C133.077 15.7258 133.581 15.6225 134.112 15.6225C134.818 15.6225 135.451 15.7686 136.01 16.0612ZM146.42 18.6299C146.165 18.1752 145.831 17.8284 145.418 17.5895C145.013 17.3534 144.552 17.2301 144.083 17.2324C143.605 17.2324 143.161 17.3484 142.747 17.5815C142.335 17.8146 142.002 18.1562 141.747 18.6057C141.492 19.0552 141.363 19.5889 141.363 20.207C141.363 20.825 141.492 21.3672 141.747 21.8329C142.002 22.2985 142.338 22.6539 142.756 22.8975C143.174 23.141 143.616 23.2633 144.083 23.2633C144.561 23.2633 145.006 23.1444 145.418 22.9061C145.831 22.6678 146.165 22.3181 146.42 21.8571C146.675 21.396 146.802 20.8576 146.802 20.2397C146.802 19.6218 146.675 19.0857 146.42 18.6299ZM145.54 16.0368C146.078 16.3133 146.498 16.6577 146.802 17.0692V15.7686H148.675V24.8731C148.675 25.6976 148.501 26.431 148.154 27.0771C147.807 27.7217 147.305 28.2283 146.647 28.5964C145.991 28.9656 145.206 29.1497 144.295 29.1497C143.079 29.1497 142.07 28.8643 141.265 28.2959C140.463 27.7264 140.007 26.9543 139.898 25.9791H141.739C141.879 26.4453 142.18 26.8211 142.642 27.1089C143.103 27.3958 143.654 27.5395 144.295 27.5395C145.044 27.5395 145.649 27.312 146.11 26.8568C146.571 26.4016 146.802 25.7398 146.802 24.8731V23.3775C146.488 23.8003 146.061 24.1553 145.525 24.4426C144.987 24.7289 144.376 24.8731 143.693 24.8731C142.911 24.8731 142.197 24.6757 141.552 24.2794C140.904 23.8841 140.394 23.3314 140.021 22.6211C139.646 21.9119 139.459 21.1064 139.459 20.207C139.459 19.3075 139.646 18.5111 140.021 17.8175C140.394 17.1239 140.904 16.5845 141.552 16.1995C142.197 15.8152 142.911 15.6225 143.693 15.6225C144.387 15.6225 145.004 15.761 145.54 16.0368ZM152.876 15.7686V24.7271H151.018V15.7686H152.876ZM151.117 14.2406C150.889 14.0127 150.774 13.7317 150.774 13.3948C150.774 13.0594 150.889 12.7779 151.117 12.55C151.345 12.3222 151.627 12.2089 151.963 12.2089C152.289 12.2089 152.566 12.3222 152.794 12.55C153.022 12.7779 153.136 13.0594 153.136 13.3948C153.136 13.7317 153.022 14.0127 152.794 14.2406C152.566 14.4684 152.289 14.5817 151.963 14.5817C151.627 14.5817 151.345 14.4686 151.117 14.2406ZM161.643 16.0612C162.203 16.3537 162.64 16.788 162.956 17.3622C163.269 17.9369 163.426 18.6299 163.426 19.4429V24.7271H161.587V19.7194C161.587 18.9173 161.386 18.3022 160.985 17.874C160.582 17.4465 160.034 17.2324 159.34 17.2324C158.645 17.2324 158.094 17.4465 157.686 17.874C157.28 18.3022 157.077 18.9173 157.077 19.7194V24.7271H155.22V15.7686H157.077V16.7932C157.38 16.4246 157.769 16.1373 158.24 15.9317C158.713 15.7258 159.215 15.6225 159.748 15.6225C160.453 15.6225 161.085 15.7686 161.643 16.0612ZM171.975 19.4429C171.964 18.7603 171.72 18.2133 171.242 17.8013C170.765 17.3888 170.174 17.1834 169.468 17.1834C168.827 17.1834 168.28 17.3865 167.823 17.7927C167.367 18.1988 167.095 18.7499 167.01 19.4429H171.975ZM173.848 20.939H166.993C167.046 21.6544 167.314 22.2286 167.791 22.6625C168.269 23.0958 168.854 23.3124 169.549 23.3124C170.548 23.3124 171.253 22.8956 171.666 22.0602H173.67C173.398 22.8847 172.906 23.5587 172.196 24.0845C171.485 24.6105 170.602 24.8731 169.549 24.8731C168.692 24.8731 167.923 24.6809 167.245 24.2956C166.567 23.9118 166.034 23.3694 165.65 22.6701C165.264 21.9713 165.072 21.1608 165.072 20.2397C165.072 19.3187 165.258 18.5081 165.633 17.8089C166.009 17.1101 166.534 16.5706 167.212 16.1915C167.891 15.8124 168.67 15.6225 169.549 15.6225C170.396 15.6225 171.15 15.8067 171.812 16.1753C172.465 16.5352 173.002 17.0739 173.36 17.728C173.729 18.3945 173.913 19.1614 173.913 20.0286C173.913 20.3649 173.89 20.6679 173.848 20.939ZM181.925 19.4429C181.915 18.7603 181.67 18.2133 181.193 17.8013C180.715 17.3888 180.123 17.1834 179.418 17.1834C178.776 17.1834 178.229 17.3865 177.773 17.7927C177.316 18.1988 177.044 18.7499 176.959 19.4429H181.925ZM183.797 20.939H176.942C176.996 21.6544 177.263 22.2286 177.741 22.6625C178.218 23.0958 178.805 23.3124 179.499 23.3124C180.498 23.3124 181.204 22.8956 181.615 22.0602H183.619C183.347 22.8847 182.855 23.5587 182.145 24.0845C181.434 24.6105 180.551 24.8731 179.499 24.8731C178.641 24.8731 177.873 24.6809 177.195 24.2956C176.516 23.9118 175.983 23.3694 175.599 22.6701C175.214 21.9713 175.021 21.1608 175.021 20.2397C175.021 19.3187 175.208 18.5081 175.582 17.8089C175.958 17.1101 176.483 16.5706 177.162 16.1915C177.841 15.8124 178.619 15.6225 179.499 15.6225C180.345 15.6225 181.1 15.8067 181.762 16.1753C182.415 16.5356 182.952 17.0742 183.309 17.728C183.679 18.3945 183.863 19.1614 183.863 20.0286C183.863 20.3649 183.841 20.6679 183.797 20.939ZM188.527 16.0051C188.978 15.7501 189.512 15.6225 190.131 15.6225V17.5406H189.659C188.931 17.5406 188.381 17.7257 188.006 18.0938C187.632 18.462 187.445 19.1014 187.445 20.0119V24.7271H185.587V15.7686H187.445V17.0692C187.715 16.6144 188.077 16.2596 188.527 16.0051ZM193.6 15.7686V24.7271H191.742V15.7686H193.6ZM191.84 14.2406C191.613 14.0127 191.498 13.7317 191.498 13.3948C191.498 13.0594 191.613 12.7779 191.84 12.55C192.069 12.3222 192.351 12.2089 192.687 12.2089C193.013 12.2089 193.29 12.3222 193.517 12.55C193.746 12.7779 193.858 13.0594 193.858 13.3948C193.858 13.7317 193.746 14.0127 193.517 14.2406C193.29 14.4686 193.013 14.5817 192.687 14.5817C192.351 14.5817 192.069 14.4686 191.84 14.2406ZM202.367 16.0612C202.927 16.3537 203.362 16.788 203.678 17.3622C203.993 17.9369 204.15 18.6299 204.15 19.4429V24.7271H202.31V19.7194C202.31 18.9173 202.11 18.3022 201.708 17.874C201.306 17.4465 200.758 17.2324 200.063 17.2324C199.369 17.2324 198.818 17.4465 198.41 17.874C198.004 18.3022 197.8 18.9173 197.8 19.7194V24.7271H195.943V15.7686H197.8V16.7932C198.104 16.4246 198.492 16.1373 198.964 15.9317C199.437 15.7258 199.939 15.6225 200.47 15.6225C201.177 15.6225 201.808 15.7686 202.367 16.0612ZM212.742 18.6299C212.487 18.1752 212.153 17.8284 211.741 17.5895C211.335 17.3534 210.874 17.2301 210.405 17.2324C209.927 17.2324 209.482 17.3484 209.069 17.5815C208.657 17.8146 208.324 18.1562 208.068 18.6057C207.813 19.0558 207.685 19.5889 207.685 20.207C207.685 20.825 207.813 21.3672 208.068 21.8329C208.324 22.299 208.66 22.6539 209.078 22.8975C209.496 23.141 209.938 23.2633 210.405 23.2633C210.883 23.2633 211.328 23.1444 211.741 22.9061C212.153 22.6678 212.487 22.3181 212.742 21.8571C212.997 21.396 213.124 20.8576 213.124 20.2397C213.124 19.6218 212.997 19.0857 212.742 18.6299ZM211.862 16.0368C212.4 16.3133 212.82 16.6577 213.124 17.0692V15.7686H214.997V24.8731C214.997 25.6976 214.823 26.431 214.476 27.0771C214.129 27.7217 213.627 28.2283 212.969 28.5964C212.313 28.9656 211.528 29.1497 210.617 29.1497C209.401 29.1497 208.392 28.8643 207.587 28.2959C206.785 27.7264 206.329 26.9543 206.22 25.9791H208.061C208.201 26.4453 208.502 26.8211 208.963 27.1089C209.425 27.3958 209.976 27.5395 210.617 27.5395C211.366 27.5395 211.971 27.312 212.432 26.8568C212.893 26.4016 213.124 25.7398 213.124 24.8731V23.3775C212.81 23.8003 212.383 24.1553 211.847 24.4426C211.309 24.7289 210.698 24.8731 210.015 24.8731C209.233 24.8731 208.519 24.6757 207.873 24.2794C207.226 23.8841 206.716 23.3314 206.342 22.6211C205.968 21.9119 205.781 21.1064 205.781 20.207C205.781 19.3075 205.968 18.5111 206.342 17.8175C206.716 17.124 207.226 16.5845 207.873 16.1995C208.519 15.8146 209.233 15.6225 210.015 15.6225C210.709 15.6225 211.326 15.761 211.862 16.0368Z" fill="#740232"/>
</g>
<defs>
<clipPath id="clip0_444_10590">
<rect width="215" height="52" fill="white"/>
</clipPath>
</defs>
</svg>
