<svg width="44" height="44" viewBox="0 0 44 44" fill="none" xmlns="http://www.w3.org/2000/svg">
<rect width="44" height="44" fill="#FEFEFE" fill-opacity="0.15"/>
<path d="M22 12C27.52 12 32 16.48 32 22C32 27.52 27.52 32 22 32C16.48 32 12 27.52 12 22C12 16.48 16.48 12 22 12ZM25.2217 25.083C23.0453 23.9677 20.5449 23.7079 18.1875 24.335C17.7873 24.4415 17.5488 24.8527 17.6553 25.2529C17.7618 25.6529 18.1722 25.8913 18.5723 25.7852C20.5746 25.2524 22.6947 25.4724 24.5381 26.417C24.9067 26.6059 25.358 26.4604 25.5469 26.0918C25.7358 25.7232 25.5903 25.2719 25.2217 25.083ZM20.75 20.5C19.4479 20.5 18.187 20.7137 17.0107 21.1094C16.6183 21.2415 16.4071 21.6671 16.5391 22.0596C16.6713 22.4519 17.0968 22.6632 17.4893 22.5312C18.513 22.1869 19.6122 22 20.75 22C22.6324 22 24.4023 22.5129 25.9219 23.3984C26.2797 23.607 26.7396 23.4857 26.9482 23.1279C27.1568 22.7701 27.0356 22.3101 26.6777 22.1016C24.9374 21.0873 22.9074 20.5 20.75 20.5ZM21.25 17C19.5491 17 17.9287 17.3407 16.4551 17.9707C16.0744 18.1336 15.8978 18.5743 16.0605 18.9551C16.2235 19.3357 16.6642 19.5124 17.0449 19.3496C18.3313 18.7997 19.7509 18.5 21.25 18.5C23.5044 18.5 25.5984 19.192 27.3281 20.3701C27.6704 20.603 28.137 20.5141 28.3701 20.1719C28.603 19.8296 28.5141 19.363 28.1719 19.1299C26.2017 17.7881 23.8155 17 21.25 17Z" fill="#FEFEFE"/>
</svg>
