<svg width="44" height="44" viewBox="0 0 44 44" fill="none" xmlns="http://www.w3.org/2000/svg">
<rect width="44" height="44" fill="#FEFEFE" fill-opacity="0.15"/>
<path fill-rule="evenodd" clip-rule="evenodd" d="M22 14C22.855 14 23.732 14.022 24.582 14.058L25.586 14.106L26.547 14.163L27.447 14.224L28.269 14.288C29.1612 14.3559 30.0008 14.7364 30.64 15.3626C31.2791 15.9888 31.6768 16.8204 31.763 17.711L31.803 18.136L31.878 19.046C31.948 19.989 32 21.017 32 22C32 22.983 31.948 24.011 31.878 24.954L31.803 25.864L31.763 26.289C31.6768 27.1798 31.2789 28.0115 30.6396 28.6377C30.0002 29.2639 29.1604 29.6443 28.268 29.712L27.448 29.775L26.548 29.837L25.586 29.894L24.582 29.942C23.7218 29.9793 22.861 29.9986 22 30C21.139 29.9986 20.2782 29.9793 19.418 29.942L18.414 29.894L17.453 29.837L16.553 29.775L15.731 29.712C14.8388 29.6441 13.9992 29.2636 13.36 28.6374C12.7209 28.0112 12.3232 27.1796 12.237 26.289L12.197 25.864L12.122 24.954C12.0458 23.9711 12.0051 22.9858 12 22C12 21.017 12.052 19.989 12.122 19.046L12.197 18.136L12.237 17.711C12.3232 16.8206 12.7207 15.9891 13.3597 15.3629C13.9986 14.7368 14.838 14.3561 15.73 14.288L16.551 14.224L17.451 14.163L18.413 14.106L19.417 14.058C20.2775 14.0207 21.1387 14.0014 22 14ZM20 19.575V24.425C20 24.887 20.5 25.175 20.9 24.945L25.1 22.52C25.1914 22.4674 25.2673 22.3916 25.3201 22.3003C25.3729 22.209 25.4007 22.1055 25.4007 22C25.4007 21.8945 25.3729 21.791 25.3201 21.6997C25.2673 21.6084 25.1914 21.5326 25.1 21.48L20.9 19.056C20.8088 19.0033 20.7053 18.9756 20.5999 18.9756C20.4945 18.9756 20.3911 19.0034 20.2998 19.0561C20.2086 19.1088 20.1329 19.1846 20.0802 19.2759C20.0276 19.3671 19.9999 19.4706 20 19.576V19.575Z" fill="#FEFEFE"/>
</svg>
