<svg width="45" height="41" viewBox="0 0 45 41" fill="none" xmlns="http://www.w3.org/2000/svg">
<ellipse cx="15.2286" cy="15" rx="15.2286" ry="15" fill="#3E82DA"/>
<path d="M34.0029 16.5996C34.0532 16.6426 34.1034 16.6855 34.1552 16.7297C35.6818 18.0643 36.6633 19.9536 36.8401 21.9796C36.9782 24.0851 36.3486 25.7262 35.3089 27.5082C35.0036 28.0346 34.7476 28.556 34.5478 29.1328C34.5324 29.1768 34.5171 29.2208 34.5012 29.2661C34.0955 30.4518 33.8946 31.7122 33.8712 32.9646C33.8697 33.0416 33.8683 33.1187 33.8668 33.1981C33.8642 33.3566 33.8623 33.515 33.8611 33.6735C33.8493 34.2162 33.7895 34.6596 33.4622 35.104C32.9189 35.6114 32.9189 35.6114 32.6103 35.6114C32.6131 35.6874 32.6159 35.7634 32.6188 35.8417C32.6375 36.5484 32.6411 37.0952 32.1335 37.6359C31.9244 37.829 31.6981 38.0332 31.3994 38.0332C31.4008 38.0874 31.4022 38.1416 31.4036 38.1974C31.4142 38.9062 31.3971 39.4771 30.915 40.0313C30.491 40.4188 30.1289 40.5346 29.5633 40.5381C29.5088 40.5387 29.4542 40.5392 29.3979 40.5398C29.2826 40.5407 29.1672 40.5412 29.0518 40.5414C28.8769 40.5421 28.7022 40.5451 28.5273 40.5482C27.883 40.5539 27.3469 40.5573 26.8517 40.0932C26.3965 39.6206 26.3016 39.1071 26.3097 38.4646C26.3099 38.423 26.3102 38.3813 26.3105 38.3383C26.3112 38.2366 26.3123 38.1349 26.3134 38.0332C26.2586 38.0172 26.2037 38.0011 26.1472 37.9845C25.6926 37.8175 25.3696 37.434 25.163 37.0039C25.11 36.8273 25.0953 36.6705 25.0966 36.4864C25.0969 36.4098 25.0969 36.4098 25.0972 36.3315C25.0979 36.2523 25.0979 36.2523 25.0987 36.1714C25.099 36.1176 25.0993 36.0639 25.0995 36.0085C25.1003 35.8761 25.1012 35.7437 25.1025 35.6114C25.0476 35.5953 24.9928 35.5792 24.9362 35.5626C24.4817 35.3957 24.1587 35.0121 23.9521 34.5821C23.8882 34.3776 23.8823 34.1857 23.8788 33.9721C23.8764 33.862 23.8764 33.862 23.874 33.7496C23.8723 33.6709 23.8706 33.5922 23.8689 33.5111C23.8069 31.1739 23.3359 29.1556 22.1841 27.1219C21.022 25.0695 20.4966 22.9773 21.1104 20.6416C21.7107 18.532 23.08 16.7822 24.9852 15.6973C27.8374 14.1408 31.5372 14.4566 34.0029 16.5996ZM27.3692 15.9109C27.2984 15.927 27.2984 15.927 27.2261 15.9435C25.5284 16.3503 23.9533 17.4398 23.0055 18.9148C22.0186 20.5279 21.6077 22.4338 22.0459 24.2941C22.2826 25.2339 22.783 26.0754 23.2604 26.911C24.2229 28.596 24.621 30.3064 24.8603 32.2207C26.0192 32.2207 27.178 32.2207 28.372 32.2207C28.372 31.1817 28.372 30.1428 28.372 29.0723C28.1922 29.0523 28.0124 29.0323 27.8271 29.0117C27.624 28.8086 27.6144 28.722 27.5471 28.4517C27.4489 28.1808 27.3594 28.0321 27.1091 27.8949C26.6928 27.705 26.3496 27.5683 25.8896 27.6797C25.8309 27.7109 25.7722 27.7422 25.7118 27.7743C25.4763 27.8848 25.292 27.937 25.042 27.8614C24.8159 27.7035 24.629 27.513 24.4365 27.3164C24.3808 27.2621 24.325 27.2078 24.2676 27.1518C23.7232 26.6184 23.7232 26.6184 23.6834 26.3515C23.6844 26.1219 23.7784 25.9783 23.8878 25.7801C24.0023 25.5277 24.0267 25.3705 23.9469 25.1095C23.7118 24.4846 23.7118 24.4846 23.1948 24.0973C23.1425 24.0769 23.0902 24.0565 23.0363 24.0356C22.9574 24.0043 22.9574 24.0043 22.8769 23.9724C22.746 23.9193 22.746 23.9193 22.6201 23.9258C22.5492 23.713 22.5486 23.5194 22.5472 23.2979C22.5469 23.2544 22.5465 23.2108 22.5462 23.166C22.5456 23.074 22.5452 22.9821 22.545 22.8901C22.5444 22.7496 22.5425 22.6092 22.5406 22.4688C22.5402 22.3793 22.5399 22.2899 22.5397 22.2005C22.5389 22.1586 22.5382 22.1167 22.5374 22.0735C22.5382 21.8891 22.55 21.7632 22.6404 21.6007C22.7851 21.4618 22.9352 21.4356 23.1272 21.3828C23.3689 21.2963 23.4955 21.2496 23.6409 21.0352C23.7155 20.8504 23.7737 20.6654 23.831 20.4746C23.8729 20.4034 23.9156 20.3326 23.9597 20.2627C24.0355 19.9593 23.9192 19.7767 23.7825 19.5038C23.7018 19.3043 23.6851 19.1741 23.7099 18.961C23.7728 18.8493 23.7728 18.8493 23.8689 18.7491C23.9067 18.709 23.9446 18.669 23.9836 18.6277C24.0331 18.5778 24.0827 18.528 24.1337 18.4766C24.2046 18.4041 24.2755 18.3317 24.3464 18.2592C24.4967 18.1067 24.6473 17.9544 24.7991 17.8032C24.8312 17.7711 24.8634 17.739 24.8966 17.7059C25.0246 17.5898 25.0964 17.5689 25.2709 17.5547C25.5421 17.5738 25.7278 17.6887 25.9634 17.8167C26.1857 17.8885 26.2818 17.8383 26.4951 17.75C26.5601 17.732 26.6251 17.714 26.6921 17.6954C27.0973 17.5741 27.0973 17.5741 27.3941 17.29C27.473 17.1175 27.473 17.1175 27.5286 16.9459C27.5899 16.7668 27.6515 16.6294 27.7666 16.4785C27.9167 16.4225 27.9167 16.4225 28.0806 16.3991C28.1352 16.3906 28.1898 16.3821 28.246 16.3733C28.2876 16.3681 28.3292 16.3628 28.372 16.3575C28.372 16.1776 28.372 15.9978 28.372 15.8125C28.0218 15.8023 27.7103 15.8328 27.3692 15.9109ZM29.3408 15.8125C29.3408 17.1312 29.3408 18.45 29.3408 19.8086C29.4207 19.8086 29.5006 19.8086 29.583 19.8086C29.5842 19.7699 29.5854 19.7311 29.5866 19.6912C29.5924 19.5146 29.599 19.3381 29.6057 19.1615C29.6085 19.07 29.6085 19.07 29.6113 18.9767C29.6137 18.9176 29.616 18.8585 29.6184 18.7975C29.6203 18.7433 29.6222 18.6891 29.6242 18.6332C29.6456 18.4599 29.6857 18.3296 29.7646 18.1739C29.9634 18.0413 30.0173 18.0392 30.2469 18.0426C30.3345 18.0419 30.3345 18.0419 30.4239 18.0413C30.5467 18.0414 30.6696 18.0426 30.7924 18.0451C30.9637 18.0427 31.1127 18.0368 31.2783 17.9922C31.4058 17.86 31.4472 17.742 31.5205 17.5684C31.6304 17.4629 31.6304 17.4629 31.7362 17.3943C31.7887 17.359 31.7887 17.359 31.8424 17.3229C32.0748 17.1924 32.2998 17.1878 32.5611 17.1711C32.6381 17.166 32.7152 17.1609 32.7946 17.1557C32.8536 17.152 32.9127 17.1483 32.9736 17.1446C31.9708 16.3244 30.6364 15.8125 29.3408 15.8125ZM28.3115 17.6289C28.303 17.6677 28.2945 17.7065 28.2857 17.7465C28.2038 17.9886 28.1204 18.1728 27.8883 18.3008C27.644 18.4043 27.394 18.4844 27.1408 18.5632C26.9533 18.6215 26.7916 18.6889 26.6228 18.7893C26.3907 18.9263 26.2769 18.9371 26.0107 18.9004C25.8674 18.8396 25.7305 18.7737 25.5937 18.6994C25.4665 18.6445 25.4665 18.6445 25.3428 18.6991C25.1325 18.8406 24.9535 19.001 24.7998 19.2032C24.7895 19.4084 24.8694 19.5259 24.9549 19.714C25.046 19.9398 25.0639 20.0534 25.042 20.293C24.9578 20.4884 24.9578 20.4884 24.8452 20.6941C24.6946 20.9729 24.5875 21.2289 24.5084 21.538C24.4448 21.7464 24.4093 21.8416 24.2352 21.9753C24.0823 22.0518 23.9314 22.1127 23.7705 22.17C23.6506 22.2299 23.6506 22.2299 23.5283 22.291C23.5283 22.5908 23.5283 22.8905 23.5283 23.1992C23.6482 23.2242 23.768 23.2492 23.8916 23.2749C24.1969 23.3889 24.3253 23.4793 24.467 23.7747C24.5738 24.0338 24.6617 24.2984 24.747 24.5652C24.8132 24.7505 24.9002 24.9186 24.9967 25.0897C25.1435 25.4385 24.922 25.8944 24.7998 26.2266C24.8831 26.3197 24.9679 26.4116 25.0533 26.5028C25.1004 26.5541 25.1474 26.6054 25.1959 26.6582C25.3341 26.7886 25.3341 26.7886 25.4994 26.7642C25.6701 26.7028 25.8355 26.6351 26.001 26.561C26.3389 26.4792 26.6343 26.6427 26.9303 26.7904C27.2103 26.9284 27.4761 27.0391 27.7779 27.1234C27.9781 27.1905 28.0497 27.2249 28.1639 27.4051C28.225 27.5564 28.2737 27.7028 28.3115 27.8614C28.3315 27.8614 28.3514 27.8614 28.372 27.8614C28.372 27.242 28.372 26.6226 28.372 25.9844C28.1922 25.9245 28.0124 25.8645 27.8271 25.8028C27.3751 25.6512 27.0361 25.4504 26.6767 25.1367C26.64 25.1079 26.6034 25.079 26.5656 25.0492C26.1174 24.6619 25.7509 23.9331 25.6581 23.348C25.5809 22.2701 25.7261 21.3725 26.4459 20.52C27.0045 19.9345 27.6119 19.7203 28.372 19.5059C28.372 18.8865 28.372 18.2671 28.372 17.6289C28.352 17.6289 28.3321 17.6289 28.3115 17.6289ZM33.8818 17.9922C33.8853 18.0464 33.8888 18.1005 33.8924 18.1564C33.9109 18.6506 33.8953 19.0473 33.5791 19.4453C33.2542 19.7326 32.9662 19.8462 32.5384 19.8881C32.1248 19.8542 31.7667 19.7304 31.4902 19.4113C31.3932 19.2847 31.3063 19.1544 31.2177 19.0215C31.0702 18.9995 31.0702 18.9995 30.9074 19.0102C30.81 19.0139 30.7126 19.0177 30.6123 19.0215C30.6123 19.2813 30.6123 19.541 30.6123 19.8086C30.7159 19.8236 30.8196 19.8386 30.9263 19.854C31.2052 19.9049 31.3845 19.9563 31.581 20.1719C31.7203 20.3879 31.7207 20.5816 31.7272 20.8351C31.7283 20.8751 31.7295 20.915 31.7307 20.9562C31.7343 21.0833 31.7372 21.2103 31.7399 21.3374C31.7423 21.4238 31.7446 21.5102 31.747 21.5966C31.7528 21.8079 31.7579 22.0192 31.7627 22.2305C31.8596 22.236 31.9566 22.24 32.0536 22.2433C32.1346 22.2468 32.1346 22.2468 32.2172 22.2505C32.3731 22.244 32.3731 22.244 32.4781 22.1347C32.6285 21.9294 32.6285 21.9294 32.6709 21.6856C33.124 21.4401 33.5584 21.2875 34.0738 21.4155C34.525 21.5698 34.764 21.8077 34.9716 22.2305C35.0978 22.6509 35.0411 23.0223 34.8709 23.419C34.6876 23.7443 34.4139 23.9316 34.0634 24.0469C33.6129 24.101 33.1665 24.0824 32.792 23.8047C32.6832 23.6643 32.5883 23.525 32.5008 23.3705C32.284 23.1896 32.0338 23.2401 31.7627 23.2598C31.7621 23.3111 31.7615 23.3624 31.7609 23.4152C31.7583 23.6068 31.7545 23.7984 31.7501 23.99C31.7484 24.0727 31.7471 24.1554 31.7462 24.2381C31.7449 24.3574 31.742 24.4768 31.739 24.5961C31.7377 24.6677 31.7365 24.7394 31.7352 24.8132C31.6873 25.1066 31.5549 25.3002 31.3275 25.4887C31.0888 25.5895 30.8704 25.6019 30.6123 25.6211C30.6123 25.8809 30.6123 26.1406 30.6123 26.4082C30.9485 26.442 30.9485 26.442 31.2783 26.4082C31.3874 26.2961 31.4415 26.188 31.5093 26.0476C31.6286 25.8418 31.7935 25.7814 32.0048 25.6817C32.0448 25.6617 32.0848 25.6417 32.1259 25.6211C32.6204 25.5784 32.9729 25.6039 33.3974 25.8633C33.4574 25.8833 33.5173 25.9033 33.5791 25.9239C33.6396 26.0185 33.6396 26.0185 33.7002 26.166C33.7326 26.2385 33.7651 26.3109 33.7985 26.3855C33.95 26.8071 33.9389 27.1746 33.7493 27.5813C33.5466 27.9432 33.3076 28.12 32.9194 28.2525C32.5301 28.3522 32.1756 28.2924 31.8232 28.1035C31.6104 27.9555 31.432 27.8259 31.3381 27.5794C31.2332 27.4259 31.2332 27.4259 31.0815 27.4105C30.9044 27.4005 30.7291 27.3983 30.5517 27.3997C30.4306 27.3997 30.3095 27.3989 30.1884 27.3973C30.1347 27.3977 30.081 27.398 30.0257 27.3984C29.8562 27.3725 29.8058 27.331 29.7041 27.1953C29.6438 27.0147 29.6317 26.8805 29.6244 26.6913C29.6218 26.6291 29.6193 26.5668 29.6167 26.5027C29.6143 26.4378 29.6119 26.3729 29.6095 26.3061C29.6068 26.2405 29.6042 26.1749 29.6015 26.1073C29.5951 25.9452 29.5889 25.7832 29.583 25.6211C29.503 25.6211 29.4231 25.6211 29.3408 25.6211C29.3408 27.799 29.3408 29.9769 29.3408 32.2207C30.4996 32.2207 31.6585 32.2207 32.8525 32.2207C32.9324 31.6613 33.0123 31.1018 33.0947 30.5254C33.4307 28.8921 34.0829 27.5096 34.9035 26.0677C35.8145 24.4618 36.0685 22.7398 35.6022 20.9434C35.3196 19.9299 34.7896 18.603 33.8818 17.9922ZM32.2508 18.2382C32.1461 18.4291 32.195 18.575 32.247 18.7793C32.4134 18.9172 32.4134 18.9172 32.58 18.8891C32.7468 18.8349 32.8203 18.8076 32.913 18.6582C32.8995 18.4374 32.8898 18.3323 32.7314 18.1739C32.5438 18.1539 32.4182 18.1464 32.2508 18.2382ZM27.899 20.7017C27.8362 20.7326 27.7733 20.7635 27.7086 20.7953C27.1567 21.1043 26.8551 21.5806 26.6583 22.1728C26.5239 22.7436 26.5902 23.2851 26.8584 23.8047C27.1826 24.3244 27.6124 24.6906 28.1904 24.8946C28.2503 24.8946 28.3103 24.8946 28.372 24.8946C28.372 23.456 28.372 22.0174 28.372 20.5352C28.1892 20.5352 28.0617 20.6206 27.899 20.7017ZM29.3408 20.8379C29.3408 22.0767 29.3408 23.3155 29.3408 24.5918C29.8003 24.5918 30.2599 24.5918 30.7334 24.5918C30.7334 23.353 30.7334 22.1142 30.7334 20.8379C30.2738 20.8379 29.8143 20.8379 29.3408 20.8379ZM33.4428 22.4197C33.3197 22.53 33.3197 22.53 33.3104 22.7149C33.3254 22.8918 33.3254 22.8918 33.4012 23.0138C33.5921 23.1185 33.738 23.0696 33.9423 23.0176C34.0802 22.8512 34.0802 22.8512 34.0521 22.6846C33.9989 22.5209 33.9614 22.4502 33.8212 22.3516C33.5898 22.3335 33.5898 22.3335 33.4428 22.4197ZM32.2508 26.6542C32.1461 26.8451 32.195 26.991 32.247 27.1953C32.4134 27.3332 32.4134 27.3332 32.58 27.3051C32.7468 27.2509 32.8203 27.2236 32.913 27.0742C32.8995 26.8534 32.8898 26.7483 32.7314 26.5899C32.5438 26.5699 32.4182 26.5624 32.2508 26.6542ZM24.9209 33.25C24.8369 34.1051 24.8369 34.1051 25.163 34.5215C25.3391 34.644 25.4821 34.6579 25.694 34.6588C25.7808 34.6596 25.7808 34.6596 25.8694 34.6604C25.964 34.6603 25.964 34.6603 26.0606 34.6602C26.1273 34.6606 26.1941 34.661 26.2629 34.6614C26.4839 34.6626 26.705 34.6628 26.926 34.6629C27.0795 34.6633 27.2331 34.6637 27.3866 34.6642C27.7086 34.6649 28.0306 34.6651 28.3525 34.665C28.7243 34.665 29.096 34.6663 29.4677 34.6682C29.8258 34.6699 30.1838 34.6704 30.5419 34.6703C30.694 34.6704 30.8462 34.671 30.9983 34.6719C31.2111 34.6731 31.4238 34.6728 31.6366 34.672C31.7308 34.673 31.7308 34.673 31.827 34.6741C32.1771 34.671 32.4005 34.6472 32.6709 34.4004C32.8596 34.068 32.8596 34.068 32.792 33.25C30.1945 33.25 27.597 33.25 24.9209 33.25ZM26.1318 35.6719C26.0478 36.5269 26.0478 36.5269 26.374 36.9434C26.5901 37.0875 26.7443 37.0824 26.9938 37.0821C27.0383 37.0825 27.0827 37.0829 27.1285 37.0833C27.2754 37.0845 27.4224 37.0847 27.5693 37.0848C27.6715 37.0852 27.7737 37.0856 27.8759 37.086C28.0901 37.0868 28.3044 37.087 28.5187 37.0869C28.7931 37.0869 29.0674 37.0886 29.3418 37.0906C29.5529 37.092 29.764 37.0922 29.9751 37.0922C30.0762 37.0923 30.1774 37.0929 30.2785 37.0938C30.4201 37.095 30.5617 37.0946 30.7033 37.0939C30.7658 37.0949 30.7658 37.0949 30.8295 37.096C31.0367 37.0933 31.1523 37.0675 31.3294 36.9567C31.7192 36.5554 31.581 36.311 31.581 35.6719C29.7828 35.6719 27.9845 35.6719 26.1318 35.6719ZM27.3427 38.0938C27.3108 38.7305 27.3108 38.7305 27.5244 39.2442C27.9107 39.6206 28.3341 39.5598 28.8451 39.562C28.9507 39.5639 28.9507 39.5639 29.0585 39.5658C29.4414 39.5676 29.7328 39.5591 30.0673 39.3653C30.4507 38.9719 30.3701 38.6682 30.3701 38.0938C29.3711 38.0938 28.372 38.0938 27.3427 38.0938Z" fill="white"/>
<path d="M17.8965 17.0234C18.0766 17.1032 18.2407 17.2025 18.4073 17.3072C18.4522 17.3345 18.497 17.3619 18.5432 17.39C19.3836 17.905 19.3836 17.905 19.5918 18.1133C19.6327 18.5362 19.6327 18.5362 19.4934 18.7452C19.3178 18.8607 19.1953 18.8833 18.9863 18.9004C18.8435 18.8481 18.8435 18.8481 18.6987 18.7603C18.4815 18.6319 18.2644 18.5062 18.0412 18.3886C17.9924 18.3625 17.9436 18.3365 17.8934 18.3096C17.7959 18.2576 17.6982 18.2061 17.6002 18.1552C17.3433 18.0158 17.1625 17.9122 17.0488 17.6289C17.0488 17.3747 17.0717 17.2507 17.2343 17.0537C17.4689 16.9339 17.6491 16.9599 17.8965 17.0234Z" fill="white"/>
<path d="M38.8453 29.133C39.0341 29.2115 39.0341 29.2115 39.2225 29.321C39.2911 29.3606 39.3596 29.4002 39.4303 29.441C39.4653 29.4619 39.5004 29.4828 39.5365 29.5044C39.6435 29.568 39.7513 29.6299 39.8593 29.6917C40.4548 30.0403 40.4548 30.0403 40.6617 30.3439C40.6957 30.5256 40.6957 30.5256 40.6617 30.7072C40.5368 30.8813 40.5368 30.8813 40.3589 31.0099C39.9477 31.0707 39.6802 30.8993 39.3372 30.6996C39.2859 30.6709 39.2347 30.6422 39.1818 30.6126C38.2238 30.0698 38.2238 30.0698 38.1187 29.8595C38.089 29.5972 38.0898 29.4769 38.2436 29.2579C38.468 29.1003 38.5748 29.1094 38.8453 29.133Z" fill="white"/>
<path d="M19.288 29.133C19.5115 29.29 19.5803 29.3777 19.6285 29.6477C19.5823 29.9064 19.4884 30.0069 19.288 30.1623C19.0573 30.3081 18.8196 30.4398 18.5803 30.571C18.5163 30.6067 18.4522 30.6423 18.3863 30.6791C17.7229 31.0479 17.7229 31.0479 17.3505 31.01C17.1454 30.8616 17.0606 30.776 17.0137 30.5256C17.0672 30.2402 17.2221 30.0895 17.4552 29.9235C17.8136 29.7126 17.8136 29.7126 17.9575 29.6304C18.0654 29.5684 18.1722 29.5048 18.2791 29.4411C18.3477 29.4015 18.4163 29.3619 18.4869 29.321C18.5491 29.2849 18.6113 29.2488 18.6754 29.2116C18.896 29.1198 19.0511 29.1098 19.288 29.133Z" fill="white"/>
<path d="M40.4197 17.0236C40.5711 17.1522 40.5711 17.1522 40.6619 17.3263C40.6619 17.5584 40.6504 17.6932 40.4971 17.8713C40.239 18.0979 39.9361 18.2556 39.6402 18.4275C39.575 18.4663 39.5099 18.5052 39.4427 18.5452C39.3794 18.5821 39.3161 18.6191 39.2509 18.6572C39.1935 18.6908 39.136 18.7245 39.0769 18.7592C38.8355 18.8734 38.6365 18.9261 38.3763 18.8551C38.2401 18.7794 38.2401 18.7794 38.119 18.5978C38.0749 18.2565 38.0749 18.2565 38.119 18.1134C38.4194 17.8125 38.7943 17.6146 39.1596 17.402C39.2502 17.3485 39.2502 17.3485 39.3426 17.2939C39.9853 16.9169 39.9853 16.9169 40.4197 17.0236Z" fill="white"/>
<path d="M35.6367 12.2402C35.7805 12.3386 35.7805 12.3386 35.8789 12.4824C35.9063 12.8004 35.8604 12.9922 35.7041 13.2681C35.6488 13.3664 35.6488 13.3664 35.5923 13.4668C35.5533 13.5341 35.5142 13.6013 35.474 13.6706C35.4361 13.7384 35.3982 13.8061 35.3591 13.8759C34.9072 14.6691 34.9072 14.6691 34.6015 14.7607C34.4037 14.754 34.2632 14.7341 34.0927 14.6318C33.9622 14.4142 33.953 14.2394 34.0019 13.9961C34.1111 13.7527 34.2419 13.525 34.38 13.2969C34.4448 13.1898 34.5082 13.0819 34.5713 12.9738C35.0911 12.0955 35.0911 12.0955 35.6367 12.2402Z" fill="white"/>
<path d="M22.6191 12.24C22.925 12.5645 23.1457 12.9769 23.3684 13.3601C23.4014 13.4145 23.4344 13.4689 23.4684 13.525C23.6644 13.8625 23.7587 14.0891 23.7089 14.4803C23.6181 14.6316 23.6181 14.6316 23.4667 14.7225C23.1387 14.7693 23.1387 14.7693 22.9824 14.7225C22.6472 14.4188 22.4554 14.0612 22.2369 13.6705C22.1978 13.6032 22.1588 13.5359 22.1185 13.4666C22.0816 13.401 22.0448 13.3355 22.0068 13.2679C21.9732 13.2086 21.9396 13.1494 21.905 13.0883C21.8185 12.8723 21.8113 12.713 21.832 12.4822C22.0516 12.1945 22.2758 12.1256 22.6191 12.24Z" fill="white"/>
<path d="M40.3811 23.4701C40.4299 23.4698 40.4787 23.4696 40.529 23.4694C40.632 23.4692 40.735 23.4696 40.838 23.4706C40.9955 23.4719 41.1529 23.4707 41.3104 23.4691C41.4106 23.4693 41.5108 23.4696 41.611 23.4701C41.6815 23.4693 41.6815 23.4693 41.7534 23.4686C41.9674 23.4723 42.0918 23.4839 42.2653 23.6142C42.3869 23.7844 42.4146 23.8987 42.4189 24.1077C42.3469 24.2743 42.2882 24.3758 42.1374 24.4783C41.9409 24.5517 41.752 24.55 41.545 24.5497C41.5017 24.55 41.4584 24.5502 41.4138 24.5505C41.3225 24.5509 41.2311 24.5509 41.1398 24.5506C41.0005 24.5504 40.8613 24.5519 40.7221 24.5534C40.6331 24.5535 40.5441 24.5536 40.4552 24.5535C40.4138 24.5541 40.3724 24.5546 40.3297 24.5552C40.0677 24.5527 39.9029 24.5099 39.6943 24.3499C39.5996 24.1604 39.5915 23.9496 39.6337 23.7444C39.8361 23.4626 40.0583 23.4667 40.3811 23.4701Z" fill="white"/>
<path d="M16.1017 23.4698C16.1505 23.4696 16.1993 23.4693 16.2496 23.4691C16.3526 23.4689 16.4556 23.4694 16.5586 23.4704C16.7161 23.4717 16.8735 23.4704 17.031 23.4689C17.1312 23.469 17.2314 23.4693 17.3316 23.4698C17.4021 23.4691 17.4021 23.4691 17.474 23.4683C17.6909 23.4721 17.8129 23.4837 17.9874 23.6175C18.1143 23.7931 18.1133 23.9032 18.1031 24.1134C18.0663 24.2889 17.9782 24.3668 17.8368 24.4707C17.6574 24.5604 17.4742 24.5424 17.2774 24.5436C17.234 24.5439 17.1905 24.5443 17.1457 24.5446C17.0537 24.5452 16.9616 24.5456 16.8695 24.5458C16.7292 24.5464 16.5889 24.5483 16.4486 24.5502C16.3591 24.5506 16.2695 24.5509 16.18 24.5511C16.1382 24.5519 16.0965 24.5526 16.0535 24.5534C15.7892 24.5522 15.6262 24.5092 15.4149 24.3496C15.2981 24.1957 15.2933 24.1206 15.3014 23.9258C15.4268 23.4958 15.6945 23.4656 16.1017 23.4698Z" fill="white"/>
<path d="M28.8552 10.4541C28.8951 10.4535 28.9351 10.4529 28.9763 10.4522C29.1595 10.5009 29.2241 10.5761 29.3395 10.7266C29.3636 10.9028 29.3735 11.0557 29.3717 11.2318C29.3719 11.2806 29.3722 11.3294 29.3724 11.3797C29.3726 11.4827 29.3721 11.5857 29.3711 11.6887C29.3698 11.8462 29.3711 12.0035 29.3727 12.161C29.3725 12.2612 29.3722 12.3614 29.3717 12.4616C29.3722 12.5086 29.3727 12.5556 29.3732 12.604C29.3695 12.8195 29.3582 12.9424 29.2254 13.1159C29.0714 13.2278 28.9856 13.265 28.7946 13.2695C28.4532 13.1317 28.4532 13.1317 28.3708 12.9668C28.3626 12.8018 28.3579 12.6385 28.3564 12.4734C28.3559 12.4245 28.3554 12.3755 28.3549 12.325C28.354 12.2213 28.3534 12.1176 28.3529 12.0138C28.3519 11.8553 28.3492 11.6968 28.3465 11.5383C28.3459 11.4375 28.3454 11.3368 28.345 11.236C28.3439 11.1886 28.3429 11.1413 28.3418 11.0925C28.3427 10.8741 28.3515 10.7518 28.4859 10.5756C28.6234 10.4769 28.6878 10.4515 28.8552 10.4541Z" fill="white"/>
</svg>
