<svg width="38" height="39" viewBox="0 0 38 39" fill="none" xmlns="http://www.w3.org/2000/svg">
<ellipse cx="15.2286" cy="15.0581" rx="15.2286" ry="15.0581" fill="#3E82DA"/>
<path d="M26.3297 12.136C26.4929 12.1342 26.4929 12.1342 26.6593 12.1325C26.8891 12.1306 27.1189 12.1294 27.3487 12.129C27.6991 12.1274 28.0491 12.1211 28.3994 12.1146C28.6231 12.1134 28.8468 12.1125 29.0705 12.1119C29.2267 12.1081 29.2267 12.1081 29.386 12.1042C30.1533 12.1103 30.4414 12.3063 30.9966 12.8267C31.473 12.9169 31.473 12.9169 31.9691 12.9071C32.6266 12.9137 33.0385 12.9355 33.5686 13.3411C34.083 14.0223 34.083 14.0223 34.083 14.3699C34.1829 14.3686 34.2829 14.3672 34.3858 14.3658C34.8368 14.3605 35.2878 14.3572 35.7387 14.3538C35.8961 14.3517 36.0534 14.3495 36.2155 14.3473C36.3655 14.3465 36.5155 14.3457 36.6701 14.3448C36.8088 14.3435 36.9476 14.3421 37.0905 14.3407C37.4266 14.3699 37.4266 14.3699 37.6838 14.6271C37.7089 14.9366 37.7179 15.2313 37.7156 15.5409C37.7159 15.6361 37.7162 15.7312 37.7166 15.8293C37.7173 16.1499 37.7162 16.4704 37.7151 16.791C37.7152 17.0202 37.7155 17.2493 37.7158 17.4785C37.7164 18.1021 37.7154 18.7257 37.7141 19.3492C37.713 20.0005 37.7132 20.6518 37.7133 21.3031C37.7132 22.3969 37.712 23.4907 37.7103 24.5844C37.7083 25.8508 37.7076 27.1172 37.7077 28.3836C37.7078 29.5997 37.7071 30.8157 37.706 32.0318C37.7056 32.5504 37.7054 33.0689 37.7053 33.5875C37.7052 34.1975 37.7044 34.8075 37.7031 35.4175C37.7027 35.642 37.7025 35.8665 37.7026 36.0911C37.7027 36.3962 37.702 36.7014 37.701 37.0066C37.7012 37.0966 37.7014 37.1866 37.7016 37.2794C37.6985 37.8893 37.6985 37.8893 37.5552 38.0326C37.3016 38.0453 37.0476 38.0488 36.7936 38.0489C36.5453 38.0495 36.5453 38.0495 36.292 38.05C36.1068 38.0498 35.9216 38.0495 35.7365 38.0492C35.5428 38.0494 35.3492 38.0496 35.1555 38.0499C34.6281 38.0505 34.1007 38.0503 33.5733 38.0499C33.0225 38.0495 32.4718 38.0498 31.9211 38.0501C30.9961 38.0503 30.0711 38.05 29.1461 38.0494C28.0751 38.0487 27.0041 38.0489 25.9331 38.0496C25.0153 38.0502 24.0974 38.0503 23.1796 38.0499C22.6306 38.0497 22.0817 38.0497 21.5328 38.0501C21.0168 38.0505 20.5009 38.0502 19.9849 38.0495C19.795 38.0493 19.6051 38.0494 19.4152 38.0497C19.1571 38.05 18.8989 38.0495 18.6408 38.0489C18.496 38.0489 18.3512 38.0488 18.202 38.0488C17.8792 38.0326 17.8792 38.0326 17.7506 37.904C17.7375 37.6036 17.7327 37.307 17.7334 37.0066C17.7331 36.9116 17.7328 36.8166 17.7325 36.7188C17.7317 36.3981 17.7318 36.0774 17.7319 35.7567C17.7315 35.5278 17.7311 35.2989 17.7306 35.07C17.7295 34.4464 17.7292 33.8228 17.7291 33.1992C17.729 32.6795 17.7285 32.1598 17.728 31.6401C17.727 30.4146 17.7267 29.189 17.7268 27.9635C17.7268 26.6971 17.7255 25.4308 17.7235 24.1645C17.7218 23.0791 17.7211 21.9937 17.7212 20.9083C17.7212 20.2593 17.7208 19.6102 17.7195 18.9612C17.7182 18.351 17.7182 17.7408 17.7192 17.1306C17.7193 16.9061 17.719 16.6816 17.7182 16.4571C17.7172 16.1517 17.7178 15.8463 17.7188 15.5409C17.7181 15.4511 17.7175 15.3614 17.7168 15.269C17.7212 14.6565 17.7212 14.6565 18.0078 14.3699C18.3321 14.3407 18.3321 14.3407 18.7362 14.3448C18.8804 14.3456 19.0247 14.3465 19.1733 14.3473C19.3244 14.3495 19.4756 14.3516 19.6314 14.3538C19.8597 14.3556 19.8597 14.3556 20.0926 14.3574C20.4693 14.3604 20.8461 14.3646 21.2228 14.3699C21.2622 14.2686 21.3015 14.1673 21.3421 14.0629C21.5664 13.5165 21.8377 13.2021 22.3803 12.9553C23.0619 12.8609 23.7538 12.911 24.4379 12.9553C24.4697 12.8757 24.5015 12.7962 24.5343 12.7142C24.9266 12.0473 25.6325 12.1406 26.3297 12.136ZM18.6508 15.2701C18.6508 22.4847 18.6508 29.6992 18.6508 37.1324C24.6346 37.1324 30.6185 37.1324 36.7836 37.1324C36.7836 29.9178 36.7836 22.7033 36.7836 15.2701C35.8924 15.2701 35.0012 15.2701 34.083 15.2701C33.9132 15.6096 33.7435 15.9491 33.5686 16.2989C33.2451 16.664 33.0834 16.6817 32.5914 16.7337C32.403 16.736 32.2146 16.7362 32.0261 16.7347C31.923 16.7353 31.8198 16.736 31.7136 16.7367C31.3729 16.7384 31.0323 16.7373 30.6916 16.736C30.4546 16.7362 30.2176 16.7366 29.9805 16.7371C29.4838 16.7377 28.987 16.7368 28.4903 16.735C27.854 16.7328 27.2178 16.7341 26.5815 16.7364C26.092 16.7378 25.6025 16.7374 25.113 16.7364C24.8784 16.7361 24.6439 16.7364 24.4093 16.7373C24.0811 16.7383 23.7531 16.7368 23.4249 16.7347C23.3282 16.7355 23.2315 16.7362 23.1319 16.737C22.556 16.7301 22.1744 16.6841 21.7372 16.2989C21.5675 15.9594 21.3977 15.6199 21.2228 15.2701C20.3741 15.2701 19.5253 15.2701 18.6508 15.2701Z" fill="white"/>
<path d="M26.6649 31.3267C26.7922 31.326 26.7922 31.326 26.9221 31.3254C27.2041 31.3241 27.4861 31.3239 27.7681 31.3237C27.9633 31.3233 28.1586 31.3229 28.3538 31.3224C28.7637 31.3217 29.1735 31.3214 29.5834 31.3215C30.1094 31.3215 30.6354 31.3198 31.1615 31.3176C31.5649 31.3161 31.9683 31.3159 32.3718 31.3159C32.5658 31.3158 32.7597 31.3152 32.9537 31.3142C33.2247 31.313 33.4956 31.3133 33.7666 31.3141C33.9982 31.3138 33.9982 31.3138 34.2344 31.3136C34.5965 31.3453 34.5965 31.3453 34.8537 31.6025C34.7848 32.0572 34.7848 32.0572 34.5965 32.2456C34.325 32.2583 34.053 32.262 33.7812 32.2622C33.6535 32.2625 33.6535 32.2625 33.5233 32.2629C33.2407 32.2634 32.9581 32.2631 32.6755 32.2626C32.4799 32.2627 32.2844 32.2628 32.0888 32.263C31.6784 32.2632 31.268 32.2629 30.8576 32.2623C30.3304 32.2616 29.8033 32.262 29.2761 32.2628C28.8721 32.2632 28.4681 32.2631 28.0641 32.2628C27.8697 32.2627 27.6752 32.2628 27.4808 32.2631C27.2095 32.2634 26.9382 32.2629 26.6669 32.2622C26.5122 32.2621 26.3576 32.262 26.1982 32.2619C25.8516 32.2456 25.8516 32.2456 25.723 32.117C25.7069 31.7955 25.7069 31.7955 25.723 31.4739C25.9604 31.2365 26.3471 31.3277 26.6649 31.3267Z" fill="white"/>
<path d="M25.8532 25.5583C28.7815 25.5583 31.7097 25.5583 34.7267 25.5583C34.7904 25.8766 34.7904 25.8766 34.8553 26.2014C34.4977 26.559 34.2829 26.4912 33.782 26.4918C33.6984 26.4923 33.6147 26.4927 33.5285 26.4932C33.2514 26.4943 32.9743 26.4936 32.6972 26.4927C32.505 26.4929 32.3128 26.4931 32.1206 26.4935C31.7176 26.4938 31.3146 26.4933 30.9116 26.4921C30.3943 26.4906 29.8771 26.4915 29.3599 26.493C28.9629 26.4939 28.566 26.4936 28.1691 26.493C27.9783 26.4928 27.7876 26.493 27.5968 26.4936C27.3305 26.4943 27.0642 26.4933 26.7979 26.4918C26.6462 26.4916 26.4944 26.4914 26.3381 26.4912C25.9818 26.4586 25.9818 26.4586 25.7246 26.2014C25.767 25.9892 25.8095 25.777 25.8532 25.5583Z" fill="white"/>
<path d="M25.8532 19.6425C28.7815 19.6425 31.7097 19.6425 34.7267 19.6425C34.7904 19.9607 34.7904 19.9607 34.8553 20.2855C34.4977 20.6431 34.2829 20.5753 33.782 20.5759C33.6984 20.5764 33.6147 20.5768 33.5285 20.5773C33.2514 20.5784 32.9743 20.5777 32.6972 20.5768C32.505 20.577 32.3128 20.5772 32.1206 20.5776C31.7176 20.578 31.3146 20.5774 30.9116 20.5762C30.3943 20.5747 29.8771 20.5756 29.3599 20.5771C28.9629 20.578 28.566 20.5778 28.1691 20.5771C27.9783 20.5769 27.7876 20.5771 27.5968 20.5777C27.3305 20.5784 27.0642 20.5774 26.7979 20.5759C26.6462 20.5757 26.4944 20.5755 26.3381 20.5753C25.9818 20.5427 25.9818 20.5427 25.7246 20.2855C25.767 20.0733 25.8095 19.8611 25.8532 19.6425Z" fill="white"/>
<path d="M25.8532 34.3036C26.8067 34.3006 27.7603 34.2983 28.7138 34.2969C29.1565 34.2962 29.5992 34.2953 30.042 34.2938C30.5505 34.2922 31.0589 34.2916 31.5674 34.291C31.807 34.29 31.807 34.29 32.0513 34.289C32.1981 34.289 32.3448 34.289 32.496 34.289C32.6259 34.2887 32.7559 34.2884 32.8897 34.2881C33.1835 34.3036 33.1835 34.3036 33.3121 34.4322C33.3173 34.6464 33.3176 34.8609 33.3121 35.0752C32.9831 35.2396 32.7488 35.221 32.3805 35.2224C32.2397 35.2233 32.099 35.2241 31.9539 35.2249C31.8014 35.2251 31.6488 35.2252 31.4916 35.2254C31.3356 35.2258 31.1795 35.2262 31.0188 35.2267C30.6884 35.2273 30.358 35.2276 30.0277 35.2276C29.5205 35.2279 29.0133 35.2302 28.5061 35.2326C28.1858 35.233 27.8655 35.2333 27.5451 35.2334C27.3925 35.2343 27.24 35.2352 27.0828 35.2362C26.8716 35.2356 26.8716 35.2356 26.6562 35.235C26.5319 35.2352 26.4076 35.2354 26.2795 35.2356C25.9818 35.2038 25.9818 35.2038 25.7246 34.9466C25.7728 34.609 25.7728 34.609 25.8532 34.3036Z" fill="white"/>
<path d="M26.2795 28.3554C26.466 28.3557 26.466 28.3557 26.6562 28.3559C26.797 28.3555 26.9377 28.3551 27.0828 28.3547C27.3116 28.3561 27.3116 28.3561 27.5451 28.3575C27.7792 28.3576 27.7792 28.3576 28.0179 28.3577C28.3483 28.3581 28.6787 28.3591 29.009 28.3607C29.5162 28.3631 30.0234 28.3633 30.5306 28.3633C30.8509 28.3639 31.1713 28.3647 31.4916 28.3656C31.6442 28.3657 31.7967 28.3659 31.9539 28.366C32.0947 28.3668 32.2355 28.3676 32.3805 28.3685C32.5669 28.3692 32.5669 28.3692 32.7572 28.37C33.0549 28.3872 33.0549 28.3872 33.3121 28.5158C33.3176 28.73 33.3173 28.9445 33.3121 29.1588C33.1835 29.2874 33.1835 29.2874 32.8897 29.3029C32.7598 29.3026 32.6299 29.3023 32.496 29.302C32.3493 29.302 32.2025 29.302 32.0513 29.302C31.8916 29.3013 31.732 29.3006 31.5674 29.2999C31.3237 29.2997 31.3237 29.2997 31.0749 29.2994C30.6422 29.2988 30.2094 29.2976 29.7766 29.2962C29.3353 29.2949 28.894 29.2943 28.4526 29.2937C27.5861 29.2922 26.7197 29.2901 25.8532 29.2874C25.7728 28.982 25.7728 28.982 25.7246 28.6444C25.9818 28.3872 25.9818 28.3872 26.2795 28.3554Z" fill="white"/>
<path d="M26.2795 22.4398C26.466 22.4401 26.466 22.4401 26.6562 22.4403C26.797 22.44 26.9377 22.4396 27.0828 22.4391C27.3116 22.4405 27.3116 22.4405 27.5451 22.4419C27.7792 22.442 27.7792 22.442 28.0179 22.4421C28.3483 22.4425 28.6787 22.4435 29.009 22.4451C29.5162 22.4475 30.0234 22.4478 30.5306 22.4477C30.8509 22.4484 31.1713 22.4491 31.4916 22.45C31.6442 22.4501 31.7967 22.4503 31.9539 22.4504C32.0947 22.4512 32.2355 22.4521 32.3805 22.4529C32.5669 22.4536 32.5669 22.4536 32.7572 22.4544C33.0549 22.4716 33.0549 22.4716 33.3121 22.6002C33.3176 22.8145 33.3173 23.0289 33.3121 23.2432C33.1835 23.3718 33.1835 23.3718 32.8897 23.3873C32.7598 23.387 32.6299 23.3867 32.496 23.3864C32.3493 23.3864 32.2025 23.3864 32.0513 23.3864C31.8916 23.3857 31.732 23.385 31.5674 23.3844C31.3237 23.3841 31.3237 23.3841 31.0749 23.3838C30.6422 23.3832 30.2094 23.382 29.7766 23.3806C29.3353 23.3793 28.894 23.3787 28.4526 23.3781C27.5861 23.3767 26.7197 23.3745 25.8532 23.3718C25.7728 23.0664 25.7728 23.0664 25.7246 22.7288C25.9818 22.4716 25.9818 22.4716 26.2795 22.4398Z" fill="white"/>
<path d="M24.2191 25.3287C24.2912 25.362 24.3633 25.3954 24.4376 25.4297C24.5331 25.7139 24.5331 25.7139 24.5662 26.0727C24.3667 26.37 24.3667 26.37 24.0668 26.67C23.9591 26.7782 23.8513 26.8863 23.7403 26.9978C23.6256 27.1089 23.5109 27.2201 23.3927 27.3346C23.281 27.4482 23.1692 27.5619 23.0541 27.679C22.2207 28.5016 22.2207 28.5016 21.7869 28.5661C21.3126 28.489 21.0524 28.1819 20.7323 27.849C20.6677 27.7869 20.6031 27.7249 20.5366 27.6609C20.2332 27.3534 20.0728 27.1689 20.0234 26.7333C20.0372 26.6426 20.051 26.5519 20.0651 26.4585C20.352 26.3626 20.352 26.3626 20.7081 26.3299C20.996 26.5424 20.996 26.5424 21.2627 26.8363C21.3524 26.9329 21.4421 27.0296 21.5345 27.1291C21.6013 27.2049 21.6681 27.2807 21.737 27.3587C22.4183 26.7958 23.0231 26.192 23.6233 25.5427C23.9232 25.3011 23.9232 25.3011 24.2191 25.3287Z" fill="white"/>
<path d="M24.2834 19.5412C24.3765 19.5745 24.4697 19.6078 24.5657 19.6422C24.5686 20.2417 24.3643 20.5389 23.9734 20.9628C23.7787 21.1593 23.5822 21.354 23.3842 21.5471C23.2383 21.6966 23.2383 21.6966 23.0895 21.8492C22.69 22.2453 22.3634 22.5529 21.8414 22.7713C21.3226 22.7101 21.0643 22.4361 20.7237 22.0695C20.6597 22.0069 20.5957 21.9442 20.5298 21.8796C20.23 21.57 20.0719 21.3794 20.0234 20.9453C20.037 20.8547 20.0506 20.7642 20.0646 20.671C20.3515 20.575 20.3515 20.575 20.7076 20.5424C20.9955 20.7549 20.9955 20.7549 21.2622 21.0487C21.3519 21.1454 21.4416 21.242 21.534 21.3416C21.6008 21.4174 21.6676 21.4931 21.7364 21.5712C22.4165 21.0094 23.0158 20.4075 23.6102 19.7552C23.9227 19.5136 23.9227 19.5136 24.2834 19.5412Z" fill="white"/>
<path d="M24.2967 31.2303C24.3854 31.2682 24.4741 31.3062 24.5655 31.3453C24.6126 31.7631 24.6 31.9401 24.3514 32.2876C24.0308 32.6133 23.7098 32.9379 23.384 33.2582C23.2728 33.373 23.1617 33.4877 23.0472 33.6059C22.939 33.7136 22.8308 33.8214 22.7194 33.9324C22.6204 34.0313 22.5214 34.1303 22.4194 34.2322C22.1221 34.4317 22.1221 34.4317 21.7868 34.4174C21.3426 34.2525 21.05 33.9587 20.7235 33.628C20.6579 33.5665 20.5922 33.505 20.5246 33.4416C20.3387 33.2562 20.3387 33.2562 20.0645 32.8885C20.0876 32.5208 20.0876 32.5208 20.1931 32.2455C20.4583 32.1892 20.4583 32.1892 20.8361 32.2455C21.1669 32.5182 21.4524 32.825 21.7363 33.1457C22.1152 32.9765 22.3653 32.7994 22.644 32.4932C22.7149 32.418 22.7858 32.3428 22.8588 32.2654C23.0058 32.1069 23.1518 31.9475 23.2968 31.7871C23.8422 31.2138 23.8422 31.2138 24.2967 31.2303Z" fill="white"/>
</svg>
