<svg width="38" height="34" viewBox="0 0 38 34" fill="none" xmlns="http://www.w3.org/2000/svg">
<ellipse cx="15.2286" cy="15" rx="15.2286" ry="15" fill="#3E82DA"/>
<path d="M25.8673 13.4638C26.2869 13.8219 26.2869 13.8219 26.3963 14.1553C26.5979 14.5381 26.5979 14.5381 27.1437 14.6333C27.3732 14.6711 27.6032 14.7058 27.8335 14.7381C27.9553 14.7578 28.0771 14.7775 28.2027 14.7978C28.5927 14.8606 28.9832 14.9195 29.3738 14.9779C29.7627 15.0372 30.1514 15.0974 30.5399 15.1597C30.7816 15.1983 31.0235 15.2352 31.2657 15.2701C31.9434 15.3771 32.4572 15.5139 33.0002 15.9498C33.2513 16.309 33.2513 16.309 33.4654 16.7305C33.5468 16.8878 33.6283 17.0452 33.7122 17.2073C33.797 17.3764 33.8819 17.5454 33.9693 17.7196C34.1519 18.0745 34.3347 18.4294 34.5175 18.7842C34.6099 18.9653 34.7024 19.1463 34.7977 19.3329C35.2378 20.1885 35.6926 21.0357 36.1471 21.8833C36.3044 22.1774 36.4616 22.4715 36.6185 22.7657C36.684 22.8881 36.7494 23.0106 36.8169 23.1367C36.9057 23.3063 36.9057 23.3063 36.9963 23.4793C37.0852 23.6463 37.0852 23.6463 37.176 23.8167C37.4007 24.326 37.3716 24.7289 37.316 25.2798C36.5475 26.7931 35.3356 27.3305 33.8269 27.8323C31.9214 28.1973 29.9452 27.9258 28.3261 26.8182C27.6731 26.2862 27.1427 25.6694 27.0174 24.8073C27.0335 23.8435 27.5858 23.024 28.0252 22.2005C28.1187 22.021 28.2121 21.8416 28.3085 21.6567C28.5908 21.1168 28.8767 20.579 29.164 20.0419C29.2904 19.8053 29.2904 19.8053 29.4193 19.5639C29.8619 18.738 30.3111 17.9166 30.7625 17.0956C29.3383 16.8255 27.9141 16.5554 26.4467 16.2771C26.3413 16.5472 26.2358 16.8173 26.1271 17.0956C25.8633 17.2036 25.5996 17.3116 25.3279 17.4229C25.3279 22.3384 25.3279 27.2539 25.3279 32.3183C27.6488 32.3183 29.9696 32.3183 32.3609 32.3183C32.5207 32.482 32.5207 32.482 32.5507 33.0446C32.5207 33.6277 32.5207 33.6278 32.201 33.9551C31.7115 33.9877 31.2363 33.9997 30.7465 33.9975C30.5204 33.9983 30.5204 33.9983 30.2897 33.9992C29.7896 34.0007 29.2895 33.9997 28.7894 33.9986C28.443 33.9988 28.0966 33.9991 27.7502 33.9995C27.0236 34 26.2969 33.9993 25.5702 33.9978C24.637 33.9959 23.7039 33.997 22.7708 33.999C22.0553 34.0002 21.3398 33.9998 20.6243 33.9989C20.2801 33.9987 19.936 33.999 19.5918 33.9997C19.1115 34.0006 18.6312 33.9993 18.1509 33.9975C18.0076 33.9981 17.8643 33.9988 17.7166 33.9995C16.7329 33.9925 16.7329 33.9925 16.3767 33.6277C16.3468 33.0446 16.3468 33.0446 16.3767 32.482C16.5366 32.3183 16.5366 32.3183 16.8289 32.2986C16.9563 32.2989 17.0837 32.2993 17.215 32.2997C17.359 32.2997 17.503 32.2997 17.6514 32.2997C17.8079 32.3006 17.9644 32.3014 18.1256 32.3023C18.2851 32.3025 18.4445 32.3027 18.6087 32.303C19.1202 32.3039 19.6316 32.306 20.143 32.308C20.4888 32.3089 20.8346 32.3096 21.1804 32.3103C22.0301 32.3121 22.8798 32.3148 23.7294 32.3183C23.7345 30.4144 23.7335 28.5107 23.7249 26.6068C23.7211 25.7228 23.7193 24.8388 23.7223 23.9547C23.7251 23.1014 23.7225 22.2482 23.7161 21.3948C23.7146 21.0695 23.715 20.7441 23.7175 20.4187C23.7206 19.9624 23.7168 19.5067 23.7113 19.0504C23.7138 18.9162 23.7164 18.782 23.719 18.6437C23.7059 18.0775 23.6885 17.7263 23.3167 17.2895C23.0177 17.0229 23.0177 17.0229 22.7061 16.7998C22.4507 16.6045 22.4507 16.6045 22.2909 16.2771C21.9437 16.1694 21.9437 16.1694 21.5229 16.1019C21.3669 16.0734 21.2109 16.045 21.0502 16.0156C20.886 15.9871 20.7218 15.9586 20.5526 15.9293C20.3896 15.8995 20.2266 15.8698 20.0587 15.8391C19.1818 15.6774 19.1818 15.6774 18.2948 15.6224C18.3624 15.7509 18.4301 15.8795 18.4997 16.0119C18.7555 16.4987 19.0111 16.9856 19.2665 17.4726C19.3762 17.6816 19.4859 17.8904 19.5957 18.0992C19.9133 18.703 20.2291 19.3077 20.542 19.914C20.6888 20.1985 20.8364 20.4826 20.9841 20.7667C21.0714 20.939 21.1588 21.1112 21.2488 21.2887C21.3261 21.44 21.4034 21.5912 21.483 21.7471C21.7504 22.418 21.7356 22.9687 21.4917 23.643C20.8347 24.7715 19.7519 25.2125 18.5714 25.627C17.888 25.7919 17.2658 25.8273 16.5665 25.822C16.4395 25.8211 16.3125 25.8202 16.1817 25.8192C14.5896 25.7856 13.2827 25.3857 12.061 24.2977C11.641 23.7934 11.443 23.3134 11.3555 22.65C11.4488 21.7417 11.8251 21.0802 12.2508 20.2874C12.3359 20.1249 12.421 19.9623 12.5087 19.7948C13.4503 18.0067 14.4216 16.2335 15.4177 14.4766C15.4827 14.329 15.5477 14.1815 15.6146 14.0294C15.8972 13.6582 15.8972 13.6582 16.4055 13.5127C17.0645 13.493 17.6703 13.5662 18.3142 13.6933C18.4332 13.7154 18.5523 13.7374 18.6749 13.7601C19.0514 13.8302 19.4273 13.9027 19.8033 13.9753C20.06 14.0235 20.3168 14.0716 20.5735 14.1195C21.1996 14.2366 21.8252 14.356 22.4507 14.4766C22.498 14.3463 22.5452 14.216 22.5939 14.0817C22.8413 13.488 23.1375 13.3663 23.6945 13.1121C24.5175 12.8599 25.1284 13.0574 25.8673 13.4638ZM24.209 14.4766C23.998 14.7467 23.787 15.0168 23.5696 15.295C23.8954 15.9596 23.8954 15.9596 24.5286 16.2771C24.7924 16.007 25.0561 15.737 25.3279 15.4587C25.2279 15.0456 25.2279 15.0456 25.0082 14.6403C24.6009 14.494 24.6009 14.494 24.209 14.4766ZM16.3767 15.6224C15.9922 16.3591 15.6082 17.0961 15.2246 17.8333C15.094 18.0841 14.9633 18.3348 14.8324 18.5854C14.6444 18.9456 14.4569 19.306 14.2695 19.6666C14.2108 19.7786 14.1522 19.8906 14.0918 20.0061C13.8611 20.4508 13.6554 20.8726 13.4996 21.3514C15.504 21.3514 17.5084 21.3514 19.5736 21.3514C18.5347 19.2109 18.5347 19.2109 17.4357 17.1058C17.3679 16.9784 17.3001 16.8511 17.2303 16.7199C17.1649 16.5993 17.0996 16.4787 17.0323 16.3545C16.9752 16.2486 16.918 16.1427 16.8591 16.0336C16.7066 15.7577 16.7066 15.7577 16.3767 15.6224ZM32.0412 17.7503C31.6823 18.4344 31.3239 19.1187 30.9661 19.8034C30.8444 20.036 30.7225 20.2686 30.6005 20.5011C30.4247 20.8361 30.2495 21.1714 30.0744 21.5067C30.0201 21.6099 29.9658 21.7131 29.9099 21.8194C29.6245 22.3672 29.3903 22.9 29.164 23.4793C31.1685 23.4793 33.1729 23.4793 35.238 23.4793C35.0046 22.7621 34.8073 22.2483 34.4494 21.6122C34.3589 21.45 34.2683 21.2877 34.175 21.1205C34.0807 20.9536 33.9865 20.7867 33.8894 20.6148C32.7494 18.5832 32.7494 18.5832 32.3609 17.7503C32.2554 17.7503 32.1499 17.7503 32.0412 17.7503Z" fill="white"/>
</svg>
