<svg width="37" height="37" viewBox="0 0 37 37" fill="none" xmlns="http://www.w3.org/2000/svg">
<ellipse cx="15.2286" cy="15" rx="15.2286" ry="15" fill="#3E82DA"/>
<path d="M29.1318 31.1864C29.423 31.3989 29.423 31.3989 29.7641 31.9106C29.8403 32.4127 29.8273 32.9172 29.8281 33.4245C29.8322 33.5615 29.8364 33.6984 29.8407 33.8396C29.8442 34.536 29.8205 34.8916 29.4403 35.494C28.8913 36.0144 28.5787 36.0271 27.8386 36.0346C27.6502 36.0368 27.4617 36.0389 27.2675 36.0412C27.063 36.0425 26.8585 36.0437 26.6478 36.045C26.3336 36.0471 26.3336 36.0471 26.013 36.0492C25.5689 36.0516 25.1248 36.0534 24.6807 36.0547C24.0012 36.057 23.3219 36.0651 22.6424 36.0727C22.2114 36.0744 21.7805 36.0759 21.3495 36.077C21.0443 36.0815 21.0443 36.0815 20.7329 36.0861C19.3211 36.0823 19.3211 36.0823 18.6379 35.68C18.0599 34.9951 18.1162 34.3393 18.1013 33.4778C18.0949 33.34 18.0885 33.2023 18.082 33.0603C18.0713 32.3375 18.091 32.0105 18.5337 31.4149C19.0182 31.0577 19.4505 30.8199 20.0096 30.5994C20.2592 30.4981 20.2592 30.4981 20.5139 30.3948C23.4516 29.3824 26.4214 29.6526 29.1318 31.1864ZM19.1887 32.2518C19.1795 32.6426 19.1729 33.0335 19.1674 33.4245C19.1634 33.6421 19.1595 33.8598 19.1554 34.0841C19.1279 34.6545 19.1279 34.6545 19.5298 34.9809C19.9205 35.0332 19.9205 35.0332 20.3774 35.0251C20.5538 35.0262 20.7303 35.0272 20.9121 35.0283C21.1032 35.0277 21.2944 35.027 21.4914 35.0263C21.687 35.0266 21.8826 35.0269 22.0841 35.0272C22.4982 35.0275 22.9123 35.0268 23.3264 35.0254C23.962 35.0236 24.5976 35.0254 25.2333 35.0276C25.6349 35.0274 26.0364 35.0269 26.438 35.0263C26.7247 35.0273 26.7247 35.0273 27.0173 35.0283C27.282 35.0267 27.282 35.0267 27.552 35.0251C27.7078 35.0248 27.8636 35.0245 28.0241 35.0243C28.4349 35.0163 28.4349 35.0163 28.7407 34.6398C28.7822 34.0671 28.7822 34.0671 28.762 33.4245C28.7589 33.2059 28.7558 32.9873 28.7527 32.7622C28.7487 32.5937 28.7447 32.4253 28.7407 32.2518C25.5239 30.3714 22.452 30.4608 19.1887 32.2518Z" fill="white"/>
<path d="M35.7362 27.1346C36.2343 27.5679 36.3985 27.9124 36.4532 28.5824C36.4689 29.528 36.4798 30.2597 35.9068 31.0577C35.3003 31.4713 34.7323 31.4429 34.0132 31.4442C33.8976 31.4445 33.782 31.4448 33.6629 31.4452C33.4195 31.4454 33.1761 31.4448 32.9326 31.4434C32.5594 31.4415 32.1863 31.4433 31.8131 31.4455C31.5763 31.4453 31.3396 31.4449 31.1028 31.4442C30.8874 31.4438 30.672 31.4434 30.4501 31.443C29.9368 31.3989 29.9368 31.3989 29.5957 31.0577C29.652 30.8326 29.7083 30.6074 29.7662 30.3755C31.5675 30.3192 33.3687 30.2629 35.2245 30.2049C35.2245 29.642 35.2245 29.0791 35.2245 28.4992C34.2172 27.4918 32.8959 27.1953 31.5006 27.1159C30.2908 27.1577 29.139 27.4458 28.0605 27.9874C27.5915 28.0088 27.5915 28.0088 27.2077 27.9874C27.1514 27.706 27.0951 27.4245 27.0371 27.1346C29.8202 25.552 32.9637 25.5214 35.7362 27.1346Z" fill="white"/>
<path d="M20.8954 27.1337C20.8391 27.4151 20.7829 27.6966 20.7249 27.9865C20.0653 28.0231 19.6219 27.9207 19.0192 27.6561C17.2043 26.8649 15.4253 27.1063 13.6022 27.7933C13.1626 27.9904 13.1626 27.9904 12.708 28.4983C12.708 29.0612 12.708 29.624 12.708 30.204C15.4099 30.2884 15.4099 30.2884 18.1663 30.3746C18.1663 30.656 18.1663 30.9374 18.1663 31.2274C17.7137 31.68 16.4217 31.4372 15.7706 31.439C15.3984 31.4406 15.0264 31.4459 14.6543 31.4513C14.4168 31.4524 14.1794 31.4533 13.942 31.454C13.618 31.4564 13.618 31.4564 13.2875 31.4588C12.6656 31.3935 12.3484 31.2631 11.8552 30.8863C11.3803 30.0255 11.4246 29.1136 11.514 28.1571C11.7768 27.4306 12.1929 27.1328 12.8739 26.7772C15.5804 25.5621 18.3006 25.6865 20.8954 27.1337Z" fill="white"/>
<path d="M25.3934 23.243C26.2159 23.8109 26.6575 24.4496 26.8646 25.4285C26.8812 26.4515 26.7049 27.2027 26.0118 27.9871C25.1901 28.6115 24.5574 28.7817 23.5265 28.7346C22.6183 28.5916 22.0806 28.1966 21.5129 27.4647C21.085 26.691 20.993 26.1382 21.0652 25.2579C21.3739 24.3586 21.7875 23.7321 22.6003 23.211C23.5276 22.9019 24.4736 22.9194 25.3934 23.243ZM22.1952 25.0553C22.0292 25.6365 22.1063 26.0413 22.2592 26.6225C22.7707 27.2258 23.1271 27.6089 23.9223 27.6992C24.6277 27.6314 24.9607 27.4171 25.5 26.9636C25.8031 26.4629 25.8442 26.1836 25.8199 25.599C25.6476 25.0086 25.408 24.6796 24.9883 24.2345C23.8479 23.6643 22.9086 24.115 22.1952 25.0553Z" fill="white"/>
<path d="M17.3146 20.3126C18.1363 20.7157 18.6112 21.2001 19.0203 22.0183C19.1821 22.9271 19.0199 23.6306 18.5086 24.4064C17.8809 24.987 17.4399 25.2369 16.579 25.3019C15.6707 25.2403 15.1498 24.9888 14.5322 24.3211C14.0492 23.6055 14.0162 23.0384 14.0738 22.1889C14.6519 20.637 15.7505 20.1253 17.3146 20.3126ZM15.2678 22.0183C15.0548 22.5992 15.0548 22.5992 15.0972 23.2123C15.4225 23.811 15.6347 24.0159 16.2805 24.2358C16.9057 24.2358 17.1663 24.1047 17.6558 23.7241C18.053 23.2335 18.053 23.2335 17.9862 22.626C17.8734 22.0041 17.8734 22.0041 17.4425 21.6026C16.5311 21.0847 15.9733 21.254 15.2678 22.0183Z" fill="white"/>
<path d="M32.1524 20.3117C33.0253 20.7643 33.5472 21.2551 33.8581 22.188C33.9257 23.0833 33.8352 23.6469 33.3464 24.4054C32.7187 24.986 32.2777 25.2359 31.4168 25.3009C30.5085 25.2393 29.9876 24.9879 29.37 24.3201C28.8788 23.5924 28.7958 22.8767 28.9116 22.0174C29.5977 20.6451 30.6496 20.0423 32.1524 20.3117ZM30.1056 22.0174C29.8926 22.5982 29.8926 22.5982 29.935 23.2114C30.2603 23.81 30.4725 24.015 31.1183 24.2348C31.7435 24.2348 32.0041 24.1038 32.4935 23.7231C32.8908 23.2326 32.8908 23.2326 32.824 22.6251C32.7111 22.0031 32.7111 22.0031 32.2803 21.6016C31.3689 21.0838 30.8111 21.2531 30.1056 22.0174Z" fill="white"/>
</svg>
