<svg width="39" height="36" viewBox="0 0 39 36" fill="none" xmlns="http://www.w3.org/2000/svg">
<ellipse cx="15.2286" cy="15" rx="15.2286" ry="15" fill="#3E82DA"/>
<path d="M22.9374 11.0088C22.9691 11.0086 23.0008 11.0084 23.0334 11.0083C23.139 11.0078 23.2447 11.0079 23.3503 11.0079C23.4263 11.0077 23.5022 11.0075 23.5781 11.0072C23.7841 11.0066 23.9901 11.0064 24.1961 11.0063C24.3249 11.0063 24.4537 11.0061 24.5825 11.0059C25.0321 11.0053 25.4817 11.005 25.9313 11.005C26.3499 11.0051 26.7685 11.0043 27.1872 11.0032C27.547 11.0022 27.9068 11.0018 28.2666 11.0019C28.4813 11.0019 28.696 11.0017 28.9107 11.0009C29.1128 11.0002 29.3148 11.0002 29.5168 11.0007C29.5908 11.0008 29.6647 11.0006 29.7387 11.0002C30.2605 10.9973 30.6848 11.0242 31.092 11.3911C31.1219 11.4241 31.1519 11.457 31.1828 11.491C31.2008 11.5107 31.2188 11.5304 31.2374 11.5507C31.4824 11.8433 31.5732 12.2108 31.557 12.5882C31.5288 12.846 31.4386 13.0563 31.322 13.2867C31.2958 13.3388 31.2696 13.3908 31.2434 13.4429C31.2283 13.4728 31.2133 13.5027 31.1977 13.5335C31.1047 13.7186 31.0126 13.9041 30.9203 14.0896C30.8473 14.2361 30.7742 14.3826 30.7012 14.529C30.6385 14.6547 30.5759 14.7805 30.5133 14.9062C30.2576 15.4198 30.0018 15.9331 29.732 16.4395C29.6181 16.6537 29.5108 16.8711 29.4038 17.0887C29.5544 17.135 29.7044 17.1721 29.8589 17.2034C30.6753 17.3703 31.4855 17.6033 32.2393 17.9647C32.3159 18.0011 32.3932 18.0358 32.4706 18.0704C33.3001 18.4463 34.0704 18.9504 34.777 19.5241C34.8069 19.5483 34.8069 19.5483 34.8374 19.573C35.1529 19.8317 35.4455 20.1133 35.7346 20.401C35.7678 20.4339 35.801 20.4668 35.8353 20.5008C36.0546 20.7214 36.2546 20.9518 36.4471 21.1961C36.468 21.2223 36.4888 21.2485 36.5104 21.2755C37.8258 22.9373 38.6472 24.9026 38.9068 27.0073C38.911 27.0414 38.9152 27.0754 38.9195 27.1105C38.988 27.717 38.9961 28.3271 38.9972 28.9369C38.9976 29.0558 38.9987 29.1748 38.9998 29.2937C39.0032 29.9542 38.9592 30.6162 38.782 31.2556C38.7682 31.3068 38.7682 31.3068 38.754 31.3591C38.5374 32.1285 38.1672 32.8494 37.6815 33.4819C37.6567 33.5149 37.6319 33.5479 37.6063 33.5819C36.718 34.718 35.4574 35.4975 34.0623 35.8378C34.0334 35.8449 34.0046 35.8519 33.9749 35.8592C33.5 35.9681 33.0251 36.0009 32.5393 35.9992C32.4847 35.9993 32.4301 35.9994 32.3755 35.9995C32.2273 35.9998 32.079 35.9997 31.9308 35.9995C31.7702 35.9993 31.6097 35.9996 31.4491 35.9998C31.1352 36.0001 30.8214 36 30.5075 35.9998C30.2523 35.9996 29.9971 35.9996 29.7418 35.9997C29.7054 35.9997 29.6689 35.9997 29.6314 35.9997C29.5574 35.9998 29.4834 35.9998 29.4093 35.9998C28.7164 36 28.0235 35.9998 27.3306 35.9994C26.737 35.9991 26.1434 35.9991 25.5498 35.9995C24.8592 35.9998 24.1686 36 23.4781 35.9998C23.4043 35.9997 23.3306 35.9997 23.2568 35.9997C23.2206 35.9997 23.1843 35.9997 23.1469 35.9997C22.8922 35.9996 22.6375 35.9997 22.3828 35.9999C22.072 36.0001 21.7613 36 21.4506 35.9996C21.2923 35.9995 21.134 35.9994 20.9756 35.9996C20.8303 35.9998 20.685 35.9997 20.5398 35.9993C20.4876 35.9992 20.4354 35.9993 20.3832 35.9995C19.8935 36.001 19.4129 35.9549 18.9364 35.8378C18.8886 35.8261 18.8886 35.8261 18.8399 35.8142C17.6863 35.5216 16.7181 34.9147 15.8617 34.0998C15.8388 34.0788 15.8159 34.0578 15.7923 34.0361C14.8835 33.1759 14.3313 31.9209 14.11 30.7081C14.1041 30.6767 14.0981 30.6453 14.092 30.613C13.9823 29.9693 14.0014 29.3006 14.0011 28.6498C14.0011 28.6092 14.001 28.5685 14.001 28.5266C14.0041 25.266 15.2761 22.3897 17.569 20.0981C17.7775 19.8919 17.9879 19.7015 18.2216 19.5241C18.2682 19.4874 18.3147 19.4507 18.3612 19.4139C18.6904 19.1553 19.0286 18.9178 19.3841 18.6967C19.4499 18.6555 19.5151 18.6133 19.5801 18.5708C20.0318 18.2811 20.5281 18.0698 21.0172 17.852C21.0449 17.8396 21.0726 17.8272 21.1011 17.8144C21.8304 17.4913 22.8195 17.1251 23.6312 17.1251C23.5663 16.994 23.5012 16.863 23.436 16.732C23.4183 16.6962 23.4005 16.6604 23.3823 16.6235C23.2663 16.3905 23.1468 16.1597 23.025 15.9297C22.7961 15.4965 22.5793 15.0574 22.3616 14.6186C22.1623 14.2169 21.9616 13.8165 21.7504 13.421C21.496 12.9432 21.3797 12.5363 21.524 12.0009C21.6584 11.6088 21.9138 11.3258 22.2731 11.1291C22.4981 11.0314 22.695 11.0078 22.9374 11.0088ZM22.6872 12.3293C22.6257 12.5103 22.7184 12.6748 22.7969 12.8424C22.8416 12.9295 22.8879 13.0157 22.9346 13.1017C23.182 13.5669 23.4162 14.0386 23.6503 14.5106C23.8385 14.8901 24.0292 15.2679 24.2275 15.6423C24.373 15.9176 24.512 16.1961 24.65 16.4753C24.6972 16.5709 24.7446 16.6664 24.792 16.7619C24.8123 16.803 24.8326 16.8441 24.8535 16.8864C24.8934 16.9749 24.8934 16.9749 24.9382 17.016C25.0365 17.0195 25.1339 17.0206 25.2322 17.0201C25.2785 17.0201 25.2785 17.0201 25.3256 17.0202C25.428 17.0201 25.5303 17.0198 25.6327 17.0196C25.7034 17.0195 25.7742 17.0194 25.845 17.0194C26.0316 17.0193 26.2182 17.0189 26.4049 17.0185C26.5952 17.0181 26.7855 17.018 26.9758 17.0178C27.3494 17.0174 27.7231 17.0168 28.0968 17.016C28.1092 16.9911 28.1215 16.9663 28.1343 16.9406C28.2527 16.7028 28.3712 16.4649 28.4898 16.2272C28.5507 16.105 28.6116 15.9828 28.6724 15.8606C29.1388 14.9237 29.1388 14.9237 29.3807 14.4676C29.5573 14.1343 29.7275 13.7978 29.8968 13.4607C29.9347 13.3855 29.9727 13.3103 30.0109 13.2353C30.0669 13.1251 30.1224 13.0148 30.1778 12.9044C30.195 12.8709 30.2121 12.8374 30.2297 12.8029C30.2453 12.7717 30.2608 12.7405 30.2768 12.7083C30.2974 12.6675 30.2974 12.6675 30.3185 12.6258C30.3525 12.5319 30.3576 12.4626 30.3477 12.3634C30.2661 12.262 30.2178 12.2231 30.0936 12.1817C29.9988 12.1781 29.905 12.1766 29.8102 12.1768C29.781 12.1767 29.7518 12.1766 29.7218 12.1765C29.6237 12.1763 29.5256 12.1763 29.4275 12.1764C29.3574 12.1763 29.2872 12.1761 29.217 12.176C29.0261 12.1757 28.8352 12.1756 28.6443 12.1756C28.485 12.1755 28.3258 12.1754 28.1665 12.1753C27.7909 12.175 27.4152 12.1749 27.0396 12.1749C26.6518 12.1749 26.264 12.1746 25.8763 12.174C25.5436 12.1735 25.2109 12.1733 24.8782 12.1733C24.6794 12.1733 24.4806 12.1732 24.2818 12.1729C24.0948 12.1725 23.9079 12.1725 23.7209 12.1728C23.6522 12.1728 23.5836 12.1727 23.5149 12.1725C23.4213 12.1722 23.3276 12.1724 23.234 12.1727C23.2068 12.1725 23.1795 12.1723 23.1515 12.1721C22.9613 12.1734 22.8224 12.1897 22.6872 12.3293ZM24.6915 18.2117C24.6465 18.2145 24.6014 18.2174 24.555 18.2204C24.1327 18.2501 23.7192 18.3139 23.3044 18.3973C23.2643 18.405 23.2643 18.405 23.2233 18.4128C22.4761 18.5584 21.735 18.823 21.0535 19.1606C21.0182 19.178 20.9829 19.1955 20.9465 19.2134C20.4782 19.4469 20.0252 19.689 19.6012 19.9966C19.5639 20.0234 19.5266 20.0501 19.4882 20.0777C19.2123 20.2801 18.9516 20.499 18.6936 20.7236C18.663 20.75 18.6325 20.7765 18.601 20.8038C18.4178 20.9656 18.2428 21.135 18.0696 21.3074C18.0385 21.3383 18.0385 21.3383 18.0068 21.3697C17.7653 21.6124 17.5463 21.871 17.3389 22.1434C17.3186 22.1701 17.2983 22.1967 17.2774 22.2242C17.0993 22.4602 16.9325 22.7023 16.7731 22.9513C16.736 23.0089 16.6981 23.0661 16.6602 23.1231C15.5363 24.8633 15.2076 26.9044 15.2037 28.9338C15.2036 28.9619 15.2035 28.99 15.2034 29.019C15.1994 29.8001 15.1994 29.8001 15.3058 30.5718C15.3121 30.6019 15.3184 30.632 15.3249 30.663C15.538 31.6344 15.9942 32.4598 16.6605 33.1911C16.6864 33.2202 16.7124 33.2492 16.7392 33.2792C17.4038 33.9845 18.3342 34.4971 19.2838 34.6839C19.3161 34.6903 19.3485 34.6967 19.3818 34.7033C19.4063 34.708 19.4308 34.7128 19.456 34.7178C19.4561 34.6726 19.4563 34.6274 19.4564 34.5808C19.4578 34.1541 19.4599 33.7274 19.4627 33.3006C19.4641 33.0812 19.4653 32.8619 19.4658 32.6425C19.4664 32.4306 19.4677 32.2187 19.4694 32.0069C19.4699 31.9262 19.4702 31.8456 19.4702 31.7649C19.4703 31.6515 19.4713 31.5382 19.4725 31.4248C19.4722 31.3753 19.4722 31.3753 19.4719 31.3248C19.4781 30.9401 19.6403 30.6071 19.8917 30.3196C19.994 30.2308 20.1 30.1664 20.2184 30.1015C20.2422 30.0882 20.2661 30.0749 20.2906 30.0612C20.6007 29.9135 20.9246 29.9341 21.2602 29.934C21.3256 29.9334 21.3911 29.9328 21.4565 29.9321C21.6275 29.9306 21.7986 29.9298 21.9696 29.9293C22.1446 29.9286 22.3196 29.927 22.4946 29.9256C22.8372 29.9229 23.1797 29.921 23.5222 29.9198C23.5226 29.8853 23.5229 29.8509 23.5233 29.8154C23.5249 29.686 23.5271 29.5566 23.5298 29.4272C23.5308 29.3716 23.5316 29.3159 23.5321 29.2602C23.5369 28.7643 23.6229 28.3764 23.9579 27.9933C24.0603 27.9045 24.1662 27.8401 24.2847 27.7752C24.3085 27.7619 24.3323 27.7486 24.3568 27.7348C24.6669 27.5872 24.9908 27.6078 25.3265 27.6076C25.3919 27.6071 25.4573 27.6065 25.5227 27.6058C25.6938 27.6042 25.8648 27.6035 26.0359 27.603C26.2109 27.6023 26.3859 27.6007 26.5609 27.5993C26.9034 27.5965 27.2459 27.5947 27.5885 27.5935C27.5888 27.559 27.5892 27.5246 27.5895 27.4891C27.5911 27.3597 27.5934 27.2303 27.596 27.1009C27.597 27.0452 27.5978 26.9895 27.5983 26.9339C27.6032 26.438 27.6891 26.0501 28.0242 25.667C28.1265 25.5782 28.2325 25.5138 28.3509 25.4489C28.3867 25.4289 28.3867 25.4289 28.4233 25.4084C28.732 25.2615 29.0526 25.2824 29.3866 25.2842C29.4519 25.2841 29.5172 25.2839 29.5824 25.2838C29.7187 25.2835 29.855 25.2839 29.9914 25.2845C30.1651 25.2854 30.3388 25.2849 30.5126 25.284C30.6472 25.2835 30.7819 25.2837 30.9165 25.284C30.9805 25.2841 31.0445 25.284 31.1086 25.2837C31.6212 25.2815 32.0296 25.3327 32.4171 25.7033C32.7508 26.0619 32.8217 26.4787 32.8223 26.9531C32.8225 27.0035 32.8225 27.0035 32.8228 27.055C32.8234 27.1672 32.8237 27.2794 32.824 27.3917C32.8243 27.4723 32.8247 27.5529 32.8251 27.6335C32.826 27.8521 32.8268 28.0707 32.8275 28.2893C32.8283 28.5178 32.8293 28.7464 32.8303 28.9749C32.8319 29.3584 32.8334 29.7419 32.8348 30.1254C32.8362 30.5204 32.8377 30.9153 32.8393 31.3102C32.8394 31.3346 32.8395 31.359 32.8396 31.3841C32.8401 31.5063 32.8406 31.6285 32.8411 31.7507C32.8452 32.764 32.8491 33.7772 32.8528 34.7905C32.934 34.7851 33.0151 34.7796 33.0963 34.774C33.1415 34.771 33.1867 34.7679 33.2332 34.7648C33.3861 34.752 33.532 34.728 33.681 34.6928C33.7219 34.6833 33.7219 34.6833 33.7636 34.6737C35.1253 34.3443 36.2965 33.4945 37.0334 32.303C37.66 31.2604 37.8122 30.1811 37.804 28.9792C37.8038 28.9353 37.8037 28.8913 37.8035 28.846C37.8004 28.1691 37.7863 27.5002 37.6815 26.8301C37.6715 26.7664 37.6715 26.7664 37.6614 26.7014C37.3607 24.8794 36.5537 23.1195 35.3216 21.7413C35.2772 21.6916 35.2772 21.6916 35.232 21.6408C35.1772 21.5797 35.1221 21.5188 35.0669 21.4581C35.0039 21.388 34.9436 21.3165 34.8837 21.2438C34.7877 21.1309 34.6816 21.0357 34.5688 20.9398C34.4416 20.8302 34.3193 20.7152 34.1963 20.6009C33.5276 20.0158 32.7467 19.5402 31.9461 19.1592C31.8973 19.136 31.8486 19.1125 31.8 19.0888C30.8903 18.6463 29.9073 18.3993 28.9091 18.261C28.8793 18.2567 28.8496 18.2525 28.8189 18.2482C28.1098 18.159 27.3886 18.1723 26.6752 18.1724C26.5721 18.1724 26.4691 18.1722 26.366 18.1717C25.8067 18.169 25.2498 18.1758 24.6915 18.2117ZM28.8229 26.5393C28.7624 26.6605 28.7818 26.7966 28.7822 26.9299C28.7822 26.9632 28.7821 26.9965 28.7821 27.0308C28.7821 27.1431 28.7823 27.2554 28.7825 27.3677C28.7825 27.4479 28.7825 27.5282 28.7824 27.6084C28.7824 27.8268 28.7826 28.0452 28.7829 28.2635C28.7831 28.4915 28.7831 28.7195 28.7832 28.9475C28.7833 29.3304 28.7835 29.7133 28.7838 30.0962C28.7842 30.4906 28.7844 30.885 28.7846 31.2794C28.7846 31.3037 28.7846 31.328 28.7846 31.3531C28.7847 31.475 28.7847 31.5969 28.7848 31.7188C28.7851 32.7306 28.7858 33.7424 28.7866 34.7541C29.7331 34.7541 30.6796 34.7541 31.6547 34.7541C31.658 33.7004 31.6607 32.6467 31.6623 31.593C31.6624 31.4956 31.6626 31.3983 31.6627 31.301C31.6628 31.2647 31.6628 31.2647 31.6628 31.2276C31.6635 30.8358 31.6646 30.444 31.6659 30.0522C31.6673 29.6502 31.6681 29.2482 31.6684 28.8462C31.6686 28.6204 31.669 28.3946 31.6701 28.1688C31.6711 27.9563 31.6714 27.7439 31.6712 27.5314C31.6712 27.4533 31.6715 27.3753 31.672 27.2972C31.6728 27.1908 31.6726 27.0844 31.6722 26.978C31.6728 26.9315 31.6728 26.9315 31.6735 26.884C31.672 26.7372 31.6657 26.6658 31.5852 26.5387C31.4495 26.4095 31.3194 26.4256 31.138 26.4244C31.0922 26.4241 31.0463 26.4237 30.9992 26.4234C30.9493 26.4232 30.8994 26.423 30.8495 26.4229C30.7981 26.4227 30.7467 26.4225 30.6954 26.4223C30.5878 26.4219 30.4802 26.4217 30.3726 26.4216C30.235 26.4214 30.0975 26.4205 29.96 26.4195C29.8539 26.4188 29.7478 26.4186 29.6417 26.4185C29.591 26.4184 29.5403 26.4181 29.4896 26.4177C29.4186 26.417 29.3475 26.4172 29.2764 26.4173C29.2159 26.4171 29.2159 26.4171 29.1541 26.4169C29.023 26.4324 28.9355 26.4713 28.8229 26.5393ZM24.7566 28.8657C24.7055 28.9681 24.7159 29.0532 24.716 29.1679C24.7159 29.1917 24.7159 29.2155 24.7159 29.24C24.7158 29.3202 24.716 29.4003 24.7162 29.4805C24.7162 29.5378 24.7162 29.5951 24.7162 29.6524C24.7162 29.8083 24.7164 29.9642 24.7167 30.1201C24.7169 30.2829 24.7169 30.4457 24.7169 30.6085C24.7171 30.917 24.7174 31.2254 24.7177 31.5338C24.7182 31.9505 24.7184 32.3672 24.7186 32.7839C24.719 33.4406 24.7197 34.0974 24.7203 34.7541C25.6668 34.7541 26.6133 34.7541 27.5885 34.7541C27.5927 33.7314 27.5927 33.7314 27.5956 32.7086C27.5964 32.2916 27.5975 31.8746 27.5994 31.4576C27.6009 31.154 27.6018 30.8503 27.6022 30.5467C27.6023 30.3858 27.6028 30.225 27.6038 30.0642C27.6048 29.9129 27.6051 29.7615 27.6049 29.6102C27.605 29.5546 27.6052 29.4991 27.6058 29.4435C27.6065 29.3677 27.6063 29.2918 27.606 29.216C27.6062 29.1523 27.6062 29.1523 27.6064 29.0873C27.5847 28.951 27.5386 28.8907 27.4433 28.793C27.3254 28.742 27.1988 28.7515 27.0717 28.7507C27.0259 28.7504 26.9801 28.75 26.9329 28.7497C26.883 28.7495 26.8331 28.7494 26.7832 28.7492C26.7319 28.749 26.6805 28.7488 26.6291 28.7486C26.5215 28.7482 26.4139 28.748 26.3063 28.7479C26.1688 28.7477 26.0312 28.7468 25.8937 28.7458C25.7876 28.7451 25.6815 28.7449 25.5755 28.7448C25.5248 28.7447 25.4741 28.7444 25.4234 28.744C25.3523 28.7433 25.2813 28.7435 25.2102 28.7436C25.1497 28.7435 25.1497 28.7435 25.0879 28.7432C24.9568 28.7587 24.8692 28.7976 24.7566 28.8657ZM20.6904 31.192C20.6286 31.3157 20.6494 31.4571 20.65 31.5932C20.65 31.6273 20.65 31.6613 20.65 31.6964C20.65 31.8093 20.6503 31.9222 20.6506 32.0351C20.6506 32.1132 20.6507 32.1913 20.6507 32.2695C20.6508 32.4754 20.6512 32.6813 20.6516 32.8872C20.652 33.1342 20.6522 33.3811 20.6524 33.628C20.6528 34.0034 20.6535 34.3787 20.6541 34.7541C21.6006 34.7541 22.5471 34.7541 23.5222 34.7541C23.5265 34.1448 23.5265 34.1448 23.5293 33.5355C23.5302 33.287 23.5312 33.0385 23.5332 32.79C23.5348 32.5897 23.5357 32.3894 23.536 32.1891C23.5363 32.1126 23.5368 32.0362 23.5376 31.9597C23.5387 31.8527 23.5388 31.7457 23.5387 31.6386C23.5393 31.607 23.5398 31.5754 23.5403 31.5428C23.5393 31.3973 23.5329 31.3191 23.4577 31.1913C23.3163 31.065 23.19 31.0782 23.0055 31.0771C22.9597 31.0767 22.9139 31.0764 22.8667 31.076C22.8168 31.0758 22.7669 31.0757 22.717 31.0755C22.6656 31.0753 22.6143 31.0751 22.5629 31.0749C22.4553 31.0745 22.3477 31.0743 22.2401 31.0742C22.1025 31.074 21.965 31.0731 21.8275 31.0721C21.7214 31.0714 21.6153 31.0712 21.5092 31.0712C21.4585 31.071 21.4078 31.0708 21.3571 31.0703C21.2861 31.0697 21.215 31.0698 21.144 31.07C21.0834 31.0698 21.0834 31.0698 21.0217 31.0696C20.8906 31.085 20.803 31.124 20.6904 31.192Z" fill="white"/>
</svg>
