<svg width="40" height="37" viewBox="0 0 40 37" fill="none" xmlns="http://www.w3.org/2000/svg">
<ellipse cx="13.6703" cy="13.4651" rx="13.6703" ry="13.4651" fill="#3E82DA"/>
<path d="M26.8711 11.5745C26.9204 11.5745 26.9696 11.5745 27.0203 11.5746C27.8501 11.5763 28.6481 11.6302 29.4633 11.7906C29.5114 11.7999 29.5596 11.8091 29.6091 11.8187C31.2584 12.1443 32.9543 12.7992 34.3156 13.7665C34.3462 13.7879 34.3767 13.8093 34.4082 13.8313C35.4157 14.5372 36.3644 15.3279 37.1249 16.2858C37.1655 16.3353 37.2061 16.3848 37.248 16.4357C38.8969 18.4537 39.9733 21.0468 39.9974 23.6379C39.9979 23.6828 39.9984 23.7277 39.9989 23.774C40.0151 25.6022 39.7973 27.3264 39.0658 29.0304C39.0488 29.0701 39.0319 29.1098 39.0144 29.1508C38.5437 30.2384 37.9201 31.2625 37.1325 32.1646C37.0609 32.2468 36.9908 32.3303 36.9226 32.4151C36.4075 33.0515 35.796 33.6274 35.1329 34.1183C35.058 34.1763 35.058 34.1763 34.9816 34.2354C33.3674 35.4787 31.5027 36.2621 29.492 36.6777C29.4456 36.6873 29.3991 36.697 29.3513 36.7069C28.5445 36.8645 27.7496 36.9032 26.9286 36.9C26.879 36.8999 26.8294 36.8998 26.7783 36.8997C26.0461 36.8972 25.3306 36.8783 24.611 36.7364C24.5323 36.7213 24.5324 36.7213 24.4521 36.7058C21.9102 36.2056 19.6351 35.07 17.7666 33.3279C17.7379 33.3013 17.7093 33.2746 17.6797 33.2472C17.323 32.9139 16.9941 32.5747 16.694 32.1918C16.6549 32.1444 16.6158 32.0969 16.5755 32.048C15.3093 30.5074 14.4485 28.6842 14.038 26.7581C14.0229 26.6877 14.0229 26.6877 14.0074 26.6159C13.7087 25.1535 13.6796 23.4794 13.9869 22.0159C13.9959 21.9714 14.005 21.927 14.0143 21.8811C14.4754 19.6583 15.4815 17.5015 17.1026 15.8412C17.1571 15.7797 17.2114 15.7179 17.2654 15.656C17.7107 15.1634 18.1992 14.7066 18.7371 14.3099C18.7645 14.2895 18.7919 14.2691 18.8201 14.2481C20.6379 12.9014 22.7015 12.0249 24.9685 11.6918C25.0264 11.6831 25.0842 11.6744 25.1438 11.6654C25.7198 11.5865 26.2899 11.5734 26.8711 11.5745ZM28.6461 12.6304C28.849 12.8633 29.0588 13.0881 29.275 13.3096C29.5557 13.6003 29.8231 13.8973 30.0762 14.2111C30.0985 14.2384 30.1208 14.2657 30.1437 14.2939C30.8842 15.2058 31.4825 16.1882 32.0172 17.2244C32.3713 17.2 32.6705 17.0689 32.994 16.9342C33.0524 16.91 33.1107 16.8859 33.1709 16.8611C33.9044 16.5533 34.6038 16.1942 35.2861 15.7918C35.0332 15.4812 34.7409 15.2419 34.4178 15.0015C34.3887 14.9798 34.3596 14.9581 34.3297 14.9358C33.3664 14.223 32.2926 13.6194 31.1488 13.2232C31.1142 13.211 31.0796 13.1988 31.0439 13.1862C30.5914 13.0283 30.1351 12.8973 29.6676 12.7879C29.6243 12.7776 29.581 12.7674 29.5364 12.7569C29.2408 12.6904 28.9485 12.653 28.6461 12.6304ZM22.1593 13.4208C22.0992 13.4466 22.0992 13.4466 22.0379 13.473C20.7375 14.0376 19.5531 14.7751 18.5328 15.7424C18.7771 15.9523 19.0578 16.0933 19.3436 16.2426C19.3973 16.2707 19.451 16.2988 19.5063 16.3278C20.0528 16.6093 20.6149 16.8519 21.1888 17.0762C21.2274 17.0914 21.266 17.1067 21.3057 17.1224C21.4843 17.1907 21.6069 17.2244 21.8017 17.2244C21.8176 17.1932 21.8334 17.162 21.8497 17.1298C22.6439 15.5781 23.6625 14.219 24.8941 12.9662C24.9376 12.9218 24.9376 12.9218 24.9819 12.8766C25.0206 12.8374 25.0206 12.8374 25.06 12.7975C25.1273 12.7289 25.1273 12.7289 25.1728 12.6304C24.1725 12.6304 23.0609 13.028 22.1593 13.4208ZM26.0986 13.0904C26.0688 13.1171 26.0391 13.1439 26.0084 13.1714C25.5906 13.5486 25.1799 13.933 24.8153 14.3593C24.7936 14.3845 24.772 14.4097 24.7497 14.4356C23.4299 15.8798 23.4299 15.8798 22.7211 17.5701C23.4144 17.7397 24.1066 17.886 24.8153 17.9808C24.9018 17.9925 24.9018 17.9925 24.9901 18.0045C25.4786 18.0665 25.9539 18.0869 26.4497 18.1135C26.4497 16.3693 26.4497 14.6251 26.4497 12.828C26.3278 12.828 26.1883 13.0096 26.0986 13.0904ZM27.3691 12.828C27.3691 14.5722 27.3691 16.3164 27.3691 18.1135C28.4676 18.0423 28.4676 18.0423 29.5495 17.8974C29.645 17.8814 29.645 17.8814 29.7424 17.8651C30.1999 17.7867 30.6509 17.6937 31.0978 17.5701C31.0685 17.3974 31.0236 17.2624 30.9368 17.109C30.9142 17.069 30.8917 17.029 30.8684 16.9878C30.844 16.9457 30.8196 16.9035 30.7945 16.8601C30.7692 16.8161 30.7439 16.7722 30.7179 16.7269C30.0315 15.5485 29.1512 14.4942 28.1864 13.5196C28.1609 13.4938 28.1355 13.4681 28.1093 13.4416C27.8712 13.2017 27.6582 13.0143 27.3691 12.828ZM17.8177 16.434C15.9274 18.5144 14.9555 21.0529 14.7531 23.7942C16.5229 23.7942 18.2927 23.7942 20.1162 23.7942C20.1659 23.6499 20.1777 23.5428 20.1856 23.3919C20.282 21.7791 20.6057 20.2359 21.1513 18.7107C21.2219 18.5131 21.2853 18.3153 21.342 18.1135C21.0941 18.0061 20.8455 17.9004 20.5958 17.7969C19.6921 17.4206 18.8112 17.0148 17.9813 16.5013C17.8836 16.4297 17.8836 16.4297 17.8177 16.434ZM35.7219 16.5644C34.7859 17.1072 33.8276 17.6099 32.7943 17.9584C32.704 17.9897 32.6156 18.0264 32.5279 18.0641C32.4694 18.2339 32.4828 18.2599 32.5487 18.4194C32.5655 18.4613 32.5822 18.5032 32.5995 18.5464C32.6273 18.6148 32.6273 18.6148 32.6556 18.6847C33.2371 20.1803 33.5612 21.7811 33.6342 23.3773C33.6415 23.5275 33.6532 23.6506 33.7027 23.7942C35.4725 23.7942 37.2424 23.7942 39.0658 23.7942C38.9358 22.3482 38.7142 20.9735 38.0953 19.6448C38.0775 19.6061 38.0597 19.5674 38.0413 19.5275C37.6034 18.5839 37.069 17.7411 36.4098 16.928C36.3881 16.9009 36.3663 16.8739 36.344 16.846C36.1768 16.6367 36.1768 16.6367 36.0012 16.434C35.9001 16.434 35.805 16.5157 35.7219 16.5644ZM22.2614 18.4099C21.5435 20.1153 21.0866 21.9461 21.0866 23.7942C22.8565 23.7942 24.6263 23.7942 26.4497 23.7942C26.4497 22.213 26.4497 20.6318 26.4497 19.0027C25.5901 18.9293 25.5901 18.9293 24.7131 18.8545C23.9658 18.7487 23.2412 18.6121 22.5111 18.4294C22.4061 18.4048 22.4061 18.4048 22.2614 18.4099ZM31.1977 18.457C29.9269 18.7671 28.6881 18.8901 27.3691 19.0027C27.3691 20.5839 27.3691 22.1651 27.3691 23.7942C29.139 23.7942 30.9088 23.7942 32.7322 23.7942C32.7322 21.9461 32.2754 20.1153 31.5575 18.4099C31.4211 18.4099 31.3279 18.4244 31.1977 18.457ZM14.7531 24.6834C14.9933 27.3553 15.8295 29.6496 17.5623 31.7472C17.7775 31.6722 17.9656 31.5667 18.1593 31.4508C19.1289 30.8818 20.1211 30.3933 21.1888 30.0183C21.1264 29.7217 21.0448 29.4385 20.9479 29.1508C20.5071 27.8361 20.24 26.465 20.1821 25.0828C20.1759 24.9374 20.1641 24.8225 20.1162 24.6834C18.3463 24.6834 16.5765 24.6834 14.7531 24.6834ZM21.0866 24.6834C21.0866 26.3591 21.434 28.1247 22.1082 29.6725C22.4299 29.6185 22.7488 29.5581 23.067 29.4873C23.5524 29.3799 24.0388 29.2906 24.5312 29.2187C24.5821 29.2111 24.6329 29.2034 24.6854 29.1956C25.2727 29.1132 25.8553 29.0783 26.4497 29.0304C26.4497 27.5959 26.4497 26.1614 26.4497 24.6834C24.6799 24.6834 22.9101 24.6834 21.0866 24.6834ZM27.3691 24.6834C27.3691 26.1179 27.3691 27.5524 27.3691 29.0304C28.1782 29.1037 28.1782 29.1037 29.0036 29.1786C29.7937 29.2933 30.5621 29.4121 31.328 29.6272C31.5086 29.6809 31.5086 29.6809 31.7107 29.6725C32.3761 28.1119 32.7322 26.3696 32.7322 24.6834C30.9624 24.6834 29.1926 24.6834 27.3691 24.6834ZM33.7027 24.6834C33.653 24.8277 33.6412 24.9348 33.6333 25.0857C33.5421 26.6114 33.2657 28.1051 32.7416 29.5487C32.7271 29.5888 32.7125 29.629 32.6975 29.6704C32.6845 29.7055 32.6715 29.7407 32.658 29.7769C32.623 29.8777 32.623 29.8777 32.6301 30.0183C32.6596 30.0297 32.6891 30.0411 32.7195 30.0529C33.868 30.4982 35.0158 30.9704 36.0277 31.6724C36.0904 31.7094 36.0904 31.7094 36.1544 31.7472C36.3719 31.6771 36.4608 31.5216 36.5918 31.349C36.6189 31.3133 36.6461 31.2777 36.6742 31.241C37.3445 30.352 37.9161 29.3763 38.2997 28.3388C38.3122 28.3054 38.3247 28.2721 38.3377 28.2377C38.7703 27.0787 38.9752 25.9105 39.0658 24.6834C37.296 24.6834 35.5262 24.6834 33.7027 24.6834ZM25.3019 30.0035C25.207 30.0149 25.207 30.0149 25.1102 30.0266C25.0455 30.0351 24.9809 30.0436 24.9142 30.0523C24.8634 30.0588 24.8634 30.0588 24.8115 30.0654C24.0298 30.1658 23.2622 30.3094 22.5168 30.5617C23.046 32.3174 24.8574 34.623 26.4497 35.6496C26.4497 33.775 26.4497 31.9004 26.4497 29.9689C25.8691 29.9626 25.8691 29.9626 25.3019 30.0035ZM27.3691 29.9689C27.3691 31.8436 27.3691 33.7182 27.3691 35.6496C27.6967 35.4161 27.6967 35.4161 27.9914 35.1597C28.027 35.1256 28.0625 35.0914 28.0991 35.0562C28.1353 35.0208 28.1714 34.9853 28.2087 34.9488C28.2468 34.9117 28.285 34.8745 28.3243 34.8363C28.565 34.5994 28.791 34.359 29.0026 34.0973C29.1136 33.9604 29.2307 33.83 29.3484 33.6984C30.0213 32.918 30.5586 32.0355 31.0531 31.1421C31.0913 31.0741 31.0913 31.0741 31.1302 31.0046C31.1649 30.9409 31.1649 30.9409 31.2003 30.8758C31.2212 30.8379 31.2421 30.7999 31.2636 30.7608C31.3173 30.653 31.3173 30.653 31.251 30.5123C31.1387 30.4661 31.1387 30.4661 30.999 30.4382C30.9199 30.42 30.9199 30.42 30.8392 30.4014C30.7823 30.3891 30.7254 30.3768 30.6668 30.3641C30.6088 30.3512 30.5507 30.3382 30.4909 30.3249C30.0147 30.2206 29.5384 30.1313 29.0547 30.0677C29.0165 30.0626 28.9782 30.0575 28.9389 30.0523C28.8211 30.0371 28.7033 30.0228 28.5854 30.0091C28.5346 30.0028 28.5346 30.0028 28.4827 29.9965C28.1075 29.9562 27.7538 29.9689 27.3691 29.9689ZM32.2215 30.8581C32.2061 30.8888 32.1908 30.9196 32.1749 30.9512C31.6855 31.9261 31.1556 32.8539 30.4848 33.7231C30.4478 33.7725 30.4107 33.8219 30.3725 33.8729C29.9316 34.4546 29.4382 34.9891 28.9248 35.5114C28.8958 35.541 28.8668 35.5705 28.837 35.601C28.7983 35.6402 28.7983 35.6402 28.7589 35.6802C28.6916 35.7488 28.6916 35.7488 28.6461 35.8472C31.1837 35.6693 33.8129 34.2685 35.5415 32.4882C35.4077 32.3509 35.2806 32.2487 35.1113 32.1555C35.0678 32.1314 35.0243 32.1074 34.9795 32.0826C34.9332 32.0575 34.8869 32.0324 34.8392 32.0066C34.791 31.9803 34.7428 31.9541 34.6932 31.927C33.5083 31.2137 33.5083 31.2137 32.2215 30.8581ZM18.2774 32.4388C19.3964 33.7322 21.0369 34.6941 22.67 35.2544C22.7044 35.2665 22.7387 35.2786 22.7741 35.291C23.2269 35.4491 23.6834 35.5802 24.1513 35.6898C24.1946 35.7 24.2379 35.7102 24.2825 35.7207C24.578 35.7872 24.8704 35.8246 25.1728 35.8472C24.9698 35.6143 24.7601 35.3895 24.5439 35.168C23.3061 33.885 22.4042 32.4185 21.5974 30.8581C20.6104 30.8581 19.0699 31.8959 18.2774 32.4388Z" fill="white"/>
</svg>
