<svg width="23" height="33" viewBox="0 0 23 33" fill="none" xmlns="http://www.w3.org/2000/svg">
<mask id="path-1-outside-1_564_156" maskUnits="userSpaceOnUse" x="-0.345703" y="-0.659912" width="23" height="34" fill="black">
<rect fill="white" x="-0.345703" y="-0.659912" width="23" height="34"/>
<path d="M1.9743 9.38009C2.1343 6.90009 3.08096 4.96675 4.8143 3.58009C6.5743 2.19342 8.8143 1.50009 11.5343 1.50009C13.401 1.50009 15.0143 1.83342 16.3743 2.50009C17.7343 3.16675 18.761 4.07342 19.4543 5.22009C20.1476 6.36675 20.4943 7.66009 20.4943 9.10009C20.4943 10.7534 20.0543 12.1668 19.1743 13.3401C18.2943 14.5134 17.241 15.3001 16.0143 15.7001V15.8601C17.5876 16.3401 18.8143 17.2201 19.6943 18.5001C20.5743 19.7534 21.0143 21.3668 21.0143 23.3401C21.0143 24.9134 20.6543 26.3134 19.9343 27.5401C19.2143 28.7668 18.1476 29.7401 16.7343 30.4601C15.321 31.1534 13.6276 31.5001 11.6543 31.5001C8.7743 31.5001 6.40096 30.7668 4.5343 29.3001C2.6943 27.8068 1.70763 25.6734 1.5743 22.9001H5.9743C6.08096 24.3134 6.62763 25.4734 7.6143 26.3801C8.60096 27.2601 9.9343 27.7001 11.6143 27.7001C13.241 27.7001 14.4943 27.2601 15.3743 26.3801C16.2543 25.4734 16.6943 24.3134 16.6943 22.9001C16.6943 21.0334 16.0943 19.7134 14.8943 18.9401C13.721 18.1401 11.9076 17.7401 9.4543 17.7401H8.4143V13.9801H9.4943C11.6543 13.9534 13.2943 13.5934 14.4143 12.9001C15.561 12.2068 16.1343 11.1134 16.1343 9.62009C16.1343 8.34009 15.721 7.32675 14.8943 6.58009C14.0676 5.80675 12.8943 5.42009 11.3743 5.42009C9.88096 5.42009 8.72096 5.80675 7.8943 6.58009C7.06763 7.32675 6.5743 8.26009 6.4143 9.38009H1.9743Z"/>
</mask>
<path d="M1.9743 9.38009L0.477409 9.28351L0.374404 10.8801H1.9743V9.38009ZM4.8143 3.58009L3.88596 2.40182L3.87725 2.40878L4.8143 3.58009ZM16.3743 2.50009L15.7141 3.84697V3.84697L16.3743 2.50009ZM19.4543 5.22009L20.7379 4.44396V4.44396L19.4543 5.22009ZM19.1743 13.3401L20.3743 14.2401V14.2401L19.1743 13.3401ZM16.0143 15.7001L15.5493 14.274L14.5143 14.6115V15.7001H16.0143ZM16.0143 15.8601H14.5143V16.9707L15.5766 17.2948L16.0143 15.8601ZM19.6943 18.5001L18.4582 19.3499L18.4624 19.356L18.4667 19.362L19.6943 18.5001ZM19.9343 27.5401L18.6407 26.7808V26.7808L19.9343 27.5401ZM16.7343 30.4601L17.3949 31.8068L17.4051 31.8018L17.4152 31.7966L16.7343 30.4601ZM4.5343 29.3001L3.58904 30.4648L3.59825 30.4722L3.60756 30.4796L4.5343 29.3001ZM1.5743 22.9001V21.4001H0.000448912L0.0760274 22.9721L1.5743 22.9001ZM5.9743 22.9001L7.47004 22.7872L7.36536 21.4001H5.9743V22.9001ZM7.6143 26.3801L6.59936 27.4846L6.60756 27.4921L6.61588 27.4995L7.6143 26.3801ZM15.3743 26.3801L16.435 27.4407L16.4429 27.4328L16.4507 27.4248L15.3743 26.3801ZM14.8943 18.9401L14.0493 20.1794L14.0654 20.1904L14.0817 20.2009L14.8943 18.9401ZM8.4143 17.7401H6.9143V19.2401H8.4143V17.7401ZM8.4143 13.9801V12.4801H6.9143V13.9801H8.4143ZM9.4943 13.9801V15.4801H9.50356L9.51281 15.48L9.4943 13.9801ZM14.4143 12.9001L13.6382 11.6165L13.6314 11.6206L13.6248 11.6247L14.4143 12.9001ZM14.8943 6.58009L13.8696 7.6755L13.8791 7.68445L13.8889 7.69324L14.8943 6.58009ZM7.8943 6.58009L8.89973 7.69324L8.90946 7.68445L8.91903 7.6755L7.8943 6.58009ZM6.4143 9.38009V10.8801H7.71524L7.89922 9.59222L6.4143 9.38009ZM1.9743 9.38009L3.47118 9.47666C3.60763 7.36184 4.38878 5.84144 5.75134 4.75139L4.8143 3.58009L3.87725 2.40878C1.77315 4.09207 0.660969 6.43834 0.477409 9.28351L1.9743 9.38009ZM4.8143 3.58009L5.74261 4.75832C7.18509 3.62182 9.0768 3.00009 11.5343 3.00009V1.50009V8.58307e-05C8.5518 8.58307e-05 5.9635 0.765022 3.88599 2.40185L4.8143 3.58009ZM11.5343 1.50009V3.00009C13.2242 3.00009 14.6018 3.30172 15.7141 3.84697L16.3743 2.50009L17.0345 1.15321C15.4268 0.365117 13.5777 8.58307e-05 11.5343 8.58307e-05V1.50009ZM16.3743 2.50009L15.7141 3.84697C16.8505 4.40405 17.6449 5.12667 18.1707 5.99622L19.4543 5.22009L20.7379 4.44396C19.877 3.02017 18.6181 1.92946 17.0345 1.15321L16.3743 2.50009ZM19.4543 5.22009L18.1707 5.99621C18.7119 6.89125 18.9943 7.91249 18.9943 9.10009H20.4943H21.9943C21.9943 7.40768 21.5834 5.84226 20.7379 4.44396L19.4543 5.22009ZM20.4943 9.10009H18.9943C18.9943 10.4722 18.6351 11.559 17.9743 12.4401L19.1743 13.3401L20.3743 14.2401C21.4735 12.7745 21.9943 11.0347 21.9943 9.10009H20.4943ZM19.1743 13.3401L17.9743 12.4401C17.2531 13.4017 16.4437 13.9823 15.5493 14.274L16.0143 15.7001L16.4793 17.1262C18.0383 16.6178 19.3355 15.6252 20.3743 14.2401L19.1743 13.3401ZM16.0143 15.7001H14.5143V15.8601H16.0143H17.5143V15.7001H16.0143ZM16.0143 15.8601L15.5766 17.2948C16.8459 17.682 17.7824 18.3668 18.4582 19.3499L19.6943 18.5001L20.9304 17.6503C19.8462 16.0734 18.3294 14.9981 16.452 14.4254L16.0143 15.8601ZM19.6943 18.5001L18.4667 19.362C19.1244 20.2989 19.5143 21.5865 19.5143 23.3401H21.0143H22.5143C22.5143 21.147 22.0241 19.208 20.9219 17.6381L19.6943 18.5001ZM21.0143 23.3401H19.5143C19.5143 24.6756 19.2115 25.8082 18.6407 26.7808L19.9343 27.5401L21.2279 28.2994C22.0971 26.8186 22.5143 25.1513 22.5143 23.3401H21.0143ZM19.9343 27.5401L18.6407 26.7808C18.082 27.7327 17.2419 28.5181 16.0534 29.1235L16.7343 30.4601L17.4152 31.7966C19.0533 30.9621 20.3466 29.8008 21.2279 28.2994L19.9343 27.5401ZM16.7343 30.4601L16.0737 29.1134C14.9113 29.6836 13.4552 30.0001 11.6543 30.0001V31.5001V33.0001C13.8001 33.0001 15.7306 32.6232 17.3949 31.8068L16.7343 30.4601ZM11.6543 31.5001V30.0001C9.03654 30.0001 7.01068 29.3382 5.46103 28.1206L4.5343 29.3001L3.60756 30.4796C5.79125 32.1953 8.51206 33.0001 11.6543 33.0001V31.5001ZM4.5343 29.3001L5.47955 28.1354C4.02866 26.9579 3.18927 25.2554 3.07257 22.8281L1.5743 22.9001L0.0760274 22.9721C0.225993 26.0914 1.35993 28.6556 3.58904 30.4648L4.5343 29.3001ZM1.5743 22.9001V24.4001H5.9743V22.9001V21.4001H1.5743V22.9001ZM5.9743 22.9001L4.47855 23.013C4.61205 24.7818 5.31511 26.3045 6.59936 27.4846L7.6143 26.3801L8.62924 25.2756C7.94015 24.6424 7.54988 23.8451 7.47004 22.7872L5.9743 22.9001ZM7.6143 26.3801L6.61588 27.4995C7.94555 28.6855 9.66901 29.2001 11.6143 29.2001V27.7001V26.2001C10.1996 26.2001 9.25638 25.8347 8.61272 25.2606L7.6143 26.3801ZM11.6143 27.7001V29.2001C13.5117 29.2001 15.195 28.6807 16.435 27.4407L15.3743 26.3801L14.3136 25.3194C13.7936 25.8395 12.9702 26.2001 11.6143 26.2001V27.7001ZM15.3743 26.3801L16.4507 27.4248C17.6355 26.2041 18.1943 24.6532 18.1943 22.9001H16.6943H15.1943C15.1943 23.9737 14.8731 24.7428 14.2979 25.3354L15.3743 26.3801ZM16.6943 22.9001H18.1943C18.1943 20.6997 17.4649 18.8122 15.7068 17.6792L14.8943 18.9401L14.0817 20.2009C14.7237 20.6146 15.1943 21.3671 15.1943 22.9001H16.6943ZM14.8943 18.9401L15.7393 17.7007C14.194 16.6471 12.0146 16.2401 9.4543 16.2401V17.7401V19.2401C11.8007 19.2401 13.248 19.6331 14.0493 20.1794L14.8943 18.9401ZM9.4543 17.7401V16.2401H8.4143V17.7401V19.2401H9.4543V17.7401ZM8.4143 17.7401H9.9143V13.9801H8.4143H6.9143V17.7401H8.4143ZM8.4143 13.9801V15.4801H9.4943V13.9801V12.4801H8.4143V13.9801ZM9.4943 13.9801L9.51281 15.48C11.7891 15.4519 13.7478 15.0769 15.2038 14.1755L14.4143 12.9001L13.6248 11.6247C12.8408 12.11 11.5195 12.455 9.47578 12.4802L9.4943 13.9801ZM14.4143 12.9001L15.1904 14.1837C16.8447 13.1834 17.6343 11.5665 17.6343 9.62009H16.1343H14.6343C14.6343 10.6603 14.2772 11.2301 13.6382 11.6165L14.4143 12.9001ZM16.1343 9.62009H17.6343C17.6343 7.98553 17.0896 6.54162 15.8997 5.46693L14.8943 6.58009L13.8889 7.69324C14.3524 8.11189 14.6343 8.69464 14.6343 9.62009H16.1343ZM14.8943 6.58009L15.919 5.48468C14.7305 4.37286 13.1418 3.92009 11.3743 3.92009V5.42009V6.92009C12.6468 6.92009 13.4047 7.24065 13.8696 7.6755L14.8943 6.58009ZM11.3743 5.42009V3.92009C9.62513 3.92009 8.05347 4.37716 6.86956 5.48468L7.8943 6.58009L8.91903 7.6755C9.38846 7.23635 10.1368 6.92009 11.3743 6.92009V5.42009ZM7.8943 6.58009L6.88887 5.46693C5.79755 6.45264 5.13812 7.70673 4.92937 9.16796L6.4143 9.38009L7.89922 9.59222C8.01048 8.81344 8.33771 8.20086 8.89973 7.69324L7.8943 6.58009ZM6.4143 9.38009V7.88009H1.9743V9.38009V10.8801H6.4143V9.38009Z" fill="white" mask="url(#path-1-outside-1_564_156)"/>
</svg>
