<svg width="24" height="33" viewBox="0 0 24 33" fill="none" xmlns="http://www.w3.org/2000/svg">
<mask id="path-1-outside-1_564_198" maskUnits="userSpaceOnUse" x="-0.460938" y="-0.620117" width="24" height="34" fill="black">
<rect fill="white" x="-0.460938" y="-0.620117" width="24" height="34"/>
<path d="M16.6191 8.97988C16.3257 7.75322 15.7924 6.83322 15.0191 6.21988C14.2457 5.60655 13.1657 5.29988 11.7791 5.29988C9.6724 5.29988 8.09906 6.11322 7.05906 7.73988C6.01906 9.33988 5.4724 12.0065 5.41906 15.7399C6.1124 14.5665 7.12573 13.6599 8.45906 13.0199C9.7924 12.3799 11.2324 12.0599 12.7791 12.0599C14.5391 12.0599 16.0857 12.4465 17.4191 13.2199C18.7791 13.9665 19.8324 15.0599 20.5791 16.4999C21.3524 17.9399 21.7391 19.6599 21.7391 21.6599C21.7391 23.5265 21.3657 25.1932 20.6191 26.6599C19.8991 28.1265 18.8191 29.2865 17.3791 30.1399C15.9391 30.9665 14.2057 31.3799 12.1791 31.3799C9.4324 31.3799 7.2724 30.7799 5.69906 29.5799C4.1524 28.3532 3.05906 26.6332 2.41906 24.4199C1.80573 22.2065 1.49906 19.4465 1.49906 16.1399C1.49906 6.37988 4.93906 1.49988 11.8191 1.49988C14.4857 1.49988 16.5791 2.21988 18.0991 3.65988C19.6457 5.09988 20.5524 6.87321 20.8191 8.97988H16.6191ZM11.7791 15.8999C10.1524 15.8999 8.76573 16.3932 7.61906 17.3799C6.49906 18.3399 5.93906 19.7399 5.93906 21.5799C5.93906 23.4199 6.45906 24.8865 7.49906 25.9799C8.56573 27.0465 10.0457 27.5799 11.9391 27.5799C13.6191 27.5799 14.9391 27.0599 15.8991 26.0199C16.8857 24.9799 17.3791 23.5932 17.3791 21.8599C17.3791 20.0465 16.8991 18.6065 15.9391 17.5399C15.0057 16.4465 13.6191 15.8999 11.7791 15.8999Z"/>
</mask>
<path d="M16.6191 8.97988L15.1602 9.32874L15.4355 10.4799H16.6191V8.97988ZM15.0191 6.21988L15.9512 5.04464L15.9512 5.04464L15.0191 6.21988ZM7.05906 7.73988L8.31676 8.55739L8.32285 8.54787L7.05906 7.73988ZM5.41906 15.7399L3.91922 15.7185L3.83858 21.3631L6.71045 16.503L5.41906 15.7399ZM17.4191 13.2199L16.6665 14.5174L16.6817 14.5263L16.6972 14.5347L17.4191 13.2199ZM20.5791 16.4999L19.2474 17.1904L19.2524 17.2L19.2576 17.2096L20.5791 16.4999ZM20.6191 26.6599L19.2823 25.9794L19.2774 25.9891L19.2726 25.9989L20.6191 26.6599ZM17.3791 30.1399L18.1259 31.4408L18.1349 31.4356L18.1438 31.4303L17.3791 30.1399ZM5.69906 29.5799L4.76697 30.7551L4.7781 30.764L4.78939 30.7726L5.69906 29.5799ZM2.41906 24.4199L0.973536 24.8204L0.97577 24.8285L0.978094 24.8365L2.41906 24.4199ZM18.0991 3.65988L17.0674 4.74885L17.0769 4.75772L18.0991 3.65988ZM20.8191 8.97988V10.4799H22.5209L22.3072 8.79151L20.8191 8.97988ZM7.61906 17.3799L8.59525 18.5188L8.59743 18.5169L7.61906 17.3799ZM7.49906 25.9799L6.41223 27.0137L6.42515 27.0273L6.4384 27.0405L7.49906 25.9799ZM15.8991 26.0199L14.8109 24.9875L14.8038 24.9949L14.7969 25.0025L15.8991 26.0199ZM15.9391 17.5399L14.7982 18.5138L14.811 18.5287L14.8241 18.5433L15.9391 17.5399ZM16.6191 8.97988L18.0779 8.63102C17.7285 7.16965 17.0532 5.91869 15.9512 5.04464L15.0191 6.21988L14.087 7.39513C14.5316 7.74774 14.923 8.33678 15.1602 9.32874L16.6191 8.97988ZM15.0191 6.21988L15.9512 5.04464C14.8237 4.15041 13.3697 3.79988 11.7791 3.79988V5.29988V6.79988C12.9617 6.79988 13.6678 7.06268 14.087 7.39513L15.0191 6.21988ZM11.7791 5.29988V3.79988C9.21626 3.79988 7.13959 4.82925 5.79528 6.93189L7.05906 7.73988L8.32285 8.54787C9.05854 7.39718 10.1285 6.79988 11.7791 6.79988V5.29988ZM7.05906 7.73988L5.8014 6.9224C4.51874 8.89572 3.97338 11.9271 3.91922 15.7185L5.41906 15.7399L6.91891 15.7613C6.97141 12.086 7.51938 9.78405 8.31673 8.55737L7.05906 7.73988ZM5.41906 15.7399L6.71045 16.503C7.23981 15.6071 8.01867 14.8951 9.10816 14.3722L8.45906 13.0199L7.80997 11.6676C6.23279 12.4246 4.98499 13.5259 4.12767 14.9768L5.41906 15.7399ZM8.45906 13.0199L9.10816 14.3722C10.2296 13.8339 11.4465 13.5599 12.7791 13.5599V12.0599V10.5599C11.0183 10.5599 9.35518 10.9259 7.80997 11.6676L8.45906 13.0199ZM12.7791 12.0599V13.5599C14.3129 13.5599 15.5926 13.8946 16.6665 14.5174L17.4191 13.2199L18.1716 11.9223C16.5788 10.9985 14.7653 10.5599 12.7791 10.5599V12.0599ZM17.4191 13.2199L16.6972 14.5347C17.7843 15.1316 18.6311 16.0016 19.2474 17.1904L20.5791 16.4999L21.9107 15.8094C21.0337 14.1181 19.7738 12.8015 18.141 11.905L17.4191 13.2199ZM20.5791 16.4999L19.2576 17.2096C19.8903 18.3877 20.2391 19.8528 20.2391 21.6599H21.7391H23.2391C23.2391 19.467 22.8145 17.492 21.9006 15.7902L20.5791 16.4999ZM21.7391 21.6599H20.2391C20.2391 23.322 19.908 24.7503 19.2823 25.9794L20.6191 26.6599L21.9558 27.3404C22.8234 25.6362 23.2391 23.7311 23.2391 21.6599H21.7391ZM20.6191 26.6599L19.2726 25.9989C18.6844 27.1969 17.8098 28.141 16.6144 28.8494L17.3791 30.1399L18.1438 31.4303C19.8283 30.4321 21.1137 29.0562 21.9656 27.3209L20.6191 26.6599ZM17.3791 30.1399L16.6323 28.839C15.4647 29.5093 14.0012 29.8799 12.1791 29.8799V31.3799V32.8799C14.4103 32.8799 16.4134 32.4238 18.1259 31.4408L17.3791 30.1399ZM12.1791 31.3799V29.8799C9.63598 29.8799 7.83616 29.3234 6.60874 28.3872L5.69906 29.5799L4.78939 30.7726C6.70863 32.2364 9.22881 32.8799 12.1791 32.8799V31.3799ZM5.69906 29.5799L6.63116 28.4046C5.36784 27.4027 4.42832 25.9686 3.86003 24.0032L2.41906 24.4199L0.978094 24.8365C1.6898 27.2979 2.93696 29.3037 4.76697 30.7551L5.69906 29.5799ZM2.41906 24.4199L3.86459 24.0193C3.29942 21.9798 2.99906 19.3651 2.99906 16.1399H1.49906H-0.000937462C-0.000937462 19.528 0.312036 22.4333 0.973536 24.8204L2.41906 24.4199ZM1.49906 16.1399H2.99906C2.99906 11.3903 3.84434 8.09632 5.30507 6.02412C6.69815 4.0479 8.78125 2.99988 11.8191 2.99988V1.49988V-0.000118256C7.97688 -0.000118256 4.89998 1.39187 2.85305 4.29565C0.873785 7.10345 -0.000937462 11.1294 -0.000937462 16.1399H1.49906ZM11.8191 1.49988V2.99988C14.2112 2.99988 15.8964 3.63942 17.0674 4.74881L18.0991 3.65988L19.1307 2.57095C17.2617 0.800344 14.7602 -0.000118256 11.8191 -0.000118256V1.49988ZM18.0991 3.65988L17.0769 4.75772C18.3652 5.95719 19.1081 7.40809 19.3309 9.16825L20.8191 8.97988L22.3072 8.79151C21.9967 6.33834 20.9262 4.24258 19.1212 2.56204L18.0991 3.65988ZM20.8191 8.97988V7.47988H16.6191V8.97988V10.4799H20.8191V8.97988ZM11.7791 15.8999V14.3999C9.82259 14.3999 8.08091 15.0036 6.6407 16.2429L7.61906 17.3799L8.59743 18.5169C9.45055 17.7828 10.4822 17.3999 11.7791 17.3999V15.8999ZM7.61906 17.3799L6.64288 16.241C5.11055 17.5544 4.43906 19.4194 4.43906 21.5799H5.93906H7.43906C7.43906 20.0604 7.88757 19.1253 8.59525 18.5188L7.61906 17.3799ZM5.93906 21.5799H4.43906C4.43906 23.7155 5.05128 25.583 6.41223 27.0137L7.49906 25.9799L8.5859 24.9461C7.86684 24.1901 7.43906 23.1243 7.43906 21.5799H5.93906ZM7.49906 25.9799L6.4384 27.0405C7.85397 28.4561 9.75496 29.0799 11.9391 29.0799V27.5799V26.0799C10.3365 26.0799 9.27749 25.637 8.55972 24.9192L7.49906 25.9799ZM11.9391 27.5799V29.0799C13.9525 29.0799 15.7043 28.4424 17.0013 27.0373L15.8991 26.0199L14.7969 25.0025C14.1738 25.6774 13.2856 26.0799 11.9391 26.0799V27.5799ZM15.8991 26.0199L16.9873 27.0523C18.2916 25.6774 18.8791 23.8923 18.8791 21.8599H17.3791H15.8791C15.8791 23.2941 15.4799 24.2823 14.8109 24.9875L15.8991 26.0199ZM17.3791 21.8599H18.8791C18.8791 19.7772 18.3221 17.9455 17.054 16.5364L15.9391 17.5399L14.8241 18.5433C15.476 19.2676 15.8791 20.3159 15.8791 21.8599H17.3791ZM15.9391 17.5399L17.0799 16.566C15.7857 15.0499 13.9258 14.3999 11.7791 14.3999V15.8999V17.3999C13.3123 17.3999 14.2258 17.8432 14.7982 18.5138L15.9391 17.5399Z" fill="white" mask="url(#path-1-outside-1_564_198)"/>
</svg>
