<svg width="12" height="33" viewBox="0 0 12 33" fill="none" xmlns="http://www.w3.org/2000/svg">
<mask id="path-1-outside-1_564_110" maskUnits="userSpaceOnUse" x="-0.300781" y="-0.340088" width="12" height="33" fill="black">
<rect fill="white" x="-0.300781" y="-0.340088" width="12" height="33"/>
<path d="M1.49922 5.65991V1.49991H9.81922V30.6599H5.21922V5.65991H1.49922Z"/>
</mask>
<path d="M1.49922 5.65991H-0.000781178V7.15991H1.49922V5.65991ZM1.49922 1.49991V-8.96454e-05H-0.000781178V1.49991H1.49922ZM9.81922 1.49991H11.3192V-8.96454e-05H9.81922V1.49991ZM9.81922 30.6599V32.1599H11.3192V30.6599H9.81922ZM5.21922 30.6599H3.71922V32.1599H5.21922V30.6599ZM5.21922 5.65991H6.71922V4.15991H5.21922V5.65991ZM1.49922 5.65991H2.99922V1.49991H1.49922H-0.000781178V5.65991H1.49922ZM1.49922 1.49991V2.99991H9.81922V1.49991V-8.96454e-05H1.49922V1.49991ZM9.81922 1.49991H8.31922V30.6599H9.81922H11.3192V1.49991H9.81922ZM9.81922 30.6599V29.1599H5.21922V30.6599V32.1599H9.81922V30.6599ZM5.21922 30.6599H6.71922V5.65991H5.21922H3.71922V30.6599H5.21922ZM5.21922 5.65991V4.15991H1.49922V5.65991V7.15991H5.21922V5.65991Z" fill="white" mask="url(#path-1-outside-1_564_110)"/>
</svg>
