<svg width="24" height="33" viewBox="0 0 24 33" fill="none" xmlns="http://www.w3.org/2000/svg">
<mask id="path-1-outside-1_564_193" maskUnits="userSpaceOnUse" x="-0.224609" y="-0.259766" width="24" height="33" fill="black">
<rect fill="white" x="-0.224609" y="-0.259766" width="24" height="33"/>
<path d="M19.9754 5.50023H6.57539V13.4602C7.13539 12.7136 7.96206 12.0869 9.05539 11.5802C10.1754 11.0736 11.3621 10.8202 12.6154 10.8202C14.8554 10.8202 16.6687 11.3002 18.0554 12.2602C19.4687 13.2202 20.4687 14.4336 21.0554 15.9002C21.6687 17.3669 21.9754 18.9136 21.9754 20.5402C21.9754 22.5136 21.5887 24.2736 20.8154 25.8202C20.0687 27.3402 18.9354 28.5402 17.4154 29.4202C15.9221 30.3002 14.0821 30.7402 11.8954 30.7402C8.98872 30.7402 6.65539 30.0202 4.89539 28.5802C3.13539 27.1402 2.08206 25.2336 1.73539 22.8602H6.17539C6.46872 24.1136 7.12206 25.1136 8.13539 25.8602C9.14872 26.5802 10.4154 26.9402 11.9354 26.9402C13.8287 26.9402 15.2421 26.3669 16.1754 25.2202C17.1354 24.0736 17.6154 22.5536 17.6154 20.6602C17.6154 18.7402 17.1354 17.2736 16.1754 16.2602C15.2154 15.2202 13.8021 14.7002 11.9354 14.7002C10.6287 14.7002 9.52206 15.0336 8.61539 15.7002C7.73539 16.3402 7.09539 17.2202 6.69539 18.3402H2.37539V1.50023H19.9754V5.50023Z"/>
</mask>
<path d="M19.9754 5.50023V7.00023H21.4754V5.50023H19.9754ZM6.57539 5.50023V4.00023H5.07539V5.50023H6.57539ZM6.57539 13.4602H5.07539V17.9602L7.77539 14.3602L6.57539 13.4602ZM9.05539 11.5802L8.43711 10.2135L8.4247 10.2193L9.05539 11.5802ZM18.0554 12.2602L17.2015 13.4936L17.2126 13.5011L18.0554 12.2602ZM21.0554 15.9002L19.6627 16.4573L19.667 16.4682L19.6715 16.4789L21.0554 15.9002ZM20.8154 25.8202L19.4737 25.1494L19.4691 25.1589L20.8154 25.8202ZM17.4154 29.4202L16.6638 28.1221L16.6539 28.1279L17.4154 29.4202ZM4.89539 28.5802L5.84525 27.4193V27.4193L4.89539 28.5802ZM1.73539 22.8602V21.3602H0.000372171L0.251141 23.077L1.73539 22.8602ZM6.17539 22.8602L7.63592 22.5184L7.36486 21.3602H6.17539V22.8602ZM8.13539 25.8602L7.24559 27.0678L7.25602 27.0755L7.26658 27.083L8.13539 25.8602ZM16.1754 25.2202L15.0253 24.2573L15.0186 24.2653L15.012 24.2733L16.1754 25.2202ZM16.1754 16.2602L15.0732 17.2777L15.0798 17.2848L15.0865 17.2919L16.1754 16.2602ZM8.61539 15.7002L9.49766 16.9134L9.50398 16.9087L8.61539 15.7002ZM6.69539 18.3402V19.8402H7.75247L8.108 18.8447L6.69539 18.3402ZM2.37539 18.3402H0.875391V19.8402H2.37539V18.3402ZM2.37539 1.50023V0.000234604H0.875391V1.50023H2.37539ZM19.9754 1.50023H21.4754V0.000234604H19.9754V1.50023ZM19.9754 5.50023V4.00023H6.57539V5.50023V7.00023H19.9754V5.50023ZM6.57539 5.50023H5.07539V13.4602H6.57539H8.07539V5.50023H6.57539ZM6.57539 13.4602L7.77539 14.3602C8.14958 13.8613 8.75406 13.3731 9.68608 12.9412L9.05539 11.5802L8.4247 10.2193C7.17005 10.8007 6.1212 11.5658 5.37539 12.5602L6.57539 13.4602ZM9.05539 11.5802L9.67364 12.9469C10.5955 12.5299 11.571 12.3202 12.6154 12.3202V10.8202V9.32023C11.1531 9.32023 9.75528 9.61727 8.43714 10.2136L9.05539 11.5802ZM12.6154 10.8202V12.3202C14.6489 12.3202 16.1362 12.756 17.2016 13.4935L18.0554 12.2602L18.9092 11.0269C17.2012 9.84451 15.0618 9.32023 12.6154 9.32023V10.8202ZM18.0554 12.2602L17.2126 13.5011C18.3997 14.3074 19.1962 15.2911 19.6627 16.4573L21.0554 15.9002L22.4481 15.3431C21.7413 13.576 20.5378 12.1331 18.8982 11.0194L18.0554 12.2602ZM21.0554 15.9002L19.6715 16.4789C20.2064 17.758 20.4754 19.1075 20.4754 20.5402H21.9754H23.4754C23.4754 18.7196 23.1311 16.9758 22.4393 15.3215L21.0554 15.9002ZM21.9754 20.5402H20.4754C20.4754 22.3137 20.1291 23.8387 19.4738 25.1494L20.8154 25.8202L22.157 26.4911C23.0483 24.7084 23.4754 22.7134 23.4754 20.5402H21.9754ZM20.8154 25.8202L19.4691 25.1589C18.8583 26.4022 17.937 27.385 16.6638 28.1221L17.4154 29.4202L18.1669 30.7184C19.9338 29.6955 21.2791 28.2783 22.1617 26.4816L20.8154 25.8202ZM17.4154 29.4202L16.6539 28.1279C15.4443 28.8407 13.8834 29.2402 11.8954 29.2402V30.7402V32.2402C14.2808 32.2402 16.3998 31.7598 18.1769 30.7125L17.4154 29.4202ZM11.8954 30.7402V29.2402C9.23686 29.2402 7.27005 28.585 5.84525 27.4193L4.89539 28.5802L3.94553 29.7412C6.04074 31.4554 8.74059 32.2402 11.8954 32.2402V30.7402ZM4.89539 28.5802L5.84525 27.4193C4.39186 26.2302 3.51546 24.6686 3.21964 22.6434L1.73539 22.8602L0.251141 23.077C0.648659 25.7985 1.87892 28.0503 3.94553 29.7412L4.89539 28.5802ZM1.73539 22.8602V24.3602H6.17539V22.8602V21.3602H1.73539V22.8602ZM6.17539 22.8602L4.71486 23.2021C5.08745 24.7941 5.93811 26.1044 7.24559 27.0678L8.13539 25.8602L9.02519 24.6526C8.30601 24.1227 7.85 23.4331 7.63592 22.5184L6.17539 22.8602ZM8.13539 25.8602L7.26658 27.083C8.58569 28.0203 10.1745 28.4402 11.9354 28.4402V26.9402V25.4402C10.6563 25.4402 9.71176 25.1402 9.0042 24.6375L8.13539 25.8602ZM11.9354 26.9402V28.4402C14.1427 28.4402 16.0439 27.7579 17.3387 26.1671L16.1754 25.2202L15.012 24.2733C14.4402 24.9759 13.5148 25.4402 11.9354 25.4402V26.9402ZM16.1754 25.2202L17.3255 26.1831C18.5663 24.7011 19.1154 22.8096 19.1154 20.6602H17.6154H16.1154C16.1154 22.2975 15.7044 23.4461 15.0253 24.2573L16.1754 25.2202ZM17.6154 20.6602H19.1154C19.1154 18.5025 18.574 16.6111 17.2643 15.2286L16.1754 16.2602L15.0865 17.2919C15.6968 17.9361 16.1154 18.978 16.1154 20.6602H17.6154ZM16.1754 16.2602L17.2776 15.2428C15.9508 13.8054 14.0805 13.2002 11.9354 13.2002V14.7002V16.2002C13.5236 16.2002 14.48 16.6351 15.0732 17.2777L16.1754 16.2602ZM11.9354 14.7002V13.2002C10.3624 13.2002 8.93095 13.6064 7.7268 14.4918L8.61539 15.7002L9.50398 16.9087C10.1132 16.4608 10.895 16.2002 11.9354 16.2002V14.7002ZM8.61539 15.7002L7.73313 14.4871C6.5864 15.3211 5.7744 16.4592 5.28278 17.8357L6.69539 18.3402L8.108 18.8447C8.41639 17.9813 8.88438 17.3593 9.49765 16.9133L8.61539 15.7002ZM6.69539 18.3402V16.8402H2.37539V18.3402V19.8402H6.69539V18.3402ZM2.37539 18.3402H3.87539V1.50023H2.37539H0.875391V18.3402H2.37539ZM2.37539 1.50023V3.00023H19.9754V1.50023V0.000234604H2.37539V1.50023ZM19.9754 1.50023H18.4754V5.50023H19.9754H21.4754V1.50023H19.9754Z" fill="white" mask="url(#path-1-outside-1_564_193)"/>
</svg>
