<svg width="26" height="32" viewBox="0 0 26 32" fill="none" xmlns="http://www.w3.org/2000/svg">
<mask id="path-1-outside-1_564_188" maskUnits="userSpaceOnUse" x="-0.339844" y="-0.700195" width="27" height="33" fill="black">
<rect fill="white" x="-0.339844" y="-0.700195" width="27" height="33"/>
<path d="M1.50016 24.2198V20.7798L14.9402 1.4998H20.4602V20.2598H24.1802V24.2198H20.4602V30.2998H15.9802V24.2198H1.50016ZM16.1802 6.1398L6.74016 20.2598H16.1802V6.1398Z"/>
</mask>
<path d="M1.50016 24.2198H0.000156403V25.7198H1.50016V24.2198ZM1.50016 20.7798L0.269632 19.922L0.000156403 20.3086V20.7798H1.50016ZM14.9402 1.4998V-0.000196457H14.1573L13.7096 0.642011L14.9402 1.4998ZM20.4602 1.4998H21.9602V-0.000196457H20.4602V1.4998ZM20.4602 20.2598H18.9602V21.7598H20.4602V20.2598ZM24.1802 20.2598H25.6802V18.7598H24.1802V20.2598ZM24.1802 24.2198V25.7198H25.6802V24.2198H24.1802ZM20.4602 24.2198V22.7198H18.9602V24.2198H20.4602ZM20.4602 30.2998V31.7998H21.9602V30.2998H20.4602ZM15.9802 30.2998H14.4802V31.7998H15.9802V30.2998ZM15.9802 24.2198H17.4802V22.7198H15.9802V24.2198ZM16.1802 6.1398H17.6802V1.19728L14.9332 5.30612L16.1802 6.1398ZM6.74016 20.2598L5.49317 19.4261L3.93297 21.7598H6.74016V20.2598ZM16.1802 20.2598V21.7598H17.6802V20.2598H16.1802ZM1.50016 24.2198H3.00016V20.7798H1.50016H0.000156403V24.2198H1.50016ZM1.50016 20.7798L2.73068 21.6376L16.1707 2.3576L14.9402 1.4998L13.7096 0.642011L0.269632 19.922L1.50016 20.7798ZM14.9402 1.4998V2.9998H20.4602V1.4998V-0.000196457H14.9402V1.4998ZM20.4602 1.4998H18.9602V20.2598H20.4602H21.9602V1.4998H20.4602ZM20.4602 20.2598V21.7598H24.1802V20.2598V18.7598H20.4602V20.2598ZM24.1802 20.2598H22.6802V24.2198H24.1802H25.6802V20.2598H24.1802ZM24.1802 24.2198V22.7198H20.4602V24.2198V25.7198H24.1802V24.2198ZM20.4602 24.2198H18.9602V30.2998H20.4602H21.9602V24.2198H20.4602ZM20.4602 30.2998V28.7998H15.9802V30.2998V31.7998H20.4602V30.2998ZM15.9802 30.2998H17.4802V24.2198H15.9802H14.4802V30.2998H15.9802ZM15.9802 24.2198V22.7198H1.50016V24.2198V25.7198H15.9802V24.2198ZM16.1802 6.1398L14.9332 5.30612L5.49317 19.4261L6.74016 20.2598L7.98714 21.0935L17.4271 6.97348L16.1802 6.1398ZM6.74016 20.2598V21.7598H16.1802V20.2598V18.7598H6.74016V20.2598ZM16.1802 20.2598H17.6802V6.1398H16.1802H14.6802V20.2598H16.1802Z" fill="white" mask="url(#path-1-outside-1_564_188)"/>
</svg>
