<svg width="23" height="33" viewBox="0 0 23 33" fill="none" xmlns="http://www.w3.org/2000/svg">
<mask id="path-1-outside-1_564_151" maskUnits="userSpaceOnUse" x="-0.460938" y="-0.73999" width="23" height="34" fill="black">
<rect fill="white" x="-0.460938" y="-0.73999" width="23" height="34"/>
<path d="M4.45906 25.06C7.01906 22.8467 9.0324 21.0333 10.4991 19.62C11.9924 18.18 13.2324 16.6867 14.2191 15.14C15.2057 13.5933 15.6991 12.0467 15.6991 10.5C15.6991 8.90001 15.3124 7.64667 14.5391 6.74001C13.7924 5.83334 12.6057 5.38001 10.9791 5.38001C9.40573 5.38001 8.17906 5.88668 7.29906 6.90001C6.44573 7.88668 5.9924 9.22001 5.93906 10.9H1.53906C1.61906 7.86001 2.52573 5.54001 4.25906 3.94001C6.01906 2.31334 8.24573 1.50001 10.9391 1.50001C13.8457 1.50001 16.1124 2.30001 17.7391 3.90001C19.3924 5.50001 20.2191 7.63334 20.2191 10.3C20.2191 12.22 19.7257 14.0733 18.7391 15.86C17.7791 17.62 16.6191 19.2067 15.2591 20.62C13.9257 22.0067 12.2191 23.62 10.1391 25.46L8.33906 27.06H21.0191V30.86H1.57906V27.54L4.45906 25.06Z"/>
</mask>
<path d="M4.45906 25.06L5.43785 26.1967L5.44011 26.1947L4.45906 25.06ZM10.4991 19.62L11.5399 20.7001L11.5403 20.6998L10.4991 19.62ZM14.5391 6.74001L13.3812 7.69357L13.3894 7.70357L13.3978 7.71343L14.5391 6.74001ZM7.29906 6.90001L6.16651 5.91648L6.16452 5.91878L7.29906 6.90001ZM5.93906 10.9V12.4H7.3922L7.43831 10.9476L5.93906 10.9ZM1.53906 10.9L0.0395817 10.8605L-0.000930488 12.4H1.53906V10.9ZM4.25906 3.94001L5.27648 5.04221L5.27718 5.04157L4.25906 3.94001ZM17.7391 3.90001L16.6872 4.96943L16.6959 4.97791L17.7391 3.90001ZM18.7391 15.86L17.426 15.1349L17.4222 15.1417L18.7391 15.86ZM15.2591 20.62L14.1782 19.5799L14.1778 19.5803L15.2591 20.62ZM10.1391 25.46L9.1452 24.3365L9.14252 24.3389L10.1391 25.46ZM8.33906 27.06L7.34252 25.9389L4.39376 28.56H8.33906V27.06ZM21.0191 27.06H22.5191V25.56H21.0191V27.06ZM21.0191 30.86V32.36H22.5191V30.86H21.0191ZM1.57906 30.86H0.0790626V32.36H1.57906V30.86ZM1.57906 27.54L0.600278 26.4034L0.0790626 26.8522V27.54H1.57906ZM4.45906 25.06L5.44011 26.1947C8.00911 23.9736 10.0453 22.1403 11.5399 20.7001L10.4991 19.62L9.45822 18.5399C8.01946 19.9263 6.02902 21.7198 3.47802 23.9253L4.45906 25.06ZM10.4991 19.62L11.5403 20.6998C13.1077 19.1883 14.4259 17.6048 15.4837 15.9467L14.2191 15.14L12.9545 14.3333C12.0389 15.7685 10.8771 17.1717 9.45786 18.5402L10.4991 19.62ZM14.2191 15.14L15.4837 15.9467C16.595 14.2046 17.1991 12.3821 17.1991 10.5H15.6991H14.1991C14.1991 11.7113 13.8164 12.9821 12.9545 14.3333L14.2191 15.14ZM15.6991 10.5H17.1991C17.1991 8.66631 16.7542 7.02564 15.6803 5.76659L14.5391 6.74001L13.3978 7.71343C13.8706 8.2677 14.1991 9.13371 14.1991 10.5H15.6991ZM14.5391 6.74001L15.697 5.78645C14.5672 4.41458 12.8725 3.88001 10.9791 3.88001V5.38001V6.88001C12.339 6.88001 13.0176 7.25211 13.3812 7.69357L14.5391 6.74001ZM10.9791 5.38001V3.88001C9.05383 3.88001 7.38144 4.51747 6.16651 5.91648L7.29906 6.90001L8.43161 7.88354C8.97669 7.25588 9.75763 6.88001 10.9791 6.88001V5.38001ZM7.29906 6.90001L6.16452 5.91878C5.02809 7.23277 4.50087 8.92924 4.43982 10.8524L5.93906 10.9L7.43831 10.9476C7.48392 9.51077 7.86337 8.54058 8.43361 7.88124L7.29906 6.90001ZM5.93906 10.9V9.40001H1.53906V10.9V12.4H5.93906V10.9ZM1.53906 10.9L3.03854 10.9395C3.11112 8.18137 3.9203 6.29407 5.27648 5.04221L4.25906 3.94001L3.24164 2.8378C1.13116 4.78594 0.127 7.53864 0.0395817 10.8605L1.53906 10.9ZM4.25906 3.94001L5.27718 5.04157C6.72509 3.70335 8.57272 3.00001 10.9391 3.00001V1.50001V9.53674e-06C7.91874 9.53674e-06 5.31304 0.923331 3.24095 2.83844L4.25906 3.94001ZM10.9391 1.50001V3.00001C13.5651 3.00001 15.4124 3.71551 16.6872 4.9694L17.7391 3.90001L18.7909 2.83062C16.8124 0.884511 14.1264 9.53674e-06 10.9391 9.53674e-06V1.50001ZM17.7391 3.90001L16.6959 4.97791C18.0103 6.24992 18.7191 7.96941 18.7191 10.3H20.2191H21.7191C21.7191 7.29727 20.7745 4.7501 18.7822 2.82211L17.7391 3.90001ZM20.2191 10.3H18.7191C18.7191 11.9504 18.298 13.5558 17.426 15.1349L18.7391 15.86L20.0521 16.5851C21.1534 14.5909 21.7191 12.4897 21.7191 10.3H20.2191ZM18.7391 15.86L17.4222 15.1417C16.5248 16.7871 15.4435 18.265 14.1782 19.5799L15.2591 20.62L16.3399 21.6601C17.7946 20.1483 19.0334 18.453 20.0559 16.5783L18.7391 15.86ZM15.2591 20.62L14.1778 19.5803C12.8817 20.9283 11.2069 22.5127 9.1452 24.3365L10.1391 25.46L11.1329 26.5835C13.2312 24.7274 14.9697 23.0851 16.3403 21.6597L15.2591 20.62ZM10.1391 25.46L9.14252 24.3389L7.34252 25.9389L8.33906 27.06L9.33561 28.1811L11.1356 26.5811L10.1391 25.46ZM8.33906 27.06V28.56H21.0191V27.06V25.56H8.33906V27.06ZM21.0191 27.06H19.5191V30.86H21.0191H22.5191V27.06H21.0191ZM21.0191 30.86V29.36H1.57906V30.86V32.36H21.0191V30.86ZM1.57906 30.86H3.07906V27.54H1.57906H0.0790626V30.86H1.57906ZM1.57906 27.54L2.55785 28.6767L5.43785 26.1967L4.45906 25.06L3.48028 23.9234L0.600278 26.4034L1.57906 27.54Z" fill="white" mask="url(#path-1-outside-1_564_151)"/>
</svg>
