<svg width="33" height="32" viewBox="0 0 33 32" fill="none" xmlns="http://www.w3.org/2000/svg">
<path d="M11.5 24C12.6046 24 13.5 24.8954 13.5 26C13.5 27.1046 12.6046 28 11.5 28C10.3954 28 9.5 27.1046 9.5 26C9.5 24.8954 10.3954 24 11.5 24Z" fill="white"/>
<path d="M21.5 24C22.6046 24 23.5 24.8954 23.5 26C23.5 27.1046 22.6046 28 21.5 28C20.3954 28 19.5 27.1046 19.5 26C19.5 24.8954 20.3954 24 21.5 24Z" fill="white"/>
<path fill-rule="evenodd" clip-rule="evenodd" d="M5.72135 4C6.45598 4.00034 7.16595 4.27086 7.71484 4.75911C8.26332 5.24722 8.6145 5.91927 8.70052 6.64844L8.74219 7H28.5L26.3359 19H10.1536L10.2852 20.1159C10.3136 20.3593 10.4302 20.5844 10.6133 20.7474C10.7963 20.9102 11.0337 20.9999 11.2786 21H24.5V23H11.2786C10.544 22.9997 9.83405 22.7291 9.28516 22.2409C8.73668 21.7528 8.3855 21.0807 8.29948 20.3516L6.71484 6.88281C6.68615 6.6397 6.56962 6.41531 6.38672 6.2526C6.20368 6.08985 5.96629 6.00003 5.72135 6H4.5V4H5.72135ZM9.91927 17H24.6641L26.1068 9H8.97786L9.91927 17Z" fill="white"/>
</svg>
