<svg width="33" height="32" viewBox="0 0 33 32" fill="none" xmlns="http://www.w3.org/2000/svg">
<path fill-rule="evenodd" clip-rule="evenodd" d="M7.06375 5.20831L16.414 8.64321V6.18748H18.25V9.31639L26.5143 12.3541L26.6015 12.3867V14.2851L26.4231 14.2187L24.9661 13.6836L28.3242 20.8919H28.8567L28.9817 20.8984C29.6001 20.9671 30.0901 21.5361 29.9388 22.1875V22.1927L29.9231 22.25L29.9218 22.2539C29.7643 22.7797 29.3232 24.0666 28.4414 25.2995L28.2591 25.5456C27.3091 26.7788 25.8356 27.974 23.7044 28.1185L23.2695 28.1328C21.0556 28.1326 19.4888 27.0196 18.4492 25.8021L18.2486 25.5573C17.5268 24.6441 17.0555 23.6703 16.7773 22.9765L16.5611 22.388L16.5234 22.2734C16.2929 21.5507 16.8758 20.8919 17.5833 20.8919H18.1106L21.9804 12.5859L11.526 8.74607L14.8841 15.9544H15.4166C16.0921 15.9544 16.6613 16.5552 16.5 17.25L16.4986 17.2539L16.483 17.3125L16.4817 17.3164C16.3242 17.8423 15.8832 19.1291 15.0013 20.362L14.819 20.6081C13.8691 21.841 12.3963 23.0363 10.2656 23.181L9.83068 23.1953C7.61679 23.1953 6.05005 22.082 5.01037 20.8646L4.80855 20.6198C3.84598 19.402 3.33113 18.0752 3.12235 17.4505L3.08459 17.3359C2.85397 16.6132 3.43579 15.9546 4.14318 15.9544H4.67183L8.54032 7.64842L6.97131 7.0729L6.88407 7.04165V5.14191L7.06375 5.20831ZM5.19396 17.7291C5.43417 18.2693 5.78363 18.93 6.26818 19.5429L6.5937 19.9245C7.38934 20.7855 8.43873 21.4205 9.83068 21.4206L10.1237 21.4114C11.559 21.3164 12.5921 20.5272 13.3463 19.5482L13.5364 19.2877C13.9121 18.7501 14.1883 18.1941 14.3854 17.7291H5.19396ZM6.68615 15.9544H12.8697L9.7773 9.31508L6.68615 15.9544ZM19.916 21.0248H26.5188L23.2174 13.9381L19.916 21.0248ZM19.6029 24.5628C19.0512 23.8649 18.6698 23.1097 18.4275 22.533H28.0271C27.7969 23.1092 27.4304 23.8665 26.8913 24.5663C26.0705 25.6319 24.9137 26.4918 23.2699 26.4918C21.6253 26.4918 20.4475 25.6311 19.6029 24.5628Z" fill="white"/>
</svg>
