<svg width="33" height="32" viewBox="0 0 33 32" fill="none" xmlns="http://www.w3.org/2000/svg">
<path d="M21.9978 5.33331C20.8722 5.35104 19.7711 5.66925 18.8058 6.2558C17.8405 6.84235 17.0451 7.67648 16.5 8.67394C15.9549 7.67648 15.1595 6.84235 14.1942 6.2558C13.2289 5.66925 12.1278 5.35104 11.0022 5.33331C9.20788 5.41226 7.51733 6.20719 6.2999 7.54444C5.08247 8.88168 4.43712 10.6525 4.50484 12.4701C4.50484 19.3285 15.4564 27.2499 15.9222 27.5859L16.5 28L17.0778 27.5859C17.5436 27.2519 28.4952 19.3285 28.4952 12.4701C28.5629 10.6525 27.9175 8.88168 26.7001 7.54444C25.4827 6.20719 23.7921 5.41226 21.9978 5.33331ZM16.5 25.5077C13.2483 23.0478 6.50403 17.0043 6.50403 12.4701C6.4357 11.1892 6.87025 9.93298 7.71291 8.97531C8.55557 8.01763 9.73796 7.43624 11.0022 7.35794C12.2665 7.43624 13.4489 8.01763 14.2915 8.97531C15.1342 9.93298 15.5687 11.1892 15.5004 12.4701H17.4996C17.4313 11.1892 17.8658 9.93298 18.7085 8.97531C19.5511 8.01763 20.7335 7.43624 21.9978 7.35794C23.262 7.43624 24.4444 8.01763 25.2871 8.97531C26.1297 9.93298 26.5643 11.1892 26.496 12.4701C26.496 17.0063 19.7517 23.0478 16.5 25.5077Z" fill="white"/>
</svg>
