<svg width="72" height="60" viewBox="0 0 72 60" fill="none" xmlns="http://www.w3.org/2000/svg">
<path d="M33.0313 28.4521C32.6333 29.2147 32.3683 29.8067 31.877 30.5537L29.1065 34.2373C26.8677 37.2564 21.9555 40.7001 20.7422 41.9248C23.7119 46.3424 29.2248 50.8691 33.3077 54.4248C34.6511 55.5439 37.655 57.7228 42.8165 59.9268C41.8738 60.3605 36.8842 58.758 35.6993 58.0791C35.4848 57.9552 35.0588 57.7109 34.838 57.6611C35.0555 57.9551 35.3539 57.7913 35.3633 58.2402C31.9304 58.2402 27.0078 54.468 24.377 52.5273C23.071 51.4578 15.997 45.7162 15.9659 44.3057C16.177 44.3243 16.193 44.3619 16.3018 44.4951C16.7868 45.0933 17.2404 45.7013 17.7471 46.3057C17.9278 46.5478 19.3737 48.0693 19.6348 48.1406C19.4297 47.8338 18.3573 46.7462 18.0616 46.3398L15.6143 43.2607C15.6516 43.4157 15.9251 43.8934 16.0215 44.0732C15.835 44.0236 14.9895 43.1866 15.5772 42.7588C19.6879 39.6 22.3996 37.3617 25.7237 33.248C25.873 33.0496 26.268 32.6307 26.3301 32.4014C24.8438 32.7485 19.0385 35.2256 17.1475 36.2549C16.0312 36.8656 16.5688 36.4103 16.0557 38.1309C15.931 38.5412 14.998 41.8074 14.6778 42.043L15.6456 38.8252C15.6518 38.8097 16.0241 37.3028 15.8438 37.8018C15.452 38.8929 15.1259 40.2569 14.7901 41.3945C14.19 43.1771 13.6828 45.0499 13.1075 46.8604C12.8028 48.0505 12.7785 47.6387 12.6075 47.8711L12.3868 48.5215C12.1816 49.1353 11.4349 51.6062 10.7198 51.6221C10.7198 51.1447 10.8625 51.1167 10.8936 50.751C10.3837 51.6561 10.026 52.6265 9.47565 53.5781C9.27973 53.9161 8.74533 54.8958 8.38776 54.9922C8.27896 54.7598 8.39009 54.5546 8.43366 54.3408L10.6016 44.9473C10.4648 45.1425 10.2066 45.8182 9.961 45.8184C9.96103 45.5368 10.0042 45.4808 10.0694 45.2891C10.2311 44.8024 10.2815 44.3401 10.3624 43.8379C10.5272 42.8181 10.7357 41.9068 10.9844 40.918C11.1492 40.2639 11.5899 38.6075 11.5899 38.0371C11.1485 37.9347 10.6291 37.6129 10.4239 37.2256C10.654 37.0737 10.9627 36.7882 11.3389 36.627C12.3898 36.1744 13.2512 35.6137 14.212 35.0186C13.9756 35.0372 13.1572 35.4675 12.8712 35.5977C12.8028 35.4488 12.788 35.1514 12.9434 34.9717C13.1305 34.7514 14.3456 34.0451 14.6192 33.9707C14.4452 33.7135 14.5226 33.6573 14.7803 33.4932L14.7872 33.4902C15.636 32.9571 17.2526 32.3765 18.2725 32.0293C18.8478 31.8371 22.9594 30.3399 23.1895 30.6592C21.1342 31.338 19.122 31.98 17.1133 32.7891C16.8335 32.9131 15.3963 33.5054 15.2657 33.6201C15.7819 33.6201 16.4939 33.3281 16.9883 33.1328C20.922 31.9052 29.2221 28.7684 33.0313 28.4521Z" fill="#D29440"/>
<path fill-rule="evenodd" clip-rule="evenodd" d="M58.3145 21.4932C58.7715 21.7969 58.8999 22.4161 59.0274 22.9307C59.1425 23.3957 59.0368 24.7201 59.043 24.7139C59.27 24.407 59.1203 24.3599 59.4219 24.2793C59.6489 24.4312 59.6588 24.6734 59.5655 25.002C59.4909 25.2593 58.7503 26.5803 58.5948 26.8252C58.3454 27.2209 56.9311 31.2864 56.586 32.1387C56.3123 32.8022 55.6657 34.1104 55.5196 34.7334L57.4756 37.2529C57.7244 37.5877 58.8525 38.6669 59.1729 38.9863C59.2911 39.1072 63.9496 43.5835 64.5342 44.0361L67.1807 46.333C68.2068 47.3528 70.6971 49.1321 72.0001 49.8887C71.03 50.1955 70.6476 50.0197 69.7491 49.75C67.0904 48.9564 65.2489 47.7621 62.8546 46.4043C61.4399 45.4558 60.1522 44.4019 58.753 43.4658L54.4805 39.8262C54.3215 39.6645 53.6533 38.9927 53.5352 38.9121C53.0595 39.8606 52.6118 40.7817 52.0801 41.6992L51.0694 43.4785C50.836 43.8815 50.1769 44.6063 49.8194 45.0186C49.6764 45.186 49.185 45.5425 48.9922 45.5859C49.0172 45.2762 49.1419 45.2515 49.3067 45.0283C49.4404 44.8454 49.5183 44.7368 49.6426 44.5508C49.8417 44.2502 50.1866 43.9184 50.2706 43.5527C50.0809 43.6767 49.9561 43.8377 49.7881 44.002C49.3187 44.4638 49.0921 45.3508 48.5792 45.4688V45.3057C48.5823 45.3032 48.5849 45.3001 48.588 45.2979L48.5792 45.2949V45.3057C48.4014 45.4483 48.2049 45.9182 47.6426 46.4482C47.3383 46.7361 47.6112 46.3153 47.0889 46.9414C46.806 47.2951 46.3766 48.1377 45.9073 48.0293C45.9228 47.8402 46.1286 47.4152 46.2188 47.2354C47.161 45.3568 48.128 43.4811 49.0733 41.6025C49.3192 41.1586 51.095 36.909 51.21 36.4131C50.7872 35.7869 47.0496 31.9125 46.2003 30.8984C45.569 30.0397 45.015 29.3111 44.5704 28.3408L44.0635 27.4512C43.8739 27.0761 43.7498 26.9579 43.585 26.5332C43.5042 26.3287 43.4547 26.2477 43.3614 26.0586C43.2124 25.749 43.3486 25.7582 43.296 25.5479C43.2151 25.2285 43.1996 25.3366 43.296 24.9863C43.3861 24.6579 43.5322 24.3047 43.669 23.9639C44.1012 22.882 44.6018 22.8448 44.8008 23.6973H44.9161C44.9845 23.4338 45.14 23.4422 45.5567 23.2314C46.2496 22.8813 46.2125 22.5192 46.8526 23.1572C47.0703 23.3711 47.1635 23.418 47.2413 23.7559C47.3314 24.1495 47.3564 23.9019 47.5616 24.4258L49.5772 28.2227C50.0654 28.9481 51.8872 31.5184 52.6055 31.999C53.0378 30.9171 53.4705 29.8378 53.8965 28.7559L55.6124 24.1963C55.9761 23.13 55.961 22.8691 56.5889 22.4414C56.8657 22.2523 56.9593 22.2525 57.2081 22.4199C57.6496 22.1285 57.261 22.2149 57.7647 21.9297C57.855 21.88 58.2728 21.5959 58.3145 21.4932ZM54.4063 39.4268C54.6119 39.7339 55.6594 40.6912 56.0792 41.0693L56.6758 41.5186H56.6797L55.8399 40.6699C55.4574 40.3878 55.3294 40.1365 54.9874 39.8916C54.8631 39.8018 54.8228 39.7612 54.711 39.6436C54.5773 39.5041 54.5958 39.4763 54.4063 39.4268ZM51.3184 36.584C51.2064 36.9004 50.8148 37.821 50.793 38.0938H50.796L51.2217 37.2998C51.5451 36.5373 51.5391 36.6428 51.3184 36.584ZM49.045 33.5645C49.1041 33.7783 49.2631 33.868 49.4092 34.0137C49.9192 34.522 49.8728 34.3607 49.4376 33.9268C49.3007 33.7873 49.2005 33.6668 49.045 33.5645ZM48.6505 33.084C48.3177 32.7554 48.3611 32.9167 48.6192 33.1709C48.9517 33.4993 48.9084 33.3381 48.6505 33.084ZM47.9942 32.4014C48.0471 32.6029 48.1936 32.7084 48.3428 32.8076C48.2899 32.6062 48.1434 32.5005 47.9942 32.4014ZM54.4493 30.4736C54.9935 28.2881 53.7877 32.154 53.6602 32.5322C53.7441 32.4052 53.8804 32.1818 53.9395 32.0547C54.1478 31.6022 54.3311 30.951 54.4493 30.4736ZM44.9063 28.1611C45.031 28.6945 46.1569 30.2346 46.502 30.6934L47.9903 32.3975C47.9218 32.1578 46.1309 29.89 45.836 29.4971C45.5997 29.1561 45.1333 28.3131 44.9063 28.1611ZM54.0489 28.9082C53.9898 29.0632 53.9214 29.2214 53.8467 29.4043L53.0567 31.4062C53.0007 31.5767 52.951 31.7351 52.8702 31.918C52.8484 31.9707 52.7803 32.1568 52.7803 32.1816C52.7803 32.3335 52.8177 32.3087 52.9483 32.3428C52.967 32.1195 53.2062 31.5739 53.2901 31.3477C53.4736 30.8484 54.2537 28.7969 54.2881 28.3936L54.0489 28.9082Z" fill="#D29440"/>
<path fill-rule="evenodd" clip-rule="evenodd" d="M41.918 31.7354C42.5462 31.5803 43.5601 31.3382 44.1758 31.5645C44.3251 31.6358 44.5238 31.686 44.6202 31.8193C44.4742 31.8904 44.3126 31.9055 44.1202 31.958C43.9088 32.02 43.7931 32.0296 43.6905 32.1689H43.9825C43.9825 32.3115 44.0048 32.4917 43.8184 32.6436C42.5248 33.1644 41.2462 33.6762 39.9464 34.1846C39.4534 34.4351 41.5948 33.6787 41.5948 33.6787C41.5077 34.0073 40.0181 34.4264 39.6387 34.5752C37.9503 35.2479 36.2023 35.8525 34.4952 36.4756C34.2122 36.5687 33.7616 36.7885 33.4415 36.8164L32.6827 39.1973L34.1036 38.8711C35.621 38.4154 38.0339 37.805 39.626 37.4082C40.1079 37.2904 40.5778 37.1731 41.0255 37.0615C41.3115 36.9902 43.5531 36.4103 43.8087 36.4102C42.9257 36.9371 43.33 36.7607 44.0421 36.584C44.9034 36.367 45.7026 36.2741 46.3712 36.1191C46.2679 36.5095 45.1205 36.7884 44.7413 37.1045C45.0211 37.0828 44.9283 37.0119 45.2081 36.9902C45.2078 37.7059 44.5488 37.8575 43.9053 38.0713C41.427 38.8928 38.9392 39.6742 36.4796 40.5391C35.839 40.7653 31.9775 42.198 31.753 42.2168L30.9942 44.5977C33.118 44.1048 35.5557 43.1307 37.7169 42.5293C40.3568 41.8194 42.428 41.2894 45.0928 40.8213C44.9936 40.8461 45.1517 40.8678 44.5674 41.0537C45.2731 41.0537 46.47 40.5553 46.7813 40.5303C46.7067 40.6077 46.6287 40.6946 46.5479 40.7627C47.1107 40.7503 47.4843 40.592 47.6553 40.5889C47.6958 40.778 47.708 40.7814 47.5743 40.9736C47.1949 41.5222 46.7315 41.9932 46.1221 42.3125C45.892 42.4148 45.5653 42.5206 45.3819 42.6787C45.6088 42.6601 45.5347 42.6254 45.7891 42.6191C45.6678 42.7865 45.5716 42.7902 45.3477 42.877L44.3565 43.2832C42.8173 43.9373 41.3523 44.4114 39.7696 44.9229C37.3099 45.7413 34.8564 46.4794 32.3594 47.1738C31.5261 47.4063 30.4529 48.1682 29.7159 48.6611C29.2252 48.3326 29.9431 48.0628 29.4239 47.79C29.4052 48.6612 29.0167 46.873 29.0167 47.9053C28.4974 47.8619 28.8422 47.3067 28.5499 47.0928C28.5312 47.3191 28.4975 47.2448 28.4913 47.499L28.3262 47.2568C28.1087 46.8848 28.0991 46.0947 28.1426 45.7041L28.7208 42.8555C27.8566 42.8556 27.1261 43.388 26.6348 43.3076C26.2834 43.2487 25.9815 43.4901 25.9815 43.2607C26.5629 43.1243 27.3682 42.7128 27.9776 42.4648C29.1776 41.9783 28.1588 42.2754 27.5772 42.4707L25.5958 43.0566C25.375 43.1125 24.8534 43.2763 24.7598 43.1465C24.9488 43.097 24.8438 43.1094 24.9922 43.0322C25.2472 42.8989 25.4903 42.911 25.5743 42.6816C25.4189 42.7622 24.1979 43.3043 24.001 43.3203C24.7597 42.6818 24.8841 42.8953 25.1671 42.5078C24.8499 42.5791 24.6688 42.7811 24.3516 42.8555C24.4853 42.3564 28.2735 40.9233 28.9141 40.666C29.4734 40.4399 29.3366 40.5267 29.5137 39.9287C29.6629 39.4205 30.0828 38.2771 30.1172 37.8613C29.8996 37.8799 29.6815 37.9788 29.4825 38.0439C29.2775 38.1121 29.0911 38.1648 28.8458 38.2236C28.5566 38.2918 28.4967 38.3194 28.251 38.4434C27.7413 38.7005 27.5242 38.4873 27.8536 38.165C28.0775 37.948 28.3733 37.8207 28.6407 37.6719C28.7088 37.6317 28.7208 37.6186 28.7735 37.5723C28.4724 37.5971 28.5903 37.6806 28.2579 37.6807C28.0901 37.4577 28.0497 37.3683 28.3448 37.2041L28.9883 36.8564C29.349 36.7046 30.3223 36.215 30.5215 35.9453L30.5274 35.9424C30.2188 35.9677 28.7798 36.6741 28.3477 36.8477C28.037 36.9716 27.568 37.2591 27.4805 37.1729C27.3002 36.993 28.2177 36.5097 28.3887 36.4229C29.0507 36.0913 28.1365 36.3197 29.3985 35.6875C30.6112 35.083 29.5483 35.5015 30.4874 35.0303C30.9973 34.773 31.7684 34.5434 32.3809 34.3047C33.693 33.7932 34.8623 33.3381 36.2335 32.9785C37.5768 32.6251 39.0573 32.1542 40.4317 31.9961C41.0722 31.9217 41.2807 31.8934 41.918 31.7354ZM32.3282 46.6309C32.1323 46.6464 31.2708 46.9345 31.1495 47.0244C30.7639 47.3189 30.4405 47.4495 30.2881 47.6758L32.3282 46.6309ZM38.9532 44.4834C38.542 44.5107 35.7834 45.3989 35.3008 45.5889C35.2044 45.6261 35.2853 45.5866 35.1827 45.6455L35.1202 45.7012C35.4497 45.6733 37.6381 44.9328 38.0557 44.793L38.9532 44.4834ZM38.9532 44.4834C38.9581 44.4831 38.9626 44.4825 38.9669 44.4824V44.4795L38.9532 44.4834ZM45.3731 42.1016C45.0621 42.1729 44.7257 42.3222 44.421 42.4307C44.3439 42.4707 44.3684 42.4709 44.3253 42.5078C44.5397 42.4892 44.7451 42.3966 44.9161 42.3408C45.1461 42.2665 45.2456 42.2751 45.3731 42.1016ZM33.1837 40.6943C32.9505 40.6014 32.2042 40.8987 32.0919 41.0537L33.1837 40.6943ZM35.2979 35.3623C35.0087 35.3871 34.517 35.5977 34.2403 35.7031C34.0262 35.7835 34.0726 35.7283 33.9581 35.8857L35.2979 35.3623ZM39.6671 32.3457C39.3064 32.3457 37.3884 32.8356 36.9649 32.9629L34.3653 33.7969V33.7998L37.0704 33.124L39.6671 32.3457ZM39.7227 32.2871C39.6279 32.3816 39.7862 32.3202 39.794 32.3213C39.9339 32.3647 39.7818 32.2313 39.7227 32.2871ZM43.336 32.2285C43.243 32.3244 43.3978 32.2663 43.4073 32.2627C43.5472 32.3061 43.392 32.1727 43.336 32.2285Z" fill="#D29440"/>
<path fill-rule="evenodd" clip-rule="evenodd" d="M47.7081 0.173828C47.6201 0.499151 45.7812 0.809247 45.3702 0.920898C43.8372 1.39208 42.1609 1.79174 40.5782 2.24121C40.3018 2.31862 38.1605 2.83217 38.1553 2.90137C38.4383 2.90137 38.3982 2.85827 38.6221 2.84277C38.7869 2.8304 38.9828 2.85517 39.1475 2.84277C39.5236 2.81487 40.1142 2.62587 40.1954 2.95703L41.5352 2.84277C42.0701 2.80557 42.9939 2.66328 43.5723 2.78418C43.4569 3.2891 42.4282 3.41279 41.9649 3.56152C39.4524 4.30863 36.7032 5.02806 34.1876 5.79688C32.5831 6.28975 30.9384 6.70881 29.3526 7.19238C28.5441 7.44039 27.7723 7.62912 26.9483 7.87402C26.5224 8.00108 26.1527 8.10082 25.7237 8.22168L24.5235 8.53418C23.9513 10.5368 23.3629 12.5364 22.7969 14.5391L19.1719 27.2432C18.9232 28.0304 17.9872 31.2074 17.3995 31.4688C17.3529 31.3913 17.3061 31.3167 17.2657 31.1123C17.1817 30.6814 17.2312 30.0051 17.3214 29.5215C17.4332 28.9173 17.3707 29.2672 17.3116 29.0254L17.2999 27.3516C17.2999 27.677 17.206 27.5469 16.9014 27.9434C16.8113 28.0611 16.4606 28.5138 16.4258 28.5146C16.4258 28.1334 16.6592 26.6203 16.6592 26.1924C16.4977 26.1769 16.5313 26.1863 16.4258 26.1338C16.4258 25.3093 16.4819 24.8316 16.6964 24.1963C16.8891 23.6259 17.032 23.0799 17.2061 22.4971L19.209 12.4746C19.3241 11.9972 19.3455 11.848 19.5694 11.7891C19.5694 12.5174 18.2389 17.6185 18.5616 17.0566C18.8164 16.4432 19.7958 11.9805 19.7969 11.7031C20.568 11.2939 21.0245 10.5461 21.0245 9.58203C20.7199 9.58833 20.3287 9.73761 20.0831 9.80273C18.4381 10.2677 7.69666 13.4727 6.69537 13.4727C6.65501 13.2964 6.62722 13.3299 6.69537 13.1816C6.519 13.2222 5.07849 13.4081 4.83307 13.3555C4.91077 13.0611 5.10048 13.1039 5.37701 12.9678L5.99616 12.6572C5.76606 12.6758 5.59208 12.7727 5.40241 12.8223C4.8397 12.971 4.23954 13.122 3.60846 13.1221C3.66907 12.4488 7.66001 11.4241 8.26178 10.9199L8.27252 10.918L8.26959 10.915C8.26742 10.9169 8.26405 10.918 8.26178 10.9199L4.21783 11.8701C3.32538 12.0933 3.15377 12.1588 2.16803 12.3262C1.75715 12.3945 0.317779 12.6572 0.0068975 12.6572C-0.218699 11.8512 5.15852 10.3757 6.03619 10.0811C14.7119 7.36853 23.158 4.88604 31.9922 2.83691C34.2871 2.26651 37.3131 1.97787 39.7852 1.50977C42.1111 1.16563 45.5719 0.17386 47.7081 0.173828ZM8.27252 9.75293L8.26959 9.75586C8.2716 9.75448 8.27403 9.75343 8.27643 9.75195L8.27252 9.75293ZM24.2305 5.1084C23.9351 5.11469 23.4342 5.27914 23.1358 5.35352C22.8156 5.43101 22.4485 5.53954 22.1221 5.62012C18.9441 6.41066 13.5398 8.06061 10.1846 9.1084C9.8801 9.20957 8.46793 9.6338 8.27643 9.75195C9.12172 9.72758 15.0644 7.90802 16.3165 7.49609C17.8308 7.00009 19.7098 6.52586 21.2833 6.00195L24.2305 5.1084Z" fill="#D29440"/>
<path fill-rule="evenodd" clip-rule="evenodd" d="M50.793 0C49.5897 2.49851 53.9427 9.10089 55.336 11.1504C55.9985 11.0945 61.8599 7.78095 63.4893 6.96875C63.4302 7.2446 63.4488 7.18332 63.7813 7.26074C63.7595 7.52078 63.6511 7.59569 63.2813 7.86523C63.1258 7.97684 62.7619 8.24646 62.6749 8.36426C63.2657 8.22777 64.6399 7.51811 65.2774 7.24219C65.8713 6.96628 65.9553 6.90023 66.6114 6.83203C66.7046 6.82273 66.7673 6.79883 66.9258 6.79883C66.904 7.04335 66.8416 7.05006 66.6583 7.1709L64.1299 8.94629C64.2978 8.93388 64.3508 8.90311 64.5001 8.85352L65.5264 8.54102C65.4915 8.95361 64.2449 10.0663 63.8936 10.2832C62.9387 10.8476 57.7895 13.6839 57.4288 13.7676C58.421 16.2073 63.3591 20.0113 67.2149 22.4199C63.3871 23.3096 55.6846 18.5446 53.5264 15.1035C50.8273 15.7762 48.1188 16.378 45.4073 16.998C45.0715 17.1127 44.5706 17.0564 44.2969 17.168C44.269 17.1773 41.9271 21.4181 41.585 21.8955C41.4265 22.1217 41.2279 22.3823 41.001 22.5342C40.8922 22.3048 41.234 21.4216 41.0723 21.6758C40.8765 22.0508 40.7116 22.4727 40.5157 22.8633C40.3849 23.1271 40.0121 23.9291 39.838 24.0439C39.7353 23.6037 40.7578 20.7978 40.9444 20.2119C40.6862 20.3985 39.7326 23.1071 39.5303 23.6191C39.3718 24.0066 39.2438 24.3848 39.0821 24.7412L38.5811 25.8672C38.3166 26.5247 37.4434 28.2722 36.8682 29.0967C36.8785 28.9504 40.8385 18.1643 41.1778 17.252C41.2804 17.0101 41.3588 16.7276 41.4708 16.4951C41.0759 16.4951 40.0305 16.7775 39.8965 16.2725C40.5804 16.1578 41.1279 16.0148 41.5352 15.9775C41.6907 15.8814 42.0426 14.1857 42.2354 13.5967C42.3349 13.293 42.4402 12.952 42.5303 12.6143C42.8848 11.2781 43.4045 10.143 43.8243 8.90918C44.0766 8.16723 46.0692 3.13154 46.713 3.07812C45.8112 4.65914 42.5495 12.1398 42.4034 13.8789H42.4063L43.0069 12.3877C44.3751 9.04588 46.0195 4.3399 48.0313 1.37012C48.6221 0.495904 49.7544 0.0868013 50.793 0ZM45.2579 16.7217C45.1957 16.7248 44.3838 16.8546 44.2686 17.0127C44.477 16.9941 45.2578 16.9294 45.2579 16.7217ZM53.296 14.9238C53.2182 14.6324 53.0873 14.7567 52.795 14.8311C52.0882 15.0235 49.3439 15.7208 48.9864 15.9688C49.3127 15.9625 49.7974 15.8108 50.0928 15.7363L53.296 14.9238ZM48.4014 7.37207C48.2798 7.89062 46.7322 12.4233 46.421 12.4248C46.4275 12.3373 46.6289 11.7246 46.4581 11.9971C45.9824 13.1099 45.5035 14.2165 45.0215 15.3262L45.0245 15.3301C45.7863 15.0759 45.7742 15.2302 45.3731 15.0381C45.4225 14.9902 50.4656 13.7099 51.7227 12.8311C50.4882 11.0733 49.4307 9.25688 48.4014 7.37207Z" fill="#D29440"/>
<path d="M39.0235 19.9805C39.0188 20.3074 34.2403 22.1905 33.7462 22.3857C31.5819 23.2382 29.3148 23.8609 27.0821 24.5088C25.6424 24.8901 23.876 25.352 22.2715 24.9521L21.4102 24.5898C21.0748 24.3854 21.3045 24.2861 21.5655 24.1777C21.7022 24.1189 21.7835 24.072 21.9171 24.0039C22.3431 23.79 22.9498 23.5232 23.4131 23.4023C25.6208 22.8289 26.5849 23.2259 30.002 22.1875C27.0389 22.9306 24.1219 23.0167 24.085 23.0176C23.7318 22.9682 23.0758 22.7991 22.8926 22.5342C23.0707 22.2918 23.4296 22.221 23.5596 22.1006C24.2062 21.5055 24.0603 21.5235 25.0801 21.291C26.0352 21.0709 28.9173 20.6126 29.878 20.501C32.9937 20.222 35.886 19.9805 39.0235 19.9805Z" fill="#D29440"/>
<path d="M22.8926 22.5342L22.8907 22.5371V22.5312L22.8926 22.5342Z" fill="#D29440"/>
<path d="M40.4786 13.1777C40.4164 13.4102 39.7909 13.7327 39.5577 13.8877C37.8288 14.8673 36.1215 15.8751 34.3428 16.7617C32.4742 17.6079 30.6148 18.4292 28.7305 19.2383C27.5708 19.7373 26.3891 20.1713 25.1485 20.4844C24.4986 20.6487 23.0957 20.5185 22.5391 20.1465C22.7006 19.8401 22.7352 19.8556 23.086 19.707C25.2191 18.8111 27.4058 17.6332 29.4922 16.6133L29.4893 16.6094C29.2065 16.6311 24.5975 18.8976 24.4053 18.8604C24.1846 18.8139 24.3676 18.7458 24.4796 18.4795C24.6319 18.1199 24.514 18.2809 24.7969 18.0391C25.1607 17.7291 26.1244 17.1682 26.5567 16.9512C30.708 14.8555 35.7924 13.0723 40.4786 13.1777Z" fill="#D29440"/>
<path d="M29.9464 20.2588C30.1424 19.5924 35.0543 19.7812 35.8262 19.7998L35.8077 19.8252C34.9339 19.8655 34.066 19.9212 33.1954 19.9863C33.0524 19.9956 32.8908 20.008 32.7169 20.0234H32.7227C31.8087 20.0947 30.8884 20.1751 29.9464 20.2588Z" fill="#D29440"/>
<path d="M37.8038 8.07227C37.8038 8.58066 27.3503 15.5403 26.1651 16.3311C25.8884 16.517 25.5898 16.6907 25.3038 16.8643C24.8964 17.1154 24.9799 17.0284 24.5694 17.0625C24.1036 17.0716 24.7533 16.6038 24.6973 16.4922C24.2495 16.5945 23.5469 16.5665 23.5313 15.8535C23.9016 15.7664 25.4465 14.7781 25.6768 14.1055C28.6619 11.982 30.0426 11.1231 31.5196 10.4814C29.7845 11.0116 27.045 12.89 25.6768 13.8789C25.2913 13.8851 25.0888 14.0558 24.8712 13.7646C24.9458 13.4888 25.5086 13.0795 25.7296 12.8779C26.7215 11.9665 30.2855 10.404 31.5635 9.98242L33.295 9.38672C34.1406 9.13568 37.3453 8.08211 37.8038 8.07227Z" fill="#D29440"/>
<path d="M36.0499 13.2617C35.9163 13.2803 35.7518 13.3151 35.5655 13.3584L35.5684 13.3613C32.7948 13.941 30.0399 14.9736 27.5616 16.1484C27.9907 15.3208 34.8112 13.21 36.2022 13.2344L36.0499 13.2617Z" fill="#D29440"/>
<path d="M31.1368 9.77734C30.0825 10.1246 27.4649 11.2536 26.0284 12.1494C26.3051 11.3868 31.3083 9.43331 32.378 9.34961L31.1368 9.77734Z" fill="#D29440"/>
</svg>
