<svg width="33" height="32" viewBox="0 0 33 32" fill="none" xmlns="http://www.w3.org/2000/svg">
<path d="M16.5 4C9.883 4 4.5 9.383 4.5 16C4.5 22.617 9.883 28 16.5 28C23.117 28 28.5 22.617 28.5 16C28.5 9.383 23.117 4 16.5 4ZM12.5 25.164V23C12.5 22.448 12.949 22 13.5 22H19.5C20.051 22 20.5 22.448 20.5 23V25.164C19.274 25.701 17.922 26 16.5 26C15.078 26 13.726 25.701 12.5 25.164ZM22.5 23.995V23C22.5 21.346 21.154 20 19.5 20H13.5C11.846 20 10.5 21.346 10.5 23V23.995C8.073 22.169 6.5 19.265 6.5 16C6.5 10.486 10.986 6 16.5 6C22.014 6 26.5 10.486 26.5 16C26.5 19.264 24.927 22.169 22.5 23.995ZM16.5 10C14.294 10 12.5 11.794 12.5 14C12.5 16.206 14.294 18 16.5 18C18.706 18 20.5 16.206 20.5 14C20.5 11.794 18.706 10 16.5 10ZM16.5 16C15.397 16 14.5 15.103 14.5 14C14.5 12.897 15.397 12 16.5 12C17.603 12 18.5 12.897 18.5 14C18.5 15.103 17.603 16 16.5 16Z" fill="white"/>
</svg>
