<svg width="34" height="34" viewBox="0 0 34 34" fill="none" xmlns="http://www.w3.org/2000/svg">
<rect width="34" height="34" rx="17" fill="#252525"/>
<path fill-rule="evenodd" clip-rule="evenodd" d="M21 9.80551C21 9.28772 20.5214 8.90453 20.0201 9.02097L10.4201 11.2506C10.0571 11.3349 9.8 11.6602 9.8 12.0352V24.1948H9.4C9.17909 24.1948 9 24.3751 9 24.5974C9 24.8197 9.17909 25 9.4 25H13.8V22.5845C13.8 22.1398 14.1582 21.7794 14.6 21.7794H16.2C16.6418 21.7794 17 22.1398 17 22.5845V25H21V9.80551ZM12.6 13.7278C12.3791 13.7278 12.2 13.908 12.2 14.1304V14.9355C12.2 15.1579 12.3791 15.3381 12.6 15.3381H13.4C13.6209 15.3381 13.8 15.1579 13.8 14.9355V14.1304C13.8 13.908 13.6209 13.7278 13.4 13.7278H12.6ZM12.2 16.5459C12.2 16.3235 12.3791 16.1433 12.6 16.1433H13.4C13.6209 16.1433 13.8 16.3235 13.8 16.5459V17.351C13.8 17.5733 13.6209 17.7536 13.4 17.7536H12.6C12.3791 17.7536 12.2 17.5733 12.2 17.351V16.5459ZM12.6 18.5587C12.3791 18.5587 12.2 18.739 12.2 18.9613V19.7665C12.2 19.9888 12.3791 20.1691 12.6 20.1691H13.4C13.6209 20.1691 13.8 19.9888 13.8 19.7665V18.9613C13.8 18.739 13.6209 18.5587 13.4 18.5587H12.6ZM14.6 14.1304C14.6 13.908 14.7791 13.7278 15 13.7278H15.8C16.0209 13.7278 16.2 13.908 16.2 14.1304V14.9355C16.2 15.1579 16.0209 15.3381 15.8 15.3381H15C14.7791 15.3381 14.6 15.1579 14.6 14.9355V14.1304ZM15 16.1433C14.7791 16.1433 14.6 16.3235 14.6 16.5459V17.351C14.6 17.5733 14.7791 17.7536 15 17.7536H15.8C16.0209 17.7536 16.2 17.5733 16.2 17.351V16.5459C16.2 16.3235 16.0209 16.1433 15.8 16.1433H15ZM14.6 18.9613C14.6 18.739 14.7791 18.5587 15 18.5587H15.8C16.0209 18.5587 16.2 18.739 16.2 18.9613V19.7665C16.2 19.9888 16.0209 20.1691 15.8 20.1691H15C14.7791 20.1691 14.6 19.9888 14.6 19.7665V18.9613ZM17.4 13.7278C17.1791 13.7278 17 13.908 17 14.1304V14.9355C17 15.1579 17.1791 15.3381 17.4 15.3381H18.2C18.4209 15.3381 18.6 15.1579 18.6 14.9355V14.1304C18.6 13.908 18.4209 13.7278 18.2 13.7278H17.4ZM17 16.5459C17 16.3235 17.1791 16.1433 17.4 16.1433H18.2C18.4209 16.1433 18.6 16.3235 18.6 16.5459V17.351C18.6 17.5733 18.4209 17.7536 18.2 17.7536H17.4C17.1791 17.7536 17 17.5733 17 17.351V16.5459ZM17.4 18.5587C17.1791 18.5587 17 18.739 17 18.9613V19.7665C17 19.9888 17.1791 20.1691 17.4 20.1691H18.2C18.4209 20.1691 18.6 19.9888 18.6 19.7665V18.9613C18.6 18.739 18.4209 18.5587 18.2 18.5587H17.4Z" fill="#7E7E7E"/>
<path d="M21.8 11.8687V25H24.6C24.8209 25 25 24.8197 25 24.5974C25 24.3751 24.8209 24.1948 24.6 24.1948H24.2V13.574C24.2 13.2691 24.0288 12.9903 23.7578 12.8539L21.8 11.8687Z" fill="#7E7E7E"/>
<path d="M16.2 25H14.6V22.5845H16.2V25Z" fill="#7E7E7E"/>
</svg>
