<svg width="32" height="32" viewBox="0 0 32 32" fill="none" xmlns="http://www.w3.org/2000/svg">
<path fill-rule="evenodd" clip-rule="evenodd" d="M29.4568 12.5769C29.3694 12.5714 29.2743 12.5714 29.1756 12.5714L29.151 12.5714H25.2825C22.0938 12.5714 19.3654 15.1011 19.3654 18.4C19.3654 21.6989 22.0938 24.2286 25.2825 24.2286H29.151L29.1756 24.2286C29.2743 24.2286 29.3694 24.2287 29.4568 24.2231C30.752 24.1407 31.8975 23.1191 31.9938 21.6923C32.0001 21.5988 32 21.4979 32 21.4044L32 21.3791V15.421L32 15.3956C32 15.3021 32.0001 15.2013 31.9938 15.1077C31.8975 13.6809 30.752 12.6594 29.4568 12.5769ZM24.9395 19.9543C25.7604 19.9543 26.4259 19.2584 26.4259 18.4C26.4259 17.5416 25.7604 16.8457 24.9395 16.8457C24.1185 16.8457 23.453 17.5416 23.453 18.4C23.453 19.2584 24.1185 19.9543 24.9395 19.9543Z" fill="#353535"/>
<path fill-rule="evenodd" clip-rule="evenodd" d="M29.1746 26.56C29.4046 26.554 29.5786 26.7687 29.5162 26.9918C29.2066 28.0991 28.7153 29.0429 27.9268 29.8376C26.7727 31.0008 25.3092 31.517 23.5012 31.762C21.7443 32 19.4995 32 16.6653 32H13.407C10.5728 32 8.32801 32 6.57115 31.762C4.76307 31.517 3.29964 31.0008 2.14553 29.8376C0.99143 28.6744 0.47925 27.1995 0.236161 25.3772C-4.32491e-05 23.6066 -2.38601e-05 21.3441 4.98783e-07 18.4877V18.3123C-2.4044e-05 15.4559 -4.36068e-05 13.1934 0.23616 11.4228C0.479249 9.6005 0.99143 8.12556 2.14553 6.96239C3.29963 5.79922 4.76307 5.28302 6.57115 5.03802C8.32801 4.79996 10.5728 4.79998 13.407 4.8H16.6653C19.4995 4.79998 21.7443 4.79996 23.5011 5.03802C25.3092 5.28301 26.7727 5.79922 27.9268 6.96239C28.7152 7.75706 29.2066 8.70086 29.5162 9.80819C29.5786 10.0313 29.4045 10.246 29.1746 10.24L25.2823 10.24C20.9078 10.24 17.052 13.723 17.052 18.4C17.052 23.077 20.9078 26.56 25.2823 26.56L29.1746 26.56ZM5.78313 11.0171C5.14435 11.0171 4.62651 11.5391 4.62651 12.1829C4.62651 12.8267 5.14435 13.3486 5.78313 13.3486H11.9518C12.5906 13.3486 13.1084 12.8267 13.1084 12.1829C13.1084 11.5391 12.5906 11.0171 11.9518 11.0171H5.78313Z" fill="#353535"/>
<path d="M9.24269 3.23902L12.3768 0.930015C14.0599 -0.310005 16.3401 -0.310005 18.0232 0.930015L21.1738 3.25116C19.8565 3.19993 18.3854 3.19996 16.7726 3.2H13.2997C11.826 3.19997 10.4706 3.19993 9.24269 3.23902Z" fill="#353535"/>
</svg>
