<svg width="29" height="32" viewBox="0 0 29 32" fill="none" xmlns="http://www.w3.org/2000/svg">
<path fill-rule="evenodd" clip-rule="evenodd" d="M6.83919 0H22.1608C24.0279 0 24.9614 0 25.7143 0.260171C27.142 0.753528 28.263 1.8995 28.7455 3.35914C29 4.12888 29 5.08328 29 6.9921V29.3987C29 30.7719 27.4131 31.5005 26.4092 30.5882C25.8194 30.0522 24.9306 30.0522 24.3408 30.5882L23.5625 31.2955C22.5288 32.2348 20.9712 32.2348 19.9375 31.2955C18.9038 30.3561 17.3462 30.3561 16.3125 31.2955C15.2788 32.2348 13.7212 32.2348 12.6875 31.2955C11.6538 30.3561 10.0962 30.3561 9.0625 31.2955C8.02883 32.2348 6.47117 32.2348 5.4375 31.2955L4.65918 30.5882C4.06939 30.0522 3.18061 30.0522 2.59082 30.5882C1.58694 31.5005 0 30.7719 0 29.3987V6.9921C0 5.08328 0 4.12888 0.254482 3.35914C0.73705 1.8995 1.85796 0.753528 3.28568 0.260171C4.03859 0 4.97212 0 6.83919 0ZM19.4291 10.3992C19.8736 9.90487 19.8303 9.14628 19.3325 8.70489C18.8348 8.26349 18.0709 8.30643 17.6264 8.80079L12.7738 14.1983L11.3736 12.6408C10.9291 12.1464 10.1653 12.1035 9.66745 12.5449C9.16966 12.9863 9.12642 13.7449 9.57088 14.2392L11.8725 16.7992C12.1017 17.0542 12.4296 17.2 12.7738 17.2C13.118 17.2 13.4459 17.0542 13.6752 16.7992L19.4291 10.3992ZM7.25 20.4C6.58266 20.4 6.04167 20.9373 6.04167 21.6C6.04167 22.2628 6.58266 22.8 7.25 22.8H21.75C22.4173 22.8 22.9583 22.2628 22.9583 21.6C22.9583 20.9373 22.4173 20.4 21.75 20.4H7.25Z" fill="#353535"/>
</svg>
