<svg width="32" height="32" viewBox="0 0 32 32" fill="none" xmlns="http://www.w3.org/2000/svg">
<path fill-rule="evenodd" clip-rule="evenodd" d="M31.7411 14.6021L31.3744 18.4985C30.7702 24.9187 30.468 28.1288 28.5759 30.0644C26.6837 32 23.8477 32 18.1759 32H13.8241C8.15227 32 5.31634 32 3.42415 30.0644C1.53196 28.1288 1.22984 24.9187 0.625603 18.4985L0.258892 14.6021C-0.0291198 11.5419 -0.173126 10.0118 0.350377 9.37932C0.633566 9.03717 1.01865 8.82752 1.43038 8.79136C2.1915 8.72451 3.14733 9.81264 5.05899 11.9889C6.04763 13.1144 6.54195 13.6771 7.0934 13.7643C7.39895 13.8126 7.71027 13.7629 7.99241 13.6209C8.50162 13.3647 8.84112 12.669 9.52012 11.2776L13.0991 3.94377C14.3822 1.31459 15.0237 0 16 0C16.9763 0 17.6178 1.31459 18.9009 3.94377L22.4799 11.2776C23.1589 12.669 23.4984 13.3647 24.0076 13.6209C24.2897 13.7629 24.6011 13.8126 24.9066 13.7643C25.4581 13.6771 25.9524 13.1144 26.941 11.9889C28.8527 9.81264 29.8085 8.72451 30.5696 8.79136C30.9813 8.82752 31.3664 9.03717 31.6496 9.37932C32.1731 10.0118 32.0291 11.5419 31.7411 14.6021ZM10 25.6C10 24.9373 10.5373 24.4 11.2 24.4H20.8C21.4627 24.4 22 24.9373 22 25.6C22 26.2627 21.4627 26.8 20.8 26.8H11.2C10.5373 26.8 10 26.2627 10 25.6Z" fill="#353535"/>
</svg>
