<svg width="4" height="7" viewBox="0 0 4 7" fill="none" xmlns="http://www.w3.org/2000/svg">
<path d="M0.139764 0.165522C0.34091 -0.039733 0.68515 -0.0563722 0.908645 0.128357L2.16991 1.17085C2.70443 1.61263 3.14782 1.97908 3.45228 2.31146C3.77242 2.66096 4 3.03647 4 3.5C4 3.96353 3.77242 4.33903 3.45228 4.68854C3.14782 5.02092 2.70443 5.38737 2.16991 5.82915L0.908645 6.87164C0.68515 7.05637 0.34091 7.03973 0.139764 6.83448C-0.061382 6.62922 -0.0432643 6.31308 0.180232 6.12835L1.41172 5.11047C1.98365 4.63774 2.36925 4.31748 2.61904 4.04479C2.85877 3.78307 2.91113 3.63028 2.91113 3.5C2.91113 3.36972 2.85877 3.21693 2.61904 2.95521C2.36925 2.68252 1.98365 2.36225 1.41172 1.88953L0.180232 0.87165C-0.0432643 0.686921 -0.061382 0.370777 0.139764 0.165522Z" fill="#323232"/>
</svg>
