<svg width="68" height="68" viewBox="0 0 68 68" fill="none" xmlns="http://www.w3.org/2000/svg">
<rect x="0.5" y="0.5" width="67" height="67" rx="17.5" fill="#161616"/>
<rect x="0.5" y="0.5" width="67" height="67" rx="17.5" stroke="url(#paint0_linear_3517_3280)"/>
<rect x="0.5" y="0.5" width="67" height="67" rx="17.5" stroke="url(#paint1_linear_3517_3280)"/>
<path fill-rule="evenodd" clip-rule="evenodd" d="M43 17.8124C43 16.6474 41.9232 15.7852 40.7952 16.0472L19.1953 21.0639C18.3785 21.2536 17.8 21.9855 17.8 22.8291V50.1884H16.9C16.4029 50.1884 16 50.594 16 51.0942C16 51.5944 16.4029 52 16.9 52H26.8V46.5652C26.8 45.5646 27.6059 44.7536 28.6 44.7536H32.2C33.1941 44.7536 34 45.5646 34 46.5652V52H43V17.8124ZM24.1 26.6376C23.6029 26.6376 23.2 27.0431 23.2 27.5434V29.355C23.2 29.8552 23.6029 30.2608 24.1 30.2608H25.9C26.3971 30.2608 26.8 29.8552 26.8 29.355V27.5434C26.8 27.0431 26.3971 26.6376 25.9 26.6376H24.1ZM23.2 32.9782C23.2 32.478 23.6029 32.0724 24.1 32.0724H25.9C26.3971 32.0724 26.8 32.478 26.8 32.9782V34.7898C26.8 35.29 26.3971 35.6956 25.9 35.6956H24.1C23.6029 35.6956 23.2 35.29 23.2 34.7898V32.9782ZM24.1 37.5072C23.6029 37.5072 23.2 37.9128 23.2 38.413V40.2246C23.2 40.7248 23.6029 41.1304 24.1 41.1304H25.9C26.3971 41.1304 26.8 40.7248 26.8 40.2246V38.413C26.8 37.9128 26.3971 37.5072 25.9 37.5072H24.1ZM28.6 27.5434C28.6 27.0431 29.0029 26.6376 29.5 26.6376H31.3C31.797 26.6376 32.2 27.0431 32.2 27.5434V29.355C32.2 29.8552 31.797 30.2608 31.3 30.2608H29.5C29.0029 30.2608 28.6 29.8552 28.6 29.355V27.5434ZM29.5 32.0724C29.0029 32.0724 28.6 32.478 28.6 32.9782V34.7898C28.6 35.29 29.0029 35.6956 29.5 35.6956H31.3C31.797 35.6956 32.2 35.29 32.2 34.7898V32.9782C32.2 32.478 31.797 32.0724 31.3 32.0724H29.5ZM28.6 38.413C28.6 37.9128 29.0029 37.5072 29.5 37.5072H31.3C31.797 37.5072 32.2 37.9128 32.2 38.413V40.2246C32.2 40.7248 31.797 41.1304 31.3 41.1304H29.5C29.0029 41.1304 28.6 40.7248 28.6 40.2246V38.413ZM34.9 26.6376C34.403 26.6376 34 27.0431 34 27.5434V29.355C34 29.8552 34.403 30.2608 34.9 30.2608H36.7C37.197 30.2608 37.6 29.8552 37.6 29.355V27.5434C37.6 27.0431 37.197 26.6376 36.7 26.6376H34.9ZM34 32.9782C34 32.478 34.403 32.0724 34.9 32.0724H36.7C37.197 32.0724 37.6 32.478 37.6 32.9782V34.7898C37.6 35.29 37.197 35.6956 36.7 35.6956H34.9C34.403 35.6956 34 35.29 34 34.7898V32.9782ZM34.9 37.5072C34.403 37.5072 34 37.9128 34 38.413V40.2246C34 40.7248 34.403 41.1304 34.9 41.1304H36.7C37.197 41.1304 37.6 40.7248 37.6 40.2246V38.413C37.6 37.9128 37.197 37.5072 36.7 37.5072H34.9Z" fill="#E81C5A"/>
<path d="M44.8 22.4545V52H51.1C51.597 52 52 51.5944 52 51.0942C52 50.594 51.597 50.1884 51.1 50.1884H50.2V26.2916C50.2 25.6054 49.8148 24.9781 49.205 24.6712L44.8 22.4545Z" fill="#E81C5A"/>
<path d="M32.2 52H28.6V46.5652H32.2V52Z" fill="#E81C5A"/>
<defs>
<linearGradient id="paint0_linear_3517_3280" x1="34" y1="34" x2="-1.89447e-06" y2="68" gradientUnits="userSpaceOnUse">
<stop stop-color="#666666" stop-opacity="0"/>
<stop offset="1" stop-color="white" stop-opacity="0.15"/>
</linearGradient>
<linearGradient id="paint1_linear_3517_3280" x1="34" y1="34" x2="68" y2="1.74903e-06" gradientUnits="userSpaceOnUse">
<stop stop-color="#666666" stop-opacity="0"/>
<stop offset="1" stop-color="white" stop-opacity="0.15"/>
</linearGradient>
</defs>
</svg>
