<svg width="30" height="32" viewBox="0 0 30 32" fill="none" xmlns="http://www.w3.org/2000/svg">
<path d="M23.1429 0.451691C22.6923 0.903382 22.6923 1.63037 22.6923 3.08434V23.1325C22.6923 24.5865 22.6923 25.3135 23.1429 25.7652C23.5935 26.2169 24.3188 26.2169 25.7692 26.2169C27.2197 26.2169 27.9449 26.2169 28.3955 25.7652C28.8462 25.3135 28.8462 24.5865 28.8462 23.1325V3.08434C28.8462 1.63037 28.8462 0.903382 28.3955 0.451691C27.9449 0 27.2197 0 25.7692 0C24.3188 0 23.5935 0 23.1429 0.451691Z" fill="#E81C5A"/>
<path d="M11.9231 7.71084C11.9231 6.25687 11.9231 5.52989 12.3737 5.0782C12.8243 4.62651 13.5495 4.62651 15 4.62651C16.4505 4.62651 17.1757 4.62651 17.6263 5.0782C18.0769 5.52989 18.0769 6.25687 18.0769 7.71084V23.1325C18.0769 24.5865 18.0769 25.3135 17.6263 25.7652C17.1757 26.2169 16.4505 26.2169 15 26.2169C13.5495 26.2169 12.8243 26.2169 12.3737 25.7652C11.9231 25.3135 11.9231 24.5865 11.9231 23.1325V7.71084Z" fill="#E81C5A"/>
<path d="M1.60445 11.2469C1.15385 11.6986 1.15385 12.4255 1.15385 13.8795V23.1325C1.15385 24.5865 1.15385 25.3135 1.60445 25.7652C2.05506 26.2169 2.78029 26.2169 4.23077 26.2169C5.68124 26.2169 6.40648 26.2169 6.85709 25.7652C7.30769 25.3135 7.30769 24.5865 7.30769 23.1325V13.8795C7.30769 12.4255 7.30769 11.6986 6.85709 11.2469C6.40648 10.7952 5.68124 10.7952 4.23077 10.7952C2.78029 10.7952 2.05506 10.7952 1.60445 11.2469Z" fill="#E81C5A"/>
<path d="M1.15385 29.6867C0.516595 29.6867 0 30.2046 0 30.8434C0 31.4822 0.516595 32 1.15385 32H28.8462C29.4834 32 30 31.4822 30 30.8434C30 30.2046 29.4834 29.6867 28.8462 29.6867H1.15385Z" fill="#E81C5A"/>
</svg>
