<svg width="32" height="32" viewBox="0 0 32 32" fill="none" xmlns="http://www.w3.org/2000/svg">
<path fill-rule="evenodd" clip-rule="evenodd" d="M32 16C32 24.8366 24.8366 32 16 32C7.16344 32 0 24.8366 0 16C0 7.16344 7.16344 0 16 0C24.8366 0 32 7.16344 32 16ZM20.8 11.2C20.8 13.851 18.651 16 16 16C13.349 16 11.2 13.851 11.2 11.2C11.2 8.54903 13.349 6.4 16 6.4C18.651 6.4 20.8 8.54903 20.8 11.2ZM16 29.6C18.8545 29.6 21.5035 28.7206 23.6911 27.2179C24.6572 26.5542 25.0702 25.29 24.5084 24.2612C23.3439 22.1284 20.9444 20.8 15.9999 20.8C11.0555 20.8 8.65595 22.1284 7.49143 24.2611C6.92967 25.2899 7.34256 26.5541 8.30873 27.2178C10.4963 28.7206 13.1454 29.6 16 29.6Z" fill="#E81C5A"/>
</svg>
