<svg width="32" height="32" viewBox="0 0 32 32" fill="none" xmlns="http://www.w3.org/2000/svg">
<path d="M32 19.358V16.1975C32 14.8716 32 13.6933 31.9794 12.642H0.0206432C0 13.6933 0 14.8716 0 16.1975V19.358C0 25.3175 0 28.2973 1.87452 30.1486C3.74903 32 6.76602 32 12.8 32H19.2C25.234 32 28.251 32 30.1255 30.1486C32 28.2973 32 25.3175 32 19.358Z" fill="#E81C5A"/>
<path d="M9.2 1.18519C9.2 0.530625 8.66274 0 8 0C7.33726 0 6.8 0.530625 6.8 1.18519V3.6808C4.49707 3.86293 2.98523 4.30993 1.87452 5.40693C0.763799 6.50394 0.311221 7.99711 0.126812 10.2716H31.8732C31.6888 7.99711 31.2362 6.50394 30.1255 5.40693C29.0148 4.30993 27.5029 3.86293 25.2 3.6808V1.18519C25.2 0.530625 24.6627 0 24 0C23.3373 0 22.8 0.530625 22.8 1.18519V3.57594C21.7356 3.55556 20.5425 3.55556 19.2 3.55556H12.8C11.4575 3.55556 10.2644 3.55556 9.2 3.57594V1.18519Z" fill="#E81C5A"/>
</svg>
