<svg xmlns:inkscape="http://www.inkscape.org/namespaces/inkscape" xmlns:sodipodi="http://sodipodi.sourceforge.net/DTD/sodipodi-0.dtd" xmlns="http://www.w3.org/2000/svg" xmlns:svg="http://www.w3.org/2000/svg" xmlns:rdf="http://www.w3.org/1999/02/22-rdf-syntax-ns#" xmlns:cc="http://creativecommons.org/ns#" xmlns:dc="http://purl.org/dc/elements/1.1/" inkscape:export-ydpi="576" inkscape:export-xdpi="576" inkscape:export-filename="/media/taufikramadhan/Data/Tr Design Studio/Project Design/TR Creative Design/Icon Design/Project Hiring/Icon Icons/007 - Design And Development/Send/1 - Line/SVG/26 - Web Design.png" viewBox="0 0 22.577778 22.577778" version="1.1" id="svg831" inkscape:version="1.1 (1:1.1+202106031931+af4d65493e)" sodipodi:docname="26 - Web Design.svg" preserveAspectRatio="xMidYMid meet" style="width: 200px; height: 200px; transform-origin: 50% 50%; transform: scaleX(1) scaleY(1) rotate(0deg);">
  <defs id="ii-editor-193881-mt8l50vm-6l2eqe-defs825">
    <pattern id="ii-editor-193881-mt8l50vm-6l2eqe-EMFhbasepattern" patternUnits="userSpaceOnUse" width="6" height="6" x="0" y="0"></pattern>
    <pattern id="ii-editor-193881-mt8l50vm-6l2eqe-EMFhbasepattern-9" patternUnits="userSpaceOnUse" width="6" height="6" x="0" y="0"></pattern>
    <pattern id="ii-editor-193881-mt8l50vm-6l2eqe-EMFhbasepattern-0" patternUnits="userSpaceOnUse" width="6" height="6" x="0" y="0"></pattern>
    <pattern id="ii-editor-193881-mt8l50vm-6l2eqe-EMFhbasepattern-7" patternUnits="userSpaceOnUse" width="6" height="6" x="0" y="0"></pattern>
    <pattern id="ii-editor-193881-mt8l50vm-6l2eqe-EMFhbasepattern-2" patternUnits="userSpaceOnUse" width="6" height="6" x="0" y="0"></pattern>
    <pattern id="ii-editor-193881-mt8l50vm-6l2eqe-EMFhbasepattern-98" patternUnits="userSpaceOnUse" width="6" height="6" x="0" y="0"></pattern>
    <pattern id="ii-editor-193881-mt8l50vm-6l2eqe-EMFhbasepattern-6" patternUnits="userSpaceOnUse" width="6" height="6" x="0" y="0"></pattern>
    <pattern id="ii-editor-193881-mt8l50vm-6l2eqe-EMFhbasepattern-01" patternUnits="userSpaceOnUse" width="6" height="6" x="0" y="0"></pattern>
    <pattern id="ii-editor-193881-mt8l50vm-6l2eqe-EMFhbasepattern-07" patternUnits="userSpaceOnUse" width="6" height="6" x="0" y="0"></pattern>
    <pattern id="ii-editor-193881-mt8l50vm-6l2eqe-EMFhbasepattern-8" patternUnits="userSpaceOnUse" width="6" height="6" x="0" y="0"></pattern>
    <pattern id="ii-editor-193881-mt8l50vm-6l2eqe-EMFhbasepattern-4" patternUnits="userSpaceOnUse" width="6" height="6" x="0" y="0"></pattern>
    <pattern id="ii-editor-193881-mt8l50vm-6l2eqe-EMFhbasepattern-40" patternUnits="userSpaceOnUse" width="6" height="6" x="0" y="0"></pattern>
    <pattern id="ii-editor-193881-mt8l50vm-6l2eqe-EMFhbasepattern-08" patternUnits="userSpaceOnUse" width="6" height="6" x="0" y="0"></pattern>
    <pattern id="ii-editor-193881-mt8l50vm-6l2eqe-EMFhbasepattern-04" patternUnits="userSpaceOnUse" width="6" height="6" x="0" y="0"></pattern>
    <pattern id="ii-editor-193881-mt8l50vm-6l2eqe-EMFhbasepattern-014" patternUnits="userSpaceOnUse" width="6" height="6" x="0" y="0"></pattern>
    <pattern id="ii-editor-193881-mt8l50vm-6l2eqe-EMFhbasepattern-27" patternUnits="userSpaceOnUse" width="6" height="6" x="0" y="0"></pattern>
    <pattern id="ii-editor-193881-mt8l50vm-6l2eqe-EMFhbasepattern-09" patternUnits="userSpaceOnUse" width="6" height="6" x="0" y="0"></pattern>
    <pattern id="ii-editor-193881-mt8l50vm-6l2eqe-EMFhbasepattern-5" patternUnits="userSpaceOnUse" width="6" height="6" x="0" y="0"></pattern>
    <pattern id="ii-editor-193881-mt8l50vm-6l2eqe-EMFhbasepattern-018" patternUnits="userSpaceOnUse" width="6" height="6" x="0" y="0"></pattern>
  </defs>
  <sodipodi:namedview id="ii-editor-193881-mt8l50vm-6l2eqe-base" pagecolor="#ffffff" bordercolor="#666666" borderopacity="1.0" inkscape:pageopacity="0.0" inkscape:pageshadow="2" inkscape:zoom="4.2757863" inkscape:cx="42.682208" inkscape:cy="42.56527" inkscape:document-units="pt" inkscape:current-layer="layer1" showgrid="false" units="pt" inkscape:window-width="1366" inkscape:window-height="705" inkscape:window-x="0" inkscape:window-y="31" inkscape:window-maximized="1" inkscape:pagecheckerboard="true" inkscape:showpageshadow="false" inkscape:object-paths="true" inkscape:snap-intersection-paths="true" inkscape:snap-smooth-nodes="true" inkscape:snap-midpoints="true" showguides="false" inkscape:snap-bbox="true" inkscape:bbox-nodes="true" inkscape:snap-nodes="false" inkscape:snap-global="true" inkscape:document-rotation="0">
    <inkscape:grid type="xygrid" id="ii-editor-193881-mt8l50vm-6l2eqe-grid1378"></inkscape:grid>
    <sodipodi:guide position="0.97013831,21.607643" orientation="78.000048,0" id="ii-editor-193881-mt8l50vm-6l2eqe-guide1380" inkscape:locked="false"></sodipodi:guide>
    <sodipodi:guide position="0.97013831,0.97013129" orientation="0,78.000005" id="ii-editor-193881-mt8l50vm-6l2eqe-guide1382" inkscape:locked="false"></sodipodi:guide>
    <sodipodi:guide position="21.607639,0.97013129" orientation="-78.000048,0" id="ii-editor-193881-mt8l50vm-6l2eqe-guide1384" inkscape:locked="false"></sodipodi:guide>
    <sodipodi:guide position="21.607639,21.607643" orientation="0,-78.000005" id="ii-editor-193881-mt8l50vm-6l2eqe-guide1386" inkscape:locked="false"></sodipodi:guide>
  </sodipodi:namedview>
  <metadata id="ii-editor-193881-mt8l50vm-6l2eqe-metadata828">
    <rdf:RDF>
      <cc:Work rdf:about="">
        <dc:format>image/svg+xml</dc:format>
        <dc:type rdf:resource="http://purl.org/dc/dcmitype/StillImage"></dc:type>
      </cc:Work>
    </rdf:RDF>
  </metadata>
  <g inkscape:label="Icon" inkscape:groupmode="layer" id="ii-editor-193881-mt8l50vm-6l2eqe-layer1" transform="translate(0,-274.42223)">
    <path id="ii-editor-193881-mt8l50vm-6l2eqe-rect103220" style="color:#000000;display:inline;fill:#1C3890;stroke-width:1;stroke-linecap:round;stroke-linejoin:round;stroke-miterlimit:1.5;-inkscape-stroke:none;stroke:none" d="m 2.3021995,277.05631 c -0.1848462,-6.7e-4 -0.3348761,0.14931 -0.3341504,0.33415 v 0.99725 H 1.3023444 c -0.184084,3.4e-4 -0.33292229,0.15007 -0.33220333,0.33416 6.6575e-4,0.18307 0.14913453,0.3312 0.33220333,0.33155 h 0.6657047 v 13.3154 H 1.3023444 c -0.1830688,3.2e-4 -0.33148764,0.14848 -0.33220333,0.33155 -6.6562e-4,0.18409 0.14811933,0.33379 0.33220333,0.33416 h 0.6657047 v 0.99724 c -6.658e-4,0.18486 0.1493042,0.33488 0.3341504,0.33416 0.183831,-6.7e-4 0.3322732,-0.15032 0.3315542,-0.33416 v -0.99724 H 19.944024 v 0.99724 c -7.32e-4,0.18384 0.147721,0.33344 0.331553,0.33416 0.184846,6.7e-4 0.334876,-0.1493 0.334153,-0.33416 v -0.99724 h 0.663753 c 0.184847,6.6e-4 0.334876,-0.14932 0.334153,-0.33416 -7.32e-4,-0.18384 -0.150324,-0.33227 -0.334153,-0.33155 H 20.60973 v -13.3154 h 0.663753 c 0.183829,6.7e-4 0.333435,-0.14772 0.334153,-0.33155 7.32e-4,-0.18484 -0.149306,-0.33488 -0.334153,-0.33416 H 20.60973 v -0.99725 c 7.32e-4,-0.18484 -0.149307,-0.33487 -0.334153,-0.33415 -0.183832,6.6e-4 -0.332272,0.15032 -0.331553,0.33415 v 0.99725 H 2.6337537 v -0.99725 c 6.656e-4,-0.18383 -0.1477232,-0.33344 -0.3315542,-0.33415 z m 0.3315542,1.99711 H 19.944024 v 13.3154 H 2.6337537 Z m 0.9998551,0.66636 c -0.1838277,-6.6e-4 -0.3334314,0.14772 -0.3341504,0.33156 -6.657e-4,0.18484 0.1493042,0.33487 0.3341504,0.33414 h 0.3322033 c 0.1848462,6.7e-4 0.3348793,-0.1493 0.3341537,-0.33414 -6.656e-4,-0.18384 -0.1503227,-0.33227 -0.3341537,-0.33156 z m 1.6636125,0 c -0.1828125,6.7e-4 -0.3308385,0.14874 -0.3315508,0.33156 -6.657e-4,0.18382 0.1477198,0.33342 0.3315508,0.33414 h 0.3341538 c 0.18383,-6.7e-4 0.3322712,-0.15032 0.3315513,-0.33414 -6.99e-4,-0.18282 -0.1487372,-0.33085 -0.3315513,-0.33156 z m 10.3197227,0 c -0.183829,-6.6e-4 -0.333435,0.14772 -0.334152,0.33156 -7.32e-4,0.18484 0.149305,0.33487 0.334152,0.33414 h 0.331552 c 0.184085,-3.3e-4 0.332922,-0.15007 0.332203,-0.33414 -7.33e-4,-0.18308 -0.149134,-0.3312 -0.332203,-0.33156 z m 1.663611,0 c -0.183829,-6.6e-4 -0.333434,0.14772 -0.334151,0.33156 -7.34e-4,0.18484 0.149305,0.33487 0.334151,0.33414 h 0.331552 c 0.184847,6.7e-4 0.334878,-0.1493 0.334153,-0.33414 -7.32e-4,-0.18384 -0.150322,-0.33227 -0.334153,-0.33156 z m 1.664913,6.7e-4 c -0.183831,-6.7e-4 -0.333436,0.14772 -0.334153,0.33154 -7.32e-4,0.18485 0.149306,0.33489 0.334153,0.33416 0.18383,-6.7e-4 0.332271,-0.15032 0.331552,-0.33416 -7e-4,-0.18282 -0.148739,-0.33084 -0.331552,-0.33154 z m -13.3361976,1.41462 c -0.1754032,0 -0.3443423,0.0691 -0.469375,0.19373 -0.1253986,0.12479 -0.1963297,0.29585 -0.1963297,0.47197 v 0.74957 c 0,0.17612 0.06895,0.3446 0.1937301,0.46938 0.1248325,0.12492 0.2951535,0.19372 0.4719746,0.19372 H 16.968506 c 0.176033,0 0.344696,-0.0698 0.469374,-0.19372 0.124934,-0.1248 0.196331,-0.29326 0.196331,-0.46938 v -0.74957 c 0,-0.17612 -0.07088,-0.34716 -0.196331,-0.47197 -0.125035,-0.12467 -0.293971,-0.19373 -0.469374,-0.19373 z m 0,0.6657 h 9.6735216 v 0.74957 H 5.6092704 Z m 10.3392256,0 h 1.02001 v 0.74957 h -1.02001 z m -11.9339244,1.91391 c -0.389384,0 -0.7151132,0.32312 -0.7151132,0.71251 v 0.90429 c 0,0.38939 0.3257159,0.71251 0.7151132,0.71251 h 0.118316 v 3.32917 h -0.118316 c -0.3893973,0 -0.7151132,0.32378 -0.7151132,0.71316 v 0.90365 c 0,0.38939 0.3257292,0.71251 0.7151132,0.71251 h 0.9016903 c 0.3893806,0 0.7151132,-0.32312 0.7151132,-0.71251 v -0.12027 h 3.6613747 v 0.12027 c 0,0.38939 0.3231273,0.71251 0.7125122,0.71251 h 0.904292 c 0.389386,0 0.712512,-0.32312 0.712512,-0.71251 v -0.90365 c 0,-0.38938 -0.323126,-0.71315 -0.712512,-0.71316 h -0.120921 v -3.32917 h 0.120921 c 0.389386,0 0.712512,-0.32312 0.712512,-0.71251 v -0.90429 c 0,-0.38939 -0.323126,-0.71251 -0.712512,-0.71251 h -0.904292 c -0.3893849,0 -0.7125122,0.32312 -0.7125122,0.71251 v 0.11825 H 5.6313751 v -0.11825 c 0,-0.38939 -0.3257326,-0.71251 -0.7151132,-0.71251 z m 0,0.66569 h 0.9016903 c 0.03212,0 0.049409,0.0147 0.049409,0.0468 v 0.9043 c 0,0.0321 -0.017342,0.0468 -0.049409,0.0468 H 4.0145716 c -0.032087,0 -0.04876,-0.0147 -0.04876,-0.0468 v -0.9043 c 0,-0.0321 0.016642,-0.0468 0.04876,-0.0468 z m 5.9906904,0 h 0.904292 c 0.0321,0 0.04616,0.0147 0.04616,0.0468 v 0.9043 c 0,0.0321 -0.01405,0.0468 -0.04616,0.0468 h -0.904292 c -0.032105,0 -0.046811,-0.0147 -0.046811,-0.0468 v -0.9043 c 0,-0.0321 0.014706,-0.0468 0.046811,-0.0468 z m 2.614061,0.33221 c -0.183829,6.7e-4 -0.332271,0.15032 -0.331553,0.33416 6.99e-4,0.1828 0.148737,0.33083 0.331553,0.33155 h 6.324844 c 0.183831,6.7e-4 0.333437,-0.14773 0.334152,-0.33155 7.33e-4,-0.18486 -0.149307,-0.33488 -0.334152,-0.33416 z m -6.9879479,0.49863 h 3.6613747 v 0.12027 c 0,0.38939 0.3231273,0.71251 0.7125122,0.71251 h 0.117663 v 3.32917 h -0.117663 c -0.3893849,0 -0.7125122,0.32378 -0.7125122,0.71316 v 0.11763 H 5.6313751 v -0.11763 c 0,-0.38938 -0.3257192,-0.71315 -0.7151132,-0.71316 H 4.7985913 v -3.32917 h 0.1176706 c 0.389394,0 0.7151132,-0.32312 0.7151132,-0.71251 z m 10.8385029,0.87439 c -0.184082,-6.7e-4 -0.333793,0.14811 -0.334153,0.3322 -7.32e-4,0.18484 0.149306,0.33487 0.334153,0.33415 h 2.474289 c 0.184846,6.7e-4 0.334877,-0.14931 0.334152,-0.33415 -3.66e-4,-0.18409 -0.150069,-0.33293 -0.334152,-0.3322 z m -8.01771,0.29969 c -0.036697,-1.4e-4 -0.073154,0.006 -0.1079134,0.0176 l -1.9782613,0.66116 c -0.2335831,0.0786 -0.3036528,0.37505 -0.1300204,0.54998 l 0.4245168,0.42386 -0.1839791,0.18334 c -0.1290898,0.12982 -0.1290898,0.33954 0,0.46937 0.1301287,0.13082 0.3418456,0.13082 0.4719743,0 l 0.1826786,-0.18268 0.423867,0.42321 c 0.1749408,0.17437 0.4721667,0.10416 0.550636,-0.13002 l 0.6611548,-1.97566 c 0.073406,-0.21573 -0.086766,-0.43978 -0.3146495,-0.44011 z m -0.5304838,0.86008 -0.2775932,0.83345 c -0.1860809,-0.18534 -0.3702668,-0.37028 -0.5558386,-0.55585 z m 6.6954028,0.17229 c -0.182815,6.5e-4 -0.330839,0.14872 -0.331552,0.33154 -7.32e-4,0.18384 0.147722,0.33344 0.331552,0.33416 h 4.32708 c 0.184846,6.6e-4 0.334877,-0.14931 0.334152,-0.33416 -7.32e-4,-0.18382 -0.150322,-0.33227 -0.334152,-0.33154 z m -1.742273,1.2898 c -0.319138,0 -0.587044,0.26595 -0.587044,0.58508 v 0.82563 c 0,0.31914 0.267906,0.58446 0.587044,0.58446 h 0.823028 c 0.31914,0 0.587693,-0.26532 0.587693,-0.58446 v -0.82563 c 0,-0.31913 -0.268553,-0.58508 -0.587693,-0.58508 z m 2.660867,0 c -0.319139,0 -0.584441,0.26595 -0.584441,0.58508 v 0.82563 c 0,0.31914 0.265302,0.58446 0.584441,0.58446 h 3.154946 c 0.319139,0 0.587692,-0.26532 0.587692,-0.58446 v -0.82563 c 0,-0.31913 -0.268553,-0.58508 -0.587692,-0.58508 z m -2.582206,0.6657 h 0.665705 v 0.66636 h -0.665705 z m 2.663469,0 h 2.995021 v 0.66636 h -2.995021 z m -11.6023724,0.66636 h 0.9016903 c 0.032087,0 0.049409,0.0147 0.049409,0.0468 v 0.90365 c 0,0.0321 -0.017308,0.0468 -0.049409,0.0468 H 4.0145716 c -0.03212,0 -0.04876,-0.0147 -0.04876,-0.0468 v -0.90365 c 0,-0.0321 0.016676,-0.0468 0.04876,-0.0468 z m 5.9906904,0 h 0.904292 c 0.0321,0 0.04616,0.0147 0.04616,0.0468 v 0.90365 c 0,0.0321 -0.01405,0.0468 -0.04616,0.0468 h -0.904292 c -0.032105,0 -0.046811,-0.0147 -0.046811,-0.0468 v -0.90365 c 0,-0.0321 0.014706,-0.0468 0.046811,-0.0468 z" sodipodi:nodetypes="scccsccccscccsccccscccsccccscccsccccsccccccsccscccsccscccsccscccsccsccsssssscsscsscsscssccccccccccssssccssssssccssssssccssssssccssssssssssssssssssssscsccsccccssccssccssccssccccccccscccccccccccsscccccsccsccssssssssssssssssssccccccccccssssssssssssssssss" fill="#1C3890" stroke="none" class=""></path>
  </g>
<g id="ii-editor-193881-mt8l50vm-6l2eqe-icon-icons-preview-watermark" data-preview-watermark="1" pointer-events="none" aria-hidden="true"><image x="0" y="0" width="22.577778" height="22.577778" preserveAspectRatio="none" href="/images/watermark512.png"></image></g></svg>