<svg width="114" height="114" viewBox="0 0 114 114" fill="none" xmlns="http://www.w3.org/2000/svg">
<path d="M51.3828 27.0624C51.1313 24.4215 53.208 22.1377 55.8608 22.1377C58.4572 22.1377 60.5144 24.3297 60.3499 26.9209L58.6285 54.0318C58.5502 55.2655 57.5268 56.226 56.2906 56.226C55.0828 56.226 54.073 55.3078 53.9585 54.1055L51.3828 27.0624Z" fill="white"/>
<ellipse cx="57.0012" cy="69.6136" rx="6.08738" ry="6.0872" fill="white"/>
<path d="M49.2061 7.5C52.6702 1.50018 61.3298 1.50016 64.7939 7.5L103.766 75L103.922 75.2822C107.093 81.2325 102.791 88.5 95.9707 88.5H18.0293C11.1011 88.5 6.77038 81 10.2344 75L49.2061 7.5Z" stroke="white" stroke-width="6"/>
</svg>
