<svg width="103" height="103" viewBox="0 0 103 103" fill="none" xmlns="http://www.w3.org/2000/svg">
<g clip-path="url(#clip0_605_354)">
<path d="M73.2265 11.8692C74.0944 12.8406 74.2954 13.5588 74.2748 14.831C74.184 15.8113 73.7457 16.433 73.0253 17.062C72.3262 17.5717 71.8224 17.7376 70.9759 17.7661C70.8319 17.7736 70.688 17.7811 70.5397 17.7888C69.3697 17.6005 68.3361 16.8717 67.3275 16.276C64.0721 14.3673 60.5838 13.0018 56.9315 12.0704C56.7744 12.0302 56.6173 11.9901 56.4554 11.9487C46.2592 9.4362 35.2562 11.3423 26.2654 16.6596C22.6716 18.8602 19.144 21.6428 16.496 24.9454C16.3318 25.1445 16.1677 25.3437 15.9986 25.5489C13.776 28.2798 11.9231 31.1972 10.4608 34.4005C10.3932 34.5471 10.3255 34.6938 10.2558 34.8449C6.84815 42.315 5.60497 51.2716 7.44326 59.3458C7.47778 59.5073 7.51231 59.6688 7.54788 59.8351C9.87494 70.6033 16.3639 79.6847 25.5487 85.6993C26.5949 86.3531 27.6718 86.9437 28.7675 87.5098C28.9011 87.5793 29.0348 87.6487 29.1725 87.7202C38.3833 92.4398 49.4491 93.261 59.3026 90.1492C61.7674 89.335 64.1087 88.3499 66.3866 87.1075C66.5068 87.0432 66.6269 86.979 66.7507 86.9128C76.127 81.8797 82.8662 73.1532 86.0584 63.0709C86.7587 60.731 87.2115 58.3486 87.5097 55.9258C87.5299 55.7712 87.5502 55.6166 87.5711 55.4573C87.7062 54.2571 87.7183 53.0728 87.7022 51.867C87.7002 51.7021 87.6981 51.5372 87.696 51.3672C87.6868 50.6794 87.6769 49.9917 87.6612 49.304C87.6502 48.7962 87.6444 48.2886 87.6393 47.7807C87.6322 47.5497 87.6322 47.5497 87.6248 47.3139C87.6197 46.2679 87.8319 45.6953 88.5155 44.8614C89.5157 43.9803 90.0992 43.7827 91.4113 43.7997C92.252 43.8892 92.6676 44.1464 93.3437 44.6602C95.6401 47.6215 94.713 53.5215 94.2992 57.059C92.9293 67.4066 88.507 76.7758 81.2733 84.2911C81.1623 84.4076 81.0512 84.5241 80.9368 84.6442C79.3888 86.2625 77.7863 87.7302 75.9864 89.0639C75.6507 89.3129 75.3183 89.5659 74.9859 89.8194C68.4445 94.7269 60.4093 97.6886 52.3046 98.5743C52.115 98.5966 51.9255 98.6189 51.7302 98.6419C40.6991 99.7202 29.1535 96.7725 20.1171 90.3262C19.9975 90.2419 19.8779 90.1575 19.7546 90.0705C17.5601 88.5135 15.6043 86.7712 13.6796 84.8946C13.5012 84.7242 13.3228 84.5538 13.1389 84.3783C5.45391 76.9201 0.127784 65.2613 -0.043411 54.5099C-0.0449355 54.3428 -0.0464631 54.1758 -0.0480338 54.0037C-0.0500041 53.8245 -0.0519713 53.6452 -0.0540012 53.4605C-0.0889417 49.4552 -0.0539931 45.5742 0.804589 41.6426C0.869258 41.3435 0.869258 41.3435 0.935233 41.0382C2.6776 33.2483 6.41436 25.7988 11.8714 19.9444C12.2292 19.5592 12.5645 19.1637 12.9 18.7593C19.4113 11.335 28.9124 6.82474 38.4237 4.82819C38.6904 4.77024 38.6904 4.77024 38.9625 4.71111C49.8719 2.44758 64.356 4.85631 73.2265 11.8692Z" fill="white"/>
<path d="M101.253 8.64059C102.087 9.12749 102.574 9.57685 103 10.4614C103.08 11.0523 103.08 11.0523 103.075 11.6684C103.077 11.8717 103.079 12.075 103.08 12.2845C102.937 13.3422 102.312 14.0158 101.577 14.7517C101.326 15.0045 101.326 15.0045 101.069 15.2624C100.793 15.537 100.793 15.537 100.512 15.8172C100.314 16.0152 100.117 16.2133 99.9193 16.4114C99.3773 16.9552 98.834 17.4977 98.2904 18.0399C97.7043 18.6252 97.1193 19.2116 96.5341 19.7978C95.3879 20.9458 94.2406 22.0928 93.0929 23.2393C92.1604 24.1709 91.2282 25.1029 90.2964 26.0352C90.1638 26.1679 90.0312 26.3005 89.8946 26.4371C89.6254 26.7066 89.3561 26.976 89.0868 27.2454C86.5611 29.7722 84.0342 32.2978 81.5069 34.823C79.3373 36.9907 77.1689 39.1595 75.0012 41.329C72.4848 43.8475 69.9678 46.3654 67.4497 48.8822C67.1814 49.1505 66.913 49.4187 66.6446 49.687C66.4465 49.885 66.4466 49.885 66.2445 50.0869C65.313 51.0181 64.382 51.9496 63.4512 52.8814C62.3173 54.0164 61.1827 55.1507 60.0472 56.2841C59.4676 56.8626 58.8884 57.4414 58.31 58.0211C57.7809 58.5514 57.2509 59.0808 56.7201 59.6094C56.4366 59.8922 56.1542 60.176 55.8718 60.4598C55.7038 60.6268 55.5358 60.7937 55.3627 60.9657C55.1454 61.1829 55.1454 61.1828 54.9238 61.4044C54.1673 62.0669 53.5547 62.2321 52.5562 62.2631C52.259 62.2787 52.259 62.2787 51.9558 62.2945C50.2588 61.9535 48.9373 60.2619 47.762 59.0833C47.5763 58.8986 47.3906 58.714 47.1993 58.5237C46.6943 58.0213 46.1905 57.5177 45.687 57.0137C45.2654 56.5919 44.8432 56.1707 44.421 55.7494C43.4251 54.7557 42.4302 53.7609 41.436 52.7655C40.412 51.7403 39.3862 50.717 38.3594 49.6945C37.4755 48.8142 36.5928 47.9327 35.711 47.0502C35.1854 46.5242 34.6593 45.9987 34.1321 45.4742C33.5448 44.89 32.96 44.3033 32.3755 43.7164C32.2015 43.5439 32.0274 43.3715 31.8482 43.1938C30.8111 42.1476 29.8944 41.2095 29.874 39.6564C29.9078 38.5891 30.2506 37.7963 30.9805 37.016C31.7239 36.4692 32.2624 36.3257 33.1808 36.3245C33.3818 36.3206 33.5827 36.3167 33.7898 36.3127C35.2598 36.553 36.274 37.8285 37.2772 38.8413C37.4402 39.0043 37.6033 39.1673 37.7712 39.3352C38.3077 39.8719 38.8428 40.4101 39.3778 40.9483C39.7504 41.3216 40.123 41.6948 40.4957 42.0679C41.375 42.9484 42.2532 43.8299 43.131 44.7118C44.131 45.7163 45.1321 46.7196 46.1333 47.7228C48.1917 49.7854 50.2487 51.8495 52.3047 53.9145C52.9607 53.6268 53.3951 53.276 53.8994 52.77C54.0551 52.6147 54.2108 52.4594 54.3713 52.2994C54.5411 52.128 54.7109 51.9566 54.8859 51.78C55.0672 51.5985 55.2486 51.417 55.4355 51.2301C55.9392 50.7261 56.4416 50.221 56.9438 49.7156C57.4855 49.1708 58.0285 48.6273 58.5713 48.0835C59.5119 47.1411 60.4518 46.198 61.3912 45.2544C62.7505 43.8892 64.1111 42.5254 65.4722 41.162C67.6817 38.9486 69.8905 36.7346 72.0987 34.52C72.2309 34.3874 72.3631 34.2549 72.4993 34.1183C73.974 32.6392 75.4485 31.16 76.9229 29.6806C77.4575 29.1443 77.992 28.6079 78.5266 28.0715C78.6585 27.9392 78.7904 27.8068 78.9263 27.6704C81.1253 25.464 83.3255 23.2588 85.5266 21.0545C86.8844 19.6946 88.2412 18.3337 89.5967 16.9715C90.5256 16.0382 91.4555 15.1059 92.3863 14.1746C92.9234 13.6371 93.46 13.099 93.9953 12.5597C94.5755 11.9751 95.158 11.3929 95.7408 10.8109C95.9942 10.5544 95.9942 10.5544 96.2527 10.2928C97.6794 8.87476 99.1972 7.79812 101.253 8.64059Z" fill="white"/>
</g>
<defs>
<clipPath id="clip0_605_354">
<rect width="103" height="103" fill="white"/>
</clipPath>
</defs>
</svg>
