<svg width="123" height="39" viewBox="0 0 123 39" fill="none" xmlns="http://www.w3.org/2000/svg">
<mask id="path-1-outside-1_483_1364" maskUnits="userSpaceOnUse" x="-0.300781" y="-0.73999" width="124" height="40" fill="black">
<rect fill="white" x="-0.300781" y="-0.73999" width="124" height="40"/>
<path d="M1.49922 6.26001V2.10001H9.81922V31.26H5.21922V6.26001H1.49922ZM21.6836 25.78L16.8436 36.82H13.8836L16.7236 25.78H21.6836ZM27.588 25.06C30.148 22.8467 32.1613 21.0333 33.628 19.62C35.1213 18.18 36.3613 16.6867 37.348 15.14C38.3346 13.5933 38.828 12.0467 38.828 10.5C38.828 8.90001 38.4413 7.64667 37.668 6.74001C36.9213 5.83334 35.7346 5.38001 34.108 5.38001C32.5346 5.38001 31.308 5.88668 30.428 6.90001C29.5746 7.88668 29.1213 9.22001 29.068 10.9H24.668C24.748 7.86001 25.6546 5.54001 27.388 3.94001C29.148 2.31334 31.3746 1.50001 34.068 1.50001C36.9746 1.50001 39.2413 2.30001 40.868 3.90001C42.5213 5.50001 43.348 7.63334 43.348 10.3C43.348 12.22 42.8546 14.0733 41.868 15.86C40.908 17.62 39.748 19.2067 38.388 20.62C37.0546 22.0067 35.348 23.62 33.268 25.46L31.468 27.06H44.148V30.86H24.708V27.54L27.588 25.06ZM48.1539 16.3C48.1539 11.6867 48.9272 8.08667 50.4739 5.50001C52.0472 2.88667 54.7406 1.58001 58.5539 1.58001C62.3672 1.58001 65.0472 2.88667 66.5939 5.50001C68.1672 8.08667 68.9539 11.6867 68.9539 16.3C68.9539 20.9667 68.1672 24.62 66.5939 27.26C65.0472 29.8733 62.3672 31.18 58.5539 31.18C54.7406 31.18 52.0472 29.8733 50.4739 27.26C48.9272 24.62 48.1539 20.9667 48.1539 16.3ZM64.4739 16.3C64.4739 14.14 64.3272 12.3133 64.0339 10.82C63.7672 9.32668 63.2072 8.11334 62.3539 7.18001C61.5006 6.22001 60.2339 5.74001 58.5539 5.74001C56.8739 5.74001 55.6072 6.22001 54.7539 7.18001C53.9006 8.11334 53.3272 9.32668 53.0339 10.82C52.7672 12.3133 52.6339 14.14 52.6339 16.3C52.6339 18.54 52.7672 20.42 53.0339 21.94C53.3006 23.46 53.8606 24.6867 54.7139 25.62C55.5939 26.5533 56.8739 27.02 58.5539 27.02C60.2339 27.02 61.5006 26.5533 62.3539 25.62C63.2339 24.6867 63.8072 23.46 64.0739 21.94C64.3406 20.42 64.4739 18.54 64.4739 16.3ZM73.7789 16.3C73.7789 11.6867 74.5522 8.08667 76.0989 5.50001C77.6722 2.88667 80.3656 1.58001 84.1789 1.58001C87.9922 1.58001 90.6722 2.88667 92.2189 5.50001C93.7922 8.08667 94.5789 11.6867 94.5789 16.3C94.5789 20.9667 93.7922 24.62 92.2189 27.26C90.6722 29.8733 87.9922 31.18 84.1789 31.18C80.3656 31.18 77.6722 29.8733 76.0989 27.26C74.5522 24.62 73.7789 20.9667 73.7789 16.3ZM90.0989 16.3C90.0989 14.14 89.9522 12.3133 89.6589 10.82C89.3922 9.32668 88.8322 8.11334 87.9789 7.18001C87.1256 6.22001 85.8589 5.74001 84.1789 5.74001C82.4989 5.74001 81.2322 6.22001 80.3789 7.18001C79.5256 8.11334 78.9522 9.32668 78.6589 10.82C78.3922 12.3133 78.2589 14.14 78.2589 16.3C78.2589 18.54 78.3922 20.42 78.6589 21.94C78.9256 23.46 79.4856 24.6867 80.3389 25.62C81.2189 26.5533 82.4989 27.02 84.1789 27.02C85.8589 27.02 87.1256 26.5533 87.9789 25.62C88.8589 24.6867 89.4322 23.46 89.6989 21.94C89.9656 20.42 90.0989 18.54 90.0989 16.3ZM121.484 18.74H113.404V27.02H109.164V18.74H101.084V14.9H109.164V6.62001H113.404V14.9H121.484V18.74Z"/>
</mask>
<path d="M1.49922 6.26001H-0.000781178V7.76001H1.49922V6.26001ZM1.49922 2.10001V0.600008H-0.000781178V2.10001H1.49922ZM9.81922 2.10001H11.3192V0.600008H9.81922V2.10001ZM9.81922 31.26V32.76H11.3192V31.26H9.81922ZM5.21922 31.26H3.71922V32.76H5.21922V31.26ZM5.21922 6.26001H6.71922V4.76001H5.21922V6.26001ZM1.49922 6.26001H2.99922V2.10001H1.49922H-0.000781178V6.26001H1.49922ZM1.49922 2.10001V3.60001H9.81922V2.10001V0.600008H1.49922V2.10001ZM9.81922 2.10001H8.31922V31.26H9.81922H11.3192V2.10001H9.81922ZM9.81922 31.26V29.76H5.21922V31.26V32.76H9.81922V31.26ZM5.21922 31.26H6.71922V6.26001H5.21922H3.71922V31.26H5.21922ZM5.21922 6.26001V4.76001H1.49922V6.26001V7.76001H5.21922V6.26001ZM21.6836 25.78L23.0574 26.3823L23.979 24.28H21.6836V25.78ZM16.8436 36.82V38.32H17.8238L18.2174 37.4223L16.8436 36.82ZM13.8836 36.82L12.4309 36.4463L11.9489 38.32H13.8836V36.82ZM16.7236 25.78V24.28H15.5606L15.2709 25.4063L16.7236 25.78ZM21.6836 25.78L20.3098 25.1777L15.4698 36.2177L16.8436 36.82L18.2174 37.4223L23.0574 26.3823L21.6836 25.78ZM16.8436 36.82V35.32H13.8836V36.82V38.32H16.8436V36.82ZM13.8836 36.82L15.3363 37.1937L18.1763 26.1537L16.7236 25.78L15.2709 25.4063L12.4309 36.4463L13.8836 36.82ZM16.7236 25.78V27.28H21.6836V25.78V24.28H16.7236V25.78ZM27.588 25.06L28.5668 26.1967L28.569 26.1947L27.588 25.06ZM33.628 19.62L34.6688 20.7001L34.6692 20.6998L33.628 19.62ZM37.668 6.74001L36.5101 7.69357L36.5183 7.70357L36.5267 7.71343L37.668 6.74001ZM30.428 6.90001L29.2954 5.91648L29.2934 5.91878L30.428 6.90001ZM29.068 10.9V12.4H30.5211L30.5672 10.9476L29.068 10.9ZM24.668 10.9L23.1685 10.8605L23.128 12.4H24.668V10.9ZM27.388 3.94001L28.4054 5.04221L28.4061 5.04157L27.388 3.94001ZM40.868 3.90001L39.8161 4.96943L39.8248 4.97791L40.868 3.90001ZM41.868 15.86L40.5549 15.1349L40.5511 15.1417L41.868 15.86ZM38.388 20.62L37.3071 19.5799L37.3067 19.5803L38.388 20.62ZM33.268 25.46L32.2741 24.3365L32.2714 24.3389L33.268 25.46ZM31.468 27.06L30.4714 25.9389L27.5227 28.56H31.468V27.06ZM44.148 27.06H45.648V25.56H44.148V27.06ZM44.148 30.86V32.36H45.648V30.86H44.148ZM24.708 30.86H23.208V32.36H24.708V30.86ZM24.708 27.54L23.7292 26.4034L23.208 26.8522V27.54H24.708ZM27.588 25.06L28.569 26.1947C31.138 23.9736 33.1742 22.1403 34.6688 20.7001L33.628 19.62L32.5871 18.5399C31.1484 19.9263 29.1579 21.7198 26.6069 23.9253L27.588 25.06ZM33.628 19.62L34.6692 20.6998C36.2366 19.1883 37.5548 17.6048 38.6126 15.9467L37.348 15.14L36.0834 14.3333C35.1678 15.7685 34.006 17.1717 32.5868 18.5402L33.628 19.62ZM37.348 15.14L38.6126 15.9467C39.7239 14.2046 40.328 12.3821 40.328 10.5H38.828H37.328C37.328 11.7113 36.9453 12.9821 36.0834 14.3333L37.348 15.14ZM38.828 10.5H40.328C40.328 8.66631 39.8831 7.02564 38.8092 5.76659L37.668 6.74001L36.5267 7.71343C36.9995 8.2677 37.328 9.13371 37.328 10.5H38.828ZM37.668 6.74001L38.8259 5.78645C37.6961 4.41458 36.0014 3.88001 34.108 3.88001V5.38001V6.88001C35.4679 6.88001 36.1465 7.25211 36.5101 7.69357L37.668 6.74001ZM34.108 5.38001V3.88001C32.1827 3.88001 30.5103 4.51747 29.2954 5.91648L30.428 6.90001L31.5605 7.88354C32.1056 7.25588 32.8865 6.88001 34.108 6.88001V5.38001ZM30.428 6.90001L29.2934 5.91878C28.157 7.23277 27.6298 8.92924 27.5687 10.8524L29.068 10.9L30.5672 10.9476C30.6128 9.51077 30.9923 8.54058 31.5625 7.88124L30.428 6.90001ZM29.068 10.9V9.40001H24.668V10.9V12.4H29.068V10.9ZM24.668 10.9L26.1674 10.9395C26.24 8.18137 27.0492 6.29407 28.4054 5.04221L27.388 3.94001L26.3705 2.8378C24.2601 4.78594 23.2559 7.53864 23.1685 10.8605L24.668 10.9ZM27.388 3.94001L28.4061 5.04157C29.854 3.70335 31.7016 3.00001 34.068 3.00001V1.50001V9.53674e-06C31.0476 9.53674e-06 28.4419 0.923331 26.3699 2.83844L27.388 3.94001ZM34.068 1.50001V3.00001C36.694 3.00001 38.5413 3.71551 39.8161 4.9694L40.868 3.90001L41.9198 2.83062C39.9413 0.884511 37.2553 9.53674e-06 34.068 9.53674e-06V1.50001ZM40.868 3.90001L39.8248 4.97791C41.1392 6.24992 41.848 7.96941 41.848 10.3H43.348H44.848C44.848 7.29727 43.9034 4.7501 41.9111 2.82211L40.868 3.90001ZM43.348 10.3H41.848C41.848 11.9504 41.4269 13.5558 40.5549 15.1349L41.868 15.86L43.181 16.5851C44.2823 14.5909 44.848 12.4897 44.848 10.3H43.348ZM41.868 15.86L40.5511 15.1417C39.6537 16.7871 38.5724 18.265 37.3071 19.5799L38.388 20.62L39.4688 21.6601C40.9235 20.1483 42.1623 18.453 43.1848 16.5783L41.868 15.86ZM38.388 20.62L37.3067 19.5803C36.0106 20.9283 34.3359 22.5127 32.2741 24.3365L33.268 25.46L34.2618 26.5835C36.3601 24.7274 38.0986 23.0851 39.4692 21.6597L38.388 20.62ZM33.268 25.46L32.2714 24.3389L30.4714 25.9389L31.468 27.06L32.4645 28.1811L34.2645 26.5811L33.268 25.46ZM31.468 27.06V28.56H44.148V27.06V25.56H31.468V27.06ZM44.148 27.06H42.648V30.86H44.148H45.648V27.06H44.148ZM44.148 30.86V29.36H24.708V30.86V32.36H44.148V30.86ZM24.708 30.86H26.208V27.54H24.708H23.208V30.86H24.708ZM24.708 27.54L25.6868 28.6767L28.5668 26.1967L27.588 25.06L26.6092 23.9234L23.7292 26.4034L24.708 27.54ZM50.4739 5.50001L49.1888 4.72633L49.1865 4.73022L50.4739 5.50001ZM66.5939 5.50001L65.303 6.26399L65.3077 6.27178L65.3124 6.27951L66.5939 5.50001ZM66.5939 27.26L65.3054 26.4921L65.303 26.496L66.5939 27.26ZM50.4739 27.26L49.1797 28.0183L49.1842 28.026L49.1888 28.0337L50.4739 27.26ZM64.0339 10.82L62.5573 11.0837L62.5595 11.0964L62.562 11.1091L64.0339 10.82ZM62.3539 7.18001L61.2328 8.17655L61.2398 8.18441L61.2469 8.19216L62.3539 7.18001ZM54.7539 7.18001L55.861 8.19216L55.868 8.18441L55.875 8.17655L54.7539 7.18001ZM53.0339 10.82L51.562 10.5309L51.5595 10.5436L51.5573 10.5563L53.0339 10.82ZM53.0339 21.94L54.5113 21.6808V21.6808L53.0339 21.94ZM54.7139 25.62L53.6069 26.6322L53.6146 26.6407L53.6225 26.649L54.7139 25.62ZM62.3539 25.62L61.2625 24.591L61.2546 24.5994L61.2469 24.6079L62.3539 25.62ZM64.0739 21.94L65.5513 22.1992V22.1992L64.0739 21.94ZM48.1539 16.3H49.6539C49.6539 11.8252 50.4089 8.53162 51.7613 6.2698L50.4739 5.50001L49.1865 4.73022C47.4456 7.64173 46.6539 11.5481 46.6539 16.3H48.1539ZM50.4739 5.50001L51.759 6.27368C52.9908 4.22762 55.1146 3.08001 58.5539 3.08001V1.58001V0.0800076C54.3665 0.0800076 51.1037 1.54573 49.1888 4.72634L50.4739 5.50001ZM58.5539 1.58001V3.08001C61.994 3.08001 64.0977 4.22743 65.303 6.26399L66.5939 5.50001L67.8848 4.73603C65.9967 1.54592 62.7404 0.0800076 58.5539 0.0800076V1.58001ZM66.5939 5.50001L65.3124 6.27951C66.6866 8.53892 67.4539 11.8285 67.4539 16.3H68.9539H70.4539C70.4539 11.5448 69.6478 7.63443 67.8755 4.72051L66.5939 5.50001ZM68.9539 16.3H67.4539C67.4539 20.8258 66.6864 24.1748 65.3054 26.4921L66.5939 27.26L67.8824 28.0279C69.6481 25.0652 70.4539 21.1075 70.4539 16.3H68.9539ZM66.5939 27.26L65.303 26.496C64.0977 28.5326 61.994 29.68 58.5539 29.68V31.18V32.68C62.7404 32.68 65.9967 31.2141 67.8848 28.024L66.5939 27.26ZM58.5539 31.18V29.68C55.1146 29.68 52.9908 28.5324 51.759 26.4863L50.4739 27.26L49.1888 28.0337C51.1037 31.2143 54.3665 32.68 58.5539 32.68V31.18ZM50.4739 27.26L51.7682 26.5018C50.4091 24.182 49.6539 20.829 49.6539 16.3H48.1539H46.6539C46.6539 21.1043 47.4454 25.058 49.1797 28.0183L50.4739 27.26ZM64.4739 16.3H65.9739C65.9739 14.0798 65.8238 12.1498 65.5058 10.5309L64.0339 10.82L62.562 11.1091C62.8307 12.4769 62.9739 14.2003 62.9739 16.3H64.4739ZM64.0339 10.82L65.5106 10.5563C65.204 8.83984 64.5411 7.34922 63.4609 6.16785L62.3539 7.18001L61.2469 8.19216C61.8734 8.87746 62.3304 9.81351 62.5573 11.0837L64.0339 10.82ZM62.3539 7.18001L63.475 6.18346C62.2557 4.81175 60.5225 4.24001 58.5539 4.24001V5.74001V7.24001C59.9453 7.24001 60.7454 7.62827 61.2328 8.17655L62.3539 7.18001ZM58.5539 5.74001V4.24001C56.5853 4.24001 54.8521 4.81175 53.6328 6.18346L54.7539 7.18001L55.875 8.17655C56.3624 7.62827 57.1625 7.24001 58.5539 7.24001V5.74001ZM54.7539 7.18001L53.6469 6.16785C52.5733 7.34202 51.8975 8.82282 51.562 10.5309L53.0339 10.82L54.5058 11.1091C54.7569 9.83053 55.2278 8.88466 55.861 8.19216L54.7539 7.18001ZM53.0339 10.82L51.5573 10.5563C51.2701 12.1646 51.1339 14.0854 51.1339 16.3H52.6339H54.1339C54.1339 14.1946 54.2644 12.4621 54.5105 11.0837L53.0339 10.82ZM52.6339 16.3H51.1339C51.1339 18.5918 51.2697 20.5648 51.5565 22.1992L53.0339 21.94L54.5113 21.6808C54.2647 20.2752 54.1339 18.4883 54.1339 16.3H52.6339ZM53.0339 21.94L51.5565 22.1992C51.8615 23.9381 52.5223 25.446 53.6069 26.6322L54.7139 25.62L55.8209 24.6079C55.1988 23.9274 54.7396 22.9819 54.5113 21.6808L53.0339 21.94ZM54.7139 25.62L53.6225 26.649C54.8665 27.9684 56.595 28.52 58.5539 28.52V27.02V25.52C57.1528 25.52 56.3213 25.1383 55.8053 24.591L54.7139 25.62ZM58.5539 27.02V28.52C60.5099 28.52 62.2384 27.9693 63.4609 26.6322L62.3539 25.62L61.2469 24.6079C60.7627 25.1374 59.9579 25.52 58.5539 25.52V27.02ZM62.3539 25.62L63.4453 26.649C64.5642 25.4623 65.2444 23.9486 65.5513 22.1992L64.0739 21.94L62.5965 21.6808C62.3701 22.9714 61.9036 23.911 61.2625 24.591L62.3539 25.62ZM64.0739 21.94L65.5513 22.1992C65.8381 20.5648 65.9739 18.5918 65.9739 16.3H64.4739H62.9739C62.9739 18.4883 62.8431 20.2752 62.5965 21.6808L64.0739 21.94ZM76.0989 5.50001L74.8138 4.72633L74.8115 4.73022L76.0989 5.50001ZM92.2189 5.50001L90.928 6.26399L90.9327 6.27178L90.9374 6.27951L92.2189 5.50001ZM92.2189 27.26L90.9304 26.4921L90.928 26.496L92.2189 27.26ZM76.0989 27.26L74.8047 28.0183L74.8092 28.026L74.8138 28.0337L76.0989 27.26ZM89.6589 10.82L88.1823 11.0837L88.1845 11.0964L88.187 11.1091L89.6589 10.82ZM87.9789 7.18001L86.8578 8.17655L86.8648 8.18441L86.8719 8.19216L87.9789 7.18001ZM80.3789 7.18001L81.4859 8.19216L81.493 8.18441L81.5 8.17655L80.3789 7.18001ZM78.6589 10.82L77.187 10.5309L77.1845 10.5436L77.1823 10.5563L78.6589 10.82ZM78.6589 21.94L80.1363 21.6808V21.6808L78.6589 21.94ZM80.3389 25.62L79.2319 26.6322L79.2396 26.6407L79.2475 26.649L80.3389 25.62ZM87.9789 25.62L86.8875 24.591L86.8796 24.5994L86.8719 24.6079L87.9789 25.62ZM89.6989 21.94L91.1763 22.1992V22.1992L89.6989 21.94ZM73.7789 16.3H75.2789C75.2789 11.8252 76.0339 8.53162 77.3863 6.2698L76.0989 5.50001L74.8115 4.73022C73.0706 7.64173 72.2789 11.5481 72.2789 16.3H73.7789ZM76.0989 5.50001L77.384 6.27368C78.6158 4.22762 80.7396 3.08001 84.1789 3.08001V1.58001V0.0800076C79.9915 0.0800076 76.7287 1.54573 74.8138 4.72634L76.0989 5.50001ZM84.1789 1.58001V3.08001C87.619 3.08001 89.7227 4.22743 90.928 6.26399L92.2189 5.50001L93.5098 4.73603C91.6217 1.54592 88.3654 0.0800076 84.1789 0.0800076V1.58001ZM92.2189 5.50001L90.9374 6.27951C92.3116 8.53892 93.0789 11.8285 93.0789 16.3H94.5789H96.0789C96.0789 11.5448 95.2728 7.63443 93.5005 4.72051L92.2189 5.50001ZM94.5789 16.3H93.0789C93.0789 20.8258 92.3114 24.1748 90.9304 26.4921L92.2189 27.26L93.5074 28.0279C95.2731 25.0652 96.0789 21.1075 96.0789 16.3H94.5789ZM92.2189 27.26L90.928 26.496C89.7227 28.5326 87.619 29.68 84.1789 29.68V31.18V32.68C88.3654 32.68 91.6217 31.2141 93.5098 28.024L92.2189 27.26ZM84.1789 31.18V29.68C80.7396 29.68 78.6158 28.5324 77.384 26.4863L76.0989 27.26L74.8138 28.0337C76.7287 31.2143 79.9915 32.68 84.1789 32.68V31.18ZM76.0989 27.26L77.3932 26.5018C76.0341 24.182 75.2789 20.829 75.2789 16.3H73.7789H72.2789C72.2789 21.1043 73.0704 25.058 74.8047 28.0183L76.0989 27.26ZM90.0989 16.3H91.5989C91.5989 14.0798 91.4488 12.1498 91.1308 10.5309L89.6589 10.82L88.187 11.1091C88.4557 12.4769 88.5989 14.2003 88.5989 16.3H90.0989ZM89.6589 10.82L91.1356 10.5563C90.829 8.83984 90.1661 7.34922 89.086 6.16785L87.9789 7.18001L86.8719 8.19216C87.4984 8.87746 87.9554 9.81351 88.1823 11.0837L89.6589 10.82ZM87.9789 7.18001L89.1 6.18346C87.8807 4.81175 86.1475 4.24001 84.1789 4.24001V5.74001V7.24001C85.5703 7.24001 86.3704 7.62827 86.8578 8.17655L87.9789 7.18001ZM84.1789 5.74001V4.24001C82.2103 4.24001 80.4771 4.81175 79.2578 6.18346L80.3789 7.18001L81.5 8.17655C81.9874 7.62827 82.7875 7.24001 84.1789 7.24001V5.74001ZM80.3789 7.18001L79.2719 6.16785C78.1983 7.34202 77.5225 8.82282 77.187 10.5309L78.6589 10.82L80.1308 11.1091C80.3819 9.83053 80.8528 8.88466 81.4859 8.19216L80.3789 7.18001ZM78.6589 10.82L77.1823 10.5563C76.8951 12.1646 76.7589 14.0854 76.7589 16.3H78.2589H79.7589C79.7589 14.1946 79.8894 12.4621 80.1356 11.0837L78.6589 10.82ZM78.2589 16.3H76.7589C76.7589 18.5918 76.8947 20.5648 77.1815 22.1992L78.6589 21.94L80.1363 21.6808C79.8897 20.2752 79.7589 18.4883 79.7589 16.3H78.2589ZM78.6589 21.94L77.1815 22.1992C77.4865 23.9381 78.1473 25.446 79.2319 26.6322L80.3389 25.62L81.446 24.6079C80.8238 23.9274 80.3646 22.9819 80.1363 21.6808L78.6589 21.94ZM80.3389 25.62L79.2475 26.649C80.4915 27.9684 82.22 28.52 84.1789 28.52V27.02V25.52C82.7778 25.52 81.9463 25.1383 81.4303 24.591L80.3389 25.62ZM84.1789 27.02V28.52C86.1349 28.52 87.8634 27.9693 89.086 26.6322L87.9789 25.62L86.8719 24.6079C86.3877 25.1374 85.5829 25.52 84.1789 25.52V27.02ZM87.9789 25.62L89.0703 26.649C90.1892 25.4623 90.8694 23.9486 91.1763 22.1992L89.6989 21.94L88.2215 21.6808C87.9951 22.9714 87.5286 23.911 86.8875 24.591L87.9789 25.62ZM89.6989 21.94L91.1763 22.1992C91.4631 20.5648 91.5989 18.5918 91.5989 16.3H90.0989H88.5989C88.5989 18.4883 88.4681 20.2752 88.2215 21.6808L89.6989 21.94ZM121.484 18.74V20.24H122.984V18.74H121.484ZM113.404 18.74V17.24H111.904V18.74H113.404ZM113.404 27.02V28.52H114.904V27.02H113.404ZM109.164 27.02H107.664V28.52H109.164V27.02ZM109.164 18.74H110.664V17.24H109.164V18.74ZM101.084 18.74H99.5839V20.24H101.084V18.74ZM101.084 14.9V13.4H99.5839V14.9H101.084ZM109.164 14.9V16.4H110.664V14.9H109.164ZM109.164 6.62001V5.12001H107.664V6.62001H109.164ZM113.404 6.62001H114.904V5.12001H113.404V6.62001ZM113.404 14.9H111.904V16.4H113.404V14.9ZM121.484 14.9H122.984V13.4H121.484V14.9ZM121.484 18.74V17.24H113.404V18.74V20.24H121.484V18.74ZM113.404 18.74H111.904V27.02H113.404H114.904V18.74H113.404ZM113.404 27.02V25.52H109.164V27.02V28.52H113.404V27.02ZM109.164 27.02H110.664V18.74H109.164H107.664V27.02H109.164ZM109.164 18.74V17.24H101.084V18.74V20.24H109.164V18.74ZM101.084 18.74H102.584V14.9H101.084H99.5839V18.74H101.084ZM101.084 14.9V16.4H109.164V14.9V13.4H101.084V14.9ZM109.164 14.9H110.664V6.62001H109.164H107.664V14.9H109.164ZM109.164 6.62001V8.12001H113.404V6.62001V5.12001H109.164V6.62001ZM113.404 6.62001H111.904V14.9H113.404H114.904V6.62001H113.404ZM113.404 14.9V16.4H121.484V14.9V13.4H113.404V14.9ZM121.484 14.9H119.984V18.74H121.484H122.984V14.9H121.484Z" fill="white" mask="url(#path-1-outside-1_483_1364)"/>
</svg>
