<svg width="107" height="34" viewBox="0 0 107 34" fill="none" xmlns="http://www.w3.org/2000/svg">
<mask id="path-1-outside-1_483_1359" maskUnits="userSpaceOnUse" x="-0.345703" y="-0.659912" width="107" height="35" fill="black">
<rect fill="white" x="-0.345703" y="-0.659912" width="107" height="35"/>
<path d="M1.9743 9.38009C2.1343 6.90009 3.08096 4.96675 4.8143 3.58009C6.5743 2.19342 8.8143 1.50009 11.5343 1.50009C13.401 1.50009 15.0143 1.83342 16.3743 2.50009C17.7343 3.16675 18.761 4.07342 19.4543 5.22009C20.1476 6.36675 20.4943 7.66009 20.4943 9.10009C20.4943 10.7534 20.0543 12.1668 19.1743 13.3401C18.2943 14.5134 17.241 15.3001 16.0143 15.7001V15.8601C17.5876 16.3401 18.8143 17.2201 19.6943 18.5001C20.5743 19.7534 21.0143 21.3668 21.0143 23.3401C21.0143 24.9134 20.6543 26.3134 19.9343 27.5401C19.2143 28.7668 18.1476 29.7401 16.7343 30.4601C15.321 31.1534 13.6276 31.5001 11.6543 31.5001C8.7743 31.5001 6.40096 30.7668 4.5343 29.3001C2.6943 27.8068 1.70763 25.6734 1.5743 22.9001H5.9743C6.08096 24.3134 6.62763 25.4734 7.6143 26.3801C8.60096 27.2601 9.9343 27.7001 11.6143 27.7001C13.241 27.7001 14.4943 27.2601 15.3743 26.3801C16.2543 25.4734 16.6943 24.3134 16.6943 22.9001C16.6943 21.0334 16.0943 19.7134 14.8943 18.9401C13.721 18.1401 11.9076 17.7401 9.4543 17.7401H8.4143V13.9801H9.4943C11.6543 13.9534 13.2943 13.5934 14.4143 12.9001C15.561 12.2068 16.1343 11.1134 16.1343 9.62009C16.1343 8.34009 15.721 7.32675 14.8943 6.58009C14.0676 5.80675 12.8943 5.42009 11.3743 5.42009C9.88096 5.42009 8.72096 5.80675 7.8943 6.58009C7.06763 7.32675 6.5743 8.26009 6.4143 9.38009H1.9743ZM25.8043 16.3801C25.8043 11.7668 26.5776 8.16675 28.1243 5.58009C29.6976 2.96675 32.391 1.66009 36.2043 1.66009C40.0176 1.66009 42.6976 2.96675 44.2443 5.58009C45.8176 8.16675 46.6043 11.7668 46.6043 16.3801C46.6043 21.0468 45.8176 24.7001 44.2443 27.3401C42.6976 29.9534 40.0176 31.2601 36.2043 31.2601C32.391 31.2601 29.6976 29.9534 28.1243 27.3401C26.5776 24.7001 25.8043 21.0468 25.8043 16.3801ZM42.1243 16.3801C42.1243 14.2201 41.9776 12.3934 41.6843 10.9001C41.4176 9.40675 40.8576 8.19342 40.0043 7.26009C39.151 6.30009 37.8843 5.82009 36.2043 5.82009C34.5243 5.82009 33.2576 6.30009 32.4043 7.26009C31.551 8.19342 30.9776 9.40675 30.6843 10.9001C30.4176 12.3934 30.2843 14.2201 30.2843 16.3801C30.2843 18.6201 30.4176 20.5001 30.6843 22.0201C30.951 23.5401 31.511 24.7668 32.3643 25.7001C33.2443 26.6334 34.5243 27.1001 36.2043 27.1001C37.8843 27.1001 39.151 26.6334 40.0043 25.7001C40.8843 24.7668 41.4576 23.5401 41.7243 22.0201C41.991 20.5001 42.1243 18.6201 42.1243 16.3801ZM51.4293 16.3801C51.4293 11.7668 52.2026 8.16675 53.7493 5.58009C55.3226 2.96675 58.016 1.66009 61.8293 1.66009C65.6426 1.66009 68.3226 2.96675 69.8693 5.58009C71.4426 8.16675 72.2293 11.7668 72.2293 16.3801C72.2293 21.0468 71.4426 24.7001 69.8693 27.3401C68.3226 29.9534 65.6426 31.2601 61.8293 31.2601C58.016 31.2601 55.3226 29.9534 53.7493 27.3401C52.2026 24.7001 51.4293 21.0468 51.4293 16.3801ZM67.7493 16.3801C67.7493 14.2201 67.6026 12.3934 67.3093 10.9001C67.0426 9.40675 66.4826 8.19342 65.6293 7.26009C64.776 6.30009 63.5093 5.82009 61.8293 5.82009C60.1493 5.82009 58.8826 6.30009 58.0293 7.26009C57.176 8.19342 56.6026 9.40675 56.3093 10.9001C56.0426 12.3934 55.9093 14.2201 55.9093 16.3801C55.9093 18.6201 56.0426 20.5001 56.3093 22.0201C56.576 23.5401 57.136 24.7668 57.9893 25.7001C58.8693 26.6334 60.1493 27.1001 61.8293 27.1001C63.5093 27.1001 64.776 26.6334 65.6293 25.7001C66.5093 24.7668 67.0826 23.5401 67.3493 22.0201C67.616 20.5001 67.7493 18.6201 67.7493 16.3801ZM76.3343 9.22009C76.3343 7.27342 76.8943 5.75342 78.0143 4.66009C79.161 3.54009 80.6276 2.98009 82.4143 2.98009C84.201 2.98009 85.6543 3.54009 86.7743 4.66009C87.921 5.75342 88.4943 7.27342 88.4943 9.22009C88.4943 11.1668 87.921 12.7001 86.7743 13.8201C85.6543 14.9401 84.201 15.5001 82.4143 15.5001C80.6276 15.5001 79.161 14.9401 78.0143 13.8201C76.8943 12.7001 76.3343 11.1668 76.3343 9.22009ZM100.734 3.50009L84.7743 31.3401H80.2943L96.2543 3.50009H100.734ZM82.4143 5.74009C80.7343 5.74009 79.8943 6.90009 79.8943 9.22009C79.8943 11.5668 80.7343 12.7401 82.4143 12.7401C83.2143 12.7401 83.8276 12.4601 84.2543 11.9001C84.7076 11.3134 84.9343 10.4201 84.9343 9.22009C84.9343 6.90009 84.0943 5.74009 82.4143 5.74009ZM92.6143 25.5801C92.6143 23.6334 93.1743 22.1134 94.2943 21.0201C95.441 19.9001 96.9076 19.3401 98.6943 19.3401C100.454 19.3401 101.894 19.9001 103.014 21.0201C104.161 22.1134 104.734 23.6334 104.734 25.5801C104.734 27.5268 104.161 29.0601 103.014 30.1801C101.894 31.3001 100.454 31.8601 98.6943 31.8601C96.9076 31.8601 95.441 31.3001 94.2943 30.1801C93.1743 29.0601 92.6143 27.5268 92.6143 25.5801ZM98.6543 22.1001C96.9743 22.1001 96.1343 23.2601 96.1343 25.5801C96.1343 27.9001 96.9743 29.0601 98.6543 29.0601C100.334 29.0601 101.174 27.9001 101.174 25.5801C101.174 23.2601 100.334 22.1001 98.6543 22.1001Z"/>
</mask>
<path d="M1.9743 9.38009L0.477409 9.28351L0.374404 10.8801H1.9743V9.38009ZM4.8143 3.58009L3.88596 2.40182L3.87725 2.40878L4.8143 3.58009ZM16.3743 2.50009L15.7141 3.84697V3.84697L16.3743 2.50009ZM19.4543 5.22009L20.7379 4.44396V4.44396L19.4543 5.22009ZM19.1743 13.3401L20.3743 14.2401V14.2401L19.1743 13.3401ZM16.0143 15.7001L15.5493 14.274L14.5143 14.6115V15.7001H16.0143ZM16.0143 15.8601H14.5143V16.9707L15.5766 17.2948L16.0143 15.8601ZM19.6943 18.5001L18.4582 19.3499L18.4624 19.356L18.4667 19.362L19.6943 18.5001ZM19.9343 27.5401L18.6407 26.7808V26.7808L19.9343 27.5401ZM16.7343 30.4601L17.3949 31.8068L17.4051 31.8018L17.4152 31.7966L16.7343 30.4601ZM4.5343 29.3001L3.58904 30.4648L3.59825 30.4722L3.60756 30.4796L4.5343 29.3001ZM1.5743 22.9001V21.4001H0.000448912L0.0760274 22.9721L1.5743 22.9001ZM5.9743 22.9001L7.47004 22.7872L7.36536 21.4001H5.9743V22.9001ZM7.6143 26.3801L6.59936 27.4846L6.60756 27.4921L6.61588 27.4995L7.6143 26.3801ZM15.3743 26.3801L16.435 27.4407L16.4429 27.4328L16.4507 27.4248L15.3743 26.3801ZM14.8943 18.9401L14.0493 20.1794L14.0654 20.1904L14.0817 20.2009L14.8943 18.9401ZM8.4143 17.7401H6.9143V19.2401H8.4143V17.7401ZM8.4143 13.9801V12.4801H6.9143V13.9801H8.4143ZM9.4943 13.9801V15.4801H9.50356L9.51281 15.48L9.4943 13.9801ZM14.4143 12.9001L13.6382 11.6165L13.6314 11.6206L13.6248 11.6247L14.4143 12.9001ZM14.8943 6.58009L13.8696 7.6755L13.8791 7.68445L13.8889 7.69324L14.8943 6.58009ZM7.8943 6.58009L8.89973 7.69324L8.90946 7.68445L8.91903 7.6755L7.8943 6.58009ZM6.4143 9.38009V10.8801H7.71524L7.89922 9.59222L6.4143 9.38009ZM1.9743 9.38009L3.47118 9.47666C3.60763 7.36184 4.38878 5.84144 5.75134 4.75139L4.8143 3.58009L3.87725 2.40878C1.77315 4.09207 0.660969 6.43834 0.477409 9.28351L1.9743 9.38009ZM4.8143 3.58009L5.74261 4.75832C7.18509 3.62182 9.0768 3.00009 11.5343 3.00009V1.50009V8.58307e-05C8.5518 8.58307e-05 5.9635 0.765022 3.88599 2.40185L4.8143 3.58009ZM11.5343 1.50009V3.00009C13.2242 3.00009 14.6018 3.30172 15.7141 3.84697L16.3743 2.50009L17.0345 1.15321C15.4268 0.365117 13.5777 8.58307e-05 11.5343 8.58307e-05V1.50009ZM16.3743 2.50009L15.7141 3.84697C16.8505 4.40405 17.6449 5.12667 18.1707 5.99622L19.4543 5.22009L20.7379 4.44396C19.877 3.02017 18.6181 1.92946 17.0345 1.15321L16.3743 2.50009ZM19.4543 5.22009L18.1707 5.99621C18.7119 6.89125 18.9943 7.91249 18.9943 9.10009H20.4943H21.9943C21.9943 7.40768 21.5834 5.84226 20.7379 4.44396L19.4543 5.22009ZM20.4943 9.10009H18.9943C18.9943 10.4722 18.6351 11.559 17.9743 12.4401L19.1743 13.3401L20.3743 14.2401C21.4735 12.7745 21.9943 11.0347 21.9943 9.10009H20.4943ZM19.1743 13.3401L17.9743 12.4401C17.2531 13.4017 16.4437 13.9823 15.5493 14.274L16.0143 15.7001L16.4793 17.1262C18.0383 16.6178 19.3355 15.6252 20.3743 14.2401L19.1743 13.3401ZM16.0143 15.7001H14.5143V15.8601H16.0143H17.5143V15.7001H16.0143ZM16.0143 15.8601L15.5766 17.2948C16.8459 17.682 17.7824 18.3668 18.4582 19.3499L19.6943 18.5001L20.9304 17.6503C19.8462 16.0734 18.3294 14.9981 16.452 14.4254L16.0143 15.8601ZM19.6943 18.5001L18.4667 19.362C19.1244 20.2989 19.5143 21.5865 19.5143 23.3401H21.0143H22.5143C22.5143 21.147 22.0241 19.208 20.9219 17.6381L19.6943 18.5001ZM21.0143 23.3401H19.5143C19.5143 24.6756 19.2115 25.8082 18.6407 26.7808L19.9343 27.5401L21.2279 28.2994C22.0971 26.8186 22.5143 25.1513 22.5143 23.3401H21.0143ZM19.9343 27.5401L18.6407 26.7808C18.082 27.7327 17.2419 28.5181 16.0534 29.1235L16.7343 30.4601L17.4152 31.7966C19.0533 30.9621 20.3466 29.8008 21.2279 28.2994L19.9343 27.5401ZM16.7343 30.4601L16.0737 29.1134C14.9113 29.6836 13.4552 30.0001 11.6543 30.0001V31.5001V33.0001C13.8001 33.0001 15.7306 32.6232 17.3949 31.8068L16.7343 30.4601ZM11.6543 31.5001V30.0001C9.03654 30.0001 7.01068 29.3382 5.46103 28.1206L4.5343 29.3001L3.60756 30.4796C5.79125 32.1953 8.51206 33.0001 11.6543 33.0001V31.5001ZM4.5343 29.3001L5.47955 28.1354C4.02866 26.9579 3.18927 25.2554 3.07257 22.8281L1.5743 22.9001L0.0760274 22.9721C0.225993 26.0914 1.35993 28.6556 3.58904 30.4648L4.5343 29.3001ZM1.5743 22.9001V24.4001H5.9743V22.9001V21.4001H1.5743V22.9001ZM5.9743 22.9001L4.47855 23.013C4.61205 24.7818 5.31511 26.3045 6.59936 27.4846L7.6143 26.3801L8.62924 25.2756C7.94015 24.6424 7.54988 23.8451 7.47004 22.7872L5.9743 22.9001ZM7.6143 26.3801L6.61588 27.4995C7.94555 28.6855 9.66901 29.2001 11.6143 29.2001V27.7001V26.2001C10.1996 26.2001 9.25638 25.8347 8.61272 25.2606L7.6143 26.3801ZM11.6143 27.7001V29.2001C13.5117 29.2001 15.195 28.6807 16.435 27.4407L15.3743 26.3801L14.3136 25.3194C13.7936 25.8395 12.9702 26.2001 11.6143 26.2001V27.7001ZM15.3743 26.3801L16.4507 27.4248C17.6355 26.2041 18.1943 24.6532 18.1943 22.9001H16.6943H15.1943C15.1943 23.9737 14.8731 24.7428 14.2979 25.3354L15.3743 26.3801ZM16.6943 22.9001H18.1943C18.1943 20.6997 17.4649 18.8122 15.7068 17.6792L14.8943 18.9401L14.0817 20.2009C14.7237 20.6146 15.1943 21.3671 15.1943 22.9001H16.6943ZM14.8943 18.9401L15.7393 17.7007C14.194 16.6471 12.0146 16.2401 9.4543 16.2401V17.7401V19.2401C11.8007 19.2401 13.248 19.6331 14.0493 20.1794L14.8943 18.9401ZM9.4543 17.7401V16.2401H8.4143V17.7401V19.2401H9.4543V17.7401ZM8.4143 17.7401H9.9143V13.9801H8.4143H6.9143V17.7401H8.4143ZM8.4143 13.9801V15.4801H9.4943V13.9801V12.4801H8.4143V13.9801ZM9.4943 13.9801L9.51281 15.48C11.7891 15.4519 13.7478 15.0769 15.2038 14.1755L14.4143 12.9001L13.6248 11.6247C12.8408 12.11 11.5195 12.455 9.47578 12.4802L9.4943 13.9801ZM14.4143 12.9001L15.1904 14.1837C16.8447 13.1834 17.6343 11.5665 17.6343 9.62009H16.1343H14.6343C14.6343 10.6603 14.2772 11.2301 13.6382 11.6165L14.4143 12.9001ZM16.1343 9.62009H17.6343C17.6343 7.98553 17.0896 6.54162 15.8997 5.46693L14.8943 6.58009L13.8889 7.69324C14.3524 8.11189 14.6343 8.69464 14.6343 9.62009H16.1343ZM14.8943 6.58009L15.919 5.48468C14.7305 4.37286 13.1418 3.92009 11.3743 3.92009V5.42009V6.92009C12.6468 6.92009 13.4047 7.24065 13.8696 7.6755L14.8943 6.58009ZM11.3743 5.42009V3.92009C9.62513 3.92009 8.05347 4.37716 6.86956 5.48468L7.8943 6.58009L8.91903 7.6755C9.38846 7.23635 10.1368 6.92009 11.3743 6.92009V5.42009ZM7.8943 6.58009L6.88887 5.46693C5.79755 6.45264 5.13812 7.70673 4.92937 9.16796L6.4143 9.38009L7.89922 9.59222C8.01048 8.81344 8.33771 8.20086 8.89973 7.69324L7.8943 6.58009ZM6.4143 9.38009V7.88009H1.9743V9.38009V10.8801H6.4143V9.38009ZM28.1243 5.58009L26.8392 4.80641L26.8369 4.8103L28.1243 5.58009ZM44.2443 5.58009L42.9534 6.34407L42.958 6.35185L42.9627 6.35959L44.2443 5.58009ZM44.2443 27.3401L42.9558 26.5722L42.9534 26.5761L44.2443 27.3401ZM28.1243 27.3401L26.8301 28.0983L26.8346 28.1061L26.8392 28.1138L28.1243 27.3401ZM41.6843 10.9001L40.2077 11.1638L40.2099 11.1765L40.2124 11.1892L41.6843 10.9001ZM40.0043 7.26009L38.8832 8.25663L38.8902 8.26448L38.8973 8.27224L40.0043 7.26009ZM32.4043 7.26009L33.5113 8.27224L33.5184 8.26448L33.5254 8.25663L32.4043 7.26009ZM30.6843 10.9001L29.2124 10.611L29.2099 10.6237L29.2077 10.6364L30.6843 10.9001ZM30.6843 22.0201L32.1617 21.7609V21.7609L30.6843 22.0201ZM32.3643 25.7001L31.2573 26.7122L31.265 26.7207L31.2729 26.7291L32.3643 25.7001ZM40.0043 25.7001L38.9129 24.6711L38.905 24.6794L38.8973 24.6879L40.0043 25.7001ZM41.7243 22.0201L43.2017 22.2793V22.2793L41.7243 22.0201ZM25.8043 16.3801H27.3043C27.3043 11.9053 28.0593 8.61169 29.4117 6.34988L28.1243 5.58009L26.8369 4.8103C25.096 7.72181 24.3043 11.6282 24.3043 16.3801H25.8043ZM28.1243 5.58009L29.4094 6.35376C30.6412 4.30769 32.765 3.16009 36.2043 3.16009V1.66009V0.160086C32.0169 0.160086 28.7541 1.62581 26.8392 4.80641L28.1243 5.58009ZM36.2043 1.66009V3.16009C39.6444 3.16009 41.7481 4.30751 42.9534 6.34407L44.2443 5.58009L45.5352 4.8161C43.6471 1.626 40.3908 0.160086 36.2043 0.160086V1.66009ZM44.2443 5.58009L42.9627 6.35959C44.337 8.619 45.1043 11.9086 45.1043 16.3801H46.6043H48.1043C48.1043 11.6249 47.2982 7.71451 45.5259 4.80058L44.2443 5.58009ZM46.6043 16.3801H45.1043C45.1043 20.9059 44.3368 24.2549 42.9558 26.5722L44.2443 27.3401L45.5328 28.108C47.2985 25.1453 48.1043 21.1876 48.1043 16.3801H46.6043ZM44.2443 27.3401L42.9534 26.5761C41.7481 28.6127 39.6444 29.7601 36.2043 29.7601V31.2601V32.7601C40.3908 32.7601 43.6471 31.2942 45.5352 28.1041L44.2443 27.3401ZM36.2043 31.2601V29.7601C32.765 29.7601 30.6412 28.6125 29.4094 26.5664L28.1243 27.3401L26.8392 28.1138C28.7541 31.2944 32.0169 32.7601 36.2043 32.7601V31.2601ZM28.1243 27.3401L29.4185 26.5818C28.0595 24.2621 27.3043 20.9091 27.3043 16.3801H25.8043H24.3043C24.3043 21.1844 25.0958 25.1381 26.8301 28.0983L28.1243 27.3401ZM42.1243 16.3801H43.6243C43.6243 14.1598 43.4742 12.2299 43.1562 10.611L41.6843 10.9001L40.2124 11.1892C40.4811 12.5569 40.6243 14.2803 40.6243 16.3801H42.1243ZM41.6843 10.9001L43.1609 10.6364C42.8544 8.91992 42.1914 7.4293 41.1113 6.24793L40.0043 7.26009L38.8973 8.27224C39.5238 8.95754 39.9808 9.89358 40.2077 11.1638L41.6843 10.9001ZM40.0043 7.26009L41.1254 6.26354C39.9061 4.89183 38.1729 4.32009 36.2043 4.32009V5.82009V7.32009C37.5957 7.32009 38.3958 7.70835 38.8832 8.25663L40.0043 7.26009ZM36.2043 5.82009V4.32009C34.2357 4.32009 32.5025 4.89183 31.2832 6.26354L32.4043 7.26009L33.5254 8.25663C34.0128 7.70835 34.8129 7.32009 36.2043 7.32009V5.82009ZM32.4043 7.26009L31.2973 6.24793C30.2237 7.4221 29.5479 8.9029 29.2124 10.611L30.6843 10.9001L32.1562 11.1892C32.4073 9.91061 32.8782 8.96474 33.5113 8.27224L32.4043 7.26009ZM30.6843 10.9001L29.2077 10.6364C28.9205 12.2447 28.7843 14.1655 28.7843 16.3801H30.2843H31.7843C31.7843 14.2747 31.9148 12.5421 32.1609 11.1638L30.6843 10.9001ZM30.2843 16.3801H28.7843C28.7843 18.6718 28.9201 20.6449 29.2069 22.2793L30.6843 22.0201L32.1617 21.7609C31.9151 20.3553 31.7843 18.5683 31.7843 16.3801H30.2843ZM30.6843 22.0201L29.2069 22.2793C29.5119 24.0182 30.1727 25.5261 31.2573 26.7122L32.3643 25.7001L33.4713 24.6879C32.8492 24.0075 32.39 23.062 32.1617 21.7609L30.6843 22.0201ZM32.3643 25.7001L31.2729 26.7291C32.5169 28.0484 34.2454 28.6001 36.2043 28.6001V27.1001V25.6001C34.8032 25.6001 33.9717 25.2184 33.4557 24.6711L32.3643 25.7001ZM36.2043 27.1001V28.6001C38.1603 28.6001 39.8888 28.0494 41.1113 26.7122L40.0043 25.7001L38.8973 24.6879C38.4131 25.2174 37.6083 25.6001 36.2043 25.6001V27.1001ZM40.0043 25.7001L41.0957 26.7291C42.2146 25.5424 42.8948 24.0287 43.2017 22.2793L41.7243 22.0201L40.2469 21.7609C40.0204 23.0515 39.554 23.9911 38.9129 24.6711L40.0043 25.7001ZM41.7243 22.0201L43.2017 22.2793C43.4885 20.6449 43.6243 18.6718 43.6243 16.3801H42.1243H40.6243C40.6243 18.5683 40.4935 20.3553 40.2469 21.7609L41.7243 22.0201ZM53.7493 5.58009L52.4642 4.80641L52.4619 4.8103L53.7493 5.58009ZM69.8693 5.58009L68.5784 6.34407L68.583 6.35185L68.5877 6.35959L69.8693 5.58009ZM69.8693 27.3401L68.5808 26.5722L68.5784 26.5761L69.8693 27.3401ZM53.7493 27.3401L52.4551 28.0983L52.4596 28.1061L52.4642 28.1138L53.7493 27.3401ZM67.3093 10.9001L65.8327 11.1638L65.8349 11.1765L65.8374 11.1892L67.3093 10.9001ZM65.6293 7.26009L64.5082 8.25663L64.5152 8.26448L64.5223 8.27224L65.6293 7.26009ZM58.0293 7.26009L59.1363 8.27224L59.1434 8.26448L59.1504 8.25663L58.0293 7.26009ZM56.3093 10.9001L54.8374 10.611L54.8349 10.6237L54.8327 10.6364L56.3093 10.9001ZM56.3093 22.0201L57.7867 21.7609V21.7609L56.3093 22.0201ZM57.9893 25.7001L56.8823 26.7122L56.89 26.7207L56.8979 26.7291L57.9893 25.7001ZM65.6293 25.7001L64.5379 24.6711L64.53 24.6794L64.5223 24.6879L65.6293 25.7001ZM67.3493 22.0201L68.8267 22.2793V22.2793L67.3493 22.0201ZM51.4293 16.3801H52.9293C52.9293 11.9053 53.6843 8.61169 55.0367 6.34988L53.7493 5.58009L52.4619 4.8103C50.721 7.72181 49.9293 11.6282 49.9293 16.3801H51.4293ZM53.7493 5.58009L55.0344 6.35376C56.2662 4.30769 58.39 3.16009 61.8293 3.16009V1.66009V0.160086C57.6419 0.160086 54.3791 1.62581 52.4642 4.80641L53.7493 5.58009ZM61.8293 1.66009V3.16009C65.2694 3.16009 67.3731 4.30751 68.5784 6.34407L69.8693 5.58009L71.1602 4.8161C69.2721 1.626 66.0158 0.160086 61.8293 0.160086V1.66009ZM69.8693 5.58009L68.5877 6.35959C69.962 8.619 70.7293 11.9086 70.7293 16.3801H72.2293H73.7293C73.7293 11.6249 72.9232 7.71451 71.1508 4.80058L69.8693 5.58009ZM72.2293 16.3801H70.7293C70.7293 20.9059 69.9618 24.2549 68.5808 26.5722L69.8693 27.3401L71.1578 28.108C72.9235 25.1453 73.7293 21.1876 73.7293 16.3801H72.2293ZM69.8693 27.3401L68.5784 26.5761C67.3731 28.6127 65.2694 29.7601 61.8293 29.7601V31.2601V32.7601C66.0158 32.7601 69.2721 31.2942 71.1602 28.1041L69.8693 27.3401ZM61.8293 31.2601V29.7601C58.39 29.7601 56.2662 28.6125 55.0344 26.5664L53.7493 27.3401L52.4642 28.1138C54.3791 31.2944 57.6419 32.7601 61.8293 32.7601V31.2601ZM53.7493 27.3401L55.0435 26.5818C53.6845 24.2621 52.9293 20.9091 52.9293 16.3801H51.4293H49.9293C49.9293 21.1844 50.7208 25.1381 52.4551 28.0983L53.7493 27.3401ZM67.7493 16.3801H69.2493C69.2493 14.1598 69.0992 12.2299 68.7812 10.611L67.3093 10.9001L65.8374 11.1892C66.1061 12.5569 66.2493 14.2803 66.2493 16.3801H67.7493ZM67.3093 10.9001L68.7859 10.6364C68.4794 8.91992 67.8164 7.4293 66.7363 6.24793L65.6293 7.26009L64.5223 8.27224C65.1488 8.95754 65.6058 9.89358 65.8327 11.1638L67.3093 10.9001ZM65.6293 7.26009L66.7504 6.26354C65.5311 4.89183 63.7979 4.32009 61.8293 4.32009V5.82009V7.32009C63.2207 7.32009 64.0208 7.70835 64.5082 8.25663L65.6293 7.26009ZM61.8293 5.82009V4.32009C59.8607 4.32009 58.1275 4.89183 56.9082 6.26354L58.0293 7.26009L59.1504 8.25663C59.6378 7.70835 60.4379 7.32009 61.8293 7.32009V5.82009ZM58.0293 7.26009L56.9223 6.24793C55.8487 7.4221 55.1729 8.9029 54.8374 10.611L56.3093 10.9001L57.7812 11.1892C58.0323 9.91061 58.5032 8.96474 59.1363 8.27224L58.0293 7.26009ZM56.3093 10.9001L54.8327 10.6364C54.5455 12.2447 54.4093 14.1655 54.4093 16.3801H55.9093H57.4093C57.4093 14.2747 57.5398 12.5421 57.7859 11.1638L56.3093 10.9001ZM55.9093 16.3801H54.4093C54.4093 18.6718 54.5451 20.6449 54.8319 22.2793L56.3093 22.0201L57.7867 21.7609C57.5401 20.3553 57.4093 18.5683 57.4093 16.3801H55.9093ZM56.3093 22.0201L54.8319 22.2793C55.1369 24.0182 55.7977 25.5261 56.8823 26.7122L57.9893 25.7001L59.0963 24.6879C58.4742 24.0075 58.015 23.062 57.7867 21.7609L56.3093 22.0201ZM57.9893 25.7001L56.8979 26.7291C58.1419 28.0484 59.8704 28.6001 61.8293 28.6001V27.1001V25.6001C60.4282 25.6001 59.5967 25.2184 59.0807 24.6711L57.9893 25.7001ZM61.8293 27.1001V28.6001C63.7853 28.6001 65.5138 28.0494 66.7363 26.7122L65.6293 25.7001L64.5223 24.6879C64.0381 25.2174 63.2333 25.6001 61.8293 25.6001V27.1001ZM65.6293 25.7001L66.7207 26.7291C67.8396 25.5424 68.5198 24.0287 68.8267 22.2793L67.3493 22.0201L65.8719 21.7609C65.6454 23.0515 65.179 23.9911 64.5379 24.6711L65.6293 25.7001ZM67.3493 22.0201L68.8267 22.2793C69.1135 20.6449 69.2493 18.6718 69.2493 16.3801H67.7493H66.2493C66.2493 18.5683 66.1185 20.3553 65.8719 21.7609L67.3493 22.0201ZM78.0143 4.66009L79.0621 5.73345L79.0624 5.73315L78.0143 4.66009ZM86.7743 4.66009L85.7136 5.72075L85.7263 5.73337L85.7392 5.74569L86.7743 4.66009ZM86.7743 13.8201L85.7262 12.747L85.7199 12.7532L85.7136 12.7594L86.7743 13.8201ZM78.0143 13.8201L76.9536 14.8807L76.9599 14.887L76.9662 14.8932L78.0143 13.8201ZM100.734 3.50009L102.036 4.24611L103.323 2.00009H100.734V3.50009ZM84.7743 31.3401V32.8401H85.6434L86.0756 32.0861L84.7743 31.3401ZM80.2943 31.3401L78.993 30.5941L77.7054 32.8401H80.2943V31.3401ZM96.2543 3.50009V2.00009H95.3852L94.953 2.75407L96.2543 3.50009ZM84.2543 11.9001L83.0673 10.9829L83.0611 10.991L84.2543 11.9001ZM94.2943 21.0201L95.3421 22.0934L95.3424 22.0932L94.2943 21.0201ZM103.014 21.0201L101.954 22.0807L101.966 22.0934L101.979 22.1057L103.014 21.0201ZM103.014 30.1801L101.966 29.107L101.96 29.1132L101.954 29.1194L103.014 30.1801ZM94.2943 30.1801L93.2336 31.2407L93.2399 31.247L93.2462 31.2532L94.2943 30.1801ZM76.3343 9.22009H77.8343C77.8343 7.57291 78.2984 6.47896 79.0621 5.73345L78.0143 4.66009L76.9665 3.58672C75.4902 5.02787 74.8343 6.97393 74.8343 9.22009H76.3343ZM78.0143 4.66009L79.0624 5.73315C79.8957 4.91927 80.9704 4.48009 82.4143 4.48009V2.98009V1.48009C80.2849 1.48009 78.4263 2.1609 76.9662 3.58702L78.0143 4.66009ZM82.4143 2.98009V4.48009C83.8587 4.48009 84.9119 4.91903 85.7136 5.72075L86.7743 4.66009L87.835 3.59943C86.3967 2.16114 84.5432 1.48009 82.4143 1.48009V2.98009ZM86.7743 4.66009L85.7392 5.74569C86.5234 6.49342 86.9943 7.58323 86.9943 9.22009H88.4943H89.9943C89.9943 6.96361 89.3185 5.01342 87.8094 3.57448L86.7743 4.66009ZM88.4943 9.22009H86.9943C86.9943 10.8555 86.5237 11.9681 85.7262 12.747L86.7743 13.8201L87.8224 14.8932C89.3182 13.4321 89.9943 11.478 89.9943 9.22009H88.4943ZM86.7743 13.8201L85.7136 12.7594C84.9119 13.5611 83.8587 14.0001 82.4143 14.0001V15.5001V17.0001C84.5432 17.0001 86.3967 16.319 87.835 14.8807L86.7743 13.8201ZM82.4143 15.5001V14.0001C80.9704 14.0001 79.8957 13.5609 79.0624 12.747L78.0143 13.8201L76.9662 14.8932C78.4263 16.3193 80.2849 17.0001 82.4143 17.0001V15.5001ZM78.0143 13.8201L79.075 12.7594C78.298 11.9825 77.8343 10.8657 77.8343 9.22009H76.3343H74.8343C74.8343 11.4678 75.4906 13.4177 76.9536 14.8807L78.0143 13.8201ZM100.734 3.50009L99.433 2.75407L83.473 30.5941L84.7743 31.3401L86.0756 32.0861L102.036 4.24611L100.734 3.50009ZM84.7743 31.3401V29.8401H80.2943V31.3401V32.8401H84.7743V31.3401ZM80.2943 31.3401L81.5956 32.0861L97.5556 4.24611L96.2543 3.50009L94.953 2.75407L78.993 30.5941L80.2943 31.3401ZM96.2543 3.50009V5.00009H100.734V3.50009V2.00009H96.2543V3.50009ZM82.4143 5.74009V4.24009C81.1881 4.24009 80.0629 4.68982 79.3094 5.73032C78.6209 6.68103 78.3943 7.92383 78.3943 9.22009H79.8943H81.3943C81.3943 8.19634 81.5877 7.69914 81.7392 7.48985C81.8257 7.37036 81.9605 7.24009 82.4143 7.24009V5.74009ZM79.8943 9.22009H78.3943C78.3943 10.5272 78.6201 11.7771 79.3046 12.7333C80.0554 13.7819 81.1814 14.2401 82.4143 14.2401V12.7401V11.2401C81.9672 11.2401 81.8332 11.1116 81.744 10.9869C81.5885 10.7698 81.3943 10.2597 81.3943 9.22009H79.8943ZM82.4143 12.7401V14.2401C83.6097 14.2401 84.6957 13.7958 85.4474 12.8092L84.2543 11.9001L83.0611 10.991C82.9596 11.1244 82.8189 11.2401 82.4143 11.2401V12.7401ZM84.2543 11.9001L85.4412 12.8173C86.1891 11.8494 86.4343 10.5622 86.4343 9.22009H84.9343H83.4343C83.4343 10.278 83.2261 10.7775 83.0674 10.9829L84.2543 11.9001ZM84.9343 9.22009H86.4343C86.4343 7.92383 86.2077 6.68103 85.5192 5.73032C84.7657 4.68982 83.6405 4.24009 82.4143 4.24009V5.74009V7.24009C82.8681 7.24009 83.0029 7.37036 83.0894 7.48985C83.2409 7.69914 83.4343 8.19634 83.4343 9.22009H84.9343ZM92.6143 25.5801H94.1143C94.1143 23.9329 94.5784 22.839 95.3421 22.0934L94.2943 21.0201L93.2465 19.9467C91.7702 21.3879 91.1143 23.3339 91.1143 25.5801H92.6143ZM94.2943 21.0201L95.3424 22.0932C96.1757 21.2793 97.2504 20.8401 98.6943 20.8401V19.3401V17.8401C96.5649 17.8401 94.7063 18.5209 93.2462 19.947L94.2943 21.0201ZM98.6943 19.3401V20.8401C100.105 20.8401 101.147 21.2746 101.954 22.0807L103.014 21.0201L104.075 19.9594C102.641 18.5256 100.804 17.8401 98.6943 17.8401V19.3401ZM103.014 21.0201L101.979 22.1057C102.763 22.8534 103.234 23.9432 103.234 25.5801H104.734H106.234C106.234 23.3236 105.559 21.3734 104.049 19.9345L103.014 21.0201ZM104.734 25.5801H103.234C103.234 27.2155 102.764 28.3281 101.966 29.107L103.014 30.1801L104.062 31.2532C105.558 29.7921 106.234 27.838 106.234 25.5801H104.734ZM103.014 30.1801L101.954 29.1194C101.147 29.9256 100.105 30.3601 98.6943 30.3601V31.8601V33.3601C100.804 33.3601 102.641 32.6746 104.075 31.2407L103.014 30.1801ZM98.6943 31.8601V30.3601C97.2504 30.3601 96.1757 29.9209 95.3424 29.107L94.2943 30.1801L93.2462 31.2532C94.7063 32.6793 96.5649 33.3601 98.6943 33.3601V31.8601ZM94.2943 30.1801L95.355 29.1194C94.578 28.3425 94.1143 27.2257 94.1143 25.5801H92.6143H91.1143C91.1143 27.8278 91.7706 29.7777 93.2336 31.2407L94.2943 30.1801ZM98.6543 22.1001V20.6001C97.4281 20.6001 96.3029 21.0498 95.5494 22.0903C94.8609 23.041 94.6343 24.2838 94.6343 25.5801H96.1343H97.6343C97.6343 24.5563 97.8277 24.0591 97.9792 23.8499C98.0657 23.7304 98.2005 23.6001 98.6543 23.6001V22.1001ZM96.1343 25.5801H94.6343C94.6343 26.8763 94.8609 28.1191 95.5494 29.0699C96.3029 30.1104 97.4281 30.5601 98.6543 30.5601V29.0601V27.5601C98.2005 27.5601 98.0657 27.4298 97.9792 27.3103C97.8277 27.101 97.6343 26.6038 97.6343 25.5801H96.1343ZM98.6543 29.0601V30.5601C99.8805 30.5601 101.006 30.1104 101.759 29.0699C102.448 28.1191 102.674 26.8763 102.674 25.5801H101.174H99.6743C99.6743 26.6038 99.4809 27.101 99.3294 27.3103C99.2429 27.4298 99.1081 27.5601 98.6543 27.5601V29.0601ZM101.174 25.5801H102.674C102.674 24.2838 102.448 23.041 101.759 22.0903C101.006 21.0498 99.8805 20.6001 98.6543 20.6001V22.1001V23.6001C99.1081 23.6001 99.2429 23.7304 99.3294 23.8499C99.4809 24.0591 99.6743 24.5563 99.6743 25.5801H101.174Z" fill="white" mask="url(#path-1-outside-1_483_1359)"/>
</svg>
