<svg width="116" height="34" viewBox="0 0 116 34" fill="none" xmlns="http://www.w3.org/2000/svg">
<mask id="path-1-outside-1_483_1374" maskUnits="userSpaceOnUse" x="-0.580078" y="-0.659912" width="117" height="35" fill="black">
<rect fill="white" x="-0.580078" y="-0.659912" width="117" height="35"/>
<path d="M6.49992 23.4201C6.76659 24.7534 7.33992 25.7668 8.21992 26.4601C9.09992 27.1534 10.2866 27.5001 11.7799 27.5001C13.6733 27.5001 15.0599 26.7534 15.9399 25.2601C16.8199 23.7668 17.2599 21.2201 17.2599 17.6201C16.6199 18.5268 15.7133 19.2334 14.5399 19.7401C13.3933 20.2201 12.1399 20.4601 10.7799 20.4601C9.04659 20.4601 7.47326 20.1134 6.05992 19.4201C4.64659 18.7001 3.52659 17.6468 2.69992 16.2601C1.89992 14.8468 1.49992 13.1401 1.49992 11.1401C1.49992 8.20675 2.35326 5.87342 4.05992 4.14009C5.79326 2.38009 8.16659 1.50009 11.1799 1.50009C14.8066 1.50009 17.3799 2.71342 18.8999 5.14009C20.4466 7.54009 21.2199 11.2334 21.2199 16.2201C21.2199 19.6601 20.9266 22.4734 20.3399 24.6601C19.7799 26.8468 18.7933 28.5001 17.3799 29.6201C15.9666 30.7401 14.0066 31.3001 11.4999 31.3001C8.64659 31.3001 6.44659 30.5534 4.89992 29.0601C3.35326 27.5668 2.48659 25.6868 2.29992 23.4201H6.49992ZM11.5799 16.6201C13.1799 16.6201 14.4333 16.1268 15.3399 15.1401C16.2733 14.1268 16.7399 12.7934 16.7399 11.1401C16.7399 9.30009 16.2466 7.87342 15.2599 6.86009C14.2999 5.82009 12.9799 5.30009 11.2999 5.30009C9.61992 5.30009 8.28659 5.83342 7.29992 6.90009C6.33992 7.94009 5.85992 9.31342 5.85992 11.0201C5.85992 12.6468 6.32659 13.9934 7.25992 15.0601C8.21992 16.1001 9.65992 16.6201 11.5799 16.6201ZM31.8905 23.4201C32.1572 24.7534 32.7305 25.7668 33.6105 26.4601C34.4905 27.1534 35.6772 27.5001 37.1705 27.5001C39.0639 27.5001 40.4505 26.7534 41.3305 25.2601C42.2105 23.7668 42.6505 21.2201 42.6505 17.6201C42.0105 18.5268 41.1039 19.2334 39.9305 19.7401C38.7839 20.2201 37.5305 20.4601 36.1705 20.4601C34.4372 20.4601 32.8639 20.1134 31.4505 19.4201C30.0372 18.7001 28.9172 17.6468 28.0905 16.2601C27.2905 14.8468 26.8905 13.1401 26.8905 11.1401C26.8905 8.20675 27.7439 5.87342 29.4505 4.14009C31.1839 2.38009 33.5572 1.50009 36.5705 1.50009C40.1972 1.50009 42.7705 2.71342 44.2905 5.14009C45.8372 7.54009 46.6105 11.2334 46.6105 16.2201C46.6105 19.6601 46.3172 22.4734 45.7305 24.6601C45.1705 26.8468 44.1839 28.5001 42.7705 29.6201C41.3572 30.7401 39.3972 31.3001 36.8905 31.3001C34.0372 31.3001 31.8372 30.5534 30.2905 29.0601C28.7439 27.5668 27.8772 25.6868 27.6905 23.4201H31.8905ZM36.9705 16.6201C38.5705 16.6201 39.8239 16.1268 40.7305 15.1401C41.6639 14.1268 42.1305 12.7934 42.1305 11.1401C42.1305 9.30009 41.6372 7.87342 40.6505 6.86009C39.6905 5.82009 38.3705 5.30009 36.6905 5.30009C35.0105 5.30009 33.6772 5.83342 32.6905 6.90009C31.7305 7.94009 31.2505 9.31342 31.2505 11.0201C31.2505 12.6468 31.7172 13.9934 32.6505 15.0601C33.6105 16.1001 35.0505 16.6201 36.9705 16.6201ZM54.0412 31.6201C53.2145 31.6201 52.5212 31.3401 51.9612 30.7801C51.4012 30.2201 51.1212 29.5268 51.1212 28.7001C51.1212 27.8734 51.4012 27.1801 51.9612 26.6201C52.5212 26.0601 53.2145 25.7801 54.0412 25.7801C54.8412 25.7801 55.5212 26.0601 56.0812 26.6201C56.6412 27.1801 56.9212 27.8734 56.9212 28.7001C56.9212 29.5268 56.6412 30.2201 56.0812 30.7801C55.5212 31.3401 54.8412 31.6201 54.0412 31.6201ZM66.9296 23.4201C67.1963 24.7534 67.7696 25.7668 68.6496 26.4601C69.5296 27.1534 70.7163 27.5001 72.2096 27.5001C74.1029 27.5001 75.4896 26.7534 76.3696 25.2601C77.2496 23.7668 77.6896 21.2201 77.6896 17.6201C77.0496 18.5268 76.1429 19.2334 74.9696 19.7401C73.8229 20.2201 72.5696 20.4601 71.2096 20.4601C69.4763 20.4601 67.9029 20.1134 66.4896 19.4201C65.0763 18.7001 63.9563 17.6468 63.1296 16.2601C62.3296 14.8468 61.9296 13.1401 61.9296 11.1401C61.9296 8.20675 62.7829 5.87342 64.4896 4.14009C66.2229 2.38009 68.5963 1.50009 71.6096 1.50009C75.2363 1.50009 77.8096 2.71342 79.3296 5.14009C80.8763 7.54009 81.6496 11.2334 81.6496 16.2201C81.6496 19.6601 81.3563 22.4734 80.7696 24.6601C80.2096 26.8468 79.2229 28.5001 77.8096 29.6201C76.3963 30.7401 74.4363 31.3001 71.9296 31.3001C69.0763 31.3001 66.8763 30.5534 65.3296 29.0601C63.7829 27.5668 62.9163 25.6868 62.7296 23.4201H66.9296ZM72.0096 16.6201C73.6096 16.6201 74.8629 16.1268 75.7696 15.1401C76.7029 14.1268 77.1696 12.7934 77.1696 11.1401C77.1696 9.30009 76.6763 7.87342 75.6896 6.86009C74.7296 5.82009 73.4096 5.30009 71.7296 5.30009C70.0496 5.30009 68.7163 5.83342 67.7296 6.90009C66.7696 7.94009 66.2896 9.31342 66.2896 11.0201C66.2896 12.6468 66.7563 13.9934 67.6896 15.0601C68.6496 16.1001 70.0896 16.6201 72.0096 16.6201ZM85.9202 9.22009C85.9202 7.27342 86.4802 5.75342 87.6002 4.66009C88.7469 3.54009 90.2136 2.98009 92.0002 2.98009C93.7869 2.98009 95.2402 3.54009 96.3602 4.66009C97.5069 5.75342 98.0802 7.27342 98.0802 9.22009C98.0802 11.1668 97.5069 12.7001 96.3602 13.8201C95.2402 14.9401 93.7869 15.5001 92.0002 15.5001C90.2136 15.5001 88.7469 14.9401 87.6002 13.8201C86.4802 12.7001 85.9202 11.1668 85.9202 9.22009ZM110.32 3.50009L94.3602 31.3401H89.8802L105.84 3.50009H110.32ZM92.0002 5.74009C90.3202 5.74009 89.4802 6.90009 89.4802 9.22009C89.4802 11.5668 90.3202 12.7401 92.0002 12.7401C92.8002 12.7401 93.4136 12.4601 93.8402 11.9001C94.2936 11.3134 94.5202 10.4201 94.5202 9.22009C94.5202 6.90009 93.6802 5.74009 92.0002 5.74009ZM102.2 25.5801C102.2 23.6334 102.76 22.1134 103.88 21.0201C105.027 19.9001 106.494 19.3401 108.28 19.3401C110.04 19.3401 111.48 19.9001 112.6 21.0201C113.747 22.1134 114.32 23.6334 114.32 25.5801C114.32 27.5268 113.747 29.0601 112.6 30.1801C111.48 31.3001 110.04 31.8601 108.28 31.8601C106.494 31.8601 105.027 31.3001 103.88 30.1801C102.76 29.0601 102.2 27.5268 102.2 25.5801ZM108.24 22.1001C106.56 22.1001 105.72 23.2601 105.72 25.5801C105.72 27.9001 106.56 29.0601 108.24 29.0601C109.92 29.0601 110.76 27.9001 110.76 25.5801C110.76 23.2601 109.92 22.1001 108.24 22.1001Z"/>
</mask>
<path d="M6.49992 23.4201L7.97079 23.1259L7.72963 21.9201H6.49992V23.4201ZM8.21992 26.4601L7.29161 27.6383V27.6383L8.21992 26.4601ZM15.9399 25.2601L14.6476 24.4986V24.4986L15.9399 25.2601ZM17.2599 17.6201H18.7599V12.894L16.0345 16.7551L17.2599 17.6201ZM14.5399 19.7401L15.1191 21.1237L15.1269 21.1205L15.1346 21.1172L14.5399 19.7401ZM6.05992 19.4201L5.37903 20.7566L5.38912 20.7618L5.39929 20.7668L6.05992 19.4201ZM2.69992 16.2601L1.39454 16.999L1.40285 17.0137L1.4115 17.0282L2.69992 16.2601ZM4.05992 4.14009L2.9912 3.08755L2.99107 3.08768L4.05992 4.14009ZM18.8999 5.14009L17.6287 5.93634L17.6338 5.94452L17.6391 5.95264L18.8999 5.14009ZM20.3399 24.6601L18.8912 24.2714L18.8889 24.2797L18.8868 24.2879L20.3399 24.6601ZM17.3799 29.6201L18.3115 30.7957V30.7957L17.3799 29.6201ZM4.89992 29.0601L3.85803 30.1392V30.1392L4.89992 29.0601ZM2.29992 23.4201V21.9201H0.671315L0.804983 23.5432L2.29992 23.4201ZM15.3399 15.1401L14.2366 14.1239L14.2354 14.1251L15.3399 15.1401ZM15.2599 6.86009L14.1577 7.87751L14.1713 7.89219L14.1852 7.90651L15.2599 6.86009ZM7.29992 6.90009L6.19877 5.88153L6.19772 5.88267L7.29992 6.90009ZM7.25992 15.0601L6.13106 16.0478L6.14419 16.0629L6.15772 16.0775L7.25992 15.0601ZM6.49992 23.4201L5.02905 23.7143C5.35011 25.3195 6.07473 26.6796 7.29161 27.6383L8.21992 26.4601L9.14823 25.2818C8.60511 24.8539 8.18307 24.1873 7.97079 23.1259L6.49992 23.4201ZM8.21992 26.4601L7.29161 27.6383C8.51244 28.6002 10.0618 29.0001 11.7799 29.0001V27.5001V26.0001C10.5113 26.0001 9.6874 25.7066 9.14823 25.2818L8.21992 26.4601ZM11.7799 27.5001V29.0001C14.1451 29.0001 16.0538 28.0215 17.2322 26.0216L15.9399 25.2601L14.6476 24.4986C14.0661 25.4854 13.2015 26.0001 11.7799 26.0001V27.5001ZM15.9399 25.2601L17.2322 26.0216C18.3308 24.1575 18.7599 21.2565 18.7599 17.6201H17.2599H15.7599C15.7599 21.1836 15.3091 23.376 14.6476 24.4986L15.9399 25.2601ZM17.2599 17.6201L16.0345 16.7551C15.5765 17.4038 14.9044 17.9488 13.9453 18.363L14.5399 19.7401L15.1346 21.1172C16.5221 20.518 17.6633 19.6497 18.4854 18.4851L17.2599 17.6201ZM14.5399 19.7401L13.9607 18.3564C13.0141 18.7527 11.9599 18.9601 10.7799 18.9601V20.4601V21.9601C12.32 21.9601 13.7724 21.6875 15.1191 21.1237L14.5399 19.7401ZM10.7799 20.4601V18.9601C9.25215 18.9601 7.90819 18.656 6.72056 18.0734L6.05992 19.4201L5.39929 20.7668C7.03832 21.5708 8.84103 21.9601 10.7799 21.9601V20.4601ZM6.05992 19.4201L6.74081 18.0835C5.58424 17.4943 4.67288 16.6402 3.98834 15.492L2.69992 16.2601L1.4115 17.0282C2.3803 18.6533 3.70894 19.9058 5.37903 20.7566L6.05992 19.4201ZM2.69992 16.2601L4.00531 15.5212C3.35926 14.3798 2.99992 12.9405 2.99992 11.1401H1.49992H-7.78437e-05C-7.78437e-05 13.3396 0.440585 15.3137 1.39454 16.999L2.69992 16.2601ZM1.49992 11.1401H2.99992C2.99992 8.51412 3.75363 6.58912 5.12877 5.19249L4.05992 4.14009L2.99107 3.08768C0.952878 5.15772 -7.78437e-05 7.89939 -7.78437e-05 11.1401H1.49992ZM4.05992 4.14009L5.12865 5.19262C6.52013 3.77973 8.4741 3.00009 11.1799 3.00009V1.50009V8.58307e-05C7.85908 8.58307e-05 5.06638 0.980445 2.9912 3.08755L4.05992 4.14009ZM11.1799 1.50009V3.00009C14.4472 3.00009 16.4572 4.066 17.6287 5.93634L18.8999 5.14009L20.1711 4.34383C18.3027 1.36084 15.166 8.58307e-05 11.1799 8.58307e-05V1.50009ZM18.8999 5.14009L17.6391 5.95264C18.9518 7.98961 19.7199 11.3328 19.7199 16.2201H21.2199H22.7199C22.7199 11.134 21.9414 7.09057 20.1608 4.32753L18.8999 5.14009ZM21.2199 16.2201H19.7199C19.7199 19.5893 19.4311 22.259 18.8912 24.2714L20.3399 24.6601L21.7887 25.0488C22.4221 22.6879 22.7199 19.7309 22.7199 16.2201H21.2199ZM20.3399 24.6601L18.8868 24.2879C18.3874 26.2382 17.5459 27.5747 16.4483 28.4445L17.3799 29.6201L18.3115 30.7957C20.0406 29.4255 21.1725 27.4553 21.793 25.0322L20.3399 24.6601ZM17.3799 29.6201L16.4483 28.4445C15.3865 29.2859 13.7983 29.8001 11.4999 29.8001V31.3001V32.8001C14.2149 32.8001 16.5466 32.1943 18.3115 30.7957L17.3799 29.6201ZM11.4999 31.3001V29.8001C8.9044 29.8001 7.12703 29.1253 5.94181 27.981L4.89992 29.0601L3.85803 30.1392C5.76615 31.9815 8.38877 32.8001 11.4999 32.8001V31.3001ZM4.89992 29.0601L5.94181 27.981C4.67332 26.7562 3.95351 25.2234 3.79486 23.297L2.29992 23.4201L0.804983 23.5432C1.01967 26.1501 2.0332 28.3773 3.85803 30.1392L4.89992 29.0601ZM2.29992 23.4201V24.9201H6.49992V23.4201V21.9201H2.29992V23.4201ZM11.5799 16.6201V18.1201C13.5112 18.1201 15.1989 17.5105 16.4444 16.155L15.3399 15.1401L14.2354 14.1251C13.6677 14.743 12.8486 15.1201 11.5799 15.1201V16.6201ZM15.3399 15.1401L16.4432 16.1563C17.6809 14.8125 18.2399 13.0903 18.2399 11.1401H16.7399H15.2399C15.2399 12.4965 14.8656 13.441 14.2366 14.1239L15.3399 15.1401ZM16.7399 11.1401H18.2399C18.2399 9.03128 17.6687 7.18381 16.3346 5.81366L15.2599 6.86009L14.1852 7.90651C14.8245 8.56303 15.2399 9.5689 15.2399 11.1401H16.7399ZM15.2599 6.86009L16.3621 5.84266C15.0651 4.43759 13.3134 3.80009 11.2999 3.80009V5.30009V6.80009C12.6464 6.80009 13.5347 7.20258 14.1577 7.87751L15.2599 6.86009ZM11.2999 5.30009V3.80009C9.27342 3.80009 7.51458 4.45903 6.19877 5.88153L7.29992 6.90009L8.40107 7.91865C9.0586 7.20781 9.96642 6.80009 11.2999 6.80009V5.30009ZM7.29992 6.90009L6.19772 5.88267C4.93132 7.2546 4.35992 9.01828 4.35992 11.0201H5.85992H7.35992C7.35992 9.60856 7.74852 8.62558 8.40213 7.91751L7.29992 6.90009ZM5.85992 11.0201H4.35992C4.35992 12.953 4.92338 14.6676 6.13106 16.0478L7.25992 15.0601L8.38879 14.0723C7.7298 13.3192 7.35992 12.3405 7.35992 11.0201H5.85992ZM7.25992 15.0601L6.15772 16.0775C7.49217 17.5232 9.3965 18.1201 11.5799 18.1201V16.6201V15.1201C9.92334 15.1201 8.94768 14.677 8.36213 14.0427L7.25992 15.0601ZM31.8905 23.4201L33.3614 23.1259L33.1203 21.9201H31.8905V23.4201ZM33.6105 26.4601L32.6822 27.6383V27.6383L33.6105 26.4601ZM41.3305 25.2601L40.0382 24.4986V24.4986L41.3305 25.2601ZM42.6505 17.6201H44.1505V12.894L41.4251 16.7551L42.6505 17.6201ZM39.9305 19.7401L40.5098 21.1237L40.5175 21.1205L40.5252 21.1172L39.9305 19.7401ZM31.4505 19.4201L30.7697 20.7566L30.7797 20.7618L30.7899 20.7668L31.4505 19.4201ZM28.0905 16.2601L26.7852 16.999L26.7935 17.0137L26.8021 17.0282L28.0905 16.2601ZM29.4505 4.14009L28.3818 3.08755L28.3817 3.08768L29.4505 4.14009ZM44.2905 5.14009L43.0193 5.93634L43.0245 5.94452L43.0297 5.95264L44.2905 5.14009ZM45.7305 24.6601L44.2818 24.2714L44.2796 24.2797L44.2774 24.2879L45.7305 24.6601ZM42.7705 29.6201L43.7022 30.7957V30.7957L42.7705 29.6201ZM30.2905 29.0601L29.2487 30.1392V30.1392L30.2905 29.0601ZM27.6905 23.4201V21.9201H26.0619L26.1956 23.5432L27.6905 23.4201ZM40.7305 15.1401L39.6272 14.1239L39.6261 14.1251L40.7305 15.1401ZM40.6505 6.86009L39.5483 7.87751L39.5619 7.89219L39.5758 7.90651L40.6505 6.86009ZM32.6905 6.90009L31.5894 5.88153L31.5883 5.88267L32.6905 6.90009ZM32.6505 15.0601L31.5217 16.0478L31.5348 16.0629L31.5483 16.0775L32.6505 15.0601ZM31.8905 23.4201L30.4197 23.7143C30.7407 25.3195 31.4654 26.6796 32.6822 27.6383L33.6105 26.4601L34.5389 25.2818C33.9957 24.8539 33.5737 24.1873 33.3614 23.1259L31.8905 23.4201ZM33.6105 26.4601L32.6822 27.6383C33.9031 28.6002 35.4525 29.0001 37.1705 29.0001V27.5001V26.0001C35.902 26.0001 35.078 25.7066 34.5389 25.2818L33.6105 26.4601ZM37.1705 27.5001V29.0001C39.5357 29.0001 41.4444 28.0215 42.6229 26.0216L41.3305 25.2601L40.0382 24.4986C39.4567 25.4854 38.5921 26.0001 37.1705 26.0001V27.5001ZM41.3305 25.2601L42.6229 26.0216C43.7214 24.1575 44.1505 21.2565 44.1505 17.6201H42.6505H41.1505C41.1505 21.1836 40.6997 23.376 40.0382 24.4986L41.3305 25.2601ZM42.6505 17.6201L41.4251 16.7551C40.9672 17.4038 40.295 17.9488 39.3359 18.363L39.9305 19.7401L40.5252 21.1172C41.9128 20.518 43.0539 19.6497 43.876 18.4851L42.6505 17.6201ZM39.9305 19.7401L39.3513 18.3564C38.4047 18.7527 37.3505 18.9601 36.1705 18.9601V20.4601V21.9601C37.7106 21.9601 39.163 21.6875 40.5098 21.1237L39.9305 19.7401ZM36.1705 20.4601V18.9601C34.6428 18.9601 33.2988 18.656 32.1112 18.0734L31.4505 19.4201L30.7899 20.7668C32.4289 21.5708 34.2317 21.9601 36.1705 21.9601V20.4601ZM31.4505 19.4201L32.1314 18.0835C30.9749 17.4943 30.0635 16.6402 29.379 15.492L28.0905 16.2601L26.8021 17.0282C27.7709 18.6533 29.0996 19.9058 30.7697 20.7566L31.4505 19.4201ZM28.0905 16.2601L29.3959 15.5212C28.7499 14.3798 28.3905 12.9405 28.3905 11.1401H26.8905H25.3905C25.3905 13.3396 25.8312 15.3137 26.7852 16.999L28.0905 16.2601ZM26.8905 11.1401H28.3905C28.3905 8.51412 29.1443 6.58912 30.5194 5.19249L29.4505 4.14009L28.3817 3.08768C26.3435 5.15772 25.3905 7.89939 25.3905 11.1401H26.8905ZM29.4505 4.14009L30.5193 5.19262C31.9108 3.77973 33.8647 3.00009 36.5705 3.00009V1.50009V8.58307e-05C33.2497 8.58307e-05 30.457 0.980445 28.3818 3.08755L29.4505 4.14009ZM36.5705 1.50009V3.00009C39.8378 3.00009 41.8478 4.066 43.0193 5.93634L44.2905 5.14009L45.5618 4.34383C43.6933 1.36084 40.5566 8.58307e-05 36.5705 8.58307e-05V1.50009ZM44.2905 5.14009L43.0297 5.95264C44.3424 7.98961 45.1105 11.3328 45.1105 16.2201H46.6105H48.1105C48.1105 11.134 47.332 7.09057 45.5514 4.32753L44.2905 5.14009ZM46.6105 16.2201H45.1105C45.1105 19.5893 44.8217 22.259 44.2818 24.2714L45.7305 24.6601L47.1793 25.0488C47.8127 22.6879 48.1105 19.7309 48.1105 16.2201H46.6105ZM45.7305 24.6601L44.2774 24.2879C43.778 26.2382 42.9365 27.5747 41.8389 28.4445L42.7705 29.6201L43.7022 30.7957C45.4313 29.4255 46.5631 27.4553 47.1837 25.0322L45.7305 24.6601ZM42.7705 29.6201L41.8389 28.4445C40.7772 29.2859 39.1889 29.8001 36.8905 29.8001V31.3001V32.8001C39.6055 32.8001 41.9373 32.1943 43.7022 30.7957L42.7705 29.6201ZM36.8905 31.3001V29.8001C34.295 29.8001 32.5177 29.1253 31.3324 27.981L30.2905 29.0601L29.2487 30.1392C31.1568 31.9815 33.7794 32.8001 36.8905 32.8001V31.3001ZM30.2905 29.0601L31.3324 27.981C30.0639 26.7562 29.3441 25.2234 29.1855 23.297L27.6905 23.4201L26.1956 23.5432C26.4103 26.1501 27.4238 28.3773 29.2487 30.1392L30.2905 29.0601ZM27.6905 23.4201V24.9201H31.8905V23.4201V21.9201H27.6905V23.4201ZM36.9705 16.6201V18.1201C38.9018 18.1201 40.5895 17.5105 41.835 16.155L40.7305 15.1401L39.6261 14.1251C39.0583 14.743 38.2393 15.1201 36.9705 15.1201V16.6201ZM40.7305 15.1401L41.8339 16.1563C43.0715 14.8125 43.6305 13.0903 43.6305 11.1401H42.1305H40.6305C40.6305 12.4965 40.2562 13.441 39.6272 14.1239L40.7305 15.1401ZM42.1305 11.1401H43.6305C43.6305 9.03128 43.0593 7.18381 41.7253 5.81366L40.6505 6.86009L39.5758 7.90651C40.2151 8.56303 40.6305 9.5689 40.6305 11.1401H42.1305ZM40.6505 6.86009L41.7528 5.84266C40.4558 4.43759 38.704 3.80009 36.6905 3.80009V5.30009V6.80009C38.0371 6.80009 38.9253 7.20258 39.5483 7.87751L40.6505 6.86009ZM36.6905 5.30009V3.80009C34.664 3.80009 32.9052 4.45903 31.5894 5.88153L32.6905 6.90009L33.7917 7.91865C34.4492 7.20781 35.357 6.80009 36.6905 6.80009V5.30009ZM32.6905 6.90009L31.5883 5.88267C30.3219 7.2546 29.7505 9.01828 29.7505 11.0201H31.2505H32.7505C32.7505 9.60856 33.1391 8.62558 33.7928 7.91751L32.6905 6.90009ZM31.2505 11.0201H29.7505C29.7505 12.953 30.314 14.6676 31.5217 16.0478L32.6505 15.0601L33.7794 14.0723C33.1204 13.3192 32.7505 12.3405 32.7505 11.0201H31.2505ZM32.6505 15.0601L31.5483 16.0775C32.8828 17.5232 34.7871 18.1201 36.9705 18.1201V16.6201V15.1201C35.314 15.1201 34.3383 14.677 33.7528 14.0427L32.6505 15.0601ZM51.9612 30.7801L53.0218 29.7194V29.7194L51.9612 30.7801ZM51.9612 26.6201L53.0218 27.6807V27.6807L51.9612 26.6201ZM56.0812 26.6201L55.0205 27.6807L56.0812 26.6201ZM56.0812 30.7801L55.0205 29.7194V29.7194L56.0812 30.7801ZM54.0412 31.6201V30.1201C53.5929 30.1201 53.2871 29.9847 53.0218 29.7194L51.9612 30.7801L50.9005 31.8407C51.7553 32.6955 52.8361 33.1201 54.0412 33.1201V31.6201ZM51.9612 30.7801L53.0218 29.7194C52.7566 29.4542 52.6212 29.1484 52.6212 28.7001H51.1212H49.6212C49.6212 29.9051 50.0458 30.986 50.9005 31.8407L51.9612 30.7801ZM51.1212 28.7001H52.6212C52.6212 28.2518 52.7566 27.946 53.0218 27.6807L51.9612 26.6201L50.9005 25.5594C50.0458 26.4142 49.6212 27.495 49.6212 28.7001H51.1212ZM51.9612 26.6201L53.0218 27.6807C53.2871 27.4155 53.5929 27.2801 54.0412 27.2801V25.7801V24.2801C52.8361 24.2801 51.7553 24.7047 50.9005 25.5594L51.9612 26.6201ZM54.0412 25.7801V27.2801C54.4479 27.2801 54.745 27.4052 55.0205 27.6807L56.0812 26.6201L57.1418 25.5594C56.2973 24.7149 55.2345 24.2801 54.0412 24.2801V25.7801ZM56.0812 26.6201L55.0205 27.6807C55.2858 27.946 55.4212 28.2518 55.4212 28.7001H56.9212H58.4212C58.4212 27.495 57.9966 26.4142 57.1418 25.5594L56.0812 26.6201ZM56.9212 28.7001H55.4212C55.4212 29.1484 55.2858 29.4542 55.0205 29.7194L56.0812 30.7801L57.1418 31.8407C57.9966 30.986 58.4212 29.9051 58.4212 28.7001H56.9212ZM56.0812 30.7801L55.0205 29.7194C54.745 29.9949 54.4479 30.1201 54.0412 30.1201V31.6201V33.1201C55.2345 33.1201 56.2973 32.6852 57.1418 31.8407L56.0812 30.7801ZM66.9296 23.4201L68.4005 23.1259L68.1593 21.9201H66.9296V23.4201ZM68.6496 26.4601L67.7213 27.6383V27.6383L68.6496 26.4601ZM76.3696 25.2601L75.0773 24.4986V24.4986L76.3696 25.2601ZM77.6896 17.6201H79.1896V12.894L76.4642 16.7551L77.6896 17.6201ZM74.9696 19.7401L75.5488 21.1237L75.5566 21.1205L75.5643 21.1172L74.9696 19.7401ZM66.4896 19.4201L65.8087 20.7566L65.8188 20.7618L65.829 20.7668L66.4896 19.4201ZM63.1296 16.2601L61.8242 16.999L61.8325 17.0137L61.8412 17.0282L63.1296 16.2601ZM64.4896 4.14009L63.4209 3.08755L63.4208 3.08768L64.4896 4.14009ZM79.3296 5.14009L78.0584 5.93634L78.0635 5.94452L78.0688 5.95264L79.3296 5.14009ZM80.7696 24.6601L79.3208 24.2714L79.3186 24.2797L79.3165 24.2879L80.7696 24.6601ZM77.8096 29.6201L78.7412 30.7957V30.7957L77.8096 29.6201ZM65.3296 29.0601L64.2877 30.1392V30.1392L65.3296 29.0601ZM62.7296 23.4201V21.9201H61.101L61.2347 23.5432L62.7296 23.4201ZM75.7696 15.1401L74.6663 14.1239L74.6651 14.1251L75.7696 15.1401ZM75.6896 6.86009L74.5874 7.87751L74.601 7.89219L74.6149 7.90651L75.6896 6.86009ZM67.7296 6.90009L66.6285 5.88153L66.6274 5.88267L67.7296 6.90009ZM67.6896 15.0601L66.5607 16.0478L66.5739 16.0629L66.5874 16.0775L67.6896 15.0601ZM66.9296 23.4201L65.4587 23.7143C65.7798 25.3195 66.5044 26.6796 67.7213 27.6383L68.6496 26.4601L69.5779 25.2818C69.0348 24.8539 68.6128 24.1873 68.4005 23.1259L66.9296 23.4201ZM68.6496 26.4601L67.7213 27.6383C68.9421 28.6002 70.4915 29.0001 72.2096 29.0001V27.5001V26.0001C70.941 26.0001 70.1171 25.7066 69.5779 25.2818L68.6496 26.4601ZM72.2096 27.5001V29.0001C74.5747 29.0001 76.4834 28.0215 77.6619 26.0216L76.3696 25.2601L75.0773 24.4986C74.4958 25.4854 73.6311 26.0001 72.2096 26.0001V27.5001ZM76.3696 25.2601L77.6619 26.0216C78.7604 24.1575 79.1896 21.2565 79.1896 17.6201H77.6896H76.1896C76.1896 21.1836 75.7388 23.376 75.0773 24.4986L76.3696 25.2601ZM77.6896 17.6201L76.4642 16.7551C76.0062 17.4038 75.3341 17.9488 74.375 18.363L74.9696 19.7401L75.5643 21.1172C76.9518 20.518 78.093 19.6497 78.9151 18.4851L77.6896 17.6201ZM74.9696 19.7401L74.3904 18.3564C73.4438 18.7527 72.3896 18.9601 71.2096 18.9601V20.4601V21.9601C72.7497 21.9601 74.2021 21.6875 75.5488 21.1237L74.9696 19.7401ZM71.2096 20.4601V18.9601C69.6818 18.9601 68.3379 18.656 67.1502 18.0734L66.4896 19.4201L65.829 20.7668C67.468 21.5708 69.2707 21.9601 71.2096 21.9601V20.4601ZM66.4896 19.4201L67.1705 18.0835C66.0139 17.4943 65.1026 16.6402 64.418 15.492L63.1296 16.2601L61.8412 17.0282C62.81 18.6533 64.1386 19.9058 65.8087 20.7566L66.4896 19.4201ZM63.1296 16.2601L64.435 15.5212C63.7889 14.3798 63.4296 12.9405 63.4296 11.1401H61.9296H60.4296C60.4296 13.3396 60.8703 15.3137 61.8242 16.999L63.1296 16.2601ZM61.9296 11.1401H63.4296C63.4296 8.51412 64.1833 6.58912 65.5585 5.19249L64.4896 4.14009L63.4208 3.08768C61.3826 5.15772 60.4296 7.89939 60.4296 11.1401H61.9296ZM64.4896 4.14009L65.5583 5.19262C66.9498 3.77973 68.9038 3.00009 71.6096 3.00009V1.50009V8.58307e-05C68.2888 8.58307e-05 65.4961 0.980445 63.4209 3.08755L64.4896 4.14009ZM71.6096 1.50009V3.00009C74.8769 3.00009 76.8869 4.066 78.0584 5.93634L79.3296 5.14009L80.6008 4.34383C78.7324 1.36084 75.5957 8.58307e-05 71.6096 8.58307e-05V1.50009ZM79.3296 5.14009L78.0688 5.95264C79.3815 7.98961 80.1496 11.3328 80.1496 16.2201H81.6496H83.1496C83.1496 11.134 82.3711 7.09057 80.5905 4.32753L79.3296 5.14009ZM81.6496 16.2201H80.1496C80.1496 19.5893 79.8608 22.259 79.3208 24.2714L80.7696 24.6601L82.2184 25.0488C82.8518 22.6879 83.1496 19.7309 83.1496 16.2201H81.6496ZM80.7696 24.6601L79.3165 24.2879C78.817 26.2382 77.9756 27.5747 76.878 28.4445L77.8096 29.6201L78.7412 30.7957C80.4703 29.4255 81.6022 27.4553 82.2227 25.0322L80.7696 24.6601ZM77.8096 29.6201L76.878 28.4445C75.8162 29.2859 74.228 29.8001 71.9296 29.8001V31.3001V32.8001C74.6446 32.8001 76.9763 32.1943 78.7412 30.7957L77.8096 29.6201ZM71.9296 31.3001V29.8001C69.3341 29.8001 67.5567 29.1253 66.3715 27.981L65.3296 29.0601L64.2877 30.1392C66.1958 31.9815 68.8185 32.8001 71.9296 32.8001V31.3001ZM65.3296 29.0601L66.3715 27.981C65.103 26.7562 64.3832 25.2234 64.2245 23.297L62.7296 23.4201L61.2347 23.5432C61.4494 26.1501 62.4629 28.3773 64.2877 30.1392L65.3296 29.0601ZM62.7296 23.4201V24.9201H66.9296V23.4201V21.9201H62.7296V23.4201ZM72.0096 16.6201V18.1201C73.9409 18.1201 75.6285 17.5105 76.8741 16.155L75.7696 15.1401L74.6651 14.1251C74.0973 14.743 73.2783 15.1201 72.0096 15.1201V16.6201ZM75.7696 15.1401L76.8729 16.1563C78.1106 14.8125 78.6696 13.0903 78.6696 11.1401H77.1696H75.6696C75.6696 12.4965 75.2953 13.441 74.6663 14.1239L75.7696 15.1401ZM77.1696 11.1401H78.6696C78.6696 9.03128 78.0984 7.18381 76.7643 5.81366L75.6896 6.86009L74.6149 7.90651C75.2542 8.56303 75.6696 9.5689 75.6696 11.1401H77.1696ZM75.6896 6.86009L76.7918 5.84266C75.4948 4.43759 73.7431 3.80009 71.7296 3.80009V5.30009V6.80009C73.0761 6.80009 73.9644 7.20258 74.5874 7.87751L75.6896 6.86009ZM71.7296 5.30009V3.80009C69.7031 3.80009 67.9443 4.45903 66.6285 5.88153L67.7296 6.90009L68.8308 7.91865C69.4883 7.20781 70.3961 6.80009 71.7296 6.80009V5.30009ZM67.7296 6.90009L66.6274 5.88267C65.361 7.2546 64.7896 9.01828 64.7896 11.0201H66.2896H67.7896C67.7896 9.60856 68.1782 8.62558 68.8318 7.91751L67.7296 6.90009ZM66.2896 11.0201H64.7896C64.7896 12.953 65.3531 14.6676 66.5607 16.0478L67.6896 15.0601L68.8185 14.0723C68.1595 13.3192 67.7896 12.3405 67.7896 11.0201H66.2896ZM67.6896 15.0601L66.5874 16.0775C67.9219 17.5232 69.8262 18.1201 72.0096 18.1201V16.6201V15.1201C70.353 15.1201 69.3774 14.677 68.7918 14.0427L67.6896 15.0601ZM87.6002 4.66009L88.648 5.73345L88.6483 5.73315L87.6002 4.66009ZM96.3602 4.66009L95.2996 5.72075L95.3122 5.73337L95.3251 5.74569L96.3602 4.66009ZM96.3602 13.8201L95.3121 12.747L95.3058 12.7532L95.2996 12.7594L96.3602 13.8201ZM87.6002 13.8201L86.5396 14.8807L86.5458 14.887L86.5521 14.8932L87.6002 13.8201ZM110.32 3.50009L111.622 4.24611L112.909 2.00009H110.32V3.50009ZM94.3602 31.3401V32.8401H95.2293L95.6616 32.0861L94.3602 31.3401ZM89.8802 31.3401L88.5789 30.5941L87.2913 32.8401H89.8802V31.3401ZM105.84 3.50009V2.00009H104.971L104.539 2.75407L105.84 3.50009ZM93.8402 11.9001L92.6533 10.9829L92.6471 10.991L93.8402 11.9001ZM103.88 21.0201L104.928 22.0934L104.928 22.0932L103.88 21.0201ZM112.6 21.0201L111.54 22.0807L111.552 22.0934L111.565 22.1057L112.6 21.0201ZM112.6 30.1801L111.552 29.107L111.546 29.1132L111.54 29.1194L112.6 30.1801ZM103.88 30.1801L102.82 31.2407L102.826 31.247L102.832 31.2532L103.88 30.1801ZM85.9202 9.22009H87.4202C87.4202 7.57291 87.8843 6.47896 88.648 5.73345L87.6002 4.66009L86.5524 3.58672C85.0761 5.02787 84.4202 6.97393 84.4202 9.22009H85.9202ZM87.6002 4.66009L88.6483 5.73315C89.4816 4.91927 90.5563 4.48009 92.0002 4.48009V2.98009V1.48009C89.8708 1.48009 88.0122 2.1609 86.5521 3.58702L87.6002 4.66009ZM92.0002 2.98009V4.48009C93.4446 4.48009 94.4979 4.91903 95.2996 5.72075L96.3602 4.66009L97.4209 3.59943C95.9826 2.16114 94.1292 1.48009 92.0002 1.48009V2.98009ZM96.3602 4.66009L95.3251 5.74569C96.1093 6.49342 96.5802 7.58323 96.5802 9.22009H98.0802H99.5802C99.5802 6.96361 98.9045 5.01342 97.3953 3.57448L96.3602 4.66009ZM98.0802 9.22009H96.5802C96.5802 10.8555 96.1096 11.9681 95.3121 12.747L96.3602 13.8201L97.4083 14.8932C98.9042 13.4321 99.5802 11.478 99.5802 9.22009H98.0802ZM96.3602 13.8201L95.2996 12.7594C94.4979 13.5611 93.4446 14.0001 92.0002 14.0001V15.5001V17.0001C94.1292 17.0001 95.9826 16.319 97.4209 14.8807L96.3602 13.8201ZM92.0002 15.5001V14.0001C90.5563 14.0001 89.4816 13.5609 88.6483 12.747L87.6002 13.8201L86.5521 14.8932C88.0122 16.3193 89.8708 17.0001 92.0002 17.0001V15.5001ZM87.6002 13.8201L88.6609 12.7594C87.8839 11.9825 87.4202 10.8657 87.4202 9.22009H85.9202H84.4202C84.4202 11.4678 85.0765 13.4177 86.5396 14.8807L87.6002 13.8201ZM110.32 3.50009L109.019 2.75407L93.0589 30.5941L94.3602 31.3401L95.6616 32.0861L111.622 4.24611L110.32 3.50009ZM94.3602 31.3401V29.8401H89.8802V31.3401V32.8401H94.3602V31.3401ZM89.8802 31.3401L91.1816 32.0861L107.142 4.24611L105.84 3.50009L104.539 2.75407L88.5789 30.5941L89.8802 31.3401ZM105.84 3.50009V5.00009H110.32V3.50009V2.00009H105.84V3.50009ZM92.0002 5.74009V4.24009C90.7741 4.24009 89.6488 4.68982 88.8953 5.73032C88.2069 6.68103 87.9802 7.92383 87.9802 9.22009H89.4802H90.9802C90.9802 8.19634 91.1736 7.69914 91.3251 7.48985C91.4117 7.37036 91.5464 7.24009 92.0002 7.24009V5.74009ZM89.4802 9.22009H87.9802C87.9802 10.5272 88.206 11.7771 88.8906 12.7333C89.6413 13.7819 90.7673 14.2401 92.0002 14.2401V12.7401V11.2401C91.5531 11.2401 91.4192 11.1116 91.3299 10.9869C91.1744 10.7698 90.9802 10.2597 90.9802 9.22009H89.4802ZM92.0002 12.7401V14.2401C93.1956 14.2401 94.2816 13.7958 95.0334 12.8092L93.8402 11.9001L92.6471 10.991C92.5455 11.1244 92.4049 11.2401 92.0002 11.2401V12.7401ZM93.8402 11.9001L95.0272 12.8173C95.7751 11.8494 96.0202 10.5622 96.0202 9.22009H94.5202H93.0202C93.0202 10.278 92.8121 10.7775 92.6533 10.9829L93.8402 11.9001ZM94.5202 9.22009H96.0202C96.0202 7.92383 95.7936 6.68103 95.1051 5.73032C94.3517 4.68982 93.2264 4.24009 92.0002 4.24009V5.74009V7.24009C92.4541 7.24009 92.5888 7.37036 92.6753 7.48985C92.8269 7.69914 93.0202 8.19634 93.0202 9.22009H94.5202ZM102.2 25.5801H103.7C103.7 23.9329 104.164 22.839 104.928 22.0934L103.88 21.0201L102.832 19.9467C101.356 21.3879 100.7 23.3339 100.7 25.5801H102.2ZM103.88 21.0201L104.928 22.0932C105.762 21.2793 106.836 20.8401 108.28 20.8401V19.3401V17.8401C106.151 17.8401 104.292 18.5209 102.832 19.947L103.88 21.0201ZM108.28 19.3401V20.8401C109.691 20.8401 110.733 21.2746 111.54 22.0807L112.6 21.0201L113.661 19.9594C112.227 18.5256 110.39 17.8401 108.28 17.8401V19.3401ZM112.6 21.0201L111.565 22.1057C112.349 22.8534 112.82 23.9432 112.82 25.5801H114.32H115.82C115.82 23.3236 115.144 21.3734 113.635 19.9345L112.6 21.0201ZM114.32 25.5801H112.82C112.82 27.2155 112.35 28.3281 111.552 29.107L112.6 30.1801L113.648 31.2532C115.144 29.7921 115.82 27.838 115.82 25.5801H114.32ZM112.6 30.1801L111.54 29.1194C110.733 29.9256 109.691 30.3601 108.28 30.3601V31.8601V33.3601C110.39 33.3601 112.227 32.6746 113.661 31.2407L112.6 30.1801ZM108.28 31.8601V30.3601C106.836 30.3601 105.762 29.9209 104.928 29.107L103.88 30.1801L102.832 31.2532C104.292 32.6793 106.151 33.3601 108.28 33.3601V31.8601ZM103.88 30.1801L104.941 29.1194C104.164 28.3425 103.7 27.2257 103.7 25.5801H102.2H100.7C100.7 27.8278 101.357 29.7777 102.82 31.2407L103.88 30.1801ZM108.24 22.1001V20.6001C107.014 20.6001 105.889 21.0498 105.135 22.0903C104.447 23.041 104.22 24.2838 104.22 25.5801H105.72H107.22C107.22 24.5563 107.414 24.0591 107.565 23.8499C107.652 23.7304 107.786 23.6001 108.24 23.6001V22.1001ZM105.72 25.5801H104.22C104.22 26.8763 104.447 28.1191 105.135 29.0699C105.889 30.1104 107.014 30.5601 108.24 30.5601V29.0601V27.5601C107.786 27.5601 107.652 27.4298 107.565 27.3103C107.414 27.101 107.22 26.6038 107.22 25.5801H105.72ZM108.24 29.0601V30.5601C109.466 30.5601 110.592 30.1104 111.345 29.0699C112.034 28.1191 112.26 26.8763 112.26 25.5801H110.76H109.26C109.26 26.6038 109.067 27.101 108.915 27.3103C108.829 27.4298 108.694 27.5601 108.24 27.5601V29.0601ZM110.76 25.5801H112.26C112.26 24.2838 112.034 23.041 111.345 22.0903C110.592 21.0498 109.466 20.6001 108.24 20.6001V22.1001V23.6001C108.694 23.6001 108.829 23.7304 108.915 23.8499C109.067 24.0591 109.26 24.5563 109.26 25.5801H110.76Z" fill="white" mask="url(#path-1-outside-1_483_1374)"/>
</svg>
