<svg width="82" height="34" viewBox="0 0 82 34" fill="none" xmlns="http://www.w3.org/2000/svg">
<mask id="path-1-outside-1_483_1343" maskUnits="userSpaceOnUse" x="-0.460938" y="-0.620117" width="82" height="35" fill="black">
<rect fill="white" x="-0.460938" y="-0.620117" width="82" height="35"/>
<path d="M16.6191 8.97988C16.3257 7.75322 15.7924 6.83322 15.0191 6.21988C14.2457 5.60655 13.1657 5.29988 11.7791 5.29988C9.6724 5.29988 8.09906 6.11322 7.05906 7.73988C6.01906 9.33988 5.4724 12.0065 5.41906 15.7399C6.1124 14.5665 7.12573 13.6599 8.45906 13.0199C9.7924 12.3799 11.2324 12.0599 12.7791 12.0599C14.5391 12.0599 16.0857 12.4465 17.4191 13.2199C18.7791 13.9665 19.8324 15.0599 20.5791 16.4999C21.3524 17.9399 21.7391 19.6599 21.7391 21.6599C21.7391 23.5265 21.3657 25.1932 20.6191 26.6599C19.8991 28.1265 18.8191 29.2865 17.3791 30.1399C15.9391 30.9665 14.2057 31.3799 12.1791 31.3799C9.4324 31.3799 7.2724 30.7799 5.69906 29.5799C4.1524 28.3532 3.05906 26.6332 2.41906 24.4199C1.80573 22.2065 1.49906 19.4465 1.49906 16.1399C1.49906 6.37988 4.93906 1.49988 11.8191 1.49988C14.4857 1.49988 16.5791 2.21988 18.0991 3.65988C19.6457 5.09988 20.5524 6.87321 20.8191 8.97988H16.6191ZM11.7791 15.8999C10.1524 15.8999 8.76573 16.3932 7.61906 17.3799C6.49906 18.3399 5.93906 19.7399 5.93906 21.5799C5.93906 23.4199 6.45906 24.8865 7.49906 25.9799C8.56573 27.0465 10.0457 27.5799 11.9391 27.5799C13.6191 27.5799 14.9391 27.0599 15.8991 26.0199C16.8857 24.9799 17.3791 23.5932 17.3791 21.8599C17.3791 20.0465 16.8991 18.6065 15.9391 17.5399C15.0057 16.4465 13.6191 15.8999 11.7791 15.8999ZM45.4031 6.13988H32.0031V14.0999C32.5631 13.3532 33.3898 12.7265 34.4831 12.2199C35.6031 11.7132 36.7898 11.4599 38.0431 11.4599C40.2831 11.4599 42.0965 11.9399 43.4831 12.8999C44.8965 13.8599 45.8965 15.0732 46.4831 16.5399C47.0965 18.0065 47.4031 19.5532 47.4031 21.1799C47.4031 23.1532 47.0165 24.9132 46.2431 26.4599C45.4965 27.9799 44.3631 29.1799 42.8431 30.0599C41.3498 30.9399 39.5098 31.3799 37.3231 31.3799C34.4165 31.3799 32.0831 30.6599 30.3231 29.2199C28.5631 27.7799 27.5098 25.8732 27.1631 23.4999H31.6031C31.8965 24.7532 32.5498 25.7532 33.5631 26.4999C34.5765 27.2199 35.8431 27.5799 37.3631 27.5799C39.2565 27.5799 40.6698 27.0065 41.6031 25.8599C42.5631 24.7132 43.0431 23.1932 43.0431 21.2999C43.0431 19.3799 42.5631 17.9132 41.6031 16.8999C40.6431 15.8599 39.2298 15.3399 37.3631 15.3399C36.0565 15.3399 34.9498 15.6732 34.0431 16.3399C33.1631 16.9799 32.5231 17.8599 32.1231 18.9799H27.8031V2.13988H45.4031V6.13988ZM51.43 9.25988C51.43 7.31321 51.99 5.79321 53.11 4.69988C54.2567 3.57988 55.7233 3.01988 57.51 3.01988C59.2967 3.01988 60.75 3.57988 61.87 4.69988C63.0167 5.79321 63.59 7.31321 63.59 9.25988C63.59 11.2065 63.0167 12.7399 61.87 13.8599C60.75 14.9799 59.2967 15.5399 57.51 15.5399C55.7233 15.5399 54.2567 14.9799 53.11 13.8599C51.99 12.7399 51.43 11.2065 51.43 9.25988ZM75.83 3.53988L59.87 31.3799H55.39L71.35 3.53988H75.83ZM57.51 5.77988C55.83 5.77988 54.99 6.93988 54.99 9.25988C54.99 11.6065 55.83 12.7799 57.51 12.7799C58.31 12.7799 58.9233 12.4999 59.35 11.9399C59.8033 11.3532 60.03 10.4599 60.03 9.25988C60.03 6.93988 59.19 5.77988 57.51 5.77988ZM67.71 25.6199C67.71 23.6732 68.27 22.1532 69.39 21.0599C70.5367 19.9399 72.0033 19.3799 73.79 19.3799C75.55 19.3799 76.99 19.9399 78.11 21.0599C79.2567 22.1532 79.83 23.6732 79.83 25.6199C79.83 27.5665 79.2567 29.0999 78.11 30.2199C76.99 31.3399 75.55 31.8999 73.79 31.8999C72.0033 31.8999 70.5367 31.3399 69.39 30.2199C68.27 29.0999 67.71 27.5665 67.71 25.6199ZM73.75 22.1399C72.07 22.1399 71.23 23.2999 71.23 25.6199C71.23 27.9399 72.07 29.0999 73.75 29.0999C75.43 29.0999 76.27 27.9399 76.27 25.6199C76.27 23.2999 75.43 22.1399 73.75 22.1399Z"/>
</mask>
<path d="M16.6191 8.97988L15.1602 9.32874L15.4355 10.4799H16.6191V8.97988ZM15.0191 6.21988L15.9512 5.04464L15.9512 5.04464L15.0191 6.21988ZM7.05906 7.73988L8.31676 8.55739L8.32285 8.54787L7.05906 7.73988ZM5.41906 15.7399L3.91922 15.7185L3.83858 21.3631L6.71045 16.503L5.41906 15.7399ZM17.4191 13.2199L16.6665 14.5174L16.6817 14.5263L16.6972 14.5347L17.4191 13.2199ZM20.5791 16.4999L19.2474 17.1904L19.2524 17.2L19.2576 17.2096L20.5791 16.4999ZM20.6191 26.6599L19.2823 25.9794L19.2774 25.9891L19.2726 25.9989L20.6191 26.6599ZM17.3791 30.1399L18.1259 31.4408L18.1349 31.4356L18.1438 31.4303L17.3791 30.1399ZM5.69906 29.5799L4.76697 30.7551L4.7781 30.764L4.78939 30.7726L5.69906 29.5799ZM2.41906 24.4199L0.973536 24.8204L0.97577 24.8285L0.978094 24.8365L2.41906 24.4199ZM18.0991 3.65988L17.0674 4.74885L17.0769 4.75772L18.0991 3.65988ZM20.8191 8.97988V10.4799H22.5209L22.3072 8.79151L20.8191 8.97988ZM7.61906 17.3799L8.59525 18.5188L8.59743 18.5169L7.61906 17.3799ZM7.49906 25.9799L6.41223 27.0137L6.42515 27.0273L6.4384 27.0405L7.49906 25.9799ZM15.8991 26.0199L14.8109 24.9875L14.8038 24.9949L14.7969 25.0025L15.8991 26.0199ZM15.9391 17.5399L14.7982 18.5138L14.811 18.5287L14.8241 18.5433L15.9391 17.5399ZM16.6191 8.97988L18.0779 8.63102C17.7285 7.16965 17.0532 5.91869 15.9512 5.04464L15.0191 6.21988L14.087 7.39513C14.5316 7.74774 14.923 8.33678 15.1602 9.32874L16.6191 8.97988ZM15.0191 6.21988L15.9512 5.04464C14.8237 4.15041 13.3697 3.79988 11.7791 3.79988V5.29988V6.79988C12.9617 6.79988 13.6678 7.06268 14.087 7.39513L15.0191 6.21988ZM11.7791 5.29988V3.79988C9.21626 3.79988 7.13959 4.82925 5.79528 6.93189L7.05906 7.73988L8.32285 8.54787C9.05854 7.39718 10.1285 6.79988 11.7791 6.79988V5.29988ZM7.05906 7.73988L5.8014 6.9224C4.51874 8.89572 3.97338 11.9271 3.91922 15.7185L5.41906 15.7399L6.91891 15.7613C6.97141 12.086 7.51938 9.78405 8.31673 8.55737L7.05906 7.73988ZM5.41906 15.7399L6.71045 16.503C7.23981 15.6071 8.01867 14.8951 9.10816 14.3722L8.45906 13.0199L7.80997 11.6676C6.23279 12.4246 4.98499 13.5259 4.12767 14.9768L5.41906 15.7399ZM8.45906 13.0199L9.10816 14.3722C10.2296 13.8339 11.4465 13.5599 12.7791 13.5599V12.0599V10.5599C11.0183 10.5599 9.35518 10.9259 7.80997 11.6676L8.45906 13.0199ZM12.7791 12.0599V13.5599C14.3129 13.5599 15.5926 13.8946 16.6665 14.5174L17.4191 13.2199L18.1716 11.9223C16.5788 10.9985 14.7653 10.5599 12.7791 10.5599V12.0599ZM17.4191 13.2199L16.6972 14.5347C17.7843 15.1316 18.6311 16.0016 19.2474 17.1904L20.5791 16.4999L21.9107 15.8094C21.0337 14.1181 19.7738 12.8015 18.141 11.905L17.4191 13.2199ZM20.5791 16.4999L19.2576 17.2096C19.8903 18.3877 20.2391 19.8528 20.2391 21.6599H21.7391H23.2391C23.2391 19.467 22.8145 17.492 21.9006 15.7902L20.5791 16.4999ZM21.7391 21.6599H20.2391C20.2391 23.322 19.908 24.7503 19.2823 25.9794L20.6191 26.6599L21.9558 27.3404C22.8234 25.6362 23.2391 23.7311 23.2391 21.6599H21.7391ZM20.6191 26.6599L19.2726 25.9989C18.6844 27.1969 17.8098 28.141 16.6144 28.8494L17.3791 30.1399L18.1438 31.4303C19.8283 30.4321 21.1137 29.0562 21.9656 27.3209L20.6191 26.6599ZM17.3791 30.1399L16.6323 28.839C15.4647 29.5093 14.0012 29.8799 12.1791 29.8799V31.3799V32.8799C14.4103 32.8799 16.4134 32.4238 18.1259 31.4408L17.3791 30.1399ZM12.1791 31.3799V29.8799C9.63598 29.8799 7.83616 29.3234 6.60874 28.3872L5.69906 29.5799L4.78939 30.7726C6.70863 32.2364 9.22881 32.8799 12.1791 32.8799V31.3799ZM5.69906 29.5799L6.63116 28.4046C5.36784 27.4027 4.42832 25.9686 3.86003 24.0032L2.41906 24.4199L0.978094 24.8365C1.6898 27.2979 2.93696 29.3037 4.76697 30.7551L5.69906 29.5799ZM2.41906 24.4199L3.86459 24.0193C3.29942 21.9798 2.99906 19.3651 2.99906 16.1399H1.49906H-0.000937462C-0.000937462 19.528 0.312036 22.4333 0.973536 24.8204L2.41906 24.4199ZM1.49906 16.1399H2.99906C2.99906 11.3903 3.84434 8.09632 5.30507 6.02412C6.69815 4.0479 8.78125 2.99988 11.8191 2.99988V1.49988V-0.000118256C7.97688 -0.000118256 4.89998 1.39187 2.85305 4.29565C0.873785 7.10345 -0.000937462 11.1294 -0.000937462 16.1399H1.49906ZM11.8191 1.49988V2.99988C14.2112 2.99988 15.8964 3.63942 17.0674 4.74881L18.0991 3.65988L19.1307 2.57095C17.2617 0.800344 14.7602 -0.000118256 11.8191 -0.000118256V1.49988ZM18.0991 3.65988L17.0769 4.75772C18.3652 5.95719 19.1081 7.40809 19.3309 9.16825L20.8191 8.97988L22.3072 8.79151C21.9967 6.33834 20.9262 4.24258 19.1212 2.56204L18.0991 3.65988ZM20.8191 8.97988V7.47988H16.6191V8.97988V10.4799H20.8191V8.97988ZM11.7791 15.8999V14.3999C9.82259 14.3999 8.08091 15.0036 6.6407 16.2429L7.61906 17.3799L8.59743 18.5169C9.45055 17.7828 10.4822 17.3999 11.7791 17.3999V15.8999ZM7.61906 17.3799L6.64288 16.241C5.11055 17.5544 4.43906 19.4194 4.43906 21.5799H5.93906H7.43906C7.43906 20.0604 7.88757 19.1253 8.59525 18.5188L7.61906 17.3799ZM5.93906 21.5799H4.43906C4.43906 23.7155 5.05128 25.583 6.41223 27.0137L7.49906 25.9799L8.5859 24.9461C7.86684 24.1901 7.43906 23.1243 7.43906 21.5799H5.93906ZM7.49906 25.9799L6.4384 27.0405C7.85397 28.4561 9.75496 29.0799 11.9391 29.0799V27.5799V26.0799C10.3365 26.0799 9.27749 25.637 8.55972 24.9192L7.49906 25.9799ZM11.9391 27.5799V29.0799C13.9525 29.0799 15.7043 28.4424 17.0013 27.0373L15.8991 26.0199L14.7969 25.0025C14.1738 25.6774 13.2856 26.0799 11.9391 26.0799V27.5799ZM15.8991 26.0199L16.9873 27.0523C18.2916 25.6774 18.8791 23.8923 18.8791 21.8599H17.3791H15.8791C15.8791 23.2941 15.4799 24.2823 14.8109 24.9875L15.8991 26.0199ZM17.3791 21.8599H18.8791C18.8791 19.7772 18.3221 17.9455 17.054 16.5364L15.9391 17.5399L14.8241 18.5433C15.476 19.2676 15.8791 20.3159 15.8791 21.8599H17.3791ZM15.9391 17.5399L17.0799 16.566C15.7857 15.0499 13.9258 14.3999 11.7791 14.3999V15.8999V17.3999C13.3123 17.3999 14.2258 17.8432 14.7982 18.5138L15.9391 17.5399ZM45.4031 6.13988V7.63988H46.9031V6.13988H45.4031ZM32.0031 6.13988V4.63988H30.5031V6.13988H32.0031ZM32.0031 14.0999H30.5031V18.5999L33.2031 14.9999L32.0031 14.0999ZM34.4831 12.2199L33.8648 10.8532L33.8524 10.8589L34.4831 12.2199ZM43.4831 12.8999L42.6293 14.1332L42.6403 14.1407L43.4831 12.8999ZM46.4831 16.5399L45.0904 17.097L45.0947 17.1078L45.0993 17.1186L46.4831 16.5399ZM46.2431 26.4599L44.9015 25.789L44.8968 25.7985L46.2431 26.4599ZM42.8431 30.0599L42.0915 28.7617L42.0816 28.7676L42.8431 30.0599ZM30.3231 29.2199L31.273 28.0589V28.0589L30.3231 29.2199ZM27.1631 23.4999V21.9999H25.4281L25.6789 23.7167L27.1631 23.4999ZM31.6031 23.4999L33.0637 23.1581L32.7926 21.9999H31.6031V23.4999ZM33.5631 26.4999L32.6733 27.7075L32.6838 27.7151L32.6943 27.7227L33.5631 26.4999ZM41.6031 25.8599L40.453 24.897L40.4463 24.9049L40.4398 24.913L41.6031 25.8599ZM41.6031 16.8999L40.5009 17.9173L40.5075 17.9244L40.5142 17.9315L41.6031 16.8999ZM34.0431 16.3399L34.9254 17.553L34.9317 17.5484L34.0431 16.3399ZM32.1231 18.9799V20.4799H33.1802L33.5357 19.4844L32.1231 18.9799ZM27.8031 18.9799H26.3031V20.4799H27.8031V18.9799ZM27.8031 2.13988V0.639883H26.3031V2.13988H27.8031ZM45.4031 2.13988H46.9031V0.639883H45.4031V2.13988ZM45.4031 6.13988V4.63988H32.0031V6.13988V7.63988H45.4031V6.13988ZM32.0031 6.13988H30.5031V14.0999H32.0031H33.5031V6.13988H32.0031ZM32.0031 14.0999L33.2031 14.9999C33.5773 14.501 34.1818 14.0128 35.1138 13.5808L34.4831 12.2199L33.8524 10.8589C32.5978 11.4403 31.5489 12.2055 30.8031 13.1999L32.0031 14.0999ZM34.4831 12.2199L35.1014 13.5865C36.0232 13.1695 36.9987 12.9599 38.0431 12.9599V11.4599V9.95988C36.5809 9.95988 35.183 10.2569 33.8649 10.8532L34.4831 12.2199ZM38.0431 11.4599V12.9599C40.0767 12.9599 41.5639 13.3956 42.6293 14.1332L43.4831 12.8999L44.3369 11.6666C42.629 10.4842 40.4896 9.95988 38.0431 9.95988V11.4599ZM43.4831 12.8999L42.6403 14.1407C43.8274 14.9471 44.6239 15.9308 45.0904 17.097L46.4831 16.5399L47.8758 15.9828C47.169 14.2157 45.9655 12.7727 44.326 11.6591L43.4831 12.8999ZM46.4831 16.5399L45.0993 17.1186C45.6341 18.3976 45.9031 19.7472 45.9031 21.1799H47.4031H48.9031C48.9031 19.3593 48.5588 17.6155 47.867 15.9612L46.4831 16.5399ZM47.4031 21.1799H45.9031C45.9031 22.9534 45.5568 24.4783 44.9015 25.7891L46.2431 26.4599L47.5848 27.1307C48.4761 25.3481 48.9031 23.3531 48.9031 21.1799H47.4031ZM46.2431 26.4599L44.8968 25.7985C44.2861 27.0418 43.3648 28.0246 42.0916 28.7617L42.8431 30.0599L43.5947 31.358C45.3615 30.3351 46.7069 28.918 47.5895 27.1212L46.2431 26.4599ZM42.8431 30.0599L42.0816 28.7676C40.8721 29.4803 39.3111 29.8799 37.3231 29.8799V31.3799V32.8799C39.7085 32.8799 41.8275 32.3994 43.6047 31.3522L42.8431 30.0599ZM37.3231 31.3799V29.8799C34.6646 29.8799 32.6978 29.2247 31.273 28.0589L30.3231 29.2199L29.3733 30.3808C31.4685 32.0951 34.1683 32.8799 37.3231 32.8799V31.3799ZM30.3231 29.2199L31.273 28.0589C29.8196 26.8698 28.9432 25.3083 28.6474 23.2831L27.1631 23.4999L25.6789 23.7167C26.0764 26.4382 27.3067 28.69 29.3733 30.3808L30.3231 29.2199ZM27.1631 23.4999V24.9999H31.6031V23.4999V21.9999H27.1631V23.4999ZM31.6031 23.4999L30.1426 23.8417C30.5152 25.4337 31.3658 26.7441 32.6733 27.7075L33.5631 26.4999L34.4529 25.2923C33.7337 24.7624 33.2777 24.0727 33.0637 23.1581L31.6031 23.4999ZM33.5631 26.4999L32.6943 27.7227C34.0134 28.6599 35.6022 29.0799 37.3631 29.0799V27.5799V26.0799C36.084 26.0799 35.1395 25.7799 34.4319 25.2771L33.5631 26.4999ZM37.3631 27.5799V29.0799C39.5704 29.0799 41.4717 28.3975 42.7665 26.8068L41.6031 25.8599L40.4398 24.913C39.8679 25.6156 38.9425 26.0799 37.3631 26.0799V27.5799ZM41.6031 25.8599L42.7533 26.8228C43.9941 25.3407 44.5431 23.4493 44.5431 21.2999H43.0431H41.5431C41.5431 22.9371 41.1322 24.0857 40.453 24.897L41.6031 25.8599ZM43.0431 21.2999H44.5431C44.5431 19.1421 44.0017 17.2507 42.6921 15.8683L41.6031 16.8999L40.5142 17.9315C41.1245 18.5757 41.5431 19.6177 41.5431 21.2999H43.0431ZM41.6031 16.8999L42.7053 15.8825C41.3785 14.445 39.5082 13.8399 37.3631 13.8399V15.3399V16.8399C38.9514 16.8399 39.9078 17.2747 40.5009 17.9173L41.6031 16.8999ZM37.3631 15.3399V13.8399C35.7901 13.8399 34.3587 14.246 33.1545 15.1314L34.0431 16.3399L34.9317 17.5484C35.5409 17.1004 36.3228 16.8399 37.3631 16.8399V15.3399ZM34.0431 16.3399L33.1609 15.1268C32.0141 15.9608 31.2021 17.0988 30.7105 18.4754L32.1231 18.9799L33.5357 19.4844C33.8441 18.6209 34.3121 17.999 34.9254 17.553L34.0431 16.3399ZM32.1231 18.9799V17.4799H27.8031V18.9799V20.4799H32.1231V18.9799ZM27.8031 18.9799H29.3031V2.13988H27.8031H26.3031V18.9799H27.8031ZM27.8031 2.13988V3.63988H45.4031V2.13988V0.639883H27.8031V2.13988ZM45.4031 2.13988H43.9031V6.13988H45.4031H46.9031V2.13988H45.4031ZM53.11 4.69988L54.1578 5.77324L54.1581 5.77295L53.11 4.69988ZM61.87 4.69988L60.8093 5.76054L60.822 5.77317L60.8349 5.78549L61.87 4.69988ZM61.87 13.8599L60.8219 12.7868L60.8156 12.793L60.8093 12.7992L61.87 13.8599ZM53.11 13.8599L52.0493 14.9205L52.0556 14.9268L52.0619 14.9329L53.11 13.8599ZM75.83 3.53988L77.1313 4.2859L78.4189 2.03988H75.83V3.53988ZM59.87 31.3799V32.8799H60.7391L61.1713 32.1259L59.87 31.3799ZM55.39 31.3799L54.0887 30.6339L52.8011 32.8799H55.39V31.3799ZM71.35 3.53988V2.03988H70.4809L70.0487 2.79386L71.35 3.53988ZM59.35 11.9399L58.163 11.0227L58.1569 11.0308L59.35 11.9399ZM69.39 21.0599L70.4378 22.1332L70.4381 22.1329L69.39 21.0599ZM78.11 21.0599L77.0493 22.1205L77.062 22.1332L77.0749 22.1455L78.11 21.0599ZM78.11 30.2199L77.0619 29.1468L77.0556 29.153L77.0493 29.1592L78.11 30.2199ZM69.39 30.2199L68.3293 31.2805L68.3356 31.2868L68.3419 31.2929L69.39 30.2199ZM51.43 9.25988H52.93C52.93 7.6127 53.3941 6.51876 54.1578 5.77324L53.11 4.69988L52.0622 3.62652C50.5859 5.06767 49.93 7.01373 49.93 9.25988H51.43ZM53.11 4.69988L54.1581 5.77295C54.9914 4.95907 56.0661 4.51988 57.51 4.51988V3.01988V1.51988C55.3806 1.51988 53.522 2.2007 52.0619 3.62682L53.11 4.69988ZM57.51 3.01988V4.51988C58.9544 4.51988 60.0076 4.95883 60.8093 5.76054L61.87 4.69988L62.9307 3.63922C61.4924 2.20094 59.639 1.51988 57.51 1.51988V3.01988ZM61.87 4.69988L60.8349 5.78549C61.6191 6.53322 62.09 7.62303 62.09 9.25988H63.59H65.09C65.09 7.0034 64.4142 5.05321 62.9051 3.61427L61.87 4.69988ZM63.59 9.25988H62.09C62.09 10.8953 61.6194 12.0079 60.8219 12.7868L61.87 13.8599L62.9181 14.9329C64.4139 13.4719 65.09 11.5178 65.09 9.25988H63.59ZM61.87 13.8599L60.8093 12.7992C60.0076 13.6009 58.9544 14.0399 57.51 14.0399V15.5399V17.0399C59.639 17.0399 61.4924 16.3588 62.9307 14.9205L61.87 13.8599ZM57.51 15.5399V14.0399C56.0661 14.0399 54.9914 13.6007 54.1581 12.7868L53.11 13.8599L52.0619 14.9329C53.522 16.3591 55.3806 17.0399 57.51 17.0399V15.5399ZM53.11 13.8599L54.1707 12.7992C53.3937 12.0223 52.93 10.9055 52.93 9.25988H51.43H49.93C49.93 11.5076 50.5863 13.4575 52.0493 14.9205L53.11 13.8599ZM75.83 3.53988L74.5287 2.79386L58.5687 30.6339L59.87 31.3799L61.1713 32.1259L77.1313 4.2859L75.83 3.53988ZM59.87 31.3799V29.8799H55.39V31.3799V32.8799H59.87V31.3799ZM55.39 31.3799L56.6913 32.1259L72.6513 4.2859L71.35 3.53988L70.0487 2.79386L54.0887 30.6339L55.39 31.3799ZM71.35 3.53988V5.03988H75.83V3.53988V2.03988H71.35V3.53988ZM57.51 5.77988V4.27988C56.2838 4.27988 55.1586 4.72961 54.4051 5.77012C53.7166 6.72083 53.49 7.96363 53.49 9.25988H54.99H56.49C56.49 8.23613 56.6834 7.73894 56.8349 7.52965C56.9214 7.41015 57.0562 7.27988 57.51 7.27988V5.77988ZM54.99 9.25988H53.49C53.49 10.567 53.7158 11.8169 54.4003 12.773C55.1511 13.8217 56.2771 14.2799 57.51 14.2799V12.7799V11.2799C57.0629 11.2799 56.9289 11.1514 56.8397 11.0267C56.6842 10.8096 56.49 10.2995 56.49 9.25988H54.99ZM57.51 12.7799V14.2799C58.7054 14.2799 59.7914 13.8356 60.5431 12.8489L59.35 11.9399L58.1569 11.0308C58.0553 11.1642 57.9146 11.2799 57.51 11.2799V12.7799ZM59.35 11.9399L60.5369 12.8571C61.2848 11.8892 61.53 10.6019 61.53 9.25988H60.03H58.53C58.53 10.3178 58.3218 10.8173 58.1631 11.0227L59.35 11.9399ZM60.03 9.25988H61.53C61.53 7.96363 61.3034 6.72083 60.6149 5.77012C59.8614 4.72961 58.7362 4.27988 57.51 4.27988V5.77988V7.27988C57.9638 7.27988 58.0986 7.41015 58.1851 7.52965C58.3366 7.73894 58.53 8.23613 58.53 9.25988H60.03ZM67.71 25.6199H69.21C69.21 23.9727 69.6741 22.8788 70.4378 22.1332L69.39 21.0599L68.3422 19.9865C66.8659 21.4277 66.21 23.3737 66.21 25.6199H67.71ZM69.39 21.0599L70.4381 22.1329C71.2714 21.3191 72.3461 20.8799 73.79 20.8799V19.3799V17.8799C71.6606 17.8799 69.802 18.5607 68.3419 19.9868L69.39 21.0599ZM73.79 19.3799V20.8799C75.2006 20.8799 76.2431 21.3143 77.0493 22.1205L78.11 21.0599L79.1707 19.9992C77.7369 18.5654 75.8994 17.8799 73.79 17.8799V19.3799ZM78.11 21.0599L77.0749 22.1455C77.8591 22.8932 78.33 23.983 78.33 25.6199H79.83H81.33C81.33 23.3634 80.6542 21.4132 79.1451 19.9743L78.11 21.0599ZM79.83 25.6199H78.33C78.33 27.2553 77.8594 28.3679 77.0619 29.1468L78.11 30.2199L79.1581 31.2929C80.654 29.8319 81.33 27.8778 81.33 25.6199H79.83ZM78.11 30.2199L77.0493 29.1592C76.2431 29.9654 75.2006 30.3999 73.79 30.3999V31.8999V33.3999C75.8994 33.3999 77.7369 32.7143 79.1707 31.2805L78.11 30.2199ZM73.79 31.8999V30.3999C72.3461 30.3999 71.2714 29.9607 70.4381 29.1468L69.39 30.2199L68.3419 31.2929C69.802 32.7191 71.6606 33.3999 73.79 33.3999V31.8999ZM69.39 30.2199L70.4507 29.1592C69.6737 28.3823 69.21 27.2655 69.21 25.6199H67.71H66.21C66.21 27.8676 66.8663 29.8175 68.3293 31.2805L69.39 30.2199ZM73.75 22.1399V20.6399C72.5238 20.6399 71.3986 21.0896 70.6451 22.1301C69.9566 23.0808 69.73 24.3236 69.73 25.6199H71.23H72.73C72.73 24.5961 72.9234 24.0989 73.0749 23.8896C73.1614 23.7702 73.2962 23.6399 73.75 23.6399V22.1399ZM71.23 25.6199H69.73C69.73 26.9161 69.9566 28.1589 70.6451 29.1096C71.3986 30.1502 72.5238 30.5999 73.75 30.5999V29.0999V27.5999C73.2962 27.5999 73.1614 27.4696 73.0749 27.3501C72.9234 27.1408 72.73 26.6436 72.73 25.6199H71.23ZM73.75 29.0999V30.5999C74.9762 30.5999 76.1014 30.1502 76.8549 29.1096C77.5434 28.1589 77.77 26.9161 77.77 25.6199H76.27H74.77C74.77 26.6436 74.5766 27.1408 74.4251 27.3501C74.3386 27.4696 74.2038 27.5999 73.75 27.5999V29.0999ZM76.27 25.6199H77.77C77.77 24.3236 77.5434 23.0808 76.8549 22.1301C76.1014 21.0896 74.9762 20.6399 73.75 20.6399V22.1399V23.6399C74.2038 23.6399 74.3386 23.7702 74.4251 23.8896C74.5766 24.0989 74.77 24.5961 74.77 25.6199H76.27Z" fill="white" mask="url(#path-1-outside-1_483_1343)"/>
</svg>
