<svg width="110" height="38" viewBox="0 0 110 38" fill="none" xmlns="http://www.w3.org/2000/svg">
<mask id="path-1-outside-1_483_1348" maskUnits="userSpaceOnUse" x="-0.900391" y="-0.139893" width="111" height="38" fill="black">
<rect fill="white" x="-0.900391" y="-0.139893" width="111" height="38"/>
<path d="M20.8596 24.9401C20.8596 26.2734 20.5263 27.5268 19.8596 28.7001C19.2196 29.8734 18.2596 30.8601 16.9796 31.6601C15.7263 32.4601 14.2329 32.9401 12.4996 33.1001V36.3401H9.89961V33.1001C7.39294 32.8601 5.36628 32.0734 3.81961 30.7401C2.27294 29.4068 1.49961 27.6468 1.49961 25.4601H6.37961C6.45961 26.5001 6.79294 27.3668 7.37961 28.0601C7.96628 28.7268 8.80628 29.1534 9.89961 29.3401V20.5401C8.11294 20.0868 6.65961 19.6334 5.53961 19.1801C4.41961 18.7001 3.45961 17.9534 2.65961 16.9401C1.88628 15.9268 1.49961 14.5401 1.49961 12.7801C1.49961 10.5668 2.27294 8.74011 3.81961 7.30011C5.36628 5.83344 7.39294 4.98011 9.89961 4.74011V1.50011H12.4996V4.74011C14.8463 4.95344 16.7263 5.70011 18.1396 6.98011C19.5796 8.23344 20.3929 9.96677 20.5796 12.1801H15.6996C15.6196 11.3534 15.2996 10.6201 14.7396 9.98011C14.1796 9.31344 13.4329 8.86011 12.4996 8.62011V17.2601C14.2863 17.6868 15.7396 18.1401 16.8596 18.6201C17.9796 19.0734 18.9263 19.8068 19.6996 20.8201C20.4729 21.8068 20.8596 23.1801 20.8596 24.9401ZM6.13961 12.5401C6.13961 13.6334 6.45961 14.4868 7.09961 15.1001C7.76628 15.7134 8.69961 16.2068 9.89961 16.5801V8.50011C8.75294 8.63344 7.83294 9.04677 7.13961 9.74011C6.47294 10.4334 6.13961 11.3668 6.13961 12.5401ZM12.4996 29.3401C13.6729 29.1534 14.5929 28.6868 15.2596 27.9401C15.9263 27.1668 16.2596 26.2468 16.2596 25.1801C16.2596 24.1134 15.9263 23.2868 15.2596 22.7001C14.6196 22.0868 13.6996 21.5934 12.4996 21.2201V29.3401ZM30.0352 26.6601C32.5952 24.4468 34.6086 22.6334 36.0752 21.2201C37.5686 19.7801 38.8086 18.2868 39.7952 16.7401C40.7819 15.1934 41.2752 13.6468 41.2752 12.1001C41.2752 10.5001 40.8886 9.24677 40.1152 8.34011C39.3686 7.43344 38.1819 6.98011 36.5552 6.98011C34.9819 6.98011 33.7552 7.48677 32.8752 8.50011C32.0219 9.48677 31.5686 10.8201 31.5152 12.5001H27.1152C27.1952 9.46011 28.1019 7.14011 29.8352 5.54011C31.5952 3.91344 33.8219 3.10011 36.5152 3.10011C39.4219 3.10011 41.6886 3.90011 43.3152 5.50011C44.9686 7.10011 45.7952 9.23344 45.7952 11.9001C45.7952 13.8201 45.3019 15.6734 44.3152 17.4601C43.3552 19.2201 42.1952 20.8068 40.8352 22.2201C39.5019 23.6068 37.7952 25.2201 35.7152 27.0601L33.9152 28.6601H46.5952V32.4601H27.1552V29.1401L30.0352 26.6601ZM80.4812 5.06011V32.8601H75.9212V13.8201L67.4412 32.8601H64.2812L55.7612 13.8201V32.8601H51.2012V5.06011H56.1212L65.8812 26.8601L75.6012 5.06011H80.4812ZM107.955 20.3401H99.8746V28.6201H95.6346V20.3401H87.5546V16.5001H95.6346V8.22011H99.8746V16.5001H107.955V20.3401Z"/>
</mask>
<path d="M19.8596 28.7001L18.5554 27.9591L18.549 27.9704L18.5428 27.9818L19.8596 28.7001ZM16.9796 31.6601L16.1846 30.3881L16.1786 30.3919L16.1726 30.3957L16.9796 31.6601ZM12.4996 33.1001L12.3617 31.6065L10.9996 31.7322V33.1001H12.4996ZM12.4996 36.3401V37.8401H13.9996V36.3401H12.4996ZM9.89961 36.3401H8.39961V37.8401H9.89961V36.3401ZM9.89961 33.1001H11.3996V31.7369L10.0426 31.6069L9.89961 33.1001ZM3.81961 30.7401L2.8402 31.8762L3.81961 30.7401ZM1.49961 25.4601V23.9601H-0.00039053V25.4601H1.49961ZM6.37961 25.4601L7.87519 25.3451L7.76866 23.9601H6.37961V25.4601ZM7.37961 28.0601L6.23453 29.029L6.24393 29.0401L6.25354 29.051L7.37961 28.0601ZM9.89961 29.3401L9.64717 30.8187L11.3996 31.1179V29.3401H9.89961ZM9.89961 20.5401H11.3996V19.3732L10.2685 19.0862L9.89961 20.5401ZM5.53961 19.1801L4.94873 20.5588L4.96272 20.5648L4.97682 20.5705L5.53961 19.1801ZM2.65961 16.9401L1.46718 17.8501L1.47465 17.8599L1.48229 17.8696L2.65961 16.9401ZM3.81961 7.30011L4.84178 8.39799L4.85175 8.38854L3.81961 7.30011ZM9.89961 4.74011L10.0426 6.23328L11.3996 6.10335V4.74011H9.89961ZM9.89961 1.50011V0.000105858H8.39961V1.50011H9.89961ZM12.4996 1.50011H13.9996V0.000105858H12.4996V1.50011ZM12.4996 4.74011H10.9996V6.10993L12.3638 6.23395L12.4996 4.74011ZM18.1396 6.98011L17.1327 8.09191L17.1437 8.10185L17.1548 8.11156L18.1396 6.98011ZM20.5796 12.1801V13.6801H22.2114L22.0743 12.054L20.5796 12.1801ZM15.6996 12.1801L14.2066 12.3246L14.3378 13.6801H15.6996V12.1801ZM14.7396 9.98011L13.5911 10.9449L13.6008 10.9565L13.6107 10.9679L14.7396 9.98011ZM12.4996 8.62011L12.8732 7.16737L10.9996 6.68559V8.62011H12.4996ZM12.4996 17.2601H10.9996V18.4441L12.1512 18.7191L12.4996 17.2601ZM16.8596 18.6201L16.2687 19.9988L16.2827 20.0048L16.2968 20.0105L16.8596 18.6201ZM19.6996 20.8201L18.5072 21.7301L18.5131 21.7378L18.519 21.7454L19.6996 20.8201ZM7.09961 15.1001L6.06175 16.1831L6.07278 16.1937L6.08402 16.204L7.09961 15.1001ZM9.89961 16.5801L9.45401 18.0124L11.3996 18.6177V16.5801H9.89961ZM9.89961 8.50011H11.3996V6.81558L9.72636 7.01015L9.89961 8.50011ZM7.13961 9.74011L6.07895 8.67945L6.06855 8.68984L6.05836 8.70044L7.13961 9.74011ZM12.4996 29.3401H10.9996V31.0976L12.7353 30.8215L12.4996 29.3401ZM15.2596 27.9401L16.3785 28.9391L16.3872 28.9294L16.3957 28.9195L15.2596 27.9401ZM15.2596 22.7001L14.2218 23.7831L14.2448 23.8051L14.2687 23.8262L15.2596 22.7001ZM12.4996 21.2201L12.9452 19.7878L10.9996 19.1825V21.2201H12.4996ZM20.8596 24.9401H19.3596C19.3596 26.0104 19.0954 27.0088 18.5554 27.9591L19.8596 28.7001L21.1638 29.4411C21.9572 28.0448 22.3596 26.5365 22.3596 24.9401H20.8596ZM19.8596 28.7001L18.5428 27.9818C18.0415 28.9008 17.2747 29.7068 16.1846 30.3881L16.9796 31.6601L17.7746 32.9321C19.2445 32.0134 20.3977 30.8461 21.1765 29.4184L19.8596 28.7001ZM16.9796 31.6601L16.1726 30.3957C15.1526 31.0468 13.8976 31.4647 12.3617 31.6065L12.4996 33.1001L12.6375 34.5938C14.5683 34.4155 16.2999 33.8735 17.7867 32.9245L16.9796 31.6601ZM12.4996 33.1001H10.9996V36.3401H12.4996H13.9996V33.1001H12.4996ZM12.4996 36.3401V34.8401H9.89961V36.3401V37.8401H12.4996V36.3401ZM9.89961 36.3401H11.3996V33.1001H9.89961H8.39961V36.3401H9.89961ZM9.89961 33.1001L10.0426 31.6069C7.77199 31.3895 6.06053 30.6915 4.79902 29.604L3.81961 30.7401L2.8402 31.8762C4.67203 33.4554 7.0139 34.3307 9.75665 34.5933L9.89961 33.1001ZM3.81961 30.7401L4.79902 29.604C3.60855 28.5777 2.99961 27.2454 2.99961 25.4601H1.49961H-0.00039053C-0.00039053 28.0481 0.937335 30.2358 2.8402 31.8762L3.81961 30.7401ZM1.49961 25.4601V26.9601H6.37961V25.4601V23.9601H1.49961V25.4601ZM6.37961 25.4601L4.88403 25.5752C4.98449 26.8811 5.4149 28.0604 6.23453 29.029L7.37961 28.0601L8.52469 27.0912C8.17098 26.6732 7.93473 26.1191 7.87519 25.3451L6.37961 25.4601ZM7.37961 28.0601L6.25354 29.051C7.11883 30.0343 8.30176 30.589 9.64717 30.8187L9.89961 29.3401L10.1521 27.8615C9.31079 27.7179 8.81372 27.4192 8.50568 27.0692L7.37961 28.0601ZM9.89961 29.3401H11.3996V20.5401H9.89961H8.39961V29.3401H9.89961ZM9.89961 20.5401L10.2685 19.0862C8.51742 18.6419 7.13567 18.2079 6.1024 17.7897L5.53961 19.1801L4.97682 20.5705C6.18355 21.059 7.70847 21.5317 9.5307 21.994L9.89961 20.5401ZM5.53961 19.1801L6.13049 17.8014C5.25409 17.4258 4.49149 16.8397 3.83693 16.0106L2.65961 16.9401L1.48229 17.8696C2.42773 19.0671 3.58513 19.9744 4.94873 20.5588L5.53961 19.1801ZM2.65961 16.9401L3.85204 16.0301C3.34181 15.3615 2.99961 14.3343 2.99961 12.7801H1.49961H-0.00039053C-0.00039053 14.7459 0.430743 16.492 1.46718 17.8501L2.65961 16.9401ZM1.49961 12.7801H2.99961C2.99961 10.961 3.61573 9.5394 4.84174 8.39795L3.81961 7.30011L2.79748 6.20226C0.930154 7.94081 -0.00039053 10.1726 -0.00039053 12.7801H1.49961ZM3.81961 7.30011L4.85175 8.38854C6.11338 7.19217 7.80637 6.44738 10.0426 6.23328L9.89961 4.74011L9.75665 3.24694C6.97952 3.51283 4.61918 4.47471 2.78747 6.21167L3.81961 7.30011ZM9.89961 4.74011H11.3996V1.50011H9.89961H8.39961V4.74011H9.89961ZM9.89961 1.50011V3.00011H12.4996V1.50011V0.000105858H9.89961V1.50011ZM12.4996 1.50011H10.9996V4.74011H12.4996H13.9996V1.50011H12.4996ZM12.4996 4.74011L12.3638 6.23395C14.4642 6.42489 16.0128 7.07763 17.1327 8.09191L18.1396 6.98011L19.1465 5.8683C17.4398 4.32258 15.2283 3.48198 12.6354 3.24627L12.4996 4.74011ZM18.1396 6.98011L17.1548 8.11156C18.2526 9.06705 18.9253 10.4132 19.0849 12.3062L20.5796 12.1801L22.0743 12.054C21.8606 9.52039 20.9066 7.39983 19.1244 5.84865L18.1396 6.98011ZM20.5796 12.1801V10.6801H15.6996V12.1801V13.6801H20.5796V12.1801ZM15.6996 12.1801L17.1926 12.0356C17.0817 10.8888 16.6298 9.86239 15.8685 8.99235L14.7396 9.98011L13.6107 10.9679C13.9695 11.3778 14.1576 11.8181 14.2066 12.3246L15.6996 12.1801ZM14.7396 9.98011L15.8882 9.01532C15.1056 8.08371 14.0755 7.47653 12.8732 7.16737L12.4996 8.62011L12.126 10.0728C12.7904 10.2437 13.2536 10.5432 13.5911 10.9449L14.7396 9.98011ZM12.4996 8.62011H10.9996V17.2601H12.4996H13.9996V8.62011H12.4996ZM12.4996 17.2601L12.1512 18.7191C13.8921 19.1348 15.2558 19.5647 16.2687 19.9988L16.8596 18.6201L17.4505 17.2414C16.2234 16.7155 14.6805 16.2387 12.848 15.8011L12.4996 17.2601ZM16.8596 18.6201L16.2968 20.0105C17.1538 20.3574 17.8876 20.9182 18.5072 21.7301L19.6996 20.8201L20.892 19.9101C19.965 18.6953 18.8054 17.7895 17.4224 17.2297L16.8596 18.6201ZM19.6996 20.8201L18.519 21.7454C19.0162 22.3797 19.3596 23.3828 19.3596 24.9401H20.8596H22.3596C22.3596 22.9774 21.9297 21.2338 20.8802 19.8948L19.6996 20.8201ZM6.13961 12.5401H4.63961C4.63961 13.9404 5.06025 15.2233 6.06175 16.1831L7.09961 15.1001L8.13747 14.0171C7.85897 13.7502 7.63961 13.3265 7.63961 12.5401H6.13961ZM7.09961 15.1001L6.08402 16.204C6.96456 17.0141 8.11916 17.5971 9.45401 18.0124L9.89961 16.5801L10.3452 15.1478C9.28006 14.8164 8.56799 14.4128 8.11519 13.9962L7.09961 15.1001ZM9.89961 16.5801H11.3996V8.50011H9.89961H8.39961V16.5801H9.89961ZM9.89961 8.50011L9.72636 7.01015C8.30597 7.17531 7.05196 7.70644 6.07895 8.67945L7.13961 9.74011L8.20027 10.8008C8.61393 10.3871 9.19991 10.0916 10.0729 9.99007L9.89961 8.50011ZM7.13961 9.74011L6.05836 8.70044C5.06639 9.73209 4.63961 11.0693 4.63961 12.5401H6.13961H7.63961C7.63961 11.6642 7.87949 11.1348 8.22086 10.7798L7.13961 9.74011ZM12.4996 29.3401L12.7353 30.8215C14.1833 30.5911 15.4406 29.9896 16.3785 28.9391L15.2596 27.9401L14.1407 26.9411C13.7453 27.3839 13.1626 27.7158 12.2639 27.8587L12.4996 29.3401ZM15.2596 27.9401L16.3957 28.9195C17.3083 27.8609 17.7596 26.5888 17.7596 25.1801H16.2596H14.7596C14.7596 25.9048 14.5442 26.4727 14.1235 26.9607L15.2596 27.9401ZM16.2596 25.1801H17.7596C17.7596 23.7771 17.3057 22.5026 16.2506 21.574L15.2596 22.7001L14.2687 23.8262C14.5468 24.071 14.7596 24.4498 14.7596 25.1801H16.2596ZM15.2596 22.7001L16.2975 21.6171C15.4347 20.7903 14.2804 20.2032 12.9452 19.7878L12.4996 21.2201L12.054 22.6524C13.1188 22.9837 13.8046 23.3833 14.2218 23.7831L15.2596 22.7001ZM12.4996 21.2201H10.9996V29.3401H12.4996H13.9996V21.2201H12.4996ZM30.0352 26.6601L31.014 27.7968L31.0163 27.7948L30.0352 26.6601ZM36.0752 21.2201L37.1161 22.3002L37.1164 22.2999L36.0752 21.2201ZM40.1152 8.34011L38.9573 9.29367L38.9656 9.30367L38.974 9.31353L40.1152 8.34011ZM32.8752 8.50011L31.7427 7.51657L31.7407 7.51888L32.8752 8.50011ZM31.5152 12.5001V14.0001H32.9684L33.0145 12.5477L31.5152 12.5001ZM27.1152 12.5001L25.6158 12.4606L25.5752 14.0001H27.1152V12.5001ZM29.8352 5.54011L30.8527 6.64231L30.8533 6.64167L29.8352 5.54011ZM43.3152 5.50011L42.2633 6.56953L42.2721 6.57801L43.3152 5.50011ZM44.3152 17.4601L43.0021 16.735L42.9984 16.7418L44.3152 17.4601ZM40.8352 22.2201L39.7544 21.18L39.754 21.1804L40.8352 22.2201ZM35.7152 27.0601L34.7214 25.9366L34.7187 25.939L35.7152 27.0601ZM33.9152 28.6601L32.9187 27.539L29.9699 30.1601H33.9152V28.6601ZM46.5952 28.6601H48.0952V27.1601H46.5952V28.6601ZM46.5952 32.4601V33.9601H48.0952V32.4601H46.5952ZM27.1552 32.4601H25.6552V33.9601H27.1552V32.4601ZM27.1552 29.1401L26.1765 28.0035L25.6552 28.4523V29.1401H27.1552ZM30.0352 26.6601L31.0163 27.7948C33.5853 25.5737 35.6215 23.7404 37.1161 22.3002L36.0752 21.2201L35.0344 20.14C33.5956 21.5264 31.6052 23.3199 29.0542 25.5254L30.0352 26.6601ZM36.0752 21.2201L37.1164 22.2999C38.6839 20.7884 40.0021 19.2049 41.0598 17.5468L39.7952 16.7401L38.5306 15.9334C37.6151 17.3686 36.4533 18.7718 35.034 20.1403L36.0752 21.2201ZM39.7952 16.7401L41.0598 17.5468C42.1712 15.8047 42.7752 13.9822 42.7752 12.1001H41.2752H39.7752C39.7752 13.3114 39.3926 14.5822 38.5306 15.9334L39.7952 16.7401ZM41.2752 12.1001H42.7752C42.7752 10.2664 42.3304 8.62574 41.2565 7.36669L40.1152 8.34011L38.974 9.31353C39.4468 9.8678 39.7752 10.7338 39.7752 12.1001H41.2752ZM40.1152 8.34011L41.2731 7.38655C40.1434 6.01467 38.4486 5.48011 36.5552 5.48011V6.98011V8.48011C37.9152 8.48011 38.5938 8.85221 38.9573 9.29367L40.1152 8.34011ZM36.5552 6.98011V5.48011C34.63 5.48011 32.9576 6.11757 31.7427 7.51658L32.8752 8.50011L34.0078 9.48364C34.5529 8.85598 35.3338 8.48011 36.5552 8.48011V6.98011ZM32.8752 8.50011L31.7407 7.51888C30.6043 8.83287 30.077 10.5293 30.016 12.4525L31.5152 12.5001L33.0145 12.5477C33.0601 11.1109 33.4395 10.1407 34.0098 9.48133L32.8752 8.50011ZM31.5152 12.5001V11.0001H27.1152V12.5001V14.0001H31.5152V12.5001ZM27.1152 12.5001L28.6147 12.5396C28.6873 9.78147 29.4965 7.89417 30.8527 6.64231L29.8352 5.54011L28.8178 4.4379C26.7073 6.38604 25.7032 9.13874 25.6158 12.4606L27.1152 12.5001ZM29.8352 5.54011L30.8533 6.64167C32.3013 5.30345 34.1489 4.60011 36.5152 4.60011V3.10011V1.60011C33.4949 1.60011 30.8892 2.52343 28.8171 4.43854L29.8352 5.54011ZM36.5152 3.10011V4.60011C39.1412 4.60011 40.9886 5.31561 42.2634 6.5695L43.3152 5.50011L44.3671 4.43072C42.3885 2.48461 39.7026 1.60011 36.5152 1.60011V3.10011ZM43.3152 5.50011L42.2721 6.57801C43.5865 7.85002 44.2952 9.56951 44.2952 11.9001H45.7952H47.2952C47.2952 8.89737 46.3506 6.35019 44.3584 4.4222L43.3152 5.50011ZM45.7952 11.9001H44.2952C44.2952 13.5505 43.8742 15.1559 43.0022 16.735L44.3152 17.4601L45.6283 18.1852C46.7296 16.191 47.2952 14.0897 47.2952 11.9001H45.7952ZM44.3152 17.4601L42.9984 16.7418C42.1009 18.3871 41.0197 19.8651 39.7544 21.18L40.8352 22.2201L41.9161 23.2602C43.3708 21.7484 44.6095 20.0531 45.6321 18.1784L44.3152 17.4601ZM40.8352 22.2201L39.754 21.1804C38.4579 22.5284 36.7831 24.1128 34.7214 25.9366L35.7152 27.0601L36.7091 28.1836C38.8074 26.3275 40.5459 24.6852 41.9165 23.2598L40.8352 22.2201ZM35.7152 27.0601L34.7187 25.939L32.9187 27.539L33.9152 28.6601L34.9118 29.7812L36.7118 28.1812L35.7152 27.0601ZM33.9152 28.6601V30.1601H46.5952V28.6601V27.1601H33.9152V28.6601ZM46.5952 28.6601H45.0952V32.4601H46.5952H48.0952V28.6601H46.5952ZM46.5952 32.4601V30.9601H27.1552V32.4601V33.9601H46.5952V32.4601ZM27.1552 32.4601H28.6552V29.1401H27.1552H25.6552V32.4601H27.1552ZM27.1552 29.1401L28.134 30.2768L31.014 27.7968L30.0352 26.6601L29.0564 25.5235L26.1765 28.0035L27.1552 29.1401ZM80.4812 5.06011H81.9812V3.56011H80.4812V5.06011ZM80.4812 32.8601V34.3601H81.9812V32.8601H80.4812ZM75.9212 32.8601H74.4212V34.3601H75.9212V32.8601ZM75.9212 13.8201H77.4212L74.5509 13.2098L75.9212 13.8201ZM67.4412 32.8601V34.3601H68.4152L68.8114 33.4704L67.4412 32.8601ZM64.2812 32.8601L62.912 33.4728L63.3091 34.3601H64.2812V32.8601ZM55.7612 13.8201L57.1303 13.2074L54.2612 13.8201H55.7612ZM55.7612 32.8601V34.3601H57.2612V32.8601H55.7612ZM51.2012 32.8601H49.7012V34.3601H51.2012V32.8601ZM51.2012 5.06011V3.56011H49.7012V5.06011H51.2012ZM56.1212 5.06011L57.4902 4.44717L57.0931 3.56011H56.1212V5.06011ZM65.8812 26.8601L64.5121 27.473L65.884 30.5373L67.2512 27.4709L65.8812 26.8601ZM75.6012 5.06011V3.56011H74.6276L74.2312 4.44927L75.6012 5.06011ZM80.4812 5.06011H78.9812V32.8601H80.4812H81.9812V5.06011H80.4812ZM80.4812 32.8601V31.3601H75.9212V32.8601V34.3601H80.4812V32.8601ZM75.9212 32.8601H77.4212V13.8201H75.9212H74.4212V32.8601H75.9212ZM75.9212 13.8201L74.5509 13.2098L66.0709 32.2498L67.4412 32.8601L68.8114 33.4704L77.2914 14.4304L75.9212 13.8201ZM67.4412 32.8601V31.3601H64.2812V32.8601V34.3601H67.4412V32.8601ZM64.2812 32.8601L65.6503 32.2474L57.1303 13.2074L55.7612 13.8201L54.392 14.4328L62.912 33.4728L64.2812 32.8601ZM55.7612 13.8201H54.2612V32.8601H55.7612H57.2612V13.8201H55.7612ZM55.7612 32.8601V31.3601H51.2012V32.8601V34.3601H55.7612V32.8601ZM51.2012 32.8601H52.7012V5.06011H51.2012H49.7012V32.8601H51.2012ZM51.2012 5.06011V6.56011H56.1212V5.06011V3.56011H51.2012V5.06011ZM56.1212 5.06011L54.7521 5.67304L64.5121 27.473L65.8812 26.8601L67.2502 26.2472L57.4902 4.44717L56.1212 5.06011ZM65.8812 26.8601L67.2512 27.4709L76.9712 5.67095L75.6012 5.06011L74.2312 4.44927L64.5112 26.2493L65.8812 26.8601ZM75.6012 5.06011V6.56011H80.4812V5.06011V3.56011H75.6012V5.06011ZM107.955 20.3401V21.8401H109.455V20.3401H107.955ZM99.8746 20.3401V18.8401H98.3746V20.3401H99.8746ZM99.8746 28.6201V30.1201H101.375V28.6201H99.8746ZM95.6346 28.6201H94.1346V30.1201H95.6346V28.6201ZM95.6346 20.3401H97.1346V18.8401H95.6346V20.3401ZM87.5546 20.3401H86.0546V21.8401H87.5546V20.3401ZM87.5546 16.5001V15.0001H86.0546V16.5001H87.5546ZM95.6346 16.5001V18.0001H97.1346V16.5001H95.6346ZM95.6346 8.2201V6.72011H94.1346V8.2201H95.6346ZM99.8746 8.2201H101.375V6.72011H99.8746V8.2201ZM99.8746 16.5001H98.3746V18.0001H99.8746V16.5001ZM107.955 16.5001H109.455V15.0001H107.955V16.5001ZM107.955 20.3401V18.8401H99.8746V20.3401V21.8401H107.955V20.3401ZM99.8746 20.3401H98.3746V28.6201H99.8746H101.375V20.3401H99.8746ZM99.8746 28.6201V27.1201H95.6346V28.6201V30.1201H99.8746V28.6201ZM95.6346 28.6201H97.1346V20.3401H95.6346H94.1346V28.6201H95.6346ZM95.6346 20.3401V18.8401H87.5546V20.3401V21.8401H95.6346V20.3401ZM87.5546 20.3401H89.0546V16.5001H87.5546H86.0546V20.3401H87.5546ZM87.5546 16.5001V18.0001H95.6346V16.5001V15.0001H87.5546V16.5001ZM95.6346 16.5001H97.1346V8.2201H95.6346H94.1346V16.5001H95.6346ZM95.6346 8.2201V9.7201H99.8746V8.2201V6.72011H95.6346V8.2201ZM99.8746 8.2201H98.3746V16.5001H99.8746H101.375V8.2201H99.8746ZM99.8746 16.5001V18.0001H107.955V16.5001V15.0001H99.8746V16.5001ZM107.955 16.5001H106.455V20.3401H107.955H109.455V16.5001H107.955Z" fill="white" mask="url(#path-1-outside-1_483_1348)"/>
</svg>
