<svg width="102" height="33" viewBox="0 0 102 33" fill="none" xmlns="http://www.w3.org/2000/svg">
<mask id="path-1-outside-1_483_1369" maskUnits="userSpaceOnUse" x="-0.224609" y="-0.820068" width="102" height="34" fill="black">
<rect fill="white" x="-0.224609" y="-0.820068" width="102" height="34"/>
<path d="M19.9754 5.93993H6.57539V13.8999C7.13539 13.1533 7.96206 12.5266 9.05539 12.0199C10.1754 11.5133 11.3621 11.2599 12.6154 11.2599C14.8554 11.2599 16.6687 11.7399 18.0554 12.6999C19.4687 13.6599 20.4687 14.8733 21.0554 16.3399C21.6687 17.8066 21.9754 19.3533 21.9754 20.9799C21.9754 22.9533 21.5887 24.7133 20.8154 26.2599C20.0687 27.7799 18.9354 28.9799 17.4154 29.8599C15.9221 30.7399 14.0821 31.1799 11.8954 31.1799C8.98872 31.1799 6.65539 30.4599 4.89539 29.0199C3.13539 27.5799 2.08206 25.6733 1.73539 23.2999H6.17539C6.46872 24.5533 7.12206 25.5533 8.13539 26.2999C9.14872 27.0199 10.4154 27.3799 11.9354 27.3799C13.8287 27.3799 15.2421 26.8066 16.1754 25.6599C17.1354 24.5133 17.6154 22.9933 17.6154 21.0999C17.6154 19.1799 17.1354 17.7133 16.1754 16.6999C15.2154 15.6599 13.8021 15.1399 11.9354 15.1399C10.6287 15.1399 9.52206 15.4733 8.61539 16.1399C7.73539 16.7799 7.09539 17.6599 6.69539 18.7799H2.37539V1.93993H19.9754V5.93993ZM26.7223 16.2199C26.7223 11.6066 27.4956 8.0066 29.0423 5.41993C30.6156 2.8066 33.3089 1.49993 37.1223 1.49993C40.9356 1.49993 43.6156 2.8066 45.1623 5.41993C46.7356 8.0066 47.5223 11.6066 47.5223 16.2199C47.5223 20.8866 46.7356 24.5399 45.1623 27.1799C43.6156 29.7933 40.9356 31.0999 37.1223 31.0999C33.3089 31.0999 30.6156 29.7933 29.0423 27.1799C27.4956 24.5399 26.7223 20.8866 26.7223 16.2199ZM43.0423 16.2199C43.0423 14.0599 42.8956 12.2333 42.6023 10.7399C42.3356 9.2466 41.7756 8.03326 40.9223 7.09993C40.0689 6.13993 38.8023 5.65993 37.1223 5.65993C35.4423 5.65993 34.1756 6.13993 33.3223 7.09993C32.4689 8.03326 31.8956 9.2466 31.6023 10.7399C31.3356 12.2333 31.2023 14.0599 31.2023 16.2199C31.2023 18.4599 31.3356 20.3399 31.6023 21.8599C31.8689 23.3799 32.4289 24.6066 33.2823 25.5399C34.1623 26.4733 35.4423 26.9399 37.1223 26.9399C38.8023 26.9399 40.0689 26.4733 40.9223 25.5399C41.8023 24.6066 42.3756 23.3799 42.6423 21.8599C42.9089 20.3399 43.0423 18.4599 43.0423 16.2199ZM68.2673 31.1799L57.5073 18.7399V31.1799H52.9473V3.37993H57.5073V16.0599L68.3073 3.37993H74.0273L61.9473 17.2999L74.2273 31.1799H68.2673ZM99.7398 18.6599H91.6598V26.9399H87.4198V18.6599H79.3398V14.8199H87.4198V6.53993H91.6598V14.8199H99.7398V18.6599Z"/>
</mask>
<path d="M19.9754 5.93993V7.43993H21.4754V5.93993H19.9754ZM6.57539 5.93993V4.43993H5.07539V5.93993H6.57539ZM6.57539 13.8999H5.07539V18.3999L7.77539 14.7999L6.57539 13.8999ZM9.05539 12.0199L8.43711 10.6532L8.4247 10.659L9.05539 12.0199ZM18.0554 12.6999L17.2015 13.9333L17.2126 13.9408L18.0554 12.6999ZM21.0554 16.3399L19.6627 16.897L19.667 16.9079L19.6715 16.9186L21.0554 16.3399ZM20.8154 26.2599L19.4737 25.5891L19.4691 25.5986L20.8154 26.2599ZM17.4154 29.8599L16.6638 28.5618L16.6539 28.5676L17.4154 29.8599ZM4.89539 29.0199L5.84525 27.859V27.859L4.89539 29.0199ZM1.73539 23.2999V21.7999H0.000372171L0.251141 23.5167L1.73539 23.2999ZM6.17539 23.2999L7.63592 22.9581L7.36486 21.7999H6.17539V23.2999ZM8.13539 26.2999L7.24559 27.5075L7.25602 27.5152L7.26658 27.5227L8.13539 26.2999ZM16.1754 25.6599L15.0253 24.697L15.0186 24.705L15.012 24.713L16.1754 25.6599ZM16.1754 16.6999L15.0732 17.7174L15.0798 17.7245L15.0865 17.7315L16.1754 16.6999ZM8.61539 16.1399L9.49766 17.3531L9.50398 17.3484L8.61539 16.1399ZM6.69539 18.7799V20.2799H7.75247L8.108 19.2844L6.69539 18.7799ZM2.37539 18.7799H0.875391V20.2799H2.37539V18.7799ZM2.37539 1.93993V0.439932H0.875391V1.93993H2.37539ZM19.9754 1.93993H21.4754V0.439932H19.9754V1.93993ZM19.9754 5.93993V4.43993H6.57539V5.93993V7.43993H19.9754V5.93993ZM6.57539 5.93993H5.07539V13.8999H6.57539H8.07539V5.93993H6.57539ZM6.57539 13.8999L7.77539 14.7999C8.14958 14.301 8.75406 13.8128 9.68608 13.3809L9.05539 12.0199L8.4247 10.659C7.17005 11.2404 6.1212 12.0055 5.37539 12.9999L6.57539 13.8999ZM9.05539 12.0199L9.67364 13.3866C10.5955 12.9696 11.571 12.7599 12.6154 12.7599V11.2599V9.75993C11.1531 9.75993 9.75528 10.057 8.43714 10.6533L9.05539 12.0199ZM12.6154 11.2599V12.7599C14.6489 12.7599 16.1362 13.1957 17.2016 13.9332L18.0554 12.6999L18.9092 11.4666C17.2012 10.2842 15.0618 9.75993 12.6154 9.75993V11.2599ZM18.0554 12.6999L17.2126 13.9408C18.3997 14.7471 19.1962 15.7308 19.6627 16.897L21.0554 16.3399L22.4481 15.7828C21.7413 14.0157 20.5378 12.5728 18.8982 11.4591L18.0554 12.6999ZM21.0554 16.3399L19.6715 16.9186C20.2064 18.1977 20.4754 19.5472 20.4754 20.9799H21.9754H23.4754C23.4754 19.1593 23.1311 17.4155 22.4393 15.7612L21.0554 16.3399ZM21.9754 20.9799H20.4754C20.4754 22.7534 20.1291 24.2784 19.4738 25.5891L20.8154 26.2599L22.157 26.9308C23.0483 25.1481 23.4754 23.1531 23.4754 20.9799H21.9754ZM20.8154 26.2599L19.4691 25.5986C18.8583 26.8419 17.937 27.8247 16.6638 28.5618L17.4154 29.8599L18.1669 31.1581C19.9338 30.1352 21.2791 28.718 22.1617 26.9213L20.8154 26.2599ZM17.4154 29.8599L16.6539 28.5676C15.4443 29.2804 13.8834 29.6799 11.8954 29.6799V31.1799V32.6799C14.2808 32.6799 16.3998 32.1995 18.1769 31.1522L17.4154 29.8599ZM11.8954 31.1799V29.6799C9.23686 29.6799 7.27005 29.0247 5.84525 27.859L4.89539 29.0199L3.94553 30.1809C6.04074 31.8951 8.74059 32.6799 11.8954 32.6799V31.1799ZM4.89539 29.0199L5.84525 27.859C4.39186 26.6699 3.51546 25.1083 3.21964 23.0831L1.73539 23.2999L0.251141 23.5167C0.648659 26.2382 1.87892 28.49 3.94553 30.1809L4.89539 29.0199ZM1.73539 23.2999V24.7999H6.17539V23.2999V21.7999H1.73539V23.2999ZM6.17539 23.2999L4.71486 23.6418C5.08745 25.2337 5.93811 26.5441 7.24559 27.5075L8.13539 26.2999L9.02519 25.0923C8.30601 24.5624 7.85 23.8728 7.63592 22.9581L6.17539 23.2999ZM8.13539 26.2999L7.26658 27.5227C8.58569 28.46 10.1745 28.8799 11.9354 28.8799V27.3799V25.8799C10.6563 25.8799 9.71176 25.5799 9.0042 25.0772L8.13539 26.2999ZM11.9354 27.3799V28.8799C14.1427 28.8799 16.0439 28.1976 17.3387 26.6068L16.1754 25.6599L15.012 24.713C14.4402 25.4156 13.5148 25.8799 11.9354 25.8799V27.3799ZM16.1754 25.6599L17.3255 26.6228C18.5663 25.1408 19.1154 23.2493 19.1154 21.0999H17.6154H16.1154C16.1154 22.7372 15.7044 23.8858 15.0253 24.697L16.1754 25.6599ZM17.6154 21.0999H19.1154C19.1154 18.9422 18.574 17.0508 17.2643 15.6683L16.1754 16.6999L15.0865 17.7315C15.6968 18.3758 16.1154 19.4177 16.1154 21.0999H17.6154ZM16.1754 16.6999L17.2776 15.6825C15.9508 14.2451 14.0805 13.6399 11.9354 13.6399V15.1399V16.6399C13.5236 16.6399 14.48 17.0748 15.0732 17.7174L16.1754 16.6999ZM11.9354 15.1399V13.6399C10.3624 13.6399 8.93095 14.0461 7.7268 14.9315L8.61539 16.1399L9.50398 17.3484C10.1132 16.9005 10.895 16.6399 11.9354 16.6399V15.1399ZM8.61539 16.1399L7.73313 14.9268C6.5864 15.7608 5.7744 16.8989 5.28278 18.2754L6.69539 18.7799L8.108 19.2844C8.41639 18.421 8.88438 17.799 9.49765 17.353L8.61539 16.1399ZM6.69539 18.7799V17.2799H2.37539V18.7799V20.2799H6.69539V18.7799ZM2.37539 18.7799H3.87539V1.93993H2.37539H0.875391V18.7799H2.37539ZM2.37539 1.93993V3.43993H19.9754V1.93993V0.439932H2.37539V1.93993ZM19.9754 1.93993H18.4754V5.93993H19.9754H21.4754V1.93993H19.9754ZM29.0423 5.41993L27.7572 4.64625L27.7549 4.65014L29.0423 5.41993ZM45.1623 5.41993L43.8714 6.18391L43.876 6.1917L43.8807 6.19943L45.1623 5.41993ZM45.1623 27.1799L43.8737 26.412L43.8714 26.416L45.1623 27.1799ZM29.0423 27.1799L27.748 27.9382L27.7526 27.9459L27.7572 27.9536L29.0423 27.1799ZM42.6023 10.7399L41.1256 11.0036L41.1279 11.0164L41.1304 11.029L42.6023 10.7399ZM40.9223 7.09993L39.8012 8.09648L39.8081 8.10433L39.8152 8.11208L40.9223 7.09993ZM33.3223 7.09993L34.4293 8.11208L34.4364 8.10433L34.4434 8.09648L33.3223 7.09993ZM31.6023 10.7399L30.1304 10.4508L30.1279 10.4635L30.1256 10.4762L31.6023 10.7399ZM31.6023 21.8599L33.0797 21.6007V21.6007L31.6023 21.8599ZM33.2823 25.5399L32.1752 26.5521L32.183 26.5606L32.1909 26.569L33.2823 25.5399ZM40.9223 25.5399L39.8309 24.5109L39.823 24.5193L39.8152 24.5278L40.9223 25.5399ZM42.6423 21.8599L44.1197 22.1191V22.1191L42.6423 21.8599ZM26.7223 16.2199H28.2223C28.2223 11.7452 28.9772 8.45154 30.3297 6.18972L29.0423 5.41993L27.7549 4.65014C26.014 7.56166 25.2223 11.468 25.2223 16.2199H26.7223ZM29.0423 5.41993L30.3273 6.1936C31.5592 4.14754 33.683 2.99993 37.1223 2.99993V1.49993V-7.05719e-05C32.9349 -7.05719e-05 29.672 1.46565 27.7572 4.64626L29.0423 5.41993ZM37.1223 1.49993V2.99993C40.5624 2.99993 42.6661 4.14735 43.8714 6.18391L45.1623 5.41993L46.4531 4.65595C44.5651 1.46584 41.3088 -7.05719e-05 37.1223 -7.05719e-05V1.49993ZM45.1623 5.41993L43.8807 6.19943C45.255 8.45884 46.0223 11.7484 46.0223 16.2199H47.5223H49.0223C49.0223 11.4648 48.2162 7.55435 46.4438 4.64043L45.1623 5.41993ZM47.5223 16.2199H46.0223C46.0223 20.7457 45.2547 24.0947 43.8737 26.412L45.1623 27.1799L46.4508 27.9478C48.2165 24.9851 49.0223 21.0275 49.0223 16.2199H47.5223ZM45.1623 27.1799L43.8714 26.416C42.6661 28.4525 40.5624 29.5999 37.1223 29.5999V31.0999V32.5999C41.3088 32.5999 44.5651 31.134 46.4531 27.9439L45.1623 27.1799ZM37.1223 31.0999V29.5999C33.683 29.5999 31.5592 28.4523 30.3273 26.4063L29.0423 27.1799L27.7572 27.9536C29.672 31.1342 32.9349 32.5999 37.1223 32.5999V31.0999ZM29.0423 27.1799L30.3365 26.4217C28.9775 24.102 28.2223 20.749 28.2223 16.2199H26.7223H25.2223C25.2223 21.0242 26.0137 24.9779 27.748 27.9382L29.0423 27.1799ZM43.0423 16.2199H44.5423C44.5423 13.9997 44.3921 12.0697 44.0741 10.4508L42.6023 10.7399L41.1304 11.029C41.3991 12.3968 41.5423 14.1202 41.5423 16.2199H43.0423ZM42.6023 10.7399L44.0789 10.4762C43.7724 8.75977 43.1094 7.26914 42.0293 6.08778L40.9223 7.09993L39.8152 8.11208C40.4418 8.79738 40.8988 9.73343 41.1256 11.0036L42.6023 10.7399ZM40.9223 7.09993L42.0434 6.10338C40.8241 4.73167 39.0908 4.15993 37.1223 4.15993V5.65993V7.15993C38.5137 7.15993 39.3138 7.54819 39.8012 8.09648L40.9223 7.09993ZM37.1223 5.65993V4.15993C35.1537 4.15993 33.4205 4.73167 32.2012 6.10338L33.3223 7.09993L34.4434 8.09648C34.9307 7.54819 35.7308 7.15993 37.1223 7.15993V5.65993ZM33.3223 7.09993L32.2152 6.08778C31.1417 7.26195 30.4659 8.74274 30.1304 10.4508L31.6023 10.7399L33.0741 11.029C33.3253 9.75045 33.7962 8.80458 34.4293 8.11208L33.3223 7.09993ZM31.6023 10.7399L30.1256 10.4762C29.8384 12.0846 29.7023 14.0053 29.7023 16.2199H31.2023H32.7023C32.7023 14.1145 32.8328 12.382 33.0789 11.0036L31.6023 10.7399ZM31.2023 16.2199H29.7023C29.7023 18.5117 29.8381 20.4848 30.1248 22.1191L31.6023 21.8599L33.0797 21.6007C32.8331 20.1951 32.7023 18.4082 32.7023 16.2199H31.2023ZM31.6023 21.8599L30.1248 22.1191C30.4299 23.858 31.0907 25.3659 32.1752 26.5521L33.2823 25.5399L34.3893 24.5278C33.7672 23.8473 33.308 22.9018 33.0797 21.6007L31.6023 21.8599ZM33.2823 25.5399L32.1909 26.569C33.4348 27.8883 35.1634 28.4399 37.1223 28.4399V26.9399V25.4399C35.7211 25.4399 34.8897 25.0582 34.3736 24.5109L33.2823 25.5399ZM37.1223 26.9399V28.4399C39.0783 28.4399 40.8068 27.8893 42.0293 26.5521L40.9223 25.5399L39.8152 24.5278C39.3311 25.0573 38.5263 25.4399 37.1223 25.4399V26.9399ZM40.9223 25.5399L42.0136 26.569C43.1325 25.3823 43.8128 23.8686 44.1197 22.1191L42.6423 21.8599L41.1648 21.6007C40.9384 22.8913 40.472 23.8309 39.8309 24.5109L40.9223 25.5399ZM42.6423 21.8599L44.1197 22.1191C44.4064 20.4848 44.5423 18.5117 44.5423 16.2199H43.0423H41.5423C41.5423 18.4082 41.4114 20.1951 41.1648 21.6007L42.6423 21.8599ZM68.2673 31.1799L67.1328 32.1612L67.5814 32.6799H68.2673V31.1799ZM57.5073 18.7399L58.6418 17.7586L56.0073 14.7128V18.7399H57.5073ZM57.5073 31.1799V32.6799H59.0073V31.1799H57.5073ZM52.9473 31.1799H51.4473V32.6799H52.9473V31.1799ZM52.9473 3.37993V1.87993H51.4473V3.37993H52.9473ZM57.5073 3.37993H59.0073V1.87993H57.5073V3.37993ZM57.5073 16.0599H56.0073V20.1344L58.6492 17.0326L57.5073 16.0599ZM68.3073 3.37993V1.87993H67.6145L67.1653 2.40731L68.3073 3.37993ZM74.0273 3.37993L75.1602 4.36307L77.3151 1.87993H74.0273V3.37993ZM61.9473 17.2999L60.8144 16.3168L59.9529 17.3095L60.8238 18.2939L61.9473 17.2999ZM74.2273 31.1799V32.6799H77.5571L75.3507 30.186L74.2273 31.1799ZM68.2673 31.1799L69.4018 30.1986L58.6418 17.7586L57.5073 18.7399L56.3728 19.7212L67.1328 32.1612L68.2673 31.1799ZM57.5073 18.7399H56.0073V31.1799H57.5073H59.0073V18.7399H57.5073ZM57.5073 31.1799V29.6799H52.9473V31.1799V32.6799H57.5073V31.1799ZM52.9473 31.1799H54.4473V3.37993H52.9473H51.4473V31.1799H52.9473ZM52.9473 3.37993V4.87993H57.5073V3.37993V1.87993H52.9473V3.37993ZM57.5073 3.37993H56.0073V16.0599H57.5073H59.0073V3.37993H57.5073ZM57.5073 16.0599L58.6492 17.0326L69.4492 4.35255L68.3073 3.37993L67.1653 2.40731L56.3653 15.0873L57.5073 16.0599ZM68.3073 3.37993V4.87993H74.0273V3.37993V1.87993H68.3073V3.37993ZM74.0273 3.37993L72.8944 2.39679L60.8144 16.3168L61.9473 17.2999L63.0802 18.2831L75.1602 4.36307L74.0273 3.37993ZM61.9473 17.2999L60.8238 18.2939L73.1038 32.1739L74.2273 31.1799L75.3507 30.186L63.0707 16.306L61.9473 17.2999ZM74.2273 31.1799V29.6799H68.2673V31.1799V32.6799H74.2273V31.1799ZM99.7398 18.6599V20.1599H101.24V18.6599H99.7398ZM91.6598 18.6599V17.1599H90.1598V18.6599H91.6598ZM91.6598 26.9399V28.4399H93.1598V26.9399H91.6598ZM87.4198 26.9399H85.9198V28.4399H87.4198V26.9399ZM87.4198 18.6599H88.9198V17.1599H87.4198V18.6599ZM79.3398 18.6599H77.8398V20.1599H79.3398V18.6599ZM79.3398 14.8199V13.3199H77.8398V14.8199H79.3398ZM87.4198 14.8199V16.3199H88.9198V14.8199H87.4198ZM87.4198 6.53993V5.03993H85.9198V6.53993H87.4198ZM91.6598 6.53993H93.1598V5.03993H91.6598V6.53993ZM91.6598 14.8199H90.1598V16.3199H91.6598V14.8199ZM99.7398 14.8199H101.24V13.3199H99.7398V14.8199ZM99.7398 18.6599V17.1599H91.6598V18.6599V20.1599H99.7398V18.6599ZM91.6598 18.6599H90.1598V26.9399H91.6598H93.1598V18.6599H91.6598ZM91.6598 26.9399V25.4399H87.4198V26.9399V28.4399H91.6598V26.9399ZM87.4198 26.9399H88.9198V18.6599H87.4198H85.9198V26.9399H87.4198ZM87.4198 18.6599V17.1599H79.3398V18.6599V20.1599H87.4198V18.6599ZM79.3398 18.6599H80.8398V14.8199H79.3398H77.8398V18.6599H79.3398ZM79.3398 14.8199V16.3199H87.4198V14.8199V13.3199H79.3398V14.8199ZM87.4198 14.8199H88.9198V6.53993H87.4198H85.9198V14.8199H87.4198ZM87.4198 6.53993V8.03993H91.6598V6.53993V5.03993H87.4198V6.53993ZM91.6598 6.53993H90.1598V14.8199H91.6598H93.1598V6.53993H91.6598ZM91.6598 14.8199V16.3199H99.7398V14.8199V13.3199H91.6598V14.8199ZM99.7398 14.8199H98.2398V18.6599H99.7398H101.24V14.8199H99.7398Z" fill="white" mask="url(#path-1-outside-1_483_1369)"/>
</svg>
