<svg width="80" height="34" viewBox="0 0 80 34" fill="none" xmlns="http://www.w3.org/2000/svg">
<mask id="path-1-outside-1_483_1308" maskUnits="userSpaceOnUse" x="-0.339844" y="-0.73999" width="80" height="34" fill="black">
<rect fill="white" x="-0.339844" y="-0.73999" width="80" height="34"/>
<path d="M1.50016 25.18V21.74L14.9402 2.46001H20.4602V21.22H24.1802V25.18H20.4602V31.26H15.9802V25.18H1.50016ZM16.1802 7.10001L6.74016 21.22H16.1802V7.10001ZM30.3986 31.54C29.5719 31.54 28.8786 31.26 28.3186 30.7C27.7586 30.14 27.4786 29.4467 27.4786 28.62C27.4786 27.7933 27.7586 27.1 28.3186 26.54C28.8786 25.98 29.5719 25.7 30.3986 25.7C31.1986 25.7 31.8786 25.98 32.4386 26.54C32.9986 27.1 33.2786 27.7933 33.2786 28.62C33.2786 29.4467 32.9986 30.14 32.4386 30.7C31.8786 31.26 31.1986 31.54 30.3986 31.54ZM40.127 25.06C42.687 22.8467 44.7004 21.0333 46.167 19.62C47.6604 18.18 48.9004 16.6867 49.887 15.14C50.8737 13.5933 51.367 12.0467 51.367 10.5C51.367 8.90001 50.9804 7.64667 50.207 6.74001C49.4604 5.83334 48.2737 5.38001 46.647 5.38001C45.0737 5.38001 43.847 5.88668 42.967 6.90001C42.1137 7.88668 41.6604 9.22001 41.607 10.9H37.207C37.287 7.86001 38.1937 5.54001 39.927 3.94001C41.687 2.31334 43.9137 1.50001 46.607 1.50001C49.5137 1.50001 51.7804 2.30001 53.407 3.90001C55.0604 5.50001 55.887 7.63334 55.887 10.3C55.887 12.22 55.3937 14.0733 54.407 15.86C53.447 17.62 52.287 19.2067 50.927 20.62C49.5937 22.0067 47.887 23.62 45.807 25.46L44.007 27.06H56.687V30.86H37.247V27.54L40.127 25.06ZM69.293 31.62C67.5596 31.62 65.9996 31.3133 64.613 30.7C63.253 30.06 62.173 29.2067 61.373 28.14C60.573 27.0467 60.1463 25.8333 60.093 24.5H64.813C64.893 25.4333 65.333 26.22 66.133 26.86C66.9596 27.4733 67.9863 27.78 69.213 27.78C70.493 27.78 71.4796 27.54 72.173 27.06C72.893 26.5533 73.253 25.9133 73.253 25.14C73.253 24.3133 72.853 23.7 72.053 23.3C71.2796 22.9 70.0396 22.46 68.333 21.98C66.6796 21.5267 65.333 21.0867 64.293 20.66C63.253 20.2333 62.3463 19.58 61.573 18.7C60.8263 17.82 60.453 16.66 60.453 15.22C60.453 14.0467 60.7996 12.98 61.493 12.02C62.1863 11.0333 63.173 10.26 64.453 9.70001C65.7596 9.14001 67.253 8.86001 68.933 8.86001C71.4396 8.86001 73.453 9.50001 74.973 10.78C76.5196 12.0333 77.3463 13.7533 77.453 15.94H72.893C72.813 14.9533 72.413 14.1667 71.693 13.58C70.973 12.9933 69.9996 12.7 68.773 12.7C67.573 12.7 66.653 12.9267 66.013 13.38C65.373 13.8333 65.053 14.4333 65.053 15.18C65.053 15.7667 65.2663 16.26 65.693 16.66C66.1196 17.06 66.6396 17.38 67.253 17.62C67.8663 17.8333 68.773 18.1133 69.973 18.46C71.573 18.8867 72.8796 19.3267 73.893 19.78C74.933 20.2067 75.8263 20.8467 76.573 21.7C77.3196 22.5533 77.7063 23.6867 77.733 25.1C77.733 26.3533 77.3863 27.4733 76.693 28.46C75.9996 29.4467 75.013 30.22 73.733 30.78C72.4796 31.34 70.9996 31.62 69.293 31.62Z"/>
</mask>
<path d="M1.50016 25.18H0.000156403V26.68H1.50016V25.18ZM1.50016 21.74L0.269632 20.8822L0.000156403 21.2688V21.74H1.50016ZM14.9402 2.46001V0.960009H14.1573L13.7096 1.60222L14.9402 2.46001ZM20.4602 2.46001H21.9602V0.960009H20.4602V2.46001ZM20.4602 21.22H18.9602V22.72H20.4602V21.22ZM24.1802 21.22H25.6802V19.72H24.1802V21.22ZM24.1802 25.18V26.68H25.6802V25.18H24.1802ZM20.4602 25.18V23.68H18.9602V25.18H20.4602ZM20.4602 31.26V32.76H21.9602V31.26H20.4602ZM15.9802 31.26H14.4802V32.76H15.9802V31.26ZM15.9802 25.18H17.4802V23.68H15.9802V25.18ZM16.1802 7.10001H17.6802V2.15749L14.9332 6.26633L16.1802 7.10001ZM6.74016 21.22L5.49317 20.3863L3.93297 22.72H6.74016V21.22ZM16.1802 21.22V22.72H17.6802V21.22H16.1802ZM1.50016 25.18H3.00016V21.74H1.50016H0.000156403V25.18H1.50016ZM1.50016 21.74L2.73068 22.5978L16.1707 3.3178L14.9402 2.46001L13.7096 1.60222L0.269632 20.8822L1.50016 21.74ZM14.9402 2.46001V3.96001H20.4602V2.46001V0.960009H14.9402V2.46001ZM20.4602 2.46001H18.9602V21.22H20.4602H21.9602V2.46001H20.4602ZM20.4602 21.22V22.72H24.1802V21.22V19.72H20.4602V21.22ZM24.1802 21.22H22.6802V25.18H24.1802H25.6802V21.22H24.1802ZM24.1802 25.18V23.68H20.4602V25.18V26.68H24.1802V25.18ZM20.4602 25.18H18.9602V31.26H20.4602H21.9602V25.18H20.4602ZM20.4602 31.26V29.76H15.9802V31.26V32.76H20.4602V31.26ZM15.9802 31.26H17.4802V25.18H15.9802H14.4802V31.26H15.9802ZM15.9802 25.18V23.68H1.50016V25.18V26.68H15.9802V25.18ZM16.1802 7.10001L14.9332 6.26633L5.49317 20.3863L6.74016 21.22L7.98714 22.0537L17.4271 7.93369L16.1802 7.10001ZM6.74016 21.22V22.72H16.1802V21.22V19.72H6.74016V21.22ZM16.1802 21.22H17.6802V7.10001H16.1802H14.6802V21.22H16.1802ZM28.3186 30.7L29.3793 29.6394V29.6394L28.3186 30.7ZM28.3186 26.54L29.3793 27.6007V27.6007L28.3186 26.54ZM32.4386 26.54L31.3779 27.6007L32.4386 26.54ZM32.4386 30.7L31.3779 29.6394V29.6394L32.4386 30.7ZM30.3986 31.54V30.04C29.9503 30.04 29.6445 29.9046 29.3793 29.6394L28.3186 30.7L27.2579 31.7607C28.1127 32.6154 29.1935 33.04 30.3986 33.04V31.54ZM28.3186 30.7L29.3793 29.6394C29.114 29.3741 28.9786 29.0683 28.9786 28.62H27.4786H25.9786C25.9786 29.8251 26.4032 30.9059 27.2579 31.7607L28.3186 30.7ZM27.4786 28.62H28.9786C28.9786 28.1717 29.114 27.8659 29.3793 27.6007L28.3186 26.54L27.2579 25.4794C26.4032 26.3341 25.9786 27.415 25.9786 28.62H27.4786ZM28.3186 26.54L29.3793 27.6007C29.6445 27.3354 29.9503 27.2 30.3986 27.2V25.7V24.2C29.1935 24.2 28.1127 24.6246 27.2579 25.4794L28.3186 26.54ZM30.3986 25.7V27.2C30.8053 27.2 31.1024 27.3252 31.3779 27.6007L32.4386 26.54L33.4993 25.4794C32.6548 24.6348 31.5919 24.2 30.3986 24.2V25.7ZM32.4386 26.54L31.3779 27.6007C31.6432 27.8659 31.7786 28.1717 31.7786 28.62H33.2786H34.7786C34.7786 27.415 34.354 26.3341 33.4993 25.4794L32.4386 26.54ZM33.2786 28.62H31.7786C31.7786 29.0683 31.6432 29.3741 31.3779 29.6394L32.4386 30.7L33.4993 31.7607C34.354 30.9059 34.7786 29.8251 34.7786 28.62H33.2786ZM32.4386 30.7L31.3779 29.6394C31.1024 29.9149 30.8053 30.04 30.3986 30.04V31.54V33.04C31.5919 33.04 32.6548 32.6052 33.4993 31.7607L32.4386 30.7ZM40.127 25.06L41.1058 26.1967L41.1081 26.1947L40.127 25.06ZM46.167 19.62L47.2079 20.7001L47.2082 20.6998L46.167 19.62ZM50.207 6.74001L49.0491 7.69357L49.0574 7.70357L49.0658 7.71343L50.207 6.74001ZM42.967 6.90001L41.8345 5.91648L41.8325 5.91878L42.967 6.90001ZM41.607 10.9V12.4H43.0602L43.1063 10.9476L41.607 10.9ZM37.207 10.9L35.7076 10.8605L35.667 12.4H37.207V10.9ZM39.927 3.94001L40.9445 5.04221L40.9451 5.04157L39.927 3.94001ZM53.407 3.90001L52.3551 4.96943L52.3639 4.97791L53.407 3.90001ZM54.407 15.86L53.0939 15.1349L53.0902 15.1417L54.407 15.86ZM50.927 20.62L49.8462 19.5799L49.8458 19.5803L50.927 20.62ZM45.807 25.46L44.8132 24.3365L44.8105 24.3389L45.807 25.46ZM44.007 27.06L43.0105 25.9389L40.0617 28.56H44.007V27.06ZM56.687 27.06H58.187V25.56H56.687V27.06ZM56.687 30.86V32.36H58.187V30.86H56.687ZM37.247 30.86H35.747V32.36H37.247V30.86ZM37.247 27.54L36.2682 26.4034L35.747 26.8522V27.54H37.247ZM40.127 25.06L41.1081 26.1947C43.6771 23.9736 45.7133 22.1403 47.2079 20.7001L46.167 19.62L45.1262 18.5399C43.6874 19.9263 41.697 21.7198 39.146 23.9253L40.127 25.06ZM46.167 19.62L47.2082 20.6998C48.7757 19.1883 50.0939 17.6048 51.1516 15.9467L49.887 15.14L48.6224 14.3333C47.7069 15.7685 46.5451 17.1717 45.1258 18.5402L46.167 19.62ZM49.887 15.14L51.1516 15.9467C52.263 14.2046 52.867 12.3821 52.867 10.5H51.367H49.867C49.867 11.7113 49.4844 12.9821 48.6224 14.3333L49.887 15.14ZM51.367 10.5H52.867C52.867 8.66631 52.4222 7.02564 51.3483 5.76659L50.207 6.74001L49.0658 7.71343C49.5385 8.2677 49.867 9.13371 49.867 10.5H51.367ZM50.207 6.74001L51.3649 5.78645C50.2351 4.41458 48.5404 3.88001 46.647 3.88001V5.38001V6.88001C48.007 6.88001 48.6856 7.25211 49.0491 7.69357L50.207 6.74001ZM46.647 5.38001V3.88001C44.7218 3.88001 43.0494 4.51747 41.8345 5.91648L42.967 6.90001L44.0996 7.88354C44.6447 7.25588 45.4256 6.88001 46.647 6.88001V5.38001ZM42.967 6.90001L41.8325 5.91878C40.6961 7.23277 40.1688 8.92924 40.1078 10.8524L41.607 10.9L43.1063 10.9476C43.1519 9.51077 43.5313 8.54058 44.1016 7.88124L42.967 6.90001ZM41.607 10.9V9.40001H37.207V10.9V12.4H41.607V10.9ZM37.207 10.9L38.7065 10.9395C38.7791 8.18137 39.5883 6.29407 40.9445 5.04221L39.927 3.94001L38.9096 2.8378C36.7991 4.78594 35.795 7.53864 35.7076 10.8605L37.207 10.9ZM39.927 3.94001L40.9451 5.04157C42.3931 3.70335 44.2407 3.00001 46.607 3.00001V1.50001V9.53674e-06C43.5867 9.53674e-06 40.981 0.923331 38.9089 2.83844L39.927 3.94001ZM46.607 1.50001V3.00001C49.233 3.00001 51.0804 3.71551 52.3552 4.9694L53.407 3.90001L54.4589 2.83062C52.4803 0.884511 49.7944 9.53674e-06 46.607 9.53674e-06V1.50001ZM53.407 3.90001L52.3639 4.97791C53.6783 6.24992 54.387 7.96941 54.387 10.3H55.887H57.387C57.387 7.29727 56.4424 4.7501 54.4502 2.82211L53.407 3.90001ZM55.887 10.3H54.387C54.387 11.9504 53.966 13.5558 53.094 15.1349L54.407 15.86L55.7201 16.5851C56.8214 14.5909 57.387 12.4897 57.387 10.3H55.887ZM54.407 15.86L53.0902 15.1417C52.1927 16.7871 51.1115 18.265 49.8462 19.5799L50.927 20.62L52.0079 21.6601C53.4626 20.1483 54.7013 18.453 55.7239 16.5783L54.407 15.86ZM50.927 20.62L49.8458 19.5803C48.5497 20.9283 46.8749 22.5127 44.8132 24.3365L45.807 25.46L46.8009 26.5835C48.8991 24.7274 50.6377 23.0851 52.0083 21.6597L50.927 20.62ZM45.807 25.46L44.8105 24.3389L43.0105 25.9389L44.007 27.06L45.0036 28.1811L46.8036 26.5811L45.807 25.46ZM44.007 27.06V28.56H56.687V27.06V25.56H44.007V27.06ZM56.687 27.06H55.187V30.86H56.687H58.187V27.06H56.687ZM56.687 30.86V29.36H37.247V30.86V32.36H56.687V30.86ZM37.247 30.86H38.747V27.54H37.247H35.747V30.86H37.247ZM37.247 27.54L38.2258 28.6767L41.1058 26.1967L40.127 25.06L39.1482 23.9234L36.2682 26.4034L37.247 27.54ZM64.613 30.7L63.9743 32.0572L63.9902 32.0647L64.0062 32.0718L64.613 30.7ZM61.373 28.14L60.1624 29.0258L60.1677 29.0329L60.173 29.04L61.373 28.14ZM60.093 24.5V23H58.5318L58.5942 24.56L60.093 24.5ZM64.813 24.5L66.3075 24.3719L66.1899 23H64.813V24.5ZM66.133 26.86L65.1959 28.0313L65.2173 28.0484L65.2392 28.0647L66.133 26.86ZM72.173 27.06L73.0268 28.2933L73.0362 28.2867L72.173 27.06ZM72.053 23.3L71.3638 24.6323L71.373 24.6371L71.3821 24.6417L72.053 23.3ZM68.333 21.98L68.7391 20.536L68.7296 20.5334L68.333 21.98ZM64.293 20.66L63.7236 22.0478V22.0478L64.293 20.66ZM61.573 18.7L60.4292 19.6705L60.4376 19.6804L60.4462 19.6902L61.573 18.7ZM61.493 12.02L62.709 12.8982L62.7147 12.8904L62.7203 12.8824L61.493 12.02ZM64.453 9.70001L63.8621 8.32125L63.8517 8.32577L64.453 9.70001ZM74.973 10.78L74.0068 11.9274L74.0176 11.9365L74.0286 11.9454L74.973 10.78ZM77.453 15.94V17.44H79.0279L78.9512 15.8669L77.453 15.94ZM72.893 15.94L71.3979 16.0612L71.5097 17.44H72.893V15.94ZM71.693 13.58L72.6405 12.4172V12.4172L71.693 13.58ZM66.013 13.38L65.1459 12.156V12.156L66.013 13.38ZM65.693 16.66L64.6671 17.7543L64.6671 17.7543L65.693 16.66ZM67.253 17.62L66.7064 19.0169L66.7331 19.0273L66.7602 19.0368L67.253 17.62ZM69.973 18.46L69.5567 19.9011L69.5715 19.9054L69.5865 19.9094L69.973 18.46ZM73.893 19.78L73.2804 21.1492L73.3019 21.1588L73.3236 21.1678L73.893 19.78ZM76.573 21.7L75.4441 22.6878V22.6878L76.573 21.7ZM77.733 25.1H79.233V25.0859L79.2327 25.0717L77.733 25.1ZM76.693 28.46L75.4657 27.5976V27.5976L76.693 28.46ZM73.733 30.78L73.1317 29.4057L73.1211 29.4105L73.733 30.78ZM69.293 31.62V30.12C67.7388 30.12 66.3898 29.8457 65.2197 29.3282L64.613 30.7L64.0062 32.0718C65.6095 32.781 67.3805 33.12 69.293 33.12V31.62ZM64.613 30.7L65.2517 29.3428C64.0847 28.7936 63.2082 28.0869 62.573 27.24L61.373 28.14L60.173 29.04C61.1378 30.3264 62.4212 31.3264 63.9743 32.0572L64.613 30.7ZM61.373 28.14L62.5835 27.2542C61.9566 26.3975 61.633 25.4708 61.5918 24.4401L60.093 24.5L58.5942 24.56C58.6596 26.1959 59.1893 27.6958 60.1624 29.0258L61.373 28.14ZM60.093 24.5V26H64.813V24.5V23H60.093V24.5ZM64.813 24.5L63.3184 24.6281C63.437 26.0115 64.1084 27.1613 65.1959 28.0313L66.133 26.86L67.07 25.6887C66.5575 25.2787 66.3489 24.8551 66.3075 24.3719L64.813 24.5ZM66.133 26.86L65.2392 28.0647C66.3711 28.9045 67.7279 29.28 69.213 29.28V27.78V26.28C68.2447 26.28 67.5482 26.0422 67.0267 25.6554L66.133 26.86ZM69.213 27.78V29.28C70.6499 29.28 71.9835 29.0156 73.0268 28.2933L72.173 27.06L71.3192 25.8267C70.9758 26.0644 70.336 26.28 69.213 26.28V27.78ZM72.173 27.06L73.0362 28.2867C74.0915 27.5441 74.753 26.4747 74.753 25.14H73.253H71.753C71.753 25.3519 71.6944 25.5626 71.3097 25.8333L72.173 27.06ZM73.253 25.14H74.753C74.753 24.4744 74.5882 23.8215 74.2094 23.2406C73.8349 22.6664 73.3093 22.2511 72.7238 21.9584L72.053 23.3L71.3821 24.6417C71.5966 24.7489 71.671 24.8402 71.6966 24.8794C71.7177 24.9118 71.753 24.979 71.753 25.14H73.253ZM72.053 23.3L72.7421 21.9677C71.827 21.4943 70.4649 21.0214 68.7391 20.536L68.333 21.98L67.9268 23.424C69.6144 23.8986 70.7323 24.3057 71.3638 24.6323L72.053 23.3ZM68.333 21.98L68.7296 20.5334C67.108 20.0888 65.825 19.6672 64.8623 19.2723L64.293 20.66L63.7236 22.0478C64.841 22.5062 66.2513 22.9646 67.9363 23.4266L68.333 21.98ZM64.293 20.66L64.8623 19.2723C64.0454 18.9371 63.327 18.4237 62.6997 17.7098L61.573 18.7L60.4462 19.6902C61.3656 20.7364 62.4606 21.5296 63.7236 22.0478L64.293 20.66ZM61.573 18.7L62.7167 17.7295C62.2527 17.1827 61.953 16.3954 61.953 15.22H60.453H58.953C58.953 16.9246 59.3999 18.4574 60.4292 19.6705L61.573 18.7ZM60.453 15.22H61.953C61.953 14.3651 62.1984 13.6052 62.709 12.8982L61.493 12.02L60.277 11.1418C59.4008 12.3549 58.953 13.7282 58.953 15.22H60.453ZM61.493 12.02L62.7203 12.8824C63.232 12.1541 63.9852 11.5419 65.0542 11.0742L64.453 9.70001L63.8517 8.32577C62.3607 8.97811 61.1406 9.91257 60.2657 11.1576L61.493 12.02ZM64.453 9.70001L65.0438 11.0787C66.133 10.6119 67.4197 10.36 68.933 10.36V8.86001V7.36001C67.0862 7.36001 65.3862 7.66809 63.8621 8.32129L64.453 9.70001ZM68.933 8.86001V10.36C71.181 10.36 72.8219 10.9296 74.0068 11.9274L74.973 10.78L75.9392 9.63264C74.084 8.07043 71.6983 7.36001 68.933 7.36001V8.86001ZM74.973 10.78L74.0286 11.9454C75.2084 12.9014 75.8666 14.2052 75.9548 16.0131L77.453 15.94L78.9512 15.8669C78.826 13.3015 77.8309 11.1653 75.9173 9.61461L74.973 10.78ZM77.453 15.94V14.44H72.893V15.94V17.44H77.453V15.94ZM72.893 15.94L74.3881 15.8188C74.2775 14.4547 73.6998 13.2803 72.6405 12.4172L71.693 13.58L70.7455 14.7429C71.1261 15.053 71.3485 15.4519 71.3979 16.0612L72.893 15.94ZM71.693 13.58L72.6405 12.4172C71.5776 11.5511 70.2334 11.2 68.773 11.2V12.7V14.2C69.7659 14.2 70.3683 14.4356 70.7455 14.7429L71.693 13.58ZM68.773 12.7V11.2C67.4166 11.2 66.1414 11.4508 65.1459 12.156L66.013 13.38L66.88 14.604C67.1645 14.4025 67.7293 14.2 68.773 14.2V12.7ZM66.013 13.38L65.1459 12.156C64.1326 12.8738 63.553 13.9186 63.553 15.18H65.053H66.553C66.553 14.9481 66.6134 14.7929 66.88 14.604L66.013 13.38ZM65.053 15.18H63.553C63.553 16.1798 63.9368 17.0697 64.6671 17.7543L65.693 16.66L66.7189 15.5657C66.5958 15.4503 66.553 15.3535 66.553 15.18H65.053ZM65.693 16.66L64.6671 17.7543C65.2493 18.3001 65.9378 18.7161 66.7064 19.0169L67.253 17.62L67.7996 16.2231C67.3415 16.0439 66.99 15.8199 66.7189 15.5657L65.693 16.66ZM67.253 17.62L66.7602 19.0368C67.4122 19.2636 68.3498 19.5524 69.5567 19.9011L69.973 18.46L70.3893 17.0189C69.1962 16.6743 68.3204 16.4031 67.7458 16.2033L67.253 17.62ZM69.973 18.46L69.5865 19.9094C71.1428 20.3244 72.3663 20.7403 73.2804 21.1492L73.893 19.78L74.5055 18.4108C73.393 17.9131 72.0031 17.449 70.3595 17.0107L69.973 18.46ZM73.893 19.78L73.3236 21.1678C74.1467 21.5054 74.8491 22.0077 75.4441 22.6878L76.573 21.7L77.7018 20.7123C76.8035 19.6856 75.7192 18.9079 74.4623 18.3923L73.893 19.78ZM76.573 21.7L75.4441 22.6878C75.9049 23.2143 76.2115 23.9786 76.2332 25.1283L77.733 25.1L79.2327 25.0717C79.2011 23.3948 78.7344 21.8923 77.7018 20.7123L76.573 21.7ZM77.733 25.1H76.233C76.233 26.0576 75.9743 26.8739 75.4657 27.5976L76.693 28.46L77.9203 29.3224C78.7983 28.0728 79.233 26.6491 79.233 25.1H77.733ZM76.693 28.46L75.4657 27.5976C74.9539 28.3259 74.2007 28.9381 73.1317 29.4058L73.733 30.78L74.3342 32.1542C75.8252 31.5019 77.0454 30.5674 77.9203 29.3224L76.693 28.46ZM73.733 30.78L73.1211 29.4105C72.1011 29.8662 70.8386 30.12 69.293 30.12V31.62V33.12C71.1607 33.12 72.8582 32.8138 74.3449 32.1495L73.733 30.78Z" fill="white" mask="url(#path-1-outside-1_483_1308)"/>
</svg>
