<svg width="92" height="48" viewBox="0 0 92 48" fill="none" xmlns="http://www.w3.org/2000/svg">
<mask id="path-1-outside-1_483_1353" maskUnits="userSpaceOnUse" x="-0.460938" y="-0.73999" width="92" height="49" fill="black">
<rect fill="white" x="-0.460938" y="-0.73999" width="92" height="49"/>
<path d="M4.45906 33.06C7.01906 30.8467 9.0324 29.0333 10.4991 27.62C11.9924 26.18 13.2324 24.6867 14.2191 23.14C15.2057 21.5933 15.6991 20.0467 15.6991 18.5C15.6991 16.9 15.3124 15.6467 14.5391 14.74C13.7924 13.8333 12.6057 13.38 10.9791 13.38C9.40573 13.38 8.17906 13.8867 7.29906 14.9C6.44573 15.8867 5.9924 17.22 5.93906 18.9H1.53906C1.61906 15.86 2.52573 13.54 4.25906 11.94C6.01906 10.3133 8.24573 9.50001 10.9391 9.50001C13.8457 9.50001 16.1124 10.3 17.7391 11.9C19.3924 13.5 20.2191 15.6333 20.2191 18.3C20.2191 20.22 19.7257 22.0733 18.7391 23.86C17.7791 25.62 16.6191 27.2067 15.2591 28.62C13.9257 30.0067 12.2191 31.62 10.1391 33.46L8.33906 35.06H21.0191V38.86H1.57906V35.54L4.45906 33.06ZM24.465 33.18V29.74L37.905 10.46H43.425V29.22H47.145V33.18H43.425V39.26H38.945V33.18H24.465ZM39.145 15.1L29.705 29.22H39.145V15.1ZM66.3234 1.50001L55.4434 46.26H50.9634L61.8034 1.50001H66.3234ZM89.9503 13.62L78.8303 39.26H74.2303L85.4703 14.1H70.6703V10.22H89.9503V13.62Z"/>
</mask>
<path d="M4.45906 33.06L5.43785 34.1967L5.44011 34.1947L4.45906 33.06ZM10.4991 27.62L11.5399 28.7001L11.5403 28.6998L10.4991 27.62ZM14.5391 14.74L13.3812 15.6936L13.3894 15.7036L13.3978 15.7134L14.5391 14.74ZM7.29906 14.9L6.16651 13.9165L6.16452 13.9188L7.29906 14.9ZM5.93906 18.9V20.4H7.3922L7.43831 18.9476L5.93906 18.9ZM1.53906 18.9L0.0395817 18.8605L-0.000930488 20.4H1.53906V18.9ZM4.25906 11.94L5.27648 13.0422L5.27718 13.0416L4.25906 11.94ZM17.7391 11.9L16.6872 12.9694L16.6959 12.9779L17.7391 11.9ZM18.7391 23.86L17.426 23.1349L17.4222 23.1417L18.7391 23.86ZM15.2591 28.62L14.1782 27.5799L14.1778 27.5803L15.2591 28.62ZM10.1391 33.46L9.1452 32.3365L9.14252 32.3389L10.1391 33.46ZM8.33906 35.06L7.34252 33.9389L4.39376 36.56H8.33906V35.06ZM21.0191 35.06H22.5191V33.56H21.0191V35.06ZM21.0191 38.86V40.36H22.5191V38.86H21.0191ZM1.57906 38.86H0.0790626V40.36H1.57906V38.86ZM1.57906 35.54L0.600278 34.4034L0.0790626 34.8522V35.54H1.57906ZM4.45906 33.06L5.44011 34.1947C8.00911 31.9736 10.0453 30.1403 11.5399 28.7001L10.4991 27.62L9.45822 26.5399C8.01946 27.9263 6.02902 29.7198 3.47802 31.9253L4.45906 33.06ZM10.4991 27.62L11.5403 28.6998C13.1077 27.1883 14.4259 25.6048 15.4837 23.9467L14.2191 23.14L12.9545 22.3333C12.0389 23.7685 10.8771 25.1717 9.45786 26.5402L10.4991 27.62ZM14.2191 23.14L15.4837 23.9467C16.595 22.2046 17.1991 20.3821 17.1991 18.5H15.6991H14.1991C14.1991 19.7113 13.8164 20.9821 12.9545 22.3333L14.2191 23.14ZM15.6991 18.5H17.1991C17.1991 16.6663 16.7542 15.0256 15.6803 13.7666L14.5391 14.74L13.3978 15.7134C13.8706 16.2677 14.1991 17.1337 14.1991 18.5H15.6991ZM14.5391 14.74L15.697 13.7864C14.5672 12.4146 12.8725 11.88 10.9791 11.88V13.38V14.88C12.339 14.88 13.0176 15.2521 13.3812 15.6936L14.5391 14.74ZM10.9791 13.38V11.88C9.05383 11.88 7.38144 12.5175 6.16651 13.9165L7.29906 14.9L8.43161 15.8835C8.97669 15.2559 9.75763 14.88 10.9791 14.88V13.38ZM7.29906 14.9L6.16452 13.9188C5.02809 15.2328 4.50087 16.9292 4.43982 18.8524L5.93906 18.9L7.43831 18.9476C7.48392 17.5108 7.86337 16.5406 8.43361 15.8812L7.29906 14.9ZM5.93906 18.9V17.4H1.53906V18.9V20.4H5.93906V18.9ZM1.53906 18.9L3.03854 18.9395C3.11112 16.1814 3.9203 14.2941 5.27648 13.0422L4.25906 11.94L3.24164 10.8378C1.13116 12.7859 0.127 15.5386 0.0395817 18.8605L1.53906 18.9ZM4.25906 11.94L5.27718 13.0416C6.72509 11.7034 8.57272 11 10.9391 11V9.50001V8.00001C7.91874 8.00001 5.31304 8.92333 3.24095 10.8384L4.25906 11.94ZM10.9391 9.50001V11C13.5651 11 15.4124 11.7155 16.6872 12.9694L17.7391 11.9L18.7909 10.8306C16.8124 8.88451 14.1264 8.00001 10.9391 8.00001V9.50001ZM17.7391 11.9L16.6959 12.9779C18.0103 14.2499 18.7191 15.9694 18.7191 18.3H20.2191H21.7191C21.7191 15.2973 20.7745 12.7501 18.7822 10.8221L17.7391 11.9ZM20.2191 18.3H18.7191C18.7191 19.9504 18.298 21.5558 17.426 23.1349L18.7391 23.86L20.0521 24.5851C21.1534 22.5909 21.7191 20.4897 21.7191 18.3H20.2191ZM18.7391 23.86L17.4222 23.1417C16.5248 24.7871 15.4435 26.265 14.1782 27.5799L15.2591 28.62L16.3399 29.6601C17.7946 28.1483 19.0334 26.453 20.0559 24.5783L18.7391 23.86ZM15.2591 28.62L14.1778 27.5803C12.8817 28.9283 11.2069 30.5127 9.1452 32.3365L10.1391 33.46L11.1329 34.5835C13.2312 32.7274 14.9697 31.0851 16.3403 29.6597L15.2591 28.62ZM10.1391 33.46L9.14252 32.3389L7.34252 33.9389L8.33906 35.06L9.33561 36.1811L11.1356 34.5811L10.1391 33.46ZM8.33906 35.06V36.56H21.0191V35.06V33.56H8.33906V35.06ZM21.0191 35.06H19.5191V38.86H21.0191H22.5191V35.06H21.0191ZM21.0191 38.86V37.36H1.57906V38.86V40.36H21.0191V38.86ZM1.57906 38.86H3.07906V35.54H1.57906H0.0790626V38.86H1.57906ZM1.57906 35.54L2.55785 36.6767L5.43785 34.1967L4.45906 33.06L3.48028 31.9234L0.600278 34.4034L1.57906 35.54ZM24.465 33.18H22.965V34.68H24.465V33.18ZM24.465 29.74L23.2345 28.8822L22.965 29.2688V29.74H24.465ZM37.905 10.46V8.96001H37.1222L36.6745 9.60222L37.905 10.46ZM43.425 10.46H44.925V8.96001H43.425V10.46ZM43.425 29.22H41.925V30.72H43.425V29.22ZM47.145 29.22H48.645V27.72H47.145V29.22ZM47.145 33.18V34.68H48.645V33.18H47.145ZM43.425 33.18V31.68H41.925V33.18H43.425ZM43.425 39.26V40.76H44.925V39.26H43.425ZM38.945 39.26H37.445V40.76H38.945V39.26ZM38.945 33.18H40.445V31.68H38.945V33.18ZM39.145 15.1H40.645V10.1575L37.898 14.2663L39.145 15.1ZM29.705 29.22L28.458 28.3863L26.8978 30.72H29.705V29.22ZM39.145 29.22V30.72H40.645V29.22H39.145ZM24.465 33.18H25.965V29.74H24.465H22.965V33.18H24.465ZM24.465 29.74L25.6955 30.5978L39.1355 11.3178L37.905 10.46L36.6745 9.60222L23.2345 28.8822L24.465 29.74ZM37.905 10.46V11.96H43.425V10.46V8.96001H37.905V10.46ZM43.425 10.46H41.925V29.22H43.425H44.925V10.46H43.425ZM43.425 29.22V30.72H47.145V29.22V27.72H43.425V29.22ZM47.145 29.22H45.645V33.18H47.145H48.645V29.22H47.145ZM47.145 33.18V31.68H43.425V33.18V34.68H47.145V33.18ZM43.425 33.18H41.925V39.26H43.425H44.925V33.18H43.425ZM43.425 39.26V37.76H38.945V39.26V40.76H43.425V39.26ZM38.945 39.26H40.445V33.18H38.945H37.445V39.26H38.945ZM38.945 33.18V31.68H24.465V33.18V34.68H38.945V33.18ZM39.145 15.1L37.898 14.2663L28.458 28.3863L29.705 29.22L30.952 30.0537L40.392 15.9337L39.145 15.1ZM29.705 29.22V30.72H39.145V29.22V27.72H29.705V29.22ZM39.145 29.22H40.645V15.1H39.145H37.645V29.22H39.145ZM66.3234 1.50001L67.781 1.8543L68.2317 7.15256e-06H66.3234V1.50001ZM55.4434 46.26V47.76H56.6225L56.901 46.6143L55.4434 46.26ZM50.9634 46.26L49.5056 45.9069L49.0568 47.76H50.9634V46.26ZM61.8034 1.50001V7.15256e-06H60.6233L60.3456 1.14694L61.8034 1.50001ZM66.3234 1.50001L64.8659 1.14571L53.9859 45.9057L55.4434 46.26L56.901 46.6143L67.781 1.8543L66.3234 1.50001ZM55.4434 46.26V44.76H50.9634V46.26V47.76H55.4434V46.26ZM50.9634 46.26L52.4213 46.6131L63.2613 1.85307L61.8034 1.50001L60.3456 1.14694L49.5056 45.9069L50.9634 46.26ZM61.8034 1.50001V3.00001H66.3234V1.50001V7.15256e-06H61.8034V1.50001ZM89.9503 13.62L91.3265 14.2168L91.4503 13.9313V13.62H89.9503ZM78.8303 39.26V40.76H79.8148L80.2065 39.8568L78.8303 39.26ZM74.2303 39.26L72.8608 38.6482L71.9173 40.76H74.2303V39.26ZM85.4703 14.1L86.8399 14.7118L87.7833 12.6H85.4703V14.1ZM70.6703 14.1H69.1703V15.6H70.6703V14.1ZM70.6703 10.22V8.72001H69.1703V10.22H70.6703ZM89.9503 10.22H91.4503V8.72001H89.9503V10.22ZM89.9503 13.62L88.5742 13.0232L77.4542 38.6632L78.8303 39.26L80.2065 39.8568L91.3265 14.2168L89.9503 13.62ZM78.8303 39.26V37.76H74.2303V39.26V40.76H78.8303V39.26ZM74.2303 39.26L75.5999 39.8718L86.8399 14.7118L85.4703 14.1L84.1008 13.4882L72.8608 38.6482L74.2303 39.26ZM85.4703 14.1V12.6H70.6703V14.1V15.6H85.4703V14.1ZM70.6703 14.1H72.1703V10.22H70.6703H69.1703V14.1H70.6703ZM70.6703 10.22V11.72H89.9503V10.22V8.72001H70.6703V10.22ZM89.9503 10.22H88.4503V13.62H89.9503H91.4503V10.22H89.9503Z" fill="white" mask="url(#path-1-outside-1_483_1353)"/>
</svg>
