<svg width="208" height="33" viewBox="0 0 208 33" fill="none" xmlns="http://www.w3.org/2000/svg">
<mask id="path-1-outside-1_484_6697" maskUnits="userSpaceOnUse" x="-0.148438" y="-0.160156" width="208" height="33" fill="black">
<rect fill="white" x="-0.148438" y="-0.160156" width="208" height="33"/>
<path d="M30.28 3.03984V30.8398H25.72V11.7998L17.24 30.8398H14.08L5.56 11.7998V30.8398H1V3.03984H5.92L15.68 24.8398L25.4 3.03984H30.28ZM45.8334 31.1998C43.7534 31.1998 41.8734 30.7332 40.1934 29.7998C38.5134 28.8398 37.1934 27.5065 36.2334 25.7998C35.2734 24.0665 34.7934 22.0665 34.7934 19.7998C34.7934 17.5598 35.2868 15.5732 36.2734 13.8398C37.2601 12.1065 38.6068 10.7732 40.3134 9.83984C42.0201 8.90651 43.9268 8.43984 46.0334 8.43984C48.1401 8.43984 50.0468 8.90651 51.7534 9.83984C53.4601 10.7732 54.8068 12.1065 55.7934 13.8398C56.7801 15.5732 57.2734 17.5598 57.2734 19.7998C57.2734 22.0398 56.7668 24.0265 55.7534 25.7598C54.7401 27.4932 53.3534 28.8398 51.5934 29.7998C49.8601 30.7332 47.9401 31.1998 45.8334 31.1998ZM45.8334 27.2398C47.0068 27.2398 48.1001 26.9598 49.1134 26.3998C50.1534 25.8398 50.9934 24.9998 51.6334 23.8798C52.2734 22.7598 52.5934 21.3998 52.5934 19.7998C52.5934 18.1998 52.2868 16.8532 51.6734 15.7598C51.0601 14.6398 50.2468 13.7998 49.2334 13.2398C48.2201 12.6798 47.1268 12.3998 45.9534 12.3998C44.7801 12.3998 43.6868 12.6798 42.6734 13.2398C41.6868 13.7998 40.9001 14.6398 40.3134 15.7598C39.7268 16.8532 39.4334 18.1998 39.4334 19.7998C39.4334 22.1732 40.0334 24.0132 41.2334 25.3198C42.4601 26.5998 43.9934 27.2398 45.8334 27.2398ZM72.9013 8.43984C74.6346 8.43984 76.1813 8.79984 77.5413 9.51984C78.9279 10.2398 80.0079 11.3065 80.7813 12.7198C81.5546 14.1332 81.9413 15.8398 81.9413 17.8398V30.8398H77.4213V18.5198C77.4213 16.5465 76.9279 15.0398 75.9413 13.9998C74.9546 12.9332 73.6079 12.3998 71.9013 12.3998C70.1946 12.3998 68.8346 12.9332 67.8213 13.9998C66.8346 15.0398 66.3413 16.5465 66.3413 18.5198V30.8398H61.7813V8.79984H66.3413V11.3198C67.0879 10.4132 68.0346 9.70651 69.1813 9.19984C70.3546 8.69318 71.5946 8.43984 72.9013 8.43984ZM93.0778 12.5198V24.7198C93.0778 25.5465 93.2645 26.1465 93.6378 26.5198C94.0378 26.8665 94.7045 27.0398 95.6378 27.0398H98.4378V30.8398H94.8378C92.7845 30.8398 91.2111 30.3598 90.1178 29.3998C89.0245 28.4398 88.4778 26.8798 88.4778 24.7198V12.5198H85.8778V8.79984H88.4778V3.31984H93.0778V8.79984H98.4378V12.5198H93.0778ZM114.041 8.43984C115.721 8.43984 117.214 8.79984 118.521 9.51984C119.854 10.2398 120.894 11.3065 121.641 12.7198C122.414 14.1332 122.801 15.8398 122.801 17.8398V30.8398H118.281V18.5198C118.281 16.5465 117.787 15.0398 116.801 13.9998C115.814 12.9332 114.467 12.3998 112.761 12.3998C111.054 12.3998 109.694 12.9332 108.681 13.9998C107.694 15.0398 107.201 16.5465 107.201 18.5198V30.8398H102.641V1.23984H107.201V11.3598C107.974 10.4265 108.947 9.70651 110.121 9.19984C111.321 8.69318 112.627 8.43984 114.041 8.43984ZM138.328 8.87984C138.488 6.39984 139.434 4.46651 141.168 3.07984C142.928 1.69318 145.168 0.999842 147.888 0.999842C149.754 0.999842 151.368 1.33318 152.728 1.99984C154.088 2.66651 155.114 3.57318 155.808 4.71984C156.501 5.86651 156.848 7.15984 156.848 8.59984C156.848 10.2532 156.408 11.6665 155.528 12.8398C154.648 14.0132 153.594 14.7998 152.368 15.1998V15.3598C153.941 15.8398 155.168 16.7198 156.048 17.9998C156.928 19.2532 157.368 20.8665 157.368 22.8398C157.368 24.4132 157.008 25.8132 156.288 27.0398C155.568 28.2665 154.501 29.2398 153.088 29.9598C151.674 30.6532 149.981 30.9998 148.008 30.9998C145.128 30.9998 142.754 30.2665 140.888 28.7998C139.048 27.3065 138.061 25.1732 137.928 22.3998H142.328C142.434 23.8132 142.981 24.9732 143.968 25.8798C144.954 26.7598 146.288 27.1998 147.968 27.1998C149.594 27.1998 150.848 26.7598 151.728 25.8798C152.608 24.9732 153.048 23.8132 153.048 22.3998C153.048 20.5332 152.448 19.2132 151.248 18.4398C150.074 17.6398 148.261 17.2398 145.808 17.2398H144.768V13.4798H145.848C148.008 13.4532 149.648 13.0932 150.768 12.3998C151.914 11.7065 152.488 10.6132 152.488 9.11984C152.488 7.83984 152.074 6.82651 151.248 6.07984C150.421 5.30651 149.248 4.91984 147.728 4.91984C146.234 4.91984 145.074 5.30651 144.248 6.07984C143.421 6.82651 142.928 7.75984 142.768 8.87984H138.328ZM179.678 14.4398V18.2798H163.238V14.4398H179.678ZM204.356 5.59984H190.956V13.5598C191.516 12.8132 192.343 12.1865 193.436 11.6798C194.556 11.1732 195.743 10.9198 196.996 10.9198C199.236 10.9198 201.05 11.3998 202.436 12.3598C203.85 13.3198 204.85 14.5332 205.436 15.9998C206.05 17.4665 206.356 19.0132 206.356 20.6398C206.356 22.6132 205.97 24.3732 205.196 25.9198C204.45 27.4398 203.316 28.6398 201.796 29.5198C200.303 30.3998 198.463 30.8398 196.276 30.8398C193.37 30.8398 191.036 30.1198 189.276 28.6798C187.516 27.2398 186.463 25.3332 186.116 22.9598H190.556C190.85 24.2132 191.503 25.2132 192.516 25.9598C193.53 26.6798 194.796 27.0398 196.316 27.0398C198.21 27.0398 199.623 26.4665 200.556 25.3198C201.516 24.1732 201.996 22.6532 201.996 20.7598C201.996 18.8398 201.516 17.3732 200.556 16.3598C199.596 15.3198 198.183 14.7998 196.316 14.7998C195.01 14.7998 193.903 15.1332 192.996 15.7998C192.116 16.4398 191.476 17.3198 191.076 18.4398H186.756V1.59984H204.356V5.59984Z"/>
</mask>
<path d="M30.28 3.03984H31.28V2.03984H30.28V3.03984ZM30.28 30.8398V31.8398H31.28V30.8398H30.28ZM25.72 30.8398H24.72V31.8398H25.72V30.8398ZM25.72 11.7998H26.72L24.8065 11.393L25.72 11.7998ZM17.24 30.8398V31.8398H17.8893L18.1535 31.2467L17.24 30.8398ZM14.08 30.8398L13.1672 31.2483L13.4319 31.8398H14.08V30.8398ZM5.56 11.7998L6.47278 11.3914L4.56 11.7998H5.56ZM5.56 30.8398V31.8398H6.56V30.8398H5.56ZM1 30.8398H0V31.8398H1V30.8398ZM1 3.03984V2.03984H0V3.03984H1ZM5.92 3.03984L6.8327 2.63122L6.56794 2.03984H5.92V3.03984ZM15.68 24.8398L14.7673 25.2485L15.6819 27.2913L16.5933 25.2471L15.68 24.8398ZM25.4 3.03984V2.03984H24.751L24.4867 2.63262L25.4 3.03984ZM30.28 3.03984H29.28V30.8398H30.28H31.28V3.03984H30.28ZM30.28 30.8398V29.8398H25.72V30.8398V31.8398H30.28V30.8398ZM25.72 30.8398H26.72V11.7998H25.72H24.72V30.8398H25.72ZM25.72 11.7998L24.8065 11.393L16.3265 30.433L17.24 30.8398L18.1535 31.2467L26.6335 12.2067L25.72 11.7998ZM17.24 30.8398V29.8398H14.08V30.8398V31.8398H17.24V30.8398ZM14.08 30.8398L14.9928 30.4314L6.47278 11.3914L5.56 11.7998L4.64722 12.2083L13.1672 31.2483L14.08 30.8398ZM5.56 11.7998H4.56V30.8398H5.56H6.56V11.7998H5.56ZM5.56 30.8398V29.8398H1V30.8398V31.8398H5.56V30.8398ZM1 30.8398H2V3.03984H1H0V30.8398H1ZM1 3.03984V4.03984H5.92V3.03984V2.03984H1V3.03984ZM5.92 3.03984L5.0073 3.44846L14.7673 25.2485L15.68 24.8398L16.5927 24.4312L6.8327 2.63122L5.92 3.03984ZM15.68 24.8398L16.5933 25.2471L26.3133 3.44707L25.4 3.03984L24.4867 2.63262L14.7667 24.4326L15.68 24.8398ZM25.4 3.03984V4.03984H30.28V3.03984V2.03984H25.4V3.03984ZM40.1934 29.7998L39.6973 30.6681L39.7078 30.674L40.1934 29.7998ZM36.2334 25.7998L35.3586 26.2844L35.3619 26.2901L36.2334 25.7998ZM40.3134 9.83984L39.8336 8.96247V8.96247L40.3134 9.83984ZM51.7534 9.83984L52.2332 8.96247V8.96247L51.7534 9.83984ZM55.7534 25.7598L54.8901 25.2551L55.7534 25.7598ZM51.5934 29.7998L52.0675 30.6803L52.0723 30.6777L51.5934 29.7998ZM49.1134 26.3998L48.6393 25.5193L48.6298 25.5246L49.1134 26.3998ZM51.6334 23.8798L50.7652 23.3837V23.3837L51.6334 23.8798ZM51.6734 15.7598L50.7963 16.2402L50.8013 16.2491L51.6734 15.7598ZM42.6734 13.2398L42.1897 12.3645L42.1798 12.3702L42.6734 13.2398ZM40.3134 15.7598L41.1946 16.2327L41.1993 16.2239L40.3134 15.7598ZM41.2334 25.3198L40.4969 25.9963L40.5041 26.0041L40.5114 26.0117L41.2334 25.3198ZM45.8334 31.1998V30.1998C43.909 30.1998 42.1984 29.7698 40.6791 28.9257L40.1934 29.7998L39.7078 30.674C41.5484 31.6966 43.5979 32.1998 45.8334 32.1998V31.1998ZM40.1934 29.7998L40.6896 28.9316C39.1686 28.0625 37.9775 26.8606 37.105 25.3096L36.2334 25.7998L35.3619 26.2901C36.4094 28.1524 37.8583 29.6172 39.6973 30.6681L40.1934 29.7998ZM36.2334 25.7998L37.1082 25.3153C36.2415 23.7505 35.7934 21.9217 35.7934 19.7998H34.7934H33.7934C33.7934 22.2113 34.3053 24.3825 35.3586 26.2843L36.2334 25.7998ZM34.7934 19.7998H35.7934C35.7934 17.7115 36.2518 15.8993 37.1425 14.3345L36.2734 13.8398L35.4044 13.3451C34.3217 15.2471 33.7934 17.4082 33.7934 19.7998H34.7934ZM36.2734 13.8398L37.1425 14.3345C38.0399 12.7581 39.2536 11.5592 40.7933 10.7172L40.3134 9.83984L39.8336 8.96247C37.9599 9.98714 36.4803 11.4549 35.4044 13.3451L36.2734 13.8398ZM40.3134 9.83984L40.7933 10.7172C42.3407 9.87093 44.0802 9.43984 46.0334 9.43984V8.43984V7.43984C43.7734 7.43984 41.6995 7.94209 39.8336 8.96247L40.3134 9.83984ZM46.0334 8.43984V9.43984C47.9867 9.43984 49.7261 9.87093 51.2736 10.7172L51.7534 9.83984L52.2332 8.96247C50.3674 7.94209 48.2935 7.43984 46.0334 7.43984V8.43984ZM51.7534 9.83984L51.2736 10.7172C52.8133 11.5592 54.027 12.7581 54.9244 14.3345L55.7934 13.8398L56.6625 13.3451C55.5865 11.4549 54.1069 9.98714 52.2332 8.96247L51.7534 9.83984ZM55.7934 13.8398L54.9244 14.3345C55.8151 15.8993 56.2734 17.7115 56.2734 19.7998H57.2734H58.2734C58.2734 17.4082 57.7451 15.2471 56.6625 13.3451L55.7934 13.8398ZM57.2734 19.7998H56.2734C56.2734 21.8835 55.8039 23.6921 54.8901 25.2551L55.7534 25.7598L56.6167 26.2645C57.7296 24.3609 58.2734 22.1962 58.2734 19.7998H57.2734ZM55.7534 25.7598L54.8901 25.2551C53.9685 26.8317 52.7146 28.0492 51.1146 28.9219L51.5934 29.7998L52.0723 30.6777C53.9923 29.6305 55.5117 28.1547 56.6167 26.2645L55.7534 25.7598ZM51.5934 29.7998L51.1193 28.9194C49.5419 29.7688 47.7866 30.1998 45.8334 30.1998V31.1998V32.1998C48.0937 32.1998 50.1783 31.6976 52.0675 30.6803L51.5934 29.7998ZM45.8334 27.2398V28.2398C47.1736 28.2398 48.4336 27.9181 49.5971 27.2751L49.1134 26.3998L48.6298 25.5246C47.7666 26.0016 46.84 26.2398 45.8334 26.2398V27.2398ZM49.1134 26.3998L49.5875 27.2803C50.8073 26.6235 51.7777 25.6429 52.5017 24.376L51.6334 23.8798L50.7652 23.3837C50.2092 24.3568 49.4995 25.0562 48.6393 25.5194L49.1134 26.3998ZM51.6334 23.8798L52.5017 24.376C53.2465 23.0726 53.5934 21.5325 53.5934 19.7998H52.5934H51.5934C51.5934 21.2672 51.3004 22.4471 50.7652 23.3837L51.6334 23.8798ZM52.5934 19.7998H53.5934C53.5934 18.0748 53.2628 16.5492 52.5456 15.2706L51.6734 15.7598L50.8013 16.2491C51.3107 17.1572 51.5934 18.3248 51.5934 19.7998H52.5934ZM51.6734 15.7598L52.5505 15.2795C51.8559 14.011 50.9132 13.0256 49.7171 12.3646L49.2334 13.2398L48.7498 14.1151C49.5803 14.5741 50.2644 15.2687 50.7963 16.2402L51.6734 15.7598ZM49.2334 13.2398L49.7171 12.3646C48.5536 11.7216 47.2936 11.3998 45.9534 11.3998V12.3998V13.3998C46.96 13.3998 47.8866 13.6381 48.7498 14.1151L49.2334 13.2398ZM45.9534 12.3998V11.3998C44.6133 11.3998 43.3532 11.7216 42.1898 12.3646L42.6734 13.2398L43.1571 14.1151C44.0203 13.6381 44.9469 13.3998 45.9534 13.3998V12.3998ZM42.6734 13.2398L42.1798 12.3702C41.0075 13.0355 40.0928 14.0259 39.4276 15.2958L40.3134 15.7598L41.1993 16.2239C41.7074 15.2538 42.3661 14.5641 43.167 14.1095L42.6734 13.2398ZM40.3134 15.7598L39.4323 15.287C38.7483 16.5618 38.4334 18.0813 38.4334 19.7998H39.4334H40.4334C40.4334 18.3184 40.7053 17.1446 41.1946 16.2327L40.3134 15.7598ZM39.4334 19.7998H38.4334C38.4334 22.3375 39.077 24.4501 40.4969 25.9963L41.2334 25.3198L41.97 24.6434C40.9899 23.5762 40.4334 22.0089 40.4334 19.7998H39.4334ZM41.2334 25.3198L40.5114 26.0117C41.9346 27.4968 43.7324 28.2398 45.8334 28.2398V27.2398V26.2398C44.2544 26.2398 42.9856 25.7029 41.9554 24.6279L41.2334 25.3198ZM77.5413 9.51984L77.0733 10.4037L77.0804 10.4073L77.5413 9.51984ZM80.7812 12.7198L79.904 13.1999V13.1999L80.7812 12.7198ZM81.9413 30.8398V31.8398H82.9413V30.8398H81.9413ZM77.4212 30.8398H76.4212V31.8398H77.4212V30.8398ZM75.9413 13.9998L75.2071 14.6789L75.2158 14.6881L75.9413 13.9998ZM67.8213 13.9998L67.0963 13.3111L67.0958 13.3116L67.8213 13.9998ZM66.3412 30.8398V31.8398H67.3412V30.8398H66.3412ZM61.7812 30.8398H60.7812V31.8398H61.7812V30.8398ZM61.7812 8.79984V7.79984H60.7812V8.79984H61.7812ZM66.3412 8.79984H67.3412V7.79984H66.3412V8.79984ZM66.3412 11.3198H65.3412V14.1072L67.1132 11.9555L66.3412 11.3198ZM69.1813 9.19984L68.7848 8.28175L68.7771 8.28516L69.1813 9.19984ZM72.9013 8.43984V9.43984C74.4924 9.43984 75.8749 9.76915 77.0734 10.4036L77.5413 9.51984L78.0091 8.63605C76.4876 7.83053 74.7768 7.43984 72.9013 7.43984V8.43984ZM77.5413 9.51984L77.0804 10.4073C78.2852 11.0329 79.2228 11.9549 79.904 13.1999L80.7812 12.7198L81.6585 12.2398C80.793 10.6581 79.5706 9.4468 78.0021 8.63235L77.5413 9.51984ZM80.7812 12.7198L79.904 13.1999C80.5796 14.4346 80.9413 15.9677 80.9413 17.8398H81.9413H82.9413C82.9413 15.712 82.5296 13.8318 81.6585 12.2398L80.7812 12.7198ZM81.9413 17.8398H80.9413V30.8398H81.9413H82.9413V17.8398H81.9413ZM81.9413 30.8398V29.8398H77.4212V30.8398V31.8398H81.9413V30.8398ZM77.4212 30.8398H78.4212V18.5198H77.4212H76.4212V30.8398H77.4212ZM77.4212 18.5198H78.4212C78.4212 16.3881 77.887 14.5979 76.6667 13.3116L75.9413 13.9998L75.2158 14.6881C75.9688 15.4818 76.4212 16.7049 76.4212 18.5198H77.4212ZM75.9413 13.9998L76.6753 13.3208C75.4661 12.0135 73.8336 11.3998 71.9013 11.3998V12.3998V13.3998C73.3823 13.3998 74.443 13.8528 75.2072 14.6789L75.9413 13.9998ZM71.9013 12.3998V11.3998C69.9683 11.3998 68.329 12.0135 67.0963 13.3111L67.8213 13.9998L68.5462 14.6886C69.3402 13.8529 70.4209 13.3998 71.9013 13.3998V12.3998ZM67.8213 13.9998L67.0958 13.3116C65.8755 14.5979 65.3412 16.3881 65.3412 18.5198H66.3412H67.3412C67.3412 16.7049 67.7937 15.4818 68.5467 14.6881L67.8213 13.9998ZM66.3412 18.5198H65.3412V30.8398H66.3412H67.3412V18.5198H66.3412ZM66.3412 30.8398V29.8398H61.7812V30.8398V31.8398H66.3412V30.8398ZM61.7812 30.8398H62.7812V8.79984H61.7812H60.7812V30.8398H61.7812ZM61.7812 8.79984V9.79984H66.3412V8.79984V7.79984H61.7812V8.79984ZM66.3412 8.79984H65.3412V11.3198H66.3412H67.3412V8.79984H66.3412ZM66.3412 11.3198L67.1132 11.9555C67.7541 11.1773 68.5716 10.5625 69.5854 10.1145L69.1813 9.19984L68.7771 8.28516C67.4976 8.85052 66.4218 9.64903 65.5693 10.6841L66.3412 11.3198ZM69.1813 9.19984L69.5777 10.1179C70.623 9.66652 71.7278 9.43984 72.9013 9.43984V8.43984V7.43984C71.4614 7.43984 70.0862 7.71983 68.7848 8.28178L69.1813 9.19984ZM93.0778 12.5198V11.5198H92.0778V12.5198H93.0778ZM93.6378 26.5198L92.9307 27.227L92.9559 27.2522L92.9829 27.2755L93.6378 26.5198ZM98.4378 27.0398H99.4378V26.0398H98.4378V27.0398ZM98.4378 30.8398V31.8398H99.4378V30.8398H98.4378ZM90.1178 29.3998L89.458 30.1513V30.1513L90.1178 29.3998ZM88.4778 12.5198H89.4778V11.5198H88.4778V12.5198ZM85.8778 12.5198H84.8778V13.5198H85.8778V12.5198ZM85.8778 8.79984V7.79984H84.8778V8.79984H85.8778ZM88.4778 8.79984V9.79984H89.4778V8.79984H88.4778ZM88.4778 3.31984V2.31984H87.4778V3.31984H88.4778ZM93.0778 3.31984H94.0778V2.31984H93.0778V3.31984ZM93.0778 8.79984H92.0778V9.79984H93.0778V8.79984ZM98.4378 8.79984H99.4378V7.79984H98.4378V8.79984ZM98.4378 12.5198V13.5198H99.4378V12.5198H98.4378ZM93.0778 12.5198H92.0778V24.7198H93.0778H94.0778V12.5198H93.0778ZM93.0778 24.7198H92.0778C92.0778 25.666 92.2872 26.5835 92.9307 27.227L93.6378 26.5198L94.3449 25.8127C94.2417 25.7095 94.0778 25.427 94.0778 24.7198H93.0778ZM93.6378 26.5198L92.9829 27.2755C93.6597 27.8621 94.6298 28.0398 95.6378 28.0398V27.0398V26.0398C94.7791 26.0398 94.4159 25.8709 94.2927 25.7642L93.6378 26.5198ZM95.6378 27.0398V28.0398H98.4378V27.0398V26.0398H95.6378V27.0398ZM98.4378 27.0398H97.4378V30.8398H98.4378H99.4378V27.0398H98.4378ZM98.4378 30.8398V29.8398H94.8378V30.8398V31.8398H98.4378V30.8398ZM94.8378 30.8398V29.8398C92.9282 29.8398 91.6257 29.3931 90.7776 28.6484L90.1178 29.3998L89.458 30.1513C90.7966 31.3266 92.6408 31.8398 94.8378 31.8398V30.8398ZM90.1178 29.3998L90.7776 28.6484C89.9878 27.9549 89.4778 26.7333 89.4778 24.7198H88.4778H87.4778C87.4778 27.0263 88.0611 28.9248 89.458 30.1513L90.1178 29.3998ZM88.4778 24.7198H89.4778V12.5198H88.4778H87.4778V24.7198H88.4778ZM88.4778 12.5198V11.5198H85.8778V12.5198V13.5198H88.4778V12.5198ZM85.8778 12.5198H86.8778V8.79984H85.8778H84.8778V12.5198H85.8778ZM85.8778 8.79984V9.79984H88.4778V8.79984V7.79984H85.8778V8.79984ZM88.4778 8.79984H89.4778V3.31984H88.4778H87.4778V8.79984H88.4778ZM88.4778 3.31984V4.31984H93.0778V3.31984V2.31984H88.4778V3.31984ZM93.0778 3.31984H92.0778V8.79984H93.0778H94.0778V3.31984H93.0778ZM93.0778 8.79984V9.79984H98.4378V8.79984V7.79984H93.0778V8.79984ZM98.4378 8.79984H97.4378V12.5198H98.4378H99.4378V8.79984H98.4378ZM98.4378 12.5198V11.5198H93.0778V12.5198V13.5198H98.4378V12.5198ZM118.521 9.51984L118.038 10.3957L118.045 10.3997L118.521 9.51984ZM121.641 12.7198L120.756 13.187L120.76 13.1934L120.763 13.1999L121.641 12.7198ZM122.801 30.8398V31.8398H123.801V30.8398H122.801ZM118.281 30.8398H117.281V31.8398H118.281V30.8398ZM116.801 13.9998L116.066 14.6789L116.075 14.6881L116.801 13.9998ZM108.681 13.9998L107.956 13.3111L107.955 13.3116L108.681 13.9998ZM107.201 30.8398V31.8398H108.201V30.8398H107.201ZM102.641 30.8398H101.641V31.8398H102.641V30.8398ZM102.641 1.23984V0.239843H101.641V1.23984H102.641ZM107.201 1.23984H108.201V0.239843H107.201V1.23984ZM107.201 11.3598H106.201V14.1341L107.971 11.9979L107.201 11.3598ZM110.121 9.19984L109.732 8.27856L109.724 8.28178L110.121 9.19984ZM114.041 8.43984V9.43984C115.573 9.43984 116.897 9.76696 118.038 10.3957L118.521 9.51984L119.003 8.644C117.531 7.83272 115.868 7.43984 114.041 7.43984V8.43984ZM118.521 9.51984L118.045 10.3997C119.195 11.0204 120.097 11.9386 120.756 13.187L121.641 12.7198L122.525 12.2527C121.691 10.6745 120.513 9.4593 118.996 8.63994L118.521 9.51984ZM121.641 12.7198L120.763 13.1999C121.439 14.4346 121.801 15.9677 121.801 17.8398H122.801H123.801C123.801 15.712 123.389 13.8318 122.518 12.2398L121.641 12.7198ZM122.801 17.8398H121.801V30.8398H122.801H123.801V17.8398H122.801ZM122.801 30.8398V29.8398H118.281V30.8398V31.8398H122.801V30.8398ZM118.281 30.8398H119.281V18.5198H118.281H117.281V30.8398H118.281ZM118.281 18.5198H119.281C119.281 16.3881 118.746 14.5979 117.526 13.3116L116.801 13.9998L116.075 14.6881C116.828 15.4818 117.281 16.7049 117.281 18.5198H118.281ZM116.801 13.9998L117.535 13.3208C116.326 12.0135 114.693 11.3998 112.761 11.3998V12.3998V13.3998C114.242 13.3998 115.302 13.8528 116.067 14.6789L116.801 13.9998ZM112.761 12.3998V11.3998C110.828 11.3998 109.188 12.0135 107.956 13.3111L108.681 13.9998L109.406 14.6886C110.2 13.8529 111.28 13.3998 112.761 13.3998V12.3998ZM108.681 13.9998L107.955 13.3116C106.735 14.5979 106.201 16.3881 106.201 18.5198H107.201H108.201C108.201 16.7049 108.653 15.4818 109.406 14.6881L108.681 13.9998ZM107.201 18.5198H106.201V30.8398H107.201H108.201V18.5198H107.201ZM107.201 30.8398V29.8398H102.641V30.8398V31.8398H107.201V30.8398ZM102.641 30.8398H103.641V1.23984H102.641H101.641V30.8398H102.641ZM102.641 1.23984V2.23984H107.201V1.23984V0.239843H102.641V1.23984ZM107.201 1.23984H106.201V11.3598H107.201H108.201V1.23984H107.201ZM107.201 11.3598L107.971 11.9979C108.638 11.1927 109.48 10.5655 110.517 10.1179L110.121 9.19984L109.724 8.28178C108.414 8.84751 107.31 9.66035 106.431 10.7218L107.201 11.3598ZM110.121 9.19984L110.51 10.1211C111.576 9.67068 112.749 9.43984 114.041 9.43984V8.43984V7.43984C112.505 7.43984 111.065 7.71568 109.732 8.27859L110.121 9.19984ZM138.328 8.87984L137.33 8.81546L137.261 9.87984H138.328V8.87984ZM141.168 3.07984L140.549 2.29433L140.543 2.29897L141.168 3.07984ZM152.728 1.99984L152.288 2.89776V2.89776L152.728 1.99984ZM155.808 4.71984L156.664 4.20242V4.20242L155.808 4.71984ZM155.528 12.8398L156.328 13.4398V13.4398L155.528 12.8398ZM152.368 15.1998L152.058 14.2491L151.368 14.4741V15.1998H152.368ZM152.368 15.3598H151.368V16.1003L152.076 16.3163L152.368 15.3598ZM156.048 17.9998L155.224 18.5664L155.229 18.5745L156.048 17.9998ZM156.288 27.0398L155.425 26.5336V26.5336L156.288 27.0398ZM153.088 29.9598L153.528 30.8576L153.535 30.8543L153.542 30.8509L153.088 29.9598ZM140.888 28.7998L140.258 29.5763L140.264 29.5813L140.27 29.5862L140.888 28.7998ZM137.928 22.3998V21.3998H136.879L136.929 22.4479L137.928 22.3998ZM142.328 22.3998L143.325 22.3246L143.255 21.3998H142.328V22.3998ZM143.968 25.8798L143.291 26.6162L143.297 26.6212L143.302 26.6261L143.968 25.8798ZM151.728 25.8798L152.435 26.5869L152.44 26.5817L152.445 26.5763L151.728 25.8798ZM151.248 18.4398L150.684 19.2661L150.695 19.2734L150.706 19.2804L151.248 18.4398ZM144.768 17.2398H143.768V18.2398H144.768V17.2398ZM144.768 13.4798V12.4798H143.768V13.4798H144.768ZM145.848 13.4798V14.4799L145.86 14.4798L145.848 13.4798ZM150.768 12.3998L150.25 11.5441L150.241 11.5496L150.768 12.3998ZM151.248 6.07984L150.565 6.81011L150.571 6.81609L150.578 6.82195L151.248 6.07984ZM144.248 6.07984L144.918 6.82195L144.925 6.81609L144.931 6.81011L144.248 6.07984ZM142.768 8.87984V9.87984H143.635L143.758 9.02126L142.768 8.87984ZM138.328 8.87984L139.326 8.94423C139.47 6.70768 140.306 5.04963 141.793 3.86071L141.168 3.07984L140.543 2.29897C138.563 3.88338 137.506 6.09201 137.33 8.81546L138.328 8.87984ZM141.168 3.07984L141.787 3.86533C143.335 2.64544 145.343 1.99984 147.888 1.99984V0.999842V-0.00015831C144.993 -0.00015831 142.521 0.740911 140.549 2.29435L141.168 3.07984ZM147.888 0.999842V1.99984C149.637 1.99984 151.093 2.31204 152.288 2.89776L152.728 1.99984L153.168 1.10192C151.643 0.354307 149.872 -0.00015831 147.888 -0.00015831V0.999842ZM152.728 1.99984L152.288 2.89776C153.499 3.49137 154.37 4.27534 154.952 5.23726L155.808 4.71984L156.664 4.20242C155.859 2.87101 154.677 1.84165 153.168 1.10192L152.728 1.99984ZM155.808 4.71984L154.952 5.23726C155.544 6.21617 155.848 7.32811 155.848 8.59984H156.848H157.848C157.848 6.99157 157.458 5.51685 156.664 4.20242L155.808 4.71984ZM156.848 8.59984H155.848C155.848 10.0657 155.462 11.2614 154.728 12.2398L155.528 12.8398L156.328 13.4398C157.354 12.0717 157.848 10.4407 157.848 8.59984H156.848ZM155.528 12.8398L154.728 12.2398C153.954 13.272 153.063 13.9213 152.058 14.2491L152.368 15.1998L152.678 16.1506C154.126 15.6783 155.342 14.7543 156.328 13.4398L155.528 12.8398ZM152.368 15.1998H151.368V15.3598H152.368H153.368V15.1998H152.368ZM152.368 15.3598L152.076 16.3163C153.447 16.7345 154.48 17.4843 155.224 18.5664L156.048 17.9998L156.872 17.4333C155.856 15.9554 154.436 14.9452 152.66 14.4034L152.368 15.3598ZM156.048 17.9998L155.229 18.5745C155.961 19.6168 156.368 21.013 156.368 22.8398H157.368H158.368C158.368 20.72 157.894 18.8896 156.866 17.4252L156.048 17.9998ZM157.368 22.8398H156.368C156.368 24.2546 156.046 25.4764 155.425 26.5336L156.288 27.0398L157.15 27.546C157.97 26.15 158.368 24.5717 158.368 22.8398H157.368ZM156.288 27.0398L155.425 26.5336C154.813 27.5771 153.897 28.4252 152.634 29.0688L153.088 29.9598L153.542 30.8509C155.105 30.0545 156.323 28.9559 157.15 27.546L156.288 27.0398ZM153.088 29.9598L152.647 29.0621C151.401 29.6733 149.866 29.9998 148.008 29.9998V30.9998V31.9998C150.096 31.9998 151.948 31.6331 153.528 30.8576L153.088 29.9598ZM148.008 30.9998V29.9998C145.303 29.9998 143.161 29.3141 141.506 28.0135L140.888 28.7998L140.27 29.5862C142.348 31.2189 144.953 31.9998 148.008 31.9998V30.9998ZM140.888 28.7998L141.518 28.0234C139.937 26.7406 139.049 24.8945 138.927 22.3518L137.928 22.3998L136.929 22.4479C137.073 25.4518 138.158 27.8724 140.258 29.5763L140.888 28.7998ZM137.928 22.3998V23.3998H142.328V22.3998V21.3998H137.928V22.3998ZM142.328 22.3998L141.331 22.4751C141.455 24.1254 142.106 25.5272 143.291 26.6162L143.968 25.8798L144.644 25.1435C143.856 24.4192 143.414 23.5009 143.325 22.3246L142.328 22.3998ZM143.968 25.8798L143.302 26.6261C144.518 27.7101 146.111 28.1998 147.968 28.1998V27.1998V26.1998C146.465 26.1998 145.391 25.8096 144.633 25.1335L143.968 25.8798ZM147.968 27.1998V28.1998C149.775 28.1998 151.315 27.7069 152.435 26.5869L151.728 25.8798L151.021 25.1727C150.381 25.8128 149.414 26.1998 147.968 26.1998V27.1998ZM151.728 25.8798L152.445 26.5763C153.529 25.4603 154.048 24.0397 154.048 22.3998H153.048H152.048C152.048 23.5867 151.687 24.4861 151.01 25.1834L151.728 25.8798ZM153.048 22.3998H154.048C154.048 20.3107 153.362 18.6124 151.79 17.5993L151.248 18.4398L150.706 19.2804C151.534 19.814 152.048 20.7556 152.048 22.3998H153.048ZM151.248 18.4398L151.811 17.6136C150.39 16.6445 148.332 16.2398 145.808 16.2398V17.2398V18.2398C148.19 18.2398 149.759 18.6352 150.684 19.2661L151.248 18.4398ZM145.808 17.2398V16.2398H144.768V17.2398V18.2398H145.808V17.2398ZM144.768 17.2398H145.768V13.4798H144.768H143.768V17.2398H144.768ZM144.768 13.4798V14.4798H145.848V13.4798V12.4798H144.768V13.4798ZM145.848 13.4798L145.86 14.4798C148.098 14.4521 149.95 14.0821 151.294 13.2501L150.768 12.3998L150.241 11.5496C149.345 12.1042 147.918 12.4542 145.835 12.4799L145.848 13.4798ZM150.768 12.3998L151.285 13.2556C152.77 12.3576 153.488 10.9153 153.488 9.11984H152.488H151.488C151.488 10.3111 151.059 11.0554 150.25 11.5441L150.768 12.3998ZM152.488 9.11984H153.488C153.488 7.60348 152.987 6.30309 151.918 5.33774L151.248 6.07984L150.578 6.82195C151.162 7.34993 151.488 8.07621 151.488 9.11984H152.488ZM151.248 6.07984L151.931 5.34957C150.863 4.35058 149.413 3.91984 147.728 3.91984V4.91984V5.91984C149.083 5.91984 149.979 6.26244 150.565 6.81011L151.248 6.07984ZM147.728 4.91984V3.91984C146.064 3.91984 144.629 4.35345 143.565 5.34957L144.248 6.07984L144.931 6.81011C145.519 6.25957 146.405 5.91984 147.728 5.91984V4.91984ZM144.248 6.07984L143.578 5.33774C142.574 6.24377 141.97 7.39094 141.778 8.73842L142.768 8.87984L143.758 9.02126C143.885 8.12875 144.268 7.40925 144.918 6.82195L144.248 6.07984ZM142.768 8.87984V7.87984H138.328V8.87984V9.87984H142.768V8.87984ZM179.678 14.4398H180.678V13.4398H179.678V14.4398ZM179.678 18.2798V19.2798H180.678V18.2798H179.678ZM163.238 18.2798H162.238V19.2798H163.238V18.2798ZM163.238 14.4398V13.4398H162.238V14.4398H163.238ZM179.678 14.4398H178.678V18.2798H179.678H180.678V14.4398H179.678ZM179.678 18.2798V17.2798H163.238V18.2798V19.2798H179.678V18.2798ZM163.238 18.2798H164.238V14.4398H163.238H162.238V18.2798H163.238ZM163.238 14.4398V15.4398H179.678V14.4398V13.4398H163.238V14.4398ZM204.356 5.59984V6.59984H205.356V5.59984H204.356ZM190.956 5.59984V4.59984H189.956V5.59984H190.956ZM190.956 13.5598H189.956V16.5598L191.756 14.1598L190.956 13.5598ZM193.436 11.6798L193.024 10.7687L193.016 10.7725L193.436 11.6798ZM202.436 12.3598L201.867 13.1821L201.874 13.1871L202.436 12.3598ZM205.436 15.9998L204.508 16.3712L204.511 16.3785L204.514 16.3856L205.436 15.9998ZM205.196 25.9198L204.302 25.4726L204.299 25.4789L205.196 25.9198ZM201.796 29.5198L201.295 28.6544L201.289 28.6583L201.796 29.5198ZM189.276 28.6798L189.909 27.9059V27.9059L189.276 28.6798ZM186.116 22.9598V21.9598H184.96L185.127 23.1044L186.116 22.9598ZM190.556 22.9598L191.53 22.732L191.349 21.9598H190.556V22.9598ZM192.516 25.9598L191.923 26.7649L191.93 26.77L191.937 26.775L192.516 25.9598ZM200.556 25.3198L199.789 24.6778L199.781 24.6886L200.556 25.3198ZM200.556 16.3598L199.821 17.0382L199.83 17.0476L200.556 16.3598ZM192.996 15.7998L193.584 16.6086L193.589 16.6055L192.996 15.7998ZM191.076 18.4398V19.4398H191.781L192.018 18.7762L191.076 18.4398ZM186.756 18.4398H185.756V19.4398H186.756V18.4398ZM186.756 1.59984V0.599844H185.756V1.59984H186.756ZM204.356 1.59984H205.356V0.599844H204.356V1.59984ZM204.356 5.59984V4.59984H190.956V5.59984V6.59984H204.356V5.59984ZM190.956 5.59984H189.956V13.5598H190.956H191.956V5.59984H190.956ZM190.956 13.5598L191.756 14.1598C192.192 13.5783 192.871 13.044 193.857 12.5872L193.436 11.6798L193.016 10.7725C191.815 11.329 190.84 12.048 190.156 12.9598L190.956 13.5598ZM193.436 11.6798L193.848 12.591C194.836 12.144 195.882 11.9198 196.996 11.9198V10.9198V9.91984C195.604 9.91984 194.276 10.2023 193.024 10.7687L193.436 11.6798ZM196.996 10.9198V11.9198C199.099 11.9198 200.695 12.3703 201.867 13.182L202.436 12.3598L203.005 11.5377C201.405 10.4294 199.374 9.91984 196.996 9.91984V10.9198ZM202.436 12.3598L201.874 13.1871C203.137 14.0446 204.001 15.1049 204.508 16.3712L205.436 15.9998L206.365 15.6285C205.698 13.9615 204.562 12.5951 202.998 11.5326L202.436 12.3598ZM205.436 15.9998L204.514 16.3856C205.075 17.7272 205.356 19.1425 205.356 20.6398H206.356H207.356C207.356 18.8839 207.024 17.2058 206.359 15.614L205.436 15.9998ZM206.356 20.6398H205.356C205.356 22.48 204.997 24.0833 204.302 25.4726L205.196 25.9198L206.091 26.3671C206.943 24.6631 207.356 22.7464 207.356 20.6398H206.356ZM205.196 25.9198L204.299 25.4789C203.643 26.8145 202.651 27.8697 201.295 28.6544L201.796 29.5198L202.297 30.3853C203.982 29.41 205.257 28.0652 206.094 26.3607L205.196 25.9198ZM201.796 29.5198L201.289 28.6583C199.984 29.4268 198.33 29.8398 196.276 29.8398V30.8398V31.8398C198.595 31.8398 200.621 31.3729 202.304 30.3814L201.796 29.5198ZM196.276 30.8398V29.8398C193.535 29.8398 191.446 29.163 189.909 27.9059L189.276 28.6798L188.643 29.4538C190.626 31.0766 193.204 31.8398 196.276 31.8398V30.8398ZM189.276 28.6798L189.909 27.9059C188.354 26.6331 187.419 24.9566 187.106 22.8153L186.116 22.9598L185.127 23.1044C185.507 25.7098 186.679 27.8466 188.643 29.4538L189.276 28.6798ZM186.116 22.9598V23.9598H190.556V22.9598V21.9598H186.116V22.9598ZM190.556 22.9598L189.583 23.1877C189.929 24.6668 190.714 25.8737 191.923 26.7649L192.516 25.9598L193.109 25.1548C192.292 24.5526 191.77 23.7595 191.53 22.732L190.556 22.9598ZM192.516 25.9598L191.937 26.775C193.154 27.6399 194.636 28.0398 196.316 28.0398V27.0398V26.0398C194.957 26.0398 193.905 25.7198 193.095 25.1447L192.516 25.9598ZM196.316 27.0398V28.0398C198.419 28.0398 200.158 27.3938 201.332 25.9511L200.556 25.3198L199.781 24.6886C199.088 25.5392 198 26.0398 196.316 26.0398V27.0398ZM200.556 25.3198L201.323 25.9618C202.47 24.5915 202.996 22.8239 202.996 20.7598H201.996H200.996C200.996 22.4825 200.562 23.7549 199.789 24.6779L200.556 25.3198ZM201.996 20.7598H202.996C202.996 18.6813 202.475 16.9315 201.282 15.6721L200.556 16.3598L199.83 17.0476C200.557 17.8148 200.996 18.9984 200.996 20.7598H201.996ZM200.556 16.3598L201.291 15.6816C200.086 14.3766 198.369 13.7998 196.316 13.7998V14.7998V15.7998C197.997 15.7998 199.106 16.2631 199.821 17.0381L200.556 16.3598ZM196.316 14.7998V13.7998C194.832 13.7998 193.509 14.1817 192.404 14.9942L192.996 15.7998L193.589 16.6055C194.297 16.0846 195.187 15.7998 196.316 15.7998V14.7998ZM192.996 15.7998L192.408 14.9911C191.35 15.7604 190.596 16.8125 190.135 18.1035L191.076 18.4398L192.018 18.7762C192.357 17.8272 192.882 17.1193 193.584 16.6086L192.996 15.7998ZM191.076 18.4398V17.4398H186.756V18.4398V19.4398H191.076V18.4398ZM186.756 18.4398H187.756V1.59984H186.756H185.756V18.4398H186.756ZM186.756 1.59984V2.59984H204.356V1.59984V0.599844H186.756V1.59984ZM204.356 1.59984H203.356V5.59984H204.356H205.356V1.59984H204.356Z" fill="url(#paint0_linear_484_6697)" mask="url(#path-1-outside-1_484_6697)"/>
<defs>
<linearGradient id="paint0_linear_484_6697" x1="103.352" y1="-11.1602" x2="103.418" y2="37.7154" gradientUnits="userSpaceOnUse">
<stop stop-color="#FFF0F0"/>
<stop offset="1" stop-color="#FFF0F0" stop-opacity="0.16"/>
</linearGradient>
</defs>
</svg>
