<svg width="161" height="33" viewBox="0 0 161 33" fill="none" xmlns="http://www.w3.org/2000/svg">
<mask id="path-1-outside-1_484_6715" maskUnits="userSpaceOnUse" x="-0.742188" y="-0.319824" width="161" height="33" fill="black">
<rect fill="white" x="-0.742188" y="-0.319824" width="161" height="33"/>
<path d="M30.28 2.88017V30.6802H25.72V11.6402L17.24 30.6802H14.08L5.56 11.6402V30.6802H1V2.88017H5.92L15.68 24.6802L25.4 2.88017H30.28ZM45.8334 31.0402C43.7534 31.0402 41.8734 30.5735 40.1934 29.6402C38.5134 28.6802 37.1934 27.3468 36.2334 25.6402C35.2734 23.9068 34.7934 21.9068 34.7934 19.6402C34.7934 17.4002 35.2868 15.4135 36.2734 13.6802C37.2601 11.9468 38.6068 10.6135 40.3134 9.68017C42.0201 8.74684 43.9268 8.28018 46.0334 8.28018C48.1401 8.28018 50.0468 8.74684 51.7534 9.68017C53.4601 10.6135 54.8068 11.9468 55.7934 13.6802C56.7801 15.4135 57.2734 17.4002 57.2734 19.6402C57.2734 21.8802 56.7668 23.8668 55.7534 25.6002C54.7401 27.3335 53.3534 28.6802 51.5934 29.6402C49.8601 30.5735 47.9401 31.0402 45.8334 31.0402ZM45.8334 27.0802C47.0068 27.0802 48.1001 26.8002 49.1134 26.2402C50.1534 25.6802 50.9934 24.8402 51.6334 23.7202C52.2734 22.6002 52.5934 21.2402 52.5934 19.6402C52.5934 18.0402 52.2868 16.6935 51.6734 15.6002C51.0601 14.4802 50.2468 13.6402 49.2334 13.0802C48.2201 12.5202 47.1268 12.2402 45.9534 12.2402C44.7801 12.2402 43.6868 12.5202 42.6734 13.0802C41.6868 13.6402 40.9001 14.4802 40.3134 15.6002C39.7268 16.6935 39.4334 18.0402 39.4334 19.6402C39.4334 22.0135 40.0334 23.8535 41.2334 25.1602C42.4601 26.4402 43.9934 27.0802 45.8334 27.0802ZM72.9013 8.28018C74.6346 8.28018 76.1813 8.64018 77.5413 9.36017C78.9279 10.0802 80.0079 11.1468 80.7813 12.5602C81.5546 13.9735 81.9413 15.6802 81.9413 17.6802V30.6802H77.4213V18.3602C77.4213 16.3868 76.9279 14.8802 75.9413 13.8402C74.9546 12.7735 73.6079 12.2402 71.9013 12.2402C70.1946 12.2402 68.8346 12.7735 67.8213 13.8402C66.8346 14.8802 66.3413 16.3868 66.3413 18.3602V30.6802H61.7813V8.64018H66.3413V11.1602C67.0879 10.2535 68.0346 9.54684 69.1813 9.04018C70.3546 8.53351 71.5946 8.28018 72.9013 8.28018ZM93.0778 12.3602V24.5602C93.0778 25.3868 93.2645 25.9868 93.6378 26.3602C94.0378 26.7068 94.7045 26.8802 95.6378 26.8802H98.4378V30.6802H94.8378C92.7845 30.6802 91.2111 30.2002 90.1178 29.2402C89.0245 28.2802 88.4778 26.7202 88.4778 24.5602V12.3602H85.8778V8.64018H88.4778V3.16017H93.0778V8.64018H98.4378V12.3602H93.0778ZM114.041 8.28018C115.721 8.28018 117.214 8.64018 118.521 9.36017C119.854 10.0802 120.894 11.1468 121.641 12.5602C122.414 13.9735 122.801 15.6802 122.801 17.6802V30.6802H118.281V18.3602C118.281 16.3868 117.787 14.8802 116.801 13.8402C115.814 12.7735 114.467 12.2402 112.761 12.2402C111.054 12.2402 109.694 12.7735 108.681 13.8402C107.694 14.8802 107.201 16.3868 107.201 18.3602V30.6802H102.641V1.08018H107.201V11.2002C107.974 10.2668 108.947 9.54684 110.121 9.04018C111.321 8.53351 112.627 8.28018 114.041 8.28018ZM143.328 15.4402C140.554 14.0535 139.168 11.8668 139.168 8.88018C139.168 7.44017 139.528 6.12017 140.248 4.92017C140.968 3.72017 142.048 2.77351 143.488 2.08017C144.928 1.36017 146.688 1.00017 148.768 1.00017C150.821 1.00017 152.568 1.36017 154.008 2.08017C155.474 2.77351 156.568 3.72017 157.288 4.92017C158.008 6.12017 158.368 7.44017 158.368 8.88018C158.368 10.3735 157.981 11.6935 157.208 12.8402C156.461 13.9602 155.461 14.8268 154.208 15.4402C155.728 16.0002 156.928 16.9202 157.808 18.2002C158.688 19.4535 159.128 20.9335 159.128 22.6402C159.128 24.3735 158.688 25.9068 157.808 27.2402C156.928 28.5735 155.701 29.6002 154.128 30.3202C152.554 31.0402 150.768 31.4002 148.768 31.4002C146.768 31.4002 144.981 31.0402 143.408 30.3202C141.861 29.6002 140.648 28.5735 139.768 27.2402C138.888 25.9068 138.448 24.3735 138.448 22.6402C138.448 20.9068 138.888 19.4135 139.768 18.1602C140.648 16.9068 141.834 16.0002 143.328 15.4402ZM154.008 9.44018C154.008 7.94684 153.541 6.80017 152.608 6.00017C151.674 5.20017 150.394 4.80018 148.768 4.80018C147.168 4.80018 145.901 5.20017 144.968 6.00017C144.034 6.80017 143.568 7.96018 143.568 9.48017C143.568 10.8135 144.048 11.9068 145.008 12.7602C145.994 13.5868 147.248 14.0002 148.768 14.0002C150.288 14.0002 151.541 13.5735 152.528 12.7202C153.514 11.8668 154.008 10.7735 154.008 9.44018ZM148.768 17.4402C147.008 17.4402 145.568 17.8802 144.448 18.7602C143.354 19.6135 142.808 20.8535 142.808 22.4802C142.808 24.0002 143.341 25.2402 144.408 26.2002C145.474 27.1335 146.928 27.6002 148.768 27.6002C150.581 27.6002 152.008 27.1202 153.048 26.1602C154.114 25.2002 154.648 23.9735 154.648 22.4802C154.648 20.8802 154.101 19.6402 153.008 18.7602C151.941 17.8802 150.528 17.4402 148.768 17.4402Z"/>
</mask>
<path d="M30.28 2.88017H31.28V1.88017H30.28V2.88017ZM30.28 30.6802V31.6802H31.28V30.6802H30.28ZM25.72 30.6802H24.72V31.6802H25.72V30.6802ZM25.72 11.6402H26.72L24.8065 11.2333L25.72 11.6402ZM17.24 30.6802V31.6802H17.8893L18.1535 31.087L17.24 30.6802ZM14.08 30.6802L13.1672 31.0886L13.4319 31.6802H14.08V30.6802ZM5.56 11.6402L6.47278 11.2317L4.56 11.6402H5.56ZM5.56 30.6802V31.6802H6.56V30.6802H5.56ZM1 30.6802H0V31.6802H1V30.6802ZM1 2.88017V1.88017H0V2.88017H1ZM5.92 2.88017L6.8327 2.47155L6.56794 1.88017H5.92V2.88017ZM15.68 24.6802L14.7673 25.0888L15.6819 27.1316L16.5933 25.0874L15.68 24.6802ZM25.4 2.88017V1.88017H24.751L24.4867 2.47295L25.4 2.88017ZM30.28 2.88017H29.28V30.6802H30.28H31.28V2.88017H30.28ZM30.28 30.6802V29.6802H25.72V30.6802V31.6802H30.28V30.6802ZM25.72 30.6802H26.72V11.6402H25.72H24.72V30.6802H25.72ZM25.72 11.6402L24.8065 11.2333L16.3265 30.2733L17.24 30.6802L18.1535 31.087L26.6335 12.047L25.72 11.6402ZM17.24 30.6802V29.6802H14.08V30.6802V31.6802H17.24V30.6802ZM14.08 30.6802L14.9928 30.2717L6.47278 11.2317L5.56 11.6402L4.64722 12.0486L13.1672 31.0886L14.08 30.6802ZM5.56 11.6402H4.56V30.6802H5.56H6.56V11.6402H5.56ZM5.56 30.6802V29.6802H1V30.6802V31.6802H5.56V30.6802ZM1 30.6802H2V2.88017H1H0V30.6802H1ZM1 2.88017V3.88017H5.92V2.88017V1.88017H1V2.88017ZM5.92 2.88017L5.0073 3.2888L14.7673 25.0888L15.68 24.6802L16.5927 24.2716L6.8327 2.47155L5.92 2.88017ZM15.68 24.6802L16.5933 25.0874L26.3133 3.2874L25.4 2.88017L24.4867 2.47295L14.7667 24.2729L15.68 24.6802ZM25.4 2.88017V3.88017H30.28V2.88017V1.88017H25.4V2.88017ZM40.1934 29.6402L39.6973 30.5085L39.7078 30.5143L40.1934 29.6402ZM36.2334 25.6402L35.3586 26.1247L35.3619 26.1304L36.2334 25.6402ZM40.3134 9.68017L39.8336 8.8028V8.8028L40.3134 9.68017ZM51.7534 9.68017L52.2333 8.8028V8.8028L51.7534 9.68017ZM55.7534 25.6002L54.8901 25.0955L55.7534 25.6002ZM51.5934 29.6402L52.0675 30.5207L52.0723 30.5181L51.5934 29.6402ZM49.1134 26.2402L48.6393 25.3597L48.6298 25.3649L49.1134 26.2402ZM51.6334 23.7202L50.7652 23.224V23.224L51.6334 23.7202ZM51.6734 15.6002L50.7963 16.0805L50.8013 16.0894L51.6734 15.6002ZM42.6734 13.0802L42.1897 12.2049L42.1798 12.2105L42.6734 13.0802ZM40.3134 15.6002L41.1946 16.073L41.1993 16.0642L40.3134 15.6002ZM41.2334 25.1602L40.4969 25.8366L40.5041 25.8444L40.5115 25.8521L41.2334 25.1602ZM45.8334 31.0402V30.0402C43.909 30.0402 42.1984 29.6101 40.6791 28.766L40.1934 29.6402L39.7078 30.5143C41.5484 31.5369 43.5979 32.0402 45.8334 32.0402V31.0402ZM40.1934 29.6402L40.6896 28.7719C39.1686 27.9028 37.9775 26.7009 37.105 25.1499L36.2334 25.6402L35.3619 26.1304C36.4094 27.9927 37.8583 29.4576 39.6973 30.5084L40.1934 29.6402ZM36.2334 25.6402L37.1082 25.1557C36.2415 23.5908 35.7934 21.762 35.7934 19.6402H34.7934H33.7934C33.7934 22.0516 34.3053 24.2229 35.3586 26.1247L36.2334 25.6402ZM34.7934 19.6402H35.7934C35.7934 17.5519 36.2518 15.7396 37.1425 14.1749L36.2734 13.6802L35.4044 13.1855C34.3217 15.0874 33.7934 17.2485 33.7934 19.6402H34.7934ZM36.2734 13.6802L37.1425 14.1749C38.0399 12.5984 39.2536 11.3995 40.7933 10.5575L40.3134 9.68017L39.8336 8.8028C37.9599 9.82747 36.4803 11.2953 35.4044 13.1855L36.2734 13.6802ZM40.3134 9.68017L40.7933 10.5575C42.3407 9.71126 44.0802 9.28018 46.0334 9.28018V8.28018V7.28018C43.7734 7.28018 41.6995 7.78242 39.8336 8.8028L40.3134 9.68017ZM46.0334 8.28018V9.28018C47.9867 9.28018 49.7261 9.71126 51.2736 10.5575L51.7534 9.68017L52.2333 8.8028C50.3674 7.78242 48.2935 7.28018 46.0334 7.28018V8.28018ZM51.7534 9.68017L51.2736 10.5575C52.8133 11.3995 54.027 12.5984 54.9244 14.1749L55.7934 13.6802L56.6625 13.1855C55.5865 11.2953 54.1069 9.82747 52.2333 8.8028L51.7534 9.68017ZM55.7934 13.6802L54.9244 14.1749C55.8151 15.7396 56.2734 17.5519 56.2734 19.6402H57.2734H58.2734C58.2734 17.2485 57.7451 15.0874 56.6625 13.1855L55.7934 13.6802ZM57.2734 19.6402H56.2734C56.2734 21.7238 55.8039 23.5324 54.8901 25.0955L55.7534 25.6002L56.6167 26.1049C57.7296 24.2012 58.2734 22.0365 58.2734 19.6402H57.2734ZM55.7534 25.6002L54.8901 25.0955C53.9685 26.672 52.7146 27.8895 51.1146 28.7623L51.5934 29.6402L52.0723 30.5181C53.9923 29.4708 55.5117 27.995 56.6167 26.1049L55.7534 25.6002ZM51.5934 29.6402L51.1193 28.7597C49.5419 29.6091 47.7866 30.0402 45.8334 30.0402V31.0402V32.0402C48.0937 32.0402 50.1783 31.5379 52.0675 30.5206L51.5934 29.6402ZM45.8334 27.0802V28.0802C47.1736 28.0802 48.4336 27.7584 49.5971 27.1154L49.1134 26.2402L48.6298 25.3649C47.7666 25.842 46.84 26.0802 45.8334 26.0802V27.0802ZM49.1134 26.2402L49.5875 27.1206C50.8073 26.4638 51.7777 25.4833 52.5017 24.2163L51.6334 23.7202L50.7652 23.224C50.2092 24.1971 49.4995 24.8965 48.6393 25.3597L49.1134 26.2402ZM51.6334 23.7202L52.5017 24.2163C53.2465 22.9129 53.5934 21.3728 53.5934 19.6402H52.5934H51.5934C51.5934 21.1075 51.3004 22.2874 50.7652 23.224L51.6334 23.7202ZM52.5934 19.6402H53.5934C53.5934 17.9152 53.2628 16.3895 52.5456 15.1109L51.6734 15.6002L50.8013 16.0894C51.3107 16.9975 51.5934 18.1652 51.5934 19.6402H52.5934ZM51.6734 15.6002L52.5505 15.1199C51.8559 13.8513 50.9132 12.8659 49.7171 12.2049L49.2334 13.0802L48.7498 13.9554C49.5803 14.4144 50.2644 15.109 50.7963 16.0805L51.6734 15.6002ZM49.2334 13.0802L49.7171 12.2049C48.5536 11.562 47.2936 11.2402 45.9534 11.2402V12.2402V13.2402C46.96 13.2402 47.8866 13.4784 48.7498 13.9554L49.2334 13.0802ZM45.9534 12.2402V11.2402C44.6133 11.2402 43.3532 11.562 42.1898 12.2049L42.6734 13.0802L43.1571 13.9554C44.0203 13.4784 44.9469 13.2402 45.9534 13.2402V12.2402ZM42.6734 13.0802L42.1798 12.2105C41.0075 12.8759 40.0928 13.8662 39.4276 15.1362L40.3134 15.6002L41.1993 16.0642C41.7074 15.0941 42.3661 14.4045 43.167 13.9499L42.6734 13.0802ZM40.3134 15.6002L39.4323 15.1274C38.7483 16.4021 38.4334 17.9216 38.4334 19.6402H39.4334H40.4334C40.4334 18.1587 40.7053 16.9849 41.1946 16.073L40.3134 15.6002ZM39.4334 19.6402H38.4334C38.4334 22.1778 39.077 24.2905 40.4969 25.8366L41.2334 25.1602L41.97 24.4838C40.9899 23.4166 40.4334 21.8492 40.4334 19.6402H39.4334ZM41.2334 25.1602L40.5115 25.8521C41.9346 27.3371 43.7324 28.0802 45.8334 28.0802V27.0802V26.0802C44.2544 26.0802 42.9856 25.5432 41.9554 24.4683L41.2334 25.1602ZM77.5413 9.36017L77.0733 10.244L77.0804 10.2477L77.5413 9.36017ZM80.7812 12.5602L79.904 13.0402V13.0402L80.7812 12.5602ZM81.9413 30.6802V31.6802H82.9413V30.6802H81.9413ZM77.4212 30.6802H76.4212V31.6802H77.4212V30.6802ZM75.9413 13.8402L75.2071 14.5193L75.2158 14.5284L75.9413 13.8402ZM67.8213 13.8402L67.0963 13.1514L67.0958 13.1519L67.8213 13.8402ZM66.3412 30.6802V31.6802H67.3412V30.6802H66.3412ZM61.7812 30.6802H60.7812V31.6802H61.7812V30.6802ZM61.7812 8.64017V7.64017H60.7812V8.64017H61.7812ZM66.3412 8.64017H67.3412V7.64017H66.3412V8.64017ZM66.3412 11.1602H65.3412V13.9475L67.1132 11.7959L66.3412 11.1602ZM69.1813 9.04018L68.7848 8.12208L68.7771 8.12549L69.1813 9.04018ZM72.9013 8.28018V9.28018C74.4924 9.28018 75.8749 9.60949 77.0734 10.244L77.5413 9.36017L78.0091 8.47639C76.4876 7.67086 74.7768 7.28018 72.9013 7.28018V8.28018ZM77.5413 9.36017L77.0804 10.2477C78.2852 10.8732 79.2228 11.7953 79.904 13.0402L80.7812 12.5602L81.6585 12.0802C80.793 10.4984 79.5706 9.28713 78.0021 8.47268L77.5413 9.36017ZM80.7812 12.5602L79.904 13.0402C80.5796 14.2749 80.9413 15.808 80.9413 17.6802H81.9413H82.9413C82.9413 15.5523 82.5296 13.6721 81.6585 12.0802L80.7812 12.5602ZM81.9413 17.6802H80.9413V30.6802H81.9413H82.9413V17.6802H81.9413ZM81.9413 30.6802V29.6802H77.4212V30.6802V31.6802H81.9413V30.6802ZM77.4212 30.6802H78.4212V18.3602H77.4212H76.4212V30.6802H77.4212ZM77.4212 18.3602H78.4212C78.4212 16.2284 77.887 14.4382 76.6667 13.1519L75.9413 13.8402L75.2158 14.5284C75.9688 15.3222 76.4212 16.5452 76.4212 18.3602H77.4212ZM75.9413 13.8402L76.6753 13.1611C75.4661 11.8539 73.8336 11.2402 71.9013 11.2402V12.2402V13.2402C73.3823 13.2402 74.443 13.6931 75.2072 14.5192L75.9413 13.8402ZM71.9013 12.2402V11.2402C69.9683 11.2402 68.329 11.8538 67.0963 13.1514L67.8213 13.8402L68.5462 14.5289C69.3402 13.6932 70.4209 13.2402 71.9013 13.2402V12.2402ZM67.8213 13.8402L67.0958 13.1519C65.8755 14.4382 65.3412 16.2284 65.3412 18.3602H66.3412H67.3412C67.3412 16.5452 67.7937 15.3222 68.5467 14.5284L67.8213 13.8402ZM66.3412 18.3602H65.3412V30.6802H66.3412H67.3412V18.3602H66.3412ZM66.3412 30.6802V29.6802H61.7812V30.6802V31.6802H66.3412V30.6802ZM61.7812 30.6802H62.7812V8.64017H61.7812H60.7812V30.6802H61.7812ZM61.7812 8.64017V9.64017H66.3412V8.64017V7.64017H61.7812V8.64017ZM66.3412 8.64017H65.3412V11.1602H66.3412H67.3412V8.64017H66.3412ZM66.3412 11.1602L67.1132 11.7959C67.7541 11.0177 68.5716 10.4028 69.5854 9.95486L69.1813 9.04018L68.7771 8.12549C67.4976 8.69085 66.4218 9.48936 65.5693 10.5245L66.3412 11.1602ZM69.1813 9.04018L69.5777 9.95824C70.623 9.50685 71.7278 9.28018 72.9013 9.28018V8.28018V7.28018C71.4614 7.28018 70.0862 7.56017 68.7848 8.12211L69.1813 9.04018ZM93.0778 12.3602V11.3602H92.0778V12.3602H93.0778ZM93.6378 26.3602L92.9307 27.0673L92.9559 27.0925L92.9829 27.1159L93.6378 26.3602ZM98.4378 26.8802H99.4378V25.8802H98.4378V26.8802ZM98.4378 30.6802V31.6802H99.4378V30.6802H98.4378ZM90.1178 29.2402L89.458 29.9916V29.9916L90.1178 29.2402ZM88.4778 12.3602H89.4778V11.3602H88.4778V12.3602ZM85.8778 12.3602H84.8778V13.3602H85.8778V12.3602ZM85.8778 8.64017V7.64017H84.8778V8.64017H85.8778ZM88.4778 8.64017V9.64017H89.4778V8.64017H88.4778ZM88.4778 3.16018V2.16018H87.4778V3.16018H88.4778ZM93.0778 3.16018H94.0778V2.16018H93.0778V3.16018ZM93.0778 8.64017H92.0778V9.64017H93.0778V8.64017ZM98.4378 8.64017H99.4378V7.64017H98.4378V8.64017ZM98.4378 12.3602V13.3602H99.4378V12.3602H98.4378ZM93.0778 12.3602H92.0778V24.5602H93.0778H94.0778V12.3602H93.0778ZM93.0778 24.5602H92.0778C92.0778 25.5064 92.2872 26.4238 92.9307 27.0673L93.6378 26.3602L94.3449 25.6531C94.2417 25.5499 94.0778 25.2673 94.0778 24.5602H93.0778ZM93.6378 26.3602L92.9829 27.1159C93.6597 27.7025 94.6298 27.8802 95.6378 27.8802V26.8802V25.8802C94.7791 25.8802 94.4159 25.7112 94.2927 25.6045L93.6378 26.3602ZM95.6378 26.8802V27.8802H98.4378V26.8802V25.8802H95.6378V26.8802ZM98.4378 26.8802H97.4378V30.6802H98.4378H99.4378V26.8802H98.4378ZM98.4378 30.6802V29.6802H94.8378V30.6802V31.6802H98.4378V30.6802ZM94.8378 30.6802V29.6802C92.9282 29.6802 91.6257 29.2334 90.7776 28.4887L90.1178 29.2402L89.458 29.9916C90.7966 31.167 92.6408 31.6802 94.8378 31.6802V30.6802ZM90.1178 29.2402L90.7776 28.4887C89.9878 27.7953 89.4778 26.5737 89.4778 24.5602H88.4778H87.4778C87.4778 26.8667 88.0611 28.7651 89.458 29.9916L90.1178 29.2402ZM88.4778 24.5602H89.4778V12.3602H88.4778H87.4778V24.5602H88.4778ZM88.4778 12.3602V11.3602H85.8778V12.3602V13.3602H88.4778V12.3602ZM85.8778 12.3602H86.8778V8.64017H85.8778H84.8778V12.3602H85.8778ZM85.8778 8.64017V9.64017H88.4778V8.64017V7.64017H85.8778V8.64017ZM88.4778 8.64017H89.4778V3.16018H88.4778H87.4778V8.64017H88.4778ZM88.4778 3.16018V4.16018H93.0778V3.16018V2.16018H88.4778V3.16018ZM93.0778 3.16018H92.0778V8.64017H93.0778H94.0778V3.16018H93.0778ZM93.0778 8.64017V9.64017H98.4378V8.64017V7.64017H93.0778V8.64017ZM98.4378 8.64017H97.4378V12.3602H98.4378H99.4378V8.64017H98.4378ZM98.4378 12.3602V11.3602H93.0778V12.3602V13.3602H98.4378V12.3602ZM118.521 9.36017L118.038 10.236L118.045 10.2401L118.521 9.36017ZM121.641 12.5602L120.756 13.0273L120.76 13.0338L120.763 13.0402L121.641 12.5602ZM122.801 30.6802V31.6802H123.801V30.6802H122.801ZM118.281 30.6802H117.281V31.6802H118.281V30.6802ZM116.801 13.8402L116.066 14.5193L116.075 14.5284L116.801 13.8402ZM108.681 13.8402L107.956 13.1514L107.955 13.1519L108.681 13.8402ZM107.201 30.6802V31.6802H108.201V30.6802H107.201ZM102.641 30.6802H101.641V31.6802H102.641V30.6802ZM102.641 1.08018V0.0801754H101.641V1.08018H102.641ZM107.201 1.08018H108.201V0.0801754H107.201V1.08018ZM107.201 11.2002H106.201V13.9744L107.971 11.8382L107.201 11.2002ZM110.121 9.04018L109.732 8.1189L109.724 8.12211L110.121 9.04018ZM114.041 8.28018V9.28018C115.573 9.28018 116.897 9.6073 118.038 10.236L118.521 9.36017L119.003 8.48433C117.531 7.67305 115.868 7.28018 114.041 7.28018V8.28018ZM118.521 9.36017L118.045 10.2401C119.195 10.8607 120.097 11.7789 120.756 13.0273L121.641 12.5602L122.525 12.0931C121.691 10.5148 120.513 9.29963 118.996 8.48027L118.521 9.36017ZM121.641 12.5602L120.763 13.0402C121.439 14.2749 121.801 15.808 121.801 17.6802H122.801H123.801C123.801 15.5523 123.389 13.6721 122.518 12.0802L121.641 12.5602ZM122.801 17.6802H121.801V30.6802H122.801H123.801V17.6802H122.801ZM122.801 30.6802V29.6802H118.281V30.6802V31.6802H122.801V30.6802ZM118.281 30.6802H119.281V18.3602H118.281H117.281V30.6802H118.281ZM118.281 18.3602H119.281C119.281 16.2284 118.746 14.4382 117.526 13.1519L116.801 13.8402L116.075 14.5284C116.828 15.3222 117.281 16.5452 117.281 18.3602H118.281ZM116.801 13.8402L117.535 13.1611C116.326 11.8539 114.693 11.2402 112.761 11.2402V12.2402V13.2402C114.242 13.2402 115.302 13.6931 116.067 14.5192L116.801 13.8402ZM112.761 12.2402V11.2402C110.828 11.2402 109.188 11.8538 107.956 13.1514L108.681 13.8402L109.406 14.5289C110.2 13.6932 111.28 13.2402 112.761 13.2402V12.2402ZM108.681 13.8402L107.955 13.1519C106.735 14.4382 106.201 16.2284 106.201 18.3602H107.201H108.201C108.201 16.5452 108.653 15.3222 109.406 14.5284L108.681 13.8402ZM107.201 18.3602H106.201V30.6802H107.201H108.201V18.3602H107.201ZM107.201 30.6802V29.6802H102.641V30.6802V31.6802H107.201V30.6802ZM102.641 30.6802H103.641V1.08018H102.641H101.641V30.6802H102.641ZM102.641 1.08018V2.08018H107.201V1.08018V0.0801754H102.641V1.08018ZM107.201 1.08018H106.201V11.2002H107.201H108.201V1.08018H107.201ZM107.201 11.2002L107.971 11.8382C108.638 11.033 109.48 10.4058 110.517 9.95824L110.121 9.04018L109.724 8.12211C108.414 8.68784 107.31 9.50068 106.431 10.5622L107.201 11.2002ZM110.121 9.04018L110.51 9.96143C111.576 9.51101 112.749 9.28018 114.041 9.28018V8.28018V7.28018C112.505 7.28018 111.065 7.55601 109.732 8.11893L110.121 9.04018ZM143.328 15.4402L143.679 16.3765L145.826 15.5713L143.775 14.5457L143.328 15.4402ZM140.248 4.92017L139.39 4.40568V4.40568L140.248 4.92017ZM143.488 2.08017L143.922 2.98118L143.928 2.97794L143.935 2.9746L143.488 2.08017ZM154.008 2.08017L153.561 2.9746L153.57 2.97953L153.58 2.98425L154.008 2.08017ZM157.288 4.92017L158.145 4.40568V4.40568L157.288 4.92017ZM157.208 12.8402L156.379 12.281L156.376 12.2855L157.208 12.8402ZM154.208 15.4402L153.768 14.542L151.668 15.57L153.862 16.3785L154.208 15.4402ZM157.808 18.2002L156.984 18.7667L156.989 18.7748L157.808 18.2002ZM157.808 27.2402L158.642 27.791V27.791L157.808 27.2402ZM154.128 30.3202L153.712 29.4109V29.4109L154.128 30.3202ZM143.408 30.3202L142.986 31.2268L142.992 31.2295L143.408 30.3202ZM139.768 27.2402L138.933 27.791V27.791L139.768 27.2402ZM139.768 18.1602L138.949 17.5855V17.5855L139.768 18.1602ZM152.608 6.00017L153.259 5.24092V5.24092L152.608 6.00017ZM144.968 6.00017L144.317 5.24092V5.24092L144.968 6.00017ZM145.008 12.7602L144.343 13.5076L144.354 13.5173L144.366 13.5267L145.008 12.7602ZM144.448 18.7602L145.063 19.5485L145.066 19.5465L144.448 18.7602ZM144.408 26.2002L143.739 26.9435L143.749 26.9528L144.408 26.2002ZM153.048 26.1602L152.379 25.4168L152.37 25.4254L153.048 26.1602ZM153.008 18.7602L152.371 19.5316L152.381 19.5392L153.008 18.7602ZM143.328 15.4402L143.775 14.5457C142.519 13.9176 141.631 13.1366 141.052 12.2246C140.475 11.3148 140.168 10.2136 140.168 8.88017H139.168H138.168C138.168 10.5334 138.554 12.0188 139.363 13.2957C140.172 14.5704 141.364 15.5761 142.881 16.3346L143.328 15.4402ZM139.168 8.88017H140.168C140.168 7.6159 140.481 6.47459 141.105 5.43467L140.248 4.92017L139.39 4.40568C138.574 5.76575 138.168 7.26445 138.168 8.88017H139.168ZM140.248 4.92017L141.105 5.43467C141.711 4.42501 142.632 3.60218 143.922 2.98118L143.488 2.08017L143.054 1.17917C141.464 1.94484 140.225 3.01534 139.39 4.40568L140.248 4.92017ZM143.488 2.08017L143.935 2.9746C145.202 2.34127 146.799 2.00017 148.768 2.00017V1.00017V0.000173569C146.576 0.000173569 144.654 0.379077 143.041 1.18575L143.488 2.08017ZM148.768 1.00017V2.00017C150.707 2.00017 152.292 2.34047 153.561 2.9746L154.008 2.08017L154.455 1.18575C152.843 0.37988 150.935 0.000173569 148.768 0.000173569V1.00017ZM154.008 2.08017L153.58 2.98425C154.898 3.60689 155.827 4.42991 156.43 5.43467L157.288 4.92017L158.145 4.40568C157.308 3.01044 156.051 1.94012 154.435 1.1761L154.008 2.08017ZM157.288 4.92017L156.43 5.43467C157.054 6.47459 157.368 7.6159 157.368 8.88017H158.368H159.368C159.368 7.26445 158.961 5.76575 158.145 4.40568L157.288 4.92017ZM158.368 8.88017H157.368C157.368 10.1909 157.032 11.3128 156.379 12.281L157.208 12.8402L158.037 13.3993C158.931 12.0742 159.368 10.5561 159.368 8.88017H158.368ZM157.208 12.8402L156.376 12.2855C155.731 13.2527 154.869 14.0034 153.768 14.542L154.208 15.4402L154.647 16.3384C156.054 15.6503 157.191 14.6676 158.04 13.3949L157.208 12.8402ZM154.208 15.4402L153.862 16.3785C155.197 16.8703 156.226 17.6647 156.984 18.7667L157.808 18.2002L158.632 17.6336C157.629 16.1756 156.259 15.1301 154.554 14.5018L154.208 15.4402ZM157.808 18.2002L156.989 18.7748C157.738 19.8408 158.128 21.1146 158.128 22.6402H159.128H160.128C160.128 20.7524 159.638 19.0662 158.626 17.6255L157.808 18.2002ZM159.128 22.6402H158.128C158.128 24.195 157.736 25.5334 156.973 26.6893L157.808 27.2402L158.642 27.791C159.639 26.2803 160.128 24.552 160.128 22.6402H159.128ZM157.808 27.2402L156.973 26.6893C156.205 27.8534 155.129 28.7621 153.712 29.4109L154.128 30.3202L154.544 31.2295C156.273 30.4383 157.651 29.2936 158.642 27.791L157.808 27.2402ZM154.128 30.3202L153.712 29.4109C152.288 30.0625 150.646 30.4002 148.768 30.4002V31.4002V32.4002C150.889 32.4002 152.821 32.0179 154.544 31.2295L154.128 30.3202ZM148.768 31.4002V30.4002C146.889 30.4002 145.248 30.0625 143.824 29.4109L143.408 30.3202L142.992 31.2295C144.714 32.0179 146.646 32.4002 148.768 32.4002V31.4002ZM143.408 30.3202L143.83 29.4136C142.439 28.7662 141.373 27.8576 140.602 26.6893L139.768 27.2402L138.933 27.791C139.922 29.2894 141.283 30.4342 142.986 31.2268L143.408 30.3202ZM139.768 27.2402L140.602 26.6893C139.839 25.5334 139.448 24.195 139.448 22.6402H138.448H137.448C137.448 24.552 137.936 26.2803 138.933 27.791L139.768 27.2402ZM138.448 22.6402H139.448C139.448 21.0843 139.84 19.7982 140.586 18.7348L139.768 18.1602L138.949 17.5855C137.936 19.0289 137.448 20.7294 137.448 22.6402H138.448ZM139.768 18.1602L140.586 18.7348C141.345 17.6535 142.366 16.8689 143.679 16.3765L143.328 15.4402L142.977 14.5038C141.303 15.1315 139.95 16.1602 138.949 17.5855L139.768 18.1602ZM154.008 9.44017H155.008C155.008 7.72349 154.461 6.2714 153.259 5.24092L152.608 6.00017L151.957 6.75943C152.621 7.32895 153.008 8.17019 153.008 9.44017H154.008ZM152.608 6.00017L153.259 5.24092C152.092 4.24131 150.555 3.80017 148.768 3.80017V4.80017V5.80017C150.234 5.80017 151.257 6.15904 151.957 6.75943L152.608 6.00017ZM148.768 4.80017V3.80017C147.002 3.80017 145.48 4.24371 144.317 5.24092L144.968 6.00017L145.619 6.75943C146.322 6.15664 147.333 5.80017 148.768 5.80017V4.80017ZM144.968 6.00017L144.317 5.24092C143.111 6.27485 142.568 7.74331 142.568 9.48018H143.568H144.568C144.568 8.17704 144.958 7.3255 145.619 6.75943L144.968 6.00017ZM143.568 9.48018H142.568C142.568 11.0868 143.161 12.4564 144.343 13.5076L145.008 12.7602L145.672 12.0128C144.935 11.3573 144.568 10.5402 144.568 9.48018H143.568ZM145.008 12.7602L144.366 13.5267C145.564 14.5305 147.057 15.0002 148.768 15.0002V14.0002V13.0002C147.438 13.0002 146.425 12.6432 145.65 11.9937L145.008 12.7602ZM148.768 14.0002V15.0002C150.486 15.0002 151.984 14.5125 153.182 13.4765L152.528 12.7202L151.874 11.9638C151.098 12.6346 150.09 13.0002 148.768 13.0002V14.0002ZM152.528 12.7202L153.182 13.4765C154.394 12.4285 155.008 11.0565 155.008 9.44017H154.008H153.008C153.008 10.4905 152.635 11.3052 151.874 11.9638L152.528 12.7202ZM148.768 17.4402V16.4402C146.838 16.4402 145.164 16.9253 143.83 17.9739L144.448 18.7602L145.066 19.5465C145.971 18.835 147.178 18.4402 148.768 18.4402V17.4402ZM144.448 18.7602L143.833 17.9719C142.453 19.0487 141.808 20.6054 141.808 22.4802H142.808H143.808C143.808 21.1017 144.256 20.1783 145.063 19.5485L144.448 18.7602ZM142.808 22.4802H141.808C141.808 24.2647 142.448 25.7815 143.739 26.9435L144.408 26.2002L145.077 25.4569C144.235 24.6988 143.808 23.7356 143.808 22.4802H142.808ZM144.408 26.2002L143.749 26.9528C145.047 28.0883 146.759 28.6002 148.768 28.6002V27.6002V26.6002C147.096 26.6002 145.902 26.1787 145.066 25.4476L144.408 26.2002ZM148.768 27.6002V28.6002C150.759 28.6002 152.454 28.0694 153.726 26.895L153.048 26.1602L152.37 25.4254C151.562 26.171 150.403 26.6002 148.768 26.6002V27.6002ZM153.048 26.1602L153.717 26.9035C155.004 25.7453 155.648 24.2439 155.648 22.4802H154.648H153.648C153.648 23.7031 153.225 24.6551 152.379 25.4169L153.048 26.1602ZM154.648 22.4802H155.648C155.648 20.6252 154.999 19.0791 153.635 17.9812L153.008 18.7602L152.381 19.5392C153.203 20.2013 153.648 21.1351 153.648 22.4802H154.648ZM153.008 18.7602L153.644 17.9888C152.354 16.9245 150.695 16.4402 148.768 16.4402V17.4402V18.4402C150.36 18.4402 151.528 18.8358 152.371 19.5315L153.008 18.7602Z" fill="url(#paint0_linear_484_6715)" mask="url(#path-1-outside-1_484_6715)"/>
<defs>
<linearGradient id="paint0_linear_484_6715" x1="79.7578" y1="-11.3198" x2="79.8241" y2="37.5558" gradientUnits="userSpaceOnUse">
<stop stop-color="#FFF0F0"/>
<stop offset="1" stop-color="#FFF0F0" stop-opacity="0.16"/>
</linearGradient>
</defs>
</svg>
