<svg width="158" height="32" viewBox="0 0 158 32" fill="none" xmlns="http://www.w3.org/2000/svg">
<mask id="path-1-outside-1_484_6709" maskUnits="userSpaceOnUse" x="-0.304688" y="-0.399902" width="159" height="33" fill="black">
<rect fill="white" x="-0.304688" y="-0.399902" width="159" height="33"/>
<path d="M30.28 2.8001V30.6001H25.72V11.5601L17.24 30.6001H14.08L5.56 11.5601V30.6001H1V2.8001H5.92L15.68 24.6001L25.4 2.8001H30.28ZM45.8334 30.9601C43.7534 30.9601 41.8734 30.4934 40.1934 29.5601C38.5134 28.6001 37.1934 27.2668 36.2334 25.5601C35.2734 23.8268 34.7934 21.8268 34.7934 19.5601C34.7934 17.3201 35.2868 15.3334 36.2734 13.6001C37.2601 11.8668 38.6068 10.5334 40.3134 9.6001C42.0201 8.66676 43.9268 8.2001 46.0334 8.2001C48.1401 8.2001 50.0468 8.66676 51.7534 9.6001C53.4601 10.5334 54.8068 11.8668 55.7934 13.6001C56.7801 15.3334 57.2734 17.3201 57.2734 19.5601C57.2734 21.8001 56.7668 23.7868 55.7534 25.5201C54.7401 27.2534 53.3534 28.6001 51.5934 29.5601C49.8601 30.4934 47.9401 30.9601 45.8334 30.9601ZM45.8334 27.0001C47.0068 27.0001 48.1001 26.7201 49.1134 26.1601C50.1534 25.6001 50.9934 24.7601 51.6334 23.6401C52.2734 22.5201 52.5934 21.1601 52.5934 19.5601C52.5934 17.9601 52.2868 16.6134 51.6734 15.5201C51.0601 14.4001 50.2468 13.5601 49.2334 13.0001C48.2201 12.4401 47.1268 12.1601 45.9534 12.1601C44.7801 12.1601 43.6868 12.4401 42.6734 13.0001C41.6868 13.5601 40.9001 14.4001 40.3134 15.5201C39.7268 16.6134 39.4334 17.9601 39.4334 19.5601C39.4334 21.9334 40.0334 23.7734 41.2334 25.0801C42.4601 26.3601 43.9934 27.0001 45.8334 27.0001ZM72.9013 8.2001C74.6346 8.2001 76.1813 8.5601 77.5413 9.2801C78.9279 10.0001 80.0079 11.0668 80.7813 12.4801C81.5546 13.8934 81.9413 15.6001 81.9413 17.6001V30.6001H77.4213V18.2801C77.4213 16.3068 76.9279 14.8001 75.9413 13.7601C74.9546 12.6934 73.6079 12.1601 71.9013 12.1601C70.1946 12.1601 68.8346 12.6934 67.8213 13.7601C66.8346 14.8001 66.3413 16.3068 66.3413 18.2801V30.6001H61.7813V8.5601H66.3413V11.0801C67.0879 10.1734 68.0346 9.46676 69.1813 8.9601C70.3546 8.45343 71.5946 8.2001 72.9013 8.2001ZM93.0778 12.2801V24.4801C93.0778 25.3068 93.2645 25.9068 93.6378 26.2801C94.0378 26.6268 94.7045 26.8001 95.6378 26.8001H98.4378V30.6001H94.8378C92.7845 30.6001 91.2111 30.1201 90.1178 29.1601C89.0245 28.2001 88.4778 26.6401 88.4778 24.4801V12.2801H85.8778V8.5601H88.4778V3.0801H93.0778V8.5601H98.4378V12.2801H93.0778ZM114.041 8.2001C115.721 8.2001 117.214 8.5601 118.521 9.2801C119.854 10.0001 120.894 11.0668 121.641 12.4801C122.414 13.8934 122.801 15.6001 122.801 17.6001V30.6001H118.281V18.2801C118.281 16.3068 117.787 14.8001 116.801 13.7601C115.814 12.6934 114.467 12.1601 112.761 12.1601C111.054 12.1601 109.694 12.6934 108.681 13.7601C107.694 14.8001 107.201 16.3068 107.201 18.2801V30.6001H102.641V1.0001H107.201V11.1201C107.974 10.1868 108.947 9.46676 110.121 8.9601C111.321 8.45343 112.627 8.2001 114.041 8.2001ZM156.888 4.9601L145.768 30.6001H141.168L152.408 5.4401H137.608V1.5601H156.888V4.9601Z"/>
</mask>
<path d="M30.28 2.8001H31.28V1.8001H30.28V2.8001ZM30.28 30.6001V31.6001H31.28V30.6001H30.28ZM25.72 30.6001H24.72V31.6001H25.72V30.6001ZM25.72 11.5601H26.72L24.8065 11.1532L25.72 11.5601ZM17.24 30.6001V31.6001H17.8893L18.1535 31.0069L17.24 30.6001ZM14.08 30.6001L13.1672 31.0085L13.4319 31.6001H14.08V30.6001ZM5.56 11.5601L6.47278 11.1516L4.56 11.5601H5.56ZM5.56 30.6001V31.6001H6.56V30.6001H5.56ZM1 30.6001H0V31.6001H1V30.6001ZM1 2.8001V1.8001H0V2.8001H1ZM5.92 2.8001L6.8327 2.39147L6.56794 1.8001H5.92V2.8001ZM15.68 24.6001L14.7673 25.0087L15.6819 27.0515L16.5933 25.0073L15.68 24.6001ZM25.4 2.8001V1.8001H24.751L24.4867 2.39287L25.4 2.8001ZM30.28 2.8001H29.28V30.6001H30.28H31.28V2.8001H30.28ZM30.28 30.6001V29.6001H25.72V30.6001V31.6001H30.28V30.6001ZM25.72 30.6001H26.72V11.5601H25.72H24.72V30.6001H25.72ZM25.72 11.5601L24.8065 11.1532L16.3265 30.1932L17.24 30.6001L18.1535 31.0069L26.6335 11.9669L25.72 11.5601ZM17.24 30.6001V29.6001H14.08V30.6001V31.6001H17.24V30.6001ZM14.08 30.6001L14.9928 30.1916L6.47278 11.1516L5.56 11.5601L4.64722 11.9685L13.1672 31.0085L14.08 30.6001ZM5.56 11.5601H4.56V30.6001H5.56H6.56V11.5601H5.56ZM5.56 30.6001V29.6001H1V30.6001V31.6001H5.56V30.6001ZM1 30.6001H2V2.8001H1H0V30.6001H1ZM1 2.8001V3.8001H5.92V2.8001V1.8001H1V2.8001ZM5.92 2.8001L5.0073 3.20872L14.7673 25.0087L15.68 24.6001L16.5927 24.1915L6.8327 2.39147L5.92 2.8001ZM15.68 24.6001L16.5933 25.0073L26.3133 3.20732L25.4 2.8001L24.4867 2.39287L14.7667 24.1929L15.68 24.6001ZM25.4 2.8001V3.8001H30.28V2.8001V1.8001H25.4V2.8001ZM40.1934 29.5601L39.6973 30.4284L39.7078 30.4343L40.1934 29.5601ZM36.2334 25.5601L35.3586 26.0446L35.3619 26.0504L36.2334 25.5601ZM40.3134 9.6001L39.8336 8.72272V8.72272L40.3134 9.6001ZM51.7534 9.6001L52.2333 8.72272V8.72272L51.7534 9.6001ZM55.7534 25.5201L54.8901 25.0154L55.7534 25.5201ZM51.5934 29.5601L52.0675 30.4406L52.0723 30.438L51.5934 29.5601ZM49.1134 26.1601L48.6393 25.2796L48.6298 25.2849L49.1134 26.1601ZM51.6334 23.6401L50.7652 23.144V23.144L51.6334 23.6401ZM51.6734 15.5201L50.7963 16.0004L50.8013 16.0093L51.6734 15.5201ZM42.6734 13.0001L42.1897 12.1248L42.1798 12.1304L42.6734 13.0001ZM40.3134 15.5201L41.1946 15.9929L41.1993 15.9841L40.3134 15.5201ZM41.2334 25.0801L40.4969 25.7565L40.5041 25.7643L40.5115 25.772L41.2334 25.0801ZM45.8334 30.9601V29.9601C43.909 29.9601 42.1984 29.53 40.6791 28.6859L40.1934 29.5601L39.7078 30.4343C41.5484 31.4568 43.5979 31.9601 45.8334 31.9601V30.9601ZM40.1934 29.5601L40.6896 28.6919C39.1686 27.8227 37.9775 26.6209 37.105 25.0698L36.2334 25.5601L35.3619 26.0504C36.4094 27.9127 37.8583 29.3775 39.6973 30.4283L40.1934 29.5601ZM36.2334 25.5601L37.1082 25.0756C36.2415 23.5107 35.7934 21.682 35.7934 19.5601H34.7934H33.7934C33.7934 21.9716 34.3053 24.1428 35.3586 26.0446L36.2334 25.5601ZM34.7934 19.5601H35.7934C35.7934 17.4718 36.2518 15.6595 37.1425 14.0948L36.2734 13.6001L35.4044 13.1054C34.3217 15.0073 33.7934 17.1684 33.7934 19.5601H34.7934ZM36.2734 13.6001L37.1425 14.0948C38.0399 12.5183 39.2536 11.3195 40.7933 10.4775L40.3134 9.6001L39.8336 8.72272C37.9599 9.7474 36.4803 11.2152 35.4044 13.1054L36.2734 13.6001ZM40.3134 9.6001L40.7933 10.4775C42.3407 9.63119 44.0802 9.2001 46.0334 9.2001V8.2001V7.2001C43.7734 7.2001 41.6995 7.70234 39.8336 8.72272L40.3134 9.6001ZM46.0334 8.2001V9.2001C47.9867 9.2001 49.7261 9.63119 51.2736 10.4775L51.7534 9.6001L52.2333 8.72272C50.3674 7.70234 48.2935 7.2001 46.0334 7.2001V8.2001ZM51.7534 9.6001L51.2736 10.4775C52.8133 11.3195 54.027 12.5183 54.9244 14.0948L55.7934 13.6001L56.6625 13.1054C55.5865 11.2152 54.1069 9.7474 52.2333 8.72272L51.7534 9.6001ZM55.7934 13.6001L54.9244 14.0948C55.8151 15.6595 56.2734 17.4718 56.2734 19.5601H57.2734H58.2734C58.2734 17.1684 57.7451 15.0073 56.6625 13.1054L55.7934 13.6001ZM57.2734 19.5601H56.2734C56.2734 21.6437 55.8039 23.4524 54.8901 25.0154L55.7534 25.5201L56.6167 26.0248C57.7296 24.1212 58.2734 21.9565 58.2734 19.5601H57.2734ZM55.7534 25.5201L54.8901 25.0154C53.9685 26.5919 52.7146 27.8095 51.1146 28.6822L51.5934 29.5601L52.0723 30.438C53.9923 29.3907 55.5117 27.9149 56.6167 26.0248L55.7534 25.5201ZM51.5934 29.5601L51.1193 28.6796C49.5419 29.529 47.7866 29.9601 45.8334 29.9601V30.9601V31.9601C48.0937 31.9601 50.1783 31.4578 52.0675 30.4406L51.5934 29.5601ZM45.8334 27.0001V28.0001C47.1736 28.0001 48.4336 27.6783 49.5971 27.0353L49.1134 26.1601L48.6298 25.2849C47.7666 25.7619 46.84 26.0001 45.8334 26.0001V27.0001ZM49.1134 26.1601L49.5875 27.0406C50.8073 26.3838 51.7777 25.4032 52.5017 24.1362L51.6334 23.6401L50.7652 23.144C50.2092 24.117 49.4995 24.8164 48.6393 25.2796L49.1134 26.1601ZM51.6334 23.6401L52.5017 24.1362C53.2465 22.8329 53.5934 21.2927 53.5934 19.5601H52.5934H51.5934C51.5934 21.0275 51.3004 22.2073 50.7652 23.144L51.6334 23.6401ZM52.5934 19.5601H53.5934C53.5934 17.8351 53.2628 16.3094 52.5456 15.0308L51.6734 15.5201L50.8013 16.0093C51.3107 16.9174 51.5934 18.0851 51.5934 19.5601H52.5934ZM51.6734 15.5201L52.5505 15.0398C51.8559 13.7712 50.9132 12.7859 49.7171 12.1249L49.2334 13.0001L48.7498 13.8753C49.5803 14.3343 50.2644 15.029 50.7963 16.0004L51.6734 15.5201ZM49.2334 13.0001L49.7171 12.1249C48.5536 11.4819 47.2936 11.1601 45.9534 11.1601V12.1601V13.1601C46.96 13.1601 47.8866 13.3983 48.7498 13.8753L49.2334 13.0001ZM45.9534 12.1601V11.1601C44.6133 11.1601 43.3532 11.4819 42.1898 12.1249L42.6734 13.0001L43.1571 13.8753C44.0203 13.3983 44.9469 13.1601 45.9534 13.1601V12.1601ZM42.6734 13.0001L42.1798 12.1304C41.0075 12.7958 40.0928 13.7861 39.4276 15.0561L40.3134 15.5201L41.1993 15.9841C41.7074 15.0141 42.3661 14.3244 43.167 13.8698L42.6734 13.0001ZM40.3134 15.5201L39.4323 15.0473C38.7483 16.3221 38.4334 17.8415 38.4334 19.5601H39.4334H40.4334C40.4334 18.0787 40.7053 16.9048 41.1946 15.9929L40.3134 15.5201ZM39.4334 19.5601H38.4334C38.4334 22.0977 39.077 24.2104 40.4969 25.7565L41.2334 25.0801L41.97 24.4037C40.9899 23.3365 40.4334 21.7691 40.4334 19.5601H39.4334ZM41.2334 25.0801L40.5115 25.772C41.9346 27.257 43.7324 28.0001 45.8334 28.0001V27.0001V26.0001C44.2544 26.0001 42.9856 25.4632 41.9554 24.3882L41.2334 25.0801ZM77.5413 9.2801L77.0733 10.1639L77.0804 10.1676L77.5413 9.2801ZM80.7812 12.4801L79.904 12.9601V12.9601L80.7812 12.4801ZM81.9413 30.6001V31.6001H82.9413V30.6001H81.9413ZM77.4212 30.6001H76.4212V31.6001H77.4212V30.6001ZM75.9413 13.7601L75.2071 14.4392L75.2158 14.4484L75.9413 13.7601ZM67.8213 13.7601L67.0963 13.0713L67.0958 13.0718L67.8213 13.7601ZM66.3412 30.6001V31.6001H67.3412V30.6001H66.3412ZM61.7812 30.6001H60.7812V31.6001H61.7812V30.6001ZM61.7812 8.5601V7.5601H60.7812V8.5601H61.7812ZM66.3412 8.5601H67.3412V7.5601H66.3412V8.5601ZM66.3412 11.0801H65.3412V13.8674L67.1132 11.7158L66.3412 11.0801ZM69.1813 8.9601L68.7848 8.042L68.7771 8.04541L69.1813 8.9601ZM72.9013 8.2001V9.2001C74.4924 9.2001 75.8749 9.52941 77.0734 10.1639L77.5413 9.2801L78.0091 8.39631C76.4876 7.59079 74.7768 7.2001 72.9013 7.2001V8.2001ZM77.5413 9.2801L77.0804 10.1676C78.2852 10.7931 79.2228 11.7152 79.904 12.9601L80.7812 12.4801L81.6585 12.0001C80.793 10.4183 79.5706 9.20705 78.0021 8.3926L77.5413 9.2801ZM80.7812 12.4801L79.904 12.9601C80.5796 14.1948 80.9413 15.7279 80.9413 17.6001H81.9413H82.9413C82.9413 15.4723 82.5296 13.592 81.6585 12.0001L80.7812 12.4801ZM81.9413 17.6001H80.9413V30.6001H81.9413H82.9413V17.6001H81.9413ZM81.9413 30.6001V29.6001H77.4212V30.6001V31.6001H81.9413V30.6001ZM77.4212 30.6001H78.4212V18.2801H77.4212H76.4212V30.6001H77.4212ZM77.4212 18.2801H78.4212C78.4212 16.1484 77.887 14.3581 76.6667 13.0718L75.9413 13.7601L75.2158 14.4484C75.9688 15.2421 76.4212 16.4652 76.4212 18.2801H77.4212ZM75.9413 13.7601L76.6753 13.0811C75.4661 11.7738 73.8336 11.1601 71.9013 11.1601V12.1601V13.1601C73.3823 13.1601 74.443 13.6131 75.2072 14.4391L75.9413 13.7601ZM71.9013 12.1601V11.1601C69.9683 11.1601 68.329 11.7738 67.0963 13.0713L67.8213 13.7601L68.5462 14.4488C69.3402 13.6131 70.4209 13.1601 71.9013 13.1601V12.1601ZM67.8213 13.7601L67.0958 13.0718C65.8755 14.3581 65.3412 16.1484 65.3412 18.2801H66.3412H67.3412C67.3412 16.4652 67.7937 15.2421 68.5467 14.4484L67.8213 13.7601ZM66.3412 18.2801H65.3412V30.6001H66.3412H67.3412V18.2801H66.3412ZM66.3412 30.6001V29.6001H61.7812V30.6001V31.6001H66.3412V30.6001ZM61.7812 30.6001H62.7812V8.5601H61.7812H60.7812V30.6001H61.7812ZM61.7812 8.5601V9.5601H66.3412V8.5601V7.5601H61.7812V8.5601ZM66.3412 8.5601H65.3412V11.0801H66.3412H67.3412V8.5601H66.3412ZM66.3412 11.0801L67.1132 11.7158C67.7541 10.9376 68.5716 10.3228 69.5854 9.87478L69.1813 8.9601L68.7771 8.04541C67.4976 8.61077 66.4218 9.40928 65.5693 10.4444L66.3412 11.0801ZM69.1813 8.9601L69.5777 9.87816C70.623 9.42677 71.7278 9.2001 72.9013 9.2001V8.2001V7.2001C71.4614 7.2001 70.0862 7.48009 68.7848 8.04203L69.1813 8.9601ZM93.0778 12.2801V11.2801H92.0778V12.2801H93.0778ZM93.6378 26.2801L92.9307 26.9872L92.9559 27.0124L92.9829 27.0358L93.6378 26.2801ZM98.4378 26.8001H99.4378V25.8001H98.4378V26.8001ZM98.4378 30.6001V31.6001H99.4378V30.6001H98.4378ZM90.1178 29.1601L89.458 29.9115V29.9115L90.1178 29.1601ZM88.4778 12.2801H89.4778V11.2801H88.4778V12.2801ZM85.8778 12.2801H84.8778V13.2801H85.8778V12.2801ZM85.8778 8.5601V7.5601H84.8778V8.5601H85.8778ZM88.4778 8.5601V9.5601H89.4778V8.5601H88.4778ZM88.4778 3.0801V2.0801H87.4778V3.0801H88.4778ZM93.0778 3.0801H94.0778V2.0801H93.0778V3.0801ZM93.0778 8.5601H92.0778V9.5601H93.0778V8.5601ZM98.4378 8.5601H99.4378V7.5601H98.4378V8.5601ZM98.4378 12.2801V13.2801H99.4378V12.2801H98.4378ZM93.0778 12.2801H92.0778V24.4801H93.0778H94.0778V12.2801H93.0778ZM93.0778 24.4801H92.0778C92.0778 25.4263 92.2872 26.3437 92.9307 26.9872L93.6378 26.2801L94.3449 25.573C94.2417 25.4698 94.0778 25.1873 94.0778 24.4801H93.0778ZM93.6378 26.2801L92.9829 27.0358C93.6597 27.6224 94.6298 27.8001 95.6378 27.8001V26.8001V25.8001C94.7791 25.8001 94.4159 25.6311 94.2927 25.5244L93.6378 26.2801ZM95.6378 26.8001V27.8001H98.4378V26.8001V25.8001H95.6378V26.8001ZM98.4378 26.8001H97.4378V30.6001H98.4378H99.4378V26.8001H98.4378ZM98.4378 30.6001V29.6001H94.8378V30.6001V31.6001H98.4378V30.6001ZM94.8378 30.6001V29.6001C92.9282 29.6001 91.6257 29.1533 90.7776 28.4087L90.1178 29.1601L89.458 29.9115C90.7966 31.0869 92.6408 31.6001 94.8378 31.6001V30.6001ZM90.1178 29.1601L90.7776 28.4087C89.9878 27.7152 89.4778 26.4936 89.4778 24.4801H88.4778H87.4778C87.4778 26.7866 88.0611 28.685 89.458 29.9115L90.1178 29.1601ZM88.4778 24.4801H89.4778V12.2801H88.4778H87.4778V24.4801H88.4778ZM88.4778 12.2801V11.2801H85.8778V12.2801V13.2801H88.4778V12.2801ZM85.8778 12.2801H86.8778V8.5601H85.8778H84.8778V12.2801H85.8778ZM85.8778 8.5601V9.5601H88.4778V8.5601V7.5601H85.8778V8.5601ZM88.4778 8.5601H89.4778V3.0801H88.4778H87.4778V8.5601H88.4778ZM88.4778 3.0801V4.0801H93.0778V3.0801V2.0801H88.4778V3.0801ZM93.0778 3.0801H92.0778V8.5601H93.0778H94.0778V3.0801H93.0778ZM93.0778 8.5601V9.5601H98.4378V8.5601V7.5601H93.0778V8.5601ZM98.4378 8.5601H97.4378V12.2801H98.4378H99.4378V8.5601H98.4378ZM98.4378 12.2801V11.2801H93.0778V12.2801V13.2801H98.4378V12.2801ZM118.521 9.2801L118.038 10.156L118.045 10.16L118.521 9.2801ZM121.641 12.4801L120.756 12.9472L120.76 12.9537L120.763 12.9601L121.641 12.4801ZM122.801 30.6001V31.6001H123.801V30.6001H122.801ZM118.281 30.6001H117.281V31.6001H118.281V30.6001ZM116.801 13.7601L116.066 14.4392L116.075 14.4484L116.801 13.7601ZM108.681 13.7601L107.956 13.0713L107.955 13.0718L108.681 13.7601ZM107.201 30.6001V31.6001H108.201V30.6001H107.201ZM102.641 30.6001H101.641V31.6001H102.641V30.6001ZM102.641 1.0001V9.72748e-05H101.641V1.0001H102.641ZM107.201 1.0001H108.201V9.72748e-05H107.201V1.0001ZM107.201 11.1201H106.201V13.8943L107.971 11.7581L107.201 11.1201ZM110.121 8.9601L109.732 8.03882L109.724 8.04203L110.121 8.9601ZM114.041 8.2001V9.2001C115.573 9.2001 116.897 9.52722 118.038 10.1559L118.521 9.2801L119.003 8.40426C117.531 7.59298 115.868 7.2001 114.041 7.2001V8.2001ZM118.521 9.2801L118.045 10.16C119.195 10.7806 120.097 11.6988 120.756 12.9472L121.641 12.4801L122.525 12.013C121.691 10.4347 120.513 9.21956 118.996 8.40019L118.521 9.2801ZM121.641 12.4801L120.763 12.9601C121.439 14.1948 121.801 15.7279 121.801 17.6001H122.801H123.801C123.801 15.4723 123.389 13.592 122.518 12.0001L121.641 12.4801ZM122.801 17.6001H121.801V30.6001H122.801H123.801V17.6001H122.801ZM122.801 30.6001V29.6001H118.281V30.6001V31.6001H122.801V30.6001ZM118.281 30.6001H119.281V18.2801H118.281H117.281V30.6001H118.281ZM118.281 18.2801H119.281C119.281 16.1484 118.746 14.3581 117.526 13.0718L116.801 13.7601L116.075 14.4484C116.828 15.2421 117.281 16.4652 117.281 18.2801H118.281ZM116.801 13.7601L117.535 13.0811C116.326 11.7738 114.693 11.1601 112.761 11.1601V12.1601V13.1601C114.242 13.1601 115.302 13.6131 116.067 14.4391L116.801 13.7601ZM112.761 12.1601V11.1601C110.828 11.1601 109.188 11.7738 107.956 13.0713L108.681 13.7601L109.406 14.4488C110.2 13.6131 111.28 13.1601 112.761 13.1601V12.1601ZM108.681 13.7601L107.955 13.0718C106.735 14.3581 106.201 16.1484 106.201 18.2801H107.201H108.201C108.201 16.4652 108.653 15.2421 109.406 14.4484L108.681 13.7601ZM107.201 18.2801H106.201V30.6001H107.201H108.201V18.2801H107.201ZM107.201 30.6001V29.6001H102.641V30.6001V31.6001H107.201V30.6001ZM102.641 30.6001H103.641V1.0001H102.641H101.641V30.6001H102.641ZM102.641 1.0001V2.0001H107.201V1.0001V9.72748e-05H102.641V1.0001ZM107.201 1.0001H106.201V11.1201H107.201H108.201V1.0001H107.201ZM107.201 11.1201L107.971 11.7581C108.638 10.9529 109.48 10.3258 110.517 9.87816L110.121 8.9601L109.724 8.04203C108.414 8.60776 107.31 9.4206 106.431 10.4821L107.201 11.1201ZM110.121 8.9601L110.51 9.88135C111.576 9.43093 112.749 9.2001 114.041 9.2001V8.2001V7.2001C112.505 7.2001 111.065 7.47593 109.732 8.03885L110.121 8.9601ZM156.888 4.9601L157.805 5.35798L157.888 5.16761V4.9601H156.888ZM145.768 30.6001V31.6001H146.424L146.685 30.998L145.768 30.6001ZM141.168 30.6001L140.255 30.1922L139.626 31.6001H141.168V30.6001ZM152.408 5.4401L153.321 5.84799L153.95 4.4401H152.408V5.4401ZM137.608 5.4401H136.608V6.4401H137.608V5.4401ZM137.608 1.5601V0.560097H136.608V1.5601H137.608ZM156.888 1.5601H157.888V0.560097H156.888V1.5601ZM156.888 4.9601L155.97 4.56221L144.85 30.2022L145.768 30.6001L146.685 30.998L157.805 5.35798L156.888 4.9601ZM145.768 30.6001V29.6001H141.168V30.6001V31.6001H145.768V30.6001ZM141.168 30.6001L142.081 31.008L153.321 5.84799L152.408 5.4401L151.495 5.03221L140.255 30.1922L141.168 30.6001ZM152.408 5.4401V4.4401H137.608V5.4401V6.4401H152.408V5.4401ZM137.608 5.4401H138.608V1.5601H137.608H136.608V5.4401H137.608ZM137.608 1.5601V2.5601H156.888V1.5601V0.560097H137.608V1.5601ZM156.888 1.5601H155.888V4.9601H156.888H157.888V1.5601H156.888Z" fill="url(#paint0_linear_484_6709)" mask="url(#path-1-outside-1_484_6709)"/>
<defs>
<linearGradient id="paint0_linear_484_6709" x1="78.1953" y1="-11.3999" x2="78.2616" y2="37.4757" gradientUnits="userSpaceOnUse">
<stop stop-color="#FFF0F0"/>
<stop offset="1" stop-color="#FFF0F0" stop-opacity="0.16"/>
</linearGradient>
</defs>
</svg>
