<svg width="159" height="33" viewBox="0 0 159 33" fill="none" xmlns="http://www.w3.org/2000/svg">
<mask id="path-1-outside-1_484_6692" maskUnits="userSpaceOnUse" x="-0.953125" y="-0.240234" width="160" height="33" fill="black">
<rect fill="white" x="-0.953125" y="-0.240234" width="160" height="33"/>
<path d="M30.28 2.95976V30.7598H25.72V11.7198L17.24 30.7598H14.08L5.56 11.7198V30.7598H1V2.95976H5.92L15.68 24.7598L25.4 2.95976H30.28ZM45.8334 31.1198C43.7534 31.1198 41.8734 30.6531 40.1934 29.7198C38.5134 28.7598 37.1934 27.4264 36.2334 25.7198C35.2734 23.9864 34.7934 21.9864 34.7934 19.7198C34.7934 17.4798 35.2868 15.4931 36.2734 13.7598C37.2601 12.0264 38.6068 10.6931 40.3134 9.75976C42.0201 8.82643 43.9268 8.35977 46.0334 8.35977C48.1401 8.35977 50.0468 8.82643 51.7534 9.75976C53.4601 10.6931 54.8068 12.0264 55.7934 13.7598C56.7801 15.4931 57.2734 17.4798 57.2734 19.7198C57.2734 21.9598 56.7668 23.9464 55.7534 25.6798C54.7401 27.4131 53.3534 28.7598 51.5934 29.7198C49.8601 30.6531 47.9401 31.1198 45.8334 31.1198ZM45.8334 27.1598C47.0068 27.1598 48.1001 26.8798 49.1134 26.3198C50.1534 25.7598 50.9934 24.9198 51.6334 23.7998C52.2734 22.6798 52.5934 21.3198 52.5934 19.7198C52.5934 18.1198 52.2868 16.7731 51.6734 15.6798C51.0601 14.5598 50.2468 13.7198 49.2334 13.1598C48.2201 12.5998 47.1268 12.3198 45.9534 12.3198C44.7801 12.3198 43.6868 12.5998 42.6734 13.1598C41.6868 13.7198 40.9001 14.5598 40.3134 15.6798C39.7268 16.7731 39.4334 18.1198 39.4334 19.7198C39.4334 22.0931 40.0334 23.9331 41.2334 25.2398C42.4601 26.5198 43.9934 27.1598 45.8334 27.1598ZM72.9013 8.35977C74.6346 8.35977 76.1813 8.71976 77.5413 9.43976C78.9279 10.1598 80.0079 11.2264 80.7813 12.6398C81.5546 14.0531 81.9413 15.7598 81.9413 17.7598V30.7598H77.4213V18.4398C77.4213 16.4664 76.9279 14.9598 75.9413 13.9198C74.9546 12.8531 73.6079 12.3198 71.9013 12.3198C70.1946 12.3198 68.8346 12.8531 67.8213 13.9198C66.8346 14.9598 66.3413 16.4664 66.3413 18.4398V30.7598H61.7813V8.71977H66.3413V11.2398C67.0879 10.3331 68.0346 9.62643 69.1813 9.11977C70.3546 8.6131 71.5946 8.35977 72.9013 8.35977ZM93.0778 12.4398V24.6398C93.0778 25.4664 93.2645 26.0664 93.6378 26.4398C94.0378 26.7864 94.7045 26.9598 95.6378 26.9598H98.4378V30.7598H94.8378C92.7845 30.7598 91.2111 30.2798 90.1178 29.3198C89.0245 28.3598 88.4778 26.7998 88.4778 24.6398V12.4398H85.8778V8.71977H88.4778V3.23976H93.0778V8.71977H98.4378V12.4398H93.0778ZM114.041 8.35977C115.721 8.35977 117.214 8.71976 118.521 9.43976C119.854 10.1598 120.894 11.2264 121.641 12.6398C122.414 14.0531 122.801 15.7598 122.801 17.7598V30.7598H118.281V18.4398C118.281 16.4664 117.787 14.9598 116.801 13.9198C115.814 12.8531 114.467 12.3198 112.761 12.3198C111.054 12.3198 109.694 12.8531 108.681 13.9198C107.694 14.9598 107.201 16.4664 107.201 18.4398V30.7598H102.641V1.15977H107.201V11.2798C107.974 10.3464 108.947 9.62643 110.121 9.11977C111.321 8.6131 112.627 8.35977 114.041 8.35977ZM140.928 24.5598C143.488 22.3464 145.501 20.5331 146.968 19.1198C148.461 17.6798 149.701 16.1864 150.688 14.6398C151.674 13.0931 152.168 11.5464 152.168 9.99976C152.168 8.39976 151.781 7.14643 151.008 6.23976C150.261 5.3331 149.074 4.87977 147.448 4.87977C145.874 4.87977 144.648 5.38643 143.768 6.39976C142.914 7.38643 142.461 8.71976 142.408 10.3998H138.008C138.088 7.35976 138.994 5.03976 140.728 3.43976C142.488 1.8131 144.714 0.999765 147.408 0.999765C150.314 0.999765 152.581 1.79976 154.208 3.39977C155.861 4.99977 156.688 7.1331 156.688 9.79976C156.688 11.7198 156.194 13.5731 155.208 15.3598C154.248 17.1198 153.088 18.7064 151.728 20.1198C150.394 21.5064 148.688 23.1198 146.608 24.9598L144.808 26.5598H157.488V30.3598H138.048V27.0398L140.928 24.5598Z"/>
</mask>
<path d="M30.28 2.95976H31.28V1.95976H30.28V2.95976ZM30.28 30.7598V31.7598H31.28V30.7598H30.28ZM25.72 30.7598H24.72V31.7598H25.72V30.7598ZM25.72 11.7198H26.72L24.8065 11.3129L25.72 11.7198ZM17.24 30.7598V31.7598H17.8893L18.1535 31.1666L17.24 30.7598ZM14.08 30.7598L13.1672 31.1682L13.4319 31.7598H14.08V30.7598ZM5.56 11.7198L6.47278 11.3113L4.56 11.7198H5.56ZM5.56 30.7598V31.7598H6.56V30.7598H5.56ZM1 30.7598H0V31.7598H1V30.7598ZM1 2.95976V1.95976H0V2.95976H1ZM5.92 2.95976L6.8327 2.55114L6.56794 1.95976H5.92V2.95976ZM15.68 24.7598L14.7673 25.1684L15.6819 27.2112L16.5933 25.167L15.68 24.7598ZM25.4 2.95976V1.95976H24.751L24.4867 2.55254L25.4 2.95976ZM30.28 2.95976H29.28V30.7598H30.28H31.28V2.95976H30.28ZM30.28 30.7598V29.7598H25.72V30.7598V31.7598H30.28V30.7598ZM25.72 30.7598H26.72V11.7198H25.72H24.72V30.7598H25.72ZM25.72 11.7198L24.8065 11.3129L16.3265 30.3529L17.24 30.7598L18.1535 31.1666L26.6335 12.1266L25.72 11.7198ZM17.24 30.7598V29.7598H14.08V30.7598V31.7598H17.24V30.7598ZM14.08 30.7598L14.9928 30.3513L6.47278 11.3113L5.56 11.7198L4.64722 12.1282L13.1672 31.1682L14.08 30.7598ZM5.56 11.7198H4.56V30.7598H5.56H6.56V11.7198H5.56ZM5.56 30.7598V29.7598H1V30.7598V31.7598H5.56V30.7598ZM1 30.7598H2V2.95976H1H0V30.7598H1ZM1 2.95976V3.95976H5.92V2.95976V1.95976H1V2.95976ZM5.92 2.95976L5.0073 3.36839L14.7673 25.1684L15.68 24.7598L16.5927 24.3511L6.8327 2.55114L5.92 2.95976ZM15.68 24.7598L16.5933 25.167L26.3133 3.36699L25.4 2.95976L24.4867 2.55254L14.7667 24.3525L15.68 24.7598ZM25.4 2.95976V3.95976H30.28V2.95976V1.95976H25.4V2.95976ZM40.1934 29.7198L39.6973 30.5881L39.7078 30.5939L40.1934 29.7198ZM36.2334 25.7198L35.3586 26.2043L35.3619 26.21L36.2334 25.7198ZM40.3134 9.75976L39.8336 8.88239V8.88239L40.3134 9.75976ZM51.7534 9.75976L52.2333 8.88239V8.88239L51.7534 9.75976ZM55.7534 25.6798L54.8901 25.1751L55.7534 25.6798ZM51.5934 29.7198L52.0675 30.6003L52.0723 30.5977L51.5934 29.7198ZM49.1134 26.3198L48.6393 25.4392L48.6298 25.4445L49.1134 26.3198ZM51.6334 23.7998L50.7652 23.3036V23.3036L51.6334 23.7998ZM51.6734 15.6798L50.7963 16.1601L50.8013 16.169L51.6734 15.6798ZM42.6734 13.1598L42.1897 12.2845L42.1798 12.2901L42.6734 13.1598ZM40.3134 15.6798L41.1946 16.1526L41.1993 16.1438L40.3134 15.6798ZM41.2334 25.2398L40.4969 25.9162L40.5041 25.924L40.5115 25.9317L41.2334 25.2398ZM45.8334 31.1198V30.1198C43.909 30.1198 42.1984 29.6897 40.6791 28.8456L40.1934 29.7198L39.7078 30.5939C41.5484 31.6165 43.5979 32.1198 45.8334 32.1198V31.1198ZM40.1934 29.7198L40.6896 28.8515C39.1686 27.9824 37.9775 26.7805 37.105 25.2295L36.2334 25.7198L35.3619 26.21C36.4094 28.0723 37.8583 29.5372 39.6973 30.588L40.1934 29.7198ZM36.2334 25.7198L37.1082 25.2353C36.2415 23.6704 35.7934 21.8416 35.7934 19.7198H34.7934H33.7934C33.7934 22.1312 34.3053 24.3025 35.3586 26.2043L36.2334 25.7198ZM34.7934 19.7198H35.7934C35.7934 17.6315 36.2518 15.8192 37.1425 14.2545L36.2734 13.7598L35.4044 13.2651C34.3217 15.167 33.7934 17.3281 33.7934 19.7198H34.7934ZM36.2734 13.7598L37.1425 14.2545C38.0399 12.678 39.2536 11.4791 40.7933 10.6371L40.3134 9.75976L39.8336 8.88239C37.9599 9.90706 36.4803 11.3748 35.4044 13.2651L36.2734 13.7598ZM40.3134 9.75976L40.7933 10.6371C42.3407 9.79085 44.0802 9.35977 46.0334 9.35977V8.35977V7.35977C43.7734 7.35977 41.6995 7.86201 39.8336 8.88239L40.3134 9.75976ZM46.0334 8.35977V9.35977C47.9867 9.35977 49.7261 9.79085 51.2736 10.6371L51.7534 9.75976L52.2333 8.88239C50.3674 7.86201 48.2935 7.35977 46.0334 7.35977V8.35977ZM51.7534 9.75976L51.2736 10.6371C52.8133 11.4791 54.027 12.678 54.9244 14.2545L55.7934 13.7598L56.6625 13.2651C55.5865 11.3748 54.1069 9.90706 52.2333 8.88239L51.7534 9.75976ZM55.7934 13.7598L54.9244 14.2545C55.8151 15.8192 56.2734 17.6315 56.2734 19.7198H57.2734H58.2734C58.2734 17.3281 57.7451 15.167 56.6625 13.2651L55.7934 13.7598ZM57.2734 19.7198H56.2734C56.2734 21.8034 55.8039 23.612 54.8901 25.1751L55.7534 25.6798L56.6167 26.1845C57.7296 24.2808 58.2734 22.1161 58.2734 19.7198H57.2734ZM55.7534 25.6798L54.8901 25.1751C53.9685 26.7516 52.7146 27.9691 51.1146 28.8419L51.5934 29.7198L52.0723 30.5977C53.9923 29.5504 55.5117 28.0746 56.6167 26.1845L55.7534 25.6798ZM51.5934 29.7198L51.1193 28.8393C49.5419 29.6887 47.7866 30.1198 45.8334 30.1198V31.1198V32.1198C48.0937 32.1198 50.1783 31.6175 52.0675 30.6002L51.5934 29.7198ZM45.8334 27.1598V28.1598C47.1736 28.1598 48.4336 27.838 49.5971 27.195L49.1134 26.3198L48.6298 25.4445C47.7666 25.9215 46.84 26.1598 45.8334 26.1598V27.1598ZM49.1134 26.3198L49.5875 27.2002C50.8073 26.5434 51.7777 25.5629 52.5017 24.2959L51.6334 23.7998L50.7652 23.3036C50.2092 24.2767 49.4995 24.9761 48.6393 25.4393L49.1134 26.3198ZM51.6334 23.7998L52.5017 24.2959C53.2465 22.9925 53.5934 21.4524 53.5934 19.7198H52.5934H51.5934C51.5934 21.1871 51.3004 22.367 50.7652 23.3036L51.6334 23.7998ZM52.5934 19.7198H53.5934C53.5934 17.9948 53.2628 16.4691 52.5456 15.1905L51.6734 15.6798L50.8013 16.169C51.3107 17.0771 51.5934 18.2448 51.5934 19.7198H52.5934ZM51.6734 15.6798L52.5505 15.1995C51.8559 13.9309 50.9132 12.9455 49.7171 12.2845L49.2334 13.1598L48.7498 14.035C49.5803 14.494 50.2644 15.1886 50.7963 16.1601L51.6734 15.6798ZM49.2334 13.1598L49.7171 12.2845C48.5536 11.6415 47.2936 11.3198 45.9534 11.3198V12.3198V13.3198C46.96 13.3198 47.8866 13.558 48.7498 14.035L49.2334 13.1598ZM45.9534 12.3198V11.3198C44.6133 11.3198 43.3532 11.6415 42.1898 12.2845L42.6734 13.1598L43.1571 14.035C44.0203 13.558 44.9469 13.3198 45.9534 13.3198V12.3198ZM42.6734 13.1598L42.1798 12.2901C41.0075 12.9555 40.0928 13.9458 39.4276 15.2158L40.3134 15.6798L41.1993 16.1438C41.7074 15.1737 42.3661 14.4841 43.167 14.0295L42.6734 13.1598ZM40.3134 15.6798L39.4323 15.2069C38.7483 16.4817 38.4334 18.0012 38.4334 19.7198H39.4334H40.4334C40.4334 18.2383 40.7053 17.0645 41.1946 16.1526L40.3134 15.6798ZM39.4334 19.7198H38.4334C38.4334 22.2574 39.077 24.37 40.4969 25.9162L41.2334 25.2398L41.97 24.5634C40.9899 23.4961 40.4334 21.9288 40.4334 19.7198H39.4334ZM41.2334 25.2398L40.5115 25.9317C41.9346 27.4167 43.7324 28.1598 45.8334 28.1598V27.1598V26.1598C44.2544 26.1598 42.9856 25.6228 41.9554 24.5479L41.2334 25.2398ZM77.5413 9.43976L77.0733 10.3236L77.0804 10.3273L77.5413 9.43976ZM80.7812 12.6398L79.904 13.1198V13.1198L80.7812 12.6398ZM81.9413 30.7598V31.7598H82.9413V30.7598H81.9413ZM77.4212 30.7598H76.4212V31.7598H77.4212V30.7598ZM75.9413 13.9198L75.2071 14.5989L75.2158 14.608L75.9413 13.9198ZM67.8213 13.9198L67.0963 13.231L67.0958 13.2315L67.8213 13.9198ZM66.3412 30.7598V31.7598H67.3412V30.7598H66.3412ZM61.7812 30.7598H60.7812V31.7598H61.7812V30.7598ZM61.7812 8.71976V7.71976H60.7812V8.71976H61.7812ZM66.3412 8.71976H67.3412V7.71976H66.3412V8.71976ZM66.3412 11.2398H65.3412V14.0271L67.1132 11.8755L66.3412 11.2398ZM69.1813 9.11977L68.7848 8.20167L68.7771 8.20508L69.1813 9.11977ZM72.9013 8.35977V9.35977C74.4924 9.35977 75.8749 9.68908 77.0734 10.3236L77.5413 9.43976L78.0091 8.55597C76.4876 7.75045 74.7768 7.35977 72.9013 7.35977V8.35977ZM77.5413 9.43976L77.0804 10.3273C78.2852 10.9528 79.2228 11.8748 79.904 13.1198L80.7812 12.6398L81.6585 12.1598C80.793 10.578 79.5706 9.36672 78.0021 8.55227L77.5413 9.43976ZM80.7812 12.6398L79.904 13.1198C80.5796 14.3545 80.9413 15.8876 80.9413 17.7598H81.9413H82.9413C82.9413 15.6319 82.5296 13.7517 81.6585 12.1598L80.7812 12.6398ZM81.9413 17.7598H80.9413V30.7598H81.9413H82.9413V17.7598H81.9413ZM81.9413 30.7598V29.7598H77.4212V30.7598V31.7598H81.9413V30.7598ZM77.4212 30.7598H78.4212V18.4398H77.4212H76.4212V30.7598H77.4212ZM77.4212 18.4398H78.4212C78.4212 16.308 77.887 14.5178 76.6667 13.2315L75.9413 13.9198L75.2158 14.608C75.9688 15.4017 76.4212 16.6248 76.4212 18.4398H77.4212ZM75.9413 13.9198L76.6753 13.2407C75.4661 11.9335 73.8336 11.3198 71.9013 11.3198V12.3198V13.3198C73.3823 13.3198 74.443 13.7727 75.2072 14.5988L75.9413 13.9198ZM71.9013 12.3198V11.3198C69.9683 11.3198 68.329 11.9334 67.0963 13.231L67.8213 13.9198L68.5462 14.6085C69.3402 13.7728 70.4209 13.3198 71.9013 13.3198V12.3198ZM67.8213 13.9198L67.0958 13.2315C65.8755 14.5178 65.3412 16.308 65.3412 18.4398H66.3412H67.3412C67.3412 16.6248 67.7937 15.4017 68.5467 14.608L67.8213 13.9198ZM66.3412 18.4398H65.3412V30.7598H66.3412H67.3412V18.4398H66.3412ZM66.3412 30.7598V29.7598H61.7812V30.7598V31.7598H66.3412V30.7598ZM61.7812 30.7598H62.7812V8.71976H61.7812H60.7812V30.7598H61.7812ZM61.7812 8.71976V9.71976H66.3412V8.71976V7.71976H61.7812V8.71976ZM66.3412 8.71976H65.3412V11.2398H66.3412H67.3412V8.71976H66.3412ZM66.3412 11.2398L67.1132 11.8755C67.7541 11.0972 68.5716 10.4824 69.5854 10.0345L69.1813 9.11977L68.7771 8.20508C67.4976 8.77044 66.4218 9.56895 65.5693 10.6041L66.3412 11.2398ZM69.1813 9.11977L69.5777 10.0378C70.623 9.58644 71.7278 9.35977 72.9013 9.35977V8.35977V7.35977C71.4614 7.35977 70.0862 7.63976 68.7848 8.2017L69.1813 9.11977ZM93.0778 12.4398V11.4398H92.0778V12.4398H93.0778ZM93.6378 26.4398L92.9307 27.1469L92.9559 27.1721L92.9829 27.1955L93.6378 26.4398ZM98.4378 26.9598H99.4378V25.9598H98.4378V26.9598ZM98.4378 30.7598V31.7598H99.4378V30.7598H98.4378ZM90.1178 29.3198L89.458 30.0712V30.0712L90.1178 29.3198ZM88.4778 12.4398H89.4778V11.4398H88.4778V12.4398ZM85.8778 12.4398H84.8778V13.4398H85.8778V12.4398ZM85.8778 8.71976V7.71976H84.8778V8.71976H85.8778ZM88.4778 8.71976V9.71976H89.4778V8.71976H88.4778ZM88.4778 3.23977V2.23977H87.4778V3.23977H88.4778ZM93.0778 3.23977H94.0778V2.23977H93.0778V3.23977ZM93.0778 8.71976H92.0778V9.71976H93.0778V8.71976ZM98.4378 8.71976H99.4378V7.71976H98.4378V8.71976ZM98.4378 12.4398V13.4398H99.4378V12.4398H98.4378ZM93.0778 12.4398H92.0778V24.6398H93.0778H94.0778V12.4398H93.0778ZM93.0778 24.6398H92.0778C92.0778 25.5859 92.2872 26.5034 92.9307 27.1469L93.6378 26.4398L94.3449 25.7327C94.2417 25.6295 94.0778 25.3469 94.0778 24.6398H93.0778ZM93.6378 26.4398L92.9829 27.1955C93.6597 27.7821 94.6298 27.9598 95.6378 27.9598V26.9598V25.9598C94.7791 25.9598 94.4159 25.7908 94.2927 25.6841L93.6378 26.4398ZM95.6378 26.9598V27.9598H98.4378V26.9598V25.9598H95.6378V26.9598ZM98.4378 26.9598H97.4378V30.7598H98.4378H99.4378V26.9598H98.4378ZM98.4378 30.7598V29.7598H94.8378V30.7598V31.7598H98.4378V30.7598ZM94.8378 30.7598V29.7598C92.9282 29.7598 91.6257 29.313 90.7776 28.5683L90.1178 29.3198L89.458 30.0712C90.7966 31.2466 92.6408 31.7598 94.8378 31.7598V30.7598ZM90.1178 29.3198L90.7776 28.5683C89.9878 27.8749 89.4778 26.6533 89.4778 24.6398H88.4778H87.4778C87.4778 26.9463 88.0611 28.8447 89.458 30.0712L90.1178 29.3198ZM88.4778 24.6398H89.4778V12.4398H88.4778H87.4778V24.6398H88.4778ZM88.4778 12.4398V11.4398H85.8778V12.4398V13.4398H88.4778V12.4398ZM85.8778 12.4398H86.8778V8.71976H85.8778H84.8778V12.4398H85.8778ZM85.8778 8.71976V9.71976H88.4778V8.71976V7.71976H85.8778V8.71976ZM88.4778 8.71976H89.4778V3.23977H88.4778H87.4778V8.71976H88.4778ZM88.4778 3.23977V4.23977H93.0778V3.23977V2.23977H88.4778V3.23977ZM93.0778 3.23977H92.0778V8.71976H93.0778H94.0778V3.23977H93.0778ZM93.0778 8.71976V9.71976H98.4378V8.71976V7.71976H93.0778V8.71976ZM98.4378 8.71976H97.4378V12.4398H98.4378H99.4378V8.71976H98.4378ZM98.4378 12.4398V11.4398H93.0778V12.4398V13.4398H98.4378V12.4398ZM118.521 9.43976L118.038 10.3156L118.045 10.3197L118.521 9.43976ZM121.641 12.6398L120.756 13.1069L120.76 13.1134L120.763 13.1198L121.641 12.6398ZM122.801 30.7598V31.7598H123.801V30.7598H122.801ZM118.281 30.7598H117.281V31.7598H118.281V30.7598ZM116.801 13.9198L116.066 14.5989L116.075 14.608L116.801 13.9198ZM108.681 13.9198L107.956 13.231L107.955 13.2315L108.681 13.9198ZM107.201 30.7598V31.7598H108.201V30.7598H107.201ZM102.641 30.7598H101.641V31.7598H102.641V30.7598ZM102.641 1.15977V0.159765H101.641V1.15977H102.641ZM107.201 1.15977H108.201V0.159765H107.201V1.15977ZM107.201 11.2798H106.201V14.054L107.971 11.9178L107.201 11.2798ZM110.121 9.11977L109.732 8.19849L109.724 8.2017L110.121 9.11977ZM114.041 8.35977V9.35977C115.573 9.35977 116.897 9.68689 118.038 10.3156L118.521 9.43976L119.003 8.56392C117.531 7.75264 115.868 7.35977 114.041 7.35977V8.35977ZM118.521 9.43976L118.045 10.3197C119.195 10.9403 120.097 11.8585 120.756 13.1069L121.641 12.6398L122.525 12.1726C121.691 10.5944 120.513 9.37922 118.996 8.55986L118.521 9.43976ZM121.641 12.6398L120.763 13.1198C121.439 14.3545 121.801 15.8876 121.801 17.7598H122.801H123.801C123.801 15.6319 123.389 13.7517 122.518 12.1598L121.641 12.6398ZM122.801 17.7598H121.801V30.7598H122.801H123.801V17.7598H122.801ZM122.801 30.7598V29.7598H118.281V30.7598V31.7598H122.801V30.7598ZM118.281 30.7598H119.281V18.4398H118.281H117.281V30.7598H118.281ZM118.281 18.4398H119.281C119.281 16.308 118.746 14.5178 117.526 13.2315L116.801 13.9198L116.075 14.608C116.828 15.4017 117.281 16.6248 117.281 18.4398H118.281ZM116.801 13.9198L117.535 13.2407C116.326 11.9335 114.693 11.3198 112.761 11.3198V12.3198V13.3198C114.242 13.3198 115.302 13.7727 116.067 14.5988L116.801 13.9198ZM112.761 12.3198V11.3198C110.828 11.3198 109.188 11.9334 107.956 13.231L108.681 13.9198L109.406 14.6085C110.2 13.7728 111.28 13.3198 112.761 13.3198V12.3198ZM108.681 13.9198L107.955 13.2315C106.735 14.5178 106.201 16.308 106.201 18.4398H107.201H108.201C108.201 16.6248 108.653 15.4017 109.406 14.608L108.681 13.9198ZM107.201 18.4398H106.201V30.7598H107.201H108.201V18.4398H107.201ZM107.201 30.7598V29.7598H102.641V30.7598V31.7598H107.201V30.7598ZM102.641 30.7598H103.641V1.15977H102.641H101.641V30.7598H102.641ZM102.641 1.15977V2.15977H107.201V1.15977V0.159765H102.641V1.15977ZM107.201 1.15977H106.201V11.2798H107.201H108.201V1.15977H107.201ZM107.201 11.2798L107.971 11.9178C108.638 11.1126 109.48 10.4854 110.517 10.0378L110.121 9.11977L109.724 8.2017C108.414 8.76743 107.31 9.58027 106.431 10.6417L107.201 11.2798ZM110.121 9.11977L110.51 10.041C111.576 9.5906 112.749 9.35977 114.041 9.35977V8.35977V7.35977C112.505 7.35977 111.065 7.6356 109.732 8.19851L110.121 9.11977ZM140.928 24.5598L141.58 25.3175L141.582 25.3162L140.928 24.5598ZM146.968 19.1198L147.662 19.8398L147.662 19.8396L146.968 19.1198ZM151.008 6.23977L150.236 6.87547L150.241 6.88214L150.247 6.88871L151.008 6.23977ZM143.768 6.39977L143.013 5.74408L143.011 5.74561L143.768 6.39977ZM142.408 10.3998V11.3998H143.377L143.407 10.4315L142.408 10.3998ZM138.008 10.3998L137.008 10.3735L136.981 11.3998H138.008V10.3998ZM140.728 3.43976L141.406 4.17457L141.407 4.17414L140.728 3.43976ZM154.208 3.39977L153.507 4.11271L153.512 4.11837L154.208 3.39977ZM155.208 15.3598L154.332 14.8763L154.33 14.8809L155.208 15.3598ZM151.728 20.1198L151.007 19.4264L151.007 19.4267L151.728 20.1198ZM146.608 24.9598L145.945 24.2108L145.943 24.2124L146.608 24.9598ZM144.808 26.5598L144.143 25.8124L142.178 27.5598H144.808V26.5598ZM157.488 26.5598H158.488V25.5598H157.488V26.5598ZM157.488 30.3598V31.3598H158.488V30.3598H157.488ZM138.048 30.3598H137.048V31.3598H138.048V30.3598ZM138.048 27.0398L137.395 26.282L137.048 26.5812V27.0398H138.048ZM140.928 24.5598L141.582 25.3162C144.148 23.0977 146.176 21.2711 147.662 19.8398L146.968 19.1198L146.274 18.3997C144.826 19.7951 142.828 21.5952 140.274 23.8033L140.928 24.5598ZM146.968 19.1198L147.662 19.8396C149.205 18.352 150.497 16.7985 151.531 15.1776L150.688 14.6398L149.845 14.1019C148.905 15.5743 147.718 17.0075 146.274 18.3999L146.968 19.1198ZM150.688 14.6398L151.531 15.1776C152.601 13.5006 153.168 11.77 153.168 9.99976H152.168H151.168C151.168 11.3228 150.748 12.6856 149.845 14.1019L150.688 14.6398ZM152.168 9.99976H153.168C153.168 8.24397 152.742 6.73241 151.769 5.59082L151.008 6.23977L150.247 6.88871C150.82 7.56045 151.168 8.55556 151.168 9.99976H152.168ZM151.008 6.23977L151.78 5.60406C150.778 4.38725 149.252 3.87976 147.448 3.87976V4.87976V5.87976C148.897 5.87976 149.745 6.27894 150.236 6.87547L151.008 6.23977ZM147.448 4.87976V3.87976C145.64 3.87976 144.116 4.47363 143.013 5.74408L143.768 6.39977L144.523 7.05545C145.18 6.29923 146.109 5.87976 147.448 5.87976V4.87976ZM143.768 6.39977L143.011 5.74561C141.969 6.95049 141.467 8.52592 141.408 10.368L142.408 10.3998L143.407 10.4315C143.455 8.91361 143.86 7.82237 144.524 7.05392L143.768 6.39977ZM142.408 10.3998V9.39977H138.008V10.3998V11.3998H142.408V10.3998ZM138.008 10.3998L139.007 10.4261C139.083 7.57401 139.924 5.54247 141.406 4.17457L140.728 3.43976L140.05 2.70496C138.065 4.53706 137.093 7.14552 137.008 10.3735L138.008 10.3998ZM140.728 3.43976L141.407 4.17414C142.958 2.73977 144.932 1.99977 147.408 1.99977V0.999765V-0.000234604C144.496 -0.000234604 142.017 0.886424 140.049 2.70539L140.728 3.43976ZM147.408 0.999765V1.99977C150.127 1.99977 152.114 2.74343 153.507 4.11269L154.208 3.39977L154.909 2.68684C153.048 0.856099 150.502 -0.000234604 147.408 -0.000234604V0.999765ZM154.208 3.39977L153.512 4.11837C154.94 5.49971 155.688 7.35715 155.688 9.79976H156.688H157.688C157.688 6.90905 156.783 4.49982 154.903 2.68116L154.208 3.39977ZM156.688 9.79976H155.688C155.688 11.54 155.243 13.2281 154.332 14.8763L155.208 15.3598L156.083 15.8432C157.146 13.9181 157.688 11.8995 157.688 9.79976H156.688ZM155.208 15.3598L154.33 14.8809C153.412 16.5645 152.304 18.0787 151.007 19.4264L151.728 20.1198L152.448 20.8131C153.872 19.3342 155.084 17.6751 156.086 15.8386L155.208 15.3598ZM151.728 20.1198L151.007 19.4267C149.698 20.7875 148.013 22.3815 145.945 24.2108L146.608 24.9598L147.27 25.7088C149.363 23.858 151.09 22.2254 152.449 20.8129L151.728 20.1198ZM146.608 24.9598L145.943 24.2124L144.143 25.8124L144.808 26.5598L145.472 27.3072L147.272 25.7072L146.608 24.9598ZM144.808 26.5598V27.5598H157.488V26.5598V25.5598H144.808V26.5598ZM157.488 26.5598H156.488V30.3598H157.488H158.488V26.5598H157.488ZM157.488 30.3598V29.3598H138.048V30.3598V31.3598H157.488V30.3598ZM138.048 30.3598H139.048V27.0398H138.048H137.048V30.3598H138.048ZM138.048 27.0398L138.7 27.7975L141.58 25.3175L140.928 24.5598L140.275 23.802L137.395 26.282L138.048 27.0398Z" fill="url(#paint0_linear_484_6692)" mask="url(#path-1-outside-1_484_6692)"/>
<defs>
<linearGradient id="paint0_linear_484_6692" x1="78.5469" y1="-11.2402" x2="78.6131" y2="37.6354" gradientUnits="userSpaceOnUse">
<stop stop-color="#FFF0F0"/>
<stop offset="1" stop-color="#FFF0F0" stop-opacity="0.16"/>
</linearGradient>
</defs>
</svg>
