<svg width="161" height="33" viewBox="0 0 161 33" fill="none" xmlns="http://www.w3.org/2000/svg">
<mask id="path-1-outside-1_484_6703" maskUnits="userSpaceOnUse" x="-0.664062" y="-0.120117" width="161" height="33" fill="black">
<rect fill="white" x="-0.664062" y="-0.120117" width="161" height="33"/>
<path d="M30.28 3.07988V30.8799H25.72V11.8399L17.24 30.8799H14.08L5.56 11.8399V30.8799H1V3.07988H5.92L15.68 24.8799L25.4 3.07988H30.28ZM45.8334 31.2399C43.7534 31.2399 41.8734 30.7732 40.1934 29.8399C38.5134 28.8799 37.1934 27.5465 36.2334 25.8399C35.2734 24.1065 34.7934 22.1065 34.7934 19.8399C34.7934 17.5999 35.2868 15.6132 36.2734 13.8799C37.2601 12.1465 38.6068 10.8132 40.3134 9.87988C42.0201 8.94655 43.9268 8.47988 46.0334 8.47988C48.1401 8.47988 50.0468 8.94655 51.7534 9.87988C53.4601 10.8132 54.8068 12.1465 55.7934 13.8799C56.7801 15.6132 57.2734 17.5999 57.2734 19.8399C57.2734 22.0799 56.7668 24.0665 55.7534 25.7999C54.7401 27.5332 53.3534 28.8799 51.5934 29.8399C49.8601 30.7732 47.9401 31.2399 45.8334 31.2399ZM45.8334 27.2799C47.0068 27.2799 48.1001 26.9999 49.1134 26.4399C50.1534 25.8799 50.9934 25.0399 51.6334 23.9199C52.2734 22.7999 52.5934 21.4399 52.5934 19.8399C52.5934 18.2399 52.2868 16.8932 51.6734 15.7999C51.0601 14.6799 50.2468 13.8399 49.2334 13.2799C48.2201 12.7199 47.1268 12.4399 45.9534 12.4399C44.7801 12.4399 43.6868 12.7199 42.6734 13.2799C41.6868 13.8399 40.9001 14.6799 40.3134 15.7999C39.7268 16.8932 39.4334 18.2399 39.4334 19.8399C39.4334 22.2132 40.0334 24.0532 41.2334 25.3599C42.4601 26.6399 43.9934 27.2799 45.8334 27.2799ZM72.9013 8.47988C74.6346 8.47988 76.1813 8.83988 77.5413 9.55988C78.9279 10.2799 80.0079 11.3465 80.7813 12.7599C81.5546 14.1732 81.9413 15.8799 81.9413 17.8799V30.8799H77.4213V18.5599C77.4213 16.5865 76.9279 15.0799 75.9413 14.0399C74.9546 12.9732 73.6079 12.4399 71.9013 12.4399C70.1946 12.4399 68.8346 12.9732 67.8213 14.0399C66.8346 15.0799 66.3413 16.5865 66.3413 18.5599V30.8799H61.7813V8.83988H66.3413V11.3599C67.0879 10.4532 68.0346 9.74655 69.1813 9.23988C70.3546 8.73322 71.5946 8.47988 72.9013 8.47988ZM93.0778 12.5599V24.7599C93.0778 25.5865 93.2645 26.1865 93.6378 26.5599C94.0378 26.9065 94.7045 27.0799 95.6378 27.0799H98.4378V30.8799H94.8378C92.7845 30.8799 91.2111 30.3999 90.1178 29.4399C89.0245 28.4799 88.4778 26.9199 88.4778 24.7599V12.5599H85.8778V8.83988H88.4778V3.35988H93.0778V8.83988H98.4378V12.5599H93.0778ZM114.041 8.47988C115.721 8.47988 117.214 8.83988 118.521 9.55988C119.854 10.2799 120.894 11.3465 121.641 12.7599C122.414 14.1732 122.801 15.8799 122.801 17.8799V30.8799H118.281V18.5599C118.281 16.5865 117.787 15.0799 116.801 14.0399C115.814 12.9732 114.467 12.4399 112.761 12.4399C111.054 12.4399 109.694 12.9732 108.681 14.0399C107.694 15.0799 107.201 16.5865 107.201 18.5599V30.8799H102.641V1.27988H107.201V11.3999C107.974 10.4665 108.947 9.74655 110.121 9.23988C111.321 8.73322 112.627 8.47988 114.041 8.47988ZM154.088 8.47988C153.794 7.25322 153.261 6.33322 152.488 5.71988C151.714 5.10655 150.634 4.79988 149.248 4.79988C147.141 4.79988 145.568 5.61322 144.528 7.23988C143.488 8.83988 142.941 11.5065 142.888 15.2399C143.581 14.0665 144.594 13.1599 145.928 12.5199C147.261 11.8799 148.701 11.5599 150.248 11.5599C152.008 11.5599 153.554 11.9465 154.888 12.7199C156.248 13.4665 157.301 14.5599 158.048 15.9999C158.821 17.4399 159.208 19.1599 159.208 21.1599C159.208 23.0265 158.834 24.6932 158.088 26.1599C157.368 27.6265 156.288 28.7865 154.848 29.6399C153.408 30.4665 151.674 30.8799 149.648 30.8799C146.901 30.8799 144.741 30.2799 143.168 29.0799C141.621 27.8532 140.528 26.1332 139.888 23.9199C139.274 21.7065 138.968 18.9465 138.968 15.6399C138.968 5.87988 142.408 0.999881 149.288 0.999881C151.954 0.999881 154.048 1.71988 155.568 3.15988C157.114 4.59988 158.021 6.37321 158.288 8.47988H154.088ZM149.248 15.3999C147.621 15.3999 146.234 15.8932 145.088 16.8799C143.968 17.8399 143.408 19.2399 143.408 21.0799C143.408 22.9199 143.928 24.3865 144.968 25.4799C146.034 26.5465 147.514 27.0799 149.408 27.0799C151.088 27.0799 152.408 26.5599 153.368 25.5199C154.354 24.4799 154.848 23.0932 154.848 21.3599C154.848 19.5465 154.368 18.1065 153.408 17.0399C152.474 15.9465 151.088 15.3999 149.248 15.3999Z"/>
</mask>
<path d="M30.28 3.07988H31.28V2.07988H30.28V3.07988ZM30.28 30.8799V31.8799H31.28V30.8799H30.28ZM25.72 30.8799H24.72V31.8799H25.72V30.8799ZM25.72 11.8399H26.72L24.8065 11.433L25.72 11.8399ZM17.24 30.8799V31.8799H17.8893L18.1535 31.2867L17.24 30.8799ZM14.08 30.8799L13.1672 31.2883L13.4319 31.8799H14.08V30.8799ZM5.56 11.8399L6.47278 11.4314L4.56 11.8399H5.56ZM5.56 30.8799V31.8799H6.56V30.8799H5.56ZM1 30.8799H0V31.8799H1V30.8799ZM1 3.07988V2.07988H0V3.07988H1ZM5.92 3.07988L6.8327 2.67126L6.56794 2.07988H5.92V3.07988ZM15.68 24.8799L14.7673 25.2885L15.6819 27.3313L16.5933 25.2871L15.68 24.8799ZM25.4 3.07988V2.07988H24.751L24.4867 2.67265L25.4 3.07988ZM30.28 3.07988H29.28V30.8799H30.28H31.28V3.07988H30.28ZM30.28 30.8799V29.8799H25.72V30.8799V31.8799H30.28V30.8799ZM25.72 30.8799H26.72V11.8399H25.72H24.72V30.8799H25.72ZM25.72 11.8399L24.8065 11.433L16.3265 30.473L17.24 30.8799L18.1535 31.2867L26.6335 12.2467L25.72 11.8399ZM17.24 30.8799V29.8799H14.08V30.8799V31.8799H17.24V30.8799ZM14.08 30.8799L14.9928 30.4714L6.47278 11.4314L5.56 11.8399L4.64722 12.2483L13.1672 31.2883L14.08 30.8799ZM5.56 11.8399H4.56V30.8799H5.56H6.56V11.8399H5.56ZM5.56 30.8799V29.8799H1V30.8799V31.8799H5.56V30.8799ZM1 30.8799H2V3.07988H1H0V30.8799H1ZM1 3.07988V4.07988H5.92V3.07988V2.07988H1V3.07988ZM5.92 3.07988L5.0073 3.4885L14.7673 25.2885L15.68 24.8799L16.5927 24.4713L6.8327 2.67126L5.92 3.07988ZM15.68 24.8799L16.5933 25.2871L26.3133 3.48711L25.4 3.07988L24.4867 2.67265L14.7667 24.4727L15.68 24.8799ZM25.4 3.07988V4.07988H30.28V3.07988V2.07988H25.4V3.07988ZM40.1934 29.8399L39.6973 30.7082L39.7078 30.714L40.1934 29.8399ZM36.2334 25.8399L35.3586 26.3244L35.3619 26.3301L36.2334 25.8399ZM40.3134 9.87988L39.8336 9.00251V9.00251L40.3134 9.87988ZM51.7534 9.87988L52.2333 9.00251V9.00251L51.7534 9.87988ZM55.7534 25.7999L54.8901 25.2952L55.7534 25.7999ZM51.5934 29.8399L52.0675 30.7204L52.0723 30.7178L51.5934 29.8399ZM49.1134 26.4399L48.6393 25.5594L48.6298 25.5646L49.1134 26.4399ZM51.6334 23.9199L50.7652 23.4237V23.4237L51.6334 23.9199ZM51.6734 15.7999L50.7963 16.2802L50.8013 16.2891L51.6734 15.7999ZM42.6734 13.2799L42.1897 12.4046L42.1798 12.4102L42.6734 13.2799ZM40.3134 15.7999L41.1946 16.2727L41.1993 16.2639L40.3134 15.7999ZM41.2334 25.3599L40.4969 26.0363L40.5041 26.0441L40.5115 26.0518L41.2334 25.3599ZM45.8334 31.2399V30.2399C43.909 30.2399 42.1984 29.8098 40.6791 28.9657L40.1934 29.8399L39.7078 30.714C41.5484 31.7366 43.5979 32.2399 45.8334 32.2399V31.2399ZM40.1934 29.8399L40.6896 28.9716C39.1686 28.1025 37.9775 26.9007 37.105 25.3496L36.2334 25.8399L35.3619 26.3301C36.4094 28.1924 37.8583 29.6573 39.6973 30.7081L40.1934 29.8399ZM36.2334 25.8399L37.1082 25.3554C36.2415 23.7905 35.7934 21.9617 35.7934 19.8399H34.7934H33.7934C33.7934 22.2514 34.3053 24.4226 35.3586 26.3244L36.2334 25.8399ZM34.7934 19.8399H35.7934C35.7934 17.7516 36.2518 15.9393 37.1425 14.3746L36.2734 13.8799L35.4044 13.3852C34.3217 15.2871 33.7934 17.4482 33.7934 19.8399H34.7934ZM36.2734 13.8799L37.1425 14.3746C38.0399 12.7981 39.2536 11.5993 40.7933 10.7573L40.3134 9.87988L39.8336 9.00251C37.9599 10.0272 36.4803 11.495 35.4044 13.3852L36.2734 13.8799ZM40.3134 9.87988L40.7933 10.7573C42.3407 9.91097 44.0802 9.47988 46.0334 9.47988V8.47988V7.47988C43.7734 7.47988 41.6995 7.98213 39.8336 9.00251L40.3134 9.87988ZM46.0334 8.47988V9.47988C47.9867 9.47988 49.7261 9.91097 51.2736 10.7573L51.7534 9.87988L52.2333 9.00251C50.3674 7.98213 48.2935 7.47988 46.0334 7.47988V8.47988ZM51.7534 9.87988L51.2736 10.7573C52.8133 11.5993 54.027 12.7981 54.9244 14.3746L55.7934 13.8799L56.6625 13.3852C55.5865 11.495 54.1069 10.0272 52.2333 9.00251L51.7534 9.87988ZM55.7934 13.8799L54.9244 14.3746C55.8151 15.9393 56.2734 17.7516 56.2734 19.8399H57.2734H58.2734C58.2734 17.4482 57.7451 15.2871 56.6625 13.3852L55.7934 13.8799ZM57.2734 19.8399H56.2734C56.2734 21.9235 55.8039 23.7322 54.8901 25.2952L55.7534 25.7999L56.6167 26.3046C57.7296 24.4009 58.2734 22.2363 58.2734 19.8399H57.2734ZM55.7534 25.7999L54.8901 25.2952C53.9685 26.8717 52.7146 28.0892 51.1146 28.962L51.5934 29.8399L52.0723 30.7178C53.9923 29.6705 55.5117 28.1947 56.6167 26.3046L55.7534 25.7999ZM51.5934 29.8399L51.1193 28.9594C49.5419 29.8088 47.7866 30.2399 45.8334 30.2399V31.2399V32.2399C48.0937 32.2399 50.1783 31.7376 52.0675 30.7204L51.5934 29.8399ZM45.8334 27.2799V28.2799C47.1736 28.2799 48.4336 27.9581 49.5971 27.3151L49.1134 26.4399L48.6298 25.5646C47.7666 26.0417 46.84 26.2799 45.8334 26.2799V27.2799ZM49.1134 26.4399L49.5875 27.3204C50.8073 26.6635 51.7777 25.683 52.5017 24.416L51.6334 23.9199L50.7652 23.4237C50.2092 24.3968 49.4995 25.0962 48.6393 25.5594L49.1134 26.4399ZM51.6334 23.9199L52.5017 24.416C53.2465 23.1126 53.5934 21.5725 53.5934 19.8399H52.5934H51.5934C51.5934 21.3073 51.3004 22.4871 50.7652 23.4237L51.6334 23.9199ZM52.5934 19.8399H53.5934C53.5934 18.1149 53.2628 16.5892 52.5456 15.3106L51.6734 15.7999L50.8013 16.2891C51.3107 17.1972 51.5934 18.3649 51.5934 19.8399H52.5934ZM51.6734 15.7999L52.5505 15.3196C51.8559 14.051 50.9132 13.0656 49.7171 12.4046L49.2334 13.2799L48.7498 14.1551C49.5803 14.6141 50.2644 15.3087 50.7963 16.2802L51.6734 15.7999ZM49.2334 13.2799L49.7171 12.4046C48.5536 11.7617 47.2936 11.4399 45.9534 11.4399V12.4399V13.4399C46.96 13.4399 47.8866 13.6781 48.7498 14.1551L49.2334 13.2799ZM45.9534 12.4399V11.4399C44.6133 11.4399 43.3532 11.7617 42.1898 12.4046L42.6734 13.2799L43.1571 14.1551C44.0203 13.6781 44.9469 13.4399 45.9534 13.4399V12.4399ZM42.6734 13.2799L42.1798 12.4102C41.0075 13.0756 40.0928 14.0659 39.4276 15.3359L40.3134 15.7999L41.1993 16.2639C41.7074 15.2938 42.3661 14.6042 43.167 14.1496L42.6734 13.2799ZM40.3134 15.7999L39.4323 15.3271C38.7483 16.6018 38.4334 18.1213 38.4334 19.8399H39.4334H40.4334C40.4334 18.3584 40.7053 17.1846 41.1946 16.2727L40.3134 15.7999ZM39.4334 19.8399H38.4334C38.4334 22.3775 39.077 24.4902 40.4969 26.0363L41.2334 25.3599L41.97 24.6835C40.9899 23.6163 40.4334 22.0489 40.4334 19.8399H39.4334ZM41.2334 25.3599L40.5115 26.0518C41.9346 27.5368 43.7324 28.2799 45.8334 28.2799V27.2799V26.2799C44.2544 26.2799 42.9856 25.7429 41.9554 24.668L41.2334 25.3599ZM77.5413 9.55988L77.0733 10.4437L77.0804 10.4474L77.5413 9.55988ZM80.7812 12.7599L79.904 13.2399V13.2399L80.7812 12.7599ZM81.9413 30.8799V31.8799H82.9413V30.8799H81.9413ZM77.4212 30.8799H76.4212V31.8799H77.4212V30.8799ZM75.9413 14.0399L75.2071 14.719L75.2158 14.7281L75.9413 14.0399ZM67.8213 14.0399L67.0963 13.3511L67.0958 13.3516L67.8213 14.0399ZM66.3412 30.8799V31.8799H67.3412V30.8799H66.3412ZM61.7812 30.8799H60.7812V31.8799H61.7812V30.8799ZM61.7812 8.83988V7.83988H60.7812V8.83988H61.7812ZM66.3412 8.83988H67.3412V7.83988H66.3412V8.83988ZM66.3412 11.3599H65.3412V14.1472L67.1132 11.9956L66.3412 11.3599ZM69.1813 9.23988L68.7848 8.32179L68.7771 8.3252L69.1813 9.23988ZM72.9013 8.47988V9.47988C74.4924 9.47988 75.8749 9.80919 77.0734 10.4437L77.5413 9.55988L78.0091 8.67609C76.4876 7.87057 74.7768 7.47988 72.9013 7.47988V8.47988ZM77.5413 9.55988L77.0804 10.4474C78.2852 11.0729 79.2228 11.995 79.904 13.2399L80.7812 12.7599L81.6585 12.2799C80.793 10.6981 79.5706 9.48684 78.0021 8.67238L77.5413 9.55988ZM80.7812 12.7599L79.904 13.2399C80.5796 14.4746 80.9413 16.0077 80.9413 17.8799H81.9413H82.9413C82.9413 15.752 82.5296 13.8718 81.6585 12.2799L80.7812 12.7599ZM81.9413 17.8799H80.9413V30.8799H81.9413H82.9413V17.8799H81.9413ZM81.9413 30.8799V29.8799H77.4212V30.8799V31.8799H81.9413V30.8799ZM77.4212 30.8799H78.4212V18.5599H77.4212H76.4212V30.8799H77.4212ZM77.4212 18.5599H78.4212C78.4212 16.4281 77.887 14.6379 76.6667 13.3516L75.9413 14.0399L75.2158 14.7281C75.9688 15.5219 76.4212 16.745 76.4212 18.5599H77.4212ZM75.9413 14.0399L76.6753 13.3608C75.4661 12.0536 73.8336 11.4399 71.9013 11.4399V12.4399V13.4399C73.3823 13.4399 74.443 13.8928 75.2072 14.7189L75.9413 14.0399ZM71.9013 12.4399V11.4399C69.9683 11.4399 68.329 12.0535 67.0963 13.3511L67.8213 14.0399L68.5462 14.7286C69.3402 13.8929 70.4209 13.4399 71.9013 13.4399V12.4399ZM67.8213 14.0399L67.0958 13.3516C65.8755 14.6379 65.3412 16.4281 65.3412 18.5599H66.3412H67.3412C67.3412 16.745 67.7937 15.5219 68.5467 14.7281L67.8213 14.0399ZM66.3412 18.5599H65.3412V30.8799H66.3412H67.3412V18.5599H66.3412ZM66.3412 30.8799V29.8799H61.7812V30.8799V31.8799H66.3412V30.8799ZM61.7812 30.8799H62.7812V8.83988H61.7812H60.7812V30.8799H61.7812ZM61.7812 8.83988V9.83988H66.3412V8.83988V7.83988H61.7812V8.83988ZM66.3412 8.83988H65.3412V11.3599H66.3412H67.3412V8.83988H66.3412ZM66.3412 11.3599L67.1132 11.9956C67.7541 11.2174 68.5716 10.6025 69.5854 10.1546L69.1813 9.23988L68.7771 8.3252C67.4976 8.89055 66.4218 9.68907 65.5693 10.7242L66.3412 11.3599ZM69.1813 9.23988L69.5777 10.1579C70.623 9.70656 71.7278 9.47988 72.9013 9.47988V8.47988V7.47988C71.4614 7.47988 70.0862 7.75987 68.7848 8.32182L69.1813 9.23988ZM93.0778 12.5599V11.5599H92.0778V12.5599H93.0778ZM93.6378 26.5599L92.9307 27.267L92.9559 27.2922L92.9829 27.3156L93.6378 26.5599ZM98.4378 27.0799H99.4378V26.0799H98.4378V27.0799ZM98.4378 30.8799V31.8799H99.4378V30.8799H98.4378ZM90.1178 29.4399L89.458 30.1913V30.1913L90.1178 29.4399ZM88.4778 12.5599H89.4778V11.5599H88.4778V12.5599ZM85.8778 12.5599H84.8778V13.5599H85.8778V12.5599ZM85.8778 8.83988V7.83988H84.8778V8.83988H85.8778ZM88.4778 8.83988V9.83988H89.4778V8.83988H88.4778ZM88.4778 3.35988V2.35988H87.4778V3.35988H88.4778ZM93.0778 3.35988H94.0778V2.35988H93.0778V3.35988ZM93.0778 8.83988H92.0778V9.83988H93.0778V8.83988ZM98.4378 8.83988H99.4378V7.83988H98.4378V8.83988ZM98.4378 12.5599V13.5599H99.4378V12.5599H98.4378ZM93.0778 12.5599H92.0778V24.7599H93.0778H94.0778V12.5599H93.0778ZM93.0778 24.7599H92.0778C92.0778 25.7061 92.2872 26.6235 92.9307 27.267L93.6378 26.5599L94.3449 25.8528C94.2417 25.7496 94.0778 25.467 94.0778 24.7599H93.0778ZM93.6378 26.5599L92.9829 27.3156C93.6597 27.9022 94.6298 28.0799 95.6378 28.0799V27.0799V26.0799C94.7791 26.0799 94.4159 25.9109 94.2927 25.8042L93.6378 26.5599ZM95.6378 27.0799V28.0799H98.4378V27.0799V26.0799H95.6378V27.0799ZM98.4378 27.0799H97.4378V30.8799H98.4378H99.4378V27.0799H98.4378ZM98.4378 30.8799V29.8799H94.8378V30.8799V31.8799H98.4378V30.8799ZM94.8378 30.8799V29.8799C92.9282 29.8799 91.6257 29.4331 90.7776 28.6884L90.1178 29.4399L89.458 30.1913C90.7966 31.3667 92.6408 31.8799 94.8378 31.8799V30.8799ZM90.1178 29.4399L90.7776 28.6884C89.9878 27.995 89.4778 26.7734 89.4778 24.7599H88.4778H87.4778C87.4778 27.0664 88.0611 28.9648 89.458 30.1913L90.1178 29.4399ZM88.4778 24.7599H89.4778V12.5599H88.4778H87.4778V24.7599H88.4778ZM88.4778 12.5599V11.5599H85.8778V12.5599V13.5599H88.4778V12.5599ZM85.8778 12.5599H86.8778V8.83988H85.8778H84.8778V12.5599H85.8778ZM85.8778 8.83988V9.83988H88.4778V8.83988V7.83988H85.8778V8.83988ZM88.4778 8.83988H89.4778V3.35988H88.4778H87.4778V8.83988H88.4778ZM88.4778 3.35988V4.35988H93.0778V3.35988V2.35988H88.4778V3.35988ZM93.0778 3.35988H92.0778V8.83988H93.0778H94.0778V3.35988H93.0778ZM93.0778 8.83988V9.83988H98.4378V8.83988V7.83988H93.0778V8.83988ZM98.4378 8.83988H97.4378V12.5599H98.4378H99.4378V8.83988H98.4378ZM98.4378 12.5599V11.5599H93.0778V12.5599V13.5599H98.4378V12.5599ZM118.521 9.55988L118.038 10.4358L118.045 10.4398L118.521 9.55988ZM121.641 12.7599L120.756 13.227L120.76 13.2335L120.763 13.2399L121.641 12.7599ZM122.801 30.8799V31.8799H123.801V30.8799H122.801ZM118.281 30.8799H117.281V31.8799H118.281V30.8799ZM116.801 14.0399L116.066 14.719L116.075 14.7281L116.801 14.0399ZM108.681 14.0399L107.956 13.3511L107.955 13.3516L108.681 14.0399ZM107.201 30.8799V31.8799H108.201V30.8799H107.201ZM102.641 30.8799H101.641V31.8799H102.641V30.8799ZM102.641 1.27988V0.279882H101.641V1.27988H102.641ZM107.201 1.27988H108.201V0.279882H107.201V1.27988ZM107.201 11.3999H106.201V14.1741L107.971 12.0379L107.201 11.3999ZM110.121 9.23988L109.732 8.3186L109.724 8.32182L110.121 9.23988ZM114.041 8.47988V9.47988C115.573 9.47988 116.897 9.807 118.038 10.4357L118.521 9.55988L119.003 8.68404C117.531 7.87276 115.868 7.47988 114.041 7.47988V8.47988ZM118.521 9.55988L118.045 10.4398C119.195 11.0604 120.097 11.9786 120.756 13.227L121.641 12.7599L122.525 12.2928C121.691 10.7145 120.513 9.49934 118.996 8.67998L118.521 9.55988ZM121.641 12.7599L120.763 13.2399C121.439 14.4746 121.801 16.0077 121.801 17.8799H122.801H123.801C123.801 15.752 123.389 13.8718 122.518 12.2799L121.641 12.7599ZM122.801 17.8799H121.801V30.8799H122.801H123.801V17.8799H122.801ZM122.801 30.8799V29.8799H118.281V30.8799V31.8799H122.801V30.8799ZM118.281 30.8799H119.281V18.5599H118.281H117.281V30.8799H118.281ZM118.281 18.5599H119.281C119.281 16.4281 118.746 14.6379 117.526 13.3516L116.801 14.0399L116.075 14.7281C116.828 15.5219 117.281 16.745 117.281 18.5599H118.281ZM116.801 14.0399L117.535 13.3608C116.326 12.0536 114.693 11.4399 112.761 11.4399V12.4399V13.4399C114.242 13.4399 115.302 13.8928 116.067 14.7189L116.801 14.0399ZM112.761 12.4399V11.4399C110.828 11.4399 109.188 12.0535 107.956 13.3511L108.681 14.0399L109.406 14.7286C110.2 13.8929 111.28 13.4399 112.761 13.4399V12.4399ZM108.681 14.0399L107.955 13.3516C106.735 14.6379 106.201 16.4281 106.201 18.5599H107.201H108.201C108.201 16.745 108.653 15.5219 109.406 14.7281L108.681 14.0399ZM107.201 18.5599H106.201V30.8799H107.201H108.201V18.5599H107.201ZM107.201 30.8799V29.8799H102.641V30.8799V31.8799H107.201V30.8799ZM102.641 30.8799H103.641V1.27988H102.641H101.641V30.8799H102.641ZM102.641 1.27988V2.27988H107.201V1.27988V0.279882H102.641V1.27988ZM107.201 1.27988H106.201V11.3999H107.201H108.201V1.27988H107.201ZM107.201 11.3999L107.971 12.0379C108.638 11.2327 109.48 10.6056 110.517 10.1579L110.121 9.23988L109.724 8.32182C108.414 8.88755 107.31 9.70039 106.431 10.7619L107.201 11.3999ZM110.121 9.23988L110.51 10.1611C111.576 9.71072 112.749 9.47988 114.041 9.47988V8.47988V7.47988C112.505 7.47988 111.065 7.75571 109.732 8.31863L110.121 9.23988ZM154.088 8.47988L153.115 8.71246L153.299 9.47988H154.088V8.47988ZM152.488 5.71988L153.109 4.93638V4.93638L152.488 5.71988ZM144.528 7.23988L145.366 7.78489L145.37 7.77854L144.528 7.23988ZM142.888 15.2399L141.888 15.2256L141.834 18.9887L143.749 15.7486L142.888 15.2399ZM154.888 12.7199L154.386 13.5849L154.396 13.5908L154.407 13.5965L154.888 12.7199ZM158.048 15.9999L157.16 16.4602L157.163 16.4666L157.167 16.473L158.048 15.9999ZM158.088 26.1599L157.197 25.7062L157.193 25.7127L157.19 25.7192L158.088 26.1599ZM154.848 29.6399L155.346 30.5072L155.358 30.5002L154.848 29.6399ZM143.168 29.0799L142.546 29.8634L142.554 29.8693L142.561 29.875L143.168 29.0799ZM139.888 23.9199L138.924 24.1869L138.927 24.1977L139.888 23.9199ZM155.568 3.15988L154.88 3.88586L154.886 3.89178L155.568 3.15988ZM158.288 8.47988V9.47988H159.422L159.28 8.3543L158.288 8.47988ZM145.088 16.8799L145.739 17.6391L145.74 17.6379L145.088 16.8799ZM144.968 25.4799L144.243 26.1691L144.252 26.1782L144.261 26.187L144.968 25.4799ZM153.368 25.5199L152.642 24.8316L152.633 24.8416L153.368 25.5199ZM153.408 17.0399L152.647 17.6891L152.656 17.6991L152.665 17.7088L153.408 17.0399ZM154.088 8.47988L155.06 8.24731C154.73 6.86417 154.102 5.72353 153.109 4.93638L152.488 5.71988L151.866 6.50338C152.421 6.9429 152.859 7.64226 153.115 8.71246L154.088 8.47988ZM152.488 5.71988L153.109 4.93638C152.1 4.13579 150.77 3.79988 149.248 3.79988V4.79988V5.79988C150.498 5.79988 151.329 6.0773 151.866 6.50338L152.488 5.71988ZM149.248 4.79988V3.79988C146.837 3.79988 144.928 4.75724 143.685 6.70122L144.528 7.23988L145.37 7.77854C146.207 6.46919 147.445 5.79988 149.248 5.79988V4.79988ZM144.528 7.23988L143.689 6.69489C142.488 8.54377 141.942 11.4536 141.888 15.2256L142.888 15.2399L143.888 15.2542C143.94 11.5595 144.488 9.13599 145.366 7.78487L144.528 7.23988ZM142.888 15.2399L143.749 15.7486C144.333 14.7603 145.19 13.9834 146.361 13.4214L145.928 12.5199L145.495 11.6184C143.999 12.3364 142.83 13.3728 142.027 14.7312L142.888 15.2399ZM145.928 12.5199L146.361 13.4214C147.553 12.8492 148.844 12.5599 150.248 12.5599V11.5599V10.5599C148.558 10.5599 146.97 10.9106 145.495 11.6184L145.928 12.5199ZM150.248 11.5599V12.5599C151.857 12.5599 153.226 12.9119 154.386 13.5849L154.888 12.7199L155.39 11.8549C153.883 10.9812 152.159 10.5599 150.248 10.5599V11.5599ZM154.888 12.7199L154.407 13.5965C155.585 14.2432 156.5 15.1877 157.16 16.4602L158.048 15.9999L158.936 15.5396C158.102 13.932 156.911 12.6899 155.369 11.8433L154.888 12.7199ZM158.048 15.9999L157.167 16.473C157.846 17.7385 158.208 19.2885 158.208 21.1599H159.208H160.208C160.208 19.0313 159.796 17.1413 158.929 15.5268L158.048 15.9999ZM159.208 21.1599H158.208C158.208 22.8902 157.863 24.3979 157.197 25.7062L158.088 26.1599L158.979 26.6136C159.806 24.9885 160.208 23.1629 160.208 21.1599H159.208ZM158.088 26.1599L157.19 25.7192C156.558 27.0068 155.615 28.0229 154.338 28.7796L154.848 29.6399L155.358 30.5002C156.961 29.5502 158.178 28.2463 158.985 26.6006L158.088 26.1599ZM154.848 29.6399L154.35 28.7726C153.092 29.495 151.538 29.8799 149.648 29.8799V30.8799V31.8799C151.811 31.8799 153.724 31.4381 155.346 30.5071L154.848 29.6399ZM149.648 30.8799V29.8799C147.037 29.8799 145.117 29.3089 143.774 28.2848L143.168 29.0799L142.561 29.875C144.365 31.2509 146.765 31.8799 149.648 31.8799V30.8799ZM143.168 29.0799L143.789 28.2964C142.431 27.2195 141.441 25.6901 140.848 23.6421L139.888 23.9199L138.927 24.1977C139.615 26.5763 140.811 28.4869 142.546 29.8634L143.168 29.0799ZM139.888 23.9199L140.852 23.6528C140.27 21.5554 139.968 18.8922 139.968 15.6399H138.968H137.968C137.968 19.0009 138.279 21.8577 138.924 24.1869L139.888 23.9199ZM138.968 15.6399H139.968C139.968 10.8469 140.818 7.43084 142.365 5.23604C143.867 3.10522 146.116 1.99988 149.288 1.99988V0.999882V-0.000118256C145.58 -0.000118256 142.668 1.33454 140.73 4.08372C138.838 6.76892 137.968 10.6729 137.968 15.6399H138.968ZM149.288 0.999882V1.99988C151.771 1.99988 153.593 2.66624 154.88 3.88583L155.568 3.15988L156.256 2.43393C154.503 0.773522 152.137 -0.000118256 149.288 -0.000118256V0.999882ZM155.568 3.15988L154.886 3.89178C156.261 5.17142 157.058 6.7298 157.296 8.60546L158.288 8.47988L159.28 8.3543C158.984 6.01663 157.968 4.02835 156.249 2.42799L155.568 3.15988ZM158.288 8.47988V7.47988H154.088V8.47988V9.47988H158.288V8.47988ZM149.248 15.3999V14.3999C147.401 14.3999 145.778 14.9668 144.436 16.1219L145.088 16.8799L145.74 17.6379C146.691 16.8196 147.841 16.3999 149.248 16.3999V15.3999ZM145.088 16.8799L144.437 16.1206C143.042 17.3162 142.408 19.0262 142.408 21.0799H143.408H144.408C144.408 19.4535 144.893 18.3635 145.739 17.6391L145.088 16.8799ZM143.408 21.0799H142.408C142.408 23.117 142.989 24.8508 144.243 26.1691L144.968 25.4799L145.692 24.7907C144.866 23.9223 144.408 22.7228 144.408 21.0799H143.408ZM144.968 25.4799L144.261 26.187C145.56 27.4863 147.321 28.0799 149.408 28.0799V27.0799V26.0799C147.708 26.0799 146.509 25.6068 145.675 24.7728L144.968 25.4799ZM149.408 27.0799V28.0799C151.31 28.0799 152.918 27.4815 154.103 26.1982L153.368 25.5199L152.633 24.8416C151.898 25.6382 150.865 26.0799 149.408 26.0799V27.0799ZM153.368 25.5199L154.093 26.2081C155.292 24.9449 155.848 23.2926 155.848 21.3599H154.848H153.848C153.848 22.8938 153.417 24.0149 152.642 24.8316L153.368 25.5199ZM154.848 21.3599H155.848C155.848 19.367 155.317 17.6658 154.151 16.3709L153.408 17.0399L152.665 17.7088C153.419 18.5473 153.848 19.7261 153.848 21.3599H154.848ZM153.408 17.0399L154.168 16.3906C152.994 15.0155 151.292 14.3999 149.248 14.3999V15.3999V16.3999C150.883 16.3999 151.954 16.8776 152.647 17.6891L153.408 17.0399Z" fill="url(#paint0_linear_484_6703)" mask="url(#path-1-outside-1_484_6703)"/>
<defs>
<linearGradient id="paint0_linear_484_6703" x1="79.8359" y1="-11.1201" x2="79.9022" y2="37.7555" gradientUnits="userSpaceOnUse">
<stop stop-color="#FFF0F0"/>
<stop offset="1" stop-color="#FFF0F0" stop-opacity="0.16"/>
</linearGradient>
</defs>
</svg>
