<svg width="39" height="40" viewBox="0 0 39 40" fill="none" xmlns="http://www.w3.org/2000/svg">
<ellipse cx="15.2286" cy="15" rx="15.2286" ry="15" fill="#3E82DA"/>
<path d="M25.9447 12.0006C26.0798 12.0015 26.2148 12.0025 26.3539 12.0035C27.378 12.0247 28.2648 12.142 29.2069 12.5656C29.3584 12.6322 29.5099 12.6989 29.666 12.7675C31.767 13.799 33.2598 15.5417 34.1215 17.7041C34.522 19.0265 34.668 20.7731 34.3241 22.1177C34.0399 22.125 33.7554 22.1246 33.4712 22.1177C33.4149 22.0614 33.3586 22.0051 33.3006 21.9471C33.3006 21.6657 33.3006 21.3842 33.3006 21.0942C32.4563 21.0379 31.612 20.9817 30.7421 20.9237C30.7561 21.1488 30.7702 21.374 30.7847 21.606C30.7847 22.4508 30.642 23.2202 30.4436 24.0366C30.4168 24.1514 30.39 24.2662 30.3624 24.3844C30.1577 25.1797 29.858 25.7319 29.3775 26.382C29.0398 26.2976 29.0398 26.2976 28.6952 26.2114C28.7515 25.8174 28.8078 25.4234 28.8658 25.0174C27.6837 24.8485 27.6837 24.8485 26.4778 24.6763C26.4778 24.8451 26.4778 25.014 26.4778 25.188C26.0556 25.2724 26.0556 25.2724 25.6249 25.3586C25.5686 25.1334 25.5124 24.9082 25.4544 24.6763C24.2723 24.8451 24.2723 24.8451 23.0664 25.0174C23.1508 25.6084 23.1508 25.6084 23.2369 26.2114C22.8992 26.2958 22.8992 26.2958 22.5546 26.382C22.0019 25.6341 21.7008 24.9464 21.4886 24.0366C21.4451 23.8579 21.4451 23.8579 21.4008 23.6755C21.1868 22.7418 21.1301 21.8828 21.1901 20.9237C20.3458 20.98 19.5014 21.0362 18.6315 21.0942C18.6315 21.3757 18.6315 21.6571 18.6315 21.9471C18.4609 22.1177 18.4609 22.1177 18.0239 22.1283C17.8867 22.1248 17.7494 22.1213 17.6081 22.1177C17.0515 19.9607 17.6647 17.9441 18.6402 16.0217C19.7508 14.1633 21.6253 12.8183 23.6947 12.2105C24.4481 12.0296 25.1722 11.9948 25.9447 12.0006ZM26.4778 13.0773C26.4778 14.0905 26.4778 15.1037 26.4778 16.1476C27.3221 16.1476 28.1664 16.1476 29.0363 16.1476C28.4364 14.7977 27.9739 13.7986 26.6484 13.0773C26.5921 13.0773 26.5358 13.0773 26.4778 13.0773ZM23.9192 14.1008C23.5152 14.7664 23.2133 15.4333 22.8958 16.1476C23.7401 16.1476 24.5844 16.1476 25.4544 16.1476C25.4544 15.1344 25.4544 14.1212 25.4544 13.0773C24.8895 13.0773 24.2887 13.7333 23.9192 14.1008ZM21.6272 14.3886C21.462 14.5054 21.2969 14.6221 21.1268 14.7424C20.6786 15.124 20.4349 15.4578 20.1667 15.9771C20.7295 16.0333 21.2924 16.0896 21.8724 16.1476C21.9177 16.0324 21.963 15.9172 22.0096 15.7985C22.0699 15.6463 22.1301 15.4942 22.1922 15.3374C22.2812 15.1118 22.2812 15.1118 22.3721 14.8817C22.5316 14.4975 22.7044 14.1287 22.8958 13.7596C22.3574 13.7596 22.0578 14.0792 21.6272 14.3886ZM29.0363 13.7596C29.3741 14.4914 29.7118 15.2231 30.0598 15.9771C30.5664 15.9771 31.073 15.9771 31.5949 15.9771C31.4051 15.2178 31.2976 15.1261 30.6994 14.6764C30.5684 14.5757 30.4373 14.475 30.3023 14.3713C29.8375 14.0475 29.8375 14.0475 29.0363 13.7596ZM19.4844 16.8299C18.9144 17.8558 18.654 18.7419 18.4609 19.9002C19.3616 19.9002 20.2622 19.9002 21.1901 19.9002C21.3027 18.9433 21.4152 17.9864 21.5312 17.0005C20.8558 16.9442 20.1803 16.8879 19.4844 16.8299ZM30.4009 17.0005C30.5135 17.9574 30.6261 18.9143 30.7421 19.9002C31.5864 19.9002 32.4307 19.9002 33.3006 19.9002C33.233 18.6825 33.0547 17.8872 32.4478 16.8299C31.6491 16.8158 31.6491 16.8158 30.4009 17.0005ZM22.5546 17.1711C22.1583 18.5219 22.1583 18.5219 22.2135 19.9002C23.283 19.9002 24.3525 19.9002 25.4544 19.9002C25.4544 18.9996 25.4544 18.099 25.4544 17.1711C24.4975 17.1711 23.5405 17.1711 22.5546 17.1711ZM26.4778 17.1711C26.4778 18.0717 26.4778 18.9723 26.4778 19.9002C27.5473 19.9002 28.6167 19.9002 29.7186 19.9002C29.7738 18.5219 29.7738 18.5219 29.3775 17.1711C28.4206 17.1711 27.4637 17.1711 26.4778 17.1711ZM22.2135 20.9237C22.1804 22.1366 22.1804 22.1366 22.3841 23.2371C22.4404 23.4305 22.4967 23.624 22.5546 23.8234C23.5401 23.8439 24.4786 23.7948 25.4544 23.6528C25.4544 22.7522 25.4544 21.8516 25.4544 20.9237C24.3849 20.9237 23.3154 20.9237 22.2135 20.9237ZM26.4778 20.9237C26.4778 21.8243 26.4778 22.7249 26.4778 23.6528C27.2365 23.7612 27.8546 23.8443 28.5993 23.8341C28.7468 23.8325 28.8943 23.831 29.0463 23.8294C29.1556 23.8274 29.2649 23.8254 29.3775 23.8234C29.4338 23.6299 29.4901 23.4364 29.5481 23.2371C29.5797 23.1282 29.6114 23.0194 29.644 22.9072C29.7526 22.2546 29.7186 21.5853 29.7186 20.9237C28.6492 20.9237 27.5797 20.9237 26.4778 20.9237Z" fill="white"/>
<path d="M31.1323 34.1865C31.4234 34.399 31.4234 34.399 31.7646 34.9108C31.8408 35.4128 31.8277 35.9174 31.8285 36.4246C31.8327 36.5616 31.8369 36.6986 31.8412 36.8397C31.8446 37.5361 31.821 37.8917 31.4408 38.4941C30.8918 39.0145 30.5792 39.0272 29.8391 39.0347C29.6507 39.0369 29.4622 39.0391 29.268 39.0413C29.0635 39.0426 28.859 39.0438 28.6483 39.0451C28.3341 39.0472 28.3341 39.0472 28.0134 39.0493C27.5694 39.0517 27.1253 39.0535 26.6812 39.0548C26.0017 39.0571 25.3224 39.0653 24.6429 39.0728C24.2119 39.0745 23.7809 39.076 23.35 39.0771C23.0448 39.0816 23.0448 39.0816 22.7334 39.0862C21.3216 39.0825 21.3216 39.0825 20.6384 38.6801C20.0604 37.9952 20.1167 37.3394 20.1018 36.4779C20.0954 36.3401 20.089 36.2024 20.0825 36.0605C20.0718 35.3376 20.0915 35.0107 20.5342 34.415C21.0187 34.0578 21.451 33.82 22.0101 33.5995C22.2597 33.4982 22.2597 33.4982 22.5144 33.3949C25.452 32.3826 28.4219 32.6528 31.1323 34.1865ZM21.1892 35.2519C21.18 35.6428 21.1734 36.0337 21.1679 36.4246C21.1639 36.6423 21.1599 36.8599 21.1559 37.0842C21.1284 37.6546 21.1284 37.6546 21.5303 37.9811C21.9209 38.0333 21.9209 38.0333 22.3778 38.0252C22.5543 38.0263 22.7307 38.0274 22.9125 38.0285C23.1037 38.0278 23.2949 38.0271 23.4919 38.0264C23.6875 38.0267 23.883 38.027 24.0846 38.0274C24.4987 38.0276 24.9128 38.027 25.3269 38.0255C25.9625 38.0237 26.5981 38.0255 27.2338 38.0277C27.6353 38.0275 28.0369 38.027 28.4384 38.0264C28.7252 38.0274 28.7252 38.0274 29.0178 38.0285C29.2825 38.0269 29.2825 38.0269 29.5525 38.0252C29.7083 38.0249 29.8641 38.0247 30.0246 38.0244C30.4354 38.0164 30.4354 38.0164 30.7412 37.6399C30.7827 37.0672 30.7827 37.0672 30.7625 36.4246C30.7594 36.206 30.7563 35.9875 30.7531 35.7623C30.7492 35.5939 30.7452 35.4254 30.7412 35.2519C27.5244 33.3715 24.4525 33.4609 21.1892 35.2519Z" fill="white"/>
<path d="M37.7353 30.1345C38.2333 30.5678 38.3975 30.9123 38.4522 31.5823C38.4679 32.5278 38.4788 33.2595 37.9058 34.0576C37.2993 34.4712 36.7313 34.4428 36.0122 34.4441C35.8966 34.4444 35.781 34.4447 35.6619 34.4451C35.4185 34.4453 35.1751 34.4447 34.9317 34.4432C34.5584 34.4414 34.1853 34.4432 33.8121 34.4454C33.5754 34.4452 33.3386 34.4447 33.1019 34.4441C32.8865 34.4437 32.6711 34.4433 32.4491 34.4429C31.9358 34.3988 31.9358 34.3988 31.5947 34.0576C31.651 33.8325 31.7073 33.6073 31.7653 33.3753C33.5665 33.319 35.3677 33.2628 37.2235 33.2048C37.2235 32.6419 37.2235 32.079 37.2235 31.499C36.2162 30.4917 34.895 30.1952 33.4996 30.1158C32.2898 30.1576 31.1381 30.4457 30.0596 30.9873C29.5905 31.0086 29.5905 31.0086 29.2067 30.9873C29.1504 30.7059 29.0941 30.4244 29.0361 30.1345C31.8192 28.5519 34.9627 28.5213 37.7353 30.1345Z" fill="white"/>
<path d="M22.8954 30.1339C22.8391 30.4154 22.7829 30.6968 22.7249 30.9868C22.0653 31.0233 21.6219 30.9209 21.0192 30.6563C19.2043 29.8651 17.4253 30.1065 15.6022 30.7936C15.1626 30.9907 15.1626 30.9907 14.708 31.4985C14.708 32.0614 14.708 32.6243 14.708 33.2042C17.4099 33.2887 17.4099 33.2887 20.1663 33.3748C20.1663 33.6562 20.1663 33.9377 20.1663 34.2277C19.7137 34.6803 18.4217 34.4375 17.7706 34.4392C17.3984 34.4409 17.0264 34.4462 16.6543 34.4515C16.4168 34.4527 16.1794 34.4536 15.942 34.4542C15.618 34.4566 15.618 34.4566 15.2875 34.459C14.6656 34.3938 14.3484 34.2633 13.8552 33.8865C13.3803 33.0257 13.4246 32.1138 13.514 31.1574C13.7768 30.4308 14.1929 30.1331 14.8739 29.7775C17.5804 28.5624 20.3006 28.6868 22.8954 30.1339Z" fill="white"/>
<path d="M27.3934 26.2429C28.2159 26.8108 28.6575 27.4495 28.8646 28.4284C28.8812 29.4513 28.7049 30.2025 28.0118 30.9869C27.1901 31.6114 26.5574 31.7815 25.5265 31.7345C24.6183 31.5914 24.0806 31.1965 23.5129 30.4646C23.085 29.6909 22.993 29.1381 23.0652 28.2578C23.3739 27.3585 23.7875 26.732 24.6003 26.2109C25.5276 25.9018 26.4736 25.9192 27.3934 26.2429ZM24.1952 28.0552C24.0292 28.6363 24.1063 29.0412 24.2592 29.6224C24.7707 30.2256 25.1271 30.6087 25.9223 30.6991C26.6277 30.6313 26.9607 30.417 27.5 29.9635C27.8031 29.4628 27.8442 29.1835 27.8199 28.5989C27.6476 28.0084 27.408 27.6795 26.9883 27.2343C25.8479 26.6641 24.9086 27.1149 24.1952 28.0552Z" fill="white"/>
<path d="M19.3141 23.3127C20.1358 23.7158 20.6107 24.2003 21.0198 25.0185C21.1816 25.9273 21.0194 26.6308 20.5081 27.4065C19.8804 27.9871 19.4394 28.237 18.5785 28.302C17.6702 28.2404 17.1493 27.9889 16.5317 27.3212C16.0487 26.6057 16.0157 26.0385 16.0733 25.189C16.6514 23.6371 17.75 23.1255 19.3141 23.3127ZM17.2673 25.0185C17.0543 25.5993 17.0543 25.5993 17.0967 26.2125C17.422 26.8111 17.6342 27.016 18.28 27.2359C18.9052 27.2359 19.1658 27.1049 19.6553 26.7242C20.0525 26.2336 20.0525 26.2336 19.9857 25.6261C19.8729 25.0042 19.8729 25.0042 19.442 24.6027C18.5306 24.0848 17.9728 24.2541 17.2673 25.0185Z" fill="white"/>
<path d="M34.1524 23.3118C35.0253 23.7644 35.5472 24.2553 35.8581 25.1881C35.9257 26.0834 35.8352 26.6471 35.3464 27.4055C34.7187 27.9861 34.2777 28.2361 33.4168 28.301C32.5085 28.2395 31.9876 27.988 31.37 27.3202C30.8788 26.5925 30.7958 25.8768 30.9116 25.0175C31.5977 23.6452 32.6496 23.0425 34.1524 23.3118ZM32.1056 25.0175C31.8926 25.5984 31.8926 25.5984 31.935 26.2115C32.2603 26.8101 32.4725 27.0151 33.1183 27.235C33.7435 27.235 34.0041 27.1039 34.4935 26.7232C34.8908 26.2327 34.8908 26.2327 34.824 25.6252C34.7111 25.0033 34.7111 25.0033 34.2803 24.6017C33.3689 24.0839 32.8111 24.2532 32.1056 25.0175Z" fill="white"/>
</svg>
