<svg width="42" height="39" viewBox="0 0 42 39" fill="none" xmlns="http://www.w3.org/2000/svg">
<ellipse cx="15.2286" cy="15" rx="15.2286" ry="15" fill="#3E82DA"/>
<path d="M31.4044 16.174C31.4514 16.2141 31.4985 16.2543 31.5469 16.2957C32.975 17.5441 33.8932 19.3115 34.0586 21.2069C34.1878 23.1765 33.5988 24.7117 32.6262 26.3788C32.3405 26.8712 32.101 27.3589 31.9142 27.8986C31.8998 27.9397 31.8854 27.9808 31.8706 28.0232C31.4911 29.1325 31.3031 30.3116 31.2812 31.4831C31.2798 31.5552 31.2785 31.6273 31.2771 31.7016C31.2746 31.8498 31.2729 31.9981 31.2718 32.1463C31.2607 32.654 31.2048 33.0687 30.8986 33.4845C30.3904 33.9591 30.3904 33.9591 30.1017 33.9591C30.1043 34.0302 30.1069 34.1014 30.1096 34.1746C30.1271 34.8358 30.1305 35.3472 29.6556 35.8531C29.46 36.0337 29.2483 36.2248 28.9689 36.2248C28.9702 36.2754 28.9715 36.3261 28.9729 36.3783C28.9827 37.0414 28.9668 37.5754 28.5157 38.0939C28.1191 38.4564 27.7804 38.5647 27.2513 38.568C27.2002 38.5686 27.1492 38.5691 27.0966 38.5696C26.9886 38.5704 26.8807 38.5709 26.7728 38.5711C26.6092 38.5718 26.4457 38.5746 26.2821 38.5774C25.6794 38.5828 25.1779 38.586 24.7146 38.1518C24.2887 37.7097 24.1999 37.2293 24.2075 36.6283C24.2078 36.5893 24.208 36.5503 24.2083 36.5102C24.209 36.415 24.21 36.3199 24.2111 36.2248C24.1597 36.2097 24.1084 36.1947 24.0555 36.1792C23.6303 36.023 23.3282 35.6642 23.1349 35.2619C23.0853 35.0967 23.0715 34.9499 23.0727 34.7778C23.073 34.706 23.073 34.706 23.0733 34.6328C23.074 34.5587 23.074 34.5587 23.0747 34.4831C23.075 34.4328 23.0752 34.3824 23.0755 34.3306C23.0761 34.2068 23.0771 34.083 23.0782 33.9591C23.0269 33.9441 22.9756 33.9291 22.9227 33.9136C22.4975 33.7574 22.1953 33.3986 22.0021 32.9962C21.9422 32.8049 21.9367 32.6255 21.9335 32.4256C21.9313 32.3226 21.9313 32.3226 21.929 32.2175C21.9274 32.1439 21.9258 32.0703 21.9242 31.9944C21.8662 29.808 21.4256 27.9199 20.3481 26.0174C19.261 24.0974 18.7695 22.1401 19.3437 19.9552C19.9053 17.9817 21.1862 16.3448 22.9685 15.3299C25.6367 13.8737 29.0978 14.1692 31.4044 16.174ZM25.1987 15.5297C25.1324 15.5448 25.1324 15.5448 25.0648 15.5602C23.4766 15.9407 22.0032 16.9599 21.1165 18.3398C20.1933 19.8488 19.8089 21.6318 20.2189 23.372C20.4403 24.2512 20.9084 25.0384 21.355 25.8201C22.2554 27.3964 22.6278 28.9964 22.8517 30.7873C23.9358 30.7873 25.0199 30.7873 26.1368 30.7873C26.1368 29.8153 26.1368 28.8433 26.1368 27.8419C25.9686 27.8233 25.8004 27.8046 25.6271 27.7853C25.437 27.5953 25.428 27.5143 25.3651 27.2614C25.2733 27.0079 25.1895 26.8688 24.9553 26.7405C24.566 26.5629 24.2449 26.435 23.8146 26.5392C23.7597 26.5684 23.7048 26.5976 23.6482 26.6277C23.428 26.7311 23.2555 26.7799 23.0216 26.7091C22.8102 26.5615 22.6353 26.3832 22.4552 26.1994C22.4031 26.1485 22.3509 26.0977 22.2972 26.0454C21.7879 25.5463 21.7879 25.5463 21.7507 25.2967C21.7516 25.0819 21.8396 24.9476 21.9419 24.7621C22.049 24.526 22.0718 24.379 21.9972 24.1349C21.7772 23.5502 21.7772 23.5502 21.2936 23.1879C21.2447 23.1688 21.1958 23.1498 21.1454 23.1302C21.0716 23.1009 21.0716 23.1009 20.9963 23.0711C20.8738 23.0214 20.8738 23.0214 20.756 23.0275C20.6896 22.8285 20.6891 22.6473 20.6878 22.4401C20.6875 22.3994 20.6872 22.3586 20.6869 22.3167C20.6863 22.2307 20.6859 22.1446 20.6857 22.0586C20.6852 21.9272 20.6834 21.7959 20.6816 21.6645C20.6813 21.5808 20.681 21.4971 20.6808 21.4135C20.6801 21.3743 20.6794 21.3351 20.6786 21.2947C20.6794 21.1222 20.6904 21.0044 20.775 20.8523C20.9103 20.7224 21.0507 20.6979 21.2303 20.6486C21.4565 20.5677 21.5749 20.5239 21.7109 20.3233C21.7807 20.1505 21.8352 19.9774 21.8888 19.799C21.928 19.7323 21.9679 19.6661 22.0092 19.6007C22.0801 19.3169 21.9713 19.1461 21.8434 18.8907C21.768 18.7041 21.7523 18.5823 21.7755 18.383C21.8344 18.2785 21.8344 18.2785 21.9242 18.1847C21.9596 18.1473 21.995 18.1098 22.0315 18.0712C22.0779 18.0246 22.1242 17.9779 22.172 17.9298C22.2383 17.8621 22.3046 17.7943 22.3709 17.7265C22.5115 17.5838 22.6524 17.4413 22.7944 17.2999C22.8245 17.2699 22.8546 17.2398 22.8856 17.2089C23.0053 17.1002 23.0726 17.0807 23.2358 17.0674C23.4895 17.0852 23.6632 17.1928 23.8836 17.3125C24.0916 17.3797 24.1815 17.3327 24.381 17.2501C24.4418 17.2333 24.5026 17.2164 24.5653 17.199C24.9443 17.0855 24.9443 17.0855 25.222 16.8198C25.2958 16.6584 25.2958 16.6584 25.3479 16.4979C25.4051 16.3303 25.4628 16.2018 25.5704 16.0607C25.7109 16.0083 25.7109 16.0083 25.8643 15.9864C25.9153 15.9784 25.9663 15.9704 26.0189 15.9622C26.0578 15.9573 26.0967 15.9525 26.1368 15.9474C26.1368 15.7792 26.1368 15.611 26.1368 15.4376C25.8092 15.428 25.5178 15.4566 25.1987 15.5297ZM27.0431 15.4376C27.0431 16.6713 27.0431 17.9049 27.0431 19.1759C27.1179 19.1759 27.1926 19.1759 27.2696 19.1759C27.2708 19.1397 27.2719 19.1034 27.2731 19.066C27.2785 18.9009 27.2847 18.7357 27.2909 18.5706C27.2935 18.485 27.2935 18.485 27.2962 18.3977C27.2984 18.3424 27.3006 18.2871 27.3028 18.2301C27.3046 18.1794 27.3064 18.1286 27.3082 18.0764C27.3282 17.9142 27.3658 17.7924 27.4396 17.6466C27.6255 17.5227 27.676 17.5206 27.8907 17.5238C27.9727 17.5232 27.9727 17.5232 28.0563 17.5226C28.1712 17.5227 28.2861 17.5239 28.401 17.5262C28.5613 17.5239 28.7007 17.5185 28.8556 17.4767C28.9749 17.353 29.0136 17.2426 29.0821 17.0802C29.185 16.9815 29.185 16.9815 29.2839 16.9174C29.3331 16.8843 29.3331 16.8843 29.3833 16.8506C29.6007 16.7285 29.8112 16.7242 30.0557 16.7085C30.1277 16.7038 30.1998 16.699 30.274 16.6941C30.3293 16.6907 30.3846 16.6873 30.4415 16.6837C29.5034 15.9165 28.2551 15.4376 27.0431 15.4376ZM26.0802 17.1369C26.0722 17.1732 26.0643 17.2094 26.0561 17.2468C25.9795 17.4733 25.9015 17.6457 25.6843 17.7654C25.4558 17.8622 25.2219 17.9372 24.985 18.0108C24.8096 18.0654 24.6583 18.1285 24.5005 18.2223C24.2833 18.3505 24.1768 18.3607 23.9279 18.3263C23.7938 18.2694 23.6657 18.2078 23.5378 18.1383C23.4187 18.087 23.4187 18.087 23.303 18.138C23.1064 18.2703 22.9388 18.4204 22.795 18.6095C22.7854 18.8015 22.8602 18.9115 22.9402 19.0874C23.0254 19.2986 23.0422 19.4049 23.0216 19.6291C22.9428 19.8118 22.9428 19.8118 22.8375 20.0043C22.6967 20.2651 22.5964 20.5046 22.5225 20.7937C22.463 20.9887 22.4297 21.0778 22.2669 21.2028C22.1239 21.2744 21.9827 21.3314 21.8321 21.3849C21.72 21.441 21.72 21.441 21.6056 21.4982C21.6056 21.7786 21.6056 22.0589 21.6056 22.3478C21.7177 22.3712 21.8299 22.3945 21.9454 22.4186C22.2311 22.5252 22.3511 22.6098 22.4837 22.8861C22.5837 23.1285 22.6659 23.3761 22.7457 23.6257C22.8076 23.799 22.889 23.9563 22.9792 24.1163C23.1166 24.4426 22.9094 24.8691 22.795 25.1798C22.873 25.267 22.9523 25.3529 23.0322 25.4383C23.0762 25.4862 23.1203 25.5342 23.1656 25.5836C23.2949 25.7056 23.2949 25.7056 23.4495 25.6827C23.6092 25.6253 23.7639 25.562 23.9188 25.4927C24.2348 25.4161 24.5112 25.5691 24.7881 25.7073C25.05 25.8363 25.2987 25.9399 25.5811 26.0188C25.7683 26.0815 25.8353 26.1138 25.9421 26.2823C25.9993 26.4238 26.0448 26.5608 26.0802 26.7091C26.0989 26.7091 26.1176 26.7091 26.1368 26.7091C26.1368 26.1297 26.1368 25.5503 26.1368 24.9533C25.9686 24.8972 25.8004 24.8411 25.6271 24.7833C25.2042 24.6416 24.8871 24.4537 24.5509 24.1603C24.5166 24.1333 24.4823 24.1063 24.4469 24.0784C24.0276 23.7161 23.6848 23.0343 23.598 22.487C23.5258 21.4786 23.6616 20.6389 24.335 19.8415C24.8575 19.2937 25.4258 19.0933 26.1368 18.8927C26.1368 18.3133 26.1368 17.7339 26.1368 17.1369C26.1181 17.1369 26.0995 17.1369 26.0802 17.1369ZM31.2911 17.4767C31.2944 17.5274 31.2977 17.5781 31.3011 17.6303C31.3183 18.0926 31.3038 18.4637 31.0079 18.8361C30.7041 19.1048 30.4346 19.211 30.0344 19.2503C29.6475 19.2186 29.3125 19.1028 29.0538 18.8042C28.9631 18.6858 28.8818 18.5639 28.7989 18.4396C28.6609 18.419 28.6609 18.419 28.5087 18.429C28.4175 18.4325 28.3264 18.436 28.2325 18.4396C28.2325 18.6826 28.2325 18.9256 28.2325 19.1759C28.3295 19.1899 28.4265 19.204 28.5264 19.2184C28.7872 19.266 28.9549 19.3141 29.1388 19.5158C29.2691 19.7178 29.2695 19.899 29.2755 20.1362C29.2766 20.1736 29.2777 20.211 29.2788 20.2495C29.2822 20.3683 29.2849 20.4872 29.2875 20.6061C29.2896 20.6869 29.2918 20.7678 29.2941 20.8486C29.2995 21.0462 29.3043 21.2439 29.3087 21.4416C29.3994 21.4467 29.4901 21.4504 29.5809 21.4535C29.6566 21.4568 29.6566 21.4568 29.7339 21.4602C29.8798 21.4542 29.8798 21.4542 29.978 21.3519C30.1187 21.1599 30.1187 21.1599 30.1583 20.9318C30.5823 20.7021 30.9886 20.5594 31.4708 20.6791C31.8928 20.8235 32.1164 21.0461 32.3107 21.4416C32.4287 21.8349 32.3757 22.1823 32.2164 22.5533C32.0449 22.8577 31.7889 23.0329 31.4611 23.1408C31.0396 23.1914 30.622 23.1739 30.2716 22.9142C30.1699 22.7829 30.0811 22.6526 29.9992 22.508C29.7964 22.3388 29.5624 22.3861 29.3087 22.4044C29.3082 22.4524 29.3077 22.5004 29.3071 22.5498C29.3046 22.7291 29.3011 22.9083 29.297 23.0876C29.2954 23.1649 29.2942 23.2422 29.2934 23.3196C29.2921 23.4313 29.2894 23.5429 29.2866 23.6545C29.2854 23.7216 29.2842 23.7886 29.283 23.8577C29.2382 24.1321 29.1143 24.3133 28.9016 24.4895C28.6783 24.5838 28.4741 24.5954 28.2325 24.6134C28.2325 24.8564 28.2325 25.0994 28.2325 25.3498C28.5471 25.3813 28.5471 25.3813 28.8556 25.3498C28.9577 25.2449 29.0083 25.1437 29.0718 25.0123C29.1833 24.8199 29.3375 24.7633 29.5353 24.6701C29.5727 24.6514 29.61 24.6327 29.6486 24.6134C30.1111 24.5735 30.4409 24.5973 30.838 24.84C30.8941 24.8587 30.9502 24.8774 31.0079 24.8966C31.0646 24.9851 31.0646 24.9851 31.1212 25.1232C31.1516 25.191 31.182 25.2587 31.2133 25.3285C31.3549 25.7228 31.3446 26.0667 31.1672 26.4472C30.9776 26.7857 30.754 26.9511 30.3909 27.0751C30.0267 27.1683 29.695 27.1124 29.3654 26.9357C29.1663 26.7972 28.9994 26.676 28.9116 26.4454C28.8134 26.3018 28.8134 26.3018 28.6715 26.2874C28.5059 26.278 28.3418 26.276 28.1759 26.2772C28.0626 26.2772 27.9493 26.2765 27.8361 26.275C27.7858 26.2754 27.7356 26.2757 27.6838 26.276C27.5252 26.2518 27.4781 26.213 27.3829 26.0861C27.3266 25.9171 27.3152 25.7915 27.3084 25.6146C27.306 25.5564 27.3036 25.4981 27.3012 25.4381C27.299 25.3774 27.2967 25.3167 27.2944 25.2542C27.292 25.1928 27.2895 25.1314 27.287 25.0682C27.281 24.9166 27.2752 24.765 27.2696 24.6134C27.1949 24.6134 27.1201 24.6134 27.0431 24.6134C27.0431 26.6508 27.0431 28.6882 27.0431 30.7873C28.1272 30.7873 29.2113 30.7873 30.3282 30.7873C30.403 30.2639 30.4778 29.7405 30.5548 29.2013C30.8691 27.6734 31.4793 26.3801 32.2469 25.0312C33.0992 23.5289 33.3367 21.918 32.9005 20.2375C32.6362 19.2894 32.1404 18.048 31.2911 17.4767ZM29.7654 17.7068C29.6674 17.8854 29.7132 18.0219 29.7618 18.213C29.9175 18.342 29.9175 18.342 30.0734 18.3157C30.2293 18.265 30.2982 18.2395 30.3849 18.0998C30.3722 17.8932 30.3631 17.7948 30.215 17.6466C30.0395 17.628 29.9219 17.621 29.7654 17.7068ZM25.6943 20.0114C25.6356 20.0403 25.5768 20.0692 25.5162 20.099C24.9999 20.388 24.7178 20.8336 24.5336 21.3876C24.4079 21.9215 24.47 22.4281 24.7208 22.9142C25.0242 23.4003 25.4262 23.7429 25.9669 23.9337C26.023 23.9337 26.0791 23.9337 26.1368 23.9337C26.1368 22.588 26.1368 21.2422 26.1368 19.8556C25.9658 19.8556 25.8465 19.9356 25.6943 20.0114ZM27.0431 20.1388C27.0431 21.2977 27.0431 22.4566 27.0431 23.6505C27.473 23.6505 27.9029 23.6505 28.3458 23.6505C28.3458 22.4917 28.3458 21.3328 28.3458 20.1388C27.9159 20.1388 27.486 20.1388 27.0431 20.1388ZM30.8805 21.6186C30.7653 21.7217 30.7653 21.7217 30.7566 21.8947C30.7706 22.0601 30.7706 22.0601 30.8415 22.1743C31.0201 22.2723 31.1566 22.2265 31.3478 22.1779C31.4767 22.0222 31.4767 22.0222 31.4504 21.8664C31.4007 21.7132 31.3656 21.6471 31.2345 21.5548C31.018 21.5379 31.018 21.5379 30.8805 21.6186ZM29.7654 25.5799C29.6674 25.7585 29.7132 25.8949 29.7618 26.0861C29.9175 26.215 29.9175 26.215 30.0734 26.1887C30.2293 26.1381 30.2982 26.1125 30.3849 25.9728C30.3722 25.7662 30.3631 25.6679 30.215 25.5197C30.0395 25.501 29.9219 25.494 29.7654 25.5799ZM22.9083 31.7501C22.8298 32.55 22.8298 32.55 23.1349 32.9396C23.2996 33.0542 23.4334 33.0672 23.6315 33.068C23.7128 33.0688 23.7128 33.0688 23.7956 33.0695C23.8842 33.0694 23.8842 33.0694 23.9745 33.0693C24.037 33.0697 24.0994 33.0701 24.1638 33.0705C24.3706 33.0716 24.5773 33.0718 24.7841 33.0719C24.9277 33.0723 25.0714 33.0727 25.215 33.0731C25.5162 33.0737 25.8174 33.0739 26.1186 33.0739C26.4664 33.0738 26.8141 33.075 27.1618 33.0768C27.4968 33.0785 27.8317 33.0789 28.1667 33.0788C28.309 33.0789 28.4513 33.0794 28.5937 33.0803C28.7927 33.0814 28.9917 33.0811 29.1908 33.0804C29.279 33.0814 29.279 33.0814 29.3689 33.0823C29.6965 33.0795 29.9054 33.0571 30.1583 32.8263C30.3349 32.5153 30.3349 32.5153 30.2716 31.7501C27.8417 31.7501 25.4118 31.7501 22.9083 31.7501ZM24.0411 34.0158C23.9626 34.8156 23.9626 34.8156 24.2677 35.2052C24.4699 35.34 24.6141 35.3353 24.8476 35.335C24.8891 35.3353 24.9307 35.3357 24.9735 35.3361C25.111 35.3372 25.2484 35.3374 25.3859 35.3375C25.4815 35.3379 25.5771 35.3383 25.6727 35.3387C25.8731 35.3394 26.0736 35.3396 26.274 35.3395C26.5307 35.3395 26.7874 35.341 27.0441 35.343C27.2415 35.3442 27.439 35.3445 27.6365 35.3444C27.7311 35.3445 27.8257 35.345 27.9203 35.3459C28.0528 35.347 28.1852 35.3467 28.3177 35.346C28.3761 35.347 28.3761 35.347 28.4358 35.348C28.6296 35.3454 28.7378 35.3213 28.9034 35.2177C29.268 34.8423 29.1388 34.6136 29.1388 34.0158C27.4566 34.0158 25.7743 34.0158 24.0411 34.0158ZM25.1739 36.2814C25.1441 36.877 25.1441 36.877 25.3439 37.3576C25.7053 37.7097 26.1014 37.6528 26.5793 37.6549C26.6782 37.6567 26.6782 37.6567 26.779 37.6585C27.1372 37.6601 27.4098 37.6522 27.7228 37.4708C28.0814 37.1028 28.006 36.8187 28.006 36.2814C27.0714 36.2814 26.1368 36.2814 25.1739 36.2814Z" fill="white"/>
<path d="M16.3379 16.5702C16.5064 16.6448 16.6599 16.7378 16.8158 16.8357C16.8577 16.8612 16.8997 16.8868 16.9429 16.9131C17.729 17.3949 17.729 17.3949 17.9238 17.5897C17.9621 17.9854 17.9621 17.9854 17.8318 18.1809C17.6675 18.289 17.5529 18.31 17.3574 18.326C17.2238 18.2771 17.2238 18.2771 17.0884 18.1951C16.8852 18.0749 16.6821 17.9574 16.4733 17.8473C16.4276 17.8229 16.382 17.7985 16.335 17.7734C16.2438 17.7248 16.1524 17.6766 16.0607 17.6289C15.8204 17.4985 15.6513 17.4016 15.5449 17.1366C15.5449 16.8988 15.5663 16.7828 15.7184 16.5985C15.9379 16.4864 16.1064 16.5108 16.3379 16.5702Z" fill="white"/>
<path d="M35.9351 27.8986C36.1117 27.9721 36.1117 27.9721 36.288 28.0745C36.3521 28.1116 36.4163 28.1486 36.4824 28.1868C36.5152 28.2063 36.548 28.2259 36.5818 28.246C36.6818 28.3056 36.7827 28.3635 36.8837 28.4213C37.4408 28.7474 37.4408 28.7474 37.6343 29.0314C37.6662 29.2013 37.6662 29.2013 37.6343 29.3713C37.5175 29.5341 37.5175 29.5341 37.3511 29.6545C36.9664 29.7113 36.7162 29.551 36.3953 29.3642C36.3473 29.3373 36.2994 29.3104 36.25 29.2828C35.3538 28.775 35.3538 28.775 35.2554 28.5783C35.2276 28.3328 35.2284 28.2203 35.3722 28.0154C35.5822 27.868 35.6821 27.8766 35.9351 27.8986Z" fill="white"/>
<path d="M17.6403 27.8986C17.8494 28.0455 17.9138 28.1275 17.9589 28.3801C17.9156 28.6221 17.8278 28.7161 17.6403 28.8615C17.4244 28.9979 17.2021 29.1211 16.9783 29.2438C16.9184 29.2772 16.8585 29.3106 16.7967 29.345C16.1762 29.6899 16.1762 29.6899 15.8278 29.6545C15.6359 29.5157 15.5566 29.4356 15.5127 29.2014C15.5628 28.9344 15.7077 28.7934 15.9257 28.6381C16.261 28.4409 16.261 28.4409 16.3956 28.3639C16.4966 28.3059 16.5965 28.2464 16.6965 28.1868C16.7606 28.1498 16.8248 28.1127 16.8909 28.0745C16.9491 28.0407 17.0072 28.0069 17.0672 27.9721C17.2736 27.8862 17.4187 27.8769 17.6403 27.8986Z" fill="white"/>
<path d="M37.4078 16.5705C37.5494 16.6908 37.5494 16.6908 37.6344 16.8537C37.6344 17.0707 37.6236 17.1969 37.4802 17.3635C37.2388 17.5754 36.9555 17.723 36.6786 17.8838C36.6176 17.9202 36.5567 17.9565 36.4939 17.9939C36.4346 18.0285 36.3754 18.063 36.3144 18.0987C36.2607 18.1302 36.207 18.1616 36.1516 18.1941C35.9258 18.301 35.7396 18.3502 35.4962 18.2839C35.3688 18.2131 35.3688 18.2131 35.2555 18.0431C35.2143 17.7239 35.2143 17.7239 35.2555 17.59C35.5365 17.3085 35.8873 17.1234 36.229 16.9245C36.3137 16.8744 36.3137 16.8744 36.4002 16.8234C37.0014 16.4706 37.0014 16.4706 37.4078 16.5705Z" fill="white"/>
<path d="M32.9338 12.0957C33.0683 12.1878 33.0683 12.1878 33.1603 12.3223C33.1859 12.6197 33.1431 12.7992 32.9968 13.0573C32.9451 13.1493 32.9451 13.1493 32.8923 13.2431C32.8557 13.3061 32.8192 13.369 32.7815 13.4339C32.7461 13.4972 32.7106 13.5606 32.6741 13.6259C32.2513 14.3679 32.2513 14.3679 31.9653 14.4536C31.7803 14.4474 31.6489 14.4287 31.4894 14.333C31.3673 14.1294 31.3587 13.9659 31.4045 13.7383C31.5066 13.5106 31.6289 13.2976 31.7581 13.0843C31.8188 12.984 31.8781 12.8831 31.9371 12.7819C32.4233 11.9603 32.4233 11.9603 32.9338 12.0957Z" fill="white"/>
<path d="M20.7562 12.0955C21.0423 12.399 21.2488 12.7849 21.4571 13.1434C21.488 13.1943 21.5189 13.2452 21.5507 13.2976C21.734 13.6133 21.8223 13.8253 21.7757 14.1912C21.6907 14.3328 21.6907 14.3328 21.5491 14.4178C21.2422 14.4616 21.2422 14.4616 21.096 14.4178C20.7825 14.1338 20.6031 13.7992 20.3986 13.4337C20.3621 13.3707 20.3255 13.3078 20.2879 13.2429C20.2534 13.1816 20.2189 13.1203 20.1833 13.0571C20.1519 13.0016 20.1205 12.9462 20.0881 12.8891C20.0072 12.687 20.0005 12.538 20.0198 12.3221C20.2252 12.0529 20.435 11.9885 20.7562 12.0955Z" fill="white"/>
<path d="M37.3714 22.601C37.417 22.6008 37.4627 22.6006 37.5097 22.6003C37.6061 22.6002 37.7025 22.6006 37.7988 22.6016C37.9461 22.6028 38.0933 22.6016 38.2407 22.6001C38.3344 22.6003 38.4281 22.6006 38.5219 22.601C38.5878 22.6003 38.5878 22.6003 38.6551 22.5996C38.8553 22.6031 38.9717 22.614 39.134 22.7359C39.2478 22.8951 39.2737 23.002 39.2777 23.1975C39.2104 23.3534 39.1554 23.4483 39.0144 23.5442C38.8305 23.6129 38.6538 23.6113 38.4602 23.611C38.4197 23.6113 38.3792 23.6115 38.3374 23.6118C38.252 23.6121 38.1665 23.6121 38.0811 23.6119C37.9508 23.6117 37.8206 23.613 37.6903 23.6144C37.6071 23.6146 37.5239 23.6146 37.4406 23.6146C37.4019 23.6151 37.3632 23.6156 37.3233 23.6161C37.0782 23.6138 36.924 23.5737 36.7289 23.4241C36.6402 23.2468 36.6327 23.0496 36.6722 22.8577C36.8615 22.594 37.0694 22.5978 37.3714 22.601Z" fill="white"/>
<path d="M14.6583 22.601C14.704 22.6008 14.7496 22.6006 14.7967 22.6003C14.893 22.6002 14.9894 22.6006 15.0858 22.6016C15.2331 22.6028 15.3803 22.6016 15.5276 22.6001C15.6214 22.6003 15.7151 22.6006 15.8088 22.601C15.8748 22.6003 15.8748 22.6003 15.9421 22.5996C16.1449 22.6031 16.2591 22.614 16.4224 22.7392C16.5411 22.9034 16.5401 23.0064 16.5306 23.203C16.4962 23.3673 16.4137 23.4401 16.2814 23.5373C16.1136 23.6212 15.9422 23.6044 15.7582 23.6055C15.7175 23.6058 15.6769 23.6061 15.635 23.6065C15.5488 23.607 15.4627 23.6074 15.3766 23.6076C15.2453 23.6081 15.1141 23.6099 14.9828 23.6117C14.899 23.6121 14.8153 23.6123 14.7316 23.6126C14.6925 23.6133 14.6534 23.614 14.6132 23.6147C14.3659 23.6135 14.2135 23.5734 14.0158 23.4241C13.9066 23.2801 13.902 23.2098 13.9096 23.0276C14.0269 22.6253 14.2774 22.597 14.6583 22.601Z" fill="white"/>
<path d="M26.5896 10.4246C26.627 10.424 26.6644 10.4235 26.7029 10.4229C26.8743 10.4684 26.9348 10.5387 27.0427 10.6795C27.0653 10.8444 27.0746 10.9874 27.0728 11.1521C27.0731 11.1978 27.0733 11.2434 27.0735 11.2905C27.0736 11.3868 27.0732 11.4832 27.0723 11.5795C27.0711 11.7269 27.0723 11.8741 27.0737 12.0214C27.0736 12.1151 27.0733 12.2089 27.0728 12.3026C27.0733 12.3466 27.0738 12.3905 27.0742 12.4358C27.0707 12.6374 27.0602 12.7524 26.936 12.9147C26.7919 13.0194 26.7116 13.0542 26.533 13.0584C26.2136 12.9294 26.2136 12.9294 26.1365 12.7752C26.1288 12.6209 26.1245 12.4681 26.123 12.3137C26.1225 12.2679 26.1221 12.222 26.1216 12.1748C26.1208 12.0778 26.1202 11.9808 26.1198 11.8837C26.1188 11.7354 26.1163 11.5871 26.1138 11.4388C26.1132 11.3446 26.1128 11.2503 26.1124 11.1561C26.1114 11.1118 26.1104 11.0674 26.1094 11.0218C26.1102 10.8175 26.1185 10.7032 26.2442 10.5383C26.3728 10.4459 26.4331 10.4222 26.5896 10.4246Z" fill="white"/>
</svg>
