<svg width="41" height="38" viewBox="0 0 41 38" fill="none" xmlns="http://www.w3.org/2000/svg">
<ellipse cx="15.2286" cy="15" rx="15.2286" ry="15" fill="#3E82DA"/>
<g clip-path="url(#clip0_183_240)">
<path d="M25.0212 15.5701C25.1059 15.5698 25.1906 15.5695 25.2778 15.5691C25.4568 15.5687 25.6357 15.5694 25.8147 15.5709C26.0436 15.5727 26.2724 15.5717 26.5013 15.5697C26.7203 15.5683 26.9393 15.5693 27.1583 15.5701C27.2403 15.5694 27.3223 15.5688 27.4067 15.5681C27.9682 15.5756 27.9682 15.5756 28.2387 15.7529C28.3641 15.9628 28.3855 16.0767 28.3793 16.3198C28.3782 16.3916 28.3772 16.4633 28.3761 16.5372C28.3734 16.6114 28.3707 16.6856 28.3679 16.7621C28.3658 16.8753 28.3658 16.8753 28.3635 16.9908C28.3597 17.1768 28.3544 17.3625 28.3478 17.5484C28.3932 17.56 28.4386 17.5717 28.4854 17.5837C28.8551 17.6809 29.2086 17.7874 29.5575 17.9436C29.6009 17.9629 29.6442 17.9823 29.689 18.0022C30.5169 18.3816 31.2279 18.8674 31.8962 19.4839C31.958 19.5404 32.0198 19.5968 32.0834 19.655C33.6001 21.1036 34.5146 23.182 34.5692 25.2726C34.5861 26.2013 34.5454 27.1034 34.2833 28C34.2702 28.0451 34.257 28.0901 34.2435 28.1366C34.0152 28.8934 34.0152 28.8934 33.7026 29.1613C33.5049 29.2602 33.3403 29.2406 33.122 29.2258C32.9399 29.1449 32.834 29.0785 32.7147 28.9194C32.5977 28.5363 32.6955 28.1881 32.8236 27.8226C33.2838 26.4954 33.2902 24.9511 32.8639 23.6129C32.8405 23.5394 32.8172 23.4659 32.7931 23.3901C32.4599 22.455 31.9619 21.6515 31.3155 20.9032C31.2739 20.855 31.2324 20.8068 31.1895 20.7571C30.2599 19.7628 29.051 19.2092 27.7671 18.8387C27.2237 18.6705 27.2237 18.6705 27.0575 18.3871C27.0355 18.2216 27.0355 18.2216 27.0386 18.0373C27.039 17.9777 27.0395 17.9181 27.04 17.8567C27.0418 17.7816 27.0435 17.7065 27.0454 17.6291C27.0494 17.3895 27.0533 17.15 27.0575 16.9032C26.4187 16.9032 25.78 16.9032 25.122 16.9032C25.1321 17.3771 25.1321 17.3771 25.1452 17.8509C25.1482 18.1211 25.1467 18.3316 25.0358 18.5804C24.77 18.7804 24.4776 18.8619 24.1623 18.9597C23.2378 19.2649 22.4612 19.6337 21.7026 20.2581C21.6469 20.3039 21.5912 20.3497 21.5338 20.3969C20.5339 21.2582 19.8518 22.3631 19.4446 23.6129C19.4242 23.6754 19.4242 23.6754 19.4034 23.7391C19.0123 25.0085 19.0439 26.4797 19.4446 27.742C19.4648 27.8077 19.4648 27.8077 19.4854 27.8747C20.0477 29.6544 21.326 31.0698 22.969 31.9317C24.6244 32.7637 26.5169 32.9437 28.2835 32.3606C28.5861 32.264 28.8048 32.246 29.122 32.3226C29.3276 32.4582 29.425 32.5548 29.4778 32.7987C29.4985 33.1134 29.4985 33.1134 29.4446 33.2903C29.1712 33.5754 28.9097 33.6864 28.5333 33.7863C28.4892 33.7992 28.4451 33.812 28.3997 33.8253C27.6671 34.0306 26.9456 34.0911 26.1865 34.0887C26.1412 34.0887 26.0959 34.0886 26.0493 34.0886C23.7877 34.0793 21.8567 33.2205 20.2187 31.6774C20.1759 31.6388 20.1331 31.6001 20.089 31.5603C18.9951 30.533 18.3649 29.1625 17.9607 27.742C17.9373 27.6618 17.9139 27.5816 17.8899 27.499C17.3986 25.4242 17.8418 23.0838 18.9246 21.2704C19.2739 20.7129 19.7043 20.2195 20.1542 19.742C20.1929 19.6991 20.2316 19.6563 20.2714 19.6122C21.1577 18.6685 22.396 17.963 23.6381 17.6129C23.702 17.6129 23.7658 17.6129 23.8316 17.6129C23.83 17.5638 23.8283 17.5147 23.8265 17.4641C23.8198 17.2408 23.8156 17.0177 23.8115 16.7944C23.8088 16.7171 23.8061 16.6398 23.8033 16.5601C23.8023 16.4855 23.8012 16.4108 23.8001 16.3339C23.7985 16.2654 23.7968 16.1968 23.795 16.1261C23.8316 15.9355 23.8316 15.9355 23.9407 15.752C24.2813 15.5301 24.6233 15.5669 25.0212 15.5701Z" fill="white"/>
<path d="M27.0578 10.4113C27.2876 10.425 27.3792 10.4509 27.582 10.5725C27.7563 10.863 27.7712 11.0891 27.703 11.4193C27.5935 11.6692 27.4627 11.8993 27.3159 12.129C27.381 12.1338 27.4461 12.1386 27.5132 12.1436C30.6051 12.4102 33.4145 13.8066 35.6385 15.9355C35.6706 15.9658 35.7027 15.9961 35.7357 16.0274C37.9951 18.1713 39.6238 21.4657 39.7144 24.6043C39.7161 24.7058 39.7174 24.8074 39.7184 24.909C39.719 24.964 39.7196 25.0191 39.7203 25.0758C39.7314 26.2877 39.7278 27.4598 39.4449 28.6451C39.4294 28.7114 39.4138 28.7778 39.3978 28.8461C39.1645 29.8103 38.8417 30.7189 38.4127 31.6129C38.3775 31.6862 38.3775 31.6862 38.3416 31.761C37.7504 32.9718 36.9518 34.0557 36.0256 35.0322C35.9667 35.0948 35.9667 35.0948 35.9066 35.1587C35.7164 35.3429 35.577 35.4435 35.3078 35.4596C35.0354 35.4157 34.9254 35.3571 34.7353 35.1613C34.6202 34.931 34.6237 34.7019 34.6707 34.4516C34.7916 34.2525 34.959 34.1002 35.1224 33.9355C35.6582 33.3505 36.125 32.7391 36.5417 32.0645C36.5661 32.0258 36.5904 31.9871 36.6155 31.9473C37.7763 30.0835 38.3132 27.899 38.3078 25.7177C38.3078 25.664 38.3078 25.6103 38.3077 25.5549C38.3036 24.1825 38.0882 22.9108 37.6385 21.6129C37.6168 21.5498 37.6168 21.5498 37.5947 21.4854C36.809 19.2497 35.2849 17.2662 33.3804 15.8709C33.3439 15.8441 33.3073 15.8173 33.2697 15.7896C31.5358 14.5348 29.5535 13.8384 27.4449 13.5484C27.4875 13.6096 27.5301 13.6708 27.574 13.7338C27.742 14.0301 27.7654 14.3122 27.703 14.6451C27.582 14.8467 27.582 14.8467 27.3804 14.9677C27.1562 15.0118 26.9569 15.0266 26.7353 14.9677C26.3752 14.6913 26.1687 14.2761 25.9409 13.8911C25.8993 13.8241 25.8577 13.7571 25.8148 13.6881C25.5702 13.2754 25.3901 12.9336 25.5095 12.4516C25.6301 12.1511 25.7809 11.8738 25.9409 11.5927C25.9813 11.5183 26.0217 11.4439 26.0633 11.3673C26.5965 10.4041 26.5965 10.4041 27.0578 10.4113Z" fill="white"/>
<path d="M29.6789 20.9662C30.9201 21.9285 31.6899 23.2315 31.9605 24.7741C31.9883 25.0677 31.9944 25.3583 31.9928 25.6531C31.9921 25.7711 31.9921 25.7711 31.9915 25.8915C31.9644 27.2464 31.5081 28.4671 30.6057 29.4838C30.5716 29.527 30.5375 29.5703 30.5023 29.6148C29.6798 30.6359 28.3456 31.3103 27.0573 31.4838C25.4665 31.621 23.9204 31.3902 22.6379 30.383C22.5406 30.2989 22.4438 30.2143 22.3476 30.1289C22.3044 30.0948 22.2611 30.0607 22.2166 30.0256C21.1955 29.2031 20.5211 27.8689 20.3476 26.5805C20.2104 24.9897 20.4411 23.4437 21.4484 22.1612C21.5324 22.0639 21.6171 21.967 21.7024 21.8709C21.7365 21.8276 21.7706 21.7844 21.8058 21.7398C23.6769 19.4171 27.3699 19.2549 29.6789 20.9662ZM22.9928 22.516C22.9523 22.551 22.9119 22.5859 22.8703 22.6219C22.2076 23.2156 21.7573 24.24 21.691 25.1192C21.6584 26.4099 21.8094 27.5315 22.7024 28.5402C22.7987 28.6402 22.8954 28.7397 22.9928 28.8386C23.0276 28.8789 23.0625 28.9191 23.0984 28.9606C23.8363 29.7859 25.0113 30.1247 26.081 30.1899C27.1343 30.2169 28.2094 29.8376 29.0008 29.1451C29.1067 29.044 29.2116 28.9419 29.3153 28.8386C29.3652 28.791 29.4151 28.7433 29.4666 28.6942C30.2868 27.8585 30.6702 26.7069 30.6702 25.5483C30.58 24.282 30.0792 23.1981 29.1709 22.3104C27.3362 20.7316 24.715 20.847 22.9928 22.516Z" fill="white"/>
<path d="M21.703 13.032C21.8808 13.1728 21.9892 13.2818 22.0901 13.4836C22.1171 13.7209 22.1016 13.8482 21.9924 14.0625C21.7896 14.3096 21.6043 14.3832 21.3119 14.4957C20.0455 15.0232 18.9042 15.7753 17.9039 16.7135C17.7676 16.8385 17.7676 16.8385 17.6017 16.9695C17.3679 17.159 17.1871 17.3834 16.9934 17.6127C16.9447 17.6678 16.8961 17.7229 16.8459 17.7798C14.9581 19.9608 13.9943 22.7741 14.0014 25.6409C14.0015 25.6945 14.0015 25.7481 14.0015 25.8033C14.0042 26.7068 14.0722 27.5701 14.2837 28.4514C14.2968 28.508 14.31 28.5646 14.3235 28.623C14.8314 30.7517 15.932 32.6279 17.445 34.1933C17.5304 34.2838 17.5304 34.2838 17.6176 34.376C18.2166 34.9958 18.8815 35.4907 19.6088 35.9489C19.8105 36.0955 19.9396 36.2139 19.9891 36.4632C19.9895 36.7271 19.9834 36.8673 19.8401 37.0965C19.6322 37.2923 19.4842 37.3144 19.1979 37.3102C18.9518 37.2748 18.7793 37.1441 18.5821 36.9998C18.5401 36.9704 18.4982 36.941 18.455 36.9107C17.8693 36.4958 17.3225 36.0397 16.7998 35.5482C16.7458 35.4974 16.7458 35.4974 16.6906 35.4456C15.7536 34.5582 14.9936 33.5678 14.3482 32.4514C14.3215 32.4057 14.2948 32.36 14.2674 32.313C13.1083 30.3036 12.5767 28.0239 12.5821 25.7175C12.5821 25.6578 12.5822 25.5982 12.5822 25.5367C12.5852 24.5739 12.6401 23.6492 12.8643 22.7094C12.8799 22.6431 12.8955 22.5768 12.9115 22.5085C13.1448 21.5443 13.4675 20.6357 13.8966 19.7417C13.92 19.6928 13.9435 19.644 13.9677 19.5936C14.5599 18.3805 15.3605 17.3042 16.2837 16.3223C16.3186 16.2849 16.3535 16.2475 16.3894 16.2089C17.4819 15.046 19.9384 12.7472 21.703 13.032Z" fill="white"/>
<path d="M28.6702 22.7099C28.8872 22.8401 28.9647 22.9309 29.0321 23.1748C29.0598 23.4341 29.0364 23.6098 28.894 23.8311C28.6701 24.0846 28.4278 24.3092 28.1747 24.5324C27.7089 24.9299 27.7089 24.9299 27.4504 25.4641C27.4465 25.6168 27.4465 25.7697 27.4509 25.9223C27.4402 26.261 27.2869 26.4713 27.0573 26.7099C26.711 27.0056 26.374 27.0148 25.9252 27.0009C25.4852 26.9357 25.2379 26.7168 24.9565 26.3873C24.7849 26.0282 24.8068 25.6103 24.8637 25.226C25.0028 24.878 25.2295 24.5965 25.57 24.4307C25.7211 24.3811 25.8336 24.3894 25.992 24.3951C26.4954 24.3504 26.7945 23.9344 27.1178 23.5849C27.217 23.4805 27.3166 23.3765 27.4163 23.2726C27.5061 23.1786 27.5948 23.0837 27.6835 22.9887C27.9916 22.6767 28.2486 22.6474 28.6702 22.7099Z" fill="white"/>
</g>
<defs>
<clipPath id="clip0_183_240">
<rect width="28" height="28" fill="white" transform="translate(12.0898 10)"/>
</clipPath>
</defs>
</svg>
