<svg width="31" height="20" viewBox="0 0 31 20" fill="none" xmlns="http://www.w3.org/2000/svg">
<path d="M5.87647 14.666H1.8931L1.49903 16.666C1.49903 16.666 2.4207 16.666 2.71087 16.666H5.73138C5.62761 15.9969 5.67725 15.3127 5.87647 14.666ZM19.9633 1.0394C19.8729 0.921796 19.7568 0.826909 19.6241 0.762149C19.4914 0.697388 19.3457 0.664506 19.1983 0.666069H4.56254L4.28048 1.9994H7.32736C8.5936 1.9994 9.63561 3.05273 9.63561 4.33273C9.63561 5.18606 9.17396 5.91939 8.50127 6.33272C9.17396 6.74605 9.63561 7.47938 9.63561 8.33271C9.63561 9.18605 9.17396 9.91938 8.50127 10.3327C8.91016 10.586 9.23991 10.9594 9.43776 11.4127C10.1048 11.2862 10.7912 11.3098 11.4483 11.4818C12.1053 11.6537 12.7168 11.9699 13.2393 12.4077C13.7618 12.8455 14.1826 13.3943 14.4716 14.0151C14.7606 14.6358 14.9108 15.3133 14.9116 15.9994C14.9116 16.226 14.8984 16.4527 14.8588 16.666H16.2306C16.6922 16.666 17.1011 16.3327 17.1935 15.8794L20.1612 1.8794C20.2271 1.58607 20.1612 1.2794 19.9633 1.0394Z" fill="#D29440"/>
<path d="M7.32736 5.33272C5.55537 5.33272 3.78337 5.33272 2.01137 5.33272L2.40543 3.33273C4.17743 3.33273 5.55537 3.33273 7.32736 3.33273C7.58973 3.33273 7.84135 3.43809 8.02687 3.62562C8.21239 3.81316 8.31661 4.06751 8.31661 4.33273C8.31661 4.59794 8.21239 4.85229 8.02687 5.03983C7.84135 5.22737 7.58973 5.33272 7.32736 5.33272ZM7.32736 9.33271C5.1157 9.33271 3.12159 9.33271 0.909931 9.33271L1.30399 7.33272C3.51565 7.33272 5.1157 7.33272 7.32736 7.33272C7.58973 7.33272 7.84135 7.43807 8.02687 7.62561C8.21239 7.81315 8.31661 8.0675 8.31661 8.33271C8.31661 8.59793 8.21239 8.85228 8.02687 9.03982C7.84135 9.22735 7.58973 9.33271 7.32736 9.33271ZM7.32736 13.3327H0.0728827L0.46694 11.3327C0.729305 11.3327 7.32736 11.3327 7.32736 11.3327C7.58973 11.3327 7.84135 11.4381 8.02687 11.6256C8.21239 11.8131 8.31661 12.0675 8.31661 12.3327C8.31661 12.5979 8.21239 12.8523 8.02687 13.0398C7.84135 13.2273 7.58973 13.3327 7.32736 13.3327ZM24.8041 19.3327C22.9865 19.3327 21.5066 17.838 21.5066 15.9994C21.5066 14.1607 22.9865 12.666 24.8041 12.666C26.6216 12.666 28.1016 14.1607 28.1016 15.9994C28.1016 17.838 26.6216 19.3327 24.8041 19.3327ZM10.2951 19.3327C8.47753 19.3327 6.99761 17.838 6.99761 15.9994C6.99761 14.1607 8.47753 12.666 10.2951 12.666C12.1127 12.666 13.5926 14.1607 13.5926 15.9994C13.5926 17.838 12.1127 19.3327 10.2951 19.3327Z" fill="#D29440"/>
<path d="M24.4743 4.66606H21.6517C21.4249 4.66628 20.8923 4.66606 20.8923 4.66606L18.5652 15.4527C18.4993 15.746 18.5652 16.0527 18.7631 16.2927C18.9477 16.5327 19.2247 16.666 19.5281 16.666H20.1146C20.1146 14.0927 22.2584 11.3327 24.8041 11.3327C27.3497 11.3327 29.4205 13.426 29.4205 15.9994V16.6154L30.7132 11.2127C30.7264 11.146 30.7395 11.066 30.7395 10.9994C30.7395 7.50605 27.9301 4.66606 24.4743 4.66606Z" fill="#D29440"/>
</svg>
