<svg width="24" height="20" viewBox="0 0 24 20" fill="none" xmlns="http://www.w3.org/2000/svg">
<path d="M23.9911 5.83991C23.9698 5.7056 23.9108 5.58028 23.8213 5.47881C23.7317 5.37735 23.6153 5.30397 23.4859 5.26739C19.9303 4.25123 16.2795 5.23912 13.8366 7.87882C14.3757 9.71148 14.4825 11.6668 14.1087 13.5773V15.7932C21.5335 14.5297 20.0505 9.26794 23.6884 6.5437C23.8001 6.46797 23.8879 6.36141 23.9416 6.23667C23.9952 6.11193 24.0124 5.97424 23.9911 5.83991ZM0.600074 0.820412C0.467093 0.840346 0.342546 0.898445 0.241194 0.987824C0.139841 1.0772 0.065932 1.19412 0.0282248 1.32471C-0.0094824 1.4553 -0.00940662 1.59409 0.0284431 1.72464C0.0662929 1.85519 0.14033 1.97202 0.24178 2.06128C4.17158 5.86311 1.29524 12.0962 11.2963 14.126V19.3327H12.7025V13.4332C14.2628 6.22838 7.86931 -0.440904 0.600074 0.820412Z" fill="#D29440"/>
</svg>
