<svg width="56" height="56" viewBox="0 0 56 56" fill="none" xmlns="http://www.w3.org/2000/svg">
<g style="mix-blend-mode:overlay">
<path d="M26.2707 10.7026H14.9475C16.5031 9.69803 20.3865 7.51795 23.4755 6.8345V3.2871C16.5774 4.52273 10.7054 8.59654 7.01633 14.2623H26.2944V17.1574H19.1878V20.5272H36.6937V17.1574H29.6819V14.2623H48.9844C45.2993 8.59808 39.4425 4.52885 32.5482 3.2941V6.8345C35.6372 7.51795 39.5206 9.69803 41.0761 10.7026H29.753V0.00709146C40.6549 0.635744 49.7666 7.55268 53.8105 17.1574H51.2149H39.5838V20.5272H55.0004C55.2778 21.5108 55.451 22.3981 55.6207 23.4224H29.6345V26.6973H55.9702C55.99 27.13 56 27.5653 56 28.0029C56 30.7382 55.6092 33.4529 54.8804 35.9523H53.0152H39.6548V39.4407H50.3179H53.5621L53.6067 39.3671C49.4778 48.6902 40.4242 55.3384 29.753 55.9987V45.587H41.0761C39.5206 46.5917 35.6372 48.7717 32.5482 49.4552V52.699C39.1804 51.487 44.8905 47.6785 48.5894 42.3359H29.6108V39.4407H36.7648V33.0571H52.5551C52.7852 31.9289 52.9398 30.7722 53.0132 29.5924H2.98685C3.06037 30.7712 3.21513 31.928 3.4455 33.0571H19.1404V39.4407H26.2944V42.3359H7.3668C11.0621 47.715 16.7949 51.5059 23.4755 52.7064V49.4552C20.3865 48.7717 16.5031 46.5917 14.9475 45.587H26.2707V53.0513V56C15.4959 55.3514 6.50575 48.8919 2.41606 39.4407H5.6546H16.2504V35.9523H3.41117H1.11961C0.39084 33.4529 0 30.7383 0 28.0029C0 27.5654 0.0100177 27.1303 0.0297959 26.6977H2.32149V26.6973H26.7445V23.4224H0.371986C0.541698 22.3816 0.724645 21.5262 1.00538 20.5272H16.2978V17.1574H4.78511H2.17954C6.21821 7.54028 15.3598 0.629171 26.2707 0V10.7026ZM33.4484 35.9286H22.5516V33.0334H33.4484V35.9286Z" fill="white"/>
</g>
</svg>
