<svg width="24" height="22" viewBox="0 0 24 22" fill="none" xmlns="http://www.w3.org/2000/svg">
<path d="M13.4062 0.333985H16.2188V5.31176H13.4062V0.333985Z" fill="#D29440"/>
<path d="M24 0.333985H17.625V6.73399H12V0.333985L5.67188 0.333984V9.61612C5.90339 9.58184 6.13828 9.56407 6.375 9.56407C7.67091 9.56407 8.91412 10.0907 9.82453 11.0006H12.7031C14.2539 11.0006 15.5156 12.2766 15.5156 13.845C15.5156 15.4135 14.2539 16.6895 12.7031 16.6895H17.625C18.9331 16.6895 20.0355 17.5974 20.3485 18.8228H24C24 12.6599 24 6.49693 24 0.333985Z" fill="#D29440"/>
<path d="M17.625 18.1118H11.2969C9.74358 18.1118 8.48438 16.8383 8.48438 15.2673H12.7031C13.4798 15.2673 14.1094 14.6306 14.1094 13.8451C14.1094 13.0596 13.4798 12.4229 12.7031 12.4229H9.1875C8.86266 11.9774 8.43892 11.6154 7.95041 11.3658C7.4619 11.1163 6.92228 10.9863 6.375 10.9863C5.82772 10.9863 5.2881 11.1163 4.79959 11.3658C4.31108 11.6154 3.88734 11.9774 3.5625 12.4229H2.85938V11.9488C2.85938 11.5561 2.54456 11.2377 2.15625 11.2377C1.4375 11.2377 0.71875 11.2377 0 11.2377V21.6673C0.71875 21.6673 1.4375 21.6673 2.15625 21.6673C2.54456 21.6673 2.85938 21.3489 2.85938 20.9562V19.534H3.5625L7.96875 20.9562H17.625C18.4017 20.9562 19.0312 20.3195 19.0312 19.534C19.0312 18.7485 18.4017 18.1118 17.625 18.1118Z" fill="#D29440"/>
</svg>
