<svg width="60" height="60" viewBox="0 0 60 60" fill="none" xmlns="http://www.w3.org/2000/svg">
<g clip-path="url(#clip0_531_193893)">
<g filter="url(#filter0_f_531_193893)">
<circle cx="30" cy="30" r="12" fill="#D29440" fill-opacity="0.5"/>
</g>
<g style="mix-blend-mode:overlay">
<path d="M28.2707 10.7026H16.9475C18.5031 9.69803 22.3865 7.51795 25.4755 6.8345V3.2871C18.5774 4.52273 12.7054 8.59654 9.01633 14.2623H28.2944V17.1574H21.1878V20.5272H38.6937V17.1574H31.6819V14.2623H50.9844C47.2993 8.59808 41.4425 4.52885 34.5482 3.2941V6.8345C37.6372 7.51795 41.5206 9.69803 43.0761 10.7026H31.753V0.00709146C42.6549 0.635744 51.7666 7.55268 55.8105 17.1574H53.2149H41.5838V20.5272H57.0005C57.2778 21.5108 57.451 22.3981 57.6207 23.4224H31.6345V26.6973H57.9702C57.99 27.13 58 27.5653 58 28.0029C58 30.7382 57.6092 33.4529 56.8804 35.9523H55.0152H41.6548V39.4407H52.3179H55.5621L55.6068 39.3671C51.4778 48.6902 42.4242 55.3384 31.753 55.9987V45.587H43.0761C41.5206 46.5917 37.6372 48.7717 34.5482 49.4552V52.699C41.1804 51.487 46.8905 47.6785 50.5894 42.3359H31.6108V39.4407H38.7648V33.0571H54.5551C54.7852 31.9289 54.9398 30.7722 55.0132 29.5924H4.98685C5.06037 30.7712 5.21513 31.928 5.4455 33.0571H21.1404V39.4407H28.2944V42.3359H9.3668C13.0621 47.715 18.7949 51.5059 25.4755 52.7064V49.4552C22.3865 48.7717 18.5031 46.5917 16.9475 45.587H28.2707V53.0513V56C17.4959 55.3514 8.50575 48.8919 4.41606 39.4407H7.6546H18.2504V35.9523H5.41117H3.11961C2.39084 33.4529 2 30.7383 2 28.0029C2 27.5654 2.01002 27.1303 2.0298 26.6977H4.32149V26.6973H28.7445V23.4224H2.37199C2.5417 22.3816 2.72465 21.5262 3.00538 20.5272H18.2978V17.1574H6.78511H4.17954C8.21821 7.54028 17.3598 0.629171 28.2707 0V10.7026ZM35.4484 35.9286H24.5516V33.0334H35.4484V35.9286Z" fill="white"/>
</g>
</g>
<rect x="1" y="1" width="58" height="58" rx="29" stroke="#D29440" stroke-width="2"/>
<defs>
<filter id="filter0_f_531_193893" x="-12" y="-12" width="84" height="84" filterUnits="userSpaceOnUse" color-interpolation-filters="sRGB">
<feFlood flood-opacity="0" result="BackgroundImageFix"/>
<feBlend mode="normal" in="SourceGraphic" in2="BackgroundImageFix" result="shape"/>
<feGaussianBlur stdDeviation="15" result="effect1_foregroundBlur_531_193893"/>
</filter>
<clipPath id="clip0_531_193893">
<rect width="60" height="60" rx="30" fill="white"/>
</clipPath>
</defs>
</svg>
