<svg width="14" height="14" viewBox="0 0 14 14" fill="none" xmlns="http://www.w3.org/2000/svg">
<path d="M12.6001 6.59961H12.0001C12.0001 9.58195 9.58244 11.9996 6.6001 11.9996V12.5996V13.1996C10.2452 13.1996 13.2001 10.2447 13.2001 6.59961H12.6001ZM6.6001 12.5996V11.9996C3.61776 11.9996 1.2001 9.58195 1.2001 6.59961H0.600098H9.76324e-05C9.76324e-05 10.2447 2.95502 13.1996 6.6001 13.1996V12.5996ZM0.600098 6.59961H1.2001C1.2001 3.61727 3.61776 1.19961 6.6001 1.19961V0.599609V-0.000390649C2.95502 -0.000390649 9.76324e-05 2.95453 9.76324e-05 6.59961H0.600098ZM6.6001 0.599609V1.19961C9.58244 1.19961 12.0001 3.61727 12.0001 6.59961H12.6001H13.2001C13.2001 2.95453 10.2452 -0.000390649 6.6001 -0.000390649V0.599609ZM6.93343 3.59961H6.33343C6.33343 3.45233 6.45282 3.33294 6.6001 3.33294V3.93294V4.53294C7.11556 4.53294 7.53343 4.11508 7.53343 3.59961H6.93343ZM6.6001 3.93294V3.33294C6.74737 3.33294 6.86677 3.45233 6.86677 3.59961H6.26677H5.66676C5.66676 4.11507 6.08463 4.53294 6.6001 4.53294V3.93294ZM6.26677 3.59961H6.86677C6.86677 3.74688 6.74737 3.86628 6.6001 3.86628V3.26628V2.66628C6.08463 2.66628 5.66676 3.08414 5.66676 3.59961H6.26677ZM6.6001 3.26628V3.86628C6.45282 3.86628 6.33343 3.74689 6.33343 3.59961H6.93343H7.53343C7.53343 3.08414 7.11556 2.66628 6.6001 2.66628V3.26628ZM6.6001 9.93294H7.2001V5.26628H6.6001H6.0001V9.93294H6.6001Z" fill="#F4405F"/>
</svg>
