<svg width="32" height="32" viewBox="0 0 32 32" fill="none" xmlns="http://www.w3.org/2000/svg">
<path d="M15.9996 31.9991C15.1393 31.9991 14.2772 31.9305 13.4366 31.7952C9.72566 31.1976 6.32466 29.2901 3.86141 26.4243C1.37144 23.5273 0 19.8253 0 15.9996C0 7.17692 7.17781 0 15.9996 0C24.8213 0 32 7.17781 32 15.9996C32 19.8841 30.5912 23.6298 28.0317 26.5463C25.4972 29.4361 22.0152 31.3178 18.2268 31.8459C17.4939 31.9483 16.7441 32 15.9996 32V31.9991ZM15.9996 1.06776C7.76646 1.06776 1.06866 7.76557 1.06866 15.9987C1.06866 23.3706 6.34158 29.5697 13.6067 30.739C15.0707 30.975 16.6051 30.9919 18.079 30.7862C25.4055 29.7656 30.9305 23.408 30.9305 15.9987C30.9305 7.76557 24.2327 1.06776 15.9987 1.06776H15.9996Z" fill="#FFFCF9"/>
<path d="M22.8802 13.6811C22.7948 12.8304 22.6096 11.8909 21.9288 11.3966C21.4008 11.0134 20.7075 10.9994 20.0604 11C18.692 11.0013 17.3235 11.0026 15.9551 11.0038C14.639 11.0051 13.323 11.0064 12.0069 11.0077C11.457 11.0077 10.9228 10.9643 10.4122 11.2076C9.97327 11.4171 9.63038 11.8149 9.42465 12.2575C9.13787 12.8738 9.0774 13.5712 9.04311 14.2527C8.97952 15.4929 8.98638 16.737 9.06306 17.976C9.11854 18.881 9.26006 19.8804 9.94272 20.4571C10.5481 20.9681 11.4022 20.993 12.1865 20.9936C14.6777 20.9955 17.1689 20.9974 19.6602 21C19.9794 21 20.3129 20.9943 20.6383 20.9579C21.2792 20.887 21.8896 20.6992 22.301 20.2132C22.7162 19.7233 22.8228 19.0406 22.8864 18.395C23.0398 16.829 23.0379 15.2464 22.8802 13.6811ZM14.5144 18.1963V13.8037L18.2281 16L14.5144 18.1963Z" fill="#FFFCF9"/>
</svg>
