<svg width="32" height="32" viewBox="0 0 32 32" fill="none" xmlns="http://www.w3.org/2000/svg">
<path d="M15.9996 31.9991C15.1393 31.9991 14.2772 31.9305 13.4366 31.7952C9.72566 31.1976 6.32466 29.2901 3.86141 26.4243C1.37144 23.5273 0 19.8253 0 15.9996C0 7.17692 7.1778 0 15.9996 0C24.8213 0 32 7.17781 32 15.9996C32 19.8841 30.5912 23.6298 28.0317 26.5463C25.4972 29.4361 22.0152 31.3178 18.2268 31.8459C17.4939 31.9483 16.7441 32 15.9996 32V31.9991ZM15.9996 1.06776C7.76645 1.06776 1.06866 7.76557 1.06866 15.9987C1.06866 23.3706 6.34158 29.5697 13.6067 30.739C15.0707 30.975 16.6051 30.9919 18.079 30.7862C25.4055 29.7656 30.9305 23.408 30.9305 15.9987C30.9305 7.76557 24.2327 1.06776 15.9987 1.06776H15.9996Z" fill="#FFFCF9"/>
<path d="M18.2661 19.6733C15.0524 19.6726 12.4372 17.0575 12.4365 13.8444C12.438 13.0301 13.1001 12.3672 13.9138 12.3672C13.9973 12.3672 14.0802 12.3743 14.1588 12.3886C14.3331 12.4172 14.4981 12.4765 14.6509 12.565C14.6731 12.5779 14.6881 12.5993 14.6917 12.6243L15.031 14.7652C15.0352 14.7902 15.0274 14.8152 15.011 14.8338C14.8231 15.0416 14.5838 15.1909 14.3181 15.2659L14.1902 15.3024L14.2388 15.4266C14.6774 16.5417 15.5688 17.4339 16.6846 17.8725L16.8089 17.9211L16.8446 17.7925C16.9196 17.5261 17.0689 17.2868 17.2768 17.0996C17.2918 17.086 17.3118 17.0782 17.3325 17.0782C17.3368 17.0782 17.3418 17.0782 17.3461 17.0796L19.4862 17.4189C19.5119 17.4232 19.5326 17.4375 19.5462 17.4596C19.6341 17.6125 19.6934 17.7782 19.7227 17.9518C19.7362 18.0297 19.7434 18.1111 19.7434 18.1968C19.7434 19.0104 19.0805 19.6726 18.2661 19.674V19.6733Z" fill="#FFFCF9"/>
<path d="M23.9685 15.2985C23.7949 13.3398 22.8978 11.5232 21.442 10.1839C19.9776 8.83594 18.0768 8.09375 16.0895 8.09375C11.7278 8.09375 8.17904 11.6425 8.17904 16.0042C8.17904 17.4679 8.58263 18.8944 9.34696 20.1366L7.64258 23.9104L13.1015 23.3289C14.0508 23.7175 15.0559 23.9147 16.0895 23.9147C16.3617 23.9147 16.6402 23.9004 16.9195 23.8718C17.166 23.8454 17.4146 23.8068 17.6596 23.7575C21.3127 23.0196 23.9792 19.7773 24 16.0464V16.0042C24 15.7663 23.9892 15.5292 23.9678 15.2992L23.9685 15.2985ZM13.3108 21.6724L10.2906 21.9939L11.1928 19.9959L11.0128 19.7537C10.9992 19.7359 10.9863 19.718 10.9713 19.698C10.1884 18.6172 9.77485 17.34 9.77485 16.0035C9.77485 12.5212 12.6079 9.68885 16.0895 9.68885C19.3518 9.68885 22.1163 12.234 22.3827 15.4828C22.397 15.6571 22.4042 15.8321 22.4042 16.0042C22.4042 16.0535 22.4034 16.1021 22.402 16.1535C22.3349 19.0665 20.2997 21.5403 17.4531 22.1703C17.236 22.2189 17.0131 22.2553 16.791 22.2796C16.5602 22.306 16.3238 22.3189 16.0888 22.3189C15.2523 22.3189 14.4394 22.1567 13.6708 21.8367C13.5858 21.8024 13.5022 21.766 13.4236 21.7281L13.3093 21.6731L13.3108 21.6724Z" fill="#FFFCF9"/>
</svg>
