<svg width="32" height="32" viewBox="0 0 32 32" fill="none" xmlns="http://www.w3.org/2000/svg">
<path d="M15.9996 32C15.1402 32 14.2772 31.9314 13.4366 31.7952C9.72566 31.1976 6.32466 29.2901 3.86141 26.4243C1.37144 23.5273 0 19.8253 0 15.9996C0 7.17691 7.1778 0 15.9996 0C24.8213 0 32 7.1778 32 15.9996C32 19.8841 30.5912 23.6298 28.0317 26.5463C25.4972 29.4361 22.0152 31.3178 18.2268 31.8459C17.4939 31.9483 16.744 32 15.9996 32ZM15.9996 1.06866C7.76645 1.06866 1.06866 7.76645 1.06866 15.9996C1.06866 23.3706 6.34158 29.5706 13.6067 30.7399C15.0716 30.9759 16.6051 30.9928 18.079 30.7871C25.4055 29.7665 30.9305 23.4089 30.9305 15.9996C30.9305 7.76645 24.2327 1.06866 15.9987 1.06866H15.9996Z" fill="#FFFCF9"/>
<path d="M19.4964 9.30078H12.5028C10.5707 9.30078 8.99927 10.8722 8.99927 12.8043V19.2025C8.99927 21.1347 10.5707 22.7061 12.5028 22.7061H19.4964C21.4285 22.7061 23 21.1347 23 19.2025V12.8043C23 10.8722 21.4285 9.30078 19.4964 9.30078ZM10.2351 12.8043C10.2351 11.5538 11.2522 10.5366 12.5028 10.5366H19.4964C20.747 10.5366 21.7642 11.5538 21.7642 12.8043V19.2025C21.7642 20.4531 20.747 21.4703 19.4964 21.4703H12.5028C11.2522 21.4703 10.2351 20.4531 10.2351 19.2025V12.8043Z" fill="#FFFCF9"/>
<path d="M15.9926 19.2626C17.7897 19.2626 19.2518 17.8005 19.2518 16.0034C19.2518 14.2063 17.7897 12.7441 15.9926 12.7441C14.1955 12.7441 12.7334 14.2063 12.7334 16.0034C12.7334 17.8005 14.1955 19.2626 15.9926 19.2626ZM15.9926 13.9806C17.1082 13.9806 18.0154 14.8878 18.0154 16.0034C18.0154 17.1189 17.1082 18.0261 15.9926 18.0261C14.8771 18.0261 13.9698 17.1189 13.9698 16.0034C13.9698 14.8878 14.8771 13.9806 15.9926 13.9806Z" fill="#FFFCF9"/>
<path d="M19.5626 13.2683C20.0468 13.2683 20.4409 12.8742 20.4409 12.39C20.4409 11.9059 20.0468 11.5117 19.5626 11.5117C19.0785 11.5117 18.6843 11.9059 18.6843 12.39C18.6843 12.8742 19.0785 13.2683 19.5626 13.2683Z" fill="#FFFCF9"/>
</svg>
