<svg width="32" height="32" viewBox="0 0 32 32" fill="none" xmlns="http://www.w3.org/2000/svg">
<path d="M15.9995 31.9991C15.1402 31.9991 14.2772 31.9305 13.4366 31.7943C9.72565 31.1967 6.32466 29.2892 3.86141 26.4234C1.37144 23.5265 0 19.8244 0 15.9996C0 7.17691 7.1778 0 15.9995 0C24.8213 0 32 7.1778 32 15.9996C32 19.8841 30.5911 23.6298 28.0317 26.5463C25.4972 29.4361 22.0152 31.3178 18.2268 31.8459C17.4939 31.9483 16.744 32 15.9995 32V31.9991ZM15.9995 1.06776C7.76645 1.06776 1.06866 7.76556 1.06866 15.9987C1.06866 23.3697 6.34158 29.5697 13.6066 30.739C15.0716 30.975 16.6051 30.9919 18.079 30.7862C25.4055 29.7656 30.9304 23.408 30.9304 15.9987C30.9304 7.76556 24.2326 1.06776 15.9987 1.06776H15.9995Z" fill="#FFFCF9"/>
<path d="M17.7028 15.5061V18.3255H20.9993L20.4774 22.1243H17.7028V30.8755C17.1464 30.9575 16.5772 31 15.9996 31C15.3326 31 14.6782 30.9434 14.0401 30.8345V22.1243H11V18.3255H14.0401V14.8763C14.0401 12.7358 15.6799 11 17.7035 11V11.0022C17.7092 11.0022 17.7148 11 17.7204 11H21V14.2845H18.8573C18.2198 14.2845 17.7035 14.8308 17.7035 15.5053L17.7028 15.5061Z" fill="#FFFCF9"/>
</svg>
