<svg width="40" height="35" viewBox="0 0 40 35" fill="none" xmlns="http://www.w3.org/2000/svg">
<path opacity="0.2" d="M0.623053 35L6.85358 9.53405L8.47352 16.81C6.06438 16.81 4.02908 16.0573 2.3676 14.552C0.7892 13.0466 0 11.0394 0 8.53047C0 5.93787 0.7892 3.88889 2.3676 2.38351C4.02908 0.794504 6.02285 0 8.34891 0C10.758 0 12.7103 0.836319 14.2056 2.50896C15.7009 4.09797 16.4486 6.10514 16.4486 8.53047C16.4486 9.28316 16.4071 10.0777 16.324 10.914C16.2409 11.6667 16.0332 12.5448 15.7009 13.5484C15.4517 14.552 15.0363 15.8483 14.4548 17.4373L8.47352 35H0.623053ZM24.1745 35L30.405 9.53405L32.0249 16.81C29.6158 16.81 27.5805 16.0573 25.919 14.552C24.3406 13.0466 23.5514 11.0394 23.5514 8.53047C23.5514 5.93787 24.3406 3.88889 25.919 2.38351C27.5805 0.794504 29.5742 0 31.9003 0C34.3094 0 36.2617 0.836319 37.757 2.50896C39.2523 4.09797 40 6.10514 40 8.53047C40 9.28316 39.9585 10.0777 39.8754 10.914C39.7923 11.6667 39.5846 12.5448 39.2523 13.5484C39.0031 14.552 38.5877 15.8483 38.0062 17.4373L32.0249 35H24.1745Z" fill="#4C180B"/>
</svg>
