<svg width="39" height="39" viewBox="0 0 39 39" fill="none" xmlns="http://www.w3.org/2000/svg">
<rect width="39" height="39" rx="19.5" fill="white"/>
<path d="M13.9585 13.9578C13.9584 13.6792 14.0318 13.4055 14.1714 13.1644C14.3109 12.9233 14.5116 12.7232 14.7531 12.5844C14.9947 12.4457 15.2686 12.3731 15.5472 12.374C15.8258 12.375 16.0992 12.4494 16.3398 12.5898L25.8375 18.1299C26.0771 18.269 26.2761 18.4685 26.4145 18.7086C26.5529 18.9487 26.6259 19.2209 26.6261 19.498C26.6264 19.7751 26.5539 20.0475 26.4159 20.2878C26.2779 20.5281 26.0793 20.728 25.8398 20.8675L16.3398 26.4092C16.0992 26.5496 15.8258 26.624 15.5472 26.625C15.2686 26.6259 14.9947 26.5533 14.7531 26.4145C14.5116 26.2758 14.3109 26.0757 14.1714 25.8346C14.0318 25.5934 13.9584 25.3198 13.9585 25.0412V13.9578Z" fill="black"/>
</svg>
