<svg width="23" height="20" viewBox="0 0 23 20" fill="none" xmlns="http://www.w3.org/2000/svg">
<path opacity="0.7" d="M0.358256 20L3.94081 5.44803L4.87227 9.60573C3.48702 9.60573 2.31672 9.17563 1.36137 8.31541C0.45379 7.4552 0 6.30824 0 4.87455C0 3.39307 0.45379 2.22222 1.36137 1.36201C2.31672 0.454002 3.46314 0 4.80062 0C6.18588 0 7.30841 0.477897 8.16822 1.43369C9.02804 2.34169 9.45794 3.48865 9.45794 4.87455C9.45794 5.30466 9.43406 5.75866 9.38629 6.23656C9.33853 6.66667 9.21911 7.16846 9.02804 7.74193C8.88474 8.31541 8.6459 9.05615 8.31153 9.96416L4.87227 20H0.358256ZM13.9003 20L17.4829 5.44803L18.4143 9.60573C17.0291 9.60573 15.8588 9.17563 14.9034 8.31541C13.9958 7.4552 13.5421 6.30824 13.5421 4.87455C13.5421 3.39307 13.9958 2.22222 14.9034 1.36201C15.8588 0.454002 17.0052 0 18.3427 0C19.7279 0 20.8505 0.477897 21.7103 1.43369C22.5701 2.34169 23 3.48865 23 4.87455C23 5.30466 22.9761 5.75866 22.9284 6.23656C22.8806 6.66667 22.7612 7.16846 22.5701 7.74193C22.4268 8.31541 22.188 9.05615 21.8536 9.96416L18.4143 20H13.9003Z" fill="#4C180B"/>
</svg>
