<svg>

<symbol id="logo" width="225" height="42" viewBox="0 0 225 42" fill="none" xmlns="http://www.w3.org/2000/svg">
<path fill-rule="evenodd" clip-rule="evenodd" d="M34.9097 0.159277C32.5331 0.592993 29.5081 2.92648 26.7163 6.47961C24.7495 8.983 22.9721 10.9111 22.2515 11.3229C21.6537 11.6644 20.7071 11.7266 15.7116 11.7519C10.256 11.7795 9.79514 11.8155 8.72228 12.2997C6.69398 13.2155 4.9809 15.3384 4.41476 17.638C4.16547 18.6506 4.05993 18.7714 3.22331 19.0018C2.00391 19.3376 0.538246 20.7198 0.240967 21.8141C0.101413 22.3281 0.00565813 26.1486 0.00682301 31.1442C0.00915279 39.9653 -0.134826 39.6676 0.790561 39.8499C1.68613 40.0262 2.09896 40.5084 2.09896 37.8353C2.09896 36.1739 2.19611 35.1913 2.37854 35.0047C2.78368 34.5903 43.5832 34.5903 43.9883 35.0047C44.1668 35.1873 44.2679 36.1157 44.2679 37.5729C44.2679 40.0058 44.3618 39.8918 45.1986 39.8918C46.1462 39.8918 46.3845 40.6778 46.4241 28.7242L46.4626 17.2043L47.1645 16.5485C47.5506 16.1877 47.9375 15.8927 48.0244 15.8927C48.1113 15.8927 48.4198 15.4904 48.7101 14.999C49.327 13.9538 49.6206 10.4805 49.1784 9.45842C48.5083 7.90991 47.2763 6.6886 45.9502 6.25798C45.6714 6.16743 45.2506 5.54879 44.8911 4.7009C44.1127 2.86523 43.0045 1.64249 41.3212 0.762189C40.1579 0.154034 39.6671 0.0427463 37.9775 0.00485579C36.8883 -0.0194513 35.5077 0.0498952 34.9097 0.159277ZM34.1865 2.8862C32.7166 3.50461 30.1881 5.62933 29.033 7.21716C27.6352 9.13838 24.623 12.6786 24.1389 12.9694C23.8696 13.1309 22.9807 13.4801 22.1635 13.7455C20.8439 14.1738 20.0839 14.226 15.3801 14.2102C10.6455 14.1945 10.0109 14.2386 9.40654 14.6256C8.0774 15.4768 7.22447 16.2258 7.22447 16.5416C7.22447 16.7181 7.05579 17.1261 6.84937 17.4481C5.97431 18.8143 5.29961 18.7611 22.6525 18.6944L38.5599 18.6332L38.7153 14.8203C38.8011 12.7232 38.9439 10.5785 39.0331 10.0542C39.25 8.7802 40.4301 7.23122 41.6469 6.62306C42.2554 6.31899 42.6368 5.96654 42.6361 5.70821C42.6347 4.94921 41.7254 3.74172 40.6115 3.01918C39.6144 2.37242 39.3402 2.30974 37.5241 2.31498C35.9688 2.31927 35.2361 2.44462 34.1865 2.8862ZM42.6813 8.73922C41.2909 9.625 41.2392 9.9927 41.2392 18.9937V27.1147L40.6672 27.6995L40.0955 28.2845H21.3385C-0.00971985 28.2845 2.13228 28.0374 2.13228 30.501C2.13228 31.3968 2.25249 31.9821 2.48547 32.2204C2.79533 32.5373 5.17893 32.5805 21.9806 32.5719C32.5088 32.5666 41.8077 32.498 42.6447 32.4196L44.167 32.2769L44.1486 24.2636C44.1386 19.8561 44.1887 15.8788 44.26 15.4253C44.3716 14.7133 44.5002 14.5772 45.1986 14.4311C46.1112 14.2403 47.0522 13.2692 47.0862 12.4835C47.1866 10.1547 46.9709 9.30662 46.1704 8.88315C44.9829 8.25498 43.5352 8.1954 42.6813 8.73922ZM3.64896 21.2305C3.15598 21.387 2.64762 21.7075 2.51925 21.9423C2.24644 22.441 2.17398 25.5812 2.42956 25.8424C2.63341 26.0514 36.7977 26.2163 37.9272 26.014L38.6925 25.8767L38.6261 23.4465L38.5599 21.0162L21.5526 20.981C8.92824 20.9545 4.31435 21.0188 3.64896 21.2305Z" fill="#F7F6EF"/>
<path d="M66.9088 15.9726H68.3929V18.9244H67.3328V17H58.2817V5.5841H59.3417V15.9726H65.8325V5.5841H66.9088V15.9726ZM76.7429 12.401C76.6777 11.553 76.3461 10.868 75.7481 10.3462C75.1501 9.81342 74.4271 9.54705 73.5791 9.54705C72.7528 9.54705 72.0461 9.81342 71.459 10.3462C70.8719 10.868 70.5294 11.553 70.4316 12.401H76.7429ZM70.4316 13.3795C70.5294 14.2384 70.8773 14.9343 71.4753 15.467C72.0841 15.9997 72.8072 16.2661 73.6443 16.2661C74.2858 16.2661 74.862 16.1139 75.373 15.8095C75.8949 15.4942 76.2863 15.0647 76.5472 14.5211L77.5257 14.9125C77.1669 15.6518 76.6396 16.2335 75.9438 16.6575C75.2589 17.0815 74.4924 17.2936 73.6443 17.2936C72.4375 17.2936 71.4155 16.8804 70.5783 16.0541C69.752 15.2169 69.3389 14.1678 69.3389 12.9066C69.3389 11.6345 69.7466 10.5854 70.562 9.75906C71.3775 8.93276 72.3777 8.51962 73.5628 8.51962C74.7479 8.51962 75.7481 8.92189 76.5635 9.72644C77.3898 10.531 77.803 11.5475 77.803 12.7761C77.803 12.9283 77.7867 13.1295 77.754 13.3795H70.4316ZM79.2329 17V8.84579H80.2929V12.401H85.7726V8.84579H86.8326V17H85.7726V13.4121H80.2929V17H79.2329ZM94.8728 8.84579V9.85691H92.0188V17H90.9588V9.85691H88.1048V8.84579H94.8728ZM96.1548 8.84579H97.2148V20.2617H96.1548V8.84579ZM98.177 10.5419C97.5356 11.1616 97.2148 11.9607 97.2148 12.9392C97.2148 13.9068 97.5356 14.7059 98.177 15.3365C98.8294 15.9671 99.6231 16.2824 100.558 16.2824C101.493 16.2824 102.281 15.9671 102.923 15.3365C103.575 14.7059 103.901 13.9068 103.901 12.9392C103.901 11.9607 103.575 11.1616 102.923 10.5419C102.281 9.91127 101.493 9.59597 100.558 9.59597C99.6231 9.59597 98.8294 9.91127 98.177 10.5419ZM97.8183 16.0867C97.0246 15.2496 96.6277 14.2004 96.6277 12.9392C96.6277 11.6671 97.0246 10.618 97.8183 9.79167C98.6119 8.96538 99.5796 8.55223 100.721 8.55223C101.917 8.55223 102.923 8.96538 103.738 9.79167C104.554 10.618 104.961 11.6671 104.961 12.9392C104.961 14.2004 104.554 15.2496 103.738 16.0867C102.923 16.913 101.917 17.3262 100.721 17.3262C99.5796 17.3262 98.6119 16.913 97.8183 16.0867ZM117.474 8.84579V17H116.414V9.85691H111.684V17H110.624V8.84579H117.474ZM120.9 10.5092C120.27 11.129 119.954 11.9281 119.954 12.9066C119.954 13.8851 120.27 14.6896 120.9 15.3202C121.531 15.94 122.303 16.2498 123.216 16.2498C123.857 16.2498 124.439 16.0922 124.961 15.7769C125.494 15.4616 125.896 15.0212 126.168 14.4559L127.13 14.8799C126.782 15.6192 126.255 16.2063 125.548 16.6412C124.852 17.0761 124.075 17.2936 123.216 17.2936C122.009 17.2936 120.987 16.8804 120.15 16.0541C119.313 15.2278 118.894 14.1786 118.894 12.9066C118.894 11.6345 119.313 10.5854 120.15 9.75906C120.987 8.93276 122.009 8.51962 123.216 8.51962C124.086 8.51962 124.874 8.7425 125.581 9.18826C126.298 9.63403 126.826 10.2429 127.163 11.0148L126.2 11.4388C125.939 10.8517 125.543 10.3951 125.01 10.0689C124.477 9.73188 123.879 9.56336 123.216 9.56336C122.303 9.56336 121.531 9.87865 120.9 10.5092ZM135.691 17H134.631V10.1831L129.885 17H128.597V8.84579H129.657V15.4996L134.387 8.84579H135.691V17ZM144.804 17H143.499L140.89 13.6568L138.297 17H136.976L140.14 12.9229L136.976 8.84579H138.297L140.89 12.189L143.499 8.84579H144.804L141.64 12.9229L144.804 17ZM147.804 10.5092C147.163 11.129 146.842 11.9281 146.842 12.9066C146.842 13.8851 147.163 14.6896 147.804 15.3202C148.457 15.94 149.25 16.2498 150.185 16.2498C151.12 16.2498 151.909 15.94 152.55 15.3202C153.202 14.6896 153.529 13.8851 153.529 12.9066C153.529 11.9281 153.202 11.129 152.55 10.5092C151.909 9.87865 151.12 9.56336 150.185 9.56336C149.25 9.56336 148.457 9.87865 147.804 10.5092ZM147.054 16.0541C146.206 15.2278 145.782 14.1786 145.782 12.9066C145.782 11.6345 146.206 10.5854 147.054 9.75906C147.913 8.93276 148.957 8.51962 150.185 8.51962C151.414 8.51962 152.452 8.93276 153.3 9.75906C154.159 10.5854 154.589 11.6345 154.589 12.9066C154.589 14.1786 154.159 15.2278 153.3 16.0541C152.452 16.8804 151.414 17.2936 150.185 17.2936C148.957 17.2936 147.913 16.8804 147.054 16.0541ZM161.098 13.1186L158.587 13.4121C157.369 13.5535 156.76 14.0156 156.76 14.7984C156.76 15.2115 156.929 15.5485 157.266 15.8095C157.614 16.0595 158.07 16.1846 158.636 16.1846C159.375 16.1846 159.968 15.9617 160.413 15.5159C160.87 15.0593 161.098 14.4613 161.098 13.722H161.653C161.653 14.7114 161.343 15.5377 160.723 16.2009C160.104 16.8532 159.326 17.1794 158.391 17.1794C157.608 17.1794 156.961 16.9619 156.45 16.5271C155.95 16.0813 155.7 15.5051 155.7 14.7984C155.7 14.1569 155.934 13.6296 156.402 13.2164C156.869 12.7924 157.527 12.5315 158.375 12.4336L161.098 12.1401V11.7487C161.098 11.1942 160.892 10.7158 160.479 10.3135C160.066 9.9004 159.555 9.69382 158.946 9.69382C158.413 9.69382 157.94 9.8406 157.527 10.1342C157.125 10.4277 156.864 10.8028 156.744 11.2594L155.749 10.9659C155.956 10.2809 156.347 9.72644 156.923 9.30242C157.5 8.8784 158.152 8.66639 158.88 8.66639C159.772 8.66639 160.538 8.95451 161.18 9.53074C161.821 10.107 162.142 10.7919 162.142 11.5856V17H161.098V13.1186ZM163.906 17V8.84579H164.966V12.401H170.446V8.84579H171.506V17H170.446V13.4121H164.966V17H163.906ZM178.323 13.1186L175.811 13.4121C174.594 13.5535 173.985 14.0156 173.985 14.7984C173.985 15.2115 174.153 15.5485 174.49 15.8095C174.838 16.0595 175.295 16.1846 175.86 16.1846C176.6 16.1846 177.192 15.9617 177.638 15.5159C178.095 15.0593 178.323 14.4613 178.323 13.722H178.877C178.877 14.7114 178.568 15.5377 177.948 16.2009C177.328 16.8532 176.551 17.1794 175.616 17.1794C174.833 17.1794 174.186 16.9619 173.675 16.5271C173.175 16.0813 172.925 15.5051 172.925 14.7984C172.925 14.1569 173.159 13.6296 173.626 13.2164C174.094 12.7924 174.751 12.5315 175.599 12.4336L178.323 12.1401V11.7487C178.323 11.1942 178.116 10.7158 177.703 10.3135C177.29 9.9004 176.779 9.69382 176.17 9.69382C175.637 9.69382 175.164 9.8406 174.751 10.1342C174.349 10.4277 174.088 10.8028 173.969 11.2594L172.974 10.9659C173.18 10.2809 173.572 9.72644 174.148 9.30242C174.724 8.8784 175.377 8.66639 176.105 8.66639C176.996 8.66639 177.763 8.95451 178.404 9.53074C179.046 10.107 179.367 10.7919 179.367 11.5856V17H178.323V13.1186ZM181.049 15.9726C181.538 15.9726 181.913 15.8204 182.174 15.5159C182.446 15.2006 182.582 14.8038 182.582 14.3254V8.84579H188.16V17H187.1V9.87322H183.626V14.5537C183.626 15.2169 183.403 15.7932 182.957 16.2824C182.511 16.7608 181.93 17 181.212 17H180.723V15.9726H181.049ZM196.996 17H195.936V10.1831L191.191 17H189.902V8.84579H190.962V15.4996L195.692 8.84579H196.996V17ZM198.721 10.4603C198.993 9.87322 199.395 9.41114 199.928 9.0741C200.471 8.72619 201.075 8.55223 201.738 8.55223C202.564 8.55223 203.255 8.79686 203.809 9.28611C204.375 9.76449 204.657 10.3625 204.657 11.08C204.657 11.4714 204.559 11.8302 204.364 12.1564C204.168 12.4717 203.896 12.7218 203.548 12.9066C203.94 13.1023 204.25 13.385 204.478 13.7546C204.706 14.1243 204.82 14.5266 204.82 14.9614C204.82 15.6247 204.527 16.1791 203.94 16.6249C203.353 17.0707 202.619 17.2936 201.738 17.2936C200.999 17.2936 200.33 17.1196 199.732 16.7717C199.145 16.4129 198.705 15.9236 198.411 15.3039L199.373 14.831C199.569 15.2659 199.879 15.6138 200.303 15.8747C200.727 16.1248 201.205 16.2498 201.738 16.2498C202.314 16.2498 202.793 16.1193 203.173 15.8584C203.565 15.5866 203.76 15.2496 203.76 14.8473C203.76 14.4341 203.592 14.0862 203.255 13.8035C202.929 13.5209 202.521 13.3795 202.032 13.3795H200.711V12.4663H202.032C202.477 12.4663 202.847 12.3412 203.141 12.0912C203.445 11.8411 203.597 11.5367 203.597 11.1779C203.597 10.7321 203.418 10.357 203.059 10.0526C202.7 9.74819 202.249 9.59597 201.705 9.59597C201.26 9.59597 200.857 9.71557 200.499 9.95476C200.14 10.1831 199.874 10.4984 199.7 10.9006L198.721 10.4603ZM211.307 13.1186L208.795 13.4121C207.577 13.5535 206.969 14.0156 206.969 14.7984C206.969 15.2115 207.137 15.5485 207.474 15.8095C207.822 16.0595 208.279 16.1846 208.844 16.1846C209.583 16.1846 210.176 15.9617 210.622 15.5159C211.078 15.0593 211.307 14.4613 211.307 13.722H211.861C211.861 14.7114 211.551 15.5377 210.932 16.2009C210.312 16.8532 209.535 17.1794 208.599 17.1794C207.817 17.1794 207.17 16.9619 206.659 16.5271C206.159 16.0813 205.909 15.5051 205.909 14.7984C205.909 14.1569 206.142 13.6296 206.61 13.2164C207.077 12.7924 207.735 12.5315 208.583 12.4336L211.307 12.1401V11.7487C211.307 11.1942 211.1 10.7158 210.687 10.3135C210.274 9.9004 209.763 9.69382 209.154 9.69382C208.621 9.69382 208.148 9.8406 207.735 10.1342C207.333 10.4277 207.072 10.8028 206.952 11.2594L205.958 10.9659C206.164 10.2809 206.555 9.72644 207.132 9.30242C207.708 8.8784 208.36 8.66639 209.089 8.66639C209.98 8.66639 210.747 8.95451 211.388 9.53074C212.03 10.107 212.35 10.7919 212.35 11.5856V17H211.307V13.1186Z" fill="#F7F6EF"/>
<path d="M65.6555 39.5029H64.5954V32.686L59.8497 39.5029H58.5613V31.3487H59.6214V38.0026L64.3508 31.3487H65.6555V39.5029ZM78.4786 31.3487V39.5029H77.4186V32.3598H72.6891V39.5029H71.6291V31.3487H78.4786ZM81.9052 33.0122C81.2746 33.6319 80.9593 34.431 80.9593 35.4095C80.9593 36.388 81.2746 37.1926 81.9052 37.8232C82.5358 38.4429 83.3077 38.7527 84.221 38.7527C84.8624 38.7527 85.4441 38.5951 85.966 38.2798C86.4987 37.9645 86.901 37.5242 87.1728 36.9588L88.135 37.3828C87.7871 38.1221 87.2598 38.7093 86.5531 39.1441C85.8573 39.579 85.0799 39.7965 84.221 39.7965C83.0142 39.7965 81.9922 39.3833 81.155 38.557C80.3178 37.7307 79.8992 36.6816 79.8992 35.4095C79.8992 34.1375 80.3178 33.0883 81.155 32.262C81.9922 31.4357 83.0142 31.0225 84.221 31.0225C85.0908 31.0225 85.879 31.2454 86.5857 31.6912C87.3033 32.137 87.8306 32.7458 88.1676 33.5177L87.2054 33.9418C86.9445 33.3547 86.5476 32.898 86.0149 32.5718C85.4822 32.2348 84.8842 32.0663 84.221 32.0663C83.3077 32.0663 82.5358 32.3816 81.9052 33.0122ZM96.6963 39.5029H95.6362V32.686L90.8905 39.5029H89.6021V31.3487H90.6622V38.0026L95.3916 31.3487H96.6963V39.5029ZM105.809 39.5029H104.504L101.895 36.1597L99.3017 39.5029H97.9807L101.145 35.4258L97.9807 31.3487H99.3017L101.895 34.6919L104.504 31.3487H105.809L102.645 35.4258L105.809 39.5029ZM108.809 33.0122C108.168 33.6319 107.847 34.431 107.847 35.4095C107.847 36.388 108.168 37.1926 108.809 37.8232C109.462 38.4429 110.255 38.7527 111.19 38.7527C112.125 38.7527 112.914 38.4429 113.555 37.8232C114.207 37.1926 114.534 36.388 114.534 35.4095C114.534 34.431 114.207 33.6319 113.555 33.0122C112.914 32.3816 112.125 32.0663 111.19 32.0663C110.255 32.0663 109.462 32.3816 108.809 33.0122ZM108.059 38.557C107.211 37.7307 106.787 36.6816 106.787 35.4095C106.787 34.1375 107.211 33.0883 108.059 32.262C108.918 31.4357 109.962 31.0225 111.19 31.0225C112.419 31.0225 113.457 31.4357 114.305 32.262C115.164 33.0883 115.594 34.1375 115.594 35.4095C115.594 36.6816 115.164 37.7307 114.305 38.557C113.457 39.3833 112.419 39.7965 111.19 39.7965C109.962 39.7965 108.918 39.3833 108.059 38.557ZM116.95 38.4755C117.439 38.4755 117.814 38.3233 118.075 38.0189C118.347 37.7036 118.483 37.3067 118.483 36.8283V31.3487H124.06V39.5029H123V32.3761H119.527V37.0567C119.527 37.7199 119.304 38.2961 118.858 38.7854C118.412 39.2637 117.831 39.5029 117.113 39.5029H116.624V38.4755H116.95ZM127.499 33.0122C126.858 33.6319 126.537 34.431 126.537 35.4095C126.537 36.388 126.858 37.1926 127.499 37.8232C128.151 38.4429 128.945 38.7527 129.88 38.7527C130.815 38.7527 131.603 38.4429 132.245 37.8232C132.897 37.1926 133.223 36.388 133.223 35.4095C133.223 34.431 132.897 33.6319 132.245 33.0122C131.603 32.3816 130.815 32.0663 129.88 32.0663C128.945 32.0663 128.151 32.3816 127.499 33.0122ZM126.749 38.557C125.901 37.7307 125.477 36.6816 125.477 35.4095C125.477 34.1375 125.901 33.0883 126.749 32.262C127.608 31.4357 128.652 31.0225 129.88 31.0225C131.109 31.0225 132.147 31.4357 132.995 32.262C133.854 33.0883 134.283 34.1375 134.283 35.4095C134.283 36.6816 133.854 37.7307 132.995 38.557C132.147 39.3833 131.109 39.7965 129.88 39.7965C128.652 39.7965 127.608 39.3833 126.749 38.557ZM135.721 39.5029V31.3487H141.087V32.3598H136.781V39.5029H135.721ZM149.596 39.5029H148.536V32.686L143.79 39.5029H142.502V31.3487H143.562V38.0026L148.291 31.3487H149.596V39.5029ZM158.431 39.5029H157.371V32.686L152.626 39.5029H151.337V31.3487H152.397V38.0026L157.127 31.3487H158.431V39.5029ZM163.916 38.4918H172.641V41.3947H171.581V39.5029H164.976V41.3947H163.916V38.4918ZM164.307 38.4918C164.818 38.4918 165.209 38.3287 165.481 38.0026C165.764 37.6764 165.905 37.2578 165.905 36.7468V31.3487H171.499V39.5029H170.439V32.3761H166.965V36.9751C166.965 37.6275 166.732 38.1928 166.264 38.6712C165.807 39.1387 165.209 39.3725 164.47 39.3725H163.997V38.4918H164.307ZM180.987 34.904C180.922 34.0559 180.59 33.371 179.992 32.8491C179.394 32.3163 178.671 32.05 177.823 32.05C176.997 32.05 176.29 32.3163 175.703 32.8491C175.116 33.371 174.773 34.0559 174.676 34.904H180.987ZM174.676 35.8825C174.773 36.7414 175.121 37.4372 175.719 37.9699C176.328 38.5027 177.051 38.7691 177.888 38.7691C178.53 38.7691 179.106 38.6168 179.617 38.3124C180.139 37.9971 180.53 37.5677 180.791 37.024L181.77 37.4155C181.411 38.1548 180.884 38.7364 180.188 39.1605C179.503 39.5845 178.736 39.7965 177.888 39.7965C176.681 39.7965 175.659 39.3833 174.822 38.557C173.996 37.7199 173.583 36.6707 173.583 35.4095C173.583 34.1375 173.991 33.0883 174.806 32.262C175.621 31.4357 176.622 31.0225 177.807 31.0225C178.992 31.0225 179.992 31.4248 180.808 32.2294C181.634 33.0339 182.047 34.0505 182.047 35.279C182.047 35.4313 182.031 35.6324 181.998 35.8825H174.676ZM189.772 31.3487V32.3598H186.918V39.5029H185.858V32.3598H183.004V31.3487H189.772ZM192.734 33.0122C192.103 33.6319 191.788 34.431 191.788 35.4095C191.788 36.388 192.103 37.1926 192.734 37.8232C193.364 38.4429 194.136 38.7527 195.049 38.7527C195.691 38.7527 196.273 38.5951 196.794 38.2798C197.327 37.9645 197.73 37.5242 198.001 36.9588L198.964 37.3828C198.616 38.1221 198.088 38.7093 197.382 39.1441C196.686 39.579 195.908 39.7965 195.049 39.7965C193.843 39.7965 192.821 39.3833 191.983 38.557C191.146 37.7307 190.728 36.6816 190.728 35.4095C190.728 34.1375 191.146 33.0883 191.983 32.262C192.821 31.4357 193.843 31.0225 195.049 31.0225C195.919 31.0225 196.708 31.2454 197.414 31.6912C198.132 32.137 198.659 32.7458 198.996 33.5177L198.034 33.9418C197.773 33.3547 197.376 32.898 196.843 32.5718C196.311 32.2348 195.713 32.0663 195.049 32.0663C194.136 32.0663 193.364 32.3816 192.734 33.0122ZM206.726 31.3487V32.3598H203.872V39.5029H202.812V32.3598H199.958V31.3487H206.726ZM212.492 32.3272H209.068V34.9203H212.656C213.069 34.9203 213.411 34.8061 213.683 34.5778C213.966 34.3386 214.107 34.0505 214.107 33.7134C214.107 33.322 213.955 32.9959 213.65 32.7349C213.346 32.4631 212.96 32.3272 212.492 32.3272ZM212.656 35.8498H209.068V38.5244H212.656C213.112 38.5244 213.493 38.3994 213.797 38.1493C214.112 37.8993 214.27 37.5894 214.27 37.2197C214.27 36.8283 214.112 36.5022 213.797 36.2412C213.493 35.9803 213.112 35.8498 212.656 35.8498ZM212.819 39.5029H208.008V31.3487H212.656C213.373 31.3487 213.971 31.5662 214.449 32.0011C214.928 32.4359 215.167 32.985 215.167 33.6482C215.167 34.007 215.069 34.3332 214.874 34.6267C214.689 34.9203 214.428 35.1486 214.091 35.3117C214.471 35.4965 214.77 35.7629 214.988 36.1108C215.216 36.4587 215.33 36.8501 215.33 37.285C215.33 37.9047 215.091 38.432 214.613 38.8669C214.134 39.2909 213.536 39.5029 212.819 39.5029ZM221.819 35.6215L219.308 35.9151C218.09 36.0564 217.481 36.5185 217.481 37.3013C217.481 37.7144 217.65 38.0515 217.987 38.3124C218.335 38.5625 218.791 38.6875 219.357 38.6875C220.096 38.6875 220.689 38.4646 221.134 38.0189C221.591 37.5622 221.819 36.9643 221.819 36.2249H222.374C222.374 37.2143 222.064 38.0406 221.444 38.7038C220.824 39.3562 220.047 39.6823 219.112 39.6823C218.329 39.6823 217.682 39.4649 217.171 39.03C216.671 38.5842 216.421 38.008 216.421 37.3013C216.421 36.6598 216.655 36.1325 217.122 35.7194C217.59 35.2954 218.248 35.0344 219.096 34.9366L221.819 34.643V34.2516C221.819 33.6971 221.613 33.2187 221.2 32.8165C220.786 32.4033 220.275 32.1968 219.667 32.1968C219.134 32.1968 218.661 32.3435 218.248 32.6371C217.845 32.9306 217.585 33.3057 217.465 33.7624L216.47 33.4688C216.677 32.7839 217.068 32.2294 217.644 31.8054C218.221 31.3813 218.873 31.1693 219.601 31.1693C220.493 31.1693 221.259 31.4574 221.901 32.0337C222.542 32.6099 222.863 33.2949 222.863 34.0885V39.5029H221.819V35.6215Z" fill="#F7F6EF"/>
</symbol>

</svg>