<svg width="60" height="60" viewBox="0 0 60 60" fill="none" xmlns="http://www.w3.org/2000/svg">
<rect width="60" height="60" rx="30" fill="#F15D26"/>
<path d="M31.6246 20.3466C32.0695 19.884 32.7893 19.8846 33.233 20.3477L41.6678 29.1613C41.6802 29.1742 41.6921 29.1883 41.7032 29.2024L41.782 29.3036C41.7927 29.3173 41.8029 29.332 41.8123 29.3468C42.1031 29.8068 42.0569 30.4326 41.6678 30.8391L33.233 39.6517C32.8171 40.0862 32.1588 40.1144 31.7115 39.735L31.6246 39.6538C31.1801 39.1909 31.1783 38.4382 31.6226 37.9739L38.1167 31.1869L19.1376 31.2038L19.0214 31.1974C18.4473 31.1368 18.0009 30.6314 18 30.0181C17.9995 29.3628 18.5081 28.83 19.1366 28.8294L38.1197 28.8125L31.6226 22.0255C31.2061 21.5901 31.1818 20.9019 31.5468 20.4362L31.6246 20.3466Z" fill="#FEFEFE"/>
</svg>
