<svg width="52" height="52" viewBox="0 0 52 52" fill="none" xmlns="http://www.w3.org/2000/svg">
<rect width="52" height="52" rx="26" fill="#34373C"/>
<path d="M18.9288 34.312C17.9608 34.312 17.0768 34.088 16.2768 33.64C15.4768 33.184 14.7808 32.556 14.1888 31.756C13.6048 30.956 13.1528 30.032 12.8328 28.984C12.5128 27.928 12.3528 26.8 12.3528 25.6C12.3528 24.4 12.5128 23.276 12.8328 22.228C13.1528 21.172 13.6048 20.244 14.1888 19.444C14.7808 18.644 15.4768 18.02 16.2768 17.572C17.0768 17.116 17.9608 16.888 18.9288 16.888C19.8968 16.888 20.7808 17.116 21.5808 17.572C22.3808 18.02 23.0688 18.644 23.6448 19.444C24.2288 20.244 24.6808 21.172 25.0008 22.228C25.3208 23.276 25.4808 24.4 25.4808 25.6C25.4808 26.8 25.3208 27.928 25.0008 28.984C24.6808 30.032 24.2288 30.956 23.6448 31.756C23.0688 32.556 22.3808 33.184 21.5808 33.64C20.7808 34.088 19.8968 34.312 18.9288 34.312ZM18.9288 31C19.7208 31 20.3728 30.744 20.8848 30.232C21.3968 29.72 21.7728 29.052 22.0128 28.228C22.2608 27.404 22.3848 26.528 22.3848 25.6C22.3848 24.616 22.2528 23.716 21.9888 22.9C21.7328 22.084 21.3488 21.432 20.8368 20.944C20.3248 20.448 19.6888 20.2 18.9288 20.2C18.3288 20.2 17.8088 20.348 17.3688 20.644C16.9368 20.94 16.5768 21.344 16.2888 21.856C16.0088 22.368 15.7968 22.948 15.6528 23.596C15.5168 24.236 15.4488 24.904 15.4488 25.6C15.4488 26.528 15.5728 27.404 15.8208 28.228C16.0768 29.044 16.4608 29.712 16.9728 30.232C17.4928 30.744 18.1448 31 18.9288 31ZM34.2989 34V30.136H27.1709V26.812L33.5429 17.2H37.6109V26.824H38.9189V30.136H37.6109V34H34.2989ZM30.9989 26.812L34.2989 26.824L34.2869 21.676L30.9989 26.812Z" fill="#F15D26"/>
</svg>
