<svg width="52" height="52" viewBox="0 0 52 52" fill="none" xmlns="http://www.w3.org/2000/svg">
<rect width="52" height="52" rx="26" fill="#34373C"/>
<path d="M21.8116 34.312C20.8436 34.312 19.9596 34.088 19.1596 33.64C18.3596 33.184 17.6636 32.556 17.0716 31.756C16.4876 30.956 16.0356 30.032 15.7156 28.984C15.3956 27.928 15.2356 26.8 15.2356 25.6C15.2356 24.4 15.3956 23.276 15.7156 22.228C16.0356 21.172 16.4876 20.244 17.0716 19.444C17.6636 18.644 18.3596 18.02 19.1596 17.572C19.9596 17.116 20.8436 16.888 21.8116 16.888C22.7796 16.888 23.6636 17.116 24.4636 17.572C25.2636 18.02 25.9516 18.644 26.5276 19.444C27.1116 20.244 27.5636 21.172 27.8836 22.228C28.2036 23.276 28.3636 24.4 28.3636 25.6C28.3636 26.8 28.2036 27.928 27.8836 28.984C27.5636 30.032 27.1116 30.956 26.5276 31.756C25.9516 32.556 25.2636 33.184 24.4636 33.64C23.6636 34.088 22.7796 34.312 21.8116 34.312ZM21.8116 31C22.6036 31 23.2556 30.744 23.7676 30.232C24.2796 29.72 24.6556 29.052 24.8956 28.228C25.1436 27.404 25.2676 26.528 25.2676 25.6C25.2676 24.616 25.1356 23.716 24.8716 22.9C24.6156 22.084 24.2316 21.432 23.7196 20.944C23.2076 20.448 22.5716 20.2 21.8116 20.2C21.2116 20.2 20.6916 20.348 20.2516 20.644C19.8196 20.94 19.4596 21.344 19.1716 21.856C18.8916 22.368 18.6796 22.948 18.5356 23.596C18.3996 24.236 18.3316 24.904 18.3316 25.6C18.3316 26.528 18.4556 27.404 18.7036 28.228C18.9596 29.044 19.3436 29.712 19.8556 30.232C20.3756 30.744 21.0276 31 21.8116 31ZM32.2617 34V20.512H30.0538L30.9418 17.2H35.5738V34H32.2617Z" fill="#F15D26"/>
</svg>
