<svg width="52" height="52" viewBox="0 0 52 52" fill="none" xmlns="http://www.w3.org/2000/svg">
<rect width="52" height="52" rx="26" fill="#34373C"/>
<path d="M19.046 34.312C18.078 34.312 17.194 34.088 16.394 33.64C15.594 33.184 14.898 32.556 14.306 31.756C13.722 30.956 13.27 30.032 12.95 28.984C12.63 27.928 12.47 26.8 12.47 25.6C12.47 24.4 12.63 23.276 12.95 22.228C13.27 21.172 13.722 20.244 14.306 19.444C14.898 18.644 15.594 18.02 16.394 17.572C17.194 17.116 18.078 16.888 19.046 16.888C20.014 16.888 20.898 17.116 21.698 17.572C22.498 18.02 23.186 18.644 23.762 19.444C24.346 20.244 24.798 21.172 25.118 22.228C25.438 23.276 25.598 24.4 25.598 25.6C25.598 26.8 25.438 27.928 25.118 28.984C24.798 30.032 24.346 30.956 23.762 31.756C23.186 32.556 22.498 33.184 21.698 33.64C20.898 34.088 20.014 34.312 19.046 34.312ZM19.046 31C19.838 31 20.49 30.744 21.002 30.232C21.514 29.72 21.89 29.052 22.13 28.228C22.378 27.404 22.502 26.528 22.502 25.6C22.502 24.616 22.37 23.716 22.106 22.9C21.85 22.084 21.466 21.432 20.954 20.944C20.442 20.448 19.806 20.2 19.046 20.2C18.446 20.2 17.926 20.348 17.486 20.644C17.054 20.94 16.694 21.344 16.406 21.856C16.126 22.368 15.914 22.948 15.77 23.596C15.634 24.236 15.566 24.904 15.566 25.6C15.566 26.528 15.69 27.404 15.938 28.228C16.194 29.044 16.578 29.712 17.09 30.232C17.61 30.744 18.262 31 19.046 31ZM27.2881 34V31.048C27.7681 30.712 28.3521 30.28 29.0401 29.752C29.7281 29.216 30.4441 28.628 31.1881 27.988C31.9321 27.34 32.6241 26.684 33.2641 26.02C33.9121 25.356 34.4361 24.728 34.8361 24.136C35.2441 23.544 35.4481 23.036 35.4481 22.612C35.4481 22.172 35.3401 21.768 35.1241 21.4C34.9081 21.032 34.6201 20.74 34.2601 20.524C33.9001 20.308 33.5001 20.2 33.0601 20.2C32.6201 20.2 32.2161 20.308 31.8481 20.524C31.4881 20.74 31.1961 21.032 30.9721 21.4C30.7561 21.768 30.6481 22.172 30.6481 22.612H27.3361C27.3361 21.532 27.5961 20.56 28.1161 19.696C28.6441 18.832 29.3401 18.148 30.2041 17.644C31.0761 17.14 32.0281 16.888 33.0601 16.888C34.1081 16.888 35.0641 17.144 35.9281 17.656C36.7921 18.168 37.4801 18.86 37.9921 19.732C38.5041 20.596 38.7601 21.556 38.7601 22.612C38.7601 23.156 38.6761 23.684 38.5081 24.196C38.3481 24.708 38.1121 25.22 37.8001 25.732C37.4881 26.236 37.1081 26.752 36.6601 27.28C36.2201 27.8 35.7201 28.344 35.1601 28.912C34.6081 29.472 34.0121 30.064 33.3721 30.688H38.8081V34H27.2881Z" fill="#F15D26"/>
</svg>
