<svg width="52" height="52" viewBox="0 0 52 52" fill="none" xmlns="http://www.w3.org/2000/svg">
<rect width="52" height="52" rx="26" fill="#34373C"/>
<path d="M19.0343 34.312C18.0663 34.312 17.1823 34.088 16.3823 33.64C15.5823 33.184 14.8863 32.556 14.2943 31.756C13.7103 30.956 13.2583 30.032 12.9383 28.984C12.6183 27.928 12.4583 26.8 12.4583 25.6C12.4583 24.4 12.6183 23.276 12.9383 22.228C13.2583 21.172 13.7103 20.244 14.2943 19.444C14.8863 18.644 15.5823 18.02 16.3823 17.572C17.1823 17.116 18.0663 16.888 19.0343 16.888C20.0023 16.888 20.8863 17.116 21.6863 17.572C22.4863 18.02 23.1743 18.644 23.7503 19.444C24.3343 20.244 24.7863 21.172 25.1063 22.228C25.4263 23.276 25.5863 24.4 25.5863 25.6C25.5863 26.8 25.4263 27.928 25.1063 28.984C24.7863 30.032 24.3343 30.956 23.7503 31.756C23.1743 32.556 22.4863 33.184 21.6863 33.64C20.8863 34.088 20.0023 34.312 19.0343 34.312ZM19.0343 31C19.8263 31 20.4783 30.744 20.9903 30.232C21.5023 29.72 21.8783 29.052 22.1183 28.228C22.3663 27.404 22.4903 26.528 22.4903 25.6C22.4903 24.616 22.3583 23.716 22.0943 22.9C21.8383 22.084 21.4543 21.432 20.9423 20.944C20.4303 20.448 19.7943 20.2 19.0343 20.2C18.4343 20.2 17.9143 20.348 17.4743 20.644C17.0423 20.94 16.6823 21.344 16.3943 21.856C16.1143 22.368 15.9023 22.948 15.7583 23.596C15.6223 24.236 15.5543 24.904 15.5543 25.6C15.5543 26.528 15.6783 27.404 15.9263 28.228C16.1823 29.044 16.5663 29.712 17.0783 30.232C17.5983 30.744 18.2503 31 19.0343 31ZM33.0004 34.312C31.9044 34.312 30.9124 34.048 30.0244 33.52C29.1444 32.984 28.4444 32.276 27.9244 31.396C27.4124 30.508 27.1564 29.54 27.1564 28.492H30.4684C30.4684 28.956 30.5804 29.38 30.8044 29.764C31.0364 30.14 31.3444 30.44 31.7284 30.664C32.1124 30.888 32.5364 31 33.0004 31C33.4564 31 33.8724 30.888 34.2484 30.664C34.6324 30.44 34.9364 30.14 35.1604 29.764C35.3924 29.38 35.5084 28.956 35.5084 28.492C35.5084 28.028 35.4124 27.6 35.2204 27.208C35.0364 26.816 34.7164 26.504 34.2604 26.272C33.8044 26.032 33.1764 25.912 32.3764 25.912H27.9844L29.8204 17.2H38.1964V20.512H32.5084L32.0764 22.6L33.0124 22.624C34.1564 22.664 35.1604 22.948 36.0244 23.476C36.8964 24.004 37.5804 24.704 38.0764 25.576C38.5724 26.448 38.8204 27.42 38.8204 28.492C38.8204 29.284 38.6684 30.032 38.3644 30.736C38.0684 31.44 37.6524 32.06 37.1164 32.596C36.5884 33.132 35.9724 33.552 35.2684 33.856C34.5644 34.16 33.8084 34.312 33.0004 34.312Z" fill="#F15D26"/>
</svg>
