<svg width="52" height="52" viewBox="0 0 52 52" fill="none" xmlns="http://www.w3.org/2000/svg">
<rect width="52" height="52" rx="26" fill="#34373C"/>
<path d="M19.796 34.312C18.828 34.312 17.944 34.088 17.144 33.64C16.344 33.184 15.648 32.556 15.056 31.756C14.472 30.956 14.02 30.032 13.7 28.984C13.38 27.928 13.22 26.8 13.22 25.6C13.22 24.4 13.38 23.276 13.7 22.228C14.02 21.172 14.472 20.244 15.056 19.444C15.648 18.644 16.344 18.02 17.144 17.572C17.944 17.116 18.828 16.888 19.796 16.888C20.764 16.888 21.648 17.116 22.448 17.572C23.248 18.02 23.936 18.644 24.512 19.444C25.096 20.244 25.548 21.172 25.868 22.228C26.188 23.276 26.348 24.4 26.348 25.6C26.348 26.8 26.188 27.928 25.868 28.984C25.548 30.032 25.096 30.956 24.512 31.756C23.936 32.556 23.248 33.184 22.448 33.64C21.648 34.088 20.764 34.312 19.796 34.312ZM19.796 31C20.588 31 21.24 30.744 21.752 30.232C22.264 29.72 22.64 29.052 22.88 28.228C23.128 27.404 23.252 26.528 23.252 25.6C23.252 24.616 23.12 23.716 22.856 22.9C22.6 22.084 22.216 21.432 21.704 20.944C21.192 20.448 20.556 20.2 19.796 20.2C19.196 20.2 18.676 20.348 18.236 20.644C17.804 20.94 17.444 21.344 17.156 21.856C16.876 22.368 16.664 22.948 16.52 23.596C16.384 24.236 16.316 24.904 16.316 25.6C16.316 26.528 16.44 27.404 16.688 28.228C16.944 29.044 17.328 29.712 17.84 30.232C18.36 30.744 19.012 31 19.796 31ZM33.2821 34.312C32.2741 34.312 31.3541 34.068 30.5221 33.58C29.6901 33.092 29.0261 32.436 28.5301 31.612C28.0421 30.78 27.7981 29.86 27.7981 28.852H31.1101C31.1101 29.236 31.2061 29.592 31.3981 29.92C31.5901 30.248 31.8501 30.512 32.1781 30.712C32.5061 30.904 32.8741 31 33.2821 31C33.6741 31 34.0341 30.904 34.3621 30.712C34.6981 30.512 34.9661 30.248 35.1661 29.92C35.3661 29.592 35.4661 29.236 35.4661 28.852C35.4661 28.324 35.3221 27.884 35.0341 27.532C34.7461 27.18 34.3421 26.916 33.8221 26.74C33.3021 26.564 32.6941 26.476 31.9981 26.476V23.944C32.9261 23.944 33.6581 23.78 34.1941 23.452C34.7301 23.116 34.9981 22.62 34.9981 21.964C34.9981 21.636 34.9181 21.34 34.7581 21.076C34.5981 20.804 34.3821 20.588 34.1101 20.428C33.8381 20.26 33.5381 20.176 33.2101 20.176C32.8821 20.176 32.5581 20.26 32.2381 20.428C31.9181 20.588 31.6541 20.804 31.4461 21.076C31.2461 21.34 31.1461 21.636 31.1461 21.964H27.8341C27.8341 21.26 27.9781 20.6 28.2661 19.984C28.5541 19.368 28.9461 18.828 29.4421 18.364C29.9461 17.892 30.5181 17.524 31.1581 17.26C31.7981 16.996 32.4701 16.864 33.1741 16.864C34.0941 16.864 34.9421 17.092 35.7181 17.548C36.5021 18.004 37.1301 18.62 37.6021 19.396C38.0741 20.164 38.3101 21.02 38.3101 21.964C38.3101 22.564 38.1741 23.168 37.9021 23.776C37.6381 24.384 37.2501 24.82 36.7381 25.084C37.1861 25.252 37.5581 25.54 37.8541 25.948C38.1581 26.348 38.3861 26.808 38.5381 27.328C38.6981 27.84 38.7781 28.348 38.7781 28.852C38.7781 29.852 38.5301 30.768 38.0341 31.6C37.5381 32.424 36.8741 33.084 36.0421 33.58C35.2101 34.068 34.2901 34.312 33.2821 34.312Z" fill="#F15D26"/>
</svg>
