<svg width="61" height="61" viewBox="0 0 61 61" fill="none" xmlns="http://www.w3.org/2000/svg">
<rect x="59.9993" y="60.314" width="60" height="60" rx="30" transform="rotate(-179.699 59.9993 60.314)" fill="#F15D26"/>
<path d="M28.4819 39.8016C28.0346 40.2619 27.3148 40.2576 26.8735 39.7921L18.4851 30.9344C18.4728 30.9214 18.4609 30.9073 18.4499 30.8931L18.3717 30.7915C18.361 30.7777 18.3509 30.7629 18.3416 30.7481C18.0532 30.2866 18.1027 29.6611 18.4939 29.2566L26.9748 20.4884C27.393 20.056 28.0514 20.0313 28.4967 20.4131L28.5832 20.4947C29.0252 20.9599 29.0231 21.7126 28.5764 22.1746L22.0468 28.9274L41.0257 29.0102L41.1419 29.0171C41.7156 29.0807 42.1594 29.5885 42.1571 30.2017C42.1541 30.8571 41.6427 31.3872 41.0143 31.3845L22.0313 31.3018L28.4927 38.1228C28.9069 38.5604 28.9276 39.2487 28.5601 39.7125L28.4819 39.8016Z" fill="#FEFEFE"/>
</svg>
