<svg width="61" height="61" viewBox="0 0 61 61" fill="none" xmlns="http://www.w3.org/2000/svg">
<rect x="59.9998" y="60.1465" width="60" height="60" rx="30" transform="rotate(-179.86 59.9998 60.1465)" fill="#FEFEFE"/>
<g opacity="0.2">
<path d="M31.7215 20.4238C32.1674 19.9623 32.8872 19.9646 33.3298 20.4288L41.7431 29.263C41.7554 29.276 41.7674 29.29 41.7783 29.3042L41.8569 29.4056C41.8676 29.4193 41.8778 29.4341 41.8871 29.4489C42.1768 29.9095 42.129 30.5352 41.739 30.9408L33.2827 39.7328C32.8657 40.1663 32.2074 40.1929 31.761 39.8123L31.6743 39.731C31.2309 39.267 31.231 38.5143 31.6764 38.0511L38.187 31.2799L19.2079 31.2504L19.0918 31.2438C18.5179 31.1818 18.0726 30.6753 18.0733 30.0621C18.0744 29.4067 18.5843 28.8752 19.2127 28.876L38.1959 28.9055L31.7153 22.1027C31.2999 21.6663 31.2773 20.978 31.6434 20.5132L31.7215 20.4238Z" fill="#34373C"/>
</g>
</svg>
