<svg width="28" height="28" viewBox="0 0 28 28" fill="none" xmlns="http://www.w3.org/2000/svg">
<path d="M15.6246 4.34663C16.0695 3.88398 16.7893 3.88458 17.233 4.34768L25.6678 13.1613C25.6802 13.1742 25.6921 13.1883 25.7032 13.2024L25.782 13.3036C25.7927 13.3173 25.8029 13.332 25.8123 13.3468C26.1031 13.8068 26.0569 14.4326 25.6678 14.8391L17.233 23.6517C16.8171 24.0862 16.1588 24.1144 15.7115 23.735L15.6246 23.6538C15.1801 23.1909 15.1783 22.4382 15.6226 21.9739L22.1167 15.1869L3.13757 15.2038L3.02139 15.1974C2.44735 15.1368 2.00088 14.6314 2 14.0181C1.99954 13.3628 2.50812 12.83 3.13656 12.8294L22.1197 12.8125L15.6226 6.02547C15.2061 5.59008 15.1818 4.90186 15.5468 4.43621L15.6246 4.34663Z" fill="#34373C"/>
</svg>
