<svg width="40" height="40" viewBox="0 0 40 40" fill="none" xmlns="http://www.w3.org/2000/svg">
<rect width="40" height="40" rx="20" fill="#F15D26"/>
<path fill-rule="evenodd" clip-rule="evenodd" d="M19.262 29.7281C19.262 29.7281 12 23.7354 12 17.8387C12 15.7598 12.8429 13.766 14.3431 12.2959C15.8434 10.8259 17.8783 10 20 10C22.1217 10 24.1566 10.8259 25.6569 12.2959C27.1571 13.766 28 15.7598 28 17.8387C28 23.7354 20.738 29.7281 20.738 29.7281C20.334 30.0926 19.669 30.0887 19.262 29.7281ZM20 21.2682C20.4596 21.2682 20.9148 21.1795 21.3394 21.0071C21.764 20.8348 22.1499 20.5821 22.4749 20.2637C22.7999 19.9452 23.0577 19.5672 23.2336 19.1511C23.4095 18.735 23.5 18.2891 23.5 17.8387C23.5 17.3884 23.4095 16.9424 23.2336 16.5263C23.0577 16.1102 22.7999 15.7322 22.4749 15.4137C22.1499 15.0953 21.764 14.8427 21.3394 14.6703C20.9148 14.498 20.4596 14.4093 20 14.4093C19.0717 14.4093 18.1815 14.7706 17.5251 15.4137C16.8687 16.0569 16.5 16.9292 16.5 17.8387C16.5 18.7483 16.8687 19.6206 17.5251 20.2637C18.1815 20.9068 19.0717 21.2682 20 21.2682Z" fill="#FEFEFE"/>
</svg>
