<svg width="28" height="28" viewBox="0 0 28 28" fill="none" xmlns="http://www.w3.org/2000/svg">
<g opacity="0.3" clip-path="url(#clip0_907_1862)">
<path d="M8.32277 6.0251C8.3102 5.3834 8.8196 4.87484 9.4608 4.88856L21.6573 5.15643C21.6752 5.15683 21.6936 5.15829 21.7114 5.16049L21.8386 5.17631C21.8559 5.17847 21.8736 5.18161 21.8906 5.18544C22.4215 5.30504 22.8313 5.78023 22.8437 6.34281L23.1108 18.5386C23.1239 19.1399 22.6784 19.6253 22.0938 19.6733L21.975 19.6773C21.3334 19.6643 20.7998 19.1334 20.7857 18.4909L20.5786 9.09976L7.17024 22.5319L7.08362 22.6096C6.63486 22.9727 5.96177 22.931 5.5275 22.498C5.06375 22.0349 5.04667 21.2985 5.49057 20.8537L18.9018 7.41866L9.50846 7.21365C8.90608 7.2003 8.40224 6.73086 8.3311 6.14345L8.32277 6.0251Z" fill="#34373C"/>
</g>
<defs>
<clipPath id="clip0_907_1862">
<rect width="28" height="28" fill="white"/>
</clipPath>
</defs>
</svg>
