<svg width="60" height="60" viewBox="0 0 60 60" fill="none" xmlns="http://www.w3.org/2000/svg">
<rect width="60" height="60" rx="30" fill="#FEFEFE"/>
<g clip-path="url(#clip0_906_1838)">
<path d="M24.3228 22.0251C24.3102 21.3834 24.8196 20.8748 25.4608 20.8886L37.6573 21.1564C37.6752 21.1568 37.6936 21.1583 37.7114 21.1605L37.8386 21.1763C37.8559 21.1785 37.8736 21.1816 37.8906 21.1854C38.4215 21.305 38.8313 21.7802 38.8437 22.3428L39.1108 34.5386C39.1239 35.1399 38.6784 35.6253 38.0938 35.6733L37.975 35.6773C37.3334 35.6643 36.7998 35.1334 36.7857 34.4909L36.5786 25.0998L23.1702 38.5319L23.0836 38.6096C22.6349 38.9727 21.9618 38.931 21.5275 38.498C21.0637 38.0349 21.0467 37.2985 21.4906 36.8537L34.9018 23.4187L25.5085 23.2137C24.9061 23.2003 24.4022 22.7309 24.3311 22.1435L24.3228 22.0251Z" fill="#34373C"/>
</g>
<defs>
<clipPath id="clip0_906_1838">
<rect width="28" height="28" fill="white" transform="translate(16 16)"/>
</clipPath>
</defs>
</svg>
