<svg width="100" height="26" viewBox="0 0 100 26" fill="none" xmlns="http://www.w3.org/2000/svg">
<mask id="mask0_271_2578" style="mask-type:luminance" maskUnits="userSpaceOnUse" x="0" y="0" width="100" height="26">
<path d="M100 0H0V25.7722H100V0Z" fill="white"/>
</mask>
<g mask="url(#mask0_271_2578)">
<path d="M94.9388 13.6748L93.0347 7.51842L87.0161 5.21914L98.7688 2.14648L94.9388 13.6748Z" fill="#FFB017"/>
<path d="M38.6127 19.1289V13.6905C38.6127 10.4603 36.7334 8.8457 33.8011 8.8457C31.79 8.8457 30.077 9.80136 28.4279 11.5809V8.94419H26.7802L21.375 10.6917V11.5809L23.6817 13.2952V19.8211C23.6817 21.6006 22.9562 22.4578 21.375 22.5243V24.0735H30.5043V22.5243C28.8233 22.2595 28.4279 21.2385 28.4279 19.6893V12.9996C29.3516 12.3396 30.471 11.8457 31.4932 11.8457C33.0745 11.8457 33.8664 12.9996 33.8664 14.6142V19.7225C33.8664 21.3704 33.3393 22.294 31.8885 22.5243V24.0735H40.7543V22.5243C39.008 22.1942 38.6127 21.5686 38.6127 19.1302V19.1289Z" fill="white"/>
<path d="M49.4504 8.8457C43.7816 8.8457 41.0132 12.8667 41.0132 16.9209C41.0132 21.4036 44.2434 24.4356 49.0883 24.4356C54.9221 24.4356 57.427 20.6782 57.427 16.6573C57.427 13.3285 55.3839 8.8457 49.4504 8.8457ZM49.4836 22.8852C47.4726 22.8852 46.1215 21.1388 46.1215 15.6671C46.1215 12.7004 46.6486 10.3938 48.9898 10.3938C51.3309 10.3938 52.3186 13.3925 52.3186 18.5674C52.3186 21.3026 51.2645 22.8852 49.4849 22.8852H49.4836Z" fill="white"/>
<path d="M82.7918 8.8457C77.1227 8.8457 74.3542 12.8667 74.3542 16.9209C74.3542 21.4036 77.5845 24.4356 82.4297 24.4356C88.2632 24.4356 90.7678 20.6782 90.7678 16.6573C90.7678 13.3285 88.7247 8.8457 82.7918 8.8457ZM82.8249 22.8852C80.8136 22.8852 79.4627 21.1388 79.4627 15.6671C79.4627 12.7004 79.9897 10.3938 82.3311 10.3938C84.6716 10.3938 85.66 13.3925 85.66 18.5674C85.66 21.3026 84.6045 22.8852 82.8249 22.8852Z" fill="white"/>
<path d="M17.6234 20.2497V1.23242H16.5692L10.2736 2.78169V3.83587L12.877 5.18686V20.315C11.8894 21.0736 11.0642 21.4024 10.2403 21.4024C7.99895 21.4024 6.31791 19.0292 6.31791 15.8654C6.31791 12.7017 7.83392 10.3937 9.94355 10.3937C10.3992 10.3937 10.8007 10.4985 11.1529 10.6819V9.03783C10.5495 8.90116 9.97677 8.84574 9.28342 8.84574C4.63687 8.84574 1.17627 12.3728 1.17627 17.1179C1.17627 21.2041 3.978 24.4344 7.50387 24.4344C9.31672 24.4344 11.0963 23.6106 12.8758 21.8962V24.3679H14.3598L20.095 23.6758V21.8962C18.5125 22.1266 17.6234 21.5662 17.6234 20.2485V20.2497Z" fill="white"/>
<path d="M64.6024 13.3286C63.7452 11.6476 63.9435 10.8569 65.7231 10.7904V9.24121H57.1208V10.7904C58.0765 10.7904 58.4718 11.4161 59.1307 12.735L64.9976 24.4358H66.9422L68.6147 21.1366L67.6677 19.2929L64.6024 13.3274V13.3286Z" fill="white"/>
<path d="M74.72 9.24023H68.9195V10.7895C71.2262 10.8893 71.0291 12.7673 69.9736 14.8104L68.5869 17.5038L69.5266 19.3338L72.8727 12.7341C73.598 11.2833 74.1584 10.9878 74.7188 10.7895V9.24023H74.72Z" fill="white"/>
</g>
</svg>
