<svg width="40" height="40" viewBox="0 0 40 40" fill="none" xmlns="http://www.w3.org/2000/svg">
<rect width="40" height="40" fill="#FEFEFE" fill-opacity="0.1"/>
<path d="M26 11.5057C26 11.3732 25.9473 11.246 25.8536 11.1523C25.7598 11.0586 25.6326 11.0059 25.5 11.0059H23C21.7411 10.9432 20.5086 11.3812 19.5717 12.2241C18.6348 13.067 18.0698 14.2463 18 15.5044V18.2035H15.5C15.3674 18.2035 15.2402 18.2562 15.1464 18.3499C15.0527 18.4437 15 18.5708 15 18.7034V21.3025C15 21.4351 15.0527 21.5622 15.1464 21.656C15.2402 21.7497 15.3674 21.8024 15.5 21.8024H18V28.5002C18 28.6327 18.0527 28.7599 18.1464 28.8536C18.2402 28.9473 18.3674 29 18.5 29H21.5C21.6326 29 21.7598 28.9473 21.8536 28.8536C21.9473 28.7599 22 28.6327 22 28.5002V21.8024H24.62C24.7312 21.804 24.8397 21.7685 24.9285 21.7015C25.0172 21.6345 25.0811 21.5398 25.11 21.4325L25.83 18.8333C25.8499 18.7595 25.8526 18.6821 25.8378 18.607C25.8231 18.532 25.7913 18.4613 25.7449 18.4005C25.6985 18.3396 25.6388 18.2902 25.5704 18.2561C25.5019 18.222 25.4265 18.204 25.35 18.2035H22V15.5044C22.0249 15.257 22.1411 15.0277 22.326 14.8613C22.5109 14.695 22.7512 14.6035 23 14.6047H25.5C25.6326 14.6047 25.7598 14.5521 25.8536 14.4583C25.9473 14.3646 26 14.2375 26 14.1049V11.5057Z" fill="#FEFEFE"/>
</svg>
