<svg width="36" height="36" viewBox="0 0 36 36" fill="none" xmlns="http://www.w3.org/2000/svg">
<rect x="0.5" y="0.5" width="35" height="35" stroke="#FEFEFE" stroke-opacity="0.25"/>
<path d="M24 9.50575C24 9.37318 23.9473 9.24605 23.8536 9.15231C23.7598 9.05857 23.6326 9.00591 23.5 9.00591H21C19.7411 8.94322 18.5086 9.38118 17.5717 10.2241C16.6348 11.067 16.0698 12.2463 16 13.5044V16.2035H13.5C13.3674 16.2035 13.2402 16.2562 13.1464 16.3499C13.0527 16.4437 13 16.5708 13 16.7034V19.3025C13 19.4351 13.0527 19.5622 13.1464 19.656C13.2402 19.7497 13.3674 19.8024 13.5 19.8024H16V26.5002C16 26.6327 16.0527 26.7599 16.1464 26.8536C16.2402 26.9473 16.3674 27 16.5 27H19.5C19.6326 27 19.7598 26.9473 19.8536 26.8536C19.9473 26.7599 20 26.6327 20 26.5002V19.8024H22.62C22.7312 19.804 22.8397 19.7685 22.9285 19.7015C23.0172 19.6345 23.0811 19.5398 23.11 19.4325L23.83 16.8333C23.8499 16.7595 23.8526 16.6821 23.8378 16.607C23.8231 16.532 23.7913 16.4613 23.7449 16.4005C23.6985 16.3396 23.6388 16.2902 23.5704 16.2561C23.5019 16.222 23.4265 16.204 23.35 16.2035H20V13.5044C20.0249 13.257 20.1411 13.0277 20.326 12.8613C20.5109 12.695 20.7512 12.6035 21 12.6047H23.5C23.6326 12.6047 23.7598 12.5521 23.8536 12.4583C23.9473 12.3646 24 12.2375 24 12.1049V9.50575Z" fill="#FEFEFE"/>
</svg>
