<svg width="40" height="40" viewBox="0 0 40 40" fill="none" xmlns="http://www.w3.org/2000/svg">
<rect width="40" height="40" fill="#FEFEFE" fill-opacity="0.1"/>
<path d="M24 10C27.3123 10 30 12.6877 30 16V24C30 27.3123 27.3123 30 24 30H16C12.6877 30 10 27.3123 10 24V16C10 12.6877 12.6877 10 16 10H24ZM16 12C13.7923 12 12 13.7923 12 16V24C12 26.2077 13.7923 28 16 28H24C26.2077 28 28 26.2077 28 24V16C28 13.7923 26.2077 12 24 12H16ZM20 15C22.7623 15 25 17.2377 25 20C25 22.7623 22.7623 25 20 25C17.2377 25 15 22.7623 15 20C15 17.2377 17.2377 15 20 15ZM20 17C18.3423 17 17 18.3423 17 20C17 21.6577 18.3423 23 20 23C21.6577 23 23 21.6577 23 20C23 18.3423 21.6577 17 20 17ZM25 13.5C25.8284 13.5 26.5 14.1716 26.5 15C26.5 15.8284 25.8284 16.5 25 16.5C24.1716 16.5 23.5 15.8284 23.5 15C23.5 14.1716 24.1716 13.5 25 13.5Z" fill="#FEFEFE"/>
</svg>
