<svg width="24" height="24" viewBox="0 0 24 24" fill="none" xmlns="http://www.w3.org/2000/svg">
<path fill-rule="evenodd" clip-rule="evenodd" d="M4.42983 2H7.91138C8.05297 2 8.1912 2.04398 8.30762 2.12607C8.42404 2.20816 8.51311 2.32445 8.56295 2.45944L9.91436 6.11794C9.9589 6.23892 9.97013 6.37001 9.94684 6.49702L9.26928 10.1952C10.1018 12.188 11.4765 13.5276 13.7551 14.7291L17.3425 14.0201C17.4699 13.9951 17.6018 14.0069 17.723 14.0541L21.3262 15.4533C21.4579 15.5044 21.5712 15.595 21.6513 15.7132C21.7313 15.8313 21.7743 15.9714 21.7745 16.115V19.5031C21.7745 21.0403 20.4453 22.2872 18.8897 21.9421C16.056 21.3144 10.8054 19.7177 7.12801 15.9723C3.60469 12.3847 2.42406 7.42914 2.02774 4.75096C1.80034 3.22139 3.00417 2 4.42983 2Z" fill="#FEFEFE"/>
</svg>
