<svg width="140" height="57" viewBox="0 0 140 57" fill="none" xmlns="http://www.w3.org/2000/svg">
<g opacity="0.3">
<path d="M26.2484 16.2561H33.8701C34.3698 16.2561 34.4948 16.2561 34.4948 16.7559C34.6197 18.0053 34.7447 19.2548 34.6197 20.5042C34.3698 23.5029 33.7451 26.3766 31.9959 28.7506C31.3128 29.7585 30.5215 30.6747 29.6219 31.4994C28.7223 32.324 27.7436 33.032 26.6857 33.6234C25.6195 34.2232 24.5034 34.6896 23.3372 35.0228C22.1627 35.3643 20.9674 35.5642 19.7513 35.6226H16.6277C15.828 35.5642 15.0409 35.4476 14.2662 35.2727C13.4832 35.1061 12.7169 34.8854 11.9672 34.6105C11.2176 34.3356 10.4887 34.0108 9.78068 33.6359C9.08099 33.2611 8.40629 32.8405 7.75658 32.374C6.93194 31.7992 6.16145 31.162 5.4451 30.4623C4.72875 29.7626 4.0707 29.0088 3.47097 28.2008C2.87956 27.3929 2.35479 26.5432 1.89666 25.652C1.44686 24.7607 1.06786 23.8361 0.759665 22.8782C0.61806 22.445 0.49728 22.0077 0.397325 21.5663C0.297369 21.1248 0.214072 20.6791 0.147435 20.2293C0.0891274 19.7795 0.0474792 19.3256 0.0224903 18.8674C-0.00249871 18.4176 -0.00666383 17.9637 0.00999549 17.5055C0.00999549 14.3819 0.88461 11.3832 2.50889 8.75941C3.44181 7.20176 4.58298 5.81487 5.93238 4.59874C7.29012 3.39094 8.79362 2.40804 10.4429 1.65004C12.0922 0.892043 13.8164 0.392263 15.6156 0.150703C17.4148 -0.0825278 19.2099 -0.0450441 21.0007 0.263153C24.1244 0.762933 26.8731 2.01238 29.2471 4.0115L29.9968 4.63622C30.1217 4.76117 30.1217 4.88611 29.9968 5.136L26.9981 8.00974C26.8731 8.25963 26.7482 8.25963 26.6233 8.00974C26.0818 7.53495 25.5029 7.1143 24.8865 6.74779C24.2701 6.37296 23.6287 6.0606 22.9624 5.81071C22.2877 5.55249 21.5963 5.35674 20.8883 5.22347C20.1803 5.09019 19.4681 5.01939 18.7517 5.01106C17.2774 4.9111 15.828 5.06104 14.4036 5.46086C12.9793 5.86901 11.6674 6.50623 10.4679 7.37252C9.26841 8.24713 8.25219 9.29667 7.41923 10.5211C6.59459 11.7456 5.99902 13.0742 5.63251 14.5069C5.34931 15.5314 5.19104 16.5768 5.15772 17.643C5.12441 18.7092 5.21603 19.7629 5.4326 20.8041C5.64917 21.8453 5.98652 22.849 6.44466 23.8153C6.89446 24.7815 7.45671 25.6769 8.13141 26.5016C8.80611 27.3012 9.56411 28.0051 10.4054 28.6131C11.255 29.2212 12.163 29.7168 13.1292 30.1C14.1038 30.4832 15.1075 30.7414 16.1404 30.8747C17.1816 30.9996 18.2186 30.9996 19.2515 30.8747C19.8346 30.8497 20.4177 30.783 21.0007 30.6747C21.5755 30.5581 22.1377 30.3999 22.6875 30.1999C23.2372 30 23.7703 29.7585 24.2868 29.4753C24.7949 29.1837 25.2822 28.8589 25.7486 28.5007C27.4979 27.2512 28.6224 25.502 29.2471 23.253L29.6219 21.7537C29.6219 21.2539 29.6219 21.1289 29.1221 21.1289H18.3769C18.127 21.1289 18.0021 21.129 18.0021 20.7541V16.7559C18.0021 16.506 18.0021 16.381 18.3769 16.381H26.2484V16.2561ZM108.462 24.6274V34.1232C108.462 36.1223 108.087 38.1214 107.213 40.1206C106.929 40.7869 106.571 41.4117 106.138 41.9947C105.713 42.5778 105.222 43.1026 104.664 43.569C104.114 44.0355 103.514 44.4312 102.865 44.756C102.223 45.0809 101.549 45.3266 100.84 45.4932C100.407 45.6098 99.9659 45.7056 99.5161 45.7806C99.0663 45.8472 98.6165 45.8889 98.1667 45.9055C97.7169 45.9305 97.2671 45.9305 96.8173 45.9055C96.3592 45.8722 95.9093 45.8181 95.4679 45.7431C93.4688 45.3683 91.7195 44.4936 90.2202 43.1192C89.9453 42.861 89.6829 42.5945 89.433 42.3196C89.1832 42.0364 88.9458 41.7449 88.7209 41.445C88.5043 41.1368 88.3002 40.8203 88.1086 40.4954C87.9254 40.1706 87.7546 39.8374 87.5964 39.4958C87.4714 39.246 87.4714 39.121 87.7213 39.121L91.2197 37.4967C91.7195 37.2468 91.7195 37.2468 91.9694 37.7466C92.1693 38.1631 92.4109 38.5504 92.6941 38.9086C92.9773 39.2751 93.298 39.6041 93.6562 39.8957C94.0144 40.1872 94.3975 40.4371 94.8057 40.6453C95.2138 40.8536 95.6428 41.0118 96.0926 41.1201C96.9256 41.3867 97.7794 41.4616 98.654 41.345C99.5202 41.2201 100.32 40.916 101.053 40.4329C101.778 39.9415 102.365 39.3209 102.815 38.5713C103.256 37.8133 103.514 36.997 103.589 36.1223V32.9987L103.339 33.1237C102.465 34.2482 101.215 34.8729 99.9659 35.2477C98.7164 35.6226 97.2171 35.7475 95.8427 35.4976C94.4683 35.2644 93.1772 34.7938 91.9694 34.0857C90.77 33.3694 89.7329 32.4656 88.8583 31.3744C88.0003 30.2749 87.3631 29.0588 86.9466 27.726C86.5385 26.385 86.3802 25.0189 86.4718 23.6278C86.5302 22.5616 86.7301 21.5204 87.0716 20.5042C87.4214 19.488 87.8962 18.5426 88.496 17.668C89.104 16.785 89.8204 15.9979 90.645 15.3065C91.4696 14.6235 92.3692 14.0654 93.3438 13.6323C96.0926 12.3828 98.8414 12.3828 101.715 13.7572C102.215 14.132 102.84 14.5069 103.214 15.0066L103.589 15.2565L103.714 14.8817V13.6323C103.714 13.5073 103.714 13.3824 103.964 13.3824H108.087C108.462 13.3824 108.462 13.6323 108.462 13.7572V24.7523V24.6274ZM91.4696 24.1276C91.4613 24.4525 91.4738 24.7773 91.5071 25.1022C91.5405 25.4271 91.5904 25.7477 91.6571 26.0643C91.732 26.3808 91.8278 26.689 91.9444 26.9889C92.0611 27.2971 92.1943 27.5928 92.3443 27.876C92.5858 28.3341 92.8815 28.7589 93.2314 29.1504C93.5895 29.5336 93.9852 29.8668 94.4183 30.15C94.8598 30.4332 95.3263 30.6581 95.8177 30.8247C96.3175 30.9913 96.8256 31.0912 97.342 31.1245C99.716 31.3744 101.59 30.3749 102.84 28.3758C104.089 26.6265 104.214 24.6274 103.839 22.6283C103.589 20.7541 102.59 19.2548 101.215 18.2552C100.582 17.8387 99.8951 17.5472 99.1537 17.3806C98.4124 17.2223 97.6669 17.2015 96.9172 17.3181C96.1676 17.4347 95.4637 17.6805 94.8057 18.0553C94.1476 18.4301 93.577 18.9133 93.0939 19.5047C92.8357 19.8295 92.6066 20.1752 92.4067 20.5417C92.2068 20.9082 92.0361 21.2872 91.8945 21.6787C91.7529 22.0702 91.6487 22.4742 91.5821 22.8907C91.5071 23.2988 91.4696 23.7111 91.4696 24.1276ZM72.8529 35.6226C71.341 35.66 69.8417 35.3852 68.4423 34.8229C67.0429 34.2732 65.7685 33.436 64.694 32.374C63.6194 31.312 62.7698 30.05 62.1951 28.6506C61.6328 27.2637 61.3454 25.7644 61.3579 24.2526C61.3079 22.7282 61.5703 21.2039 62.1201 19.7795C62.6823 18.3552 63.532 17.0557 64.6065 15.9687C65.681 14.8817 66.9679 14.0196 68.3798 13.4448C69.8042 12.8701 71.3285 12.5952 72.8529 12.6327C74.4147 12.5827 75.9765 12.8451 77.4258 13.4323C78.8752 14.0071 80.1871 14.8817 81.2866 16.0062C82.3737 17.1182 83.2233 18.4551 83.773 19.917C84.3228 21.3788 84.5602 22.9407 84.4727 24.5025C84.4561 26.0185 84.1479 27.4678 83.5481 28.8505C82.9484 30.2249 82.0863 31.4744 80.9993 32.5114C79.9247 33.5485 78.6378 34.3481 77.2384 34.8854C75.8224 35.4268 74.3605 35.6725 72.8529 35.6226ZM79.35 24.1276V22.6283C78.6003 20.1294 77.2259 18.1303 74.6021 17.5055C74.0773 17.3306 73.5359 17.2307 72.9778 17.2057C72.4197 17.1807 71.87 17.2348 71.3285 17.3681C70.7788 17.5014 70.2623 17.7055 69.7792 17.9803C69.2961 18.2635 68.8629 18.6051 68.4798 19.0049C67.2303 20.1294 66.7306 21.5038 66.4807 23.1281C66.4307 23.4613 66.4057 23.7986 66.4057 24.1401C66.3974 24.4816 66.414 24.8232 66.4557 25.1647C66.4973 25.4979 66.564 25.831 66.6556 26.1642C66.7389 26.4891 66.8472 26.8098 66.9804 27.1263C67.3636 28.0759 67.9384 28.8839 68.7047 29.5502C69.4668 30.1999 70.3664 30.6747 71.341 30.9246C72.3156 31.162 73.3401 31.1745 74.3147 30.9496C75.3059 30.7247 76.193 30.2832 76.976 29.6252C77.3842 29.292 77.7465 28.9213 78.0631 28.5132C78.3879 28.0967 78.6586 27.6511 78.8752 27.1763C79.0918 26.6932 79.25 26.1975 79.35 25.6894C79.4499 25.173 79.4916 24.6524 79.4749 24.1276H79.35ZM47.8639 35.6226C46.3312 35.6559 44.8527 35.3893 43.4283 34.8229C42.0165 34.2482 40.7295 33.411 39.655 32.3365C38.5805 31.262 37.7433 29.975 37.1686 28.5632C36.6022 27.1388 36.3356 25.6603 36.3689 24.1276C36.3689 17.7554 41.3667 12.8826 47.614 12.7576C49.155 12.6993 50.6418 12.9367 52.0745 13.4698C53.4989 13.9946 54.7983 14.8192 55.8853 15.8688C56.9849 16.9183 57.8595 18.1802 58.4592 19.5796C59.0589 20.9957 59.3588 22.47 59.3588 24.0027C59.4088 25.527 59.1464 27.0513 58.5966 28.4757C58.0344 29.9001 57.1848 31.1995 56.1102 32.2865C55.0357 33.3736 53.7488 34.2357 52.3369 34.8104C50.9125 35.3852 49.3882 35.66 47.8639 35.6226ZM41.3667 24.3775L41.4917 26.0018C42.2414 28.7506 43.9906 30.4998 46.7394 30.9996C49.2383 31.4994 51.7372 30.3749 53.1116 28.2508C53.4114 27.8093 53.6572 27.3387 53.8487 26.8389C54.0486 26.3391 54.1903 25.8269 54.2736 25.3021C54.3568 24.769 54.386 24.2359 54.361 23.7028C54.336 23.1697 54.2527 22.6449 54.1111 22.1285C53.9862 21.5204 53.7738 20.9415 53.4739 20.3918C53.174 19.8503 52.8034 19.3631 52.3619 18.9299C51.9121 18.4968 51.4123 18.1386 50.8626 17.8554C50.3045 17.5639 49.7214 17.3639 49.1133 17.2557C46.7394 16.7559 44.7403 17.5055 43.116 19.2548C42.7994 19.588 42.5246 19.9503 42.2913 20.3418C42.0581 20.725 41.8624 21.1331 41.7041 21.5663C41.5542 21.9994 41.45 22.4409 41.3917 22.8907C41.3334 23.3405 41.3251 23.7944 41.3667 24.2526V24.3775ZM129.453 12.7576C132.202 12.7576 134.326 13.5073 136.2 15.0066C137.699 16.2561 138.699 17.8804 139.448 19.7546L139.948 21.004C140.073 21.1289 139.948 21.2539 139.823 21.3788L136.325 22.8782L129.328 25.7519L124.955 27.5011C124.705 27.5011 124.58 27.751 124.83 28.0009C125.013 28.3674 125.238 28.7131 125.505 29.038C125.763 29.3628 126.054 29.6544 126.379 29.9126C126.704 30.1708 127.05 30.3915 127.416 30.5748C127.791 30.758 128.178 30.8996 128.578 30.9996C129.245 31.1745 129.919 31.2453 130.602 31.212C131.285 31.1704 131.948 31.0287 132.589 30.7872C133.222 30.5373 133.805 30.1958 134.338 29.7626C134.871 29.3295 135.325 28.8256 135.7 28.2508C135.825 28.0009 135.95 28.0009 136.2 28.2508L139.199 30.2499C139.823 30.6248 139.823 30.6248 139.324 31.1245C138.391 32.3407 137.254 33.3319 135.913 34.0982C134.588 34.8479 133.126 35.3352 131.614 35.5226C130.115 35.71 128.578 35.5851 127.104 35.1728C125.642 34.7729 124.28 34.0732 123.081 33.1237C122.797 32.8988 122.527 32.6614 122.269 32.4115C122.019 32.1533 121.781 31.8825 121.556 31.5993C121.34 31.3161 121.14 31.0204 120.957 30.7122C120.765 30.404 120.598 30.0833 120.457 29.7501C120.215 29.292 120.003 28.8172 119.82 28.3258C119.636 27.8427 119.486 27.347 119.37 26.8389C119.253 26.3308 119.174 25.8185 119.132 25.3021C119.082 24.7857 119.066 24.2692 119.082 23.7528C119.082 20.6292 120.207 17.7554 122.456 15.5064C122.914 15.0733 123.41 14.686 123.943 14.3444C124.476 13.9946 125.038 13.7031 125.63 13.4698C126.221 13.2366 126.825 13.0617 127.441 12.9451C128.066 12.8201 128.695 12.7576 129.328 12.7576H129.453ZM123.955 23.1281V23.5029C123.955 23.8777 123.955 23.8777 124.33 23.7528L126.954 22.6283L133.701 20.0044C134.451 19.6296 134.576 19.6296 134.076 18.8799H133.951C133.668 18.5551 133.351 18.2677 133.001 18.0178C132.643 17.7763 132.264 17.5847 131.864 17.4431C131.456 17.3015 131.036 17.214 130.602 17.1807C130.178 17.1474 129.753 17.1724 129.328 17.2557C128.612 17.3723 127.933 17.6055 127.291 17.9553C126.658 18.3135 126.104 18.7633 125.63 19.3048C125.146 19.8545 124.772 20.4667 124.505 21.1414C124.239 21.8245 124.097 22.5283 124.08 23.253L123.955 23.1281ZM111.836 18.0053V1.63755C111.836 1.26271 111.836 1.13777 112.335 1.13777H116.459C116.709 1.13777 116.833 1.26271 116.833 1.63755V34.4981C116.833 34.8729 116.833 34.8729 116.459 34.8729H112.21C111.961 34.8729 111.836 34.8729 111.836 34.4981V18.0053ZM7.2568 49.9912V44.6186C7.2568 44.2438 7.2568 44.2438 7.63163 44.2438H13.0043C14.6285 44.2438 16.0029 45.1184 16.5027 46.6177C17.1274 48.242 16.6277 50.3661 15.0034 51.1157L14.5036 51.3656C14.2537 51.3656 14.2537 51.6155 14.3787 51.8654L16.6277 55.6137C16.7526 55.8636 16.7526 55.9886 16.5027 55.9886H14.2537C14.0038 55.9886 13.8789 55.8636 13.7539 55.6137L11.7548 52.1153C11.7548 51.8654 11.5049 51.7404 11.255 51.7404H10.1305C9.88064 51.7404 9.7557 51.8654 9.7557 52.1153V55.6137C9.7557 55.8636 9.7557 55.9886 9.38086 55.9886H7.63163C7.38174 55.9886 7.2568 55.8636 7.2568 55.4888V50.1162V49.9912ZM11.38 46.4928H10.1305C9.88064 46.4928 9.7557 46.4928 9.7557 46.7426V49.2415C9.7557 49.4914 9.7557 49.6164 10.0056 49.6164H12.6294C13.504 49.6164 14.1288 48.8667 14.1288 47.9921C14.1288 47.1175 13.504 46.4928 12.6294 46.4928H11.38ZM53.9862 52.8649C54.2361 52.8649 54.2361 52.4901 54.361 52.2402L55.7354 47.7422C55.8603 47.4923 55.9853 47.4923 56.2352 47.4923H57.4846C57.7345 47.4923 57.8595 47.4923 57.8595 47.7422L59.4837 52.6151C59.4837 52.6151 59.4837 52.8649 59.7336 52.9899L60.4833 50.3661L61.233 47.7422C61.233 47.4923 61.233 47.4923 61.4829 47.4923H63.357C63.1821 48.1587 63.003 48.8251 62.8198 49.4914C62.6449 50.1578 62.4699 50.8242 62.295 51.4906C62.1118 52.1569 61.9327 52.8233 61.7577 53.4897C61.5828 54.156 61.4079 54.8224 61.233 55.4888C60.9831 55.8636 60.8581 55.9886 60.6083 55.9886H58.859C58.6091 55.9886 58.6091 55.8636 58.4842 55.6137L56.9849 50.6159L56.8599 50.491L56.61 50.6159L55.1107 55.6137C55.1107 55.8636 54.9857 55.9886 54.7358 55.9886C54.5526 55.9636 54.3652 55.9428 54.1736 55.9261C53.9903 55.9011 53.8029 55.8803 53.6113 55.8636C53.4281 55.8386 53.2407 55.8178 53.0491 55.8012C52.8658 55.7762 52.6784 55.7553 52.4868 55.7387L51.2374 51.7404L49.9879 47.7422C49.9879 47.4923 49.9879 47.4923 50.3628 47.4923C50.5294 47.5173 50.696 47.5423 50.8626 47.5673C51.0291 47.5839 51.1957 47.6048 51.3623 47.6298C51.5289 47.6464 51.6955 47.6672 51.8621 47.6922C52.0287 47.7089 52.1953 47.7255 52.3619 47.7422L53.8612 52.8649H53.9862ZM23.1248 52.4901H20.2511C20.0012 52.4901 19.8762 52.4901 20.0012 52.74C20.0845 52.9732 20.2011 53.1856 20.351 53.3772C20.501 53.5771 20.6759 53.7479 20.8758 53.8895C21.0757 54.0394 21.2923 54.1519 21.5255 54.2268C21.7587 54.3101 22.0003 54.356 22.2502 54.3643C22.9998 54.3643 23.7495 54.2393 24.3742 53.7396C24.6241 53.6146 24.7491 53.6146 24.874 53.7396L25.4987 54.7391C25.6237 54.989 25.4987 55.114 25.4987 55.2389C25.3155 55.3638 25.1239 55.4763 24.924 55.5763C24.7241 55.6845 24.52 55.772 24.3118 55.8386C24.0952 55.9136 23.8786 55.9761 23.6621 56.0261C23.4455 56.0677 23.2248 56.0969 22.9998 56.1135C21.3756 56.3634 19.8762 56.1135 18.7517 54.8641C17.7522 53.8645 17.5023 52.4901 17.5023 51.1157C17.7522 49.4914 18.6268 48.242 20.1261 47.4923C22.625 46.4928 25.7486 47.6173 26.2484 50.9908V51.9903C26.2484 52.2402 26.2484 52.3652 25.8736 52.3652H23.1248V52.4901ZM21.8753 50.8658H23.3747C24.1244 50.8658 24.2493 50.8658 23.8745 49.9912C23.3747 48.9917 22.3751 48.7418 21.3756 48.9917C20.6259 49.2415 20.1261 49.7413 20.0012 50.3661C19.8762 50.7409 20.0012 50.8658 20.2511 50.8658H22.0003H21.8753ZM44.9901 56.2385C44.5737 56.2551 44.1697 56.2051 43.7782 56.0885C43.3784 55.9802 43.0077 55.8053 42.6662 55.5638C42.333 55.3305 42.0414 55.0473 41.7916 54.7141C41.55 54.3726 41.3667 54.0061 41.2418 53.6146C40.2422 51.2407 40.9919 48.6168 43.3659 47.4923C45.7398 46.4928 48.6135 47.4923 49.2383 50.3661L49.4882 51.9903C49.4882 52.2402 49.3632 52.3652 49.1133 52.3652H43.6158C43.116 52.3652 43.116 52.3652 43.2409 52.8649C43.6157 53.8645 44.4904 54.3643 45.365 54.3643C46.2396 54.3643 46.9893 54.2393 47.614 53.7396H47.9888L48.7385 54.7391L48.6135 55.2389C47.7389 55.8636 46.6144 56.2385 44.8652 56.2385H44.9901ZM45.1151 50.8658H46.9893C47.2392 50.8658 47.3641 50.7409 47.2392 50.491C47.2392 50.1162 46.9893 49.8663 46.7394 49.6164C46.2396 48.9917 45.4899 48.8667 44.7403 48.9917C43.9906 48.9917 43.2409 49.7413 43.116 50.491C43.116 50.7409 43.116 50.8658 43.4908 50.8658H44.9901H45.1151ZM67.7301 47.1175C68.9796 47.1175 70.1041 47.4923 70.9787 48.117C71.2286 48.242 71.3535 48.4919 71.1036 48.6168L70.6038 49.6164C70.4789 49.8663 70.354 49.8663 70.229 49.6164C69.4793 49.1166 68.7297 48.8667 67.7301 48.8667C67.4802 48.8667 67.1054 48.8667 66.8555 49.1166C66.6056 49.3665 66.4807 49.4914 66.4807 49.7413C66.4807 50.1162 66.7306 50.2411 66.9804 50.2411L68.1049 50.6159C68.7297 50.6159 69.3544 50.8658 69.9791 51.1157C70.2123 51.199 70.4248 51.3156 70.6163 51.4656C70.8162 51.6155 70.987 51.7904 71.1286 51.9903C71.2785 52.1902 71.391 52.4068 71.466 52.64C71.5493 52.8733 71.5951 53.1148 71.6034 53.3647C71.6034 54.6142 71.1036 55.3638 70.1041 55.8636C69.8875 55.9553 69.6668 56.0344 69.4419 56.101C69.217 56.1677 68.9879 56.2176 68.7547 56.251C68.5214 56.2759 68.2882 56.2884 68.055 56.2884C67.8217 56.2884 67.5885 56.2718 67.3553 56.2385C66.3557 56.2385 65.3562 55.8636 64.3566 55.2389C64.1067 54.989 63.9818 54.8641 64.3566 54.4892L64.8564 53.6146C64.8564 53.3647 65.1063 53.3647 65.2312 53.6146C65.4145 53.7396 65.606 53.852 65.806 53.952C66.0059 54.0603 66.21 54.1477 66.4182 54.2144C66.6348 54.2893 66.8513 54.3518 67.0679 54.4018C67.2845 54.4434 67.5052 54.4726 67.7301 54.4892C68.2299 54.4892 68.6047 54.4892 68.9796 54.2393C69.3544 54.1144 69.4793 53.8645 69.4793 53.6146C69.4793 53.2398 69.2295 53.1148 68.9796 52.9899L67.2303 52.4901L65.731 52.1153C65.5394 52.0237 65.3645 51.907 65.2062 51.7654C65.048 51.6238 64.9064 51.4656 64.7814 51.2906C64.6648 51.1157 64.569 50.9283 64.494 50.7284C64.4191 50.5285 64.3733 50.3244 64.3566 50.1162C64.3399 49.8829 64.3524 49.6497 64.3941 49.4165C64.4441 49.1832 64.5232 48.9583 64.6315 48.7418C64.7481 48.5335 64.8855 48.3461 65.0438 48.1795C65.2104 48.0046 65.3978 47.8588 65.606 47.7422C66.2308 47.3674 67.1054 47.1175 67.7301 47.2424V47.1175Z" fill="#FEFEFE"/>
<path d="M77.4756 55.4889L77.7255 52.99L77.6006 52.3653L75.8513 50.6161C75.8513 50.6161 75.6014 50.4911 75.7264 50.2412H75.9763C76.2262 50.1663 76.4761 50.0913 76.726 50.0163C76.9758 49.9497 77.2257 49.8789 77.4756 49.8039C77.7255 49.729 77.9754 49.654 78.2253 49.579C78.4752 49.5124 78.7251 49.4416 78.975 49.3666L80.2244 47.1176L80.3494 46.8677L80.5992 47.1176L81.8487 49.2417C81.8487 49.4916 82.0986 49.6165 82.3485 49.7415L84.8474 50.1163L85.0973 50.2412C85.0973 50.3662 85.0973 50.4911 84.8474 50.6161C84.6891 50.8243 84.535 51.0326 84.3851 51.2408C84.2268 51.449 84.0685 51.6573 83.9103 51.8655C83.7604 52.0738 83.6062 52.282 83.448 52.4902C83.2897 52.6985 83.1315 52.9067 82.9732 53.115L83.348 55.6139C83.348 55.8638 83.348 55.9887 83.0981 55.8638L80.7242 54.6143C80.6659 54.581 80.6076 54.556 80.5493 54.5393C80.4826 54.5227 80.416 54.5143 80.3494 54.5143C80.2827 54.5143 80.2161 54.5227 80.1494 54.5393C80.0911 54.556 80.0328 54.581 79.9745 54.6143L77.7255 55.8638C77.4756 55.8638 77.3507 55.8638 77.4756 55.4889ZM88.7207 55.4889L89.0955 52.99C89.0955 52.7401 89.0955 52.6152 88.8456 52.3653L87.0964 50.4911C87.0964 50.4911 86.9714 50.4911 87.0964 50.2412H87.2213L89.7202 49.7415C89.9701 49.7415 90.095 49.4916 90.22 49.3666L91.4694 47.1176C91.4694 46.9927 91.4694 46.8677 91.7193 46.8677L91.8443 47.1176L93.0937 49.2417L93.5935 49.7415C94.4681 49.7415 95.2178 49.9913 96.0924 50.1163L96.3423 50.2412L96.2174 50.6161L94.4681 52.3653C94.3432 52.6152 94.2182 52.7401 94.3432 52.99L94.5931 55.4889C94.5931 55.9887 94.5931 55.9887 94.2182 55.7388L92.0942 54.7392C92.0359 54.7059 91.9776 54.6809 91.9192 54.6643C91.8526 54.6476 91.786 54.6393 91.7193 54.6393C91.6527 54.6393 91.5861 54.6476 91.5194 54.6643C91.4611 54.6809 91.4028 54.7059 91.3445 54.7392L89.0955 55.7388C88.8456 55.8638 88.5957 55.9887 88.7207 55.4889ZM99.9657 55.4889C100.216 54.7393 100.216 53.8646 100.341 52.99L100.216 52.3653L98.4664 50.4911C98.4664 50.4911 98.2165 50.4911 98.3414 50.2412H98.5913L101.09 49.7415C101.34 49.7415 101.465 49.4916 101.59 49.3666L102.839 47.1176L102.964 46.8677C103.214 46.8677 103.214 46.9927 103.214 47.1176L104.464 49.2417C104.464 49.4916 104.714 49.6165 104.963 49.7415L107.462 50.1163L107.712 50.2412L107.587 50.6161L105.838 52.3653C105.588 52.6152 105.588 52.7401 105.588 52.99L105.963 55.4889C105.963 55.9887 105.963 55.9887 105.588 55.7388L103.339 54.7392C103.281 54.7059 103.223 54.6809 103.164 54.6643C103.098 54.6476 103.031 54.6393 102.964 54.6393C102.898 54.6393 102.831 54.6476 102.764 54.6643C102.706 54.6809 102.648 54.7059 102.59 54.7392L100.341 55.7388C100.091 55.8638 99.9657 55.8638 100.091 55.4889H99.9657ZM117.208 55.9887L114.709 54.7392C114.651 54.7059 114.593 54.6809 114.534 54.6643C114.468 54.6476 114.401 54.6393 114.334 54.6393C114.268 54.6393 114.201 54.6476 114.134 54.6643C114.076 54.6809 114.018 54.7059 113.96 54.7392L111.711 55.7388C111.336 55.9887 111.336 55.8638 111.336 55.6139C111.352 55.3556 111.369 55.0933 111.386 54.8267C111.402 54.5685 111.423 54.3103 111.448 54.0521C111.465 53.7938 111.486 53.5314 111.511 53.2649C111.536 53.0067 111.561 52.7485 111.586 52.4902L109.711 50.4911C109.711 50.4911 109.586 50.4911 109.711 50.3662L109.836 50.1163C110.711 50.1163 111.586 49.8664 112.335 49.7415C112.477 49.5249 112.623 49.3041 112.773 49.0792C112.914 48.8627 113.06 48.6461 113.21 48.4295C113.351 48.2046 113.497 47.9839 113.647 47.7673C113.789 47.5508 113.935 47.3342 114.084 47.1176C114.334 46.7428 114.334 46.7428 114.459 47.1176L115.709 49.3666L116.209 49.7415C117.083 49.7415 117.833 49.9913 118.707 50.1163L118.957 50.2412V50.6161L117.083 52.3653L116.958 52.99L117.208 55.4889V55.9887ZM128.578 55.8638L126.079 54.7392C126.013 54.6976 125.942 54.6643 125.867 54.6393C125.792 54.6143 125.717 54.6018 125.642 54.6018C125.567 54.6018 125.492 54.6143 125.417 54.6393C125.342 54.6643 125.271 54.6976 125.205 54.7392L123.08 55.7388C122.706 55.9887 122.581 55.8638 122.706 55.4889C122.714 55.239 122.722 54.9891 122.731 54.7392C122.739 54.4894 122.747 54.2395 122.756 53.9896C122.764 53.7397 122.776 53.4898 122.793 53.2399C122.801 52.99 122.814 52.7401 122.831 52.4902L121.206 50.4911L121.081 50.3662C121.081 50.1163 121.206 50.1163 121.331 50.1163C122.206 50.1163 122.956 49.8664 123.83 49.7415C124.08 49.7415 124.205 49.4916 124.33 49.3666L125.579 47.1176C125.704 46.7428 125.829 46.7428 125.954 47.1176L127.204 49.3666L127.703 49.7415L130.202 50.1163L130.452 50.2412L130.327 50.6161L128.578 52.3653L128.328 52.99L128.703 55.4889V55.9887L128.578 55.8638Z" fill="#F15D26"/>
<path d="M31.2461 55.9886H30.6213C30.2465 55.9886 29.9966 55.8637 29.8717 55.4888L26.748 47.8672C26.748 47.6173 26.748 47.4924 26.9979 47.4924H28.7472C28.9971 47.4924 29.122 47.4924 29.2469 47.7423L31.1211 52.865L31.2461 53.1149C31.496 53.1149 31.371 52.9899 31.496 52.865C31.6875 52.4152 31.875 51.9696 32.0582 51.5281C32.2498 51.0783 32.4414 50.6285 32.633 50.1787C32.8162 49.7289 32.9995 49.2832 33.1827 48.8418C33.3743 48.392 33.5617 47.9422 33.745 47.4924H35.4942C35.7441 47.4924 35.869 47.4924 35.7441 47.7423L33.4951 53.2398L32.6205 55.4888C32.4955 55.8637 32.3706 55.9886 31.9957 55.9886H31.2461ZM36.9935 51.6155V47.8672C36.9935 47.4924 36.9935 47.4924 37.2434 47.4924H38.8677C39.1176 47.4924 39.2425 47.4924 39.2425 47.7423C39.2175 48.4253 39.1967 49.1125 39.1801 49.8038C39.1551 50.4869 39.1342 51.1741 39.1176 51.8654C39.0926 52.5485 39.0718 53.2357 39.0551 53.927C39.0301 54.6101 39.0093 55.2972 38.9926 55.9886H37.2434C36.9935 55.9886 36.9935 55.8637 36.9935 55.6138V51.6155ZM39.3675 45.1184C39.3675 45.8681 38.7428 46.3679 38.118 46.3679C37.9348 46.4012 37.7515 46.397 37.5683 46.3554C37.3767 46.3054 37.2101 46.2221 37.0685 46.1055C36.9269 45.9805 36.8144 45.8348 36.7311 45.6682C36.6562 45.4932 36.6187 45.31 36.6187 45.1184C36.6187 44.3687 37.2434 43.869 37.9931 43.869C38.7428 43.869 39.2425 44.3687 39.2425 45.1184H39.3675Z" fill="#FEFEFE"/>
</g>
</svg>
