<svg width="86" height="13" viewBox="0 0 86 13" fill="none" xmlns="http://www.w3.org/2000/svg">
<path d="M2.6775 13L3.815 8.19342L0 4.96053L5.04 4.53289L7 0L8.96 4.53289L14 4.96053L10.185 8.19342L11.3225 13L7 10.4513L2.6775 13Z" fill="#F15D26"/>
<path d="M20.6775 13L21.815 8.19342L18 4.96053L23.04 4.53289L25 0L26.96 4.53289L32 4.96053L28.185 8.19342L29.3225 13L25 10.4513L20.6775 13Z" fill="#F15D26"/>
<path d="M38.6775 13L39.815 8.19342L36 4.96053L41.04 4.53289L43 0L44.96 4.53289L50 4.96053L46.185 8.19342L47.3225 13L43 10.4513L38.6775 13Z" fill="#F15D26"/>
<path d="M56.6775 13L57.815 8.19342L54 4.96053L59.04 4.53289L61 0L62.96 4.53289L68 4.96053L64.185 8.19342L65.3225 13L61 10.4513L56.6775 13Z" fill="#F15D26"/>
<path d="M74.6775 13L75.815 8.19342L72 4.96053L77.04 4.53289L79 0L80.96 4.53289L86 4.96053L82.185 8.19342L83.3225 13L79 10.4513L74.6775 13Z" fill="#F15D26"/>
</svg>
