<svg width="52" height="52" viewBox="0 0 52 52" fill="none" xmlns="http://www.w3.org/2000/svg">
<rect width="52" height="52" fill="#FEFEFE" fill-opacity="0.2"/>
<path d="M36.631 13.0556C37.9685 13.3189 38.9997 14.4705 39 15.9767V17.1858H35.4553V15.9477H37.7925C37.779 15.066 37.1625 14.3841 36.3212 14.2599C35.1666 14.4118 34.2927 15.3982 34.2926 16.5668V35.4332C34.2926 37.4162 32.6902 39 30.7468 39H17.2138C15.2704 39 13.668 37.4162 13.6679 35.4332V34.8142H17.1985V32.4855H18.4047V34.8142H28.4085V35.4332C28.4085 36.7044 29.4423 37.7617 30.7468 37.7619C32.0515 37.7619 33.0863 36.7045 33.0864 35.4332V16.5668C33.0864 15.6725 33.4139 14.8613 33.9498 14.2381H20.7443C19.4396 14.2381 18.4048 15.2955 18.4047 16.5668V18.7891H17.1985V16.5668C17.1985 14.5838 18.8009 13 20.7443 13H36.631V13.0556ZM14.9602 36.0523C15.2318 37.0299 16.1286 37.7619 17.2138 37.7619H28.0657C27.6566 37.2862 27.3715 36.7009 27.2587 36.0523H14.9602ZM21.2815 18.2039L23.1286 21.9472L28.4874 22.7319L24.6058 26.5211L25.52 31.8544L20.7443 29.3371L15.9674 31.8544L16.8804 26.5211L13 22.7319L18.3588 21.9472L20.7443 17.1121L21.2815 18.2039ZM19.293 22.7959L19.1516 23.0837L18.8406 23.1284L15.6364 23.5964L18.1809 26.081L18.1255 26.4075L17.5754 29.6139L20.7443 27.9454L23.9108 29.6139L23.363 26.4075L23.3065 26.081L23.5409 25.8525L25.8498 23.5964L22.648 23.1284L22.337 23.0837L22.1944 22.7959L20.7431 19.8531L19.293 22.7959Z" fill="#FEFEFE"/>
</svg>
