<svg width="52" height="52" viewBox="0 0 52 52" fill="none" xmlns="http://www.w3.org/2000/svg">
<rect width="52" height="52" fill="#FEFEFE" fill-opacity="0.2"/>
<path d="M13.3797 36.731C13.38 37.2503 13.8011 37.6701 14.3206 37.6704H37.6794C38.1998 37.6704 38.621 37.2497 38.6213 36.731V27.126H39.9521V36.731C39.9518 37.9828 38.9357 39 37.6794 39H14.3206C13.0669 38.9998 12.0482 37.985 12.0479 36.731V27.126H13.3797V36.731ZM28.1557 22.8047C28.5232 22.8047 28.8216 23.1026 28.8216 23.4695V26.7247C28.8214 28.2793 27.5581 29.5397 26.001 29.5397C24.4438 29.5397 23.1806 28.2793 23.1804 26.7247V23.4695C23.1804 23.1025 23.4787 22.8047 23.8463 22.8047C24.2138 22.8047 24.5122 23.1025 24.5122 23.4695V26.7247C24.5124 27.5454 25.1789 28.2111 26.001 28.2111C26.823 28.2111 27.4896 27.5454 27.4898 26.7247V23.4695C27.4898 23.1025 27.7882 22.8047 28.1557 22.8047ZM39.1462 18.658C40.1695 18.6582 40.9998 19.4871 41 20.5087V25.5548C41 25.9217 40.7016 26.2196 40.3341 26.2196H29.7255V24.89H39.6682V20.5087C39.668 20.221 39.4345 19.9878 39.1462 19.9876H12.8538C12.5655 19.9878 12.332 20.221 12.3318 20.5087V24.89H22.2745V26.2196H11.6659C11.2984 26.2196 11 25.9217 11 25.5548V20.5087C11.0002 19.4871 11.8305 18.6582 12.8538 18.658H39.1462ZM29.8985 13C31.3379 13.0001 32.5041 14.1653 32.5041 15.6024V17.7516H31.1733V15.6024C31.1733 14.8992 30.6028 14.3298 29.8985 14.3296H22.1025C21.3981 14.3296 20.8277 14.8991 20.8277 15.6024V17.7516H19.4959V15.6024C19.4959 14.1652 20.663 13 22.1025 13H29.8985Z" fill="#FEFEFE"/>
</svg>
