<svg width="20" height="27" viewBox="0 0 20 27" fill="none" xmlns="http://www.w3.org/2000/svg">
<path d="M10.0018 5.58484C7.56306 5.58484 5.57764 7.57282 5.57764 10.0147C5.57764 12.4566 7.56306 14.4446 10.0018 14.4446C12.4406 14.4446 14.4261 12.4566 14.4261 10.0147C14.4261 7.57282 12.4406 5.58484 10.0018 5.58484ZM10.0018 13.2287C8.23297 13.2287 6.79197 11.7879 6.79197 10.0147C6.79197 8.24156 8.23094 6.80073 10.0018 6.80073C11.7727 6.80073 13.2117 8.24156 13.2117 10.0147C13.2117 11.7879 11.7727 13.2287 10.0018 13.2287Z" fill="#F15D26"/>
<path d="M10.002 0C4.48694 0 0 4.49272 0 10.0149C0 18.2221 9.21271 26.3017 9.60332 26.6422C9.71666 26.7415 9.85832 26.7901 9.99999 26.7901C10.1417 26.7901 10.2833 26.7415 10.3967 26.6422C10.7893 26.3017 20 18.2221 20 10.0149C20 4.49272 15.5131 0 9.99798 0H10.002ZM10.002 25.3614C8.2372 23.7159 1.21433 16.7388 1.21433 10.0149C1.21433 5.16348 5.15685 1.21589 10.002 1.21589C14.8472 1.21589 18.7897 5.16348 18.7897 10.0149C18.7897 16.7367 11.7668 23.7159 10.002 25.3614Z" fill="#F15D26"/>
</svg>
