<svg width="48" height="48" viewBox="0 0 48 48" fill="none" xmlns="http://www.w3.org/2000/svg">
<path d="M37.8631 11.2897H33.5043V10.5619C33.5043 9.14937 32.3668 8 30.9688 8C29.5708 8 28.4332 9.14937 28.4332 10.5619V11.2897H19.5322V10.5619C19.5322 9.14937 18.3947 8 16.9967 8C15.5987 8 14.4611 9.14937 14.4611 10.5619V11.2897H10.1369C8.95947 11.2897 8 12.2591 8 13.4488V37.8409C8 39.0306 8.95947 40 10.1369 40H37.8631C39.0405 40 40 39.0306 40 37.8409V13.4488C40 12.2591 39.0405 11.2897 37.8631 11.2897ZM30.0279 10.5619C30.0279 10.0383 30.4505 9.61128 30.9688 9.61128C31.487 9.61128 31.9096 10.0383 31.9096 10.5619V13.7845C31.9096 14.3082 31.487 14.7351 30.9688 14.7351C30.4505 14.7351 30.0279 14.3082 30.0279 13.7845V10.5619ZM16.0558 10.5619C16.0558 10.0383 16.4784 9.61128 16.9967 9.61128C17.515 9.61128 17.9375 10.0383 17.9375 10.5619V13.7845C17.9375 14.3082 17.515 14.7351 16.9967 14.7351C16.4784 14.7351 16.0558 14.3082 16.0558 13.7845V10.5619ZM38.4053 37.8409C38.4053 38.1417 38.1635 38.3887 37.8631 38.3887H10.1369C9.83921 38.3887 9.59468 38.1443 9.59468 37.8409V21.481H38.4053V37.8409ZM38.4053 19.8698H9.59468V13.4488C9.59468 13.148 9.83655 12.901 10.1369 12.901H14.4611V13.7872C14.4611 15.1997 15.5987 16.3491 16.9967 16.3491C18.3947 16.3491 19.5322 15.1997 19.5322 13.7872V12.901H28.4332V13.7872C28.4332 15.1997 29.5708 16.3491 30.9688 16.3491C32.3668 16.3491 33.5043 15.1997 33.5043 13.7872V12.901H37.8631C38.1608 12.901 38.4053 13.148 38.4053 13.4488V19.8698Z" fill="#F15D26"/>
</svg>
