<svg width="40" height="40" viewBox="0 0 40 40" fill="none" xmlns="http://www.w3.org/2000/svg">
<path d="M31.3204 0C32.7957 0 33.9998 1.19105 34 2.65109V24.1269C34 25.5872 32.7958 26.779 31.3204 26.779H25.5096V29.7288C25.5095 31.2857 24.6614 32.6302 23.9125 33.5259C23.5287 33.9848 23.146 34.355 22.86 34.6107C22.7958 34.668 22.7332 34.7178 22.6791 34.7639V35.481H24.5664V40H22.9809V37.0492H7.58452V40H6V35.481H6.94317V22.26C6.94317 21.262 7.09607 20.4895 7.48489 19.785C7.85922 19.1071 8.42123 18.5543 9.08489 17.9487L9.1052 17.9296L9.12745 17.9123L13.5473 14.412V2.65109C13.5475 1.1912 14.7508 0.000250317 16.2259 0H31.3204ZM10.1412 19.1177C9.48632 19.7163 9.10921 20.1133 8.87497 20.5376C8.65335 20.9393 8.52769 21.4286 8.52769 22.26V35.481H21.0946V34.0056L21.4109 33.7701C21.4115 33.7697 21.4129 33.7688 21.4138 33.7681C21.4172 33.7655 21.4235 33.7607 21.4312 33.7547C21.4477 33.742 21.474 33.7215 21.5076 33.6944C21.5759 33.6393 21.6764 33.555 21.7978 33.4464C22.0423 33.228 22.3684 32.912 22.6917 32.5254C23.3574 31.729 23.925 30.7389 23.925 29.7288V26.779H19.8496V27.8609C19.8496 28.892 19.6215 29.7256 19.2285 30.3865C18.8353 31.0476 18.3022 31.4932 17.7611 31.7882C16.7047 32.3638 15.592 32.3808 15.2837 32.3808V30.8116C15.5333 30.8116 16.3068 30.7903 16.9969 30.4143C17.3291 30.2331 17.6355 29.9728 17.8626 29.5909C18.0899 29.2086 18.2651 28.6591 18.2651 27.8609V24.7349L18.5011 24.5013C18.5037 24.4988 18.5082 24.4952 18.5127 24.4908C18.5228 24.4807 18.5381 24.4647 18.5572 24.4458C18.596 24.4073 18.6529 24.351 18.7236 24.2811C18.8659 24.1402 19.0671 23.942 19.2992 23.7124C19.751 23.2652 20.3232 22.6979 20.8227 22.2035C21.5848 21.2427 21.5021 19.9034 20.9717 18.9195C20.7058 18.4266 20.3828 18.1326 20.1359 18.0263C20.0232 17.9778 19.9415 17.9739 19.8834 17.9841C19.8277 17.9941 19.7364 18.0274 19.6174 18.145L12.1359 25.5497C12.1148 25.5706 12.0986 25.5875 12.0875 25.5985C12.0824 25.6036 12.0778 25.6082 12.075 25.6109C12.0739 25.612 12.072 25.6132 12.0711 25.6138V25.6148C12.0711 25.6148 12.0702 25.6149 11.51 25.0604L10.9499 24.5051L10.9664 24.4888C10.9774 24.4779 10.9946 24.4619 11.0157 24.441C11.0587 24.3985 11.1217 24.3351 11.2024 24.2552L14.1625 21.3255H13.5473V16.4207L10.1412 19.1177ZM29.2832 25.2098H31.3204C31.9205 25.2098 32.4155 24.7208 32.4155 24.1269V2.65109C32.4152 2.05738 31.9204 1.56825 31.3204 1.56825H29.2832V25.2098ZM16.2259 1.56825C15.6262 1.5685 15.1321 2.05754 15.1318 2.65109V20.3662C16.4832 19.029 17.81 17.7165 18.4972 17.0363C18.8119 16.725 19.1857 16.5152 19.6019 16.4408C20.0157 16.367 20.4154 16.4359 20.7676 16.5873C21.4513 16.8814 22.0013 17.4976 22.3695 18.1804C23.1038 19.542 23.3378 21.6119 22.0435 23.2078L22.0164 23.2413L21.9855 23.271L20.0266 25.2098H27.6987V1.56825H16.2259Z" fill="#F15D26"/>
</svg>
