<svg width="48" height="48" viewBox="0 0 48 48" fill="none" xmlns="http://www.w3.org/2000/svg">
<path d="M36.5477 11.0476H40.5954V10.2381C40.5954 8.37619 39.1463 7 37.3572 7H34.1191" fill="#F15D26"/>
<path d="M36.5477 11.0476H40.5954V10.2381C40.5954 8.37619 39.1463 7 37.3572 7H34.1191" stroke="#F15D26" stroke-width="1.6" stroke-miterlimit="10"/>
<path d="M12.262 14.0995V11.0476C12.262 8.81333 14.0753 7 16.3096 7H38.1668C35.9325 7 34.1192 8.81333 34.1192 11.0476V36.9524C34.1192 39.1867 32.3059 41 30.0716 41H12.262" stroke="#F15D26" stroke-width="1.6" stroke-miterlimit="10"/>
<path d="M12.262 36.9524V32.9048" stroke="#F15D26" stroke-width="1.6" stroke-miterlimit="10"/>
<path d="M7.40479 36.9524C7.40479 39.1867 9.21813 41 11.4524 41H30.0715C27.8372 41 26.0239 39.1867 26.0239 36.9524H7.40479Z" stroke="#F15D26" stroke-width="1.6" stroke-miterlimit="10"/>
<path d="M16.3095 13.6785L19.0457 19.2156L25.1496 20.1061L20.7295 24.4128L21.7738 30.5004L16.3095 27.6265L10.8452 30.5004L11.8895 24.4128L7.46948 20.1061L13.5733 19.2156L16.3095 13.6785Z" stroke="#F15D26" stroke-width="1.6" stroke-miterlimit="10"/>
</svg>
