<svg width="48" height="48" viewBox="0 0 48 48" fill="none" xmlns="http://www.w3.org/2000/svg">
<path d="M39.4475 8C41.3841 8.00002 42.9593 9.59397 42.9595 11.5538V33.0177H44.1315C44.6119 33.0177 44.9998 33.4104 45 33.8966V36.3342C45 38.3558 43.3758 40 41.3783 40H6.62168C4.62416 40 3 38.3558 3 36.3342V33.8966C3.00017 33.4104 3.38805 33.0177 3.86851 33.0177H5.0436V11.5538C5.04381 9.59396 6.61897 8 8.55557 8H39.4475ZM4.74009 36.3374C4.74009 37.3892 5.58547 38.2443 6.62476 38.2443H41.3814C42.4206 38.2443 43.2661 37.3891 43.2661 36.3374V34.7786H29.9493V35.0367C29.9522 35.274 29.8592 35.4998 29.6971 35.6668C29.535 35.8336 29.3122 35.9269 29.0808 35.9269H19.2781C18.7976 35.9268 18.4096 35.5343 18.4096 35.0481V34.7786H4.74009V36.3374ZM8.55864 9.75774C7.58028 9.75774 6.7839 10.5637 6.78369 11.5538H6.78677V33.0177H19.2812C19.7616 33.0177 20.1495 33.4104 20.1497 33.8966V34.1661H28.201V33.9091C28.1981 33.6718 28.2902 33.4459 28.4522 33.2789C28.6144 33.1119 28.8379 33.0177 29.0695 33.0177H41.2245V11.5538C41.2243 10.5638 40.4289 9.75786 39.4506 9.75774H8.55864ZM23.719 13.7614C23.9281 13.6743 24.1681 13.6888 24.3671 13.8049L30.6671 17.481C30.686 17.4921 30.7037 17.5047 30.7214 17.5173C30.7305 17.5237 30.7403 17.5291 30.7491 17.536C30.7819 17.5615 30.8116 17.5905 30.8394 17.6209C30.8459 17.6281 30.8515 17.6362 30.8578 17.6437C30.9142 17.7105 30.958 17.7864 30.988 17.8686C30.9931 17.8825 30.9982 17.8961 31.0024 17.9101C31.014 17.9489 31.0238 17.9885 31.0291 18.0293C31.0298 18.0351 31.0295 18.0411 31.0301 18.0469C31.0328 18.0726 31.0352 18.0985 31.0352 18.1246V25.4758C31.0352 25.7412 30.8945 25.9867 30.6671 26.1194L24.3671 29.7976C24.3432 29.8116 24.3182 29.8229 24.2933 29.8339C24.2903 29.8352 24.288 29.8378 24.2851 29.8391H24.282C24.2416 29.8561 24.2 29.868 24.1579 29.8774C24.1501 29.8792 24.1423 29.8811 24.1343 29.8826C24.0898 29.891 24.0451 29.8971 24 29.8971H23.999L23.9969 29.8961C23.9522 29.8959 23.9078 29.891 23.8636 29.8826C23.8557 29.8811 23.8479 29.8792 23.84 29.8774C23.7987 29.8681 23.7577 29.8567 23.718 29.8401C23.7099 29.8368 23.7024 29.8324 23.6944 29.8287C23.6734 29.819 23.6522 29.8095 23.6319 29.7976L17.3319 26.1194C17.1048 25.9867 16.9648 25.741 16.9648 25.4758V18.1246C16.9648 18.0478 16.9774 17.973 16.9997 17.9018C17.0023 17.8935 17.005 17.8852 17.0079 17.8769C17.0379 17.7916 17.083 17.7127 17.1412 17.6437C17.1475 17.6362 17.1531 17.6281 17.1596 17.6209C17.1873 17.5905 17.2171 17.5615 17.2499 17.536C17.2586 17.5291 17.2685 17.5237 17.2775 17.5173C17.2954 17.5046 17.3137 17.4922 17.3329 17.481L23.6319 13.8049L23.719 13.7614ZM24.7342 22.2298V27.8658L29.5648 25.0478V19.4108L24.7342 22.2298ZM18.4352 25.0468L23.2638 27.8647V22.2288L18.4352 19.4108V25.0468ZM19.1684 18.1236L23.999 20.9426L27.877 18.6801L28.8296 18.1236L23.999 15.3056L19.1684 18.1236Z" fill="#F15D26"/>
</svg>
