<svg width="36" height="36" viewBox="0 0 36 36" fill="none" xmlns="http://www.w3.org/2000/svg">
<rect x="0.5" y="0.5" width="35" height="35" stroke="#FEFEFE" stroke-opacity="0.25"/>
<path d="M22 8C25.3123 8 28 10.6877 28 14V22C28 25.3123 25.3123 28 22 28H14C10.6877 28 8 25.3123 8 22V14C8 10.6877 10.6877 8 14 8H22ZM14 10C11.7923 10 10 11.7923 10 14V22C10 24.2077 11.7923 26 14 26H22C24.2077 26 26 24.2077 26 22V14C26 11.7923 24.2077 10 22 10H14ZM18 13C20.7623 13 23 15.2377 23 18C23 20.7623 20.7623 23 18 23C15.2377 23 13 20.7623 13 18C13 15.2377 15.2377 13 18 13ZM18 15C16.3423 15 15 16.3423 15 18C15 19.6577 16.3423 21 18 21C19.6577 21 21 19.6577 21 18C21 16.3423 19.6577 15 18 15ZM23 11.5C23.8284 11.5 24.5 12.1716 24.5 13C24.5 13.8284 23.8284 14.5 23 14.5C22.1716 14.5 21.5 13.8284 21.5 13C21.5 12.1716 22.1716 11.5 23 11.5Z" fill="#FEFEFE"/>
</svg>
