<svg width="24" height="24" viewBox="0 0 24 24" fill="none" xmlns="http://www.w3.org/2000/svg">
<path d="M6.45637 2.015C7.35971 2.12218 8.13664 2.76958 9.04921 4.0495L9.12581 4.15673C9.55971 4.76555 9.92415 5.27562 10.203 5.72592C10.4818 6.1762 10.6836 6.57887 10.788 6.97534C11.0023 7.78957 10.7928 8.53005 10.1618 9.54408C9.785 10.1494 9.6637 10.5443 9.75008 10.9266C9.8403 11.3254 10.1653 11.7599 10.8349 12.4115C11.8452 13.3937 12.8235 14.2133 13.1099 14.4489C13.1961 14.4763 13.3734 14.5167 13.6077 14.4805C13.8696 14.4398 14.2187 14.3022 14.6045 13.9233C14.973 13.5611 15.3739 13.3671 15.7946 13.3067C16.212 13.2469 16.6352 13.3198 17.0489 13.4685C17.6643 13.6898 18.2862 14.0883 18.8748 14.5044L20.0228 15.3345C20.2146 15.471 20.4074 15.605 20.5992 15.7309L21.1478 16.0909H21.0425C21.1189 16.1634 21.2001 16.2459 21.2809 16.3388C21.5949 16.6997 21.9212 17.2242 21.977 17.886C22.0536 18.8094 21.5938 19.6916 20.6844 20.5036C19.5269 21.5358 18.3474 21.9999 17.0834 22C15.1922 22 13.1498 20.9596 10.743 19.3719C5.9161 16.1876 3.49006 11.7261 2.67052 9.95481C1.48996 7.40155 1.88014 4.79933 3.74768 3.19453C4.46985 2.57262 5.40341 1.88972 6.45637 2.015ZM6.20456 3.44633C6.04519 3.44633 5.8494 3.50075 5.60039 3.63685C5.35156 3.77293 5.05977 3.98476 4.71185 4.28406C3.35711 5.44755 3.06745 7.32576 4.00524 9.3526C4.77259 11.0097 7.04643 15.1895 11.5597 18.1675C13.6566 19.5508 15.2055 20.3011 16.4725 20.4892C17.707 20.6723 18.6889 20.323 19.6772 19.4514L19.6781 19.4504L19.7059 19.4255C20.3145 18.8824 20.5531 18.404 20.5197 17.9999C20.4953 17.7038 20.327 17.4415 20.1463 17.2436C20.0007 17.0841 19.8601 16.9807 19.8093 16.9449L19.7806 16.9257L19.7796 16.9248C19.3676 16.655 18.9648 16.3619 18.5809 16.0803C17.7324 15.4606 17.1138 15.0407 16.6334 14.8481C16.3965 14.7532 16.209 14.7207 16.055 14.7371C15.9066 14.753 15.7718 14.8169 15.6395 14.9468C14.8521 15.7201 14.063 15.9302 13.4555 15.9348C12.8556 15.9392 12.4456 15.743 12.3994 15.7203C12.3494 15.6958 12.3041 15.6671 12.2634 15.6342C12.1954 15.5795 11.0426 14.6415 9.80657 13.4398C9.07404 12.7273 8.53237 12.0599 8.33876 11.3124C8.14175 10.5515 8.31468 9.74723 8.91325 8.78485C9.34983 8.08299 9.48377 7.75015 9.36613 7.31331C9.30318 7.07981 9.16482 6.80464 8.9257 6.42866C8.68722 6.05374 8.35886 5.59283 7.92705 4.9868L7.85045 4.88053L7.84949 4.87957C7.5067 4.398 7.20767 4.04779 6.94277 3.81301C6.67646 3.57706 6.45931 3.47165 6.28115 3.45016C6.25732 3.44764 6.23095 3.44634 6.20456 3.44633ZM12.4942 5.1802C16.0965 5.18035 19.0317 8.06054 19.0318 11.6054V11.8017H17.5669V11.6054C17.5668 8.86353 15.2943 6.62699 12.4942 6.62685H12.2979V5.1802H12.4942ZM12.4923 2.26297C17.7316 2.26297 21.9998 6.45088 22 11.6054V11.8017H20.5341V11.6054C20.5339 7.25566 16.9294 3.70961 12.4923 3.70961H12.296V2.26297H12.4923Z" fill="#F15D26"/>
</svg>
