<svg width="61" height="61" viewBox="0 0 61 61" fill="none" xmlns="http://www.w3.org/2000/svg">
<rect x="60.5513" y="59.9974" width="60" height="60" rx="30" transform="rotate(179.471 60.5513 59.9974)" fill="#FEFEFE"/>
<g opacity="0.2">
<path d="M31.8113 20.608C32.2519 20.1412 32.9717 20.1352 33.4196 20.5942L41.9354 29.3296C41.9479 29.3424 41.96 29.3563 41.9712 29.3704L42.0509 29.4708C42.0617 29.4844 42.0721 29.499 42.0816 29.5137C42.3766 29.971 42.3362 30.5972 41.9509 31.0073L33.5978 39.8974C33.1859 40.3357 32.5279 40.37 32.0771 39.9947L31.9895 39.9143C31.5408 39.4555 31.532 38.7029 31.972 38.2345L38.4031 31.3878L19.425 31.5799L19.3088 31.5746C18.7342 31.5193 18.2831 31.018 18.2765 30.4048C18.27 29.7495 18.7737 29.2121 19.4021 29.2056L38.3843 29.0135L31.8248 22.2867C31.4043 21.8552 31.3736 21.1673 31.7344 20.6982L31.8113 20.608Z" fill="#34373C"/>
</g>
</svg>
