<svg width="48" height="240" viewBox="0 0 48 240" fill="none" xmlns="http://www.w3.org/2000/svg">
<rect width="48" height="48" rx="24" fill="#FEFEFE" fill-opacity="0.15"/>
<path d="M18.188 32.286C17.3007 32.286 16.4903 32.0807 15.757 31.67C15.0237 31.252 14.3857 30.6763 13.843 29.943C13.3077 29.2097 12.8933 28.3627 12.6 27.402C12.3067 26.434 12.16 25.4 12.16 24.3C12.16 23.2 12.3067 22.1697 12.6 21.209C12.8933 20.241 13.3077 19.3903 13.843 18.657C14.3857 17.9237 15.0237 17.3517 15.757 16.941C16.4903 16.523 17.3007 16.314 18.188 16.314C19.0753 16.314 19.8857 16.523 20.619 16.941C21.3523 17.3517 21.983 17.9237 22.511 18.657C23.0463 19.3903 23.4607 20.241 23.754 21.209C24.0473 22.1697 24.194 23.2 24.194 24.3C24.194 25.4 24.0473 26.434 23.754 27.402C23.4607 28.3627 23.0463 29.2097 22.511 29.943C21.983 30.6763 21.3523 31.252 20.619 31.67C19.8857 32.0807 19.0753 32.286 18.188 32.286ZM18.188 29.25C18.914 29.25 19.5117 29.0153 19.981 28.546C20.4503 28.0767 20.795 27.4643 21.015 26.709C21.2423 25.9537 21.356 25.1507 21.356 24.3C21.356 23.398 21.235 22.573 20.993 21.825C20.7583 21.077 20.4063 20.4793 19.937 20.032C19.4677 19.5773 18.8847 19.35 18.188 19.35C17.638 19.35 17.1613 19.4857 16.758 19.757C16.362 20.0283 16.032 20.3987 15.768 20.868C15.5113 21.3373 15.317 21.869 15.185 22.463C15.0603 23.0497 14.998 23.662 14.998 24.3C14.998 25.1507 15.1117 25.9537 15.339 26.709C15.5737 27.457 15.9257 28.0693 16.395 28.546C16.8717 29.0153 17.4693 29.25 18.188 29.25ZM30.5503 32.286C29.6263 32.286 28.7829 32.0623 28.0203 31.615C27.2576 31.1677 26.6489 30.5663 26.1943 29.811C25.7469 29.0483 25.5233 28.205 25.5233 27.281H28.5593C28.5593 27.633 28.6473 27.9593 28.8233 28.26C28.9993 28.5607 29.2376 28.8027 29.5383 28.986C29.8389 29.162 30.1763 29.25 30.5503 29.25C30.9096 29.25 31.2396 29.162 31.5403 28.986C31.8483 28.8027 32.0939 28.5607 32.2773 28.26C32.4606 27.9593 32.5523 27.633 32.5523 27.281C32.5523 26.797 32.4203 26.3937 32.1563 26.071C31.8923 25.7483 31.5219 25.5063 31.0453 25.345C30.5686 25.1837 30.0113 25.103 29.3733 25.103V22.782C30.2239 22.782 30.8949 22.6317 31.3863 22.331C31.8776 22.023 32.1233 21.5683 32.1233 20.967C32.1233 20.6663 32.0499 20.395 31.9033 20.153C31.7566 19.9037 31.5586 19.7057 31.3093 19.559C31.0599 19.405 30.7849 19.328 30.4843 19.328C30.1836 19.328 29.8866 19.405 29.5933 19.559C29.2999 19.7057 29.0579 19.9037 28.8673 20.153C28.6839 20.395 28.5923 20.6663 28.5923 20.967H25.5563C25.5563 20.3217 25.6883 19.7167 25.9523 19.152C26.2163 18.5873 26.5756 18.0923 27.0303 17.667C27.4923 17.2343 28.0166 16.897 28.6033 16.655C29.1899 16.413 29.8059 16.292 30.4513 16.292C31.2946 16.292 32.0719 16.501 32.7833 16.919C33.5019 17.337 34.0776 17.9017 34.5103 18.613C34.9429 19.317 35.1593 20.1017 35.1593 20.967C35.1593 21.517 35.0346 22.0707 34.7853 22.628C34.5433 23.1853 34.1876 23.585 33.7183 23.827C34.1289 23.981 34.4699 24.245 34.7413 24.619C35.0199 24.9857 35.2289 25.4073 35.3683 25.884C35.5149 26.3533 35.5883 26.819 35.5883 27.281C35.5883 28.1977 35.3609 29.0373 34.9063 29.8C34.4516 30.5553 33.8429 31.1603 33.0803 31.615C32.3176 32.0623 31.4743 32.286 30.5503 32.286Z" fill="#FEFEFE"/>
<rect opacity="0.15" x="23" y="48" width="2" height="192" fill="#FEFEFE"/>
</svg>
