<svg width="48" height="288" viewBox="0 0 48 288" fill="none" xmlns="http://www.w3.org/2000/svg">
<rect opacity="0.15" x="23" width="2" height="240" fill="#FEFEFE"/>
<rect y="240" width="48" height="48" rx="24" fill="#FEFEFE" fill-opacity="0.15"/>
<path d="M17.188 272.286C16.3007 272.286 15.4903 272.081 14.757 271.67C14.0237 271.252 13.3857 270.676 12.843 269.943C12.3077 269.21 11.8933 268.363 11.6 267.402C11.3067 266.434 11.16 265.4 11.16 264.3C11.16 263.2 11.3067 262.17 11.6 261.209C11.8933 260.241 12.3077 259.39 12.843 258.657C13.3857 257.924 14.0237 257.352 14.757 256.941C15.4903 256.523 16.3007 256.314 17.188 256.314C18.0753 256.314 18.8857 256.523 19.619 256.941C20.3523 257.352 20.983 257.924 21.511 258.657C22.0463 259.39 22.4607 260.241 22.754 261.209C23.0473 262.17 23.194 263.2 23.194 264.3C23.194 265.4 23.0473 266.434 22.754 267.402C22.4607 268.363 22.0463 269.21 21.511 269.943C20.983 270.676 20.3523 271.252 19.619 271.67C18.8857 272.081 18.0753 272.286 17.188 272.286ZM17.188 269.25C17.914 269.25 18.5117 269.015 18.981 268.546C19.4503 268.077 19.795 267.464 20.015 266.709C20.2423 265.954 20.356 265.151 20.356 264.3C20.356 263.398 20.235 262.573 19.993 261.825C19.7583 261.077 19.4063 260.479 18.937 260.032C18.4677 259.577 17.8847 259.35 17.188 259.35C16.638 259.35 16.1613 259.486 15.758 259.757C15.362 260.028 15.032 260.399 14.768 260.868C14.5113 261.337 14.317 261.869 14.185 262.463C14.0603 263.05 13.998 263.662 13.998 264.3C13.998 265.151 14.1117 265.954 14.339 266.709C14.5737 267.457 14.9257 268.069 15.395 268.546C15.8717 269.015 16.4693 269.25 17.188 269.25ZM31.2773 272V268.458H24.7433V265.411L30.5843 256.6H34.3133V265.422H35.5123V268.458H34.3133V272H31.2773ZM28.2523 265.411L31.2773 265.422L31.2663 260.703L28.2523 265.411Z" fill="#FEFEFE"/>
</svg>
