<svg width="48" height="240" viewBox="0 0 48 240" fill="none" xmlns="http://www.w3.org/2000/svg">
<rect width="48" height="48" rx="24" fill="#F15D26"/>
<path d="M19.688 32.286C18.8007 32.286 17.9903 32.0807 17.257 31.67C16.5237 31.252 15.8857 30.6763 15.343 29.943C14.8077 29.2097 14.3933 28.3627 14.1 27.402C13.8067 26.434 13.66 25.4 13.66 24.3C13.66 23.2 13.8067 22.1697 14.1 21.209C14.3933 20.241 14.8077 19.3903 15.343 18.657C15.8857 17.9237 16.5237 17.3517 17.257 16.941C17.9903 16.523 18.8007 16.314 19.688 16.314C20.5753 16.314 21.3857 16.523 22.119 16.941C22.8523 17.3517 23.483 17.9237 24.011 18.657C24.5463 19.3903 24.9607 20.241 25.254 21.209C25.5473 22.1697 25.694 23.2 25.694 24.3C25.694 25.4 25.5473 26.434 25.254 27.402C24.9607 28.3627 24.5463 29.2097 24.011 29.943C23.483 30.6763 22.8523 31.252 22.119 31.67C21.3857 32.0807 20.5753 32.286 19.688 32.286ZM19.688 29.25C20.414 29.25 21.0117 29.0153 21.481 28.546C21.9503 28.0767 22.295 27.4643 22.515 26.709C22.7423 25.9537 22.856 25.1507 22.856 24.3C22.856 23.398 22.735 22.573 22.493 21.825C22.2583 21.077 21.9063 20.4793 21.437 20.032C20.9677 19.5773 20.3847 19.35 19.688 19.35C19.138 19.35 18.6613 19.4857 18.258 19.757C17.862 20.0283 17.532 20.3987 17.268 20.868C17.0113 21.3373 16.817 21.869 16.685 22.463C16.5603 23.0497 16.498 23.662 16.498 24.3C16.498 25.1507 16.6117 25.9537 16.839 26.709C17.0737 27.457 17.4257 28.0693 17.895 28.546C18.3717 29.0153 18.9693 29.25 19.688 29.25ZM29.2673 32V19.636H27.2433L28.0573 16.6H32.3033V32H29.2673Z" fill="#FEFEFE"/>
<rect opacity="0.15" x="23" y="48" width="2" height="192" fill="#FEFEFE"/>
</svg>
