<svg width="48" height="288" viewBox="0 0 48 288" fill="none" xmlns="http://www.w3.org/2000/svg">
<rect opacity="0.15" x="23" width="2" height="240" fill="#FEFEFE"/>
<rect y="240" width="48" height="48" rx="24" fill="#FEFEFE" fill-opacity="0.15"/>
<path d="M17.188 272.286C16.3007 272.286 15.4903 272.081 14.757 271.67C14.0237 271.252 13.3857 270.676 12.843 269.943C12.3077 269.21 11.8933 268.363 11.6 267.402C11.3067 266.434 11.16 265.4 11.16 264.3C11.16 263.2 11.3067 262.17 11.6 261.209C11.8933 260.241 12.3077 259.39 12.843 258.657C13.3857 257.924 14.0237 257.352 14.757 256.941C15.4903 256.523 16.3007 256.314 17.188 256.314C18.0753 256.314 18.8857 256.523 19.619 256.941C20.3523 257.352 20.983 257.924 21.511 258.657C22.0463 259.39 22.4607 260.241 22.754 261.209C23.0473 262.17 23.194 263.2 23.194 264.3C23.194 265.4 23.0473 266.434 22.754 267.402C22.4607 268.363 22.0463 269.21 21.511 269.943C20.983 270.676 20.3523 271.252 19.619 271.67C18.8857 272.081 18.0753 272.286 17.188 272.286ZM17.188 269.25C17.914 269.25 18.5117 269.015 18.981 268.546C19.4503 268.077 19.795 267.464 20.015 266.709C20.2423 265.954 20.356 265.151 20.356 264.3C20.356 263.398 20.235 262.573 19.993 261.825C19.7583 261.077 19.4063 260.479 18.937 260.032C18.4677 259.577 17.8847 259.35 17.188 259.35C16.638 259.35 16.1613 259.486 15.758 259.757C15.362 260.028 15.032 260.399 14.768 260.868C14.5113 261.337 14.317 261.869 14.185 262.463C14.0603 263.05 13.998 263.662 13.998 264.3C13.998 265.151 14.1117 265.954 14.339 266.709C14.5737 267.457 14.9257 268.069 15.395 268.546C15.8717 269.015 16.4693 269.25 17.188 269.25ZM24.7433 272V269.294C25.1833 268.986 25.7186 268.59 26.3493 268.106C26.9799 267.615 27.6363 267.076 28.3183 266.489C29.0003 265.895 29.6346 265.294 30.2213 264.685C30.8153 264.076 31.2956 263.501 31.6623 262.958C32.0363 262.415 32.2233 261.95 32.2233 261.561C32.2233 261.158 32.1243 260.787 31.9263 260.45C31.7283 260.113 31.4643 259.845 31.1343 259.647C30.8043 259.449 30.4376 259.35 30.0343 259.35C29.6309 259.35 29.2606 259.449 28.9233 259.647C28.5933 259.845 28.3256 260.113 28.1203 260.45C27.9223 260.787 27.8233 261.158 27.8233 261.561H24.7873C24.7873 260.571 25.0256 259.68 25.5023 258.888C25.9863 258.096 26.6243 257.469 27.4163 257.007C28.2156 256.545 29.0883 256.314 30.0343 256.314C30.9949 256.314 31.8713 256.549 32.6633 257.018C33.4553 257.487 34.0859 258.122 34.5553 258.921C35.0246 259.713 35.2593 260.593 35.2593 261.561C35.2593 262.06 35.1823 262.544 35.0283 263.013C34.8816 263.482 34.6653 263.952 34.3793 264.421C34.0933 264.883 33.7449 265.356 33.3343 265.84C32.9309 266.317 32.4726 266.815 31.9593 267.336C31.4533 267.849 30.9069 268.392 30.3203 268.964H35.3033V272H24.7433Z" fill="#FEFEFE"/>
</svg>
