<svg width="48" height="240" viewBox="0 0 48 240" fill="none" xmlns="http://www.w3.org/2000/svg">
<rect width="48" height="48" rx="24" fill="#FEFEFE" fill-opacity="0.15"/>
<path d="M17.688 32.286C16.8007 32.286 15.9903 32.0807 15.257 31.67C14.5237 31.252 13.8857 30.6763 13.343 29.943C12.8077 29.2097 12.3933 28.3627 12.1 27.402C11.8067 26.434 11.66 25.4 11.66 24.3C11.66 23.2 11.8067 22.1697 12.1 21.209C12.3933 20.241 12.8077 19.3903 13.343 18.657C13.8857 17.9237 14.5237 17.3517 15.257 16.941C15.9903 16.523 16.8007 16.314 17.688 16.314C18.5753 16.314 19.3857 16.523 20.119 16.941C20.8523 17.3517 21.483 17.9237 22.011 18.657C22.5463 19.3903 22.9607 20.241 23.254 21.209C23.5473 22.1697 23.694 23.2 23.694 24.3C23.694 25.4 23.5473 26.434 23.254 27.402C22.9607 28.3627 22.5463 29.2097 22.011 29.943C21.483 30.6763 20.8523 31.252 20.119 31.67C19.3857 32.0807 18.5753 32.286 17.688 32.286ZM17.688 29.25C18.414 29.25 19.0117 29.0153 19.481 28.546C19.9503 28.0767 20.295 27.4643 20.515 26.709C20.7423 25.9537 20.856 25.1507 20.856 24.3C20.856 23.398 20.735 22.573 20.493 21.825C20.2583 21.077 19.9063 20.4793 19.437 20.032C18.9677 19.5773 18.3847 19.35 17.688 19.35C17.138 19.35 16.6613 19.4857 16.258 19.757C15.862 20.0283 15.532 20.3987 15.268 20.868C15.0113 21.3373 14.817 21.869 14.685 22.463C14.5603 23.0497 14.498 23.662 14.498 24.3C14.498 25.1507 14.6117 25.9537 14.839 26.709C15.0737 27.457 15.4257 28.0693 15.895 28.546C16.3717 29.0153 16.9693 29.25 17.688 29.25ZM25.4743 32L32.6023 19.636H24.8033V16.6H36.1223V19.636L28.9723 32H25.4743Z" fill="#FEFEFE"/>
<rect opacity="0.15" x="23" y="48" width="2" height="192" fill="#FEFEFE"/>
</svg>
