<svg width="48" height="240" viewBox="0 0 48 240" fill="none" xmlns="http://www.w3.org/2000/svg">
<rect width="48" height="48" rx="24" fill="#FEFEFE" fill-opacity="0.15"/>
<path d="M17.188 32.286C16.3007 32.286 15.4903 32.0807 14.757 31.67C14.0237 31.252 13.3857 30.6763 12.843 29.943C12.3077 29.2097 11.8933 28.3627 11.6 27.402C11.3067 26.434 11.16 25.4 11.16 24.3C11.16 23.2 11.3067 22.1697 11.6 21.209C11.8933 20.241 12.3077 19.3903 12.843 18.657C13.3857 17.9237 14.0237 17.3517 14.757 16.941C15.4903 16.523 16.3007 16.314 17.188 16.314C18.0753 16.314 18.8857 16.523 19.619 16.941C20.3523 17.3517 20.983 17.9237 21.511 18.657C22.0463 19.3903 22.4607 20.241 22.754 21.209C23.0473 22.1697 23.194 23.2 23.194 24.3C23.194 25.4 23.0473 26.434 22.754 27.402C22.4607 28.3627 22.0463 29.2097 21.511 29.943C20.983 30.6763 20.3523 31.252 19.619 31.67C18.8857 32.0807 18.0753 32.286 17.188 32.286ZM17.188 29.25C17.914 29.25 18.5117 29.0153 18.981 28.546C19.4503 28.0767 19.795 27.4643 20.015 26.709C20.2423 25.9537 20.356 25.1507 20.356 24.3C20.356 23.398 20.235 22.573 19.993 21.825C19.7583 21.077 19.4063 20.4793 18.937 20.032C18.4677 19.5773 17.8847 19.35 17.188 19.35C16.638 19.35 16.1613 19.4857 15.758 19.757C15.362 20.0283 15.032 20.3987 14.768 20.868C14.5113 21.3373 14.317 21.869 14.185 22.463C14.0603 23.0497 13.998 23.662 13.998 24.3C13.998 25.1507 14.1117 25.9537 14.339 26.709C14.5737 27.457 14.9257 28.0693 15.395 28.546C15.8717 29.0153 16.4693 29.25 17.188 29.25ZM29.9903 32.286C28.9856 32.286 28.0763 32.044 27.2623 31.56C26.4556 31.0687 25.8139 30.4197 25.3373 29.613C24.8679 28.799 24.6333 27.9117 24.6333 26.951H27.6693C27.6693 27.3763 27.7719 27.765 27.9773 28.117C28.1899 28.4617 28.4723 28.7367 28.8243 28.942C29.1763 29.1473 29.5649 29.25 29.9903 29.25C30.4083 29.25 30.7896 29.1473 31.1343 28.942C31.4863 28.7367 31.7649 28.4617 31.9703 28.117C32.1829 27.765 32.2893 27.3763 32.2893 26.951C32.2893 26.5257 32.2013 26.1333 32.0253 25.774C31.8566 25.4147 31.5633 25.1287 31.1453 24.916C30.7273 24.696 30.1516 24.586 29.4183 24.586H25.3923L27.0753 16.6H34.7533V19.636H29.5393L29.1433 21.55L30.0013 21.572C31.0499 21.6087 31.9703 21.869 32.7623 22.353C33.5616 22.837 34.1886 23.4787 34.6433 24.278C35.0979 25.0773 35.3253 25.9683 35.3253 26.951C35.3253 27.677 35.1859 28.3627 34.9073 29.008C34.6359 29.6533 34.2546 30.2217 33.7633 30.713C33.2793 31.2043 32.7146 31.5893 32.0693 31.868C31.4239 32.1467 30.7309 32.286 29.9903 32.286Z" fill="#FEFEFE"/>
<rect opacity="0.15" x="23" y="48" width="2" height="192" fill="#FEFEFE"/>
</svg>
