<svg width="48" height="288" viewBox="0 0 48 288" fill="none" xmlns="http://www.w3.org/2000/svg">
<rect opacity="0.15" x="23" width="2" height="240" fill="#FEFEFE"/>
<rect y="240" width="48" height="48" rx="24" fill="#FEFEFE" fill-opacity="0.15"/>
<path d="M17.688 272.286C16.8007 272.286 15.9903 272.081 15.257 271.67C14.5237 271.252 13.8857 270.676 13.343 269.943C12.8077 269.21 12.3933 268.363 12.1 267.402C11.8067 266.434 11.66 265.4 11.66 264.3C11.66 263.2 11.8067 262.17 12.1 261.209C12.3933 260.241 12.8077 259.39 13.343 258.657C13.8857 257.924 14.5237 257.352 15.257 256.941C15.9903 256.523 16.8007 256.314 17.688 256.314C18.5753 256.314 19.3857 256.523 20.119 256.941C20.8523 257.352 21.483 257.924 22.011 258.657C22.5463 259.39 22.9607 260.241 23.254 261.209C23.5473 262.17 23.694 263.2 23.694 264.3C23.694 265.4 23.5473 266.434 23.254 267.402C22.9607 268.363 22.5463 269.21 22.011 269.943C21.483 270.676 20.8523 271.252 20.119 271.67C19.3857 272.081 18.5753 272.286 17.688 272.286ZM17.688 269.25C18.414 269.25 19.0117 269.015 19.481 268.546C19.9503 268.077 20.295 267.464 20.515 266.709C20.7423 265.954 20.856 265.151 20.856 264.3C20.856 263.398 20.735 262.573 20.493 261.825C20.2583 261.077 19.9063 260.479 19.437 260.032C18.9677 259.577 18.3847 259.35 17.688 259.35C17.138 259.35 16.6613 259.486 16.258 259.757C15.862 260.028 15.532 260.399 15.268 260.868C15.0113 261.337 14.817 261.869 14.685 262.463C14.5603 263.05 14.498 263.662 14.498 264.3C14.498 265.151 14.6117 265.954 14.839 266.709C15.0737 267.457 15.4257 268.069 15.895 268.546C16.3717 269.015 16.9693 269.25 17.688 269.25ZM30.3693 272.286C29.3719 272.286 28.4589 272.04 27.6303 271.549C26.8089 271.058 26.1489 270.398 25.6503 269.569C25.1589 268.74 24.9133 267.82 24.9133 266.808C24.9133 266.324 24.9719 265.855 25.0893 265.4C25.2139 264.938 25.4009 264.491 25.6503 264.058L29.9513 256.6H33.4713L30.6773 261.429C31.2419 261.451 31.7846 261.557 32.3053 261.748C32.8259 261.931 33.3026 262.188 33.7353 262.518C34.1679 262.848 34.5419 263.237 34.8573 263.684C35.1799 264.124 35.4256 264.608 35.5943 265.136C35.7703 265.664 35.8583 266.221 35.8583 266.808C35.8583 267.563 35.7153 268.271 35.4293 268.931C35.1433 269.591 34.7473 270.174 34.2413 270.68C33.7426 271.179 33.1596 271.571 32.4923 271.857C31.8323 272.143 31.1246 272.286 30.3693 272.286ZM30.3693 269.25C30.8386 269.25 31.2566 269.136 31.6233 268.909C31.9973 268.674 32.2906 268.374 32.5033 268.007C32.7159 267.633 32.8223 267.241 32.8223 266.83C32.8223 266.383 32.7159 265.976 32.5033 265.609C32.2906 265.235 31.9973 264.938 31.6233 264.718C31.2566 264.491 30.8459 264.377 30.3913 264.377C29.9073 264.377 29.4819 264.494 29.1153 264.729C28.7486 264.964 28.4626 265.268 28.2573 265.642C28.0519 266.009 27.9493 266.405 27.9493 266.83C27.9493 267.292 28.0629 267.706 28.2903 268.073C28.5249 268.432 28.8256 268.718 29.1923 268.931C29.5589 269.144 29.9513 269.25 30.3693 269.25Z" fill="#FEFEFE"/>
</svg>
