<svg width="28" height="28" viewBox="0 0 28 28" fill="none" xmlns="http://www.w3.org/2000/svg">
<path d="M14.0014 2.00095C18.9642 2.00267 22.9999 6.05887 23 11.0455C23 14.7313 20.9456 18.3551 18.8876 21.0676C16.8238 23.7876 14.7175 25.6417 14.5368 25.799C14.3822 25.9346 14.19 25.9999 14.0005 26C13.8107 26 13.6179 25.9347 13.4632 25.799L12.9989 25.3769C12.2348 24.6623 10.6623 23.1087 9.11339 21.0676C7.05515 18.3551 5 14.7313 5 11.0455C5.0001 6.05889 9.03583 2.0027 13.9986 2.00095V2H14.0014V2.00095ZM14.0014 3.64827C9.9436 3.64847 6.64052 6.96679 6.64042 11.0455C6.64042 13.8913 8.126 16.8235 9.83677 19.2478C11.4079 21.4742 13.1431 23.2352 14.0014 24.0554C14.8596 23.2353 16.5956 21.4738 18.167 19.2468C19.8777 16.8224 21.3634 13.8903 21.3634 11.0455C21.3633 6.96666 18.0594 3.64827 14.0014 3.64827ZM14.0024 6.88194C16.2874 6.88217 18.1461 8.75102 18.1461 11.0464C18.1458 13.3416 16.2872 15.2107 14.0024 15.211C11.7174 15.211 9.85803 13.3417 9.85766 11.0464C9.85766 8.75088 11.7171 6.88194 14.0024 6.88194ZM14.0024 8.53021C12.6216 8.53021 11.4981 9.65796 11.4981 11.0464C11.4984 12.4345 12.6235 13.5627 14.0024 13.5627C15.3827 13.5625 16.5054 12.4345 16.5057 11.0464C16.5057 9.6581 15.383 8.53044 14.0024 8.53021Z" fill="#F15D26"/>
</svg>
