<svg width="152" height="72" viewBox="0 0 152 72" fill="none" xmlns="http://www.w3.org/2000/svg">
<path fill-rule="evenodd" clip-rule="evenodd" d="M142.661 55.706H142.418V14.9544H142.782V55.4635L142.661 55.706Z" fill="#505572"/>
<path d="M52.9102 30.1151C52.9102 30.1151 49.2716 25.2637 51.0909 20.7762C48.1801 22.1103 42.2371 21.989 41.3881 19.0782C39.4476 20.7762 39.4476 24.0509 35.9303 24.1722C36.1729 20.1698 39.5688 13.2565 39.5688 13.2565C39.5688 13.2565 31.5641 11.4373 29.8661 5.97945V5.73689V5.85817L29.7448 5.6156V6.22202C27.9255 11.6798 20.042 13.3778 20.042 13.3778C20.042 13.3778 23.3167 20.291 23.6805 24.2934C20.042 24.2934 20.042 20.8975 18.2227 19.1995C17.2525 22.1103 11.4308 22.3529 8.51995 20.8975C10.3392 25.5063 6.70068 30.2364 6.70068 30.2364C6.70068 30.2364 16.7673 34.6026 8.76254 44.6693H8.88383C17.7376 37.2709 29.8661 24.4147 29.8661 24.4147L29.9874 24.2934L36.658 31.0854V29.5087H39.0837V33.6324C40.054 34.6026 41.0323 35.5689 42.0188 36.5311C42.9971 37.4852 43.9877 38.4312 44.9903 39.3691C45.9929 40.3151 47.0036 41.249 48.0224 42.1708C49.0331 43.0926 50.0559 44.0062 51.0909 44.9118H51.2122C42.7223 34.6026 53.0315 30.2364 53.0315 30.2364L52.9102 30.1151Z" fill="#FEFEFE"/>
<path d="M25.3787 36.6642H29.0172V33.0257H25.3787V36.6642ZM25.3787 41.8795H29.0172V38.2409H25.3787V41.8795ZM30.4726 41.8795H34.1112V38.2409H30.4726V41.8795ZM30.4726 36.6642H34.1112V33.0257H30.4726V36.6642Z" fill="#FEFEFE"/>
<path d="M51.2125 9.49659L49.9996 8.28374C47.3313 5.65186 44.178 3.56577 40.7213 2.14674C37.2526 0.727708 33.5534 0 29.8057 0C26.058 0 22.3588 0.727708 18.8901 2.14674C15.4335 3.56577 12.28 5.65186 9.61178 8.28374L8.27768 9.49659C-2.75923 20.5335 -2.75923 38.6049 8.27768 49.7631L9.49053 50.9759C20.6487 62.0128 29.9876 70.8666 30.1089 70.624L50.8486 50.0057L51.2125 49.6418C62.2494 38.7262 62.2494 20.5335 51.2125 9.49659ZM48.6655 48.5502L48.059 49.0354C38.9627 49.0354 29.8663 53.6442 20.77 54.7358C18.8294 54.008 16.8889 53.0378 15.0696 51.9462C20.8913 52.4313 26.7129 50.7334 32.6559 49.0354C38.7201 47.3374 44.7844 45.6394 50.7273 46.2458C50.1209 46.9735 49.5145 47.8225 48.6655 48.5502ZM24.0447 55.706C31.4431 54.1293 38.8414 51.0972 46.3611 50.6121C44.7925 51.8088 43.1147 52.8275 41.3278 53.6684C39.5408 54.5094 37.6851 55.1481 35.7608 55.5847C33.8364 56.0295 31.8837 56.2599 29.9027 56.2761C27.9298 56.2922 25.9772 56.1022 24.0447 55.706ZM53.3956 42.2434C53.2662 42.4618 53.1328 42.6801 52.9953 42.8984C52.866 43.1167 52.7285 43.331 52.583 43.5412C52.4455 43.7514 52.3 43.9616 52.1463 44.1719C52.0008 44.3821 51.8512 44.5883 51.6976 44.7904C50.0885 44.6691 48.4755 44.6327 46.8583 44.6813C45.2412 44.7298 43.6322 44.8672 42.0312 45.0936C40.4302 45.32 38.8454 45.6313 37.2768 46.0275C35.7082 46.4156 34.1679 46.8927 32.6559 47.4587C25.9852 49.2779 19.3146 51.2185 12.6439 50.0057C12.3447 49.7631 12.0496 49.5124 11.7585 49.2537C11.4675 48.9949 11.1885 48.7281 10.9217 48.4532C10.6468 48.1864 10.3799 47.9074 10.1212 47.6163C9.86246 47.3253 9.6118 47.0301 9.36924 46.731L8.64152 45.882C8.64152 45.882 18.3443 48.7928 21.4977 47.58C16.6463 48.1864 11.0672 45.6394 7.18609 43.8201C2.17703 35.8639 1.72828 25.8458 6.00963 17.4771C10.291 9.09635 18.6596 3.59002 28.0471 2.9836C37.4345 2.37718 46.446 6.75556 51.7704 14.5056C57.0948 22.2679 57.9437 32.2496 54.002 40.788L53.3956 42.0009V42.2434Z" fill="#FEFEFE"/>
<path d="M143.389 24.7236V57.04L142.661 56.7979C122.285 52.3103 105.305 50.127 89.5381 50.127C76.3181 50.127 62.2489 51.5828 46.1182 54.8574L47.6953 53.1592C51.1398 52.48 54.5967 51.8817 58.0654 51.3643C61.5421 50.8387 65.0267 50.4014 68.5195 50.0537C72.0125 49.6979 75.5097 49.4235 79.0107 49.2295C82.5198 49.0435 86.029 48.9383 89.5381 48.9141C93.9527 48.9626 98.3676 49.1364 102.782 49.4355C107.189 49.7266 111.588 50.1428 115.979 50.6846C120.361 51.2182 124.727 51.8732 129.077 52.6494C133.427 53.4256 137.753 54.323 142.055 55.3418V24.0117L143.389 24.7236ZM89.5381 7.19238C94.0337 7.26515 98.5215 7.45907 103.001 7.77441C107.48 8.09784 111.952 8.54241 116.415 9.1084C120.737 9.65741 125.039 10.3255 129.322 11.1104L127.854 11.3555L128.76 12.374C114.365 9.75402 101.699 8.52637 89.5381 8.52637C78.2588 8.52638 66.6155 9.61752 53.2744 11.9219C53.0318 11.4368 52.6675 11.0736 52.3037 10.8311C65.8875 8.40538 78.0161 7.1924 89.5381 7.19238Z" fill="#FEFEFE"/>
<path fill-rule="evenodd" clip-rule="evenodd" d="M152 12.0435L150.545 11.6797L144.48 10.5881L141.569 4.88774L140.842 3.31104L140.114 4.88774L137.325 10.5881L131.26 11.801L129.805 12.0435L130.775 13.1351L135.141 17.7439L134.171 24.2933L134.05 25.87L135.384 25.1423L140.842 22.2314L146.3 25.1423L147.755 25.87L147.512 24.2933L146.663 17.7439L150.908 13.1351L152 11.9222V12.0435Z" fill="#F15D26"/>
<path d="M71.7094 24.6573C71.952 24.5683 72.1743 24.443 72.3764 24.2813C72.5786 24.1115 72.7524 23.9215 72.898 23.7113C73.0435 23.4849 73.1486 23.2463 73.2133 22.9957C73.278 22.745 73.3022 22.4903 73.2861 22.2316C73.2861 19.6846 70.8604 19.5633 69.5263 19.5633L66.858 19.6846V29.2661H69.0411V25.385H69.5263C70.254 25.385 70.6178 25.6275 70.7391 26.8404L71.3455 29.1448H73.7712C73.5287 28.7809 73.1648 27.4468 72.9222 26.3553C72.6797 25.5063 72.4371 24.8998 71.7094 24.6573ZM69.0411 23.8083V21.2613H69.7688C70.254 21.2613 71.103 21.3826 71.103 22.4741C71.103 23.3231 70.6178 23.8083 69.6475 23.8083H69.0411ZM80.3206 25.0211C80.3206 23.5657 79.7142 22.1103 77.4098 22.1103C76.1969 22.1103 75.3479 22.3529 74.8628 22.7167L75.2266 24.0508C75.7118 23.8083 76.4395 23.5657 77.0459 23.5657C77.8949 23.5657 78.1375 23.9296 78.1375 24.536C76.0756 24.536 74.3777 25.385 74.3777 27.2042C74.3777 28.4171 75.2266 29.3874 76.4395 29.3874C77.1672 29.3874 77.8949 29.1448 78.2587 28.5384L78.5013 29.2661H80.4419L80.3206 27.5681V25.1424V25.0211ZM78.1375 26.8404C78.1375 27.4468 77.6523 27.8107 77.2885 27.8107C76.8033 27.8107 76.5608 27.5681 76.5608 26.9617C76.5608 26.234 77.2885 25.8701 78.2587 25.8701V26.8404H78.1375ZM82.2612 22.2316H81.4122V23.8083H82.2612V26.5978C82.2612 27.4468 82.2612 29.2661 84.4443 29.2661L85.8997 29.1448V27.4468H85.2933C84.8081 27.4468 84.4443 27.2042 84.4443 26.3553V23.687H85.8997V22.1103H84.4443V20.1697L82.2612 20.7762V22.1103V22.2316ZM92.3278 27.4468L90.6298 27.6894C89.7808 27.6894 89.0531 27.3255 88.9318 26.4765H92.9342V25.6275C92.9342 23.2019 91.7214 21.989 90.1447 21.989C87.9615 21.989 86.7487 23.8083 86.7487 25.8701C86.7487 28.0532 87.9615 29.3874 90.3872 29.3874C91.1149 29.3874 91.9639 29.2661 92.6916 29.0235L92.3278 27.4468ZM88.9318 25.0211C88.9318 24.4147 89.2957 23.5657 90.0234 23.5657C90.7511 23.5657 90.9936 24.4147 90.9936 25.0211H88.9318ZM100.575 19.1995H98.392V22.838C98.0282 22.3529 97.543 22.1103 96.8153 22.1103C95.3599 22.1103 94.0258 23.3231 94.0258 25.7488C94.0258 27.8107 94.9961 29.3874 96.694 29.3874C97.4217 29.3874 98.1495 29.0235 98.5133 28.2958L98.6346 29.2661H100.575V19.1995ZM98.392 26.4765C98.392 27.3255 97.7856 27.6894 97.4218 27.6894C96.694 27.6894 96.2089 26.9617 96.2089 25.7488C96.2089 24.6573 96.5728 23.8083 97.4218 23.8083C97.7856 23.8083 98.2707 24.0508 98.2707 25.0211V26.3553L98.392 26.4765ZM110.278 25.1424C110.278 23.5657 109.672 22.1103 107.367 22.1103C106.154 22.1103 105.184 22.3529 104.82 22.7167L105.184 24.0508C105.669 23.8083 106.276 23.5657 106.882 23.5657C107.852 23.5657 108.095 23.9296 108.095 24.536C105.912 24.536 104.335 25.385 104.335 27.2042C104.335 28.4171 105.063 29.3874 106.397 29.3874C107.124 29.3874 107.852 29.1448 108.216 28.5384L108.337 29.2661H110.399L110.278 27.5681V25.1424ZM108.095 26.8404C108.095 27.4468 107.61 27.8107 107.125 27.8107C106.761 27.8107 106.397 27.5681 106.397 26.9617C106.397 26.234 107.246 25.8701 108.095 25.8701V26.8404ZM118.161 25.0211C118.161 23.0806 117.312 22.1103 115.857 22.1103C115.671 22.1103 115.485 22.1305 115.299 22.1709C115.113 22.2195 114.939 22.2841 114.778 22.365C114.608 22.4539 114.45 22.555 114.305 22.6682C114.159 22.7895 114.03 22.9269 113.916 23.0806L113.795 22.2316H111.855V29.2661H114.159V25.1424C114.159 24.1721 114.644 23.9296 115.129 23.9296C115.736 23.9296 115.978 24.4147 115.978 25.1424V29.2661H118.161V24.8998V25.0211ZM126.045 19.1995H123.741V22.838C123.498 22.3529 123.013 22.1103 122.164 22.1103C120.708 22.1103 119.496 23.3231 119.496 25.7488C119.496 27.8107 120.466 29.3874 122.164 29.3874C122.891 29.3874 123.619 29.0235 123.983 28.2958L124.104 29.2661H126.045V19.1995ZM123.741 26.4765C123.741 27.3255 123.255 27.6894 122.77 27.6894C122.164 27.6894 121.557 26.9617 121.557 25.7488C121.557 24.7786 122.043 23.8083 122.77 23.8083C123.134 23.8083 123.741 24.1721 123.741 25.0211V26.3553V26.4765ZM67.1006 38.7263C67.8283 38.4837 68.3134 37.8773 68.3134 37.0283C68.3134 34.9665 66.4941 34.8452 65.5239 34.8452C65.3621 34.8533 65.2004 34.8614 65.0387 34.8694C64.877 34.8856 64.7153 34.9018 64.5536 34.918C64.3919 34.9422 64.2302 34.9665 64.0685 34.9907C63.9067 35.0231 63.745 35.0554 63.5833 35.0877V42.3648H65.16V39.454H65.5239C66.009 39.454 66.2516 39.6966 66.4942 40.6668L66.858 42.3648H68.556L68.0708 40.303C67.9496 39.5753 67.5857 39.0901 67.1006 38.9689V38.7263ZM65.16 38.1199V36.3006H65.7664C66.1303 36.3006 66.7367 36.4219 66.7367 37.2709C66.7367 37.8773 66.2516 38.2411 65.5239 38.2411H65.16V38.1199ZM73.2861 40.7881L72.0732 41.0307C71.3455 41.0307 70.8604 40.7881 70.8604 40.1817H73.7712V39.454C73.7712 37.6347 72.9222 36.7857 71.7094 36.7857C70.0114 36.7857 69.2837 38.1199 69.2837 39.6966C69.2837 41.2733 70.1327 42.2435 71.7094 42.2435C72.4371 42.2435 73.0435 42.2435 73.5287 42.001L73.2861 40.7881ZM70.8604 38.9689C70.8604 38.605 70.9817 37.8773 71.5881 37.8773C72.1945 37.8773 72.3158 38.4837 72.3158 39.0901H70.7391L70.8604 38.9689ZM78.1375 40.7881L77.4098 41.0307C76.8034 41.0307 76.1969 40.4243 76.1969 39.5753C76.1969 38.7263 76.6821 38.1199 77.4098 38.1199L78.1375 38.2411L78.38 37.0283C78.2911 36.996 78.2022 36.9636 78.1132 36.9313C78.0243 36.907 77.9353 36.8868 77.8464 36.8706C77.7494 36.8464 77.6564 36.8262 77.5674 36.81C77.4785 36.8019 77.3855 36.7938 77.2885 36.7857C75.5905 36.7857 74.4989 37.9986 74.4989 39.5753C74.4989 41.2733 75.5905 42.2435 77.1672 42.2435L78.38 42.1223L78.1375 40.9094V40.7881ZM81.5334 36.7857C80.078 36.7857 78.9865 37.8773 78.9865 39.5753C78.9865 41.3946 79.9567 42.2435 81.4122 42.2435C82.625 42.2435 83.8378 41.6371 83.8378 39.5753C83.8378 37.8773 82.9889 36.7857 81.4122 36.7857H81.5334ZM82.2612 39.5753C82.2612 40.4243 82.0186 41.152 81.4122 41.152C80.927 41.152 80.6844 40.4243 80.6844 39.5753C80.6844 38.8476 80.8057 37.9986 81.4122 37.9986C82.0186 37.9986 82.2612 38.7263 82.2612 39.5753ZM92.3278 38.9689C92.3278 37.6347 91.7214 36.7857 90.7511 36.7857C89.9021 36.7857 89.5382 37.2709 89.1744 37.6347C89.0531 37.1496 88.5679 36.7857 87.9615 36.7857C87.1125 36.7857 86.7487 37.2709 86.5061 37.5134L86.3848 36.907H84.9294V42.3648H86.6274V39.0901C86.6274 38.4837 86.9912 38.2411 87.2338 38.2411C87.7189 38.2411 87.8402 38.7263 87.8402 39.2114V42.3648H89.5382V39.2114C89.5382 38.7263 89.7808 38.3624 90.1447 38.3624C90.6298 38.3624 90.7511 38.8476 90.7511 39.5753V42.3648H92.3278V39.2114V38.9689ZM100.939 38.9689C100.939 37.6347 100.333 36.7857 99.3623 36.7857C98.5133 36.7857 98.1494 37.2709 97.7856 37.6347C97.6643 37.1496 97.1792 36.7857 96.5727 36.7857C95.7238 36.7857 95.3599 37.2709 94.9961 37.5134V36.907H93.5406V42.3648H95.2386V39.0901C95.2386 38.4837 95.6025 38.2411 95.845 38.2411C96.3302 38.2411 96.4515 38.7263 96.4515 39.2114V42.3648H98.1494V39.2114C98.1494 38.7263 98.392 38.3624 98.7559 38.3624C99.241 38.3624 99.3623 38.8476 99.3623 39.5753V42.3648H100.939V39.2114V38.9689ZM106.033 40.9094L104.82 41.0307C104.092 41.0307 103.607 40.7881 103.607 40.1817H106.518V39.454C106.518 37.6347 105.669 36.7857 104.335 36.7857C102.758 36.7857 101.909 38.1199 101.909 39.6966C101.909 41.2733 102.88 42.3648 104.456 42.3648C105.184 42.3648 105.669 42.2435 106.276 42.001L106.033 40.7881V40.9094ZM103.486 38.9689C103.486 38.605 103.729 37.9986 104.335 37.9986C104.82 37.9986 105.063 38.605 105.063 38.9689H103.486ZM112.097 38.9689C112.097 37.6347 111.491 36.7857 110.399 36.7857C109.672 36.7857 109.186 37.2709 108.944 37.6347V36.907H107.488V42.3648H109.186V39.2114C109.186 38.605 109.55 38.3624 109.914 38.3624C110.278 38.3624 110.52 38.7263 110.52 39.3327V42.3648H112.097V39.2114V38.9689ZM118.04 34.6026H116.342V37.5134C116.221 37.1496 115.736 36.907 115.129 36.907C114.159 36.907 113.189 37.8773 113.189 39.6966C113.189 41.2733 113.916 42.4861 115.129 42.4861C115.736 42.4861 116.342 42.1223 116.585 41.6371V42.3648H118.04V34.7239V34.6026ZM116.342 40.0604C116.342 40.7881 115.978 41.0307 115.614 41.0307C115.129 41.0307 114.765 40.5456 114.765 39.5753C114.765 38.8476 115.129 38.1199 115.614 38.1199C115.978 38.1199 116.342 38.3624 116.342 39.0901V40.0604ZM123.134 40.9094L121.921 41.0307C121.194 41.0307 120.708 40.7881 120.708 40.1817H123.619V39.454C123.619 37.6347 122.77 36.7857 121.436 36.7857C119.859 36.7857 119.01 38.1199 119.01 39.6966C119.01 41.2733 119.981 42.3648 121.557 42.3648C122.285 42.3648 122.77 42.2435 123.377 42.001L123.134 40.7881V40.9094ZM120.587 38.9689C120.587 38.605 120.83 37.9986 121.436 37.9986C121.921 37.9986 122.164 38.605 122.164 38.9689H120.587ZM129.32 34.6026H127.622V37.5134C127.379 37.1496 127.015 36.907 126.409 36.907C125.317 36.907 124.347 37.8773 124.347 39.6966C124.347 41.2733 125.196 42.4861 126.409 42.4861C126.894 42.4861 127.5 42.1223 127.743 41.6371L127.864 42.3648H129.32V34.7239V34.6026ZM127.622 40.0604C127.622 40.7881 127.258 41.0307 126.894 41.0307C126.409 41.0307 126.045 40.5456 126.045 39.5753C126.045 38.8476 126.287 38.1199 126.894 38.1199C127.258 38.1199 127.622 38.3624 127.622 39.0901V40.0604ZM51.2123 64.1961V71.2306H48.4227V64.1961H46.4822V62.0129H53.1528V64.1961H51.2123ZM62.3704 71.2306H58.9745L57.6403 67.592H56.7914V71.2306H53.8805V61.8916H58.7319C59.9447 61.8916 60.6725 62.1342 61.2789 62.6194C61.8853 63.1045 62.2492 63.8322 62.2492 64.6812L61.8853 66.1366C61.6427 66.5005 61.2789 66.8643 60.5512 67.2282L62.2492 71.3519L62.3704 71.2306ZM56.7914 65.6515H58.0042C58.4894 65.6515 58.7319 65.6515 58.9745 65.4089C59.2171 65.2876 59.3383 65.0451 59.3383 64.8025C59.3383 64.1961 58.9745 63.8322 58.1255 63.8322H56.9126V65.6515H56.7914ZM71.3455 61.8916V68.0772C71.3455 69.29 71.1029 70.139 70.3752 70.6241C69.9548 70.8991 69.502 71.1093 69.0169 71.2548C68.5317 71.4004 68.0344 71.4731 67.525 71.4731C67.0156 71.4731 66.5184 71.4004 66.0333 71.2548C65.5481 71.1093 65.0953 70.8991 64.6749 70.6241C63.9472 70.139 63.5833 69.4113 63.5833 68.1985V61.7704H66.6154V67.8346C66.6154 68.3197 66.6154 68.6836 66.858 68.9262L67.8283 69.1687C68.1921 69.1687 68.4347 69.1687 68.6773 68.9262C68.9198 68.8049 69.0411 68.5623 69.0411 68.441V61.7704H71.4668L71.3455 61.8916ZM71.952 68.5623L74.6202 68.0772C74.8628 68.8049 75.4692 69.29 76.4395 69.29C77.1672 69.29 77.531 69.0474 77.531 68.5623C77.531 68.441 77.5311 68.1985 77.2885 68.1985L76.3182 67.8346C74.6202 67.592 73.65 67.1069 73.1648 66.6217C72.9142 66.3388 72.7322 66.0153 72.619 65.6515C72.5058 65.2876 72.4654 64.9197 72.4977 64.5478C72.5301 64.1678 72.6352 63.812 72.8131 63.4805C72.991 63.1409 73.2295 62.8538 73.5287 62.6194C74.1351 62.0129 75.1053 61.6491 76.3182 61.6491C78.2587 61.6491 79.5929 62.4981 80.1993 64.0748L77.7736 64.6812C77.531 64.0748 77.0459 63.8322 76.3182 63.8322C75.5905 63.8322 75.3479 63.9535 75.3479 64.3173L75.4692 64.8025L76.3182 65.0451L78.7439 65.6515C78.9864 65.7485 79.2128 65.8779 79.4231 66.0396C79.6333 66.2013 79.8112 66.3913 79.9567 66.6096C80.1104 66.8279 80.2276 67.0584 80.3085 67.3009C80.3893 67.5516 80.4338 67.8103 80.4419 68.0772C80.4419 69.1687 80.078 69.8964 79.229 70.5029C79.0107 70.6646 78.7803 70.8061 78.5377 70.9274C78.3032 71.0567 78.0566 71.1618 77.7979 71.2427C77.5391 71.3236 77.2763 71.3842 77.0095 71.4246C76.7346 71.465 76.4638 71.4812 76.1969 71.4731C73.8925 71.4731 72.5584 70.5029 71.952 68.5623ZM85.5358 64.0748V71.3519H82.8676V64.0748H80.8057V61.8916H87.4764V64.0748H85.6571H85.5358ZM95.4812 68.9262V71.3519H88.3254V61.7704H95.6025V63.9535H91.2362V65.1663H94.6322V67.3495H91.2362V69.0474H95.4812V68.9262ZM96.694 71.3519V61.7704H100.333C101.909 61.7704 103.122 62.1342 103.971 63.1045C104.157 63.3309 104.323 63.5735 104.468 63.8322C104.606 64.091 104.723 64.3618 104.82 64.6448C104.909 64.9197 104.974 65.2027 105.014 65.4938C105.063 65.793 105.079 66.0881 105.063 66.3792C105.063 67.8346 104.578 68.9262 103.85 69.7752C102.88 70.7454 101.788 71.1093 100.454 71.1093H96.5727L96.694 71.3519ZM99.6049 69.1687H100.333C100.818 69.1687 101.182 68.9262 101.545 68.441C101.909 67.9559 102.031 67.2282 102.031 66.5005C102.031 65.7728 101.909 65.2876 101.545 64.6812C101.303 64.1961 100.818 63.9535 100.333 63.9535H99.6049V69.1687ZM109.55 67.9559V71.3519H106.518V68.5623L108.337 66.8643L106.518 65.1663V61.8916H110.642C111.612 61.8916 112.34 61.8917 112.946 62.2555C113.431 62.4981 113.916 62.7406 114.159 63.2258C114.523 63.7109 114.644 64.3173 114.644 64.9238C114.644 65.7728 114.28 66.5005 113.674 67.1069C113.504 67.2363 113.322 67.3495 113.128 67.4465C112.934 67.5435 112.732 67.6244 112.522 67.6891C112.32 67.7537 112.109 67.7982 111.891 67.8225C111.681 67.8467 111.466 67.8508 111.248 67.8346H109.55V67.9559ZM109.55 65.894H110.52C111.369 65.894 111.733 65.5302 111.733 64.9238C111.733 64.3173 111.369 63.9535 110.52 63.9535H109.55V65.7728V65.894ZM124.104 71.3519H120.951L119.496 67.7133H118.647V71.3519H115.736V61.7704H120.708C121.8 61.7704 122.649 62.0129 123.134 62.4981C123.862 62.9832 124.104 63.7109 124.104 64.5599C124.104 65.0451 124.104 65.5302 123.862 66.0153C123.765 66.1366 123.664 66.2498 123.559 66.3549C123.445 66.46 123.328 66.5611 123.207 66.6581C123.086 66.7471 122.956 66.8279 122.819 66.9007C122.689 66.9816 122.552 67.0503 122.406 67.1069L124.226 71.2306L124.104 71.3519ZM118.647 65.6515H119.859C120.223 65.6515 120.587 65.6515 120.708 65.4089C120.951 65.4089 121.072 65.0451 121.072 64.8025C121.072 64.1961 120.708 63.8322 119.859 63.8322H118.647V65.6515ZM129.562 71.4731C128.228 71.4731 127.136 70.988 126.287 70.139C126.069 69.8964 125.875 69.6296 125.705 69.3385C125.544 69.0555 125.41 68.7564 125.305 68.441C125.2 68.1338 125.127 67.8144 125.087 67.4829C125.054 67.1594 125.05 66.832 125.075 66.5005C125.075 65.1663 125.438 64.0748 126.287 63.1045C127.015 62.1342 128.107 61.7704 129.562 61.7704C130.775 61.7704 131.988 62.1342 132.837 62.9832C133.055 63.2258 133.249 63.4926 133.419 63.7837C133.581 64.0667 133.714 64.3659 133.819 64.6812C133.924 64.9885 133.997 65.3078 134.038 65.6393C134.07 65.9628 134.074 66.2902 134.05 66.6217C134.05 67.9559 133.565 69.1687 132.837 70.139C131.988 70.988 130.896 71.4731 129.562 71.4731ZM129.562 69.29C130.047 69.29 130.411 69.0474 130.532 68.6836C130.775 68.1985 130.896 67.4707 130.896 66.2579C130.896 64.6812 130.411 63.8322 129.683 63.8322C128.592 63.8322 128.107 64.8025 128.107 66.743C128.107 68.441 128.592 69.29 129.562 69.29ZM134.292 68.5623L136.961 68.0772C137.203 68.8049 137.81 69.29 138.659 69.29C139.386 69.29 139.871 69.0474 139.871 68.6836C139.871 68.441 139.75 68.3197 139.508 68.1985L138.659 67.8346C136.961 67.592 135.869 67.1069 135.384 66.6217C135.02 66.1366 134.777 65.4089 134.777 64.8025C134.777 63.9535 135.02 63.2258 135.748 62.6194C136.475 62.0129 137.446 61.7704 138.659 61.7704C140.599 61.7704 141.812 62.4981 142.418 64.0748L139.993 64.8025C139.871 64.0748 139.265 63.8322 138.537 63.8322C137.931 63.8322 137.567 63.9535 137.567 64.4386C137.567 64.5599 137.567 64.6812 137.81 64.8025L138.659 65.0451L141.084 65.6515C141.327 65.7485 141.553 65.8779 141.763 66.0396C141.974 66.2013 142.152 66.3913 142.297 66.6096C142.451 66.8279 142.568 67.0584 142.649 67.3009C142.73 67.5516 142.774 67.8103 142.782 68.0772C142.782 69.29 142.418 69.8964 141.569 70.5029C141.351 70.6646 141.121 70.8061 140.878 70.9274C140.644 71.0567 140.397 71.1618 140.138 71.2427C139.879 71.3236 139.617 71.3842 139.35 71.4246C139.075 71.465 138.804 71.4812 138.537 71.4731C136.233 71.4731 134.899 70.5029 134.292 68.5623Z" fill="#FEFEFE"/>
</svg>
