<svg width="220" height="120" viewBox="0 0 220 120" fill="none" xmlns="http://www.w3.org/2000/svg">
<rect width="220" height="120" fill="#FEFEFE" fill-opacity="0.05"/>
<path d="M162.143 41.8229C159.27 40.7697 155.919 40.6739 152.951 40.4824L142.61 39.5249C135.62 39.0462 128.63 38.5674 121.545 37.8972L79.606 34.2587L68.6905 33.3012L59.7858 32.5352C55.2855 32.5352 53.0833 35.5034 52.3173 39.2377C51.9343 40.7697 51.9343 42.3017 52.1258 43.7379C52.796 49.1956 53.3705 54.5576 54.2323 60.0154C54.8068 63.8454 56.0515 67.6754 59.4985 69.8776C62.8498 71.9841 70.031 71.5054 74.8185 71.5054H132.652L134.088 72.6544C135.716 74.2821 137.535 75.7184 139.45 76.9631C142.801 79.1654 147.78 81.9421 151.897 81.5591C151.099 80.9846 150.375 80.3303 149.724 79.5963C149.073 78.8622 148.511 78.0643 148.039 77.2025C147.566 76.3408 147.193 75.4375 146.918 74.4928C146.65 73.548 146.491 72.5842 146.44 71.6011C152.376 71.5054 161.089 72.3671 164.728 67.7711C168.175 63.6539 167.792 57.2386 167.983 52.2596C168.175 47.7594 166.739 43.4507 162.238 41.7272L162.143 41.8229ZM76.3506 60.9729H73.1908V55.3236H68.3076V61.0686H65.1478V47.2806H68.3076V52.6426H73.2866V47.3764H76.4463V60.9729H76.3506ZM87.7448 58.0046C87.6108 58.3174 87.4512 58.6174 87.2661 58.9047C87.0809 59.1919 86.8671 59.4568 86.6245 59.6994C86.3884 59.9484 86.1298 60.1718 85.849 60.3697C85.5745 60.5675 85.2808 60.7367 84.9681 60.8771C84.6361 60.9984 84.301 61.091 83.9627 61.1548C83.618 61.2186 83.2701 61.2538 82.919 61.2601C82.5679 61.2665 82.2201 61.2474 81.8754 61.2027C81.5243 61.1516 81.1828 61.075 80.8508 60.9729C80.704 60.9218 80.5636 60.8644 80.4295 60.8005C80.2891 60.7367 80.155 60.6665 80.0274 60.5899C79.8997 60.5069 79.7752 60.4175 79.6539 60.3218C79.539 60.226 79.4273 60.1239 79.3188 60.0154C78.9358 59.6324 78.5528 59.0579 78.3613 58.4834C78.2336 58.1195 78.1379 57.7493 78.0741 57.3727C78.0102 56.9961 77.9783 56.6163 77.9783 56.2333C77.9783 55.8503 78.0102 55.4705 78.0741 55.0938C78.1379 54.7172 78.2336 54.347 78.3613 53.9831C78.5528 53.4852 78.8145 53.0288 79.1465 52.6139C79.4848 52.199 79.8773 51.8447 80.3242 51.5511C80.771 51.2575 81.253 51.0404 81.77 50.9C82.2807 50.7596 82.8041 50.7021 83.3403 50.7276C83.6595 50.7085 83.9818 50.7213 84.3074 50.7659C84.6265 50.8042 84.9361 50.8777 85.2362 50.9862C85.5426 51.0947 85.833 51.2319 86.1075 51.3979C86.3884 51.5639 86.6469 51.7554 86.8831 51.9724C87.7448 52.8341 88.1278 54.0789 88.1278 55.8024C88.1278 56.5684 88.0321 57.3344 87.7448 58.0046ZM104.597 60.9729H101.437V54.7491C101.437 54.2704 101.437 53.9831 101.246 53.6959C101.246 53.4086 100.958 53.3129 100.575 53.3129C100.384 53.3129 100.097 53.3129 99.9051 53.5044L99.2348 54.1746L98.7561 55.1321L98.6603 56.0896V60.9729H95.5963V54.6534C95.5963 54.2704 95.5963 53.9831 95.4048 53.6959C95.3091 53.4086 95.0218 53.3129 94.6388 53.3129C94.4473 53.3129 94.1601 53.3129 93.9686 53.5044L93.2983 54.1746L92.8196 55.1321L92.6281 56.0896V60.9729H89.5641V51.0149H92.4366C92.443 51.1426 92.4493 51.2702 92.4557 51.3979C92.4621 51.5256 92.4653 51.6532 92.4653 51.7809C92.4653 51.9086 92.4621 52.0362 92.4557 52.1639C92.4493 52.2916 92.443 52.4192 92.4366 52.5469C92.7238 51.9724 93.1068 51.5894 93.6813 51.2064C93.8281 51.1234 93.9781 51.0532 94.1313 50.9957C94.2845 50.9319 94.4441 50.8808 94.6101 50.8425C94.7697 50.8042 94.9325 50.7755 95.0984 50.7564C95.2644 50.7372 95.4304 50.7276 95.5963 50.7276C96.3623 50.7276 97.0326 50.9191 97.5113 51.3021C97.8943 51.5894 98.1816 52.0681 98.4688 52.5469C98.6603 52.0681 99.0433 51.5894 99.6178 51.3021C100.097 50.9191 100.767 50.7276 101.533 50.7276C102.49 50.7276 103.256 51.0149 103.831 51.6851C104.31 52.1639 104.597 53.0256 104.597 54.1746V60.9729ZM115.225 56.0896V56.7599H109.193C109.193 57.4301 109.384 57.9089 109.863 58.2919C110.246 58.6749 110.821 58.8664 111.682 58.8664C111.931 58.86 112.177 58.8409 112.42 58.8089C112.669 58.777 112.914 58.7323 113.157 58.6749C113.393 58.6238 113.629 58.5568 113.865 58.4738C114.102 58.3908 114.331 58.2983 114.555 58.1961L114.938 60.5899C114.631 60.7112 114.322 60.8165 114.009 60.9059C113.696 60.9952 113.38 61.0686 113.061 61.1261C112.736 61.1772 112.41 61.2155 112.084 61.241C111.759 61.2665 111.433 61.2729 111.108 61.2601C109.576 61.2601 108.235 60.7814 107.374 60.0154C106.512 59.1536 106.033 57.9089 106.033 56.0896C106.033 55.3236 106.129 54.6534 106.416 53.9831C106.454 53.8236 106.505 53.664 106.569 53.5044C106.633 53.3512 106.703 53.2012 106.78 53.0544C106.863 52.9139 106.952 52.7767 107.048 52.6426C107.15 52.5086 107.259 52.3809 107.374 52.2596C107.757 51.7809 108.235 51.3979 108.81 51.1106C109.48 50.8234 110.15 50.7276 110.916 50.7276C111.082 50.7276 111.245 50.734 111.405 50.7468C111.571 50.7659 111.733 50.7915 111.893 50.8234C112.053 50.8553 112.212 50.8936 112.372 50.9383C112.525 50.9894 112.678 51.0468 112.831 51.1106C113.099 51.2192 113.352 51.3564 113.588 51.5224C113.824 51.6883 114.038 51.8798 114.229 52.0969C114.414 52.3139 114.577 52.5501 114.718 52.8054C114.852 53.0544 114.957 53.3193 115.034 53.6001C115.091 53.8044 115.139 54.0087 115.177 54.2129C115.209 54.4172 115.235 54.6247 115.254 54.8353C115.267 55.046 115.273 55.2566 115.273 55.4673C115.267 55.6715 115.251 55.879 115.225 56.0896ZM124.8 58.4834C124.749 58.6174 124.692 58.7515 124.628 58.8855C124.558 59.0132 124.484 59.1377 124.408 59.259C124.325 59.3802 124.235 59.4951 124.139 59.6037C124.05 59.7122 123.951 59.8175 123.843 59.9196C123.568 60.1239 123.278 60.3058 122.971 60.4654C122.671 60.6314 122.358 60.7718 122.033 60.8867C121.707 60.9952 121.375 61.0814 121.037 61.1452C120.699 61.2091 120.357 61.2474 120.013 61.2601C119.725 61.2601 119.435 61.2538 119.141 61.241C118.854 61.2282 118.567 61.2059 118.28 61.174C117.992 61.142 117.705 61.1006 117.418 61.0495C117.131 60.9984 116.846 60.941 116.566 60.8771L116.853 57.9089C117.095 58.011 117.341 58.1004 117.59 58.177C117.845 58.2472 118.101 58.3078 118.356 58.3589C118.611 58.4036 118.87 58.4387 119.132 58.4642C119.393 58.4834 119.655 58.4898 119.917 58.4834C120.491 58.4834 120.874 58.3876 121.257 58.1961C121.64 57.9089 121.736 57.6216 121.736 57.0471C121.736 56.6641 121.736 56.3769 121.353 56.1854L120.396 55.6109L119.055 55.1321L117.715 54.3661C117.485 54.1938 117.281 53.9959 117.102 53.7725C116.917 53.5491 116.763 53.3097 116.642 53.0544C116.515 52.799 116.422 52.5309 116.365 52.2501C116.301 51.9692 116.272 51.6851 116.278 51.3979C116.278 51.1043 116.307 50.8138 116.365 50.5266C116.428 50.2457 116.524 49.9712 116.652 49.7031C116.773 49.435 116.923 49.1861 117.102 48.9563C117.287 48.7265 117.491 48.519 117.715 48.3339C118.193 47.9509 118.768 47.6636 119.438 47.3764C120.108 47.1849 120.874 47.0891 121.736 47.0891C121.947 47.0955 122.154 47.1051 122.358 47.1179C122.569 47.137 122.78 47.1594 122.99 47.1849C123.195 47.204 123.402 47.2296 123.613 47.2615C123.817 47.2998 124.021 47.3381 124.226 47.3764L123.938 50.1531C123.172 49.8659 122.406 49.7701 121.545 49.7701C120.97 49.7701 120.491 49.7701 120.204 50.0574C119.821 50.3446 119.63 50.7276 119.725 51.2064C119.725 51.4936 119.917 51.6851 120.108 51.8766L121.066 52.4511L122.502 53.0256L123.843 53.7916C124.226 54.0789 124.609 54.4619 124.8 54.9406C125.087 55.4194 125.279 55.8981 125.279 56.6641C125.279 57.3344 125.183 57.9089 124.896 58.5791L124.8 58.4834ZM131.311 61.1644C131.088 61.2027 130.864 61.2282 130.641 61.241C130.417 61.2601 130.194 61.2697 129.971 61.2697C129.747 61.2697 129.524 61.2601 129.3 61.241C129.077 61.2282 128.854 61.2027 128.63 61.1644L127.673 60.5899L127.194 59.6324L127.002 58.0046V53.3129H125.566V51.0149H127.002V48.0466L130.162 47.1849V51.0149H132.269V53.3129H130.162V57.4301C130.162 57.9089 130.162 58.2919 130.354 58.3876C130.545 58.6749 130.832 58.7706 131.215 58.7706H131.694L132.269 58.6749L132.364 61.0686L131.311 61.2601V61.1644ZM139.258 60.9729V59.5366C139.195 59.6643 139.124 59.7888 139.048 59.9101C138.965 60.0313 138.875 60.1431 138.78 60.2452C138.684 60.3537 138.579 60.4526 138.464 60.542C138.349 60.6314 138.231 60.7112 138.109 60.7814C137.535 61.0686 136.96 61.2601 136.194 61.2601C135.716 61.2601 135.237 61.1644 134.95 60.9729C134.784 60.9027 134.627 60.8165 134.48 60.7144C134.327 60.6122 134.19 60.4941 134.069 60.3601C133.947 60.226 133.839 60.0824 133.743 59.9292C133.647 59.776 133.571 59.6132 133.513 59.4409C133.322 59.0579 133.322 58.6749 133.322 58.2919C133.322 57.6216 133.418 57.0471 133.705 56.6641C133.992 56.1854 134.375 55.8024 134.854 55.5151C135.001 55.4385 135.154 55.3683 135.313 55.3045C135.467 55.247 135.623 55.1928 135.783 55.1417C135.949 55.097 136.111 55.0555 136.271 55.0172C136.437 54.9853 136.603 54.9598 136.769 54.9406C137.343 54.7491 138.109 54.7491 138.971 54.7491V54.2704C138.971 53.8874 138.78 53.6001 138.588 53.3129L137.152 53.1214C136.673 53.1214 136.194 53.1214 135.716 53.3129C135.601 53.3448 135.486 53.3767 135.371 53.4086C135.256 53.4469 135.144 53.4852 135.036 53.5235C134.921 53.5618 134.809 53.6033 134.701 53.648C134.592 53.6927 134.484 53.7406 134.375 53.7916L133.896 51.3021C134.369 51.1362 134.854 51.0053 135.352 50.9096C135.843 50.8138 136.338 50.7468 136.836 50.7085C137.34 50.6766 137.841 50.6798 138.339 50.7181C138.843 50.75 139.341 50.817 139.833 50.9191C140.407 51.1106 140.79 51.3021 141.173 51.6851C141.461 51.9724 141.748 52.3554 141.844 52.7384C142.035 53.2171 142.035 53.6959 142.035 54.1746V59.8239L142.131 60.9729H139.258ZM149.791 53.7916C148.833 53.6001 148.259 53.7916 147.78 54.2704C147.397 54.7491 147.11 55.6109 147.11 56.8556V60.9729H144.046V51.0149H146.918C146.918 51.1617 146.918 51.3053 146.918 51.4458C146.912 51.5926 146.906 51.7362 146.899 51.8766C146.886 52.0235 146.877 52.1671 146.87 52.3075C146.858 52.4543 146.842 52.598 146.823 52.7384C147.11 52.1639 147.493 51.6851 147.972 51.2064C148.45 50.8234 149.121 50.7276 149.887 50.7276L149.695 53.7916H149.791ZM157.259 59.2494C157.068 59.6324 156.781 60.0154 156.302 60.3026L154.961 60.9729C154.623 61.0623 154.282 61.1261 153.937 61.1644C153.592 61.2091 153.247 61.2314 152.903 61.2314C152.558 61.2314 152.213 61.2091 151.869 61.1644C151.524 61.1261 151.182 61.0623 150.844 60.9729L151.036 58.4834C151.61 58.6749 152.28 58.8664 153.046 58.8664C153.525 58.8664 153.812 58.7706 154.004 58.5791C154.195 58.4834 154.291 58.2919 154.291 58.0046C154.291 57.8131 154.291 57.6216 154.004 57.4301C153.953 57.3918 153.902 57.3535 153.851 57.3152C153.793 57.2833 153.736 57.2514 153.678 57.2195C153.627 57.1876 153.57 57.1557 153.506 57.1237C153.449 57.0982 153.391 57.0727 153.334 57.0471L152.472 56.7599L151.514 56.2811C151.323 55.9939 151.036 55.7066 150.94 55.3236C150.895 55.2279 150.854 55.129 150.815 55.0268C150.777 54.9247 150.748 54.8226 150.729 54.7204C150.704 54.6119 150.685 54.5066 150.672 54.4044C150.659 54.2959 150.653 54.1874 150.653 54.0789C150.653 53.6001 150.653 53.1214 150.94 52.7384C151.036 52.3554 151.323 51.9724 151.706 51.6851L153.046 50.9191C153.276 50.8489 153.512 50.7947 153.755 50.7564C153.991 50.7117 154.23 50.683 154.473 50.6702C154.716 50.651 154.958 50.6479 155.201 50.6606C155.443 50.667 155.683 50.6893 155.919 50.7276L156.876 50.9191L156.781 53.3129L155.823 53.1214L154.961 53.0256C154.578 53.0256 154.291 53.0256 154.1 53.2171L153.812 53.7916C153.812 53.9831 153.908 54.1746 154.1 54.2704L154.866 54.6534C155.006 54.7364 155.146 54.8194 155.287 54.9023C155.434 54.9853 155.577 55.0651 155.718 55.1417C155.865 55.2247 156.008 55.3045 156.149 55.3811C156.295 55.4577 156.442 55.5343 156.589 55.6109C156.876 55.8024 157.164 56.0896 157.355 56.4726C157.547 56.7599 157.547 57.2386 157.547 57.7174C157.547 58.2919 157.547 58.7706 157.259 59.2494Z" fill="#FEFEFE"/>
<path d="M71.8499 75.8143L73.0946 78.3038L75.8713 78.7825C76.3501 78.7825 76.5416 79.4528 76.2543 79.74L74.2436 81.655L74.7224 84.5275C74.7224 85.0063 74.2436 85.2935 73.7649 85.102L71.2753 83.7615L68.7858 85.102C68.4028 85.2935 67.8283 85.0063 67.9241 84.4318L68.4028 81.7508L66.4878 79.8358C66.3857 79.7655 66.3123 79.673 66.2676 79.5581C66.2229 79.4432 66.2166 79.3251 66.2485 79.2038C66.2804 79.0825 66.3442 78.9836 66.44 78.907C66.5421 78.8304 66.6538 78.7889 66.7751 78.7825L69.5518 78.3038L70.7966 75.8143C70.9881 75.4313 71.6584 75.4313 71.8499 75.8143ZM97.9896 75.91L99.5216 78.974L102.873 79.5485C103.543 79.5485 103.83 80.3145 103.352 80.7933L100.862 83.187L101.437 86.5383C101.469 86.6787 101.459 86.8159 101.408 86.95C101.363 87.084 101.283 87.1957 101.169 87.2851C101.06 87.3809 100.936 87.4383 100.795 87.4575C100.655 87.4766 100.517 87.4575 100.383 87.4L97.2236 85.7723L94.1596 87.4C94.0319 87.4319 93.9043 87.4351 93.7766 87.4096C93.6553 87.3777 93.5436 87.317 93.4415 87.2277C93.3457 87.1447 93.2787 87.0393 93.2404 86.9117C93.1957 86.7904 93.183 86.6659 93.2021 86.5383L93.6809 83.187L91.1914 80.7933C91.102 80.6847 91.0477 80.5635 91.0286 80.4294C91.0031 80.2954 91.0158 80.1613 91.0669 80.0273C91.1179 79.8996 91.1977 79.7943 91.3062 79.7113C91.4148 79.6219 91.5361 79.5677 91.6701 79.5485L95.0214 78.974L96.5534 75.91C96.6108 75.7632 96.7034 75.6419 96.831 75.5462C96.9651 75.4568 97.1119 75.4121 97.2715 75.4121C97.4311 75.4121 97.5779 75.4568 97.7119 75.5462C97.8396 75.6419 97.9322 75.7632 97.9896 75.91ZM84.5846 75.8143L85.7336 78.3038L88.6061 78.7825C88.9891 78.7825 89.1806 79.4528 88.8934 79.74L86.8826 81.655L87.3614 84.5275C87.3614 85.0063 86.8826 85.2935 86.4038 85.102L83.9143 83.7615L81.5206 85.102C81.0418 85.2935 80.5631 85.0063 80.5631 84.4318L81.0418 81.7508L79.1268 79.8358C79.0247 79.7655 78.9513 79.673 78.9066 79.5581C78.8619 79.4432 78.8555 79.3251 78.8875 79.2038C78.9194 79.0825 78.9832 78.9836 79.079 78.907C79.1811 78.8304 79.2928 78.7889 79.4141 78.7825L82.1909 78.3038L83.4356 75.8143C83.6271 75.4313 84.2973 75.4313 84.4888 75.8143H84.5846ZM111.203 75.8143L112.448 78.3038L115.32 78.7825C115.799 78.7825 115.991 79.4528 115.608 79.74L113.597 81.655L114.076 84.5275C114.076 85.0063 113.597 85.2935 113.118 85.102L110.724 83.7615L108.235 85.102C107.756 85.2935 107.277 85.0063 107.277 84.4318L107.852 81.7508L105.841 79.8358C105.739 79.7655 105.666 79.673 105.621 79.5581C105.576 79.4432 105.57 79.3251 105.602 79.2038C105.634 79.0825 105.697 78.9836 105.793 78.907C105.895 78.8304 106.007 78.7889 106.128 78.7825L109.001 78.3038L110.15 75.8143C110.341 75.4313 111.107 75.4313 111.203 75.8143ZM122.597 75.8143L123.842 78.3038L126.619 78.7825C127.098 78.7825 127.289 79.4528 126.906 79.74L124.991 81.655L125.374 84.5275C125.47 85.0063 124.991 85.2935 124.512 85.102L122.023 83.7615L119.533 85.102C119.15 85.2935 118.576 85.0063 118.672 84.4318L119.15 81.7508L117.235 79.8358C117.133 79.7655 117.06 79.673 117.015 79.5581C116.97 79.4432 116.964 79.3251 116.996 79.2038C117.028 79.0825 117.092 78.9836 117.187 78.907C117.29 78.8304 117.401 78.7889 117.523 78.7825L120.299 78.3038L121.544 75.8143C121.736 75.4313 122.406 75.4313 122.502 75.8143H122.597Z" fill="#F15D26"/>
<path d="M136.769 57.0474C136.718 57.0666 136.67 57.0889 136.625 57.1144C136.58 57.14 136.539 57.1687 136.501 57.2006C136.456 57.2325 136.418 57.2676 136.386 57.3059C136.347 57.3442 136.315 57.3857 136.29 57.4304V57.9092C136.29 58.1964 136.29 58.3879 136.481 58.5794C136.673 58.7709 136.864 58.8667 137.247 58.8667C137.369 58.8667 137.487 58.8539 137.602 58.8284C137.717 58.8028 137.828 58.7645 137.937 58.7135C138.039 58.6688 138.138 58.6081 138.234 58.5315C138.329 58.4613 138.416 58.3815 138.492 58.2922L138.875 57.7177L138.971 56.9517V56.6644H137.63L136.769 57.0474ZM83.1486 53.4089C83.0848 53.4025 83.021 53.3994 82.9571 53.3994C82.8933 53.4057 82.8263 53.4121 82.7561 53.4185C82.6922 53.4249 82.6316 53.4345 82.5741 53.4472C82.5103 53.4664 82.4465 53.4855 82.3827 53.5047C82.2614 53.5685 82.1497 53.6451 82.0475 53.7345C81.9454 53.8175 81.8528 53.9132 81.7698 54.0217C81.6869 54.1302 81.6166 54.2451 81.5592 54.3664C81.5017 54.4877 81.4571 54.6154 81.4252 54.7494C81.2337 55.0367 81.2336 55.4197 81.2336 55.8984C81.2336 56.8559 81.3294 57.5262 81.6166 57.9092C81.9039 58.3879 82.3826 58.5794 83.0529 58.5794C83.6274 58.5794 84.0104 58.2922 84.3934 57.9092C84.7764 57.4304 84.9679 56.7602 84.9679 55.9942C84.9679 55.0367 84.7764 54.4622 84.4891 54.0792C84.2019 53.6004 83.7231 53.4089 83.1486 53.4089ZM110.82 52.9302C110.437 52.9302 110.054 53.1217 109.671 53.5047C109.384 53.7919 109.288 54.1749 109.193 54.7494H112.257C112.257 54.1749 112.161 53.7919 111.874 53.4089C111.682 53.1217 111.299 52.9302 110.916 52.9302H110.82Z" fill="#FEFEFE"/>
</svg>
