<svg width="220" height="120" viewBox="0 0 220 120" fill="none" xmlns="http://www.w3.org/2000/svg">
<rect width="220" height="120" fill="#FEFEFE" fill-opacity="0.05"/>
<path fill-rule="evenodd" clip-rule="evenodd" d="M133.013 92.354C132.395 92.354 131.905 92.7997 131.905 93.375C131.905 93.9502 132.392 94.3809 132.998 94.3809C133.603 94.3809 134.106 93.9351 134.106 93.3599C134.106 92.7847 133.618 92.354 133.013 92.354ZM132.049 93.3328C132.049 92.872 132.495 92.4684 132.998 92.4684C133.531 92.4684 133.946 92.872 133.946 93.3599C133.962 93.8779 133.528 94.2664 132.998 94.2664C132.468 94.2664 132.049 93.8628 132.049 93.3298V93.3328ZM133.386 92.8871C133.257 92.8148 133.157 92.7726 133.013 92.7726C132.654 92.7726 132.395 93.0166 132.395 93.3479C132.395 93.6791 132.654 93.9532 133.028 93.9532C133.188 93.9532 133.344 93.911 133.531 93.7966L133.474 93.6972C133.329 93.7966 133.2 93.8418 133.055 93.8418C132.739 93.8418 132.522 93.64 132.522 93.3659C132.522 93.0768 132.724 92.9051 133.025 92.9051C133.269 92.9051 133.413 93.0045 133.428 93.1792L133.528 93.1641C133.501 93.0768 133.501 93.0497 133.501 92.9925C133.501 92.9654 133.501 92.9503 133.516 92.863C133.516 92.863 133.516 92.8479 133.531 92.8208H133.444C133.444 92.863 133.428 92.878 133.386 92.8931V92.8871Z" fill="#FEFEFE"/>
<path fill-rule="evenodd" clip-rule="evenodd" d="M150.763 59.5294C150.172 69.9588 145.571 79.5239 137.788 86.4869C130.006 93.4499 119.98 96.9585 109.566 96.3832C88.0443 95.1876 71.5011 76.705 72.6967 55.1836C73.2719 44.7542 77.8889 35.1891 85.6711 28.2261C93.4382 21.2662 103.464 17.7395 113.894 18.3298C128.136 19.1219 140.794 27.5786 146.965 40.4385H146.98L147.125 40.7547L147.814 40.7125C147.787 40.6131 147.597 40.2517 147.597 40.2517L147.582 40.2668C141.327 27.148 128.437 18.5015 113.936 17.6973C103.335 17.1071 93.1491 20.6759 85.2374 27.7533C77.3407 34.8307 72.6515 44.5554 72.0612 55.1565C70.8535 77.0212 87.6558 95.7929 109.521 97.0157C120.122 97.606 130.307 94.0371 138.219 86.9597C146.116 79.8823 150.793 70.1576 151.38 59.5565C151.624 55.1836 151.151 50.8528 149.986 46.6816C149.784 46.7389 149.597 46.8112 149.395 46.8834C150.531 50.9823 150.992 55.2258 150.763 59.5264V59.5294Z" fill="#FEFEFE"/>
<path fill-rule="evenodd" clip-rule="evenodd" d="M133.588 53.1C133.934 52.8983 134.293 52.6965 134.639 52.4947V52.5098C138.464 50.3956 143.716 47.92 148.116 46.2666L148.101 46.2515C148.433 46.1371 148.764 46.0076 149.095 45.8931C149.095 45.9082 149.11 45.9082 149.11 45.9082C149.312 45.8359 149.499 45.7636 149.701 45.7064V45.6913C154.363 44.0952 159.166 42.9447 164 42.3815C134.498 37.7194 115.768 54.7956 107.094 58.5361C101.498 57.8585 99.845 50.2359 98.6072 43.547C98.6072 43.3874 97.011 45.1282 97.011 44.9565C96.2038 53.1844 101.098 63.7734 102.908 66.7218L106.218 72.4621C106.763 72.1458 107.468 72.3055 107.799 72.8506C108.13 73.3836 107.971 74.0884 107.425 74.4317L107.699 74.8774L108.305 75.8412L108.534 76.2146L109.54 77.597C109.856 78.115 110.533 78.2746 111.051 77.9553L116.388 74.6606C116.906 74.3444 117.063 73.6697 116.747 73.1517L115.741 71.7694L115.512 71.3959L114.635 69.9714C114.635 69.9714 114.62 69.9985 114.605 69.9985C114.06 70.3298 113.352 70.1732 113.024 69.6251C112.693 69.092 112.852 68.3752 113.398 68.0439C113.44 68.0138 113.398 67.8723 113.428 67.8572C113.485 67.7127 113.428 67.8151 113.702 67.5681C119.267 62.5778 125.83 57.6266 133.007 53.4283V53.4434C133.193 53.3289 133.395 53.2145 133.597 53.097L133.588 53.1Z" fill="#FEFEFE"/>
<path fill-rule="evenodd" clip-rule="evenodd" d="M135.111 58.649C134.391 71.551 123.359 81.4202 110.469 80.7004C97.5671 79.9806 87.6977 68.9489 88.4175 56.059C89.1373 43.157 100.169 33.2877 113.059 34.0075C120.841 34.4382 127.515 38.6244 131.431 44.723C136.105 42.7805 141.098 41.5578 145.989 40.853C140.176 28.8154 128.163 20.2141 113.878 19.422C92.92 18.2565 74.9974 34.2966 73.8319 55.2398C72.6664 76.198 88.7067 94.1234 109.65 95.289C130.608 96.4545 148.534 80.4143 149.699 59.4712C149.928 55.2277 149.471 51.1289 148.389 47.2589C143.944 48.9273 138.622 51.4451 134.84 53.5593C135.114 55.2127 135.213 56.9113 135.114 58.652L135.111 58.649Z" fill="#FEFEFE"/>
<path fill-rule="evenodd" clip-rule="evenodd" d="M133.329 58.5508C132.666 70.4619 122.439 79.6234 110.527 78.9639C104.76 78.6326 99.4503 76.0877 95.6104 71.7871C91.7554 67.4713 89.7978 61.9329 90.1291 56.1505C90.4453 50.3831 92.9932 45.0886 97.3059 41.2337C101.607 37.3787 107.16 35.4362 112.928 35.7524C119.632 36.1259 125.658 39.508 129.486 45.0163L129.715 45.3747L130.332 45.1308C130.302 45.0736 130.088 44.7724 130.088 44.7724C126.146 39.0322 119.918 35.5085 112.958 35.1351C107.016 34.8038 101.305 36.8035 96.8753 40.7609C92.4451 44.7302 89.8279 50.1844 89.4966 56.1234C89.1653 62.0654 91.1651 67.7755 95.1345 72.2057C99.1039 76.6359 104.558 79.253 110.482 79.5843C122.752 80.274 133.269 70.8535 133.958 58.596C134.046 57.1142 133.973 55.6325 133.756 54.1809C133.555 54.2953 133.353 54.4248 133.166 54.5392C133.338 55.8614 133.395 57.2136 133.326 58.5538L133.329 58.5508Z" fill="#FEFEFE"/>
<path fill-rule="evenodd" clip-rule="evenodd" d="M86.1897 36.744L86.7649 36.0664C86.9938 35.7923 87.1956 35.6357 87.3703 35.6056C87.5419 35.5906 87.7166 35.6478 87.8732 35.7773C87.9877 35.8767 88.06 35.9941 88.0901 36.1236C88.1202 36.2531 88.1051 36.3826 88.0328 36.5121C87.9184 36.741 87.816 36.9006 87.7588 36.9729L87.2107 37.6054L86.1897 36.741V36.744ZM90.2163 40.1532L88.1744 38.4125L88.2888 38.283C88.4033 38.1384 88.5478 38.0541 88.7195 38.0089C88.849 37.9818 89.0508 37.9939 89.3369 38.0662L91.5806 38.554L93.0473 36.8284L90.9482 36.3254C90.8488 36.2953 90.6741 36.2832 90.4573 36.2832C90.2284 36.2682 90.0688 36.2682 89.9814 36.2983C89.8519 36.3284 89.6652 36.4127 89.4483 36.5423C89.5929 36.2682 89.6772 36.0242 89.7073 35.8375C89.7646 35.5213 89.7375 35.2201 89.62 34.931C89.5206 34.6419 89.3339 34.3859 89.0448 34.1389C88.7285 33.8649 88.3973 33.7083 88.0389 33.6782C87.6925 33.636 87.3643 33.7083 87.0751 33.895C86.774 34.0667 86.4276 34.3979 86.024 34.8738L83.8677 37.4217L88.9183 41.6952L90.2133 40.1563L90.2163 40.1532Z" fill="#34373C"/>
<path fill-rule="evenodd" clip-rule="evenodd" d="M89.5105 31.3052L93.8413 28.1279L94.6605 29.2784L91.956 31.248L92.5734 32.1124L95.0912 30.2722L95.8983 31.3504L93.3655 33.1905L94.1425 34.2416L96.9343 32.1997L97.8258 33.4074L93.4106 36.6449L89.5105 31.3052Z" fill="#34373C"/>
<path fill-rule="evenodd" clip-rule="evenodd" d="M95.6819 27.0498L97.4076 26.33L101.064 28.7454L99.6513 25.3783L101.395 24.6465L103.955 30.7451L102.214 31.48L98.5731 29.0616L99.9705 32.4136L98.2418 33.1484L95.6819 27.0498Z" fill="#34373C"/>
<path fill-rule="evenodd" clip-rule="evenodd" d="M105.393 25.6671C105.594 25.3358 105.88 25.134 106.284 25.0618C106.7 25.0045 107.061 25.0919 107.347 25.3358C107.636 25.5798 107.835 26.0104 107.937 26.6158C108.067 27.3506 108.025 27.8807 107.85 28.212C107.663 28.5282 107.347 28.73 106.928 28.8022C106.51 28.8595 106.167 28.7721 105.877 28.5282C105.588 28.2842 105.39 27.8235 105.272 27.1609C105.158 26.4983 105.2 25.9954 105.386 25.6641L105.393 25.6671ZM104.055 29.3203C104.444 29.781 104.89 30.0822 105.393 30.2418C105.911 30.3984 106.528 30.4135 107.248 30.299C107.952 30.1695 108.528 29.9407 108.958 29.5793C109.389 29.2329 109.693 28.7872 109.85 28.2571C110.021 27.7241 110.052 27.0766 109.922 26.3146C109.735 25.2635 109.317 24.5016 108.642 24.0137C107.965 23.5258 107.088 23.3662 106.025 23.5529C104.989 23.7246 104.242 24.1583 103.751 24.8479C103.275 25.5376 103.119 26.417 103.305 27.4952C103.42 28.2571 103.679 28.8625 104.052 29.3233L104.055 29.3203Z" fill="#34373C"/>
<path fill-rule="evenodd" clip-rule="evenodd" d="M110.872 23.0054L113.504 23.2222L114.197 27.309L115.504 23.3818L118.121 23.5806L117.606 30.1701L115.98 30.0557L116.384 25.0202L114.727 29.9533L113.245 29.8268L112.384 24.704L111.981 29.7395L110.354 29.61L110.872 23.0054Z" fill="#34373C"/>
<path fill-rule="evenodd" clip-rule="evenodd" d="M121.648 28.9304L123.145 26.9457L122.973 29.4213L121.651 28.9334L121.648 28.9304ZM122.783 32.0505L124.741 32.7853L124.798 25.738L122.726 24.9761L118.136 30.3128L120.049 31.0325L120.738 30.126L122.868 30.9181L122.78 32.0535L122.783 32.0505Z" fill="#34373C"/>
<path fill-rule="evenodd" clip-rule="evenodd" d="M130.005 30.0391L130.725 30.5421C131.026 30.7589 131.201 30.9456 131.228 31.1173C131.27 31.2739 131.228 31.4486 131.114 31.6202C131.026 31.7497 130.927 31.822 130.782 31.8642C130.653 31.9063 130.523 31.9063 130.409 31.8491C130.15 31.7497 129.99 31.6775 129.921 31.6202L129.231 31.1323L130.008 30.0391H130.005ZM126.955 34.3548L128.509 32.1533L128.653 32.2527C128.813 32.3671 128.912 32.4966 128.969 32.6713C129.012 32.8008 129.012 33.0026 128.969 33.2887L128.683 35.5625L130.523 36.8726L130.84 34.7433C130.855 34.6439 130.855 34.4693 130.855 34.2404C130.84 34.0235 130.812 33.8669 130.797 33.7796C130.74 33.6501 130.653 33.4784 130.511 33.2766C130.785 33.3911 131.029 33.4483 131.231 33.4634C131.547 33.4935 131.836 33.4333 132.123 33.3038C132.397 33.1743 132.641 32.9574 132.857 32.6562C133.101 32.3099 133.216 31.9666 133.231 31.6052C133.231 31.2588 133.132 30.9426 132.93 30.6565C132.728 30.3824 132.37 30.0662 131.864 29.7078L129.129 27.7954L125.316 33.1893L126.955 34.3548Z" fill="#34373C"/>
<path fill-rule="evenodd" clip-rule="evenodd" d="M135.889 32.96L137.169 34.4839L135.272 36.0951H138.536L140.25 38.122L136.841 37.9352L135.257 42.4678L133.675 40.5825L134.868 37.7937L133.344 37.7214L132.121 38.7574L130.826 37.2305L135.889 32.96Z" fill="#34373C"/>
<path fill-rule="evenodd" clip-rule="evenodd" d="M82.7645 60.2329L82.8368 60.8232C82.8669 61.1093 82.8067 61.3262 82.3338 61.3683C81.9182 61.4255 81.7285 61.2388 81.6713 60.9798L81.599 60.3624L82.7645 60.2329ZM80.9936 60.5793C81.0238 60.8082 81.0509 61.04 81.0238 61.2539C80.9816 61.543 80.6202 61.5701 80.3612 61.6153C80.0871 61.6424 79.5571 61.6876 79.2951 61.8171L79.3944 62.6814H79.4818C79.5812 62.4646 80.6172 62.3802 80.7919 62.3501C81.1954 62.308 81.4815 62.1333 81.4815 61.6605H81.4966C81.6412 62.1785 82.1291 62.2357 82.5898 62.1785C83.3669 62.0911 83.5385 61.546 83.4662 60.8684L83.2946 59.3716L79.0662 59.8595L79.1655 60.6515L80.9786 60.4347L80.9936 60.5793Z" fill="#34373C"/>
<path fill-rule="evenodd" clip-rule="evenodd" d="M79.615 63.7149L83.744 62.7632L84.247 64.9376L83.6416 65.0822L83.3133 63.6697L82.2773 63.9166L82.5785 65.2087L81.9581 65.3382L81.672 64.0582L80.392 64.3473L80.7233 65.7417L80.1029 65.8863L79.615 63.7149Z" fill="#34373C"/>
<path fill-rule="evenodd" clip-rule="evenodd" d="M85.0385 67.2966L85.2975 68.0435L81.2829 69.4529L81.0088 68.6759L82.2316 67.5977C82.6352 67.2243 83.0658 66.893 83.6411 66.5045V66.4895C83.3098 66.634 82.9213 66.8057 82.5177 66.9653C82.1292 67.1249 81.7256 67.2815 81.4094 67.396L80.6625 67.67L80.3884 66.9231L84.403 65.5137L84.6771 66.2907L83.4272 67.3839C83.0237 67.7423 82.608 68.0615 82.0178 68.4772C82.3761 68.3326 82.7526 68.1609 83.1381 68.0164C83.5116 67.8567 83.885 67.7001 84.2464 67.5857L85.0385 67.2966Z" fill="#34373C"/>
<path fill-rule="evenodd" clip-rule="evenodd" d="M84.4751 70.1296C84.7642 69.985 85.4087 69.6116 85.6828 70.1718C85.9418 70.6898 85.2672 71.006 84.963 71.1626L83.9842 71.6384C83.6107 71.8252 83.0927 72.0691 82.8337 71.5662C82.6048 71.0783 83.1078 70.8042 83.4089 70.6446L84.4751 70.1266V70.1296ZM83.4089 69.7411C82.388 70.244 81.6983 70.6777 82.2735 71.8553C82.8488 73.0208 83.6258 72.7317 84.6317 72.2287L85.1798 71.9547C86.1436 71.4517 86.8182 71.0211 86.258 69.8826C85.6978 68.7472 84.9359 69.0183 83.9571 69.464L83.4089 69.7381V69.7411Z" fill="#34373C"/>
<path fill-rule="evenodd" clip-rule="evenodd" d="M88.1159 73.2814L88.5767 74.0011L84.5049 75.525L83.9297 74.6336L86.9926 71.5557L87.4534 72.2604L85.4265 74.1608C85.2548 74.3174 85.0681 74.477 84.8784 74.6366C84.779 74.7089 84.6916 74.7812 84.5892 74.8534L84.6043 74.8685C84.7037 74.7962 84.8061 74.7541 84.9205 74.6968C85.1374 74.5975 85.3512 74.48 85.5831 74.3957L88.1159 73.2874V73.2814Z" fill="#34373C"/>
<path fill-rule="evenodd" clip-rule="evenodd" d="M88.3744 75.897C88.5461 75.8096 88.7208 75.6952 88.8774 75.5958C88.9647 75.5386 89.0491 75.4964 89.1213 75.4392V75.4542C89.0641 75.5115 88.9918 75.5837 88.9196 75.656C88.79 75.8006 88.6455 75.9301 88.516 76.0867L87.7119 77.0083L87.2812 76.4752L88.3744 75.9V75.897ZM85.7422 77.2643L86.721 76.7613L87.2962 77.4811L86.5915 78.3304L87.1246 78.993L89.8441 75.5837L89.1695 74.7495L85.2122 76.6047L85.7452 77.2673L85.7422 77.2643Z" fill="#34373C"/>
<path fill-rule="evenodd" clip-rule="evenodd" d="M90.3303 76.2021L92.1734 78.1146L91.7277 78.5452L91.0802 77.8827L88.475 80.4004L87.9299 79.8252L90.532 77.3104L89.8845 76.6328L90.3303 76.2021Z" fill="#34373C"/>
<path fill-rule="evenodd" clip-rule="evenodd" d="M92.0707 80.1576C92.2875 79.8986 92.7182 79.2933 93.1941 79.6968C93.6548 80.0703 93.1519 80.6335 92.935 80.9045L92.2454 81.7387C91.9864 82.055 91.5979 82.4856 91.1672 82.1272C90.7516 81.7809 91.0949 81.3201 91.3268 81.0491L92.0737 80.1576H92.0707ZM90.9503 80.2299C90.2155 81.1063 89.7547 81.799 90.7636 82.6182C91.7575 83.4524 92.3598 82.8772 93.0796 82.0008L93.4681 81.54C94.1307 80.6907 94.5764 80.0161 93.6127 79.2089C92.6339 78.3898 92.0586 78.9499 91.3388 79.7691L90.9503 80.2299Z" fill="#34373C"/>
<path fill-rule="evenodd" clip-rule="evenodd" d="M95.481 81.5232L95.9689 81.8394C96.2279 82.0111 96.3424 82.1858 96.0834 82.5863C95.8545 82.9327 95.5955 82.9748 95.3636 82.8453L94.8455 82.499L95.478 81.5202L95.481 81.5232ZM94.6167 83.1043C94.8034 83.2188 95.0052 83.3483 95.1497 83.523C95.3365 83.7398 95.1497 84.0259 95.0052 84.2578C94.8606 84.4897 94.5594 84.9204 94.4872 85.2065L95.222 85.6673L95.2642 85.6101C95.1768 85.3932 95.7521 84.5319 95.8545 84.3873C96.0713 84.041 96.1135 83.7097 95.7551 83.4085L95.7701 83.3935C96.258 83.6224 96.6194 83.279 96.8784 82.8905C97.2971 82.243 96.9929 81.7551 96.4176 81.3817L95.1527 80.5625L92.8518 84.1313L93.5144 84.562L94.5082 83.0381L94.6227 83.1104L94.6167 83.1043Z" fill="#34373C"/>
<path fill-rule="evenodd" clip-rule="evenodd" d="M98.9458 84.2701C99.1175 83.9238 99.247 83.5805 98.8584 83.3787C98.6145 83.2642 98.4127 83.2913 98.2983 83.5503C98.1537 83.8395 98.2712 84.0412 98.4278 84.2852C98.5874 84.5592 98.8735 85.0471 98.988 85.3513C99.1024 85.7097 99.0753 85.9687 98.9006 86.3C98.5543 87.0198 97.8796 87.1613 97.19 86.818C96.3407 86.3873 96.2684 85.7669 96.6147 85.0923L96.7442 84.8062L97.464 85.1646L97.3496 85.3814C97.1478 85.7398 97.1327 86.0711 97.4791 86.2458C97.7803 86.3903 97.9971 86.303 98.1417 86.0169C98.2561 85.8 98.229 85.5862 98.1146 85.3694C97.8857 84.9086 97.5243 84.4629 97.4249 83.9449C97.3948 83.716 97.4249 83.469 97.5243 83.2672C97.8556 82.6197 98.3886 82.4481 99.1355 82.8064C100.271 83.3666 99.8132 84.231 99.6234 84.6044L98.9458 84.2731V84.2701Z" fill="#34373C"/>
<path fill-rule="evenodd" clip-rule="evenodd" d="M101.826 88.5854L101.064 88.3686L102.214 84.2817L103.437 84.6281L103.307 86.6429C103.277 86.9742 103.235 87.3055 103.178 87.6217L103.193 87.6367C103.35 87.2332 103.452 86.9742 103.581 86.7152L104.53 84.9443L105.738 85.2906L104.572 89.3775L103.81 89.1606L104.184 87.8656C104.413 87.0615 104.66 86.2544 104.931 85.4503H104.916L103.045 88.9468L102.585 88.8023L102.844 84.86L102.814 84.8449C102.627 85.6792 102.41 86.4983 102.181 87.3055L101.823 88.5854H101.826Z" fill="#34373C"/>
<path fill-rule="evenodd" clip-rule="evenodd" d="M107.307 86.877C107.379 86.6903 107.421 86.5035 107.478 86.3018C107.493 86.2144 107.521 86.115 107.536 86.0277H107.551C107.551 86.1271 107.551 86.2144 107.536 86.3168C107.536 86.5186 107.521 86.7053 107.536 86.9071L107.578 88.1449L106.9 88.0455L107.304 86.88L107.307 86.877ZM106.328 89.6688L106.686 88.6328L107.608 88.7773L107.665 89.8706L108.499 89.985L108.153 85.6392L107.102 85.4946L105.476 89.5513L106.325 89.6658L106.328 89.6688Z" fill="#34373C"/>
<path fill-rule="evenodd" clip-rule="evenodd" d="M110.282 86.4566L110.872 86.4717C111.174 86.4867 111.36 86.571 111.348 87.0469C111.333 87.4775 111.131 87.6372 110.872 87.6522L110.24 87.6221L110.282 86.4566ZM110.369 88.2546C110.598 88.2546 110.83 88.2546 111.044 88.3268C111.303 88.4142 111.288 88.7726 111.288 89.0316C111.288 89.3207 111.246 89.8357 111.345 90.1097L112.21 90.1399V90.0676C112.023 89.923 112.08 88.887 112.08 88.7153C112.095 88.3118 111.966 87.9956 111.505 87.9233V87.9082C112.038 87.851 112.167 87.3752 112.179 86.9023C112.21 86.1253 111.692 85.8814 110.999 85.8512L109.502 85.8091L109.373 90.0525L110.165 90.0826L110.222 88.2546H110.366H110.369Z" fill="#34373C"/>
<path fill-rule="evenodd" clip-rule="evenodd" d="M113.303 90.097L112.945 85.8686L113.737 85.7963L113.896 87.6816H113.911C114.011 87.3353 114.185 86.9468 114.327 86.6185L114.715 85.7271L115.607 85.6548L114.715 87.5551L115.995 89.8862L115.104 89.9585L114.228 88.3472L113.999 88.8231L114.086 90.0307L113.309 90.103L113.303 90.097Z" fill="#34373C"/>
<path fill-rule="evenodd" clip-rule="evenodd" d="M118.655 86.6896C118.568 86.3734 118.339 85.6687 118.944 85.5091C119.52 85.3645 119.691 86.0993 119.779 86.4306L120.038 87.4817C120.137 87.8853 120.282 88.4454 119.736 88.59C119.203 88.7195 119.032 88.1744 118.944 87.828L118.655 86.6926V86.6896ZM118.065 87.6383C118.339 88.7466 118.625 89.5236 119.893 89.2074C121.143 88.8761 121.028 88.0569 120.757 86.9637L120.598 86.3734C120.297 85.3374 120.022 84.5754 118.785 84.8917C117.562 85.2079 117.676 86 117.908 87.0631L118.068 87.6383H118.065Z" fill="#34373C"/>
<path fill-rule="evenodd" clip-rule="evenodd" d="M122.34 88.3843L120.843 84.3999L122.957 83.6108L123.174 84.1981L121.807 84.7161L122.18 85.725L123.46 85.2341L123.677 85.8244L122.412 86.3003L123.086 88.0982L122.34 88.3843Z" fill="#34373C"/>
<path fill-rule="evenodd" clip-rule="evenodd" d="M126.842 86.456L124.755 82.7607L126.712 81.6675L127.013 82.2126L125.764 82.9173L126.282 83.854L127.432 83.2064L127.748 83.7365L126.583 84.387L127.23 85.5375L128.48 84.8327L128.784 85.3779L126.842 86.456Z" fill="#34373C"/>
<path fill-rule="evenodd" clip-rule="evenodd" d="M131.876 83.2483L131.141 83.7814L130.162 83.1911C130.003 83.0917 129.861 82.9743 129.717 82.8448V82.8598C129.846 83.1038 129.888 83.3778 129.946 83.6519L130.117 84.5012L129.397 85.0041L129.009 82.646L126.979 81.5106L127.714 80.9926L128.62 81.5377C128.777 81.6401 128.937 81.7244 129.051 81.884L129.066 81.869C128.922 81.625 128.879 81.351 128.837 81.092L128.666 80.315L129.4 79.812L129.774 82.0979L131.873 83.2483H131.876Z" fill="#34373C"/>
<path fill-rule="evenodd" clip-rule="evenodd" d="M133.443 79.897C133.485 79.9543 133.542 80.0265 133.588 80.0838C134.075 80.6891 134.277 81.3065 133.618 81.8968C132.639 82.7611 132.021 82.198 131.272 81.3517L130.868 80.8909C130.178 80.0567 129.717 79.4092 130.666 78.5599C131.199 78.0991 131.744 78.1141 132.262 78.6171C132.335 78.6894 132.419 78.7616 132.491 78.846L131.901 79.364C131.699 79.1773 131.383 78.7737 131.082 79.0327C130.621 79.4483 131.154 79.9663 131.371 80.2253L132.148 81.1017C132.377 81.3607 132.78 81.7793 133.184 81.4179C133.515 81.1288 133.012 80.6259 132.838 80.412L133.443 79.894V79.897Z" fill="#34373C"/>
<path fill-rule="evenodd" clip-rule="evenodd" d="M135.168 80.2856L132.048 77.4094L133.56 75.7681L134.018 76.2017L133.039 77.2498L133.831 77.9847L134.723 77.0059L135.184 77.4245L134.292 78.4003L135.256 79.2797L136.22 78.2286L136.68 78.6472L135.168 80.2856Z" fill="#34373C"/>
<path fill-rule="evenodd" clip-rule="evenodd" d="M137.342 77.8414L133.945 75.2965L134.421 74.6641L137.312 76.8355L138.203 75.67L138.706 76.0434L137.342 77.8414Z" fill="#34373C"/>
<path fill-rule="evenodd" clip-rule="evenodd" d="M139.24 75.2223L135.617 73.0208L136.018 72.3462L139.126 74.2164L139.888 72.9636L140.421 73.2798L139.24 75.2223Z" fill="#34373C"/>
<path fill-rule="evenodd" clip-rule="evenodd" d="M140.866 72.4458L137.038 70.6056L138.002 68.5908L138.565 68.8649L137.945 70.1599L138.909 70.6177L139.472 69.4251L140.047 69.6991L139.472 70.8917L140.649 71.4549L141.27 70.1599L141.83 70.431L140.866 72.4458Z" fill="#34373C"/>
<path fill-rule="evenodd" clip-rule="evenodd" d="M138.867 66.2459L139.126 65.499L143.14 66.9085L142.866 67.6855L141.225 67.7728C140.68 67.803 140.147 67.7879 139.457 67.7427L139.442 67.7578C139.788 67.8451 140.204 67.9596 140.622 68.074C141.026 68.2035 141.427 68.3179 141.758 68.4354L142.505 68.6944L142.246 69.4413L138.231 68.0469L138.505 67.2699L140.174 67.1976C140.707 67.1675 141.24 67.1675 141.942 67.2277L141.957 67.2127C141.583 67.1133 141.18 66.9958 140.791 66.8814C140.388 66.7669 139.999 66.6525 139.641 66.523L138.864 66.2489L138.867 66.2459Z" fill="#34373C"/>
<path fill-rule="evenodd" clip-rule="evenodd" d="M142.535 62.9388C142.622 62.9689 142.694 62.981 142.779 63.0111C143.526 63.2129 144.044 63.6014 143.842 64.4657C143.568 65.7306 142.734 65.6463 141.625 65.3873L141.035 65.2578C139.984 64.9837 139.222 64.7247 139.511 63.4899C139.671 62.8003 140.116 62.4961 140.833 62.5985C140.933 62.6135 141.05 62.6286 141.149 62.6557L140.978 63.4177C140.704 63.3906 140.216 63.258 140.128 63.6345C139.984 64.2398 140.734 64.3543 141.05 64.4266L142.2 64.6856C142.547 64.7579 143.107 64.8572 143.221 64.3272C143.321 63.9116 142.616 63.7941 142.357 63.7218L142.529 62.9448L142.535 62.9388Z" fill="#34373C"/>
<path fill-rule="evenodd" clip-rule="evenodd" d="M144.174 62.2453L139.961 61.7424L140.22 59.5288L140.837 59.6011L140.665 61.0377L141.729 61.1551L141.888 59.845L142.506 59.9173L142.349 61.2244L143.644 61.384L143.816 59.9595L144.433 60.0318L144.174 62.2453Z" fill="#34373C"/>
<path fill-rule="evenodd" clip-rule="evenodd" d="M111.723 57.3579L111.75 57.37L111.765 57.3579H111.723Z" fill="#FEFEFE"/>
<path fill-rule="evenodd" clip-rule="evenodd" d="M98.7021 98.4986C98.3287 98.5408 97.9552 98.4835 97.5938 98.354C96.8319 98.095 96.4433 97.4325 96.6873 96.7006C96.9463 95.9808 97.6661 95.7068 98.4281 95.9658C98.8166 96.1104 99.1328 96.2971 99.3045 96.5982L98.7864 96.8572C98.6871 96.6555 98.5425 96.526 98.2684 96.4266C97.8076 96.267 97.392 96.4687 97.2475 96.9024C97.1029 97.321 97.3047 97.7367 97.7655 97.8963C97.9944 97.9836 98.1841 97.9836 98.3106 97.9685L98.4401 97.5951L97.9944 97.4355L98.151 96.9747L99.1147 97.306L98.6991 98.4986H98.7021Z" fill="#FEFEFE"/>
<path fill-rule="evenodd" clip-rule="evenodd" d="M100.157 97.0717L99.4375 96.8699L99.567 96.4121L101.537 96.9873L101.407 97.4331L100.702 97.2313L100.169 99.0865L99.6242 98.9269L100.157 97.0717Z" fill="#FEFEFE"/>
<path fill-rule="evenodd" clip-rule="evenodd" d="M101.696 97.0171L102.256 97.1466L102.055 98.023L103.133 98.2699L103.335 97.3905L103.898 97.52L103.365 99.8661L102.804 99.7366L103.033 98.7277L101.955 98.4838L101.723 99.4927L101.163 99.3782L101.696 97.0171Z" fill="#FEFEFE"/>
<path fill-rule="evenodd" clip-rule="evenodd" d="M104.774 98.1098L105.162 98.1821C105.334 98.2122 105.521 98.2845 105.494 98.4833C105.464 98.685 105.277 98.7152 105.105 98.685L104.687 98.6278L104.774 98.1098ZM103.897 99.9499L104.949 100.122C105.409 100.194 105.942 100.122 106.015 99.6187C106.072 99.3175 105.885 99.0434 105.554 98.941C105.828 98.9139 106.042 98.7543 106.087 98.4953C106.159 97.9773 105.683 97.8056 105.238 97.7333L104.289 97.5737L103.9 99.9469L103.897 99.9499ZM104.617 99.0585L105.048 99.1308C105.235 99.1609 105.494 99.2452 105.467 99.4621C105.424 99.6789 105.223 99.7211 105.036 99.6909L104.533 99.6036L104.62 99.0585H104.617Z" fill="#FEFEFE"/>
<path fill-rule="evenodd" clip-rule="evenodd" d="M107.738 99.5182L107.106 99.4459L107.494 98.7412L107.738 99.5182ZM105.983 100.295L106.615 100.367L106.874 99.8796L107.88 99.979L108.052 100.512L108.699 100.569L107.808 98.0666L107.347 98.0244L105.979 100.298L105.983 100.295Z" fill="#FEFEFE"/>
<path fill-rule="evenodd" clip-rule="evenodd" d="M109.707 99.9632L108.801 99.9211L108.831 99.5024L109.722 99.5627L109.707 99.9632Z" fill="#FEFEFE"/>
<path fill-rule="evenodd" clip-rule="evenodd" d="M110.069 98.2236L111.822 98.2688V98.7567L110.629 98.7266L110.614 99.1753L111.738 99.2024V99.6933L110.599 99.6632V100.151L111.852 100.181V100.669L110.009 100.627L110.069 98.2236Z" fill="#FEFEFE"/>
<path fill-rule="evenodd" clip-rule="evenodd" d="M113.519 98.798C113.432 98.6986 113.245 98.6534 113.101 98.6534C112.944 98.6685 112.727 98.7408 112.727 98.9124C112.742 99.3582 113.92 99.0419 113.95 99.8762C113.965 100.409 113.504 100.68 112.971 100.695C112.64 100.71 112.339 100.623 112.095 100.421L112.483 99.9906C112.613 100.135 112.8 100.219 112.986 100.207C113.173 100.207 113.39 100.12 113.375 99.9484C113.375 99.5027 112.152 99.7768 112.137 98.9847C112.122 98.4667 112.583 98.1776 113.101 98.1655C113.387 98.1655 113.676 98.2228 113.908 98.3944L113.519 98.798Z" fill="#FEFEFE"/>
<path fill-rule="evenodd" clip-rule="evenodd" d="M114.743 98.6119L113.996 98.6692L113.966 98.2114L116.008 98.0518L116.053 98.5125L115.303 98.5698L115.463 100.497L114.887 100.539L114.743 98.6119Z" fill="#FEFEFE"/>
<path fill-rule="evenodd" clip-rule="evenodd" d="M116.8 98.4412L117.131 98.3991C117.619 98.3268 118.049 98.5015 118.11 98.9592C118.182 99.5044 117.808 99.7513 117.29 99.8206L116.989 99.8507L116.803 98.4412H116.8ZM116.483 100.411L117.417 100.296C118.179 100.182 118.799 99.679 118.697 98.9141C118.582 98.0377 117.848 97.8058 117.013 97.9202L116.164 98.0347L116.48 100.408L116.483 100.411Z" fill="#FEFEFE"/>
<path fill-rule="evenodd" clip-rule="evenodd" d="M120.64 97.8652L120.224 98.3983L119.851 98.1393L120.54 97.305L121.043 97.2026L121.546 99.5487L121.043 99.6632L120.64 97.8652Z" fill="#FEFEFE"/>
<path fill-rule="evenodd" clip-rule="evenodd" d="M122.353 97.7048C122.296 97.4879 122.41 97.2862 122.654 97.2289C122.883 97.1567 123.1 97.2711 123.157 97.4729C123.215 97.6897 123.085 97.8885 122.856 97.9487C122.612 98.021 122.41 97.9066 122.353 97.7048ZM122.612 99.2859L123.26 99.1142L123.591 98.1656C123.69 97.8915 123.778 97.6476 123.678 97.3163C123.549 96.8404 123.061 96.6266 122.528 96.7682C122.01 96.9127 121.679 97.3434 121.808 97.8192C121.923 98.2499 122.341 98.4968 122.802 98.3643C122.874 98.3493 122.916 98.3222 122.974 98.2921L122.615 99.2859H122.612Z" fill="#FEFEFE"/>
<path fill-rule="evenodd" clip-rule="evenodd" d="M124.209 98.284L124.898 97.1757C124.971 97.0613 125.07 96.9167 125.013 96.7872C124.971 96.6276 124.796 96.5854 124.639 96.6276C124.438 96.6999 124.365 96.8565 124.41 97.0312L123.877 97.1607C123.748 96.6848 124.037 96.3415 124.525 96.1819C124.971 96.0253 125.389 96.1397 125.546 96.6005C125.633 96.9017 125.561 97.1185 125.416 97.3203L124.868 98.1696L125.961 97.8112L126.091 98.2419L124.38 98.802L124.209 98.284Z" fill="#FEFEFE"/>
<path fill-rule="evenodd" clip-rule="evenodd" d="M126.598 96.0941L126.251 96.6694L125.848 96.4706L126.396 95.549L126.884 95.3623L127.748 97.606L127.245 97.8078L126.598 96.0941Z" fill="#FEFEFE"/>
<path d="M132.407 97.1196L130.049 92.4575M91.3242 97.3635L93.6974 92.7015M132.783 97.2461C126.453 100.583 119.303 102.366 112.054 102.366C104.805 102.366 97.4951 100.538 91.1104 97.1015" stroke="#FEFEFE" stroke-width="1.99" stroke-miterlimit="2.61"/>
</svg>
