<svg width="220" height="120" viewBox="0 0 220 120" fill="none" xmlns="http://www.w3.org/2000/svg">
<rect width="220" height="120" fill="#FEFEFE" fill-opacity="0.05"/>
<path fill-rule="evenodd" clip-rule="evenodd" d="M74.0002 24H146V96H74.0002V24Z" fill="#FEFEFE"/>
<path fill-rule="evenodd" clip-rule="evenodd" d="M89.9726 80.9952L88.1041 82.8629L86.8751 81.631L88.7399 79.7637L83.9123 74.9381C83.1286 74.1531 83.0217 74.0048 82.0442 74.512C81.6857 74.7037 81.2998 74.7013 81.0052 74.4034C80.3887 73.7877 81.047 73.0491 81.1326 72.9614L87.1348 66.9596C87.2196 66.8748 87.9599 66.2185 88.5765 66.831C88.8747 67.1304 88.8772 67.5123 88.6854 67.872C88.1754 68.849 88.3249 68.9547 89.1107 69.7397L100.249 80.88C101.034 81.6679 101.141 81.8178 102.118 81.3049C102.48 81.116 102.86 81.1177 103.158 81.4143C103.773 82.0312 103.118 82.7736 103.034 82.8592L97.0305 88.8597C96.9445 88.9441 96.2018 89.6008 95.586 88.9876C95.2902 88.6881 95.2894 88.3067 95.4779 87.9453C95.9895 86.9699 95.8396 86.863 95.0534 86.0768L89.9726 80.9952ZM89.8911 96H87.4425L87.4613 95.9619C87.9685 94.9893 87.821 94.8808 87.0357 94.0946L75.8961 82.9567C75.1075 82.1681 75.0031 82.0194 74.0272 82.5278C74.0182 82.5331 74.0092 82.5372 73.9998 82.5421V80.0922L79.117 74.9758C79.2018 74.8934 79.9433 74.2334 80.5579 74.8475C80.8553 75.147 80.8586 75.528 80.6672 75.8885C80.1564 76.8681 80.3055 76.9721 81.0941 77.7603L92.2324 88.8966C93.019 89.6856 93.1239 89.8344 94.1014 89.3247C94.4619 89.1334 94.8441 89.1334 95.1415 89.4321C95.7564 90.049 95.0993 90.7901 95.0153 90.8745L89.8911 96ZM120.473 33.6205L126.07 28.0218L141.972 43.9169L136.373 49.5188C136.287 49.6036 135.543 50.2607 134.928 49.6458C134.631 49.3476 134.631 48.9637 134.822 48.6048C135.33 47.6286 135.183 47.5216 134.395 46.7338L123.254 35.5955C122.468 34.8114 122.363 34.661 121.385 35.1707C121.024 35.3612 120.641 35.3612 120.346 35.0633C119.729 34.4496 120.389 33.7036 120.473 33.6205ZM130.092 24H133.422L136.071 26.6498C136.178 26.7555 136.562 27.1836 135.925 27.8166C135.563 28.1787 135.244 28.0726 134.82 27.8616C132.548 26.6867 130.424 26.7309 128.259 28.2987L127.025 27.0677L130.092 24ZM146 36.2825V39.8914L142.926 42.9636L141.695 41.7325C143.202 39.8004 143.345 37.317 142.217 35.0453C142.047 34.5771 141.833 34.1084 142.216 33.729C142.895 33.0494 143.468 33.7516 143.552 33.838L146 36.2825ZM134.127 34.1649C134.785 33.0408 134.357 31.8093 133.739 30.8088C133.489 30.3447 133.274 29.874 133.718 29.429C134.375 28.7748 135.038 29.6437 135.208 29.8137L139.797 34.4038C139.967 34.5734 140.838 35.2346 140.182 35.8909C139.735 36.3383 139.269 36.1211 138.799 35.8675C137.8 35.2522 136.569 34.8282 135.445 35.4816L134.127 34.1649ZM114.395 93.3748L111.769 96H110.372C110.409 95.9168 110.454 95.8312 110.497 95.7403C110.654 95.4437 110.308 95.1421 110.129 94.9635L103.866 88.7004C103.686 88.5218 103.389 88.1756 103.09 88.3313C102.767 88.4865 102.505 88.6778 102.205 88.3804C101.895 88.0695 102.158 87.7331 102.397 87.4963L105.456 84.4369L114.395 93.3748ZM134.422 55.469L137.351 52.541L144.951 60.1413C145.392 60.5838 145.454 60.6674 146 60.3822V61.7702L143.135 64.6343C143.087 64.6822 142.669 65.0538 142.322 64.7056C142.156 64.5392 142.155 64.325 142.262 64.1218C142.55 63.572 142.465 63.5126 142.025 63.0705L134.422 55.469ZM142.394 53.0658C142.442 53.1146 142.705 53.4484 142.346 53.8065C142.011 54.1404 141.641 53.8913 141.343 53.6619C140.601 53.1383 139.645 52.5172 138.583 52.6975L137.888 52.0043L139.609 50.2816L142.394 53.0658ZM132.165 57.7275L133.885 56.0073L134.579 56.6996C134.398 57.764 135.021 58.7189 135.546 59.46C135.774 59.7587 136.022 60.1299 135.689 60.4634C135.331 60.8218 134.997 60.5604 134.948 60.5109L132.165 57.7275ZM140.29 92.4796C140.29 91.3178 141.232 90.4616 142.346 90.4616C143.448 90.4616 144.391 91.3178 144.391 92.4796C144.391 93.6526 143.448 94.5088 142.346 94.5088C141.233 94.5088 140.29 93.6526 140.29 92.4796ZM142.346 94.172C143.262 94.172 143.984 93.4543 143.984 92.4796C143.984 91.521 143.262 90.7992 142.346 90.7992C141.419 90.7992 140.697 91.521 140.698 92.4796C140.698 93.4543 141.419 94.172 142.346 94.172ZM141.918 93.6526H141.565V91.3178H142.453C143.005 91.3178 143.277 91.521 143.277 91.9819C143.277 92.3989 143.015 92.5821 142.673 92.6239L143.337 93.6526H142.94L142.324 92.6407H141.918V93.6526ZM142.341 92.3408C142.64 92.3408 142.908 92.3191 142.908 91.9602C142.908 91.6718 142.646 91.6177 142.399 91.6177H141.918V92.3408H142.341ZM95.6839 60.2372C95.0473 61.5941 95.6012 62.3163 96.1333 62.8477L107.143 73.8578C107.675 74.3899 108.399 74.9422 109.755 74.3068L110.988 75.5407C106.087 79.6326 100.354 78.0987 96.1231 73.8692C91.8944 69.6385 90.359 63.9038 94.4516 59.0041L95.6839 60.2372ZM110.711 73.3543C111.346 71.9974 110.793 71.2719 110.259 70.7413L99.2514 59.7292C98.7192 59.1995 97.9953 58.6468 96.6401 59.2835L95.4066 58.0516C100.305 53.9581 106.041 55.4915 110.271 59.721C114.5 63.9518 116.035 69.6848 111.942 74.5862L110.711 73.3543ZM134.148 50.4263C133.849 50.1313 133.469 50.1276 133.106 50.3201C132.129 50.8286 132.025 50.6803 131.238 49.8933L120.098 38.7558C119.31 37.9696 119.16 37.8639 119.673 36.8852C119.861 36.5259 119.861 36.142 119.564 35.8446C118.948 35.2289 118.207 35.8868 118.123 35.9708L112.521 41.5698L117.095 50.0469L117.051 50.0874L108.26 45.8342L102.875 51.219C102.621 51.4722 101.982 52.1088 102.64 52.7684C103.149 53.2801 103.766 52.7495 104.041 52.5144C104.424 52.1764 104.766 52.346 105.273 52.475C105.719 52.5812 106.144 52.7946 106.57 53.0093L124.156 61.7309L124.771 61.1172L116.168 45.2172L126.04 55.0888C126.826 55.8758 126.975 55.9835 126.465 56.9577C126.272 57.3207 126.276 57.7013 126.576 57.9987C127.19 58.6137 127.932 57.9586 128.018 57.8725L134.023 51.8695C134.109 51.7843 134.763 51.0412 134.148 50.4263ZM117.533 61.6387L113.878 57.9836L109.184 55.6636L109.141 55.707L116.303 62.8702C118.62 65.8662 116.435 66.3955 117.351 67.3103C118.009 67.967 118.835 67.0551 119.067 66.8199L121.486 64.4049C121.718 64.1713 122.628 63.3471 121.969 62.6879C121.056 61.7731 120.53 63.9575 117.533 61.6387ZM105.993 83.8977C108 81.8416 111.106 81.5552 114.334 84.4975C117.274 87.1723 116.916 90.8528 114.933 92.8369L114.24 92.1437C114.874 91.3178 114.227 90.6005 113.772 90.1482L108.682 85.0559C108.227 84.6032 107.511 83.9579 106.687 84.5909L105.993 83.8977ZM110.449 79.4417L113.603 76.2876L122.543 85.2267L119.388 88.3808C119.341 88.4275 118.921 88.7987 118.575 88.4529C118.409 88.2854 118.407 88.0699 118.515 87.8671C118.803 87.3185 118.719 87.2583 118.278 86.815L112.016 80.5535C111.573 80.1123 111.512 80.0279 110.964 80.313C110.76 80.4232 110.545 80.4228 110.377 80.2553C110.03 79.9095 110.402 79.4892 110.449 79.4417ZM114.141 75.7492L116.806 73.0851L119.233 75.5096C119.291 75.5698 119.509 75.8082 119.149 76.1683C118.945 76.3711 118.768 76.3117 118.527 76.1917C117.248 75.5346 116.054 75.5587 114.834 76.4412L114.141 75.7492ZM122.387 83.9956C123.235 82.9088 123.319 81.5097 122.686 80.2291C122.592 79.9669 122.469 79.7047 122.684 79.4896C123.069 79.107 123.391 79.5011 123.439 79.5494L125.83 81.9403L123.081 84.6888L122.387 83.9956ZM118.132 79.7399C118.503 79.1078 118.264 78.4158 117.917 77.8537C117.772 77.5903 117.653 77.3261 117.906 77.0745C118.277 76.7058 118.648 77.1954 118.743 77.2917L121.326 79.8739C121.42 79.9677 121.91 80.3389 121.538 80.7096C121.289 80.9612 121.025 80.8411 120.761 80.6965C120.201 80.352 119.509 80.1119 118.875 80.4831L118.132 79.7399ZM121.418 68.473C122.554 67.3369 123.342 66.7855 124.228 66.5491C125.639 66.1894 126.774 66.6319 127.779 67.6339C128.781 68.6368 129.224 69.7741 128.865 71.1846C128.625 72.0699 128.076 72.8594 126.94 73.9938L126.247 73.3022C126.82 72.4632 126.367 71.9376 125.782 71.3505L123.978 69.5463C123.44 69.01 122.841 68.627 122.111 69.1653L121.418 68.473ZM119.29 73.2789C118.849 72.8364 118.788 72.7537 118.238 73.0384C118.035 73.1478 117.82 73.1453 117.653 72.9774C117.307 72.632 117.678 72.2129 117.725 72.1654L120.88 69.0121L128.482 76.6141C128.923 77.0537 128.983 77.1397 129.532 76.8513C129.736 76.7443 129.951 76.7435 130.119 76.9103C130.467 77.2569 130.096 77.6755 130.048 77.7227L126.665 81.1049C126.618 81.1549 126.293 81.4302 125.947 81.0853C125.779 80.9165 125.75 80.7293 125.858 80.5261C126.144 79.9771 125.994 79.9824 125.553 79.5396L119.29 73.2789Z" fill="#34373C"/>
<path fill-rule="evenodd" clip-rule="evenodd" d="M128.994 61.927C128.635 62.6915 128.944 63.0966 129.243 63.3949L135.435 69.5851C135.734 69.8842 136.14 70.1951 136.905 69.8358L137.597 70.529C134.838 72.8367 131.61 71.9772 129.234 69.5978C126.854 67.2196 125.994 63.993 128.299 61.2318L128.994 61.927ZM137.442 69.2987C137.8 68.5347 137.49 68.1295 137.191 67.8292L131.001 61.6394C130.702 61.3391 130.296 61.0294 129.531 61.387L128.839 60.6951C131.6 58.3874 134.826 59.2493 137.203 61.6275C139.581 64.0061 140.444 67.2303 138.137 69.9927L137.442 69.2987ZM82.6283 51.2623L85.3801 48.5109L92.524 55.6544C92.9399 56.0707 92.996 56.1489 93.5126 55.8793C93.7035 55.7777 93.9055 55.7777 94.0632 55.9355C94.3889 56.2603 94.0403 56.654 93.996 56.6991L90.8169 59.8782C90.7719 59.9224 90.379 60.2711 90.0533 59.9446C89.8956 59.7885 89.8956 59.5857 89.9968 59.3948C90.2659 58.8782 90.1877 58.822 89.7723 58.4066L82.6283 51.2623ZM90.1209 49.0045C90.166 49.0492 90.4122 49.3634 90.0758 49.701C89.7608 50.0156 89.413 49.7796 89.1323 49.5662C88.4355 49.0717 87.5371 48.4875 86.5374 48.6559L85.8861 48.0045L87.5039 46.3879L90.1209 49.0045ZM80.5054 53.3852L82.1232 51.7678L82.7746 52.4192C82.6062 53.4188 83.1904 54.3176 83.6845 55.0141C83.8979 55.2947 84.1339 55.643 83.8197 55.9572C83.4825 56.2948 83.1679 56.0473 83.1228 56.0014L80.5054 53.3852ZM98.3652 49.8137C98.7806 50.2291 98.8368 50.3077 99.3534 50.0382C99.5443 49.9374 99.7466 49.9374 99.904 50.0939C100.229 50.4196 99.881 50.8133 99.8364 50.8579L96.6577 54.0366C96.6126 54.0817 96.2193 54.4299 95.8936 54.1046C95.7371 53.9469 95.7363 53.7449 95.8379 53.5536C96.1075 53.0378 96.0288 52.9813 95.613 52.5655L89.7276 46.6796C89.3122 46.2638 89.2556 46.1851 88.7386 46.4547C88.5473 46.5563 88.3458 46.5563 88.1884 46.3986C87.8628 46.0733 88.211 45.6796 88.2556 45.6349L91.4347 42.4558C91.4798 42.4116 91.8727 42.0626 92.1984 42.3887C92.3561 42.546 92.3561 42.7479 92.2541 42.9393C91.9853 43.4555 92.0636 43.512 92.4794 43.9274L98.3652 49.8137ZM97.1747 45.6345L96.1861 46.6231L95.5348 45.9713L96.5233 44.9827L93.9735 42.4333C93.5577 42.0179 93.5015 41.9388 92.9849 42.2084C92.794 42.3096 92.5921 42.3096 92.4343 42.1523C92.1086 41.8266 92.4573 41.4337 92.5019 41.3882L95.6806 38.2099C95.7257 38.1649 96.119 37.8167 96.4447 38.1423C96.6016 38.2997 96.6016 38.5016 96.5012 38.693C96.2316 39.2091 96.3103 39.2657 96.7257 39.6815L102.611 45.5673C103.027 45.9832 103.083 46.0614 103.6 45.7918C103.791 45.6907 103.993 45.6907 104.15 45.848C104.476 46.1737 104.127 46.5665 104.083 46.6116L100.904 49.7903C100.859 49.8354 100.466 50.1832 100.14 49.8575C99.983 49.7006 99.983 49.4982 100.084 49.3073C100.353 48.7907 100.275 48.7346 99.8593 48.3191L97.1747 45.6345ZM96.7392 37.1513L99.7049 34.1861L108.107 42.5878L105.142 45.5534C105.097 45.5985 104.704 45.9463 104.378 45.621C104.22 45.4637 104.22 45.2617 104.321 45.0708C104.591 44.5538 104.512 44.4981 104.097 44.0823L98.2108 38.1956C97.7954 37.7802 97.7388 37.7011 97.2222 37.9711C97.0313 38.0727 96.8293 38.0727 96.672 37.9158C96.3463 37.5893 96.6941 37.1964 96.7392 37.1513ZM100.21 33.6805L102.715 31.1758L104.995 33.4556C105.051 33.5118 105.253 33.7363 104.916 34.073C104.725 34.2639 104.557 34.2078 104.333 34.0956C103.13 33.4782 102.007 33.4999 100.862 34.3311L100.21 33.6805ZM107.961 41.4312C108.758 40.4091 108.837 39.0948 108.242 37.8929C108.152 37.6454 108.039 37.3984 108.242 37.1964C108.601 36.8371 108.905 37.2075 108.949 37.2525L111.195 39.4992L108.612 42.0826L107.961 41.4312ZM103.962 37.4316C104.31 36.8367 104.086 36.1853 103.76 35.6572C103.625 35.4098 103.513 35.1632 103.748 34.9272C104.097 34.5786 104.445 35.039 104.535 35.1296L106.961 37.5557C107.051 37.6454 107.511 37.994 107.164 38.3419C106.927 38.5774 106.68 38.4652 106.433 38.3304C105.905 38.0051 105.254 37.7802 104.658 38.1284L103.962 37.4316Z" fill="#34373C"/>
</svg>
