<svg width="220" height="120" viewBox="0 0 220 120" fill="none" xmlns="http://www.w3.org/2000/svg">
<rect width="220" height="120" fill="#FEFEFE" fill-opacity="0.05"/>
<g clip-path="url(#clip0_271_1937)">
<path fill-rule="evenodd" clip-rule="evenodd" d="M134.158 52.3453C134.1 52.0019 133.871 51.401 133.728 51.0576C132.753 48.3104 131.176 45.649 129.369 43.4742C128.882 42.9019 127.849 41.7858 127.305 41.2421C127.161 41.099 126.989 40.9846 126.846 40.8415C125.928 39.9257 123.118 37.9226 121.885 37.3503C120.767 36.7207 119.333 36.1198 118.043 35.6905C113.484 34.1166 108.409 33.9735 103.763 35.1182C98.3154 36.4632 93.785 39.4965 90.3728 43.5887C84.8674 50.1418 82.8603 60.1576 86.3871 68.8856C87.7348 72.2338 89.3692 74.6375 91.7491 77.1844C92.6094 78.1001 93.6703 78.9873 94.6452 79.7599C99.9499 83.8234 106.975 85.6263 113.799 84.5675C116.953 84.081 119.505 83.108 121.971 81.8203C124.065 80.7329 126.588 78.8156 128.194 77.0986L128.853 76.3831C129.082 76.1542 129.283 75.8967 129.484 75.6391C132.653 71.8035 134.6 67.1096 135.075 62.1608C135.391 59.2133 135.133 55.0639 134.158 52.3453Z" fill="#FEFEFE"/>
<path fill-rule="evenodd" clip-rule="evenodd" d="M98.5448 40.269H103.534V61.7028H98.5161L98.5448 40.269ZM116.351 40.269H121.34V61.7028H116.323L116.351 40.269ZM107.29 61.7028C107.29 61.6742 107.176 40.7269 107.29 40.269H112.28L112.251 61.7028H107.29Z" fill="#FEFEFE"/>
<path fill-rule="evenodd" clip-rule="evenodd" d="M113.828 64.7075C113.054 64.7075 112.996 65.194 112.996 66.1097C112.996 67.1113 112.968 69.6868 113.025 70.5453C113.082 71.3751 113.254 71.6899 114.057 71.8044C114.057 71.9189 113.971 72.2336 113.914 72.3195H110.903L111.047 71.8044C111.849 71.8044 111.849 71.3465 111.878 70.4022C111.907 69.6009 111.907 66.5676 111.849 65.9094C111.763 64.9078 111.505 64.822 110.788 64.7075L110.932 64.221H113.943L113.828 64.7075ZM123.176 64.1924H124.896C125.039 64.3355 125.326 64.7647 125.469 64.965C126.301 66.1669 127.419 67.655 128.308 68.8283C128.423 68.9714 129.312 70.2305 129.484 70.3163C129.512 69.0858 129.455 67.8553 129.455 66.6248C129.455 64.9078 129.398 64.7933 127.763 64.6789L127.935 64.1638H131.233L131.09 64.6503C130.688 64.7361 130.516 64.6789 130.373 65.0223C130.258 65.2798 130.229 65.6518 130.229 65.938C130.143 67.8839 130.287 70.2591 130.229 72.2623L129.57 72.4626C129.312 71.9761 126.502 68.1701 126.1 67.6264C125.699 67.0827 125.326 66.5962 124.896 66.1097C124.81 67.2257 124.896 68.628 124.896 69.8012C124.896 71.4038 124.896 71.8044 126.588 71.8044L126.416 72.3195H123.147L123.29 71.833C124.007 71.7185 124.122 71.6327 124.15 70.4022C124.179 69.6295 124.179 66.5103 124.122 65.8522C124.036 65.0223 123.892 64.7075 123.032 64.6789L123.176 64.1924ZM106.688 64.1352C107.434 64.1638 108.093 64.3355 108.523 64.7361C109.183 65.3657 109.326 66.9396 108.237 67.7122C107.749 68.0556 107.462 68.027 107.262 68.1415C107.434 68.2846 107.434 68.1701 107.749 68.4849C108.179 68.9141 108.38 69.4578 108.695 70.0302C108.953 70.5166 109.269 71.2607 109.642 71.5755C109.9 71.8044 109.928 71.7185 110.244 71.833L110.129 72.3195H108.581C108.093 71.4896 107.462 69.8012 106.803 68.8283C106.774 68.7997 106.774 68.771 106.745 68.7424V67.5405C107.09 67.4547 107.434 67.3116 107.634 67.054C108.093 66.5103 108.093 65.0223 106.745 64.822V64.1352H106.688ZM106.688 71.7758V72.3195H106.889L107.032 71.8044C106.889 71.8044 106.774 71.7758 106.688 71.7758ZM103.534 64.1924C104.452 64.1638 105.398 64.1638 106.315 64.1352H106.659V64.822C106.631 64.822 106.573 64.822 106.545 64.7933C106.143 64.7647 105.742 64.7647 105.627 65.0795C105.512 65.3371 105.484 67.3116 105.57 67.5119C105.799 67.5978 106.229 67.5978 106.659 67.5119V68.7138C106.43 68.399 106.115 68.2273 105.541 68.2273C105.484 68.771 105.484 70.1732 105.541 70.717C105.627 71.4896 106 71.6327 106.659 71.7472V72.2909H103.477L103.591 71.7758C104.394 71.7185 104.394 71.3465 104.423 70.3736C104.452 69.5723 104.452 66.5676 104.394 65.8808C104.337 65.0223 104.165 64.7933 103.362 64.6503L103.534 64.1924ZM88.7957 66.3673V64.1924H95.3906V66.1383L94.8172 66.3673C94.7025 64.8792 94.1003 64.822 92.6666 64.822C92.6093 65.3943 92.5806 70.5166 92.6666 71.0317C92.7813 71.7472 93.2974 71.7758 94.0143 71.8044C94.043 71.9475 93.9569 72.1764 93.8709 72.3195H90.0573L90.172 71.8044C90.8888 71.7472 91.3476 71.7185 91.4623 71.0317C91.577 70.4308 91.5197 65.4801 91.4623 64.8506C90.9175 64.7647 90.0286 64.8792 89.7132 65.194C89.5412 65.3657 89.4265 65.6232 89.3691 65.9094C89.3691 66.1383 89.3691 66.2242 88.7957 66.3673ZM122.373 68.7138C122.115 70.7742 120.71 72.3481 118.53 72.4626V71.4896C118.731 71.4896 118.961 71.4896 119.19 71.461C120.136 71.3751 120.71 70.9459 120.996 70.2591C121.283 69.5151 121.369 68.4849 121.254 67.5978C121.054 66.0239 120.136 65.1081 118.53 65.0509V64.0779H118.989C121.455 64.1352 122.717 66.1383 122.373 68.7138ZM118.53 72.4626H118.043C115.577 72.3767 114.344 70.4022 114.659 67.7981C114.918 65.7377 116.351 64.1924 118.53 64.0493V65.0223C118.301 65.0223 118.072 65.0223 117.842 65.0509C116.896 65.1367 116.351 65.5374 116.064 66.2528C115.749 66.9682 115.692 68.0842 115.806 68.9427C116.036 70.488 116.925 71.4324 118.53 71.461V72.4626ZM98.8315 64.1924L99.6057 64.0779C99.7491 64.7361 100.036 65.5374 100.265 66.1956L101.699 70.3449C101.871 70.8028 102.072 71.3751 102.502 71.6327C102.702 71.7758 102.817 71.7472 103.018 71.8044L102.875 72.2909H99.8638C99.8638 71.5468 100.351 71.8616 100.609 71.5755C100.982 71.2034 100.294 69.6295 100.237 69.5437H98.8315V68.8569H100.007C99.8924 68.4849 98.9462 65.5946 98.8315 65.4801L98.8028 65.5374V64.1924H98.8315ZM98.2293 71.8044C98.258 71.9475 98.172 72.205 98.086 72.3195H95.0466C95.0466 71.7472 95.4193 71.7758 95.6487 71.5182C96.0501 71.089 96.7383 69.0572 96.9677 68.4563C97.3691 67.3688 97.7706 66.4245 98.1433 65.3084C98.258 64.9364 98.344 64.5358 98.4874 64.1924L98.8028 64.1352V65.5088L97.6272 68.8569H98.8028V69.5437H97.4265C97.3118 69.5723 97.1397 70.116 97.1111 70.2305C96.7383 71.4324 96.9964 71.8044 98.2293 71.8044Z" fill="#34373C"/>
<path fill-rule="evenodd" clip-rule="evenodd" d="M145.283 47.3659C145.283 47.509 145.713 48.7681 145.799 49.0543C145.971 49.6266 146.143 50.1989 146.287 50.8285C146.573 51.9446 146.918 53.4326 147.004 54.6059C147.204 55.4358 147.262 56.7807 147.319 57.6965C147.52 60.787 147.262 64.1638 146.659 67.1399C145.599 72.4626 143.477 77.2129 140.495 81.3909C139.978 82.1349 138.172 84.4529 137.427 85.1397C136.996 85.5403 136.28 86.3416 135.735 86.8567C135.018 87.5148 134.358 88.1158 133.699 88.6595V93.4098V94.5831C134.186 94.812 134.616 95.0124 134.817 95.0982C135.133 95.2413 135.62 95.5275 135.935 95.6133C135.907 95.2127 135.849 94.812 135.792 94.4114L135.677 93.5815C135.677 93.5529 135.677 93.4671 135.649 93.4385C135.62 93.3526 135.649 93.4385 135.62 93.3812L135.591 93.2954C135.649 93.0092 135.333 91.1205 135.305 90.6054L140.151 92.1507C140.151 91.9218 139.921 91.2064 139.864 90.9202L139.72 90.3193C139.663 90.0903 139.606 89.9186 139.548 89.6897C139.434 89.2891 139.348 88.8884 139.233 88.4592C139.147 88.0586 138.975 87.5721 138.918 87.1714L143.935 88.0872L142.1 83.3368L147.204 83.623C147.118 83.2796 144.939 79.5595 144.796 79.1588C144.939 79.073 147.118 78.9585 147.29 78.9585C148.151 78.9013 149.011 78.8154 149.842 78.7868C149.785 78.5293 146.975 74.8377 146.918 74.6374L151.907 73.6645C151.878 73.5786 151.878 73.6072 151.849 73.5786C151.792 73.4928 151.821 73.55 151.792 73.4928C151.649 73.4355 151.677 73.4355 151.563 73.2638L150.53 72.1478C150.387 72.0047 150.301 71.9189 150.129 71.7185L148.466 69.9157C148.638 69.8012 151.792 68.7997 152.108 68.6852C152.28 68.628 153.197 68.3704 153.283 68.256C153.111 68.1415 152.968 67.9984 152.796 67.8553C152.108 67.283 150.989 66.31 150.33 65.8236C150.158 65.6805 150.014 65.5374 149.842 65.4229C149.699 65.3085 149.498 65.1368 149.384 65.0223C149.441 64.9937 153.828 62.9619 153.971 62.8188C153.713 62.5899 149.9 60.2433 149.728 60.0716C149.842 59.9572 152.566 58.2402 152.939 57.9826C153.111 57.8682 153.885 57.4389 153.971 57.2386C153.742 57.2386 153.054 56.838 152.796 56.7235C151.677 56.2084 150.502 55.6075 149.384 55.0924L153.283 51.8301C153.197 51.7442 153.111 51.7156 152.996 51.687L152.108 51.4008C151.505 51.2005 149.039 50.4279 148.609 50.2562C148.552 50.2276 148.581 50.2562 148.523 50.2276L149.097 49.5122C149.355 49.2546 149.498 49.0829 149.699 48.854C149.728 48.8254 150.875 47.6521 150.903 47.509C151.047 47.4518 151.047 47.3945 151.161 47.2801L151.907 46.5074C151.763 46.3643 149.613 46.0209 149.441 45.9637L146.918 45.4486C146.975 45.2483 149.785 41.5282 149.842 41.2992L144.882 40.8986H144.853H144.824C144.968 40.498 147.147 36.7492 147.233 36.4344L142.158 36.7206L143.849 32.3995L144.021 31.9702L139.004 32.886C139.118 32.0561 140.237 28.4218 140.208 27.9353L135.305 29.452L135.907 24.3869C135.677 24.4441 134.129 25.1881 133.67 25.4171V30.9401C134.846 31.913 136.108 33.0577 136.939 33.9448C139.806 37.064 141.326 39.1244 143.391 43.0162C144.021 44.2181 144.566 45.5058 145.054 46.7936C145.082 46.9081 145.14 46.9939 145.168 47.0798L145.283 47.3659ZM133.67 88.6309C132.552 89.5466 131.462 90.3479 130 91.2922C124.237 94.9837 117.183 97.0441 109.986 97.0727V103.941L112.452 99.5624C112.595 99.6482 113.082 100.364 113.226 100.564L115.491 103.626C115.577 103.54 116.323 101.623 116.466 101.308C116.609 100.965 117.297 99.1045 117.441 98.9328C117.785 99.219 118.014 99.5338 118.301 99.8199C118.903 100.392 119.993 101.68 120.48 102.109C120.652 102.281 120.767 102.424 120.939 102.567C121.14 102.252 121.971 98.4463 122.258 97.6737C122.602 97.9026 125.125 100.02 125.699 100.478C125.842 100.593 126.072 100.793 126.215 100.879L126.875 95.8422C127.305 96.0139 131.032 98.5322 131.233 98.5036L131.262 93.4385C131.434 93.4957 131.434 93.5243 131.606 93.5529C131.663 93.6388 132.781 94.1539 133.67 94.5545V93.3812V88.6309ZM110.014 22.4982C112.595 22.4982 115.176 22.7557 117.699 23.2995C118.072 23.3853 119.075 23.557 119.362 23.7001C120.509 23.9004 122.918 24.7875 124.036 25.2454C126.1 26.0466 128.337 27.2199 130.143 28.3932C130.803 28.8224 131.376 29.2231 132.007 29.6523C132.523 30.0243 133.097 30.4536 133.699 30.9687V25.4171L133.642 25.4457C133.269 25.6174 131.52 26.4759 131.29 26.5045L131.262 21.468C131.118 21.468 128.337 23.2422 128.022 23.4425L126.932 24.1293L126.444 20.3806L126.272 19.1214C126.1 19.1787 125.154 20.0086 124.925 20.1803C124.781 20.2947 124.638 20.4664 124.466 20.495C124.351 20.6667 124.122 20.8098 123.95 20.9529C123.778 21.096 123.577 21.2677 123.376 21.4108C123.004 21.6969 122.659 22.0689 122.287 22.2979L121.914 20.8957C121.656 20.352 121.168 17.7192 120.968 17.3758L117.47 21.0388C117.297 20.8098 115.692 16.5173 115.548 16.3456C115.204 16.689 112.738 20.2661 112.509 20.4092C112.366 20.0658 112.108 19.6652 111.907 19.2931C111.706 18.9211 111.505 18.5777 111.305 18.2057C111.19 18.0054 110.129 16.1739 110.1 15.9736L110.043 16.0022V22.4982H110.014ZM110.014 97.0727C105.713 97.1014 101.355 96.386 97.1971 94.8407C95.5627 94.2397 93.8996 93.5243 92.4946 92.7517C91.7204 92.3224 91.0609 91.9504 90.3441 91.5212L88.7957 90.5196C88.6237 90.4051 88.4229 90.2334 88.2796 90.2048C88.2509 90.1762 85.8423 88.3161 85.4409 87.9155C84.466 86.9711 83.8638 86.5419 82.8315 85.3972C82.172 84.6532 81.5412 84.0236 80.9104 83.2224C79.3907 81.2765 78.0717 79.4164 76.8674 77.0412C73.6559 70.7742 72.1935 64.1638 72.767 56.7807C73.3405 49.3118 76.4086 41.8429 80.9964 36.32C81.3118 35.9479 81.5986 35.5473 81.9427 35.2039C82.086 35.0608 82.2867 34.8319 82.4301 34.6602C82.8029 34.2309 84.2652 32.7715 84.724 32.3423C87.4767 29.9671 88.7383 28.9655 92.2079 26.991C95.7348 24.9878 100.38 23.4998 104.538 22.8988C106.344 22.6413 108.179 22.4982 110.014 22.4982V16.0309C109.986 16.0309 109.986 16.0309 109.928 16.1167L108.151 19.3218C107.95 19.6652 107.692 20.0944 107.548 20.4378C107.376 20.3233 106.258 18.7208 106.029 18.406L104.509 16.3456C104.423 16.4315 104.48 16.4601 104.366 16.546C104.366 16.689 104.194 17.1183 104.108 17.2041L102.588 21.0388C102.358 20.8384 100.781 19.1501 100.409 18.7494L99.5197 17.8337C99.3477 17.6906 99.233 17.4903 99.0609 17.3758C98.9749 17.4903 99.0036 17.5762 98.9176 17.6906C98.9176 17.8337 98.7742 18.4633 98.7168 18.5777L97.7419 22.2979L95.7634 20.6954C95.1039 20.1516 94.4444 19.6365 93.7849 19.0642C93.6989 19.1787 93.5842 20.5523 93.5269 20.8098L93.0968 24.1293C92.8387 24.0149 92.2939 23.6429 92.0072 23.4712C91.6344 23.2422 91.2903 23.0133 90.9176 22.7844C90.6595 22.6413 88.8817 21.468 88.7384 21.468L88.7097 26.5045C88.3656 26.4473 84.5806 24.53 84.0645 24.3869C84.1219 24.7875 84.4373 27.1054 84.4086 27.3916C84.4946 27.5347 84.6667 29.1372 84.6667 29.452L79.7921 27.9067L79.8495 28.1929C79.9642 28.5935 80.5376 30.7684 80.5376 30.9973C80.595 31.0545 80.5376 30.9687 80.595 31.0831L80.7957 31.913C80.8817 32.1992 80.9964 32.5998 81.0251 32.886L76.0358 31.9416L76.1219 32.2278L77.8996 36.692L72.7957 36.4058C72.8817 36.7778 75.1183 40.5838 75.1756 40.8986L70.129 41.242C70.1577 41.3851 70.3584 41.614 70.4731 41.7571C70.5878 41.9288 70.7312 42.1005 70.8459 42.2722C71.1039 42.6442 73.0251 45.2483 73.0824 45.3914L68.0932 46.3643C68.1505 46.5074 68.7814 47.1084 68.9247 47.3087L71.534 50.1131C71.534 50.1131 71.5054 50.1131 71.5054 50.1417L67.0036 51.6298C66.8889 51.6584 66.7742 51.687 66.7168 51.7729L70.5878 55.0351L68.3226 56.1226C67.9498 56.2943 66.2581 57.1814 66 57.1814C66.086 57.3531 66.2581 57.4103 66.5161 57.582C67.0036 57.8968 70.1577 59.8713 70.2724 60.0144L66.2867 62.5899C66.1434 62.6471 66.0573 62.6471 66 62.8188C66.172 62.8188 69.0394 64.221 69.4409 64.4213C69.8136 64.593 70.2151 64.822 70.5878 64.9651C70.4444 65.1368 67.6057 67.4833 67.1756 67.8267C67.0036 67.9698 66.8315 68.1129 66.6882 68.2273C66.8029 68.3704 67.0896 68.399 67.2616 68.4563L71.2186 69.744C71.276 69.7726 71.3333 69.7726 71.362 69.8012L71.534 69.8871L68.0932 73.5786C68.1505 73.6359 68.1219 73.6072 68.2079 73.6358C68.2652 73.6645 68.3226 73.6645 68.3799 73.6645L69.3262 73.8362C69.7563 73.922 70.1577 74.0079 70.5878 74.0937C70.9319 74.1509 72.9391 74.523 73.1111 74.6088C73.0251 74.895 70.2151 78.5579 70.1864 78.7582L75.233 79.1016C75.2043 79.3305 74.2294 81.0189 74.0573 81.3337C73.8566 81.7057 73.6559 82.0777 73.4552 82.4211C73.3118 82.65 72.9104 83.3368 72.853 83.5944L77.9283 83.3082L76.0932 88.0586L81.1111 87.1428L79.8781 92.0935L84.7527 90.5482V90.7771L84.0645 95.5847C84.3226 95.5275 84.9247 95.2127 85.2115 95.0696C85.6702 94.8693 88.509 93.4957 88.7097 93.4671L88.7384 98.5036C88.9104 98.5036 90.6021 97.3875 90.8889 97.1872C91.2903 96.9583 92.8387 95.9281 93.0681 95.8422L93.7276 100.879C93.9857 100.793 97.2545 97.9312 97.6846 97.7023L97.7133 97.7596C97.828 97.9599 97.6846 97.7023 97.7419 97.8168L98.0287 98.9042C98.172 99.5052 98.9176 102.424 99.0323 102.596C99.233 102.453 101.269 100.221 101.642 99.8485C101.957 99.5624 102.186 99.219 102.53 98.9328C102.731 99.1904 104.28 103.454 104.452 103.626C104.566 103.483 104.71 103.283 104.824 103.139C104.968 102.968 105.082 102.796 105.197 102.624C105.541 102.138 107.348 99.6482 107.491 99.5624L109.957 103.998L109.986 103.969V97.0727H110.014Z" fill="#FEFEFE"/>
<path fill-rule="evenodd" clip-rule="evenodd" d="M132.839 33.0861C132.867 33.1719 132.953 33.2006 133.04 33.2864L135.649 35.8047C136.308 36.5487 136.738 36.9779 137.369 37.8078C138.201 38.838 139.004 39.9541 139.692 41.0987C141.498 44.0748 142.731 46.7648 143.678 50.1415C143.792 50.5708 143.936 51.2576 144.079 51.6296C144.108 52.0016 144.308 52.8029 144.394 53.2321C146.287 63.4768 143.505 73.9504 136.997 81.82C136.251 82.7357 135.018 84.0807 134.158 84.8533C132.294 86.5417 130.918 87.7436 128.652 89.1458C127.047 90.1474 125.384 91.0345 123.52 91.8357C119.333 93.6386 114.602 94.5543 109.9 94.5543V95.1839C115.95 95.1553 121.857 93.61 126.473 91.1203C128.824 89.8612 130.602 88.6879 132.638 87.0282C132.953 86.7706 133.298 86.4845 133.584 86.2269C134.731 85.1681 135.964 83.9948 136.968 82.7643C137.427 82.192 138.057 81.4766 138.488 80.8756C141.355 76.8693 143.161 73.4067 144.509 68.1699C144.968 66.3385 145.312 64.2781 145.455 62.2749C145.541 61.1875 145.57 60.0428 145.541 58.9268L145.427 55.779C145.341 55.6645 145.197 54.2909 145.169 54.0047C144.337 48.8538 142.186 43.388 139.204 39.2386C138.488 38.2371 136.824 36.0336 135.964 35.261C135.792 35.0893 135.62 34.8889 135.448 34.7172C135.047 34.288 134.301 33.6298 133.871 33.2006C133.097 32.4279 130.631 30.5965 129.799 30.0241C127.878 28.765 126.559 28.0496 124.437 27.0766C120.968 25.5027 116.724 24.4439 112.824 24.1291C112.509 24.1005 110.989 24.0719 110.875 24.0147C110.674 24.0433 110.33 24.0433 109.986 24.0433V24.6442C114.459 24.6442 118.961 25.4741 123.118 27.1625C126.272 28.4502 129.742 30.4534 132.323 32.6568C132.466 32.7999 132.638 32.9716 132.839 33.0861ZM109.928 94.5829C105.57 94.5829 101.24 93.8389 97.3119 92.265C92.38 90.2904 88.8245 87.9153 85.4123 84.6244C84.2366 83.5083 82.6883 81.7341 81.7707 80.4464C81.1972 79.6737 80.7098 78.9583 80.165 78.0998C75.9499 71.518 73.656 62.1891 75.5198 52.8029C77.1829 44.4468 81.7994 37.1496 88.1363 32.199C88.5377 31.8842 88.8531 31.6267 89.2546 31.3405C90.0288 30.7968 90.7456 30.2817 91.5771 29.7666C97.0252 26.3612 103.477 24.6156 109.928 24.6156V24.0147C109.613 24.0147 109.298 23.9861 109.097 24.0147C108.552 24.0433 108.007 24.0433 107.462 24.1005C106.43 24.1578 105.369 24.2722 104.394 24.4439C102.445 24.7587 100.638 25.1879 98.8603 25.7603C93.7564 27.42 89.656 29.9383 85.8997 33.315C85.3263 33.8301 84.2366 34.8603 83.7492 35.4326L82.5736 36.7776C80.3657 39.4676 78.7599 41.9 77.2976 45.1909C71.3908 58.5261 74.2868 74.4941 84.6381 84.7102C85.4983 85.5687 86.3585 86.37 87.3047 87.1426C92.0359 90.9772 97.4553 93.5241 103.706 94.6688C105.771 95.0408 107.835 95.2125 109.9 95.2125V94.5829H109.928Z" fill="#FEFEFE"/>
<path fill-rule="evenodd" clip-rule="evenodd" d="M98.5161 61.7028H103.534V40.269H98.5448L98.5161 61.7028ZM107.29 61.7028H112.251L112.28 40.269H107.29C107.176 40.7269 107.29 61.6742 107.29 61.7028ZM116.323 61.7028H121.34V40.269H116.351L116.323 61.7028Z" fill="#F15D26"/>
<path fill-rule="evenodd" clip-rule="evenodd" d="M84.6094 77.957C84.7527 77.6422 86.4158 75.6105 86.5592 75.3243L86.1004 74.7234L86.0431 74.6661L83.3764 78.4149C83.4337 78.558 83.6918 78.8155 83.8065 78.9586C84.1506 78.93 86.7026 77.8139 87.0753 77.7281C86.9893 77.8998 85.785 79.5882 85.5843 79.903C85.4696 80.0747 85.1829 80.4467 85.1255 80.6184C85.1829 80.7328 85.4983 81.1048 85.5843 81.2193L89.828 79.5023C89.7993 79.3879 89.4553 78.9586 89.3406 78.8728L86.3298 80.1319C86.5305 79.7313 88.1076 77.6709 88.1936 77.3847C88.0502 77.213 87.8495 76.9841 87.7348 76.7837L84.6094 77.957ZM114.574 91.9219C114.602 91.7215 114.459 90.8058 114.43 90.5483C114.344 89.8329 114.401 89.9473 114.688 89.375C114.86 89.0316 115.634 87.4863 115.692 87.286C114.545 87.3719 114.803 87.3432 114.488 88.0014C114.315 88.402 114.029 88.8885 113.914 89.2605C113.771 89.2033 113.369 88.631 113.226 88.4593C112.996 88.2017 112.767 87.9442 112.595 87.6866C112.251 87.7152 111.964 87.7725 111.563 87.7725C110.789 87.7725 108.781 87.7153 108.265 87.7725V88.4879H109.642L109.67 92.208H110.445V88.4879H111.792V88.1159C111.936 88.2017 112.337 88.7168 112.509 88.8885C112.738 89.1461 112.939 89.4036 113.169 89.6612C113.57 90.0904 113.541 89.9759 113.627 90.6914C113.685 91.1206 113.713 91.5499 113.799 91.9791L114.574 91.9219ZM137.427 53.8906L140.638 53.3469C140.523 53.5186 137.914 55.8937 137.771 55.9796L137.943 57.0384C138.057 57.067 142.1 56.4088 142.33 56.323L142.215 55.5789C141.814 55.5217 139.548 56.0654 138.918 56.094C139.061 55.8937 139.807 55.2928 140.007 55.0638L140.724 54.4057C140.867 54.2912 140.953 54.1767 141.097 54.0623C141.298 53.8906 141.642 53.5186 141.842 53.4327L141.67 52.4311C141.441 52.4025 137.742 53.0607 137.283 53.1465L137.427 53.8906ZM81.828 73.407C81.914 73.1781 83.5771 70.6884 83.8065 70.345C83.9786 70.0875 83.8925 70.0303 83.7492 69.7727C83.6631 69.5724 83.5771 69.3721 83.4911 69.2004L79.4194 71.0032L79.7348 71.7473L82.8316 70.4023L80.7958 73.4929C80.595 73.8076 80.6237 73.7218 80.7671 74.0652C80.8531 74.2369 80.9391 74.4658 81.0251 74.6375C81.1685 74.6089 84.9535 72.9491 85.0968 72.8633C85.0682 72.6916 84.8674 72.2624 84.7814 72.1479L81.828 73.407ZM107.95 87.7725L107.176 87.6866L106.717 90.8917C106.545 90.7486 106.401 90.2335 106.287 90.0046L105.455 88.2303C105.341 88.0014 105.14 87.6008 105.054 87.3718L103.993 87.2288L103.362 91.5785C103.505 91.6643 104.022 91.7216 104.136 91.7216C104.222 91.2351 104.538 88.6024 104.652 88.402L106.344 92.0363L107.348 92.1794L107.95 87.7725ZM140.265 58.3834C142.186 58.3261 142.502 61.0733 140.581 61.3881C140.466 61.4167 140.351 61.4167 140.265 61.4167V62.2466C141.556 62.2466 142.817 61.3309 142.588 59.528C142.416 58.183 141.326 57.5249 140.265 57.5249V58.3834ZM139.921 58.4406C140.036 58.412 140.151 58.412 140.237 58.412V57.5535C138.975 57.5535 137.713 58.4692 137.914 60.272C138.057 61.617 139.147 62.2752 140.237 62.2752V61.4453C138.344 61.4739 138.029 58.784 139.921 58.4406ZM134.416 76.0683C135.19 76.1256 135.85 76.7551 135.993 77.3847C136.194 78.2718 135.477 79.1017 134.731 79.1875H134.444V80.0174C135.677 80.046 136.624 78.9586 136.796 77.9284C137.025 76.5262 135.907 75.4388 134.76 75.2385C134.645 75.2098 134.559 75.2098 134.444 75.2098V76.0683H134.416ZM134.129 76.097C134.215 76.097 134.301 76.0683 134.387 76.097V75.2385C133.154 75.2098 132.208 76.2687 132.036 77.2989C131.778 78.7011 132.953 79.8457 134.1 80.0174C134.215 80.046 134.301 80.046 134.416 80.046V79.2162C133.613 79.1589 132.982 78.5294 132.839 77.8998C132.638 76.9841 133.355 76.1828 134.129 76.097ZM80.595 65.423C81.4839 65.3658 82.1148 65.9953 82.2008 66.7966C82.2868 67.7409 81.57 68.3705 80.7671 68.4564H80.595V69.2862C81.8854 69.2862 83.1757 68.3133 82.9176 66.6821C82.6882 65.1941 81.6273 64.5359 80.595 64.5645V65.423ZM80.4803 65.4516H80.595V64.6217C79.3047 64.6504 78.0431 65.6519 78.2725 67.2545C78.4732 68.7139 79.5341 69.3435 80.595 69.3435V68.5136C78.6452 68.5708 78.3011 65.7378 80.4803 65.4516ZM124.38 84.7678C125.068 84.7964 125.756 85.2256 125.928 86.2272C126.072 87.1715 125.384 87.8869 124.523 87.9728H124.38V88.7454C125.613 88.6882 126.588 87.7725 126.76 86.6851C126.961 85.3687 125.871 84.1096 124.753 83.9665C124.638 83.9379 124.495 83.9379 124.38 83.9665V84.7678ZM122.86 86.5134C122.688 85.3973 123.548 84.7677 124.409 84.7964V83.9951C123.348 84.0523 122.201 84.8822 122.029 85.9983C121.828 87.4005 122.946 88.631 124.036 88.7454H124.409V87.9728C123.577 87.9442 122.946 87.2288 122.86 86.5134ZM113.226 28.2788C113.484 28.3361 113.713 28.4219 113.857 28.5077C114.287 28.7653 114.545 29.1945 114.488 29.8527C114.401 30.7971 113.857 31.1118 113.226 31.1977V31.9703C113.455 31.9417 113.685 31.9131 113.914 31.8273C115.663 31.1691 115.807 28.7367 114.287 27.8496C114.057 27.7065 113.656 27.6206 113.226 27.5348V28.2788ZM111.964 31.1691L112.251 28.193C112.509 28.1644 112.882 28.2216 113.226 28.2788V27.5348C112.652 27.4203 111.993 27.3917 111.563 27.3631C111.505 27.4776 111.505 27.5062 111.477 27.9068C111.448 28.0785 111.448 28.2788 111.419 28.4505C111.391 28.8225 111.333 29.1945 111.305 29.5666C111.247 30.0817 111.047 31.3694 111.104 31.7986C111.333 31.8845 112.251 31.9417 112.566 31.9703C112.824 31.999 113.025 31.999 113.255 31.999V31.2263C112.796 31.2549 112.337 31.1977 111.964 31.1691ZM119.333 31.3408C119.505 31.398 119.649 31.4552 119.735 31.4839C120.624 31.8845 120.222 32.8002 119.419 32.6858C119.391 32.6858 119.362 32.6858 119.333 32.6571V33.3726C119.62 33.4298 119.907 33.4584 120.194 33.3726C121.025 33.115 121.427 31.9131 120.423 31.2835C120.968 31.2263 121.226 31.0832 121.398 30.654C121.599 30.1103 121.398 29.7096 121.111 29.4521C120.796 29.1659 120.452 29.0801 120.022 28.937C119.878 28.8798 119.591 28.7939 119.333 28.7081V29.5666C119.362 29.5379 119.362 29.5093 119.391 29.4807C119.878 29.5952 120.796 29.8241 120.652 30.4251C120.509 30.9974 119.85 30.7685 119.362 30.6254V31.3408H119.333ZM118.416 32.371C118.445 32.0848 118.703 31.4839 118.789 31.1977C118.932 31.2263 119.133 31.2835 119.333 31.3694V30.654C119.219 30.6254 119.104 30.5681 119.018 30.5681C119.047 30.3964 119.219 29.8241 119.333 29.5952V28.7367C119.133 28.6794 118.932 28.6222 118.817 28.5936L117.412 32.8002C117.556 32.9147 118.473 33.1722 118.731 33.2581C118.932 33.3153 119.133 33.4012 119.333 33.4298V32.7144C119.075 32.6285 118.559 32.4568 118.416 32.371ZM131.548 37.4933C131.807 37.2644 132.036 37.0355 132.122 37.0068C132.38 37.3789 132.839 37.6364 133.068 38.2087C133.326 38.8669 132.982 39.4392 132.638 39.754C132.265 40.0974 131.893 40.2119 131.52 40.1833V40.9845H131.72C132.867 40.9845 133.957 39.9543 133.928 38.7524C133.928 37.5506 132.81 36.8065 132.036 35.9194C131.921 35.9767 131.72 36.177 131.52 36.3773V37.4933H131.548ZM131.032 38.037C131.118 37.9512 131.319 37.7223 131.548 37.5219V36.4059L131.262 36.6921C131.004 36.9496 130.688 37.2072 130.459 37.4647C130.201 37.7509 128.968 38.8669 128.853 39.0386C129.255 39.4392 129.599 39.8685 130.029 40.2691C130.373 40.6125 130.889 40.9273 131.548 40.9845V40.1833C130.717 40.0974 130.029 39.2389 129.943 39.0386L131.032 38.037ZM90.8029 38.266C90.4302 39.4965 88.9105 40.0688 87.9642 38.9814C86.9893 37.8653 87.6775 36.4631 89.1112 36.2914V35.4616C88.1076 35.4616 87.2474 36.3773 86.932 36.9782C86.3872 38.0084 86.8173 39.0386 87.4194 39.6396C89.2545 41.4424 91.3764 39.5823 91.7205 38.0657C91.5484 37.8653 90.2581 36.5204 90.1148 36.4345L89.5126 37.0355C89.3119 37.2072 89.0825 37.4075 88.9105 37.6078L89.3692 38.1229C89.6846 38.037 89.828 37.665 90.1148 37.5219C90.2581 37.7223 90.6882 38.0943 90.8029 38.266ZM104.595 28.5364C104.996 28.5077 105.369 28.565 105.427 29.0228C105.455 29.4235 105.226 29.5666 104.91 29.6524C104.853 29.681 104.738 29.7096 104.624 29.7096V30.4251H104.681L105.341 31.2549C105.57 31.5411 105.828 31.8273 106 32.0848C106.143 32.0848 106.803 31.999 106.946 31.8845L106.201 31.026C106.029 30.7971 105.599 30.3678 105.513 30.1961C105.771 30.0244 105.828 30.053 106.029 29.8527C106.516 29.3376 106.315 28.3647 105.799 28.0213C105.484 27.821 105.082 27.7923 104.624 27.821V28.5364H104.595ZM103.763 28.6794C103.993 28.6508 104.308 28.565 104.595 28.5364V27.821C104.136 27.8782 103.649 27.9927 103.219 28.0499C103.075 28.0785 102.961 28.0785 102.846 28.1644L103.62 32.5141L104.394 32.371C104.423 32.0848 104.136 30.9115 104.079 30.5109L104.595 30.4251V29.7383C104.366 29.7955 104.079 29.8241 103.964 29.8241L103.763 28.6794ZM82.8316 43.5886C82.975 43.5028 83.147 43.5028 83.3191 43.6173C83.9212 43.9893 83.4337 44.7047 83.061 45.277L82.8316 45.1339V46.0783C83.8352 46.6506 84.8961 47.2229 84.9248 47.2229L85.2975 46.5648C85.1255 46.3931 83.9786 45.7921 83.6918 45.6204L83.9786 45.1339L86.1291 45.1625L86.4445 44.6474L86.5879 44.3327L84.3226 44.3899C84.4373 43.7889 84.4373 43.5028 84.0646 43.1308C83.8065 42.8732 83.3764 42.6729 82.8603 42.7588V43.5886H82.8316ZM82.0574 44.6761C82.0861 44.5616 82.4015 43.8176 82.8316 43.5886V42.7301H82.7743C82.2008 43.0163 82.0861 43.2166 81.7707 43.7603C81.6273 44.0179 81.1112 44.8191 81.0538 45.0481C81.1398 45.1339 81.9714 45.5918 82.8316 46.0783V45.1339L82.0574 44.6761ZM137.771 44.3899C137.799 44.4185 138.717 45.649 138 46.0497C137.828 46.1355 137.656 46.1355 137.513 46.0497V46.9081C137.685 46.9654 137.885 46.9654 138.115 46.8795C139.376 46.5075 139.118 45.3915 138.66 44.533C138.545 44.304 138.115 43.4456 138 43.3311L137.513 43.5886V44.5044L137.771 44.3899ZM137.513 46.0497C137.025 45.8207 136.738 44.9336 136.738 44.905L137.513 44.5044V43.5886L134.072 45.3915L134.416 46.0783C134.703 46.021 135.735 45.3342 136.108 45.2198C136.366 45.878 136.538 45.3915 135.649 46.7651C135.563 46.8795 135.19 47.4232 135.19 47.5091C135.19 47.5949 135.534 48.2245 135.62 48.339C135.735 48.2531 136.624 46.7078 136.796 46.4217C136.968 46.5648 137.169 46.7937 137.484 46.8795V46.0497H137.513ZM135.993 72.4054C136.108 72.3482 136.28 72.3482 136.452 72.4341C137.111 72.7774 136.48 73.6932 136.251 74.0938L135.964 73.9507V74.8665C136.968 75.3815 138.057 75.9253 138.143 75.9825C138.258 75.8966 138.488 75.4388 138.516 75.2671L136.882 74.4086C136.91 74.2369 137.025 74.0366 137.111 73.8935L139.262 73.8363L139.692 72.9778L137.455 73.1208C137.484 72.7774 137.57 72.663 137.427 72.291C137.226 71.7473 136.538 71.4325 135.964 71.5469V72.4054H135.993ZM135.219 73.5501C135.305 73.3212 135.534 72.9205 135.649 72.7202C135.735 72.6057 135.85 72.4627 135.993 72.3768V71.5469C135.878 71.5756 135.764 71.6042 135.649 71.69C135.276 71.919 135.075 72.291 134.846 72.7488C134.703 73.035 134.33 73.6932 134.244 73.9507C134.33 74.008 135.133 74.4372 135.993 74.8665V73.9507L135.219 73.5501ZM93.785 83.4514C94.1578 83.6517 94.8746 84.1382 94.5592 84.6533C94.3585 84.9967 94.0717 84.9681 93.785 84.8536V85.5976C94.1578 85.6835 94.6165 85.8552 95.104 85.3401C95.3907 85.0253 95.6488 84.5102 95.3621 83.9379C95.1613 83.5372 94.7886 83.2797 94.4158 83.0221C94.2725 82.9077 94.0144 82.736 93.785 82.5929V83.4514ZM92.9248 84.3385C92.9821 84.1668 93.4409 83.48 93.5556 83.3369C93.5843 83.3369 93.6703 83.3942 93.785 83.4514V82.6215C93.5843 82.4784 93.4122 82.364 93.2975 82.3354C93.0968 82.5357 90.8603 85.9696 90.8603 86.0269C91.0036 86.1413 91.3477 86.3703 91.4911 86.4275C91.6631 86.2844 92.2653 85.2256 92.552 84.9108L93.0108 85.197L92.8388 87.3432L93.6416 87.8297L93.7563 85.569H93.8137V84.825C93.4696 84.7105 93.1255 84.4244 92.9248 84.3385ZM127.764 82.3926C128.022 82.2781 128.251 82.2495 128.48 82.5357C128.882 83.0508 128.222 83.5372 127.764 83.852V85.4832L128.538 86.4847C128.652 86.4561 129.082 86.1127 129.169 86.0269C129.111 85.8838 128.738 85.4259 128.624 85.2828C128.452 85.0825 128.165 84.7391 128.079 84.5388C128.194 84.4244 128.452 84.1954 128.624 84.2527C128.91 84.3671 130.344 85.0825 130.459 85.0539C130.631 84.9395 131.09 84.6247 131.176 84.453L129.111 83.6231C129.14 83.5372 129.111 83.6231 129.169 83.5372L129.226 83.48C129.885 82.5357 128.996 81.4482 128.108 81.5627C127.993 81.5627 127.878 81.5913 127.764 81.6486V82.3926ZM126.903 82.9935C127.018 82.8791 127.133 82.7932 127.247 82.7074C127.391 82.5929 127.563 82.4498 127.735 82.364V81.5913C127.219 81.7916 126.731 82.2209 126.33 82.5357C126.158 82.6787 125.928 82.7932 125.842 82.9363L127.764 85.4259V83.7948C127.706 83.8234 127.677 83.852 127.62 83.8806C127.505 83.852 126.961 83.1366 126.903 82.9935ZM97.2259 85.4832C97.4266 85.569 97.6273 85.6835 97.7133 85.7407C97.9427 85.8838 98.2008 86.1413 98.0287 86.5134C97.8567 86.8568 97.5413 86.8854 97.2259 86.7995V89.6898C97.3406 89.747 97.4266 89.7756 97.5413 89.8042C97.5126 89.375 97.3119 87.8297 97.3692 87.5435C98.4588 87.8869 99.3191 86.5992 98.7456 85.7121C98.5162 85.3687 98.1148 85.1398 97.6846 84.9394L97.2259 84.7105V85.4832ZM96.8818 85.3401C96.9391 85.3687 97.0825 85.4259 97.2259 85.4832V84.7105C96.9391 84.5674 96.6237 84.3957 96.423 84.3671C96.3083 84.7391 94.6165 88.03 94.5305 88.3734L95.2187 88.6882C95.3621 88.5165 95.9355 87.3146 96.0502 87.0285L96.5664 87.2574L96.6811 89.4322C96.8531 89.4895 97.0538 89.6039 97.2259 89.6898V86.7995C96.9105 86.7137 96.5664 86.5134 96.3657 86.3989L96.8818 85.3401ZM80.6811 59.8142H81.2545C81.2832 60.0717 81.2832 60.6154 81.2545 60.873C81.1972 61.1878 81.0538 61.3881 80.7097 61.3881H80.6811V62.218C81.0538 62.218 81.3979 62.0749 81.5986 61.9032C82.1434 61.3309 81.9427 59.9573 81.9427 59.0129L80.6811 59.0415V59.8142ZM80.0789 59.8142H80.6811V59.0129L77.4696 59.0702L77.4983 59.8714L79.3907 59.8428L79.4194 60.3865L77.5556 61.4739L77.5843 62.3897C77.785 62.4183 79.1613 61.3595 79.5341 61.2164C79.6488 61.9318 80.1936 62.1893 80.7097 62.1893V61.3595C79.9929 61.3595 80.0789 60.4151 80.0789 59.8142ZM101.756 29.1659L101.527 28.4505L98.7169 29.3376L100.065 33.5729C100.351 33.5443 102.903 32.6858 102.989 32.6285L102.76 31.9703L100.581 32.6571L100.237 31.5125C100.523 31.4266 102.014 30.9688 102.158 30.8829L101.928 30.2247L99.9786 30.8257L99.6631 29.7955L101.756 29.1659ZM131.979 42.4154C132.093 42.6157 132.265 42.8446 132.409 43.0449L133.756 44.8764C133.842 44.8478 134.244 44.5616 134.33 44.4471C134.129 44.1323 133.9 43.8462 133.699 43.5314C133.556 43.3311 133.126 42.7874 133.068 42.5871C133.384 42.444 133.728 42.072 134.014 41.9289C134.158 42.0433 135.018 43.3311 135.19 43.56C135.333 43.5028 135.677 43.2452 135.792 43.1308C135.649 42.8732 135.419 42.5584 135.219 42.3295C135.104 42.1578 134.703 41.6427 134.645 41.4996C134.817 41.3565 135.305 40.9845 135.505 40.8701C135.706 41.1276 136.652 42.4154 136.738 42.5871C136.882 42.5298 137.226 42.3009 137.341 42.1864C137.283 42.0433 136.652 41.1849 136.509 40.9845L135.677 39.7826C135.477 39.8685 134.129 40.8701 133.842 41.0704L132.265 42.1864C132.237 42.215 132.208 42.215 132.151 42.2723C132.007 42.3867 132.036 42.3295 131.979 42.4154ZM84.552 42.2437C84.8674 42.3867 86.4732 43.7317 86.8746 43.9606L88.7384 41.5282C88.6237 41.4138 88.3083 41.1562 88.1649 41.099C88.1076 41.2135 86.932 42.7874 86.7886 42.8732L85.871 42.1578C86.0431 41.8144 87.018 40.7556 87.0753 40.4981C86.8746 40.4122 86.7026 40.1833 86.5019 40.126L85.2975 41.6999C85.1542 41.6427 84.5234 41.1562 84.4373 41.0704C84.4947 40.8987 84.9248 40.4122 85.0682 40.2119C85.1829 40.0688 85.2975 39.9257 85.3836 39.7826C85.4983 39.6396 85.6416 39.5251 85.699 39.3248C85.5556 39.1817 85.2975 39.01 85.1542 38.9241C84.9821 39.1531 83.4624 41.0704 83.3764 41.2707C83.5198 41.471 84.5234 42.1578 84.552 42.2437ZM109.986 28.0785L110.186 27.9927L110.129 27.3345L109.527 27.3631L107.204 27.4489L107.405 31.9131L110.473 31.7986L110.445 31.0832L108.151 31.1691L108.093 29.9958L110.129 29.91L110.1 29.2232C109.785 29.1373 108.523 29.309 108.036 29.2804L108.007 28.2216L109.986 28.0785ZM90.6596 81.4196L89.9714 83.1366C89.9427 83.1366 89.8854 83.0794 89.828 83.0221V85.3115C89.8854 85.3687 89.9427 85.4259 90.0287 85.4832C90.1148 85.3973 90.0861 85.4832 90.1148 85.3401L91.3764 81.5341C91.6058 80.8187 91.6918 80.9904 91.061 80.4467L89.7993 81.019V81.8489L90.6596 81.4196ZM89.828 83.0221C89.57 82.7932 89.0825 82.364 88.9965 82.2495L89.828 81.8489V81.019L86.7026 82.4498C86.7599 82.6215 87.19 82.9649 87.3621 83.0794L88.3083 82.6215C88.595 82.7646 89.4266 83.6803 89.742 83.8234C89.7133 84.1668 89.4553 84.5388 89.3979 84.9108C89.5413 85.0539 89.6846 85.1684 89.828 85.3115V83.0221ZM124.609 33.2867C124.409 33.6587 124.323 33.9449 124.065 34.1738C123.462 34.7461 122.401 34.2024 122.43 33.4012C122.459 32.8861 123.606 31.0546 123.807 30.4537L123.09 30.1103C122.889 30.4251 122.631 30.9688 122.459 31.3122C122.258 31.7414 122.057 32.1134 121.828 32.5427C120.71 34.7748 123.95 36.32 125.039 34.1738C125.212 33.8304 126.244 31.9131 126.272 31.7128L125.556 31.3694L124.609 33.2867ZM80.251 55.8079C80.6524 56.0082 81.0825 56.2657 81.1685 56.323L80.251 56.5519V57.3818C81.1112 57.1242 82.0001 56.8667 82.1148 56.8095L82.1721 56.1513L80.251 55.0352V55.8079ZM79.5054 55.4359C79.5915 55.4645 79.9069 55.6076 80.251 55.8079V54.978L77.9857 53.6616L77.8997 54.5487L78.8459 55.0638L78.6165 56.9525L77.5556 57.2387L77.4409 58.1258C77.8137 58.0686 78.2725 57.8969 78.6165 57.7824C78.8746 57.6966 79.5341 57.5249 80.2223 57.3245V56.4947L79.3047 56.7236L79.5054 55.4359ZM100.695 88.0587C100.896 87.8011 101.097 87.5722 101.183 87.4291L101.212 87.4863V87.5149L101.24 87.658V87.887C101.24 88.0587 101.269 88.2017 101.269 88.3734C101.298 88.6882 101.298 89.003 101.326 89.3178L100.695 89.1175V89.8329C100.953 89.9187 101.212 90.0046 101.412 90.0618L101.498 91.1492L102.358 91.4068L101.871 86.5992L101.212 86.3989C101.097 86.5706 100.925 86.7709 100.695 86.9998V88.0587ZM100.065 88.8885C100.151 88.7741 100.437 88.4021 100.695 88.0587V86.9712C100.323 87.4005 99.8639 87.887 99.6058 88.2017C99.3764 88.4879 98.1148 89.8615 98.0287 90.0332L98.8603 90.2907C98.9463 90.2335 99.4911 89.5753 99.5198 89.4609C99.8065 89.4895 100.265 89.6325 100.667 89.8042V89.0888L100.065 88.8885ZM138.401 69.229L139.319 69.2004L138.889 70.4595L138.401 70.0589V71.0891L140.007 72.5199L140.294 71.6614C140.036 71.4897 139.749 71.1463 139.491 71.0032C139.491 70.7743 140.007 69.4007 140.093 69.1432L141.183 69.0859L141.47 68.2274L138.401 68.4564V69.229ZM137.484 69.2576L138.401 69.229V68.485L136.624 68.6281L136.423 69.2576C136.48 69.3721 136.738 69.601 136.853 69.6869C137.025 69.8299 137.14 69.973 137.312 70.0875L138.401 71.0891V70.0589L137.541 69.3721C137.484 69.2862 137.513 69.3149 137.484 69.2576ZM94.0717 31.8845C93.1542 31.7986 92.466 32.2851 92.1506 32.7716C91.6631 33.4584 91.9786 34.3741 92.552 34.6603C93.3549 35.0609 94.4158 34.2024 94.8746 34.6889C95.19 35.0323 94.932 35.4616 94.7026 35.6333C94.3011 35.948 94.1004 35.8622 93.613 35.7763L93.4409 36.5776C94.1864 36.921 95.19 36.2628 95.4768 35.9194C96.0502 35.2326 95.9069 34.3741 95.3907 33.9449C94.5879 33.2581 93.785 34.0593 93.0682 33.9163C92.3513 33.7732 92.6954 32.5141 93.9284 32.7144L94.0717 31.8845ZM130.688 79.8171C130.918 79.7313 131.147 79.7026 131.348 79.903C131.95 80.4753 130.803 81.3338 130.688 81.391V82.5357L131.147 82.9935C131.376 83.2225 131.72 83.5372 131.921 83.7662C132.065 83.7089 132.409 83.3369 132.495 83.2225C132.237 82.8791 131.462 82.2495 131.233 81.9347C131.462 81.5627 132.036 81.3052 132.265 80.6184C132.495 79.9888 132.065 79.3592 131.606 79.1017C131.262 78.93 130.975 78.93 130.688 79.0445V79.8171ZM130.688 81.391L129.857 80.5611C129.885 80.4753 130.258 79.9888 130.688 79.8171V78.9872C130.401 79.0731 130.143 79.2734 129.971 79.4451L128.824 80.5897C128.882 80.7042 130.029 81.8489 130.717 82.5357L130.688 81.391ZM120.824 86.7709C120.968 86.6851 121.169 86.313 121.255 86.1413C120.738 85.6549 119.706 85.8552 119.161 86.1413C117.728 86.8854 117.642 88.5451 118.473 89.6898C119.591 91.2351 122.115 90.491 122.401 89.0888L121.656 88.8885C121.455 89.1747 121.283 89.8615 120.28 89.8042C118.989 89.747 118.33 87.9442 119.19 87.0857C119.706 86.5992 120.079 86.4847 120.824 86.7709ZM98.0861 30.3678C98.0574 30.1961 97.8854 29.7955 97.7707 29.7096L94.5879 31.1977L94.8746 31.8559L96.1076 31.2835C96.2223 31.398 96.7958 32.6858 96.9105 32.9433C97.0538 33.2295 97.1685 33.487 97.3119 33.8018C97.4266 34.0307 97.5986 34.46 97.7133 34.6317L98.4015 34.2883C98.3441 34.088 97.7707 32.8861 97.6273 32.5999C97.4839 32.3137 96.8818 31.1405 96.8531 30.9115L98.0861 30.3678ZM83.1757 51.4582L82.4588 51.3151L82.1434 52.6314L78.5018 51.7729L78.3298 52.5456L81.9427 53.4041L81.6273 54.7204C81.828 54.7777 82.1148 54.8635 82.3441 54.8635L83.1757 51.4582ZM138.488 64.1639C138.258 64.1067 138.029 64.0208 137.771 64.0208L137.054 67.4548L137.742 67.5979L138.029 66.2815L141.67 67.0541C141.728 66.8538 141.842 66.4532 141.814 66.2815L138.201 65.5089L138.488 64.1639ZM126.731 37.3789L127.591 38.0657L128.452 38.7524C128.566 38.6666 128.796 38.3518 128.91 38.2087C128.767 38.0084 127.792 37.3216 127.477 37.0355C127.563 36.8065 129.599 34.4027 129.742 34.088C129.627 33.9735 129.312 33.7159 129.197 33.6301C129.082 33.6301 129.14 33.6015 129.054 33.6873C129.054 33.6873 128.968 33.7732 128.968 33.8018C128.538 34.4027 126.502 36.8638 126.387 37.1499C126.502 37.1785 126.617 37.2644 126.731 37.3789ZM77.785 64.078C78.0717 64.1067 79.5915 63.8777 79.9929 63.8491C80.7097 63.7633 81.4839 63.706 82.2008 63.5916L82.0861 62.8189C81.7707 62.8189 78.7312 63.1909 77.9284 63.3054C77.8997 63.3054 77.8137 63.334 77.785 63.334C77.6703 63.3626 77.7277 63.334 77.6703 63.3912L77.785 64.078ZM125.642 36.5776C125.785 36.4631 128.05 32.9719 128.079 32.8575L127.419 32.4568L124.982 36.177L125.642 36.5776ZM137.885 62.8475C137.799 63.0192 137.742 63.4199 137.799 63.6202L142.186 64.1639L142.272 63.3626L137.885 62.8475ZM92.6094 37.8367C92.7527 37.7509 93.1255 37.4647 93.2402 37.3502L90.5449 33.8304C90.3728 33.9163 90.0001 34.2024 89.914 34.3169L92.6094 37.8367Z" fill="#FEFEFE"/>
<path fill-rule="evenodd" clip-rule="evenodd" d="M138.143 48.9971C137.541 49.1688 137.283 49.6552 137.427 50.1989C137.713 51.4008 139.634 50.9716 139.319 49.6839C139.204 49.226 138.746 48.7967 138.143 48.9971ZM82.7168 48.9684C82.8602 48.3961 82.4588 47.9096 82.0287 47.7952C81.4552 47.6521 80.9391 48.0527 80.8244 48.482C80.509 49.7983 82.3727 50.2276 82.7168 48.9684Z" fill="#F15D26"/>
<path fill-rule="evenodd" clip-rule="evenodd" d="M109.986 28.0783H110.186C110.215 27.9352 110.186 27.4773 110.158 27.3342C110.043 27.3056 109.642 27.3056 109.498 27.3628L110.1 27.3342L110.158 27.9924L109.986 28.0783Z" fill="#FEFEFE"/>
</g>
<defs>
<clipPath id="clip0_271_1937">
<rect width="88" height="88" fill="white" transform="translate(66 16)"/>
</clipPath>
</defs>
</svg>
