<svg width="220" height="120" viewBox="0 0 220 120" fill="none" xmlns="http://www.w3.org/2000/svg">
<rect width="220" height="120" fill="#FEFEFE" fill-opacity="0.05"/>
<path d="M72.4986 49.8103H79.0315C79.4599 49.8103 79.5669 49.8103 79.5669 50.2386C79.674 51.3096 79.7811 52.3806 79.674 53.4515C79.4599 56.0218 78.9244 58.485 77.425 60.5198C76.8396 61.3837 76.1613 62.1691 75.3902 62.8759C74.6191 63.5828 73.7802 64.1896 72.8735 64.6966C71.9596 65.2106 71.0029 65.6104 70.0033 65.896C68.9966 66.1887 67.9721 66.3601 66.9297 66.4101H64.2523C63.5669 66.3601 62.8922 66.2601 62.2282 66.1102C61.557 65.9674 60.9002 65.7782 60.2576 65.5426C59.615 65.307 58.9903 65.0285 58.3834 64.7073C57.7837 64.386 57.2054 64.0254 56.6485 63.6256C55.9417 63.133 55.2812 62.5868 54.6672 61.987C54.0532 61.3873 53.4892 60.7412 52.9751 60.0486C52.4682 59.356 52.0184 58.6278 51.6257 57.8639C51.2402 57.0999 50.9153 56.3074 50.6511 55.4863C50.5298 55.1151 50.4262 54.7402 50.3406 54.3618C50.2549 53.9834 50.1835 53.6014 50.1264 53.2159C50.0764 52.8304 50.0407 52.4412 50.0193 52.0486C49.9979 51.663 49.9943 51.2739 50.0086 50.8812C50.0086 48.2038 50.7582 45.6335 52.1505 43.3845C52.9501 42.0494 53.9283 40.8606 55.0849 39.8182C56.2487 38.783 57.5374 37.9405 58.9511 37.2908C60.3647 36.6411 61.8426 36.2127 63.3848 36.0056C64.927 35.8057 66.4656 35.8379 68.0006 36.102C70.678 36.5304 73.0341 37.6014 75.0689 39.3149L75.7115 39.8504C75.8186 39.9575 75.8186 40.0646 75.7115 40.2788L73.1412 42.742C73.0341 42.9561 72.927 42.9561 72.8199 42.742C72.3558 42.335 71.8596 41.9744 71.3313 41.6603C70.803 41.339 70.2532 41.0713 69.682 40.8571C69.1037 40.6357 68.5111 40.468 67.9042 40.3537C67.2974 40.2395 66.6869 40.1788 66.0729 40.1717C64.8092 40.086 63.5669 40.2145 62.346 40.5572C61.1251 40.907 60.0006 41.4532 58.9725 42.1958C57.9444 42.9454 57.0733 43.845 56.3593 44.8946C55.6525 45.9441 55.142 47.0829 54.8279 48.3109C54.5851 49.1891 54.4495 50.0851 54.4209 50.999C54.3923 51.9129 54.4709 52.8161 54.6565 53.7085C54.8421 54.601 55.1313 55.4613 55.524 56.2895C55.9095 57.1178 56.3915 57.8853 56.9698 58.5921C57.5481 59.2775 58.1978 59.8808 58.9189 60.402C59.6472 60.9232 60.4254 61.348 61.2536 61.6765C62.089 62.0049 62.9493 62.2262 63.8346 62.3404C64.7271 62.4475 65.616 62.4475 66.5013 62.3404C67.0011 62.319 67.5008 62.2619 68.0006 62.1691C68.4933 62.0691 68.9752 61.9335 69.4464 61.7621C69.9176 61.5908 70.3746 61.3837 70.8172 61.141C71.2528 60.8911 71.6704 60.6126 72.0703 60.3056C73.5696 59.2347 74.5335 57.7353 75.0689 55.8076L75.3902 54.5225C75.3902 54.0941 75.3902 53.987 74.9618 53.987H65.7516C65.5374 53.987 65.4303 53.987 65.4303 53.6657V50.2386C65.4303 50.0245 65.4303 49.9174 65.7516 49.9174H72.4986V49.8103ZM142.968 56.9857V65.1249C142.968 66.8385 142.646 68.552 141.897 70.2655C141.654 70.8367 141.347 71.3722 140.976 71.872C140.611 72.3717 140.19 72.8215 139.712 73.2214C139.241 73.6212 138.727 73.9603 138.17 74.2388C137.62 74.5172 137.042 74.7278 136.435 74.8706C136.063 74.9706 135.685 75.0527 135.3 75.117C134.914 75.1741 134.528 75.2098 134.143 75.224C133.757 75.2455 133.372 75.2455 132.986 75.224C132.594 75.1955 132.208 75.1491 131.83 75.0848C130.116 74.7635 128.617 74.0139 127.332 72.8358C127.096 72.6145 126.871 72.386 126.657 72.1504C126.443 71.9077 126.239 71.6578 126.046 71.4007C125.861 71.1366 125.686 70.8653 125.522 70.5868C125.365 70.3084 125.218 70.0228 125.083 69.73C124.975 69.5159 124.975 69.4088 125.19 69.4088L128.188 68.0165C128.617 67.8023 128.617 67.8023 128.831 68.2307C129.002 68.5877 129.209 68.9197 129.452 69.2267C129.695 69.5408 129.97 69.8229 130.277 70.0727C130.584 70.3226 130.912 70.5368 131.262 70.7153C131.612 70.8938 131.98 71.0295 132.365 71.1223C133.079 71.3508 133.811 71.415 134.561 71.3151C135.303 71.208 135.988 70.9474 136.617 70.5333C137.238 70.112 137.741 69.5801 138.127 68.9375C138.505 68.2878 138.727 67.5881 138.791 66.8385V64.1611L138.577 64.2682C137.827 65.232 136.756 65.7675 135.685 66.0888C134.614 66.4101 133.329 66.5172 132.151 66.303C130.973 66.1031 129.866 65.6997 128.831 65.0928C127.803 64.4788 126.914 63.7041 126.164 62.7688C125.429 61.8264 124.883 60.784 124.526 59.6416C124.176 58.4921 124.04 57.3212 124.119 56.1289C124.169 55.215 124.34 54.3226 124.633 53.4515C124.933 52.5805 125.34 51.7701 125.854 51.0204C126.375 50.2636 126.989 49.5889 127.696 48.9963C128.403 48.4109 129.174 47.9325 130.009 47.5613C132.365 46.4903 134.721 46.4903 137.184 47.6683C137.613 47.9896 138.148 48.3109 138.47 48.7393L138.791 48.9535L138.898 48.6322V47.5613C138.898 47.4542 138.898 47.3471 139.112 47.3471H142.646C142.968 47.3471 142.968 47.5613 142.968 47.6683V57.0928V56.9857ZM128.403 56.5573C128.395 56.8357 128.406 57.1142 128.435 57.3926C128.463 57.6711 128.506 57.946 128.563 58.2173C128.627 58.4886 128.71 58.7527 128.81 59.0098C128.909 59.2739 129.024 59.5274 129.152 59.7702C129.359 60.1628 129.613 60.527 129.913 60.8625C130.22 61.191 130.559 61.4765 130.93 61.7193C131.308 61.962 131.708 62.1548 132.129 62.2976C132.558 62.4404 132.993 62.5261 133.436 62.5546C135.471 62.7688 137.077 61.9121 138.148 60.1985C139.219 58.6992 139.326 56.9857 139.005 55.2721C138.791 53.6657 137.934 52.3806 136.756 51.5238C136.213 51.1668 135.624 50.9169 134.989 50.7741C134.353 50.6385 133.714 50.6206 133.072 50.7206C132.429 50.8205 131.826 51.0312 131.262 51.3524C130.698 51.6737 130.209 52.0878 129.795 52.5947C129.573 52.8732 129.377 53.1695 129.206 53.4836C129.034 53.7978 128.888 54.1226 128.767 54.4582C128.645 54.7938 128.556 55.1401 128.499 55.497C128.435 55.8469 128.403 56.2003 128.403 56.5573ZM112.445 66.4101C111.149 66.4422 109.864 66.2066 108.665 65.7247C107.465 65.2534 106.373 64.5359 105.452 63.6256C104.531 62.7153 103.803 61.6336 103.31 60.4341C102.828 59.2454 102.582 57.9602 102.593 56.6644C102.55 55.3578 102.775 54.0512 103.246 52.8304C103.728 51.6095 104.456 50.4957 105.377 49.5639C106.298 48.6322 107.401 47.8933 108.611 47.4006C109.832 46.908 111.139 46.6724 112.445 46.7045C113.784 46.6617 115.123 46.8866 116.365 47.3899C117.607 47.8825 118.732 48.6322 119.674 49.5961C120.606 50.5492 121.334 51.6951 121.805 52.9482C122.277 54.2012 122.48 55.5399 122.405 56.8786C122.391 58.178 122.127 59.4203 121.613 60.6055C121.099 61.7836 120.36 62.8545 119.428 63.7434C118.507 64.6323 117.404 65.3177 116.204 65.7782C114.991 66.2423 113.738 66.4529 112.445 66.4101ZM118.014 56.5573V55.2721C117.372 53.1302 116.194 51.4167 113.945 50.8812C113.495 50.7313 113.031 50.6456 112.552 50.6242C112.074 50.6028 111.603 50.6492 111.139 50.7634C110.668 50.8776 110.225 51.0526 109.811 51.2882C109.397 51.5309 109.025 51.8237 108.697 52.1664C107.626 53.1302 107.198 54.3083 106.983 55.7005C106.941 55.9861 106.919 56.2753 106.919 56.568C106.912 56.8607 106.926 57.1535 106.962 57.4462C106.998 57.7318 107.055 58.0174 107.133 58.3029C107.205 58.5814 107.298 58.8563 107.412 59.1276C107.74 59.9415 108.233 60.6341 108.89 61.2052C109.543 61.7621 110.314 62.1691 111.149 62.3833C111.985 62.5868 112.863 62.5975 113.698 62.4047C114.548 62.2119 115.308 61.8335 115.979 61.2695C116.329 60.9839 116.64 60.6662 116.911 60.3163C117.19 59.9594 117.422 59.5774 117.607 59.1704C117.793 58.7563 117.929 58.3315 118.014 57.896C118.1 57.4533 118.136 57.0071 118.121 56.5573H118.014ZM91.0262 66.4101C89.7125 66.4386 88.4452 66.2102 87.2243 65.7247C86.0141 65.232 84.911 64.5145 83.99 63.5935C83.069 62.6724 82.3514 61.5694 81.8588 60.3592C81.3733 59.1383 81.1448 57.871 81.1734 56.5573C81.1734 51.0954 85.4572 46.9187 90.812 46.8116C92.1328 46.7616 93.4073 46.9651 94.6353 47.422C95.8562 47.8718 96.97 48.5787 97.9017 49.4783C98.8442 50.3779 99.5938 51.4595 100.108 52.659C100.622 53.8728 100.879 55.1365 100.879 56.4502C100.922 57.7568 100.697 59.0633 100.226 60.2842C99.7438 61.5051 99.0155 62.6189 98.0945 63.5506C97.1735 64.4824 96.0704 65.2213 94.8602 65.714C93.6393 66.2066 92.3327 66.4422 91.0262 66.4101ZM85.4572 56.7715L85.5643 58.1637C86.2069 60.5198 87.7062 62.0192 90.0623 62.4475C92.2042 62.8759 94.3461 61.9121 95.5242 60.0914C95.7812 59.713 95.9918 59.3096 96.1561 58.8813C96.3274 58.4529 96.4488 58.0138 96.5202 57.564C96.5916 57.107 96.6166 56.6501 96.5952 56.1932C96.5737 55.7362 96.5023 55.2864 96.381 54.8438C96.2739 54.3226 96.0918 53.8263 95.8348 53.3551C95.5777 52.891 95.26 52.4734 94.8816 52.1021C94.4961 51.7308 94.0677 51.4238 93.5965 51.1811C93.1181 50.9312 92.6183 50.7598 92.0971 50.667C90.0623 50.2386 88.3488 50.8812 86.9566 52.3806C86.6852 52.6661 86.4496 52.9767 86.2497 53.3123C86.0498 53.6407 85.882 53.9906 85.7464 54.3618C85.6179 54.7331 85.5286 55.1115 85.4786 55.497C85.4286 55.8826 85.4215 56.2717 85.4572 56.6644V56.7715ZM160.96 46.8116C163.316 46.8116 165.136 47.4542 166.743 48.7393C168.028 49.8103 168.885 51.2025 169.527 52.8089L169.956 53.8799C170.063 53.987 169.956 54.0941 169.849 54.2012L166.85 55.4863L160.853 57.9495L157.104 59.4489C156.89 59.4489 156.783 59.6631 156.997 59.8772C157.154 60.1914 157.347 60.4877 157.575 60.7661C157.797 61.0446 158.047 61.2945 158.325 61.5158C158.604 61.7371 158.9 61.9263 159.214 62.0834C159.535 62.2405 159.867 62.3619 160.21 62.4475C160.781 62.5975 161.359 62.6582 161.945 62.6296C162.53 62.5939 163.098 62.4725 163.648 62.2655C164.19 62.0513 164.69 61.7586 165.147 61.3873C165.604 61.016 165.993 60.5841 166.314 60.0914C166.421 59.8772 166.529 59.8772 166.743 60.0914L169.313 61.805C169.849 62.1263 169.849 62.1263 169.42 62.5546C168.621 63.597 167.646 64.4467 166.496 65.1035C165.361 65.7461 164.108 66.1638 162.812 66.3244C161.527 66.485 160.21 66.378 158.946 66.0245C157.693 65.6818 156.526 65.0821 155.498 64.2682C155.255 64.0754 155.023 63.8719 154.802 63.6577C154.587 63.4364 154.384 63.2044 154.191 62.9616C154.006 62.7189 153.834 62.4654 153.677 62.2012C153.513 61.9371 153.37 61.6622 153.249 61.3766C153.042 60.9839 152.86 60.5769 152.703 60.1557C152.545 59.7416 152.417 59.3168 152.317 58.8813C152.217 58.4457 152.149 58.0066 152.114 57.564C152.071 57.1213 152.056 56.6787 152.071 56.236C152.071 53.5586 153.035 51.0954 154.962 49.1677C155.355 48.7964 155.78 48.4644 156.237 48.1717C156.694 47.8718 157.176 47.6219 157.682 47.422C158.189 47.2221 158.707 47.0722 159.235 46.9722C159.771 46.8651 160.31 46.8116 160.853 46.8116H160.96ZM156.247 55.7005V56.0218C156.247 56.3431 156.247 56.3431 156.569 56.236L158.818 55.2721L164.601 53.0231C165.243 52.7018 165.351 52.7018 164.922 52.0593H164.815C164.572 51.7808 164.301 51.5345 164.001 51.3203C163.694 51.1133 163.369 50.949 163.027 50.8277C162.677 50.7063 162.316 50.6313 161.945 50.6028C161.581 50.5742 161.217 50.5956 160.853 50.667C160.239 50.767 159.657 50.9669 159.107 51.2668C158.564 51.5738 158.089 51.9593 157.682 52.4234C157.268 52.8946 156.947 53.4194 156.719 53.9977C156.49 54.5832 156.369 55.1865 156.355 55.8076L156.247 55.7005ZM145.859 51.3096V37.2801C145.859 36.9588 145.859 36.8517 146.288 36.8517H149.822C150.036 36.8517 150.143 36.9588 150.143 37.2801V65.4462C150.143 65.7675 150.143 65.7675 149.822 65.7675H146.18C145.966 65.7675 145.859 65.7675 145.859 65.4462V51.3096ZM56.2201 78.7261V74.121C56.2201 73.7997 56.2201 73.7997 56.5414 73.7997H61.1465C62.5388 73.7997 63.7168 74.5493 64.1452 75.8345C64.6807 77.2267 64.2523 79.0474 62.86 79.6899L62.4317 79.9041C62.2175 79.9041 62.2175 80.1183 62.3246 80.3325L64.2523 83.5454C64.3594 83.7596 64.3594 83.8667 64.1452 83.8667H62.2175C62.0033 83.8667 61.8962 83.7596 61.7891 83.5454L60.0756 80.5467C60.0756 80.3325 59.8614 80.2254 59.6472 80.2254H58.6833C58.4691 80.2254 58.362 80.3325 58.362 80.5467V83.5454C58.362 83.7596 58.362 83.8667 58.0407 83.8667H56.5414C56.3272 83.8667 56.2201 83.7596 56.2201 83.4383V78.8332V78.7261ZM59.7543 75.7274H58.6833C58.4691 75.7274 58.362 75.7274 58.362 75.9416V78.0835C58.362 78.2977 58.362 78.4048 58.5762 78.4048H60.8252C61.5749 78.4048 62.1104 77.7622 62.1104 77.0125C62.1104 76.2629 61.5749 75.7274 60.8252 75.7274H59.7543ZM96.2739 81.1893C96.4881 81.1893 96.4881 80.868 96.5952 80.6538L97.7732 76.7984C97.8803 76.5842 97.9874 76.5842 98.2016 76.5842H99.2725C99.4867 76.5842 99.5938 76.5842 99.5938 76.7984L100.986 80.9751C100.986 80.9751 100.986 81.1893 101.2 81.2964L101.843 79.0474L102.485 76.7984C102.485 76.5842 102.485 76.5842 102.7 76.5842H104.306C104.156 77.1553 104.003 77.7265 103.846 78.2977C103.696 78.8689 103.546 79.44 103.396 80.0112C103.239 80.5824 103.085 81.1536 102.935 81.7248C102.785 82.2959 102.635 82.8671 102.485 83.4383C102.271 83.7596 102.164 83.8667 101.95 83.8667H100.451C100.236 83.8667 100.236 83.7596 100.129 83.5454L98.8442 79.2616L98.7371 79.1545L98.5229 79.2616L97.2377 83.5454C97.2377 83.7596 97.1306 83.8667 96.9164 83.8667C96.7594 83.8452 96.5987 83.8274 96.4345 83.8131C96.2774 83.7917 96.1168 83.7738 95.9526 83.7596C95.7955 83.7381 95.6349 83.7203 95.4706 83.706C95.3136 83.6846 95.1529 83.6667 94.9887 83.6525L93.9178 80.2254L92.8468 76.7984C92.8468 76.5842 92.8468 76.5842 93.1681 76.5842C93.3109 76.6056 93.4537 76.627 93.5965 76.6484C93.7393 76.6627 93.8821 76.6805 94.0249 76.702C94.1677 76.7162 94.3104 76.7341 94.4532 76.7555C94.596 76.7698 94.7388 76.7841 94.8816 76.7984L96.1668 81.1893H96.2739ZM69.8213 80.868H67.3581C67.1439 80.868 67.0368 80.868 67.1439 81.0822C67.2153 81.2821 67.3152 81.4641 67.4437 81.6284C67.5722 81.7997 67.7222 81.9461 67.8935 82.0675C68.0649 82.196 68.2505 82.2924 68.4504 82.3566C68.6503 82.428 68.8574 82.4673 69.0716 82.4744C69.7142 82.4744 70.3567 82.3673 70.8922 81.9389C71.1064 81.8318 71.2135 81.8318 71.3206 81.9389L71.8561 82.7957C71.9632 83.0099 71.8561 83.117 71.8561 83.2241C71.699 83.3312 71.5348 83.4276 71.3634 83.5132C71.1921 83.6061 71.0172 83.681 70.8387 83.7381C70.653 83.8024 70.4674 83.856 70.2818 83.8988C70.0961 83.9345 69.9069 83.9595 69.7142 83.9738C68.3219 84.188 67.0368 83.9738 66.0729 82.9028C65.2161 82.046 65.002 80.868 65.002 79.6899C65.2161 78.2977 65.9658 77.2267 67.251 76.5842C69.3929 75.7274 72.0703 76.6913 72.4986 79.5828V80.4396C72.4986 80.6538 72.4986 80.7609 72.1774 80.7609H69.8213V80.868ZM68.7503 79.4757H70.0354C70.678 79.4757 70.7851 79.4757 70.4638 78.7261C70.0354 77.8693 69.1787 77.6551 68.3219 77.8693C67.6793 78.0835 67.251 78.5119 67.1439 79.0474C67.0368 79.3686 67.1439 79.4757 67.3581 79.4757H68.8574H68.7503ZM88.563 84.0809C88.206 84.0951 87.8597 84.0523 87.5242 83.9523C87.1814 83.8595 86.8637 83.7096 86.571 83.5025C86.2854 83.3026 86.0355 83.0599 85.8213 82.7743C85.6143 82.4816 85.4572 82.1674 85.3501 81.8318C84.4934 79.797 85.1359 77.548 87.1707 76.5842C89.2056 75.7274 91.6688 76.5842 92.2042 79.0474L92.4184 80.4396C92.4184 80.6538 92.3113 80.7609 92.0971 80.7609H87.3849C86.9566 80.7609 86.9565 80.7609 87.0636 81.1893C87.3849 82.046 88.1346 82.4744 88.8843 82.4744C89.6339 82.4744 90.2765 82.3673 90.812 81.9389H91.1333L91.7759 82.7957L91.6688 83.2241C90.9191 83.7596 89.9552 84.0809 88.4559 84.0809H88.563ZM88.6701 79.4757H90.2765C90.4907 79.4757 90.5978 79.3686 90.4907 79.1545C90.4907 78.8332 90.2765 78.619 90.0623 78.4048C89.6339 77.8693 88.9914 77.7622 88.3488 77.8693C87.7062 77.8693 87.0636 78.5119 86.9566 79.1545C86.9566 79.3686 86.9565 79.4757 87.2778 79.4757H88.563H88.6701ZM108.054 76.2629C109.125 76.2629 110.089 76.5842 110.839 77.1196C111.053 77.2267 111.16 77.4409 110.946 77.548L110.518 78.4048C110.41 78.619 110.303 78.619 110.196 78.4048C109.554 77.9764 108.911 77.7622 108.054 77.7622C107.84 77.7622 107.519 77.7622 107.305 77.9764C107.091 78.1906 106.983 78.2977 106.983 78.5119C106.983 78.8332 107.198 78.9403 107.412 78.9403L108.376 79.2616C108.911 79.2616 109.447 79.4757 109.982 79.6899C110.182 79.7613 110.364 79.8613 110.528 79.9898C110.7 80.1183 110.846 80.2682 110.967 80.4396C111.096 80.611 111.192 80.7966 111.257 80.9965C111.328 81.1964 111.367 81.4035 111.374 81.6177C111.374 82.6886 110.946 83.3312 110.089 83.7596C109.904 83.8381 109.714 83.9059 109.522 83.963C109.329 84.0202 109.132 84.063 108.933 84.0916C108.733 84.113 108.533 84.1237 108.333 84.1237C108.133 84.1237 107.933 84.1094 107.733 84.0809C106.876 84.0809 106.02 83.7596 105.163 83.2241C104.949 83.0099 104.842 82.9028 105.163 82.5815L105.591 81.8318C105.591 81.6177 105.805 81.6177 105.912 81.8318C106.07 81.9389 106.234 82.0353 106.405 82.121C106.576 82.2138 106.751 82.2888 106.93 82.3459C107.116 82.4102 107.301 82.4637 107.487 82.5065C107.672 82.5422 107.862 82.5672 108.054 82.5815C108.483 82.5815 108.804 82.5815 109.125 82.3673C109.447 82.2602 109.554 82.046 109.554 81.8318C109.554 81.5106 109.34 81.4035 109.125 81.2964L107.626 80.868L106.341 80.5467C106.177 80.4682 106.027 80.3682 105.891 80.2468C105.755 80.1255 105.634 79.9898 105.527 79.8399C105.427 79.6899 105.345 79.5293 105.281 79.3579C105.216 79.1866 105.177 79.0117 105.163 78.8332C105.149 78.6333 105.159 78.4333 105.195 78.2334C105.238 78.0335 105.306 77.8408 105.398 77.6551C105.498 77.4766 105.616 77.316 105.752 77.1732C105.895 77.0233 106.055 76.8983 106.234 76.7984C106.769 76.4771 107.519 76.2629 108.054 76.37V76.2629Z" fill="#FEFEFE"/>
<path d="M116.408 83.4383L116.622 81.2964L116.515 80.761L115.015 79.2616C115.015 79.2616 114.801 79.1545 114.908 78.9403H115.123C115.337 78.8761 115.551 78.8118 115.765 78.7476C115.979 78.6904 116.194 78.6297 116.408 78.5655C116.622 78.5012 116.836 78.437 117.05 78.3727C117.265 78.3156 117.479 78.2549 117.693 78.1907L118.764 76.2629L118.871 76.0487L119.085 76.2629L120.156 78.0836C120.156 78.2978 120.37 78.4048 120.584 78.5119L122.726 78.8332L122.941 78.9403C122.941 79.0474 122.941 79.1545 122.726 79.2616C122.591 79.4401 122.459 79.6186 122.33 79.7971C122.194 79.9756 122.059 80.1541 121.923 80.3326C121.795 80.5111 121.663 80.6896 121.527 80.868C121.391 81.0465 121.256 81.225 121.12 81.4035L121.441 83.5454C121.441 83.7596 121.441 83.8667 121.227 83.7596L119.192 82.6887C119.142 82.6601 119.092 82.6387 119.042 82.6244C118.985 82.6101 118.928 82.603 118.871 82.603C118.814 82.603 118.757 82.6101 118.7 82.6244C118.65 82.6387 118.6 82.6601 118.55 82.6887L116.622 83.7596C116.408 83.7596 116.301 83.7596 116.408 83.4383ZM126.046 83.4383L126.368 81.2964C126.368 81.0822 126.368 80.9751 126.153 80.761L124.654 79.1545C124.654 79.1545 124.547 79.1545 124.654 78.9403H124.761L126.903 78.5119C127.117 78.5119 127.224 78.2978 127.331 78.1907L128.402 76.2629C128.402 76.1558 128.402 76.0487 128.617 76.0487L128.724 76.2629L129.795 78.0836L130.223 78.5119C130.973 78.5119 131.615 78.7261 132.365 78.8332L132.579 78.9403L132.472 79.2616L130.973 80.761C130.866 80.9751 130.759 81.0822 130.866 81.2964L131.08 83.4383C131.08 83.8667 131.08 83.8667 130.759 83.6525L128.938 82.7958C128.888 82.7672 128.838 82.7458 128.788 82.7315C128.731 82.7172 128.674 82.7101 128.617 82.7101C128.56 82.7101 128.502 82.7172 128.445 82.7315C128.395 82.7458 128.345 82.7672 128.295 82.7958L126.368 83.6525C126.153 83.7596 125.939 83.8667 126.046 83.4383ZM135.685 83.4383C135.899 82.7958 135.899 82.0461 136.006 81.2964L135.899 80.761L134.4 79.1545C134.4 79.1545 134.186 79.1545 134.293 78.9403H134.507L136.649 78.5119C136.863 78.5119 136.97 78.2978 137.077 78.1907L138.148 76.2629L138.255 76.0487C138.469 76.0487 138.469 76.1558 138.469 76.2629L139.54 78.0836C139.54 78.2978 139.755 78.4048 139.969 78.5119L142.111 78.8332L142.325 78.9403L142.218 79.2616L140.718 80.761C140.504 80.9751 140.504 81.0822 140.504 81.2964L140.826 83.4383C140.826 83.8667 140.826 83.8667 140.504 83.6525L138.577 82.7958C138.527 82.7672 138.477 82.7458 138.427 82.7315C138.369 82.7172 138.312 82.7101 138.255 82.7101C138.198 82.7101 138.141 82.7172 138.084 82.7315C138.034 82.7458 137.984 82.7672 137.934 82.7958L136.006 83.6525C135.792 83.7596 135.685 83.7596 135.792 83.4383H135.685ZM150.464 83.8667L148.322 82.7958C148.272 82.7672 148.222 82.7458 148.172 82.7315C148.115 82.7172 148.058 82.7101 148.001 82.7101C147.944 82.7101 147.887 82.7172 147.83 82.7315C147.78 82.7458 147.73 82.7672 147.68 82.7958L145.752 83.6525C145.431 83.8667 145.431 83.7596 145.431 83.5454C145.445 83.3241 145.459 83.0992 145.473 82.8707C145.488 82.6494 145.506 82.4281 145.527 82.2067C145.541 81.9854 145.559 81.7605 145.581 81.532C145.602 81.3107 145.623 81.0894 145.645 80.868L144.038 79.1545C144.038 79.1545 143.931 79.1545 144.038 79.0474L144.146 78.8332C144.895 78.8332 145.645 78.619 146.287 78.5119C146.409 78.3263 146.534 78.1371 146.662 77.9443C146.784 77.7587 146.909 77.5731 147.037 77.3874C147.158 77.1947 147.283 77.0055 147.412 76.8198C147.533 76.6342 147.658 76.4486 147.787 76.2629C148.001 75.9417 148.001 75.9417 148.108 76.2629L149.179 78.1907L149.607 78.5119C150.357 78.5119 151 78.7261 151.749 78.8332L151.963 78.9403V79.2616L150.357 80.761L150.25 81.2964L150.464 83.4383V83.8667ZM160.21 83.7596L158.068 82.7958C158.011 82.7601 157.95 82.7315 157.886 82.7101C157.822 82.6887 157.757 82.678 157.693 82.678C157.629 82.678 157.565 82.6887 157.5 82.7101C157.436 82.7315 157.375 82.7601 157.318 82.7958L155.498 83.6525C155.176 83.8667 155.069 83.7596 155.176 83.4383C155.183 83.2242 155.191 83.01 155.198 82.7958C155.205 82.5816 155.212 82.3674 155.219 82.1532C155.226 81.939 155.237 81.7248 155.251 81.5106C155.258 81.2964 155.269 81.0822 155.283 80.868L153.891 79.1545L153.784 79.0474C153.784 78.8332 153.891 78.8332 153.998 78.8332C154.748 78.8332 155.391 78.619 156.14 78.5119C156.354 78.5119 156.461 78.2978 156.569 78.1907L157.64 76.2629C157.747 75.9417 157.854 75.9417 157.961 76.2629L159.032 78.1907L159.46 78.5119L161.602 78.8332L161.816 78.9403L161.709 79.2616L160.21 80.761L159.996 81.2964L160.317 83.4383V83.8667L160.21 83.7596Z" fill="#F15D26"/>
<path d="M76.7824 83.8668H76.247C75.9257 83.8668 75.7115 83.7597 75.6044 83.4384L72.927 76.9056C72.927 76.6914 72.927 76.5843 73.1412 76.5843H74.6405C74.8547 76.5843 74.9618 76.5843 75.0689 76.7985L76.6753 81.1894L76.7824 81.4036C76.9966 81.4036 76.8895 81.2965 76.9966 81.1894C77.1608 80.8039 77.3215 80.4219 77.4786 80.0435C77.6428 79.6579 77.807 79.2724 77.9712 78.8868C78.1283 78.5013 78.2854 78.1193 78.4424 77.7409C78.6066 77.3554 78.7673 76.9698 78.9244 76.5843H80.4237C80.6379 76.5843 80.745 76.5843 80.6379 76.7985L78.7102 81.5107L77.9605 83.4384C77.8534 83.7597 77.7463 83.8668 77.425 83.8668H76.7824ZM81.7088 80.1184V76.9056C81.7088 76.5843 81.7088 76.5843 81.923 76.5843H83.3153C83.5295 76.5843 83.6366 76.5843 83.6366 76.7985C83.6151 77.3839 83.5973 77.973 83.583 78.5656C83.5616 79.151 83.5437 79.74 83.5295 80.3326C83.508 80.9181 83.4902 81.5071 83.4759 82.0997C83.4545 82.6852 83.4367 83.2742 83.4224 83.8668H81.923C81.7088 83.8668 81.7088 83.7597 81.7088 83.5455V80.1184ZM83.7437 74.5495C83.7437 75.192 83.2082 75.6204 82.6727 75.6204C82.5156 75.649 82.3586 75.6454 82.2015 75.6097C82.0373 75.5669 81.8945 75.4955 81.7731 75.3955C81.6517 75.2884 81.5553 75.1635 81.4839 75.0207C81.4197 74.8708 81.3876 74.7137 81.3876 74.5495C81.3876 73.9069 81.923 73.4785 82.5656 73.4785C83.2082 73.4785 83.6366 73.9069 83.6366 74.5495H83.7437Z" fill="#FEFEFE"/>
</svg>
