<svg width="220" height="120" viewBox="0 0 220 120" fill="none" xmlns="http://www.w3.org/2000/svg">
<rect width="220" height="120" fill="#FEFEFE" fill-opacity="0.05"/>
<path d="M89.9481 55.1177C89.9481 55.1177 86.7883 50.9047 88.3682 47.0076C85.8404 48.1662 80.6794 48.0609 79.9421 45.533C78.2569 47.0076 78.2569 49.8514 75.2025 49.9567C75.4131 46.481 78.3623 40.4774 78.3623 40.4774C78.3623 40.4774 71.4107 38.8975 69.9362 34.1578V33.9471V34.0524L69.8308 33.8418V34.3684C68.2509 39.1081 61.4047 40.5827 61.4047 40.5827C61.4047 40.5827 64.2485 46.5863 64.5645 50.0621C61.4047 50.0621 61.4047 47.1129 59.8248 45.6384C58.9822 48.1662 53.9266 48.3768 51.3987 47.1129C52.9786 51.1153 49.8188 55.2231 49.8188 55.2231C49.8188 55.2231 58.5609 59.0148 51.6094 67.7569H51.7147C59.4036 61.332 69.9362 50.1674 69.9362 50.1674L70.0415 50.0621L75.8344 55.9603V54.5911H77.941V58.1722C78.7836 59.0148 79.6332 59.8539 80.4898 60.6895C81.3395 61.5181 82.1996 62.3396 83.0703 63.1541C83.941 63.9757 84.8188 64.7867 85.7035 65.5872C86.5812 66.3877 87.4695 67.1811 88.3682 67.9675H88.4736C81.1007 59.0148 90.0535 55.2231 90.0535 55.2231L89.9481 55.1177Z" fill="#FEFEFE"/>
<path d="M66.0393 60.8048H69.1991V57.645H66.0393V60.8048ZM66.0393 65.3338H69.1991V62.1741H66.0393V65.3338ZM70.463 65.3338H73.6228V62.1741H70.463V65.3338ZM70.463 60.8048H73.6228V57.645H70.463V60.8048Z" fill="#FEFEFE"/>
<path d="M88.474 37.2119L87.4207 36.1586C85.1035 33.8731 82.3651 32.0614 79.3633 30.8291C76.3509 29.5968 73.1385 28.9648 69.8839 28.9648C66.6293 28.9648 63.4169 29.5968 60.4046 30.8291C57.4028 32.0614 54.6643 33.8731 52.3471 36.1586L51.1885 37.2119C41.6038 46.7966 41.6038 62.4902 51.1885 72.1803L52.2418 73.2335C61.9318 82.8182 70.0419 90.5071 70.1472 90.2964L88.158 72.3909L88.474 72.0749C98.0587 62.5956 98.0587 46.7966 88.474 37.2119ZM86.2621 71.127L85.7355 71.5483C77.836 71.5483 69.9366 75.5507 62.0371 76.4986C60.3519 75.8667 58.6666 75.0241 57.0868 74.0761C62.1424 74.4974 67.1981 73.0229 72.3591 71.5483C77.6254 70.0737 82.8917 68.5992 88.0527 69.1258C87.5261 69.7578 86.9994 70.495 86.2621 71.127ZM64.8809 77.3413C71.3058 75.972 77.7307 73.3389 84.2609 72.9175C82.8987 73.9568 81.4417 74.8415 79.8899 75.5718C78.3381 76.302 76.7266 76.8568 75.0554 77.2359C73.3842 77.6221 71.6885 77.8223 69.9682 77.8363C68.2549 77.8503 66.5591 77.6853 64.8809 77.3413ZM90.3698 65.65C90.2575 65.8396 90.1416 66.0292 90.0223 66.2188C89.9099 66.4084 89.7906 66.5945 89.6642 66.777C89.5448 66.9596 89.4184 67.1422 89.285 67.3247C89.1586 67.5073 89.0287 67.6863 88.8953 67.8619C87.498 67.7566 86.0971 67.725 84.6928 67.7671C83.2884 67.8092 81.8911 67.9286 80.5008 68.1252C79.1105 68.3218 77.7342 68.5921 76.372 68.9362C75.0098 69.2733 73.6721 69.6875 72.3591 70.1791C66.5661 71.759 60.7732 73.4442 54.9802 72.3909C54.7204 72.1803 54.4642 71.9626 54.2114 71.7379C53.9586 71.5132 53.7163 71.2815 53.4846 71.0427C53.2459 70.811 53.0142 70.5688 52.7895 70.316C52.5648 70.0632 52.3471 69.8069 52.1364 69.5471L51.5045 68.8098C51.5045 68.8098 59.9306 71.3377 62.6691 70.2844C58.456 70.811 53.611 68.5992 50.2406 67.0193C45.8906 60.1099 45.5009 51.4099 49.2189 44.1424C52.9369 36.8643 60.2044 32.0825 68.3567 31.5559C76.5089 31.0292 84.3347 34.8315 88.9585 41.5619C93.5823 48.3028 94.3196 56.9711 90.8965 64.3861L90.3698 65.4394V65.65Z" fill="#FEFEFE"/>
<path d="M168.522 50.4355V78.4998L167.89 78.2895C150.195 74.3924 135.449 72.4963 121.757 72.4963C110.276 72.4963 98.0583 73.7606 84.05 76.6044L85.4197 75.1296C88.4109 74.5398 91.413 74.0202 94.4253 73.5708C97.4445 73.1144 100.471 72.7346 103.504 72.4327C106.537 72.1238 109.574 71.8855 112.615 71.7169C115.662 71.5554 118.709 71.4641 121.757 71.443C125.591 71.4851 129.425 71.6361 133.258 71.8959C137.085 72.1487 140.905 72.5101 144.718 72.9806C148.524 73.444 152.316 74.0128 156.093 74.6869C159.871 75.361 163.628 76.1403 167.363 77.025V49.8172L168.522 50.4355ZM121.757 35.2109C125.661 35.2741 129.558 35.4425 133.448 35.7164C137.338 35.9973 141.221 36.3833 145.097 36.8749C148.85 37.3516 152.586 37.9318 156.306 38.6134L155.032 38.8263L155.818 39.7108C143.317 37.4355 132.317 36.3694 121.757 36.3694C111.962 36.3694 101.85 37.317 90.2647 39.3181C90.054 38.8969 89.7376 38.5815 89.4217 38.3708C101.218 36.2643 111.751 35.211 121.757 35.2109Z" fill="#FEFEFE"/>
<path fill-rule="evenodd" clip-rule="evenodd" d="M176 39.4238L174.736 39.1079L169.47 38.1599L166.942 33.2096L166.31 31.8403L165.678 33.2096L163.256 38.1599L157.989 39.2132L156.725 39.4238L157.568 40.3718L161.36 44.3742L160.517 50.0618L160.412 51.431L161.57 50.7991L166.31 48.2712L171.05 50.7991L172.314 51.431L172.103 50.0618L171.366 44.3742L175.052 40.3718L176 39.3185V39.4238Z" fill="#F15D26"/>
<path d="M106.274 50.3774C106.484 50.3001 106.678 50.1913 106.853 50.0509C107.029 49.9034 107.18 49.7384 107.306 49.5558C107.432 49.3592 107.524 49.1521 107.58 48.9344C107.636 48.7167 107.657 48.4956 107.643 48.2709C107.643 46.059 105.537 45.9537 104.378 45.9537L102.061 46.059V54.3798H103.957V51.0093H104.378C105.01 51.0093 105.326 51.22 105.431 52.2733L105.958 54.2745H108.064C107.854 53.9585 107.538 52.7999 107.327 51.852C107.116 51.1147 106.906 50.588 106.274 50.3774ZM103.957 49.6401V47.4282H104.589C105.01 47.4282 105.747 47.5336 105.747 48.4815C105.747 49.2188 105.326 49.6401 104.483 49.6401H103.957ZM113.752 50.6934C113.752 49.4294 113.225 48.1655 111.224 48.1655C110.171 48.1655 109.434 48.3762 109.012 48.6922L109.328 49.8508C109.75 49.6401 110.382 49.4294 110.908 49.4294C111.645 49.4294 111.856 49.7454 111.856 50.2721C110.066 50.2721 108.591 51.0093 108.591 52.5892C108.591 53.6425 109.328 54.4851 110.382 54.4851C111.013 54.4851 111.645 54.2745 111.961 53.7478L112.172 54.3798H113.857L113.752 52.9052V50.7987V50.6934ZM111.856 52.2733C111.856 52.7999 111.435 53.1159 111.119 53.1159C110.698 53.1159 110.487 52.9052 110.487 52.3786C110.487 51.7466 111.119 51.4306 111.961 51.4306V52.2733H111.856ZM115.437 48.2709H114.7V49.6401H115.437V52.0626C115.437 52.7999 115.437 54.3798 117.333 54.3798L118.597 54.2745V52.7999H118.07C117.649 52.7999 117.333 52.5892 117.333 51.852V49.5348H118.597V48.1655H117.333V46.4803L115.437 47.0069V48.1655V48.2709ZM124.179 52.7999L122.705 53.0105C121.967 53.0105 121.335 52.6946 121.23 51.9573H124.706V51.22C124.706 49.1135 123.653 48.0602 122.283 48.0602C120.388 48.0602 119.334 49.6401 119.334 51.4306C119.334 53.3265 120.388 54.4851 122.494 54.4851C123.126 54.4851 123.863 54.3798 124.495 54.1691L124.179 52.7999ZM121.23 50.6934C121.23 50.1667 121.546 49.4294 122.178 49.4294C122.81 49.4294 123.021 50.1667 123.021 50.6934H121.23ZM131.341 45.6377H129.446V48.7975C129.13 48.3762 128.708 48.1655 128.076 48.1655C126.812 48.1655 125.654 49.2188 125.654 51.3253C125.654 53.1159 126.496 54.4851 127.971 54.4851C128.603 54.4851 129.235 54.1691 129.551 53.5372L129.656 54.3798H131.341V45.6377ZM129.446 51.9573C129.446 52.6946 128.919 53.0105 128.603 53.0105C127.971 53.0105 127.55 52.3786 127.55 51.3253C127.55 50.3774 127.866 49.6401 128.603 49.6401C128.919 49.6401 129.34 49.8508 129.34 50.6934V51.852L129.446 51.9573ZM139.768 50.7987C139.768 49.4294 139.241 48.1655 137.24 48.1655C136.186 48.1655 135.344 48.3762 135.028 48.6922L135.344 49.8508C135.765 49.6401 136.292 49.4294 136.818 49.4294C137.661 49.4294 137.872 49.7454 137.872 50.2721C135.976 50.2721 134.607 51.0093 134.607 52.5892C134.607 53.6425 135.238 54.4851 136.397 54.4851C137.029 54.4851 137.661 54.2745 137.977 53.7478L138.082 54.3798H139.873L139.768 52.9052V50.7987ZM137.872 52.2733C137.872 52.7999 137.45 53.1159 137.029 53.1159C136.713 53.1159 136.397 52.9052 136.397 52.3786C136.397 51.7466 137.134 51.4306 137.872 51.4306V52.2733ZM146.614 50.6934C146.614 49.0081 145.876 48.1655 144.613 48.1655C144.451 48.1655 144.29 48.1831 144.128 48.2182C143.967 48.2603 143.816 48.3165 143.675 48.3867C143.528 48.464 143.391 48.5517 143.264 48.65C143.138 48.7554 143.026 48.8747 142.927 49.0081L142.822 48.2709H141.137V54.3798H143.138V50.7987C143.138 49.9561 143.559 49.7454 143.981 49.7454C144.507 49.7454 144.718 50.1667 144.718 50.7987V54.3798H146.614V50.588V50.6934ZM153.46 45.6377H151.459V48.7975C151.248 48.3762 150.827 48.1655 150.089 48.1655C148.826 48.1655 147.772 49.2188 147.772 51.3253C147.772 53.1159 148.615 54.4851 150.089 54.4851C150.721 54.4851 151.353 54.1691 151.669 53.5372L151.775 54.3798H153.46V45.6377ZM151.459 51.9573C151.459 52.6946 151.037 53.0105 150.616 53.0105C150.089 53.0105 149.563 52.3786 149.563 51.3253C149.563 50.4827 149.984 49.6401 150.616 49.6401C150.932 49.6401 151.459 49.9561 151.459 50.6934V51.852V51.9573ZM102.271 62.5952C102.903 62.3846 103.325 61.858 103.325 61.1207C103.325 59.3301 101.745 59.2248 100.902 59.2248C100.762 59.2318 100.621 59.2388 100.481 59.2459C100.34 59.2599 100.2 59.274 100.06 59.288C99.9191 59.3091 99.7787 59.3301 99.6383 59.3512C99.4978 59.3793 99.3574 59.4074 99.2169 59.4355V65.755H100.586V63.2272H100.902C101.323 63.2272 101.534 63.4379 101.745 64.2805L102.061 65.755H103.535L103.114 63.9645C103.009 63.3325 102.693 62.9112 102.271 62.8059V62.5952ZM100.586 62.0686V60.4887H101.113C101.429 60.4887 101.955 60.594 101.955 61.3313C101.955 61.858 101.534 62.1739 100.902 62.1739H100.586V62.0686ZM107.643 64.3858L106.59 64.5964C105.958 64.5964 105.537 64.3858 105.537 63.8592H108.064V63.2272C108.064 61.6473 107.327 60.91 106.274 60.91C104.799 60.91 104.167 62.0686 104.167 63.4379C104.167 64.8071 104.905 65.6497 106.274 65.6497C106.906 65.6497 107.432 65.6497 107.854 65.4391L107.643 64.3858ZM105.537 62.8059C105.537 62.4899 105.642 61.858 106.168 61.858C106.695 61.858 106.8 62.3846 106.8 62.9112H105.431L105.537 62.8059ZM111.856 64.3858L111.224 64.5964C110.698 64.5964 110.171 64.0698 110.171 63.3325C110.171 62.5952 110.592 62.0686 111.224 62.0686L111.856 62.1739L112.067 61.1207C111.99 61.0926 111.912 61.0645 111.835 61.0364C111.758 61.0154 111.681 60.9978 111.603 60.9838C111.519 60.9627 111.438 60.9451 111.361 60.9311C111.284 60.9241 111.203 60.917 111.119 60.91C109.644 60.91 108.696 61.9633 108.696 63.3325C108.696 64.8071 109.644 65.6497 111.013 65.6497L112.067 65.5444L111.856 64.4911V64.3858ZM114.805 60.91C113.541 60.91 112.593 61.858 112.593 63.3325C112.593 64.9124 113.436 65.6497 114.7 65.6497C115.753 65.6497 116.806 65.1231 116.806 63.3325C116.806 61.858 116.069 60.91 114.7 60.91H114.805ZM115.437 63.3325C115.437 64.0698 115.227 64.7018 114.7 64.7018C114.279 64.7018 114.068 64.0698 114.068 63.3325C114.068 62.7006 114.173 61.9633 114.7 61.9633C115.227 61.9633 115.437 62.5952 115.437 63.3325ZM124.179 62.8059C124.179 61.6473 123.653 60.91 122.81 60.91C122.073 60.91 121.757 61.3313 121.441 61.6473C121.335 61.226 120.914 60.91 120.388 60.91C119.65 60.91 119.334 61.3313 119.124 61.542L119.018 61.0154H117.754V65.755H119.229V62.9112C119.229 62.3846 119.545 62.1739 119.756 62.1739C120.177 62.1739 120.282 62.5952 120.282 63.0166V65.755H121.757V63.0166C121.757 62.5952 121.967 62.2793 122.283 62.2793C122.705 62.2793 122.81 62.7006 122.81 63.3325V65.755H124.179V63.0166V62.8059ZM131.657 62.8059C131.657 61.6473 131.131 60.91 130.288 60.91C129.551 60.91 129.235 61.3313 128.919 61.6473C128.814 61.226 128.392 60.91 127.866 60.91C127.128 60.91 126.812 61.3313 126.496 61.542V61.0154H125.233V65.755H126.707V62.9112C126.707 62.3846 127.023 62.1739 127.234 62.1739C127.655 62.1739 127.76 62.5952 127.76 63.0166V65.755H129.235V63.0166C129.235 62.5952 129.446 62.2793 129.762 62.2793C130.183 62.2793 130.288 62.7006 130.288 63.3325V65.755H131.657V63.0166V62.8059ZM136.081 64.4911L135.028 64.5964C134.396 64.5964 133.975 64.3858 133.975 63.8592H136.502V63.2272C136.502 61.6473 135.765 60.91 134.607 60.91C133.237 60.91 132.5 62.0686 132.5 63.4379C132.5 64.8071 133.343 65.755 134.712 65.755C135.344 65.755 135.765 65.6497 136.292 65.4391L136.081 64.3858V64.4911ZM133.869 62.8059C133.869 62.4899 134.08 61.9633 134.607 61.9633C135.028 61.9633 135.239 62.4899 135.239 62.8059H133.869ZM141.347 62.8059C141.347 61.6473 140.821 60.91 139.873 60.91C139.241 60.91 138.82 61.3313 138.609 61.6473V61.0154H137.345V65.755H138.82V63.0166C138.82 62.4899 139.136 62.2793 139.452 62.2793C139.768 62.2793 139.978 62.5952 139.978 63.1219V65.755H141.347V63.0166V62.8059ZM146.508 59.0141H145.034V61.542C144.929 61.226 144.507 61.0154 143.981 61.0154C143.138 61.0154 142.295 61.858 142.295 63.4379C142.295 64.8071 142.927 65.8604 143.981 65.8604C144.507 65.8604 145.034 65.5444 145.244 65.1231V65.755H146.508V59.1195V59.0141ZM145.034 63.7538C145.034 64.3858 144.718 64.5964 144.402 64.5964C143.981 64.5964 143.665 64.1751 143.665 63.3325C143.665 62.7006 143.981 62.0686 144.402 62.0686C144.718 62.0686 145.034 62.2793 145.034 62.9112V63.7538ZM150.932 64.4911L149.879 64.5964C149.247 64.5964 148.826 64.3858 148.826 63.8592H151.353V63.2272C151.353 61.6473 150.616 60.91 149.458 60.91C148.088 60.91 147.351 62.0686 147.351 63.4379C147.351 64.8071 148.194 65.755 149.563 65.755C150.195 65.755 150.616 65.6497 151.143 65.4391L150.932 64.3858V64.4911ZM148.72 62.8059C148.72 62.4899 148.931 61.9633 149.458 61.9633C149.879 61.9633 150.089 62.4899 150.089 62.8059H148.72ZM156.304 59.0141H154.829V61.542C154.618 61.226 154.303 61.0154 153.776 61.0154C152.828 61.0154 151.985 61.858 151.985 63.4379C151.985 64.8071 152.723 65.8604 153.776 65.8604C154.197 65.8604 154.724 65.5444 154.935 65.1231L155.04 65.755H156.304V59.1195V59.0141ZM154.829 63.7538C154.829 64.3858 154.513 64.5964 154.197 64.5964C153.776 64.5964 153.46 64.1751 153.46 63.3325C153.46 62.7006 153.671 62.0686 154.197 62.0686C154.513 62.0686 154.829 62.2793 154.829 62.9112V63.7538ZM88.4737 84.7138V90.8227H86.0512V84.7138H84.366V82.8179H90.1589V84.7138H88.4737ZM98.1637 90.8227H95.2146L94.056 87.6629H93.3187V90.8227H90.7908V82.7126H95.0039C96.0571 82.7126 96.6891 82.9232 97.2157 83.3446C97.7424 83.7659 98.0584 84.3978 98.0584 85.1351L97.7424 86.399C97.5317 86.715 97.2157 87.031 96.5838 87.347L98.0584 90.928L98.1637 90.8227ZM93.3187 85.9777H94.372C94.7933 85.9777 95.0039 85.9777 95.2146 85.7671C95.4252 85.6617 95.5305 85.4511 95.5305 85.2404C95.5305 84.7138 95.2145 84.3978 94.4773 84.3978H93.424V85.9777H93.3187ZM105.958 82.7126V88.0842C105.958 89.1375 105.747 89.8748 105.115 90.2961C104.75 90.5348 104.357 90.7174 103.936 90.8438C103.514 90.9702 103.082 91.0334 102.64 91.0334C102.198 91.0334 101.766 90.9702 101.345 90.8438C100.923 90.7174 100.53 90.5348 100.165 90.2961C99.5329 89.8748 99.2169 89.2428 99.2169 88.1896V82.6073H101.85V87.8736C101.85 88.2949 101.85 88.6109 102.061 88.8215L102.903 89.0322C103.219 89.0322 103.43 89.0322 103.641 88.8215C103.851 88.7162 103.957 88.5055 103.957 88.4002V82.6073H106.063L105.958 82.7126ZM106.484 88.5055L108.802 88.0842C109.012 88.7162 109.539 89.1375 110.382 89.1375C111.013 89.1375 111.329 88.9268 111.329 88.5055C111.329 88.4002 111.329 88.1896 111.119 88.1896L110.276 87.8736C108.802 87.6629 107.959 87.2416 107.538 86.8203C107.32 86.5746 107.162 86.2937 107.064 85.9777C106.965 85.6617 106.93 85.3422 106.958 85.0192C106.987 84.6892 107.078 84.3803 107.232 84.0924C107.387 83.7975 107.594 83.5482 107.854 83.3446C108.38 82.8179 109.223 82.5019 110.276 82.5019C111.961 82.5019 113.12 83.2392 113.647 84.6085L111.54 85.1351C111.329 84.6085 110.908 84.3978 110.276 84.3978C109.644 84.3978 109.434 84.5031 109.434 84.8191L109.539 85.2404L110.276 85.4511L112.383 85.9777C112.593 86.062 112.79 86.1743 112.973 86.3148C113.155 86.4552 113.31 86.6202 113.436 86.8098C113.569 86.9994 113.671 87.1995 113.741 87.4101C113.812 87.6278 113.85 87.8525 113.857 88.0842C113.857 89.0322 113.541 89.6641 112.804 90.1908C112.614 90.3312 112.414 90.4541 112.204 90.5594C112 90.6718 111.786 90.763 111.561 90.8333C111.336 90.9035 111.108 90.9561 110.877 90.9912C110.638 91.0264 110.403 91.0404 110.171 91.0334C108.17 91.0334 107.011 90.1908 106.484 88.5055ZM118.281 84.6085V90.928H115.964V84.6085H114.173V82.7126H119.966V84.6085H118.386H118.281ZM126.918 88.8215V90.928H120.704V82.6073H127.023V84.5031H123.231V85.5564H126.18V87.4523H123.231V88.9268H126.918V88.8215ZM127.971 90.928V82.6073H131.131C132.5 82.6073 133.553 82.9232 134.291 83.7659C134.452 83.9625 134.596 84.1731 134.722 84.3978C134.842 84.6225 134.944 84.8577 135.028 85.1035C135.105 85.3422 135.161 85.588 135.196 85.8408C135.239 86.1006 135.253 86.3569 135.239 86.6097C135.239 87.8736 134.817 88.8215 134.185 89.5588C133.343 90.4014 132.395 90.7174 131.236 90.7174H127.866L127.971 90.928ZM130.499 89.0322H131.131C131.552 89.0322 131.868 88.8215 132.184 88.4002C132.5 87.9789 132.605 87.347 132.605 86.715C132.605 86.083 132.5 85.6617 132.184 85.1351C131.973 84.7138 131.552 84.5031 131.131 84.5031H130.499V89.0322ZM139.136 87.9789V90.928H136.502V88.5055L138.082 87.031L136.502 85.5564V82.7126H140.083C140.926 82.7126 141.558 82.7126 142.085 83.0286C142.506 83.2392 142.927 83.4499 143.138 83.8712C143.454 84.2925 143.559 84.8191 143.559 85.3457C143.559 86.083 143.243 86.715 142.717 87.2416C142.569 87.354 142.411 87.4523 142.243 87.5365C142.074 87.6208 141.899 87.691 141.716 87.7472C141.541 87.8034 141.358 87.842 141.168 87.8631C140.986 87.8841 140.8 87.8876 140.61 87.8736H139.136V87.9789ZM139.136 86.1884H139.978C140.715 86.1884 141.031 85.8724 141.031 85.3457C141.031 84.8191 140.715 84.5031 139.978 84.5031H139.136V86.083V86.1884ZM151.775 90.928H149.036L147.772 87.7683H147.035V90.928H144.507V82.6073H148.826C149.774 82.6073 150.511 82.8179 150.932 83.2392C151.564 83.6605 151.775 84.2925 151.775 85.0298C151.775 85.4511 151.775 85.8724 151.564 86.2937C151.48 86.399 151.392 86.4973 151.301 86.5886C151.202 86.6799 151.101 86.7677 150.995 86.8519C150.89 86.9292 150.778 86.9994 150.658 87.0626C150.546 87.1328 150.427 87.1925 150.3 87.2416L151.88 90.8227L151.775 90.928ZM147.035 85.9777H148.088C148.404 85.9777 148.72 85.9777 148.826 85.7671C149.036 85.7671 149.142 85.4511 149.142 85.2404C149.142 84.7138 148.826 84.3978 148.088 84.3978H147.035V85.9777ZM156.514 91.0334C155.356 91.0334 154.408 90.6121 153.671 89.8748C153.481 89.6641 153.313 89.4324 153.165 89.1796C153.025 88.9339 152.909 88.6741 152.817 88.4002C152.726 88.1334 152.663 87.856 152.628 87.5681C152.6 87.2873 152.596 87.0029 152.617 86.715C152.617 85.5564 152.933 84.6085 153.671 83.7659C154.303 82.9232 155.25 82.6073 156.514 82.6073C157.568 82.6073 158.621 82.9232 159.358 83.6605C159.548 83.8712 159.716 84.1029 159.864 84.3557C160.004 84.6014 160.12 84.8612 160.211 85.1351C160.303 85.4019 160.366 85.6793 160.401 85.9672C160.429 86.248 160.433 86.5324 160.411 86.8203C160.411 87.9789 159.99 89.0322 159.358 89.8748C158.621 90.6121 157.673 91.0334 156.514 91.0334ZM156.514 89.1375C156.936 89.1375 157.252 88.9268 157.357 88.6109C157.568 88.1896 157.673 87.5576 157.673 86.5043C157.673 85.1351 157.252 84.3978 156.62 84.3978C155.672 84.3978 155.25 85.2404 155.25 86.9256C155.25 88.4002 155.672 89.1375 156.514 89.1375ZM160.622 88.5055L162.939 88.0842C163.15 88.7162 163.677 89.1375 164.414 89.1375C165.046 89.1375 165.467 88.9268 165.467 88.6109C165.467 88.4002 165.362 88.2949 165.151 88.1896L164.414 87.8736C162.939 87.6629 161.991 87.2416 161.57 86.8203C161.254 86.399 161.043 85.7671 161.043 85.2404C161.043 84.5031 161.254 83.8712 161.886 83.3446C162.518 82.8179 163.361 82.6073 164.414 82.6073C166.099 82.6073 167.152 83.2392 167.679 84.6085L165.572 85.2404C165.467 84.6085 164.94 84.3978 164.309 84.3978C163.782 84.3978 163.466 84.5031 163.466 84.9244C163.466 85.0298 163.466 85.1351 163.677 85.2404L164.414 85.4511L166.52 85.9777C166.731 86.062 166.928 86.1743 167.11 86.3148C167.293 86.4552 167.447 86.6202 167.574 86.8098C167.707 86.9994 167.809 87.1995 167.879 87.4101C167.949 87.6278 167.988 87.8525 167.995 88.0842C167.995 89.1375 167.679 89.6641 166.942 90.1908C166.752 90.3312 166.552 90.4541 166.341 90.5594C166.138 90.6718 165.924 90.763 165.699 90.8333C165.474 90.9035 165.246 90.9561 165.014 90.9912C164.776 91.0264 164.54 91.0404 164.309 91.0334C162.307 91.0334 161.149 90.1908 160.622 88.5055Z" fill="#FEFEFE"/>
</svg>
