<svg width="28" height="28" viewBox="0 0 28 28" fill="none" xmlns="http://www.w3.org/2000/svg">
<path d="M12.3751 23.6534C11.9303 24.116 11.2105 24.1154 10.7668 23.6523L2.33195 14.8387C2.3196 14.8258 2.30762 14.8117 2.29659 14.7976L2.21779 14.6964C2.2071 14.6827 2.19683 14.668 2.18748 14.6532C1.89668 14.1932 1.9429 13.5674 2.33195 13.1609L10.7668 4.3483C11.1827 3.91378 11.8409 3.88559 12.2882 4.26504L12.3751 4.34619C12.8196 4.80909 12.8215 5.5618 12.3772 6.02608L5.88308 12.8131L24.8622 12.7962L24.9784 12.8026C25.5524 12.8632 25.9989 13.3686 25.9998 13.9819C26.0002 14.6372 25.4916 15.17 24.8632 15.1706L5.88005 15.1875L12.3772 21.9745C12.7937 22.4099 12.818 23.0981 12.4529 23.5638L12.3751 23.6534Z" fill="#FEFEFE"/>
</svg>
