<svg width="36" height="36" viewBox="0 0 36 36" fill="none" xmlns="http://www.w3.org/2000/svg">
<rect x="0.5" y="0.5" width="35" height="35" stroke="#FEFEFE" stroke-opacity="0.25"/>
<path fill-rule="evenodd" clip-rule="evenodd" d="M18 10C18.855 10 19.732 10.022 20.582 10.058L21.586 10.106L22.547 10.163L23.447 10.224L24.269 10.288C25.1612 10.3559 26.0008 10.7364 26.64 11.3626C27.2791 11.9888 27.6768 12.8204 27.763 13.711L27.803 14.136L27.878 15.046C27.948 15.989 28 17.017 28 18C28 18.983 27.948 20.011 27.878 20.954L27.803 21.864L27.763 22.289C27.6768 23.1798 27.2789 24.0115 26.6396 24.6377C26.0002 25.2639 25.1604 25.6443 24.268 25.712L23.448 25.775L22.548 25.837L21.586 25.894L20.582 25.942C19.7218 25.9793 18.861 25.9986 18 26C17.139 25.9986 16.2782 25.9793 15.418 25.942L14.414 25.894L13.453 25.837L12.553 25.775L11.731 25.712C10.8388 25.6441 9.9992 25.2636 9.36004 24.6374C8.72089 24.0112 8.32319 23.1796 8.237 22.289L8.197 21.864L8.122 20.954C8.04583 19.9711 8.00514 18.9858 8 18C8 17.017 8.052 15.989 8.122 15.046L8.197 14.136L8.237 13.711C8.32316 12.8206 8.72071 11.9891 9.35966 11.3629C9.99861 10.7368 10.838 10.3561 11.73 10.288L12.551 10.224L13.451 10.163L14.413 10.106L15.417 10.058C16.2775 10.0207 17.1387 10.0014 18 10ZM16 15.575V20.425C16 20.887 16.5 21.175 16.9 20.945L21.1 18.52C21.1914 18.4674 21.2673 18.3916 21.3201 18.3003C21.3729 18.209 21.4007 18.1055 21.4007 18C21.4007 17.8945 21.3729 17.791 21.3201 17.6997C21.2673 17.6084 21.1914 17.5326 21.1 17.48L16.9 15.056C16.8088 15.0033 16.7053 14.9756 16.5999 14.9756C16.4945 14.9756 16.3911 15.0034 16.2998 15.0561C16.2086 15.1088 16.1329 15.1846 16.0802 15.2759C16.0276 15.3671 15.9999 15.4706 16 15.576V15.575Z" fill="#FEFEFE"/>
</svg>
