<svg width="50" height="44" viewBox="0 0 50 44" fill="none" xmlns="http://www.w3.org/2000/svg">
<mask id="path-1-outside-1_104_132" maskUnits="userSpaceOnUse" x="0" y="0" width="50" height="44" fill="black">
<rect fill="white" width="50" height="44"/>
<path fill-rule="evenodd" clip-rule="evenodd" d="M13.4637 1.06579C11.2356 1.35908 8.80993 2.28347 7.03808 3.51426C3.99263 5.62995 2.03547 8.54371 1.22942 12.1623C1.04729 12.9797 1.01686 13.3809 1.01854 14.9378C1.02023 16.4655 1.05366 16.9067 1.22642 17.685C1.72496 19.9309 2.72887 21.9676 4.20763 23.7332L4.7145 24.3385L4.44547 24.7342C3.44175 26.2105 3.61114 28.0661 4.86882 29.3728C5.57093 30.1022 6.8669 30.6059 7.84684 30.5301L8.25024 30.499V31.0964C8.25024 31.8125 8.38892 32.3661 8.69868 32.8862C9.06509 33.5013 9.50426 33.6272 9.90963 33.2331C10.193 32.9579 10.1987 32.7229 9.93501 32.1935C9.67797 31.6775 9.6112 30.9415 9.77114 30.3865C9.9513 29.7614 10.6808 29.0606 11.3505 28.8695C11.9826 28.6893 12.1361 28.689 12.7533 28.8671C13.764 29.1587 14.4469 30.0597 14.4469 31.1013C14.4469 32.2756 13.7204 33.1261 12.4805 33.4033C11.8238 33.5502 11.5441 33.7742 11.5441 34.1533C11.5441 34.488 11.9393 34.8216 12.3358 34.8216H12.6678V35.416C12.6678 36.4449 13.1549 37.5134 13.9227 38.1685C14.7133 38.8431 15.4841 39.1178 16.5742 39.1137L17.2561 39.1111V39.3697C17.2561 40.1073 17.8286 41.1956 18.4967 41.7282C19.4987 42.527 21.3198 42.5785 22.3085 41.8359L22.5383 41.6633L22.9927 42.0603C24.2828 43.1876 26.1069 43.3126 27.5159 42.3706C28.4122 41.7712 29.0547 40.55 29.0547 39.4456V39.1646L29.5481 39.2209C30.2728 39.3036 31.1656 39.1373 31.9243 38.7779C33.2732 38.1392 34.2867 36.6395 34.2963 35.2679L34.2986 34.9408L34.8225 35.1127C35.4273 35.3111 36.5927 35.3448 37.2153 35.1819C38.662 34.8034 39.9482 33.5045 40.2858 32.0813C40.4198 31.5167 40.4053 30.6716 40.2521 30.1123L40.1212 29.6345H40.6193C41.6321 29.6345 42.8069 29.1077 43.5564 28.3176C44.2911 27.543 44.7724 26.2169 44.6724 25.2429C44.6348 24.8758 44.662 24.8258 45.2292 24.2199C45.8895 23.5149 46.7337 22.3513 47.2433 21.4444C47.9793 20.1345 48.6377 18.1309 48.7741 16.7856C48.8089 16.4428 48.874 16.1403 48.9186 16.1135C48.9634 16.0866 49 15.4913 49 14.7906C49 13.9644 48.967 13.5363 48.9064 13.5728C48.8515 13.6057 48.8127 13.5103 48.8127 13.3422C48.8127 13.1845 48.7259 12.6394 48.6198 12.1311C47.5965 7.22784 44.0047 3.29086 39.1026 1.69934C37.3952 1.14496 36.5075 1.01501 34.4858 1.02338C33.091 1.0292 32.57 1.06861 31.811 1.22568C29.469 1.71044 27.2937 2.69462 25.6235 4.02505C25.283 4.29633 24.973 4.51819 24.9346 4.51819C24.8962 4.51819 24.5862 4.29633 24.2457 4.02505C23.4055 3.35565 22.3009 2.69817 22.0168 2.69817C21.5644 2.69817 21.2003 3.3804 21.4495 3.76115C21.4882 3.8203 21.8352 4.06983 22.2206 4.31571C22.606 4.5615 23.1478 4.93779 23.4246 5.15192L23.9277 5.54122L20.6521 8.738C18.8505 10.4962 17.2922 12.0576 17.1891 12.2078C16.6388 13.0095 16.4229 14.1581 16.6365 15.1475C17.0831 17.2161 19.1894 18.6393 21.2566 18.2691C22.5421 18.039 22.6193 17.98 26.3181 14.4023L29.715 11.1168L36.2156 17.4409C42.0282 23.0956 42.7431 23.8222 42.9705 24.306C43.6298 25.7084 43.0439 27.3328 41.636 28.0063C40.9897 28.3155 39.7795 28.3161 39.1678 28.0073C38.9051 27.8747 37.8923 26.9692 36.4778 25.6023C34.3464 23.5426 34.1885 23.41 33.8673 23.41C33.4552 23.41 33.1749 23.6928 33.1749 24.1084C33.1749 24.3504 33.5217 24.7258 35.8774 27.033C38.9099 30.0031 38.9408 30.0456 38.9255 31.227C38.9108 32.3623 38.2134 33.335 37.1284 33.733C36.4394 33.9857 35.4855 33.9484 34.8604 33.6443C34.5629 33.4996 32.7311 31.7825 28.6316 27.8058C23.0693 22.4101 22.8097 22.1724 22.4816 22.1724C22.223 22.1724 22.0914 22.2312 21.945 22.4122C21.5257 22.9301 21.3624 22.7427 27.1229 28.3571C33.1092 34.1917 32.8543 33.889 32.8398 35.1401C32.8279 36.1667 32.3061 37.0158 31.3885 37.5012C30.7394 37.8444 29.7813 37.9209 29.0434 37.6882C28.5676 37.5381 28.2124 37.2121 22.6358 31.8074C16.999 26.3443 16.7166 26.0855 16.3922 26.0855C16.1367 26.0855 16.0043 26.1449 15.8584 26.3252C15.4367 26.8461 15.239 26.6221 21.5063 32.7262C27.8212 38.8768 27.6009 38.6271 27.5808 39.6113C27.5607 40.6025 26.7717 41.4426 25.7053 41.6083C25.1368 41.6967 24.4065 41.4501 23.8752 40.9903L23.4245 40.6001L23.5799 40.0176C23.7745 39.2885 23.7073 38.6797 23.3516 37.9489C22.8721 36.9634 21.6941 36.1866 20.6793 36.1866H20.2704L20.3203 35.6513C20.493 33.8004 19.0771 32.0813 17.0919 31.7316C16.7699 31.6748 16.3665 31.6539 16.1955 31.6851L15.8845 31.7417L15.8877 31.1659C15.892 30.3651 15.7069 29.7268 15.2875 29.0961C14.5819 28.0352 13.4733 27.4342 12.1871 27.4154L11.4724 27.405L11.4336 26.6299C11.3624 25.2053 10.6208 24.0965 9.32195 23.4726C8.7176 23.1824 8.51627 23.1327 7.8136 23.1006C7.16243 23.0709 6.89181 23.101 6.44075 23.2537L5.87891 23.4438L5.46568 23.0128C4.92603 22.4501 4.04095 21.1391 3.62332 20.2839C2.36527 17.7074 2.05607 14.7007 2.76033 11.8913C3.29548 9.75658 4.37506 7.86102 5.96777 6.25949C9.2373 2.97208 13.7498 1.67468 18.313 2.71018C19.0822 2.88472 19.1508 2.88717 19.3705 2.74721C19.6982 2.53864 19.8169 2.19739 19.6675 1.89435C19.5116 1.5784 19.2705 1.47538 18.1457 1.24415C17.0636 1.02165 14.5314 0.92519 13.4637 1.06579ZM33.1997 2.42161C31.1328 2.65239 29.0134 3.40925 27.3149 4.5231C26.355 5.15265 25.0999 6.29216 21.5932 9.71808C18.1337 13.098 18.0079 13.2589 18.0062 14.3074C18.0044 15.3899 18.5161 16.2237 19.457 16.671C19.9073 16.8851 20.0538 16.9095 20.6954 16.8781C21.1428 16.8561 21.5673 16.7765 21.7977 16.6713C22.0419 16.5599 23.4281 15.286 25.7801 13.0118C29.8952 9.03275 29.6287 9.20921 30.4645 9.91C31.518 10.7932 32.6535 11.2796 34.0216 11.4335C34.6625 11.5056 35.7727 11.4367 36.3079 11.2917C37.1759 11.0563 38.2965 10.4733 38.8401 9.97425C39.2903 9.56083 39.611 9.43325 39.9288 9.5409C40.242 9.64701 40.3851 9.85868 40.3851 10.2154C40.3851 10.6788 38.9737 11.766 37.6922 12.2898C36.7043 12.6935 35.9469 12.8299 34.65 12.8377L33.4565 12.8448L38.5922 17.8499C41.417 20.6026 43.8148 22.9682 43.9207 23.1068L44.1134 23.3586L44.5323 22.8793C46.6876 20.4123 47.7953 16.8528 47.4145 13.6183C47.0722 10.7108 45.9126 8.28172 43.9014 6.25949C41.9842 4.33182 39.7471 3.12987 37.1008 2.6058C36.0428 2.39622 34.2043 2.3095 33.1997 2.42161ZM1 14.8923C1 15.6181 1.01461 15.915 1.0324 15.5521C1.0501 15.1892 1.0501 14.5955 1.0324 14.2326C1.01461 13.8696 1 14.1666 1 14.8923ZM26.2618 16.6499C26.1357 16.7805 26.0583 16.9776 26.0583 17.1683C26.0583 17.4497 26.2763 17.6879 28.6099 19.9557C30.3289 21.6261 31.2483 22.4558 31.4273 22.4977C31.8233 22.5907 32.1831 22.2987 32.2216 21.853C32.2513 21.5096 32.2263 21.4817 29.6447 18.9728C27.3687 16.7609 27.0014 16.4393 26.7516 16.4393C26.5736 16.4393 26.3885 16.5189 26.2618 16.6499ZM6.80454 24.589C5.44564 25.077 4.84513 26.6054 5.5124 27.8778C6.17097 29.1334 7.90387 29.5333 9.03916 28.6917C10.4919 27.615 10.3108 25.5017 8.69728 24.7018C8.20717 24.4588 7.31525 24.4057 6.80454 24.589ZM15.3936 33.3321C14.1854 33.9172 13.746 35.3665 14.4148 36.5607C14.9599 37.534 16.12 37.9618 17.2921 37.6218C17.8816 37.4507 18.607 36.7158 18.7924 36.1018C18.8745 35.8299 18.9416 35.52 18.9416 35.4131C18.9416 35.3061 18.8745 34.9962 18.7924 34.7244C18.6084 34.1152 17.8507 33.3424 17.2887 33.1908C16.6423 33.0164 15.937 33.069 15.3936 33.3321ZM19.7844 37.6967C19.2747 37.9112 18.9488 38.2734 18.7911 38.8003C18.6619 39.232 18.6619 39.3292 18.7911 39.7609C19.0894 40.7582 20.1825 41.2687 21.1652 40.8697C21.61 40.689 21.8227 40.4976 22.0417 40.0805C22.3773 39.4416 22.2086 38.4455 21.6872 37.9873C21.2127 37.5703 20.3849 37.4439 19.7844 37.6967Z"/>
</mask>
<path fill-rule="evenodd" clip-rule="evenodd" d="M13.4637 1.06579C11.2356 1.35908 8.80993 2.28347 7.03808 3.51426C3.99263 5.62995 2.03547 8.54371 1.22942 12.1623C1.04729 12.9797 1.01686 13.3809 1.01854 14.9378C1.02023 16.4655 1.05366 16.9067 1.22642 17.685C1.72496 19.9309 2.72887 21.9676 4.20763 23.7332L4.7145 24.3385L4.44547 24.7342C3.44175 26.2105 3.61114 28.0661 4.86882 29.3728C5.57093 30.1022 6.8669 30.6059 7.84684 30.5301L8.25024 30.499V31.0964C8.25024 31.8125 8.38892 32.3661 8.69868 32.8862C9.06509 33.5013 9.50426 33.6272 9.90963 33.2331C10.193 32.9579 10.1987 32.7229 9.93501 32.1935C9.67797 31.6775 9.6112 30.9415 9.77114 30.3865C9.9513 29.7614 10.6808 29.0606 11.3505 28.8695C11.9826 28.6893 12.1361 28.689 12.7533 28.8671C13.764 29.1587 14.4469 30.0597 14.4469 31.1013C14.4469 32.2756 13.7204 33.1261 12.4805 33.4033C11.8238 33.5502 11.5441 33.7742 11.5441 34.1533C11.5441 34.488 11.9393 34.8216 12.3358 34.8216H12.6678V35.416C12.6678 36.4449 13.1549 37.5134 13.9227 38.1685C14.7133 38.8431 15.4841 39.1178 16.5742 39.1137L17.2561 39.1111V39.3697C17.2561 40.1073 17.8286 41.1956 18.4967 41.7282C19.4987 42.527 21.3198 42.5785 22.3085 41.8359L22.5383 41.6633L22.9927 42.0603C24.2828 43.1876 26.1069 43.3126 27.5159 42.3706C28.4122 41.7712 29.0547 40.55 29.0547 39.4456V39.1646L29.5481 39.2209C30.2728 39.3036 31.1656 39.1373 31.9243 38.7779C33.2732 38.1392 34.2867 36.6395 34.2963 35.2679L34.2986 34.9408L34.8225 35.1127C35.4273 35.3111 36.5927 35.3448 37.2153 35.1819C38.662 34.8034 39.9482 33.5045 40.2858 32.0813C40.4198 31.5167 40.4053 30.6716 40.2521 30.1123L40.1212 29.6345H40.6193C41.6321 29.6345 42.8069 29.1077 43.5564 28.3176C44.2911 27.543 44.7724 26.2169 44.6724 25.2429C44.6348 24.8758 44.662 24.8258 45.2292 24.2199C45.8895 23.5149 46.7337 22.3513 47.2433 21.4444C47.9793 20.1345 48.6377 18.1309 48.7741 16.7856C48.8089 16.4428 48.874 16.1403 48.9186 16.1135C48.9634 16.0866 49 15.4913 49 14.7906C49 13.9644 48.967 13.5363 48.9064 13.5728C48.8515 13.6057 48.8127 13.5103 48.8127 13.3422C48.8127 13.1845 48.7259 12.6394 48.6198 12.1311C47.5965 7.22784 44.0047 3.29086 39.1026 1.69934C37.3952 1.14496 36.5075 1.01501 34.4858 1.02338C33.091 1.0292 32.57 1.06861 31.811 1.22568C29.469 1.71044 27.2937 2.69462 25.6235 4.02505C25.283 4.29633 24.973 4.51819 24.9346 4.51819C24.8962 4.51819 24.5862 4.29633 24.2457 4.02505C23.4055 3.35565 22.3009 2.69817 22.0168 2.69817C21.5644 2.69817 21.2003 3.3804 21.4495 3.76115C21.4882 3.8203 21.8352 4.06983 22.2206 4.31571C22.606 4.5615 23.1478 4.93779 23.4246 5.15192L23.9277 5.54122L20.6521 8.738C18.8505 10.4962 17.2922 12.0576 17.1891 12.2078C16.6388 13.0095 16.4229 14.1581 16.6365 15.1475C17.0831 17.2161 19.1894 18.6393 21.2566 18.2691C22.5421 18.039 22.6193 17.98 26.3181 14.4023L29.715 11.1168L36.2156 17.4409C42.0282 23.0956 42.7431 23.8222 42.9705 24.306C43.6298 25.7084 43.0439 27.3328 41.636 28.0063C40.9897 28.3155 39.7795 28.3161 39.1678 28.0073C38.9051 27.8747 37.8923 26.9692 36.4778 25.6023C34.3464 23.5426 34.1885 23.41 33.8673 23.41C33.4552 23.41 33.1749 23.6928 33.1749 24.1084C33.1749 24.3504 33.5217 24.7258 35.8774 27.033C38.9099 30.0031 38.9408 30.0456 38.9255 31.227C38.9108 32.3623 38.2134 33.335 37.1284 33.733C36.4394 33.9857 35.4855 33.9484 34.8604 33.6443C34.5629 33.4996 32.7311 31.7825 28.6316 27.8058C23.0693 22.4101 22.8097 22.1724 22.4816 22.1724C22.223 22.1724 22.0914 22.2312 21.945 22.4122C21.5257 22.9301 21.3624 22.7427 27.1229 28.3571C33.1092 34.1917 32.8543 33.889 32.8398 35.1401C32.8279 36.1667 32.3061 37.0158 31.3885 37.5012C30.7394 37.8444 29.7813 37.9209 29.0434 37.6882C28.5676 37.5381 28.2124 37.2121 22.6358 31.8074C16.999 26.3443 16.7166 26.0855 16.3922 26.0855C16.1367 26.0855 16.0043 26.1449 15.8584 26.3252C15.4367 26.8461 15.239 26.6221 21.5063 32.7262C27.8212 38.8768 27.6009 38.6271 27.5808 39.6113C27.5607 40.6025 26.7717 41.4426 25.7053 41.6083C25.1368 41.6967 24.4065 41.4501 23.8752 40.9903L23.4245 40.6001L23.5799 40.0176C23.7745 39.2885 23.7073 38.6797 23.3516 37.9489C22.8721 36.9634 21.6941 36.1866 20.6793 36.1866H20.2704L20.3203 35.6513C20.493 33.8004 19.0771 32.0813 17.0919 31.7316C16.7699 31.6748 16.3665 31.6539 16.1955 31.6851L15.8845 31.7417L15.8877 31.1659C15.892 30.3651 15.7069 29.7268 15.2875 29.0961C14.5819 28.0352 13.4733 27.4342 12.1871 27.4154L11.4724 27.405L11.4336 26.6299C11.3624 25.2053 10.6208 24.0965 9.32195 23.4726C8.7176 23.1824 8.51627 23.1327 7.8136 23.1006C7.16243 23.0709 6.89181 23.101 6.44075 23.2537L5.87891 23.4438L5.46568 23.0128C4.92603 22.4501 4.04095 21.1391 3.62332 20.2839C2.36527 17.7074 2.05607 14.7007 2.76033 11.8913C3.29548 9.75658 4.37506 7.86102 5.96777 6.25949C9.2373 2.97208 13.7498 1.67468 18.313 2.71018C19.0822 2.88472 19.1508 2.88717 19.3705 2.74721C19.6982 2.53864 19.8169 2.19739 19.6675 1.89435C19.5116 1.5784 19.2705 1.47538 18.1457 1.24415C17.0636 1.02165 14.5314 0.92519 13.4637 1.06579ZM33.1997 2.42161C31.1328 2.65239 29.0134 3.40925 27.3149 4.5231C26.355 5.15265 25.0999 6.29216 21.5932 9.71808C18.1337 13.098 18.0079 13.2589 18.0062 14.3074C18.0044 15.3899 18.5161 16.2237 19.457 16.671C19.9073 16.8851 20.0538 16.9095 20.6954 16.8781C21.1428 16.8561 21.5673 16.7765 21.7977 16.6713C22.0419 16.5599 23.4281 15.286 25.7801 13.0118C29.8952 9.03275 29.6287 9.20921 30.4645 9.91C31.518 10.7932 32.6535 11.2796 34.0216 11.4335C34.6625 11.5056 35.7727 11.4367 36.3079 11.2917C37.1759 11.0563 38.2965 10.4733 38.8401 9.97425C39.2903 9.56083 39.611 9.43325 39.9288 9.5409C40.242 9.64701 40.3851 9.85868 40.3851 10.2154C40.3851 10.6788 38.9737 11.766 37.6922 12.2898C36.7043 12.6935 35.9469 12.8299 34.65 12.8377L33.4565 12.8448L38.5922 17.8499C41.417 20.6026 43.8148 22.9682 43.9207 23.1068L44.1134 23.3586L44.5323 22.8793C46.6876 20.4123 47.7953 16.8528 47.4145 13.6183C47.0722 10.7108 45.9126 8.28172 43.9014 6.25949C41.9842 4.33182 39.7471 3.12987 37.1008 2.6058C36.0428 2.39622 34.2043 2.3095 33.1997 2.42161ZM1 14.8923C1 15.6181 1.01461 15.915 1.0324 15.5521C1.0501 15.1892 1.0501 14.5955 1.0324 14.2326C1.01461 13.8696 1 14.1666 1 14.8923ZM26.2618 16.6499C26.1357 16.7805 26.0583 16.9776 26.0583 17.1683C26.0583 17.4497 26.2763 17.6879 28.6099 19.9557C30.3289 21.6261 31.2483 22.4558 31.4273 22.4977C31.8233 22.5907 32.1831 22.2987 32.2216 21.853C32.2513 21.5096 32.2263 21.4817 29.6447 18.9728C27.3687 16.7609 27.0014 16.4393 26.7516 16.4393C26.5736 16.4393 26.3885 16.5189 26.2618 16.6499ZM6.80454 24.589C5.44564 25.077 4.84513 26.6054 5.5124 27.8778C6.17097 29.1334 7.90387 29.5333 9.03916 28.6917C10.4919 27.615 10.3108 25.5017 8.69728 24.7018C8.20717 24.4588 7.31525 24.4057 6.80454 24.589ZM15.3936 33.3321C14.1854 33.9172 13.746 35.3665 14.4148 36.5607C14.9599 37.534 16.12 37.9618 17.2921 37.6218C17.8816 37.4507 18.607 36.7158 18.7924 36.1018C18.8745 35.8299 18.9416 35.52 18.9416 35.4131C18.9416 35.3061 18.8745 34.9962 18.7924 34.7244C18.6084 34.1152 17.8507 33.3424 17.2887 33.1908C16.6423 33.0164 15.937 33.069 15.3936 33.3321ZM19.7844 37.6967C19.2747 37.9112 18.9488 38.2734 18.7911 38.8003C18.6619 39.232 18.6619 39.3292 18.7911 39.7609C19.0894 40.7582 20.1825 41.2687 21.1652 40.8697C21.61 40.689 21.8227 40.4976 22.0417 40.0805C22.3773 39.4416 22.2086 38.4455 21.6872 37.9873C21.2127 37.5703 20.3849 37.4439 19.7844 37.6967Z" fill="#F7F6EF"/>
<path fill-rule="evenodd" clip-rule="evenodd" d="M13.4637 1.06579C11.2356 1.35908 8.80993 2.28347 7.03808 3.51426C3.99263 5.62995 2.03547 8.54371 1.22942 12.1623C1.04729 12.9797 1.01686 13.3809 1.01854 14.9378C1.02023 16.4655 1.05366 16.9067 1.22642 17.685C1.72496 19.9309 2.72887 21.9676 4.20763 23.7332L4.7145 24.3385L4.44547 24.7342C3.44175 26.2105 3.61114 28.0661 4.86882 29.3728C5.57093 30.1022 6.8669 30.6059 7.84684 30.5301L8.25024 30.499V31.0964C8.25024 31.8125 8.38892 32.3661 8.69868 32.8862C9.06509 33.5013 9.50426 33.6272 9.90963 33.2331C10.193 32.9579 10.1987 32.7229 9.93501 32.1935C9.67797 31.6775 9.6112 30.9415 9.77114 30.3865C9.9513 29.7614 10.6808 29.0606 11.3505 28.8695C11.9826 28.6893 12.1361 28.689 12.7533 28.8671C13.764 29.1587 14.4469 30.0597 14.4469 31.1013C14.4469 32.2756 13.7204 33.1261 12.4805 33.4033C11.8238 33.5502 11.5441 33.7742 11.5441 34.1533C11.5441 34.488 11.9393 34.8216 12.3358 34.8216H12.6678V35.416C12.6678 36.4449 13.1549 37.5134 13.9227 38.1685C14.7133 38.8431 15.4841 39.1178 16.5742 39.1137L17.2561 39.1111V39.3697C17.2561 40.1073 17.8286 41.1956 18.4967 41.7282C19.4987 42.527 21.3198 42.5785 22.3085 41.8359L22.5383 41.6633L22.9927 42.0603C24.2828 43.1876 26.1069 43.3126 27.5159 42.3706C28.4122 41.7712 29.0547 40.55 29.0547 39.4456V39.1646L29.5481 39.2209C30.2728 39.3036 31.1656 39.1373 31.9243 38.7779C33.2732 38.1392 34.2867 36.6395 34.2963 35.2679L34.2986 34.9408L34.8225 35.1127C35.4273 35.3111 36.5927 35.3448 37.2153 35.1819C38.662 34.8034 39.9482 33.5045 40.2858 32.0813C40.4198 31.5167 40.4053 30.6716 40.2521 30.1123L40.1212 29.6345H40.6193C41.6321 29.6345 42.8069 29.1077 43.5564 28.3176C44.2911 27.543 44.7724 26.2169 44.6724 25.2429C44.6348 24.8758 44.662 24.8258 45.2292 24.2199C45.8895 23.5149 46.7337 22.3513 47.2433 21.4444C47.9793 20.1345 48.6377 18.1309 48.7741 16.7856C48.8089 16.4428 48.874 16.1403 48.9186 16.1135C48.9634 16.0866 49 15.4913 49 14.7906C49 13.9644 48.967 13.5363 48.9064 13.5728C48.8515 13.6057 48.8127 13.5103 48.8127 13.3422C48.8127 13.1845 48.7259 12.6394 48.6198 12.1311C47.5965 7.22784 44.0047 3.29086 39.1026 1.69934C37.3952 1.14496 36.5075 1.01501 34.4858 1.02338C33.091 1.0292 32.57 1.06861 31.811 1.22568C29.469 1.71044 27.2937 2.69462 25.6235 4.02505C25.283 4.29633 24.973 4.51819 24.9346 4.51819C24.8962 4.51819 24.5862 4.29633 24.2457 4.02505C23.4055 3.35565 22.3009 2.69817 22.0168 2.69817C21.5644 2.69817 21.2003 3.3804 21.4495 3.76115C21.4882 3.8203 21.8352 4.06983 22.2206 4.31571C22.606 4.5615 23.1478 4.93779 23.4246 5.15192L23.9277 5.54122L20.6521 8.738C18.8505 10.4962 17.2922 12.0576 17.1891 12.2078C16.6388 13.0095 16.4229 14.1581 16.6365 15.1475C17.0831 17.2161 19.1894 18.6393 21.2566 18.2691C22.5421 18.039 22.6193 17.98 26.3181 14.4023L29.715 11.1168L36.2156 17.4409C42.0282 23.0956 42.7431 23.8222 42.9705 24.306C43.6298 25.7084 43.0439 27.3328 41.636 28.0063C40.9897 28.3155 39.7795 28.3161 39.1678 28.0073C38.9051 27.8747 37.8923 26.9692 36.4778 25.6023C34.3464 23.5426 34.1885 23.41 33.8673 23.41C33.4552 23.41 33.1749 23.6928 33.1749 24.1084C33.1749 24.3504 33.5217 24.7258 35.8774 27.033C38.9099 30.0031 38.9408 30.0456 38.9255 31.227C38.9108 32.3623 38.2134 33.335 37.1284 33.733C36.4394 33.9857 35.4855 33.9484 34.8604 33.6443C34.5629 33.4996 32.7311 31.7825 28.6316 27.8058C23.0693 22.4101 22.8097 22.1724 22.4816 22.1724C22.223 22.1724 22.0914 22.2312 21.945 22.4122C21.5257 22.9301 21.3624 22.7427 27.1229 28.3571C33.1092 34.1917 32.8543 33.889 32.8398 35.1401C32.8279 36.1667 32.3061 37.0158 31.3885 37.5012C30.7394 37.8444 29.7813 37.9209 29.0434 37.6882C28.5676 37.5381 28.2124 37.2121 22.6358 31.8074C16.999 26.3443 16.7166 26.0855 16.3922 26.0855C16.1367 26.0855 16.0043 26.1449 15.8584 26.3252C15.4367 26.8461 15.239 26.6221 21.5063 32.7262C27.8212 38.8768 27.6009 38.6271 27.5808 39.6113C27.5607 40.6025 26.7717 41.4426 25.7053 41.6083C25.1368 41.6967 24.4065 41.4501 23.8752 40.9903L23.4245 40.6001L23.5799 40.0176C23.7745 39.2885 23.7073 38.6797 23.3516 37.9489C22.8721 36.9634 21.6941 36.1866 20.6793 36.1866H20.2704L20.3203 35.6513C20.493 33.8004 19.0771 32.0813 17.0919 31.7316C16.7699 31.6748 16.3665 31.6539 16.1955 31.6851L15.8845 31.7417L15.8877 31.1659C15.892 30.3651 15.7069 29.7268 15.2875 29.0961C14.5819 28.0352 13.4733 27.4342 12.1871 27.4154L11.4724 27.405L11.4336 26.6299C11.3624 25.2053 10.6208 24.0965 9.32195 23.4726C8.7176 23.1824 8.51627 23.1327 7.8136 23.1006C7.16243 23.0709 6.89181 23.101 6.44075 23.2537L5.87891 23.4438L5.46568 23.0128C4.92603 22.4501 4.04095 21.1391 3.62332 20.2839C2.36527 17.7074 2.05607 14.7007 2.76033 11.8913C3.29548 9.75658 4.37506 7.86102 5.96777 6.25949C9.2373 2.97208 13.7498 1.67468 18.313 2.71018C19.0822 2.88472 19.1508 2.88717 19.3705 2.74721C19.6982 2.53864 19.8169 2.19739 19.6675 1.89435C19.5116 1.5784 19.2705 1.47538 18.1457 1.24415C17.0636 1.02165 14.5314 0.92519 13.4637 1.06579ZM33.1997 2.42161C31.1328 2.65239 29.0134 3.40925 27.3149 4.5231C26.355 5.15265 25.0999 6.29216 21.5932 9.71808C18.1337 13.098 18.0079 13.2589 18.0062 14.3074C18.0044 15.3899 18.5161 16.2237 19.457 16.671C19.9073 16.8851 20.0538 16.9095 20.6954 16.8781C21.1428 16.8561 21.5673 16.7765 21.7977 16.6713C22.0419 16.5599 23.4281 15.286 25.7801 13.0118C29.8952 9.03275 29.6287 9.20921 30.4645 9.91C31.518 10.7932 32.6535 11.2796 34.0216 11.4335C34.6625 11.5056 35.7727 11.4367 36.3079 11.2917C37.1759 11.0563 38.2965 10.4733 38.8401 9.97425C39.2903 9.56083 39.611 9.43325 39.9288 9.5409C40.242 9.64701 40.3851 9.85868 40.3851 10.2154C40.3851 10.6788 38.9737 11.766 37.6922 12.2898C36.7043 12.6935 35.9469 12.8299 34.65 12.8377L33.4565 12.8448L38.5922 17.8499C41.417 20.6026 43.8148 22.9682 43.9207 23.1068L44.1134 23.3586L44.5323 22.8793C46.6876 20.4123 47.7953 16.8528 47.4145 13.6183C47.0722 10.7108 45.9126 8.28172 43.9014 6.25949C41.9842 4.33182 39.7471 3.12987 37.1008 2.6058C36.0428 2.39622 34.2043 2.3095 33.1997 2.42161ZM1 14.8923C1 15.6181 1.01461 15.915 1.0324 15.5521C1.0501 15.1892 1.0501 14.5955 1.0324 14.2326C1.01461 13.8696 1 14.1666 1 14.8923ZM26.2618 16.6499C26.1357 16.7805 26.0583 16.9776 26.0583 17.1683C26.0583 17.4497 26.2763 17.6879 28.6099 19.9557C30.3289 21.6261 31.2483 22.4558 31.4273 22.4977C31.8233 22.5907 32.1831 22.2987 32.2216 21.853C32.2513 21.5096 32.2263 21.4817 29.6447 18.9728C27.3687 16.7609 27.0014 16.4393 26.7516 16.4393C26.5736 16.4393 26.3885 16.5189 26.2618 16.6499ZM6.80454 24.589C5.44564 25.077 4.84513 26.6054 5.5124 27.8778C6.17097 29.1334 7.90387 29.5333 9.03916 28.6917C10.4919 27.615 10.3108 25.5017 8.69728 24.7018C8.20717 24.4588 7.31525 24.4057 6.80454 24.589ZM15.3936 33.3321C14.1854 33.9172 13.746 35.3665 14.4148 36.5607C14.9599 37.534 16.12 37.9618 17.2921 37.6218C17.8816 37.4507 18.607 36.7158 18.7924 36.1018C18.8745 35.8299 18.9416 35.52 18.9416 35.4131C18.9416 35.3061 18.8745 34.9962 18.7924 34.7244C18.6084 34.1152 17.8507 33.3424 17.2887 33.1908C16.6423 33.0164 15.937 33.069 15.3936 33.3321ZM19.7844 37.6967C19.2747 37.9112 18.9488 38.2734 18.7911 38.8003C18.6619 39.232 18.6619 39.3292 18.7911 39.7609C19.0894 40.7582 20.1825 41.2687 21.1652 40.8697C21.61 40.689 21.8227 40.4976 22.0417 40.0805C22.3773 39.4416 22.2086 38.4455 21.6872 37.9873C21.2127 37.5703 20.3849 37.4439 19.7844 37.6967Z" stroke="#F7F6EF" mask="url(#path-1-outside-1_104_132)"/>
</svg>
