<svg width="45" height="45" viewBox="0 0 45 45" fill="none" xmlns="http://www.w3.org/2000/svg">
<mask id="path-1-outside-1_104_130" maskUnits="userSpaceOnUse" x="0" y="0" width="45" height="45" fill="black">
<rect fill="white" width="45" height="45"/>
<path fill-rule="evenodd" clip-rule="evenodd" d="M13.4323 1.19926C12.8294 1.43111 12.2597 1.96772 11.9763 2.57066C11.7755 2.99794 11.7672 3.16976 11.7398 7.46001L11.7114 11.9064L11.4355 11.8103C11.2678 11.7518 9.56196 11.7255 7.08296 11.743C3.17007 11.7705 2.98853 11.7801 2.56334 11.9797C1.94725 12.2692 1.42095 12.837 1.18527 13.4668C0.987588 13.9948 0.985816 14.1431 1.01151 28.0407C1.03681 41.7769 1.04164 42.0895 1.23105 42.4714C1.47845 42.9702 2.01843 43.5099 2.51736 43.7572C2.88369 43.9388 3.16406 43.9527 7.04269 43.9815C11.4179 44.014 11.6443 43.9956 12.3257 43.5536C12.6322 43.3547 12.7037 43.3406 12.8023 43.4593C12.8661 43.5361 13.1595 43.6891 13.4545 43.7994C13.9619 43.9893 14.2068 44 18.0196 44C21.8324 44 22.0773 43.9893 22.5847 43.7994C22.8796 43.6891 23.1742 43.5347 23.2394 43.4562C23.3417 43.3329 23.3957 43.3404 23.6356 43.5112C24.2965 43.9816 24.4893 44 28.7381 43.9994C31.1595 43.9991 32.8805 43.9592 33.1 43.8982C33.7115 43.7285 34.3631 43.2065 34.6962 42.6196L35.0018 42.0811L35.0282 32.6065C35.0465 26.1335 35.0221 23.0708 34.9515 22.939C34.7954 22.6475 34.2968 22.4259 33.9621 22.4994C33.8042 22.534 33.586 22.6757 33.477 22.8142C33.2875 23.055 33.2789 23.2083 33.2789 26.3492V29.6326H28.7996H24.3202L24.3187 25.5241C24.3177 22.4098 24.2872 21.3561 24.1928 21.1696C23.8756 20.5428 22.9133 20.5671 22.6083 21.2097C22.4657 21.5101 22.4497 22.5568 22.4497 31.5855V41.6272L22.2122 41.9033L21.9745 42.1795H18.036H14.0975L13.8435 41.9409L13.5894 41.7023V22.4981V3.29385L13.8433 3.05522L14.0972 2.81668L18.0616 2.76748C22.3334 2.71443 22.2207 2.72969 22.4511 2.17379C22.5472 1.94174 22.5466 1.82041 22.4481 1.58266C22.1999 0.983554 22.2942 0.995658 17.9238 1.00127C14.2044 1.00609 13.9 1.01947 13.4323 1.19926ZM27.8665 1.18863C27.1151 1.44794 26.4605 2.14239 26.2343 2.91991C25.7956 4.42829 26.5112 6.87223 28.0991 9.289L28.5343 9.95119L28.0991 10.6134C27.4518 11.5986 26.8278 12.8556 26.469 13.8969C26.1905 14.705 26.1496 14.9533 26.1458 15.8556C26.1409 17.0293 26.3015 17.5142 26.8921 18.1096C27.4729 18.6952 27.9651 18.8576 29.1441 18.8527C30.0468 18.8489 30.2952 18.808 31.1036 18.5296C32.1413 18.1725 33.4023 17.5476 34.3768 16.9079L35.0276 16.4806L35.8022 16.9627C36.9262 17.6621 37.9865 18.181 39.0181 18.5363C39.8053 18.8074 40.0597 18.8489 40.9578 18.8527C41.8048 18.8562 42.0718 18.8199 42.4356 18.6515C44.6334 17.6347 44.491 14.4739 42.0803 10.763L41.5529 9.95119L42.0802 9.13933C43.6827 6.67207 44.3158 4.42731 43.8514 2.85919C43.6315 2.11632 42.8891 1.37423 42.1459 1.15439C40.5886 0.693548 38.3507 1.32404 35.8735 2.92148L35.051 3.4519L34.2388 2.92483C31.7397 1.30308 29.3902 0.662944 27.8665 1.18863ZM28.6168 2.86864C27.8937 3.08523 27.7327 3.67695 28.0516 4.9467C28.2504 5.73848 29.1575 7.71794 29.5133 8.13656C29.6832 8.33652 29.7118 8.313 31.5737 6.43934L33.4619 4.53939L32.8043 4.15777C31.8831 3.62322 30.8433 3.18472 29.9626 2.95957C29.1438 2.75025 29.0361 2.74297 28.6168 2.86864ZM40.564 2.83095C39.942 2.94441 38.9553 3.30921 38.0536 3.75912C36.4148 4.57679 36.3603 4.28698 38.5643 6.47535L40.465 8.3628L40.8783 7.65624C41.8005 6.07936 42.3428 4.3104 42.1374 3.54833C42.08 3.33509 41.9351 3.09655 41.8154 3.01822C41.5707 2.85811 40.9358 2.76315 40.564 2.83095ZM34.112 6.48982C33.225 7.26418 31.4981 9.02891 31.0401 9.6291L30.7942 9.95138L31.1693 10.4187C31.7502 11.1425 33.6479 13.0543 34.3869 13.6603L35.0519 14.2057L35.519 13.8318C36.1229 13.3484 38.4488 11.0236 38.9318 10.4207L39.3046 9.95522L38.6639 9.1906C37.7718 8.12564 35.2552 5.71969 35.0336 5.71969C35.0119 5.71969 34.5972 6.06627 34.112 6.48982ZM17.3752 6.65012L17.1336 6.89161V21.5936V36.2955L17.3749 36.5559C17.7816 36.9945 18.5051 36.8921 18.7911 36.3554C18.8767 36.1947 18.9056 32.4457 18.9056 21.516V6.89161L18.6639 6.65012C18.4861 6.4723 18.3159 6.40853 18.0196 6.40853C17.7233 6.40853 17.553 6.4723 17.3752 6.65012ZM29.23 12.2361C28.6383 13.2488 28.2656 14.1158 28.0421 14.9991C27.8024 15.9465 27.8567 16.509 28.221 16.8509C28.7814 17.3769 30.5306 17.0067 32.4066 15.9649C32.9536 15.6612 33.401 15.3906 33.4009 15.3636C33.4008 15.3365 32.5538 14.4653 31.5185 13.4275L29.6363 11.5408L29.23 12.2361ZM38.5314 13.4552L36.6463 15.3616L37.2219 15.7111C39.1807 16.9005 41.2565 17.4202 41.8617 16.8727C42.3554 16.4262 42.2463 15.183 41.5796 13.658C41.2705 12.9508 40.4918 11.5059 40.4366 11.5372C40.4255 11.5435 39.5681 12.4065 38.5314 13.4552ZM3.04809 13.8461L2.80946 14.1001L2.78307 21.8663L2.75679 29.6326H7.23782H11.7189V21.9519C11.7189 13.8098 11.7197 13.8253 11.2715 13.6534C11.1839 13.6198 9.35148 13.5922 7.19952 13.5922H3.28683L3.04809 13.8461ZM2.78258 33.249L2.80946 34.9958L7.2642 35.0213L11.7189 35.0469V33.2746V31.5023H7.23733H2.7557L2.78258 33.249ZM24.3202 33.2746V35.0469L28.775 35.0213L33.2297 34.9958L33.2566 33.249L33.2835 31.5023H28.8018H24.3202V33.2746ZM2.80109 36.9501C2.77283 37.0237 2.76319 38.1078 2.77963 39.359L2.80946 41.6341L3.08235 41.9068L3.35515 42.1795L7.11456 42.2075C9.82344 42.2277 10.9518 42.2033 11.1527 42.1201C11.7026 41.8924 11.7189 41.8084 11.7189 39.2053V36.8163H7.28576C3.63878 36.8163 2.84342 36.84 2.80109 36.9501ZM24.3869 36.8808C24.3502 36.9176 24.3202 38.0049 24.3202 39.2973C24.3202 41.6433 24.3206 41.6476 24.5553 41.8822C24.6847 42.0115 24.9394 42.1445 25.1214 42.1779C25.3034 42.2113 27.0795 42.2252 29.0681 42.209L32.684 42.1795L32.9568 41.9068L33.2297 41.634V39.2498V36.8655L28.8416 36.8399C26.4282 36.8258 24.4235 36.8442 24.3869 36.8808Z"/>
</mask>
<path fill-rule="evenodd" clip-rule="evenodd" d="M13.4323 1.19926C12.8294 1.43111 12.2597 1.96772 11.9763 2.57066C11.7755 2.99794 11.7672 3.16976 11.7398 7.46001L11.7114 11.9064L11.4355 11.8103C11.2678 11.7518 9.56196 11.7255 7.08296 11.743C3.17007 11.7705 2.98853 11.7801 2.56334 11.9797C1.94725 12.2692 1.42095 12.837 1.18527 13.4668C0.987588 13.9948 0.985816 14.1431 1.01151 28.0407C1.03681 41.7769 1.04164 42.0895 1.23105 42.4714C1.47845 42.9702 2.01843 43.5099 2.51736 43.7572C2.88369 43.9388 3.16406 43.9527 7.04269 43.9815C11.4179 44.014 11.6443 43.9956 12.3257 43.5536C12.6322 43.3547 12.7037 43.3406 12.8023 43.4593C12.8661 43.5361 13.1595 43.6891 13.4545 43.7994C13.9619 43.9893 14.2068 44 18.0196 44C21.8324 44 22.0773 43.9893 22.5847 43.7994C22.8796 43.6891 23.1742 43.5347 23.2394 43.4562C23.3417 43.3329 23.3957 43.3404 23.6356 43.5112C24.2965 43.9816 24.4893 44 28.7381 43.9994C31.1595 43.9991 32.8805 43.9592 33.1 43.8982C33.7115 43.7285 34.3631 43.2065 34.6962 42.6196L35.0018 42.0811L35.0282 32.6065C35.0465 26.1335 35.0221 23.0708 34.9515 22.939C34.7954 22.6475 34.2968 22.4259 33.9621 22.4994C33.8042 22.534 33.586 22.6757 33.477 22.8142C33.2875 23.055 33.2789 23.2083 33.2789 26.3492V29.6326H28.7996H24.3202L24.3187 25.5241C24.3177 22.4098 24.2872 21.3561 24.1928 21.1696C23.8756 20.5428 22.9133 20.5671 22.6083 21.2097C22.4657 21.5101 22.4497 22.5568 22.4497 31.5855V41.6272L22.2122 41.9033L21.9745 42.1795H18.036H14.0975L13.8435 41.9409L13.5894 41.7023V22.4981V3.29385L13.8433 3.05522L14.0972 2.81668L18.0616 2.76748C22.3334 2.71443 22.2207 2.72969 22.4511 2.17379C22.5472 1.94174 22.5466 1.82041 22.4481 1.58266C22.1999 0.983554 22.2942 0.995658 17.9238 1.00127C14.2044 1.00609 13.9 1.01947 13.4323 1.19926ZM27.8665 1.18863C27.1151 1.44794 26.4605 2.14239 26.2343 2.91991C25.7956 4.42829 26.5112 6.87223 28.0991 9.289L28.5343 9.95119L28.0991 10.6134C27.4518 11.5986 26.8278 12.8556 26.469 13.8969C26.1905 14.705 26.1496 14.9533 26.1458 15.8556C26.1409 17.0293 26.3015 17.5142 26.8921 18.1096C27.4729 18.6952 27.9651 18.8576 29.1441 18.8527C30.0468 18.8489 30.2952 18.808 31.1036 18.5296C32.1413 18.1725 33.4023 17.5476 34.3768 16.9079L35.0276 16.4806L35.8022 16.9627C36.9262 17.6621 37.9865 18.181 39.0181 18.5363C39.8053 18.8074 40.0597 18.8489 40.9578 18.8527C41.8048 18.8562 42.0718 18.8199 42.4356 18.6515C44.6334 17.6347 44.491 14.4739 42.0803 10.763L41.5529 9.95119L42.0802 9.13933C43.6827 6.67207 44.3158 4.42731 43.8514 2.85919C43.6315 2.11632 42.8891 1.37423 42.1459 1.15439C40.5886 0.693548 38.3507 1.32404 35.8735 2.92148L35.051 3.4519L34.2388 2.92483C31.7397 1.30308 29.3902 0.662944 27.8665 1.18863ZM28.6168 2.86864C27.8937 3.08523 27.7327 3.67695 28.0516 4.9467C28.2504 5.73848 29.1575 7.71794 29.5133 8.13656C29.6832 8.33652 29.7118 8.313 31.5737 6.43934L33.4619 4.53939L32.8043 4.15777C31.8831 3.62322 30.8433 3.18472 29.9626 2.95957C29.1438 2.75025 29.0361 2.74297 28.6168 2.86864ZM40.564 2.83095C39.942 2.94441 38.9553 3.30921 38.0536 3.75912C36.4148 4.57679 36.3603 4.28698 38.5643 6.47535L40.465 8.3628L40.8783 7.65624C41.8005 6.07936 42.3428 4.3104 42.1374 3.54833C42.08 3.33509 41.9351 3.09655 41.8154 3.01822C41.5707 2.85811 40.9358 2.76315 40.564 2.83095ZM34.112 6.48982C33.225 7.26418 31.4981 9.02891 31.0401 9.6291L30.7942 9.95138L31.1693 10.4187C31.7502 11.1425 33.6479 13.0543 34.3869 13.6603L35.0519 14.2057L35.519 13.8318C36.1229 13.3484 38.4488 11.0236 38.9318 10.4207L39.3046 9.95522L38.6639 9.1906C37.7718 8.12564 35.2552 5.71969 35.0336 5.71969C35.0119 5.71969 34.5972 6.06627 34.112 6.48982ZM17.3752 6.65012L17.1336 6.89161V21.5936V36.2955L17.3749 36.5559C17.7816 36.9945 18.5051 36.8921 18.7911 36.3554C18.8767 36.1947 18.9056 32.4457 18.9056 21.516V6.89161L18.6639 6.65012C18.4861 6.4723 18.3159 6.40853 18.0196 6.40853C17.7233 6.40853 17.553 6.4723 17.3752 6.65012ZM29.23 12.2361C28.6383 13.2488 28.2656 14.1158 28.0421 14.9991C27.8024 15.9465 27.8567 16.509 28.221 16.8509C28.7814 17.3769 30.5306 17.0067 32.4066 15.9649C32.9536 15.6612 33.401 15.3906 33.4009 15.3636C33.4008 15.3365 32.5538 14.4653 31.5185 13.4275L29.6363 11.5408L29.23 12.2361ZM38.5314 13.4552L36.6463 15.3616L37.2219 15.7111C39.1807 16.9005 41.2565 17.4202 41.8617 16.8727C42.3554 16.4262 42.2463 15.183 41.5796 13.658C41.2705 12.9508 40.4918 11.5059 40.4366 11.5372C40.4255 11.5435 39.5681 12.4065 38.5314 13.4552ZM3.04809 13.8461L2.80946 14.1001L2.78307 21.8663L2.75679 29.6326H7.23782H11.7189V21.9519C11.7189 13.8098 11.7197 13.8253 11.2715 13.6534C11.1839 13.6198 9.35148 13.5922 7.19952 13.5922H3.28683L3.04809 13.8461ZM2.78258 33.249L2.80946 34.9958L7.2642 35.0213L11.7189 35.0469V33.2746V31.5023H7.23733H2.7557L2.78258 33.249ZM24.3202 33.2746V35.0469L28.775 35.0213L33.2297 34.9958L33.2566 33.249L33.2835 31.5023H28.8018H24.3202V33.2746ZM2.80109 36.9501C2.77283 37.0237 2.76319 38.1078 2.77963 39.359L2.80946 41.6341L3.08235 41.9068L3.35515 42.1795L7.11456 42.2075C9.82344 42.2277 10.9518 42.2033 11.1527 42.1201C11.7026 41.8924 11.7189 41.8084 11.7189 39.2053V36.8163H7.28576C3.63878 36.8163 2.84342 36.84 2.80109 36.9501ZM24.3869 36.8808C24.3502 36.9176 24.3202 38.0049 24.3202 39.2973C24.3202 41.6433 24.3206 41.6476 24.5553 41.8822C24.6847 42.0115 24.9394 42.1445 25.1214 42.1779C25.3034 42.2113 27.0795 42.2252 29.0681 42.209L32.684 42.1795L32.9568 41.9068L33.2297 41.634V39.2498V36.8655L28.8416 36.8399C26.4282 36.8258 24.4235 36.8442 24.3869 36.8808Z" fill="#F7F6EF"/>
<path fill-rule="evenodd" clip-rule="evenodd" d="M13.4323 1.19926C12.8294 1.43111 12.2597 1.96772 11.9763 2.57066C11.7755 2.99794 11.7672 3.16976 11.7398 7.46001L11.7114 11.9064L11.4355 11.8103C11.2678 11.7518 9.56196 11.7255 7.08296 11.743C3.17007 11.7705 2.98853 11.7801 2.56334 11.9797C1.94725 12.2692 1.42095 12.837 1.18527 13.4668C0.987588 13.9948 0.985816 14.1431 1.01151 28.0407C1.03681 41.7769 1.04164 42.0895 1.23105 42.4714C1.47845 42.9702 2.01843 43.5099 2.51736 43.7572C2.88369 43.9388 3.16406 43.9527 7.04269 43.9815C11.4179 44.014 11.6443 43.9956 12.3257 43.5536C12.6322 43.3547 12.7037 43.3406 12.8023 43.4593C12.8661 43.5361 13.1595 43.6891 13.4545 43.7994C13.9619 43.9893 14.2068 44 18.0196 44C21.8324 44 22.0773 43.9893 22.5847 43.7994C22.8796 43.6891 23.1742 43.5347 23.2394 43.4562C23.3417 43.3329 23.3957 43.3404 23.6356 43.5112C24.2965 43.9816 24.4893 44 28.7381 43.9994C31.1595 43.9991 32.8805 43.9592 33.1 43.8982C33.7115 43.7285 34.3631 43.2065 34.6962 42.6196L35.0018 42.0811L35.0282 32.6065C35.0465 26.1335 35.0221 23.0708 34.9515 22.939C34.7954 22.6475 34.2968 22.4259 33.9621 22.4994C33.8042 22.534 33.586 22.6757 33.477 22.8142C33.2875 23.055 33.2789 23.2083 33.2789 26.3492V29.6326H28.7996H24.3202L24.3187 25.5241C24.3177 22.4098 24.2872 21.3561 24.1928 21.1696C23.8756 20.5428 22.9133 20.5671 22.6083 21.2097C22.4657 21.5101 22.4497 22.5568 22.4497 31.5855V41.6272L22.2122 41.9033L21.9745 42.1795H18.036H14.0975L13.8435 41.9409L13.5894 41.7023V22.4981V3.29385L13.8433 3.05522L14.0972 2.81668L18.0616 2.76748C22.3334 2.71443 22.2207 2.72969 22.4511 2.17379C22.5472 1.94174 22.5466 1.82041 22.4481 1.58266C22.1999 0.983554 22.2942 0.995658 17.9238 1.00127C14.2044 1.00609 13.9 1.01947 13.4323 1.19926ZM27.8665 1.18863C27.1151 1.44794 26.4605 2.14239 26.2343 2.91991C25.7956 4.42829 26.5112 6.87223 28.0991 9.289L28.5343 9.95119L28.0991 10.6134C27.4518 11.5986 26.8278 12.8556 26.469 13.8969C26.1905 14.705 26.1496 14.9533 26.1458 15.8556C26.1409 17.0293 26.3015 17.5142 26.8921 18.1096C27.4729 18.6952 27.9651 18.8576 29.1441 18.8527C30.0468 18.8489 30.2952 18.808 31.1036 18.5296C32.1413 18.1725 33.4023 17.5476 34.3768 16.9079L35.0276 16.4806L35.8022 16.9627C36.9262 17.6621 37.9865 18.181 39.0181 18.5363C39.8053 18.8074 40.0597 18.8489 40.9578 18.8527C41.8048 18.8562 42.0718 18.8199 42.4356 18.6515C44.6334 17.6347 44.491 14.4739 42.0803 10.763L41.5529 9.95119L42.0802 9.13933C43.6827 6.67207 44.3158 4.42731 43.8514 2.85919C43.6315 2.11632 42.8891 1.37423 42.1459 1.15439C40.5886 0.693548 38.3507 1.32404 35.8735 2.92148L35.051 3.4519L34.2388 2.92483C31.7397 1.30308 29.3902 0.662944 27.8665 1.18863ZM28.6168 2.86864C27.8937 3.08523 27.7327 3.67695 28.0516 4.9467C28.2504 5.73848 29.1575 7.71794 29.5133 8.13656C29.6832 8.33652 29.7118 8.313 31.5737 6.43934L33.4619 4.53939L32.8043 4.15777C31.8831 3.62322 30.8433 3.18472 29.9626 2.95957C29.1438 2.75025 29.0361 2.74297 28.6168 2.86864ZM40.564 2.83095C39.942 2.94441 38.9553 3.30921 38.0536 3.75912C36.4148 4.57679 36.3603 4.28698 38.5643 6.47535L40.465 8.3628L40.8783 7.65624C41.8005 6.07936 42.3428 4.3104 42.1374 3.54833C42.08 3.33509 41.9351 3.09655 41.8154 3.01822C41.5707 2.85811 40.9358 2.76315 40.564 2.83095ZM34.112 6.48982C33.225 7.26418 31.4981 9.02891 31.0401 9.6291L30.7942 9.95138L31.1693 10.4187C31.7502 11.1425 33.6479 13.0543 34.3869 13.6603L35.0519 14.2057L35.519 13.8318C36.1229 13.3484 38.4488 11.0236 38.9318 10.4207L39.3046 9.95522L38.6639 9.1906C37.7718 8.12564 35.2552 5.71969 35.0336 5.71969C35.0119 5.71969 34.5972 6.06627 34.112 6.48982ZM17.3752 6.65012L17.1336 6.89161V21.5936V36.2955L17.3749 36.5559C17.7816 36.9945 18.5051 36.8921 18.7911 36.3554C18.8767 36.1947 18.9056 32.4457 18.9056 21.516V6.89161L18.6639 6.65012C18.4861 6.4723 18.3159 6.40853 18.0196 6.40853C17.7233 6.40853 17.553 6.4723 17.3752 6.65012ZM29.23 12.2361C28.6383 13.2488 28.2656 14.1158 28.0421 14.9991C27.8024 15.9465 27.8567 16.509 28.221 16.8509C28.7814 17.3769 30.5306 17.0067 32.4066 15.9649C32.9536 15.6612 33.401 15.3906 33.4009 15.3636C33.4008 15.3365 32.5538 14.4653 31.5185 13.4275L29.6363 11.5408L29.23 12.2361ZM38.5314 13.4552L36.6463 15.3616L37.2219 15.7111C39.1807 16.9005 41.2565 17.4202 41.8617 16.8727C42.3554 16.4262 42.2463 15.183 41.5796 13.658C41.2705 12.9508 40.4918 11.5059 40.4366 11.5372C40.4255 11.5435 39.5681 12.4065 38.5314 13.4552ZM3.04809 13.8461L2.80946 14.1001L2.78307 21.8663L2.75679 29.6326H7.23782H11.7189V21.9519C11.7189 13.8098 11.7197 13.8253 11.2715 13.6534C11.1839 13.6198 9.35148 13.5922 7.19952 13.5922H3.28683L3.04809 13.8461ZM2.78258 33.249L2.80946 34.9958L7.2642 35.0213L11.7189 35.0469V33.2746V31.5023H7.23733H2.7557L2.78258 33.249ZM24.3202 33.2746V35.0469L28.775 35.0213L33.2297 34.9958L33.2566 33.249L33.2835 31.5023H28.8018H24.3202V33.2746ZM2.80109 36.9501C2.77283 37.0237 2.76319 38.1078 2.77963 39.359L2.80946 41.6341L3.08235 41.9068L3.35515 42.1795L7.11456 42.2075C9.82344 42.2277 10.9518 42.2033 11.1527 42.1201C11.7026 41.8924 11.7189 41.8084 11.7189 39.2053V36.8163H7.28576C3.63878 36.8163 2.84342 36.84 2.80109 36.9501ZM24.3869 36.8808C24.3502 36.9176 24.3202 38.0049 24.3202 39.2973C24.3202 41.6433 24.3206 41.6476 24.5553 41.8822C24.6847 42.0115 24.9394 42.1445 25.1214 42.1779C25.3034 42.2113 27.0795 42.2252 29.0681 42.209L32.684 42.1795L32.9568 41.9068L33.2297 41.634V39.2498V36.8655L28.8416 36.8399C26.4282 36.8258 24.4235 36.8442 24.3869 36.8808Z" stroke="#F7F6EF" stroke-width="0.4" mask="url(#path-1-outside-1_104_130)"/>
</svg>
