<svg width="43" height="45" viewBox="0 0 43 45" fill="none" xmlns="http://www.w3.org/2000/svg">
<path fill-rule="evenodd" clip-rule="evenodd" d="M7.55348 0.177067C7.01118 0.493976 6.86048 0.827129 6.79286 1.85933C6.69248 3.39168 6.27105 4.44799 5.36115 5.44804C4.43194 6.4694 3.19612 7.05703 1.71217 7.18309C0.805555 7.26016 0.461405 7.43731 0.156399 7.98382C-0.0157181 8.29218 -0.0242022 8.38279 0.0285501 9.33885C0.248715 13.3262 1.36567 18.7332 2.74798 22.5035C4.10341 26.2003 5.43936 28.8773 7.43437 31.894C10.4733 36.4895 14.1479 40.235 18.8515 43.5316C20.1953 44.4733 20.9251 44.9171 21.2224 44.9733C21.8548 45.0928 22.2752 44.8688 24.7443 43.0973C30.5319 38.9448 35.1003 33.5895 38.2414 27.2755C39.1482 25.4528 40.38 22.3313 40.9593 20.3885C41.9923 16.924 42.7965 12.508 42.9715 9.33885C43.0242 8.38279 43.0157 8.29218 42.8436 7.98382C42.5386 7.43731 42.1944 7.26016 41.2878 7.18309C40.833 7.14442 40.2305 7.0248 39.8602 6.89959C37.6852 6.16425 36.2129 4.08658 36.1997 1.73429C36.1953 0.939308 35.9989 0.509712 35.5074 0.21962L35.1353 0L21.4926 0.00194579C7.89956 0.00389157 7.84883 0.00448377 7.55348 0.177067ZM9.52825 3.02443C9.25038 4.40366 8.74394 5.61656 8.01817 6.64106C7.34642 7.5895 6.14673 8.61578 5.0779 9.15662C4.60229 9.39731 3.40923 9.81354 3.19512 9.81354C2.90884 9.81354 2.88339 9.95414 2.9894 10.9501C3.41772 14.9744 4.27444 18.5868 5.71009 22.4211C6.71188 25.0968 8.35896 28.2657 10.0621 30.7942C11.6327 33.1258 13.9894 35.8363 16.2159 37.8715C17.5542 39.0948 21.2175 41.8767 21.4901 41.8767C21.7301 41.8767 24.0534 40.1769 25.7 38.7965C29.7798 35.3767 33.1159 31.1517 35.5261 26.3527C36.4941 24.4252 36.769 23.8124 37.2899 22.4211C38.7545 18.5093 39.5741 15.0053 40.0456 10.6393C40.1185 9.96429 40.0758 9.81354 39.8111 9.81354C39.61 9.81354 38.3146 9.35991 37.8801 9.13733C35.6013 7.97011 34.0336 5.79608 33.472 3.02443L33.4249 2.79178H21.5H9.57512L9.52825 3.02443ZM20.282 6.39902C17.4228 6.72422 15.0007 7.84998 12.991 9.78765C11.1082 11.603 9.96102 13.7135 9.39024 16.4123C9.12496 17.6661 9.12253 19.7882 9.38478 21.0653C10.2265 25.1646 12.7035 28.3221 16.4674 30.094C17.9622 30.7977 19.6678 31.1576 21.5 31.1559C23.9559 31.1537 26.1761 30.496 28.1915 29.1734C31.0234 27.315 32.8395 24.613 33.613 21.1076C33.8713 19.9371 33.8712 17.6124 33.6128 16.4123C32.9131 13.1621 31.2094 10.4879 28.682 8.67263C26.9796 7.44983 25.3242 6.78268 23.222 6.47211C22.4684 6.36086 20.9496 6.32305 20.282 6.39902ZM19.9199 9.26592C17.9238 9.62006 16.0534 10.6311 14.6534 12.1128C12.8221 14.051 12.0079 16.1031 12.0079 18.7811C12.0079 20.6077 12.4143 22.1326 13.2972 23.6179C15.0143 26.507 17.8041 28.18 21.1299 28.3152C22.8142 28.3836 24.0102 28.1461 25.5293 27.4414C27.7111 26.4294 29.4824 24.5464 30.355 22.3118C30.8531 21.0359 30.945 20.4792 30.9448 18.7388C30.9447 17.2635 30.9264 17.0639 30.7222 16.3103C30.2178 14.4495 29.1104 12.6744 27.685 11.4423C26.6515 10.549 24.9559 9.68943 23.628 9.38572C22.6301 9.15747 20.8547 9.10011 19.9199 9.26592ZM26.4413 14.616C26.3639 14.6501 25.9859 14.9486 25.6013 15.2792C25.2167 15.6098 23.7023 16.9137 22.236 18.1767C20.7697 19.4397 19.5565 20.4731 19.5401 20.4731C19.5236 20.4731 18.9721 19.8443 18.3144 19.0759C17.6567 18.3074 17.0164 17.6255 16.8914 17.5603C16.06 17.1273 15.1048 17.536 14.8694 18.4253C14.7552 18.857 14.8759 19.3181 15.2138 19.7419C16.2764 21.0741 18.5335 23.6289 18.7455 23.7393C19.0371 23.8911 19.7294 23.9119 19.9809 23.7763C20.0733 23.7264 21.9177 22.1642 24.0795 20.3046C28.1874 16.7709 28.388 16.5671 28.388 15.9264C28.388 15.5413 28.2074 15.149 27.8929 14.8511C27.6677 14.6377 27.5527 14.5978 27.1056 14.5777C26.8176 14.5646 26.5187 14.5819 26.4413 14.616Z" fill="#F7F6EF"/>
</svg>
