<svg width="50" height="40" viewBox="0 0 50 40" fill="none" xmlns="http://www.w3.org/2000/svg">
<path fill-rule="evenodd" clip-rule="evenodd" d="M34.9097 0.159277C32.5331 0.592993 29.5081 2.92648 26.7163 6.47961C24.7495 8.983 22.9721 10.9111 22.2515 11.3229C21.6537 11.6644 20.7071 11.7266 15.7116 11.7519C10.256 11.7795 9.79514 11.8155 8.72228 12.2997C6.69398 13.2155 4.9809 15.3384 4.41476 17.638C4.16547 18.6506 4.05993 18.7714 3.22331 19.0018C2.00391 19.3376 0.538246 20.7198 0.240967 21.8141C0.101413 22.3281 0.00565813 26.1486 0.00682301 31.1442C0.00915279 39.9653 -0.134826 39.6676 0.790561 39.8499C1.68613 40.0262 2.09896 40.5084 2.09896 37.8353C2.09896 36.1739 2.19611 35.1913 2.37854 35.0047C2.78368 34.5903 43.5832 34.5903 43.9883 35.0047C44.1668 35.1873 44.2679 36.1157 44.2679 37.5729C44.2679 40.0058 44.3618 39.8918 45.1986 39.8918C46.1462 39.8918 46.3845 40.6778 46.4241 28.7242L46.4626 17.2043L47.1645 16.5485C47.5506 16.1877 47.9375 15.8927 48.0244 15.8927C48.1113 15.8927 48.4198 15.4904 48.7101 14.999C49.327 13.9538 49.6206 10.4805 49.1784 9.45842C48.5083 7.90991 47.2763 6.6886 45.9502 6.25798C45.6714 6.16743 45.2506 5.54879 44.8911 4.7009C44.1127 2.86523 43.0045 1.64249 41.3212 0.762189C40.1579 0.154034 39.6671 0.0427463 37.9775 0.00485579C36.8883 -0.0194513 35.5077 0.0498952 34.9097 0.159277ZM34.1865 2.8862C32.7166 3.50461 30.1881 5.62933 29.033 7.21716C27.6352 9.13838 24.623 12.6786 24.1389 12.9694C23.8696 13.1309 22.9807 13.4801 22.1635 13.7455C20.8439 14.1738 20.0839 14.226 15.3801 14.2102C10.6455 14.1945 10.0109 14.2386 9.40654 14.6256C8.0774 15.4768 7.22447 16.2258 7.22447 16.5416C7.22447 16.7181 7.05579 17.1261 6.84937 17.4481C5.97431 18.8143 5.29961 18.7611 22.6525 18.6944L38.5599 18.6332L38.7153 14.8203C38.8011 12.7232 38.9439 10.5785 39.0331 10.0542C39.25 8.7802 40.4301 7.23122 41.6469 6.62306C42.2554 6.31899 42.6368 5.96654 42.6361 5.70821C42.6347 4.94921 41.7254 3.74172 40.6115 3.01918C39.6144 2.37242 39.3402 2.30974 37.5241 2.31498C35.9688 2.31927 35.2361 2.44462 34.1865 2.8862ZM42.6813 8.73922C41.2909 9.625 41.2392 9.9927 41.2392 18.9937V27.1147L40.6672 27.6995L40.0955 28.2845H21.3385C-0.00971985 28.2845 2.13228 28.0374 2.13228 30.501C2.13228 31.3968 2.25249 31.9821 2.48547 32.2204C2.79533 32.5373 5.17893 32.5805 21.9806 32.5719C32.5088 32.5666 41.8077 32.498 42.6447 32.4196L44.167 32.2769L44.1486 24.2636C44.1386 19.8561 44.1887 15.8788 44.26 15.4253C44.3716 14.7133 44.5002 14.5772 45.1986 14.4311C46.1112 14.2403 47.0522 13.2692 47.0862 12.4835C47.1866 10.1547 46.9709 9.30662 46.1704 8.88315C44.9829 8.25498 43.5352 8.1954 42.6813 8.73922ZM3.64896 21.2305C3.15598 21.387 2.64762 21.7075 2.51925 21.9423C2.24644 22.441 2.17398 25.5812 2.42956 25.8424C2.63341 26.0514 36.7977 26.2163 37.9272 26.014L38.6925 25.8767L38.6261 23.4465L38.5599 21.0162L21.5526 20.981C8.92824 20.9545 4.31435 21.0188 3.64896 21.2305Z" fill="#F7F6EF"/>
</svg>
