<svg width="30" height="30" viewBox="0 0 30 30" fill="none" xmlns="http://www.w3.org/2000/svg">
<path fill-rule="evenodd" clip-rule="evenodd" d="M13.8845 0.0598835C9.18772 0.426489 5.07203 2.85919 2.42377 6.83406C1.93395 7.56924 1.22349 8.97991 0.897818 9.86371C0.039267 12.1941 -0.222075 15.0165 0.194174 17.4631C0.940812 21.8511 3.51455 25.6096 7.34017 27.8986C12.2168 30.8166 18.4657 30.686 23.2052 27.5671C28.5713 24.036 31.1021 17.5653 29.5471 11.353C28.1321 5.70013 23.4922 1.33466 17.7794 0.281501C16.9445 0.127604 15.4446 -0.0153469 14.8399 0.00132851C14.6648 0.00616566 14.2348 0.0325154 13.8845 0.0598835ZM20.4451 9.18568C20.0091 9.28668 19.5132 9.48736 14.8081 11.4675C8.35515 14.183 6.46123 14.9976 6.20339 15.1681C5.71115 15.4936 5.68205 15.954 6.13753 16.2099C6.27034 16.2845 7.00723 16.5352 7.77501 16.7671C9.13905 17.1792 9.18415 17.1882 9.74511 17.1606C10.1286 17.1417 10.4147 17.0901 10.607 17.0051C10.8886 16.8806 14.2683 14.6531 16.446 13.1567C17.6 12.3637 17.8295 12.2695 17.9021 12.5588C17.9246 12.6485 17.9049 12.7643 17.8556 12.832C17.8084 12.8967 16.6994 13.9935 15.391 15.2694C14.0825 16.5453 12.9719 17.6668 12.9228 17.7616C12.7987 18.0013 12.8113 18.2839 12.9589 18.573C13.0622 18.7753 13.3128 18.9703 14.3762 19.6766C15.0867 20.1484 16.1839 20.8859 16.8145 21.3155C18.125 22.2081 18.458 22.3797 18.9876 22.435C19.3335 22.4711 19.3835 22.46 19.5657 22.3068C20.0603 21.891 20.3382 20.7026 21.1151 15.681C21.8052 11.22 21.9604 9.83456 21.8025 9.54515C21.5927 9.16066 21.1077 9.03223 20.4451 9.18568Z" fill="#F7F6EF"/>
</svg>
