<svg width="30" height="30" viewBox="0 0 30 30" fill="none" xmlns="http://www.w3.org/2000/svg">
<path fill-rule="evenodd" clip-rule="evenodd" d="M13.5527 0.0359863C13.3977 0.0500771 12.9063 0.123208 12.4607 0.198523C6.20866 1.25512 1.30309 6.15709 0.193095 12.457C0.00591161 13.5193 -0.0584084 15.484 0.059171 16.5487C0.568658 21.163 2.99563 25.0913 6.93204 27.6733C8.25394 28.5403 10.3598 29.3918 11.9676 29.7094C13.1007 29.9331 13.8001 30 15.0091 30C17.4008 30 19.4625 29.5265 21.5839 28.49C26.2003 26.2344 29.3063 21.8418 29.9303 16.6861C30.0232 15.9182 30.0232 14.0685 29.9303 13.3006C29.7257 11.6104 29.2234 9.89896 28.4945 8.40949C26.2158 3.75228 21.7573 0.626389 16.582 0.0575452C15.9864 -0.0079769 14.1772 -0.0207995 13.5527 0.0359863ZM5.50284 10.5574C5.25753 10.6559 5.19561 10.9114 5.27733 11.4878C5.63133 13.984 7.5534 17.6191 9.4806 19.4373C11.1819 21.0424 13.0613 21.8683 14.6996 21.7309C15.3651 21.6751 15.6033 21.551 15.6977 21.2107C15.738 21.0655 15.7712 20.3502 15.7714 19.621C15.7717 18.8428 15.8019 18.2391 15.8448 18.1591C15.9015 18.0531 15.9937 18.0228 16.2594 18.0228C16.8696 18.0228 17.6336 18.6551 18.7706 20.1011C19.7079 21.293 19.9164 21.5238 20.1612 21.6399C20.4999 21.8007 22.6479 21.8114 22.9526 21.6538C23.5948 21.3217 23.1805 20.3854 21.4343 18.2235C20.404 16.9479 20.2806 16.765 20.2806 16.5146C20.2806 16.3542 20.4804 15.9941 21.0274 15.1689C23.0738 12.0818 23.6016 10.8449 22.9912 10.5668C22.7029 10.4355 20.5376 10.456 20.2492 10.5929C20.0637 10.6809 19.9219 10.8836 19.4989 11.6655C18.6109 13.3069 17.5301 14.9325 16.9967 15.4292C16.6012 15.7974 16.2087 15.8594 15.9448 15.5954L15.7718 15.4225L15.7714 13.288C15.7711 11.0842 15.73 10.6832 15.4916 10.5556C15.4113 10.5125 14.608 10.4843 13.4673 10.4843C11.8697 10.4843 11.5519 10.5013 11.4197 10.594C11.1955 10.751 11.2165 11.0829 11.4753 11.4706C11.9372 12.1627 11.9676 12.3419 11.9676 14.3665C11.9676 15.4959 11.9396 16.2527 11.8947 16.3366C11.8474 16.4249 11.7472 16.4729 11.6103 16.4729C10.991 16.4729 9.87166 14.5669 9.00563 12.0381C8.58153 10.7996 8.53799 10.7109 8.29262 10.584C8.06965 10.4686 5.77801 10.4468 5.50284 10.5574Z" fill="#F7F6EF"/>
</svg>
