<svg width="40" height="40" viewBox="0 0 40 40" fill="none" xmlns="http://www.w3.org/2000/svg">
<ellipse cx="15.2286" cy="15" rx="15.2286" ry="15" fill="#3E82DA"/>
<g clip-path="url(#clip0_310_3720)">
<path d="M33.7654 15.2966C33.9352 15.4567 34.0586 15.6318 34.1824 15.8335C34.2182 15.8914 34.2539 15.9492 34.2907 16.0089C34.3478 16.1021 34.3478 16.1021 34.4061 16.1973C34.4884 16.3304 34.5707 16.4635 34.653 16.5965C34.6842 16.6469 34.6842 16.6469 34.716 16.6984C34.9073 17.0077 35.1022 17.3142 35.2982 17.6201C35.7942 18.3958 36.2876 19.1732 36.7786 19.9525C36.9703 20.2564 37.1634 20.5592 37.3571 20.8616C37.4947 21.0767 37.6315 21.2922 37.7681 21.5079C37.8345 21.6123 37.9012 21.7165 37.9682 21.8204C38.062 21.9658 38.1545 22.1119 38.2468 22.2583C38.2749 22.3013 38.303 22.3442 38.3319 22.3884C38.4963 22.6525 38.5801 22.8412 38.5232 23.1677C38.3495 23.404 38.1448 23.5449 37.9028 23.6933C37.8705 23.7132 37.8383 23.7332 37.8051 23.7538C37.7001 23.8187 37.5948 23.883 37.4895 23.9473C37.3414 24.0384 37.1935 24.1297 37.0457 24.2212C37.0083 24.2442 36.9709 24.2672 36.9324 24.291C36.682 24.4458 36.4343 24.6048 36.1881 24.767C36.1245 24.8087 36.0609 24.8504 35.9954 24.8933C35.8754 24.9723 35.7558 25.0518 35.6364 25.1319C35.1211 25.4695 35.1211 25.4695 34.7849 25.4685C34.5346 25.3139 34.4998 25.2213 34.3884 24.9236C33.295 25.523 33.295 25.523 32.1794 26.1345C32.3476 26.2744 32.5159 26.4143 32.6892 26.5584C32.8093 26.7062 32.8093 26.7062 32.8839 26.8346C32.9095 26.8771 32.9351 26.9197 32.9616 26.9635C33.1872 27.431 33.2239 27.9629 33.1054 28.4734C32.9029 29.0075 32.5171 29.4298 32.0237 29.6576C31.8396 29.7068 31.8396 29.7068 31.7022 29.7061C31.5449 29.7068 31.4224 29.7127 31.2732 29.7673C31.1719 29.912 31.1141 30.0543 31.0502 30.2212C30.9054 30.5857 30.573 30.8018 30.2536 30.9783C30.0449 31.0489 29.8488 31.0433 29.6306 31.0388C29.6271 31.14 29.6271 31.14 29.6235 31.2432C29.5706 31.6801 29.3397 32.0581 29.0252 32.3368C28.7041 32.5683 28.3097 32.7119 27.9208 32.6547C27.8419 32.6341 27.8419 32.6341 27.7615 32.613C27.7498 32.6642 27.7381 32.7154 27.7261 32.7682C27.5622 33.2061 27.2941 33.4519 26.8957 33.6459C26.4944 33.7946 26.062 33.8212 25.6658 33.6423C25.0072 33.2926 24.4045 32.81 23.7966 32.3709C23.59 32.5561 23.3892 32.7385 23.209 32.9536C22.8987 33.2853 22.5843 33.4126 22.147 33.4266C21.6712 33.4067 21.3482 33.2138 21.0212 32.8552C20.8965 32.6704 20.8513 32.5989 20.8513 32.3709C20.7998 32.3806 20.7998 32.3806 20.7473 32.3905C20.3184 32.4561 19.9553 32.423 19.5902 32.1559C19.2972 31.8943 19.0707 31.6388 18.9963 31.228C18.9916 31.1656 18.987 31.1032 18.9822 31.0388C18.9472 31.0416 18.9122 31.0444 18.8762 31.0473C18.4209 31.0681 18.0821 30.9509 17.7184 30.6566C17.4306 30.349 17.2862 30.0366 17.2794 29.6008C17.2806 29.5359 17.2817 29.471 17.2829 29.4041C17.2501 29.4025 17.2172 29.4009 17.1834 29.3993C16.6913 29.3611 16.4447 29.1328 16.1227 28.7499C15.9339 28.4575 15.921 28.2093 15.9377 27.8639C15.9116 27.2809 15.5389 26.9556 15.1587 26.5746C15.0744 26.4921 15.0744 26.4921 14.9607 26.4373C14.9455 26.481 14.9303 26.5247 14.9147 26.5697C14.7413 27.0086 14.7413 27.0086 14.5642 27.1033C14.0831 27.1871 13.7625 26.9102 13.3712 26.6416C13.3011 26.5946 13.2309 26.5477 13.1607 26.5009C13.0178 26.4056 12.8753 26.3098 12.7329 26.2136C12.4268 26.0072 12.1165 25.8082 11.8065 25.6085C10.7392 24.9198 10.7392 24.9198 10.656 24.742C10.5884 24.2921 10.8086 23.9848 11.0206 23.6105C11.0592 23.5409 11.0977 23.4713 11.1361 23.4016C11.258 23.1815 11.3816 22.9626 11.5056 22.7439C11.5453 22.6736 11.5851 22.6034 11.6248 22.5331C11.7831 22.2536 11.9418 21.9743 12.1012 21.6954C12.3917 21.1866 12.676 20.6742 12.957 20.1593C13.2885 19.5521 13.6234 18.9472 13.9631 18.3451C14.1516 18.0106 14.3386 17.6752 14.5235 17.3384C14.5644 17.2641 14.6053 17.1898 14.6462 17.1154C14.7239 16.9742 14.8012 16.8327 14.8784 16.6911C14.9794 16.5074 15.0822 16.3254 15.1872 16.1443C15.2162 16.094 15.2452 16.0438 15.275 15.992C15.4125 15.7731 15.4842 15.6763 15.7213 15.5857C15.9645 15.6021 16.1249 15.6845 16.3271 15.8189C16.3851 15.8555 16.3851 15.8555 16.4443 15.893C16.5736 15.9754 16.7017 16.0597 16.8298 16.1443C16.875 16.1739 16.9202 16.2035 16.9667 16.234C17.2121 16.3947 17.4565 16.5568 17.7004 16.72C17.9251 16.8699 18.1514 17.0166 18.3788 17.1618C18.4381 17.1998 18.4974 17.2378 18.5586 17.2769C18.6736 17.3504 18.7888 17.4236 18.9043 17.4964C18.9564 17.5298 19.0085 17.5632 19.0623 17.5977C19.1314 17.6415 19.1314 17.6415 19.202 17.6862C19.3309 17.7859 19.4086 17.8768 19.4919 18.0212C19.5153 18.2615 19.4974 18.4204 19.3786 18.6267C19.7892 18.689 20.2015 18.7262 20.6154 18.751C20.6972 18.7564 20.779 18.7631 20.8606 18.7709C21.3562 18.8293 21.3562 18.8293 21.7926 18.6194C21.9127 18.4618 21.9127 18.4618 22.0045 18.2951C22.2174 17.9449 22.581 17.7678 22.947 17.658C23.1061 17.6453 23.2594 17.6382 23.4185 17.6376C23.4642 17.6371 23.5098 17.6366 23.5569 17.6361C23.7064 17.6349 23.8559 17.6349 24.0055 17.6353C24.0569 17.6353 24.1084 17.6352 24.1614 17.6352C25.5548 17.638 26.9085 17.842 28.2836 18.0637C28.8825 18.1568 29.4792 18.1897 30.0837 18.2029C30.0559 18.1572 30.0281 18.1116 29.9994 18.0645C29.9138 17.9002 29.9138 17.9002 29.9032 17.692C30.0759 17.1381 30.8409 16.8405 31.2944 16.5568C31.4568 16.4546 31.6191 16.3523 31.7814 16.25C31.8209 16.2251 31.8605 16.2002 31.9012 16.1746C32.2604 15.9481 32.6164 15.7164 32.9702 15.4804C33.261 15.2877 33.4266 15.2006 33.7654 15.2966ZM32.9206 16.688C32.8816 16.7128 32.8426 16.7377 32.8025 16.7632C32.6772 16.843 32.5522 16.9232 32.4272 17.0033C32.3443 17.0562 32.2613 17.109 32.1783 17.1619C31.7987 17.404 31.4208 17.6485 31.0466 17.9002C31.1031 17.9961 31.1598 18.0919 31.2165 18.1878C31.2481 18.2411 31.2796 18.2945 31.3121 18.3495C31.7131 19.0178 32.1351 19.672 32.5511 20.3296C32.6449 20.4778 32.7386 20.6259 32.8323 20.7741C32.8964 20.8754 32.9604 20.9766 33.0245 21.0779C33.2128 21.3756 33.4009 21.6735 33.5889 21.9715C33.7059 22.1571 33.8231 22.3427 33.9402 22.5282C33.9951 22.6152 34.05 22.7023 34.1049 22.7894C34.4175 23.2858 34.7346 23.7767 35.0681 24.2576C35.3176 24.1613 35.5403 24.0257 35.7675 23.8815C35.8068 23.8567 35.8461 23.8319 35.8865 23.8064C35.9693 23.7541 36.052 23.7017 36.1346 23.6491C36.2606 23.5691 36.387 23.4897 36.5134 23.4104C36.594 23.3593 36.6746 23.3083 36.7551 23.2571C36.7927 23.2336 36.8303 23.2101 36.8691 23.1858C37.0683 23.0583 37.2347 22.9286 37.3904 22.7439C36.6706 21.5856 35.9453 20.4315 35.2156 19.2804C34.8993 18.7814 34.5836 18.282 34.268 17.7826C34.174 17.6339 34.08 17.4852 33.986 17.3365C33.9286 17.2457 33.8712 17.1549 33.8138 17.0641C33.7876 17.0226 33.7613 16.981 33.7343 16.9382C33.631 16.7748 33.5279 16.6112 33.4255 16.447C33.2334 16.447 33.0816 16.5845 32.9206 16.688ZM15.9236 16.8103C15.8471 16.9302 15.7785 17.049 15.7109 17.1745C15.6898 17.2129 15.6687 17.2513 15.647 17.2909C15.5771 17.418 15.5079 17.5456 15.4386 17.6731C15.3404 17.8522 15.242 18.0311 15.1437 18.21C15.1187 18.2554 15.0938 18.3008 15.0681 18.3476C14.8531 18.7391 14.6329 19.1272 14.4112 19.5145C14.0502 20.1449 13.6999 20.781 13.3568 21.4227C13.0478 21.9986 12.7263 22.566 12.401 23.1314C12.1662 23.5409 11.9428 23.9544 11.7322 24.3787C11.7894 24.4152 11.7894 24.4152 11.8478 24.4524C12.0264 24.5665 12.205 24.6807 12.3835 24.7949C12.4157 24.8154 12.4478 24.8359 12.4809 24.8571C12.8018 25.0619 13.1223 25.2669 13.436 25.4841C13.4772 25.5125 13.5184 25.541 13.5608 25.5702C13.6356 25.6223 13.7101 25.675 13.7841 25.7284C13.9623 25.8581 13.9623 25.8581 14.1698 25.882C14.3138 25.817 14.3445 25.7537 14.4179 25.6073C14.4429 25.559 14.4678 25.5106 14.4935 25.4607C14.5338 25.3803 14.5338 25.3803 14.5748 25.2982C14.6354 25.181 14.6962 25.064 14.7571 24.947C14.7898 24.8842 14.8225 24.8214 14.8562 24.7567C15.0384 24.4141 15.2318 24.0789 15.4244 23.7429C15.7594 23.1574 16.0885 22.5685 16.4121 21.9757C16.7162 21.4189 17.0221 20.8635 17.3325 20.3107C17.3671 20.249 17.4017 20.1874 17.4373 20.1239C17.5989 19.8366 17.7618 19.5502 17.9274 19.2655C17.9568 19.2149 17.9862 19.1642 18.0165 19.112C18.071 19.0184 18.1257 18.925 18.1809 18.832C18.3226 18.5962 18.3226 18.5962 18.3591 18.324C18.2285 18.2292 18.1006 18.1476 17.9626 18.0667C17.4588 17.762 16.9696 17.4352 16.4815 17.1026C16.3973 17.0457 16.3973 17.0457 16.3114 16.9877C16.2612 16.9535 16.211 16.9193 16.1592 16.8841C16.0438 16.8004 16.0438 16.8004 15.9236 16.8103ZM22.5611 19.1111C22.4878 19.2003 22.4878 19.2003 22.4129 19.2913C22.236 19.5138 22.0622 19.7387 21.8905 19.9658C21.7446 20.1574 21.5957 20.3458 21.446 20.5339C21.256 20.7729 21.0681 21.0133 20.8832 21.2567C20.6563 21.5552 20.4226 21.847 20.1857 22.1364C19.9964 22.3698 19.8268 22.6114 19.6618 22.865C20.06 23.0315 20.3783 22.9785 20.7687 22.7987C21.2036 22.5586 21.5195 22.2493 21.8567 21.8735C21.9073 21.8186 21.9579 21.7636 22.01 21.707C22.2648 21.4287 22.5115 21.1449 22.7494 20.85C22.8613 20.7118 22.9769 20.5783 23.0957 20.4469C23.1361 20.4014 23.1766 20.3559 23.2183 20.309C23.3656 20.1819 23.4373 20.1448 23.6267 20.1404C24.0001 20.2652 24.2989 20.5161 24.6144 20.7572C24.7321 20.8459 24.8498 20.9345 24.9677 21.023C25.0276 21.068 25.0875 21.113 25.1493 21.1594C25.4156 21.3575 25.6855 21.5496 25.956 21.7411C26.5351 22.1516 27.1115 22.5662 27.6871 22.9823C27.776 23.0465 27.8649 23.1108 27.9538 23.175C28.3763 23.4803 28.7987 23.786 29.2208 24.0921C29.4127 24.2312 29.6046 24.3702 29.7965 24.5092C29.888 24.5754 29.9795 24.6418 30.0709 24.7082C30.1983 24.8007 30.3257 24.893 30.4532 24.9853C30.5089 25.0259 30.5089 25.0259 30.5658 25.0673C30.6687 25.1417 30.7724 25.2146 30.8767 25.2869C30.9118 25.3117 30.947 25.3366 30.9832 25.3622C31.1743 25.4959 31.1743 25.4959 31.3945 25.5135C31.4285 25.4918 31.4625 25.4702 31.4975 25.4479C31.5376 25.4238 31.5776 25.3998 31.6189 25.3749C31.6614 25.3471 31.7038 25.3193 31.7475 25.2907C31.8415 25.2334 31.9355 25.1762 32.0296 25.1192C32.0803 25.0878 32.1309 25.0565 32.183 25.0242C32.4921 24.8372 32.8089 24.6659 33.1246 24.4922C33.2476 24.424 33.3705 24.3557 33.4934 24.2874C33.5841 24.2371 33.6747 24.1868 33.7654 24.1365C33.7291 23.9016 33.6245 23.7414 33.5012 23.5457C33.4797 23.5113 33.4581 23.4769 33.4359 23.4415C33.3643 23.3273 33.2923 23.2134 33.2202 23.0996C33.1697 23.0193 33.1192 22.9391 33.0688 22.8587C32.9333 22.6432 32.7973 22.428 32.6613 22.2129C32.575 22.0765 32.4889 21.9401 32.4029 21.8036C32.1768 21.445 31.9504 21.0866 31.7238 20.7284C31.685 20.667 31.685 20.667 31.6453 20.6042C31.5944 20.524 31.5431 20.4439 31.4915 20.3641C31.3695 20.1751 31.2533 19.9858 31.1463 19.7866C30.9415 19.4025 30.9415 19.4025 30.605 19.1683C30.4198 19.147 30.2484 19.1511 30.0625 19.1641C29.9258 19.1661 29.789 19.1676 29.6523 19.1686C29.548 19.1705 29.548 19.1705 29.4417 19.1724C29.1147 19.1712 28.7938 19.1338 28.4695 19.0922C28.4067 19.0844 28.3439 19.0766 28.2792 19.0685C27.8256 19.0101 27.3741 18.9387 26.9225 18.8651C25.9447 18.707 24.9838 18.6163 23.9949 18.6078C23.9564 18.6072 23.9179 18.6066 23.8783 18.606C23.7679 18.6046 23.6574 18.6046 23.547 18.6047C23.4513 18.6044 23.4513 18.6044 23.3536 18.6042C22.9986 18.6486 22.7906 18.8312 22.5611 19.1111ZM18.7556 19.656C18.4439 20.2094 18.133 20.7634 17.825 21.3192C17.7923 21.3781 17.7923 21.3781 17.759 21.4383C17.7369 21.4782 17.7148 21.5181 17.692 21.5592C17.3124 22.2442 16.9314 22.9281 16.5444 23.6083C16.4837 23.7149 16.4232 23.8216 16.3628 23.9284C16.1972 24.2199 16.0311 24.5109 15.8596 24.7985C15.8346 24.8411 15.8095 24.8838 15.7837 24.9277C15.721 25.034 15.6574 25.1397 15.5937 25.2452C15.5122 25.399 15.5122 25.399 15.5567 25.5331C15.6605 25.6783 15.7691 25.8144 15.8846 25.9491C15.9299 26.0019 15.9752 26.0548 16.0218 26.1092C16.1561 26.2625 16.2922 26.4123 16.4333 26.5584C16.6585 26.4624 16.7896 26.3027 16.9537 26.1156C17.3237 25.706 17.689 25.4319 18.2281 25.3928C18.6306 25.3992 19.0146 25.5555 19.322 25.8318C19.4275 25.9872 19.5189 26.1479 19.6052 26.3162C19.6543 26.2962 19.7033 26.2762 19.7539 26.2556C20.1927 26.1253 20.6875 26.1151 21.1062 26.3162C21.4257 26.5139 21.6001 26.7871 21.7752 27.126C21.8367 27.377 21.853 27.6322 21.8708 27.8904C21.9334 27.9124 21.9334 27.9124 21.9972 27.9349C22.458 28.104 22.7656 28.2631 23.0036 28.738C23.0245 28.8615 23.0445 28.9851 23.0638 29.1089C23.097 29.3002 23.097 29.3002 23.1736 29.4646C23.3273 29.5656 23.4683 29.6104 23.6422 29.6602C23.9421 29.7507 24.1149 29.9454 24.2674 30.2328C24.4435 30.6483 24.4437 31.0825 24.363 31.5232C25.2984 32.3616 25.2984 32.3616 26.3961 32.7554C26.6115 32.717 26.708 32.6003 26.8552 32.4314C26.8938 32.3045 26.8938 32.3045 26.9118 32.1892C26.7609 32.0629 26.6098 31.9368 26.4587 31.8108C26.4131 31.7727 26.3675 31.7346 26.3204 31.6953C26.0912 31.5045 25.8611 31.3157 25.6268 31.132C25.5856 31.0996 25.5445 31.0673 25.502 31.0339C25.4238 30.9727 25.3454 30.912 25.2666 30.8517C24.9318 30.5894 24.9318 30.5894 24.8728 30.3728C24.8834 30.1533 24.8834 30.1533 24.9294 29.949C25.1412 29.7981 25.245 29.802 25.4958 29.8279C25.6474 29.9173 25.6474 29.9173 25.7967 30.0474C25.8548 30.0967 25.9128 30.146 25.9726 30.1968C26.0046 30.2246 26.0365 30.2524 26.0694 30.281C26.4021 30.5687 26.7425 30.8463 27.0811 31.126C27.178 31.2063 27.2742 31.2876 27.3703 31.369C27.5755 31.5356 27.7398 31.6675 28.0022 31.6859C28.3019 31.6272 28.4723 31.5133 28.6606 31.2583C28.7388 31.0633 28.7494 30.9469 28.7243 30.7361C28.6042 30.5924 28.6042 30.5924 28.4305 30.4712C28.3628 30.419 28.2952 30.3667 28.2276 30.3144C28.1898 30.2856 28.1519 30.2568 28.1129 30.2271C27.8714 30.0405 27.6366 29.8442 27.4004 29.65C27.1157 29.4162 26.8314 29.1836 26.5353 28.9665C26.4957 28.9372 26.4562 28.9078 26.4154 28.8776C26.3429 28.8242 26.2696 28.7718 26.1956 28.7207C26.0103 28.5836 25.9527 28.5113 25.8956 28.2742C25.8924 28.077 25.8981 27.9871 26.0056 27.8298C26.1881 27.7323 26.3123 27.745 26.5154 27.7693C26.6935 27.8694 26.8463 27.9994 27.0039 28.1326C27.05 28.1702 27.0961 28.2078 27.1436 28.2466C27.2422 28.3272 27.3405 28.4083 27.4385 28.4897C27.6459 28.6621 27.855 28.8322 28.0641 29.0023C28.1639 29.0836 28.2635 29.1651 28.3628 29.2469C28.6009 29.4423 28.8407 29.6347 29.0843 29.822C29.1514 29.8736 29.1514 29.8736 29.2198 29.9263C29.4244 30.0598 29.5605 30.0786 29.8005 30.0701C30.0939 29.9675 30.2234 29.8143 30.3669 29.5252C30.3929 29.2936 30.3929 29.2936 30.2947 29.2013C30.2439 29.165 30.2439 29.165 30.1921 29.1281C30.154 29.1001 30.1158 29.0722 30.0764 29.0434C30.0344 29.0138 29.9925 28.9842 29.9492 28.9537C29.8601 28.8889 29.7711 28.8239 29.6821 28.7589C29.636 28.7255 29.5899 28.692 29.5423 28.6576C29.3246 28.4983 29.1112 28.3325 28.8978 28.1666C28.8126 28.1006 28.7273 28.0346 28.642 27.9687C28.5997 27.9358 28.5573 27.903 28.5136 27.8692C28.3403 27.7351 28.1668 27.6014 27.9932 27.4677C27.8248 27.3378 27.6566 27.2077 27.4883 27.0775C27.3644 26.9818 27.2402 26.8864 27.1161 26.7911C27.0385 26.7312 26.961 26.6713 26.8835 26.6113C26.8479 26.5841 26.8122 26.5569 26.7755 26.5289C26.6174 26.4061 26.5117 26.3103 26.4021 26.1345C26.3759 25.9156 26.3764 25.8114 26.4941 25.6274C26.6721 25.4973 26.7546 25.5018 26.9685 25.5291C27.116 25.6181 27.2438 25.7062 27.3791 25.8129C27.4378 25.8576 27.4378 25.8576 27.4977 25.9032C27.624 25.9997 27.7494 26.0974 27.8747 26.1951C27.958 26.2591 28.0414 26.323 28.1248 26.3869C28.3387 26.5511 28.5519 26.7163 28.765 26.8818C29.0196 27.0794 29.2747 27.2761 29.53 27.4728C29.7514 27.6435 29.9723 27.8149 30.1926 27.9874C30.2384 28.0231 30.2841 28.0588 30.3313 28.0956C30.4186 28.1637 30.5058 28.232 30.5928 28.3006C31.0188 28.6539 31.0188 28.6539 31.5316 28.7343C31.7657 28.6947 31.9025 28.6257 32.0661 28.4353C32.2376 28.1727 32.2504 27.9762 32.2254 27.669C32.0694 27.1877 31.6232 26.9518 31.2449 26.6908C31.142 26.6188 31.0393 26.5467 30.9366 26.4745C30.8631 26.4228 30.7896 26.3712 30.716 26.3197C30.3067 26.0327 29.9014 25.7395 29.4961 25.4461C29.3184 25.3174 29.1406 25.1889 28.9629 25.0604C28.8715 24.9943 28.7802 24.9283 28.6888 24.8622C28.3617 24.6257 28.0345 24.3894 27.7072 24.1533C27.6604 24.1194 27.6135 24.0856 27.5651 24.0507C27.3289 23.8803 27.0927 23.71 26.8564 23.5397C26.4225 23.2268 25.9888 22.9136 25.556 22.5988C25.3618 22.4575 25.1675 22.3164 24.9731 22.1753C24.8811 22.1084 24.7891 22.0414 24.6972 21.9743C24.5704 21.8817 24.4434 21.7895 24.3163 21.6973C24.2792 21.6701 24.242 21.6428 24.2037 21.6146C24.0174 21.48 23.8398 21.3691 23.6267 21.2908C23.4742 21.452 23.3221 21.6135 23.17 21.7752C23.1061 21.8427 23.1061 21.8427 23.0409 21.9116C22.8016 22.1663 22.5734 22.4266 22.353 22.7001C21.8083 23.3636 21.0885 23.8222 20.2601 23.9087C19.7107 23.9257 19.1278 23.796 18.699 23.4099C18.5638 23.2654 18.5319 23.1998 18.5135 22.9951C18.5318 22.771 18.5769 22.7001 18.7131 22.532C18.775 22.4541 18.775 22.4541 18.8381 22.3747C18.8857 22.3167 18.9332 22.2587 18.9822 22.199C19.0367 22.131 19.0912 22.063 19.1457 21.9949C19.2326 21.8861 19.3197 21.7774 19.4071 21.669C19.6227 21.4016 19.8328 21.13 20.0406 20.8556C20.1397 20.7268 20.2398 20.5997 20.3415 20.4734C20.3847 20.4196 20.3847 20.4196 20.4288 20.3647C20.4853 20.2945 20.5421 20.2246 20.5991 20.1548C20.748 19.9896 20.748 19.9896 20.7947 19.7771C20.5941 19.7057 20.4082 19.7027 20.1993 19.6974C20.158 19.6961 20.1168 19.6949 20.0743 19.6936C19.9427 19.6896 19.8111 19.6861 19.6795 19.6825C19.5903 19.6799 19.501 19.6772 19.4117 19.6746C19.193 19.6681 18.9743 19.662 18.7556 19.656ZM17.6228 26.8005C17.5594 26.8635 17.4959 26.9263 17.4323 26.989C17.3647 27.0573 17.2972 27.1257 17.2298 27.1941C17.197 27.2264 17.1641 27.2587 17.1302 27.2919C16.9628 27.4664 16.8925 27.5635 16.8303 27.8114C16.8297 28.069 16.9042 28.1795 17.0564 28.3748C17.2348 28.4702 17.376 28.4924 17.5661 28.4353C17.7757 28.2762 17.9516 28.0847 18.1325 27.8904C18.1848 27.8375 18.237 27.7846 18.2907 27.73C18.6189 27.4045 18.6189 27.4045 18.8122 26.9822C18.8072 26.7665 18.7581 26.683 18.6352 26.5092C18.4801 26.364 18.4801 26.364 18.2848 26.3313C17.9789 26.3978 17.8395 26.5689 17.6228 26.8005ZM19.5123 27.7315C19.4778 27.7682 19.4434 27.8049 19.4079 27.8427C19.3356 27.9199 19.2634 27.9973 19.1914 28.0747C19.0812 28.1932 18.9704 28.311 18.8596 28.4287C18.7892 28.504 18.7188 28.5794 18.6485 28.6548C18.599 28.7074 18.599 28.7074 18.5484 28.7611C18.2856 29.0372 18.2856 29.0372 18.1806 29.4041C18.2035 29.6319 18.2227 29.7397 18.3697 29.9149C18.5515 30.0229 18.6601 30.0701 18.8689 30.0701C19.1738 29.9098 19.3957 29.7148 19.6326 29.4573C19.6656 29.422 19.6986 29.3868 19.7326 29.3505C19.8017 29.2765 19.8706 29.2023 19.9393 29.1278C20.0442 29.0143 20.1498 28.9016 20.2555 28.789C20.3228 28.7166 20.3902 28.6442 20.4575 28.5718C20.4888 28.5383 20.5201 28.5049 20.5524 28.4705C20.7613 28.2431 20.9413 28.0365 20.9929 27.7125C20.953 27.4514 20.8535 27.3522 20.6814 27.1638C20.2002 26.9067 19.8243 27.3955 19.5123 27.7315ZM20.8874 29.4121C20.8603 29.441 20.8333 29.47 20.8054 29.4998C20.7489 29.5604 20.6925 29.6212 20.6362 29.682C20.5499 29.7754 20.4632 29.8683 20.3764 29.961C20.0148 30.3113 20.0148 30.3113 19.8707 30.7853C19.8724 30.9863 19.8881 31.0382 19.9946 31.2167C20.1498 31.3777 20.21 31.3986 20.4265 31.4399C20.7582 31.4311 20.9361 31.1966 21.1571 30.9555C21.2637 30.8399 21.3725 30.7269 21.4814 30.6138C21.5641 30.5273 21.6467 30.4406 21.7292 30.3539C21.7693 30.3119 21.8093 30.2699 21.8506 30.2266C21.8882 30.1865 21.9259 30.1463 21.9646 30.1048C22.0153 30.0511 22.0153 30.0511 22.067 29.9962C22.1849 29.8503 22.2633 29.7197 22.274 29.5252C22.2511 29.3232 22.2262 29.1878 22.1222 29.0143C21.6104 28.6636 21.2672 29.0042 20.8874 29.4121ZM22.4372 30.9177C22.3829 30.9745 22.3284 31.0312 22.274 31.0878C21.8792 31.4551 21.8792 31.4551 21.6797 31.9432C21.6874 32.1315 21.6874 32.1315 21.7929 32.2687C21.9616 32.3967 22.0599 32.4314 22.2673 32.4314C22.5467 32.26 22.7617 32.0407 22.9859 31.7957C23.0181 31.7612 23.0503 31.7268 23.0834 31.6914C23.3888 31.3838 23.3888 31.3838 23.5382 30.9821C23.5066 30.7458 23.4551 30.6507 23.2868 30.4939C22.884 30.3945 22.7009 30.6334 22.4372 30.9177Z" fill="white"/>
</g>
<defs>
<clipPath id="clip0_310_3720">
<rect width="29" height="31" fill="white" transform="translate(10.0898 9)"/>
</clipPath>
</defs>
</svg>
