<svg width="39" height="40" viewBox="0 0 39 40" fill="none" xmlns="http://www.w3.org/2000/svg">
<ellipse cx="15.2286" cy="15" rx="15.2286" ry="15" fill="#3E82DA"/>
<path d="M25.9443 12.0006C26.0793 12.0015 26.2143 12.0025 26.3534 12.0035C27.3775 12.0247 28.2643 12.142 29.2064 12.5656C29.3579 12.6322 29.5094 12.6989 29.6655 12.7675C31.7665 13.799 33.2593 15.5417 34.121 17.7041C34.5215 19.0265 34.6675 20.7731 34.3236 22.1177C34.0394 22.125 33.7549 22.1246 33.4707 22.1177C33.4144 22.0614 33.3581 22.0051 33.3001 21.9471C33.3001 21.6657 33.3001 21.3842 33.3001 21.0942C32.4558 21.0379 31.6115 20.9817 30.7416 20.9237C30.7556 21.1488 30.7697 21.374 30.7842 21.606C30.7842 22.4508 30.6415 23.2202 30.4431 24.0366C30.4163 24.1514 30.3895 24.2662 30.3619 24.3844C30.1572 25.1797 29.8575 25.7319 29.377 26.382C29.0393 26.2976 29.0393 26.2976 28.6947 26.2114C28.751 25.8174 28.8073 25.4234 28.8653 25.0174C27.6832 24.8485 27.6832 24.8485 26.4773 24.6763C26.4773 24.8451 26.4773 25.014 26.4773 25.188C26.0551 25.2724 26.0551 25.2724 25.6244 25.3586C25.5682 25.1334 25.5119 24.9082 25.4539 24.6763C24.2718 24.8451 24.2718 24.8451 23.0659 25.0174C23.1503 25.6084 23.1503 25.6084 23.2364 26.2114C22.8987 26.2958 22.8987 26.2958 22.5542 26.382C22.0014 25.6341 21.7003 24.9464 21.4881 24.0366C21.4446 23.8579 21.4446 23.8579 21.4003 23.6755C21.1863 22.7418 21.1296 21.8828 21.1896 20.9237C20.3453 20.98 19.5009 21.0362 18.631 21.0942C18.631 21.3757 18.631 21.6571 18.631 21.9471C18.4605 22.1177 18.4605 22.1177 18.0234 22.1283C17.8862 22.1248 17.749 22.1213 17.6076 22.1177C17.051 19.9607 17.6642 17.9441 18.6397 16.0217C19.7503 14.1633 21.6248 12.8183 23.6942 12.2105C24.4476 12.0296 25.1717 11.9948 25.9443 12.0006ZM26.4773 13.0773C26.4773 14.0905 26.4773 15.1037 26.4773 16.1476C27.3216 16.1476 28.1659 16.1476 29.0359 16.1476C28.4359 14.7977 27.9734 13.7986 26.6479 13.0773C26.5916 13.0773 26.5353 13.0773 26.4773 13.0773ZM23.9187 14.1008C23.5148 14.7664 23.2128 15.4333 22.8953 16.1476C23.7396 16.1476 24.584 16.1476 25.4539 16.1476C25.4539 15.1344 25.4539 14.1212 25.4539 13.0773C24.889 13.0773 24.2882 13.7333 23.9187 14.1008ZM21.6267 14.3886C21.4616 14.5054 21.2964 14.6221 21.1263 14.7424C20.6781 15.124 20.4345 15.4578 20.1662 15.9771C20.729 16.0333 21.2919 16.0896 21.8719 16.1476C21.9172 16.0324 21.9625 15.9172 22.0091 15.7985C22.0694 15.6463 22.1296 15.4942 22.1917 15.3374C22.2807 15.1118 22.2807 15.1118 22.3716 14.8817C22.5311 14.4975 22.7039 14.1287 22.8953 13.7596C22.3569 13.7596 22.0573 14.0792 21.6267 14.3886ZM29.0359 13.7596C29.3736 14.4914 29.7113 15.2231 30.0593 15.9771C30.5659 15.9771 31.0725 15.9771 31.5944 15.9771C31.4046 15.2178 31.2971 15.1261 30.6989 14.6764C30.5679 14.5757 30.4368 14.475 30.3018 14.3713C29.8371 14.0475 29.8371 14.0475 29.0359 13.7596ZM19.4839 16.8299C18.9139 17.8558 18.6535 18.7419 18.4605 19.9002C19.3611 19.9002 20.2617 19.9002 21.1896 19.9002C21.3022 18.9433 21.4147 17.9864 21.5307 17.0005C20.8553 16.9442 20.1798 16.8879 19.4839 16.8299ZM30.4004 17.0005C30.513 17.9574 30.6256 18.9143 30.7416 19.9002C31.5859 19.9002 32.4302 19.9002 33.3001 19.9002C33.2325 18.6825 33.0542 17.8872 32.4473 16.8299C31.6486 16.8158 31.6486 16.8158 30.4004 17.0005ZM22.5542 17.1711C22.1579 18.5219 22.1579 18.5219 22.213 19.9002C23.2825 19.9002 24.352 19.9002 25.4539 19.9002C25.4539 18.9996 25.4539 18.099 25.4539 17.1711C24.497 17.1711 23.5401 17.1711 22.5542 17.1711ZM26.4773 17.1711C26.4773 18.0717 26.4773 18.9723 26.4773 19.9002C27.5468 19.9002 28.6163 19.9002 29.7181 19.9002C29.7733 18.5219 29.7733 18.5219 29.377 17.1711C28.4201 17.1711 27.4632 17.1711 26.4773 17.1711ZM22.213 20.9237C22.1799 22.1366 22.1799 22.1366 22.3836 23.2371C22.4399 23.4305 22.4962 23.624 22.5542 23.8234C23.5397 23.8439 24.4781 23.7948 25.4539 23.6528C25.4539 22.7522 25.4539 21.8516 25.4539 20.9237C24.3844 20.9237 23.3149 20.9237 22.213 20.9237ZM26.4773 20.9237C26.4773 21.8243 26.4773 22.7249 26.4773 23.6528C27.236 23.7612 27.8541 23.8443 28.5988 23.8341C28.7463 23.8325 28.8938 23.831 29.0459 23.8294C29.1551 23.8274 29.2644 23.8254 29.377 23.8234C29.4333 23.6299 29.4896 23.4364 29.5476 23.2371C29.5792 23.1282 29.6109 23.0194 29.6435 22.9072C29.7521 22.2546 29.7181 21.5853 29.7181 20.9237C28.6487 20.9237 27.5792 20.9237 26.4773 20.9237Z" fill="white"/>
<path d="M31.1318 34.1862C31.423 34.3988 31.423 34.3988 31.7641 34.9105C31.8403 35.4126 31.8273 35.9171 31.8281 36.4243C31.8322 36.5613 31.8364 36.6983 31.8407 36.8394C31.8442 37.5359 31.8205 37.8915 31.4403 38.4939C30.8913 39.0143 30.5787 39.027 29.8386 39.0344C29.6502 39.0366 29.4617 39.0388 29.2675 39.0411C29.063 39.0423 28.8585 39.0436 28.6478 39.0449C28.3336 39.047 28.3336 39.047 28.013 39.0491C27.5689 39.0514 27.1248 39.0533 26.6807 39.0546C26.0012 39.0569 25.3219 39.065 24.6424 39.0726C24.2114 39.0743 23.7805 39.0757 23.3495 39.0769C23.0443 39.0814 23.0443 39.0814 22.7329 39.0859C21.3211 39.0822 21.3211 39.0822 20.6379 38.6799C20.0599 37.9949 20.1162 37.3392 20.1013 36.4776C20.0949 36.3399 20.0885 36.2021 20.082 36.0602C20.0713 35.3373 20.091 35.0104 20.5337 34.4148C21.0182 34.0576 21.4505 33.8198 22.0096 33.5992C22.2592 33.498 22.2592 33.498 22.5139 33.3947C25.4516 32.3823 28.4214 32.6525 31.1318 34.1862ZM21.1887 35.2517C21.1795 35.6425 21.1729 36.0334 21.1674 36.4243C21.1634 36.642 21.1595 36.8597 21.1554 37.084C21.1279 37.6543 21.1279 37.6543 21.5298 37.9808C21.9205 38.033 21.9205 38.033 22.3774 38.025C22.5538 38.026 22.7303 38.0271 22.9121 38.0282C23.1032 38.0275 23.2944 38.0268 23.4914 38.0261C23.687 38.0265 23.8826 38.0268 24.0841 38.0271C24.4982 38.0273 24.9123 38.0267 25.3264 38.0253C25.962 38.0235 26.5976 38.0253 27.2333 38.0275C27.6349 38.0272 28.0364 38.0268 28.438 38.0261C28.7247 38.0272 28.7247 38.0272 29.0173 38.0282C29.282 38.0266 29.282 38.0266 29.552 38.025C29.7078 38.0247 29.8636 38.0244 30.0241 38.0241C30.4349 38.0161 30.4349 38.0161 30.7407 37.6397C30.7822 37.067 30.7822 37.067 30.762 36.4243C30.7589 36.2058 30.7558 35.9872 30.7527 35.762C30.7487 35.5936 30.7447 35.4252 30.7407 35.2517C27.5239 33.3713 24.452 33.4607 21.1887 35.2517Z" fill="white"/>
<path d="M37.7353 30.1347C38.2333 30.568 38.3975 30.9126 38.4522 31.5826C38.4679 32.5281 38.4788 33.2598 37.9058 34.0579C37.2993 34.4715 36.7313 34.443 36.0122 34.4443C35.8966 34.4446 35.781 34.445 35.6619 34.4453C35.4185 34.4455 35.1751 34.4449 34.9317 34.4435C34.5584 34.4417 34.1853 34.4435 33.8121 34.4456C33.5754 34.4454 33.3386 34.445 33.1019 34.4443C32.8865 34.4439 32.6711 34.4435 32.4491 34.4432C31.9358 34.399 31.9358 34.399 31.5947 34.0579C31.651 33.8327 31.7073 33.6076 31.7653 33.3756C33.5665 33.3193 35.3677 33.263 37.2235 33.205C37.2235 32.6421 37.2235 32.0792 37.2235 31.4993C36.2162 30.4919 34.895 30.1955 33.4996 30.116C32.2898 30.1578 31.1381 30.446 30.0596 30.9876C29.5905 31.0089 29.5905 31.0089 29.2067 30.9876C29.1504 30.7061 29.0941 30.4247 29.0361 30.1347C31.8192 28.5521 34.9627 28.5215 37.7353 30.1347Z" fill="white"/>
<path d="M22.8954 30.1337C22.8391 30.4151 22.7829 30.6966 22.7249 30.9865C22.0653 31.0231 21.6219 30.9207 21.0192 30.6561C19.2043 29.8649 17.4253 30.1063 15.6022 30.7933C15.1626 30.9904 15.1626 30.9904 14.708 31.4983C14.708 32.0612 14.708 32.624 14.708 33.204C17.4099 33.2884 17.4099 33.2884 20.1663 33.3746C20.1663 33.656 20.1663 33.9374 20.1663 34.2274C19.7137 34.68 18.4217 34.4372 17.7706 34.439C17.3984 34.4406 17.0264 34.4459 16.6543 34.4513C16.4168 34.4524 16.1794 34.4533 15.942 34.454C15.618 34.4564 15.618 34.4564 15.2875 34.4588C14.6656 34.3935 14.3484 34.2631 13.8552 33.8863C13.3803 33.0255 13.4246 32.1136 13.514 31.1571C13.7768 30.4306 14.1929 30.1328 14.8739 29.7772C17.5804 28.5621 20.3006 28.6865 22.8954 30.1337Z" fill="white"/>
<path d="M27.3934 26.2431C28.2159 26.811 28.6575 27.4497 28.8646 28.4286C28.8812 29.4516 28.7049 30.2028 28.0118 30.9872C27.1901 31.6116 26.5574 31.7818 25.5265 31.7348C24.6183 31.5917 24.0806 31.1968 23.5129 30.4648C23.085 29.6911 22.993 29.1383 23.0652 28.258C23.3739 27.3587 23.7875 26.7322 24.6003 26.2112C25.5276 25.9021 26.4736 25.9195 27.3934 26.2431ZM24.1952 28.0555C24.0292 28.6366 24.1063 29.0414 24.2592 29.6226C24.7707 30.2259 25.1271 30.609 25.9223 30.6993C26.6277 30.6315 26.9607 30.4173 27.5 29.9637C27.8031 29.4631 27.8442 29.1837 27.8199 28.5992C27.6476 28.0087 27.408 27.6797 26.9883 27.2346C25.8479 26.6644 24.9086 27.1151 24.1952 28.0555Z" fill="white"/>
<path d="M19.3136 23.3125C20.1353 23.7156 20.6102 24.2 21.0193 25.0182C21.1811 25.927 21.0189 26.6305 20.5076 27.4062C19.8799 27.9868 19.439 28.2368 18.578 28.3017C17.6698 28.2402 17.1488 27.9887 16.5312 27.3209C16.0482 26.6054 16.0152 26.0383 16.0728 25.1888C16.6509 23.6369 17.7495 23.1252 19.3136 23.3125ZM17.2668 25.0182C17.0538 25.5991 17.0538 25.5991 17.0962 26.2122C17.4215 26.8108 17.6337 27.0158 18.2795 27.2357C18.9048 27.2357 19.1653 27.1046 19.6548 26.7239C20.052 26.2334 20.052 26.2334 19.9853 25.6259C19.8724 25.004 19.8724 25.004 19.4416 24.6024C18.5301 24.0846 17.9723 24.2539 17.2668 25.0182Z" fill="white"/>
<path d="M34.1524 23.3115C35.0253 23.7642 35.5472 24.255 35.8581 25.1878C35.9257 26.0832 35.8352 26.6468 35.3464 27.4053C34.7187 27.9859 34.2777 28.2358 33.4168 28.3008C32.5085 28.2392 31.9876 27.9877 31.37 27.32C30.8788 26.5923 30.7958 25.8766 30.9116 25.0173C31.5977 23.645 32.6496 23.0422 34.1524 23.3115ZM32.1056 25.0173C31.8926 25.5981 31.8926 25.5981 31.935 26.2113C32.2603 26.8099 32.4725 27.0149 33.1183 27.2347C33.7435 27.2347 34.0041 27.1037 34.4935 26.723C34.8908 26.2324 34.8908 26.2324 34.824 25.6249C34.7111 25.003 34.7111 25.003 34.2803 24.6015C33.3689 24.0836 32.8111 24.2529 32.1056 25.0173Z" fill="white"/>
</svg>
