<svg width="43" height="42" viewBox="0 0 43 42" fill="none" xmlns="http://www.w3.org/2000/svg">
<ellipse cx="15.2286" cy="15" rx="15.2286" ry="15" fill="#3E82DA"/>
<g clip-path="url(#clip0_310_3645)">
<path d="M24.9021 13.9646C24.9792 13.9643 25.0564 13.9638 25.1336 13.9632C25.3429 13.9619 25.5521 13.9624 25.7614 13.9633C25.9805 13.964 26.1996 13.9633 26.4187 13.9629C26.7867 13.9624 27.1547 13.9631 27.5226 13.9644C27.9479 13.9659 28.3731 13.9654 28.7984 13.9639C29.1636 13.9626 29.5289 13.9625 29.8942 13.9632C30.1123 13.9636 30.3304 13.9637 30.5485 13.9627C30.7535 13.962 30.9586 13.9625 31.1636 13.9641C31.2388 13.9644 31.314 13.9643 31.3892 13.9637C31.9638 13.9596 31.9638 13.9596 32.2094 14.1156C32.3211 14.3083 32.3325 14.4249 32.3276 14.6471C32.3267 14.7178 32.3258 14.7884 32.3249 14.8612C32.3226 14.9353 32.3203 15.0094 32.318 15.0835C32.3166 15.1587 32.3154 15.2338 32.3142 15.309C32.311 15.4925 32.3065 15.6759 32.3009 15.8594C32.3492 15.8591 32.3492 15.8591 32.3985 15.8588C33.1822 15.8539 33.9659 15.8503 34.7495 15.8481C35.1285 15.8469 35.5075 15.8454 35.8865 15.8429C36.2521 15.8405 36.6176 15.8392 36.9832 15.8386C37.1229 15.8382 37.2625 15.8374 37.4021 15.8363C37.5974 15.8347 37.7926 15.8345 37.9878 15.8346C38.0458 15.8338 38.1039 15.833 38.1636 15.8322C38.5543 15.8344 38.5543 15.8344 38.7336 15.9601C38.8783 16.1874 38.8712 16.3979 38.8704 16.6579C38.8705 16.7009 38.8706 16.7438 38.8707 16.7881C38.871 16.9332 38.8708 17.0783 38.8707 17.2234C38.8708 17.328 38.8709 17.4327 38.8711 17.5373C38.8714 17.8257 38.8714 18.1141 38.8713 18.4025C38.8713 18.7132 38.8716 19.0239 38.8719 19.3346C38.8724 19.9436 38.8725 20.5526 38.8725 21.1617C38.8726 21.6565 38.8727 22.1514 38.8728 22.6462C38.8732 23.8198 38.8736 24.9934 38.8736 26.167C38.8736 26.2045 38.8736 26.2421 38.8736 26.2808C38.8735 26.4711 38.8735 26.6614 38.8735 26.8517C38.8735 26.9084 38.8735 26.9084 38.8735 26.9663C38.8735 27.0427 38.8735 27.1192 38.8735 27.1956C38.8735 28.3852 38.8739 29.5747 38.8747 30.7642C38.8755 32.1 38.876 33.4357 38.8759 34.7714C38.8759 35.4789 38.876 36.1865 38.8766 36.894C38.8771 37.4963 38.8773 38.0986 38.8769 38.7009C38.8767 39.0084 38.8767 39.3159 38.8772 39.6234C38.8776 39.9047 38.8775 40.1859 38.877 40.4672C38.877 40.5692 38.8771 40.6712 38.8774 40.7731C38.8777 40.9113 38.8775 41.0495 38.877 41.1877C38.8773 41.2277 38.8776 41.2676 38.8778 41.3088C38.8763 41.5259 38.8594 41.6988 38.754 41.8906C38.5586 42.0209 38.4745 42.0138 38.2424 42.0141C38.2068 42.0143 38.1713 42.0145 38.1346 42.0147C38.0145 42.0152 37.8945 42.0149 37.7745 42.0146C37.6879 42.0148 37.6012 42.0151 37.5146 42.0154C37.276 42.0161 37.0374 42.016 36.7987 42.0159C36.5416 42.0159 36.2845 42.0165 36.0274 42.017C35.5234 42.0179 35.0195 42.0182 34.5155 42.0183C34.106 42.0183 33.6966 42.0186 33.2871 42.0189C32.1271 42.0199 30.9671 42.0204 29.8071 42.0203C29.7445 42.0203 29.6819 42.0203 29.6174 42.0203C29.5548 42.0203 29.4921 42.0203 29.4276 42.0203C28.4117 42.0202 27.3959 42.0213 26.38 42.0228C25.3379 42.0244 24.2957 42.0251 23.2536 42.025C22.6681 42.025 22.0826 42.0253 21.4972 42.0265C20.9988 42.0275 20.5004 42.0277 20.002 42.027C19.7476 42.0266 19.4932 42.0266 19.2387 42.0276C19.006 42.0284 18.7733 42.0283 18.5406 42.0273C18.4562 42.0271 18.3718 42.0273 18.2874 42.028C18.173 42.0287 18.0587 42.0282 17.9444 42.0272C17.8808 42.0273 17.8171 42.0273 17.7516 42.0273C17.5545 41.994 17.4916 41.9379 17.3712 41.7813C17.3057 41.5847 17.3088 41.406 17.3093 41.2015C17.3092 41.1585 17.3091 41.1156 17.309 41.0713C17.3087 40.9262 17.3088 40.7811 17.3088 40.636C17.3087 40.5314 17.3085 40.4268 17.3083 40.3221C17.3079 40.0337 17.3078 39.7453 17.3078 39.4569C17.3077 39.1462 17.3073 38.8355 17.3069 38.5248C17.3061 37.8451 17.3058 37.1654 17.3056 36.4856C17.3054 36.0615 17.3052 35.6373 17.3049 35.2132C17.3043 34.0396 17.3037 32.866 17.3035 31.6924C17.3035 31.6165 17.3035 31.5406 17.3035 31.4647C17.3035 31.3886 17.3035 31.3125 17.3035 31.2364C17.3034 31.0838 17.3034 30.9311 17.3034 30.7785C17.3034 30.7406 17.3034 30.7028 17.3034 30.6638C17.3032 29.4361 17.3023 28.2083 17.301 26.9806C17.2997 25.6831 17.2989 24.3855 17.2989 23.088C17.2988 22.3805 17.2985 21.673 17.2975 20.9654C17.2967 20.3631 17.2964 19.7608 17.2968 19.1585C17.297 18.851 17.297 18.5435 17.2962 18.236C17.2955 17.9547 17.2956 17.6735 17.2963 17.3922C17.2964 17.2902 17.2962 17.1882 17.2957 17.0863C17.2951 16.9481 17.2955 16.8099 17.2962 16.6717C17.2958 16.6317 17.2953 16.5918 17.2949 16.5506C17.2981 16.2455 17.3765 16.0728 17.59 15.8594C17.7016 15.8459 17.7016 15.8459 17.8419 15.8462C17.8949 15.8461 17.948 15.8459 18.0027 15.8458C18.0903 15.8464 18.0903 15.8464 18.1797 15.847C18.241 15.847 18.3024 15.8469 18.3656 15.8469C18.5692 15.847 18.7728 15.8479 18.9764 15.8487C19.1172 15.8489 19.2581 15.8491 19.3989 15.8492C19.7322 15.8496 20.0656 15.8504 20.3989 15.8515C20.7783 15.8527 21.1577 15.8533 21.5372 15.8539C22.3178 15.855 23.0984 15.857 23.879 15.8594C23.8776 15.8128 23.8762 15.7662 23.8747 15.7181C23.87 15.5444 23.8666 15.3706 23.864 15.1968C23.8626 15.1218 23.8608 15.0467 23.8584 14.9717C23.8551 14.8635 23.8537 14.7553 23.8523 14.6471C23.8509 14.5821 23.8495 14.5171 23.848 14.4501C23.879 14.2735 23.879 14.2735 23.9706 14.1156C24.2623 13.9302 24.5652 13.9619 24.9021 13.9646ZM24.8634 14.9844C24.8634 15.8867 24.8634 16.7891 24.8634 17.7188C26.9929 17.7188 29.1225 17.7188 31.3165 17.7188C31.3165 16.8164 31.3165 15.9141 31.3165 14.9844C29.187 14.9844 27.0575 14.9844 24.8634 14.9844ZM18.3009 16.8438C18.3009 24.8205 18.3009 32.7972 18.3009 41.0156C24.7617 41.0156 31.2225 41.0156 37.879 41.0156C37.879 33.0389 37.879 25.0622 37.879 16.8438C36.0382 16.8438 34.1975 16.8438 32.3009 16.8438C32.2828 17.3671 32.2648 17.8905 32.2462 18.4297C32.0301 18.6458 31.9025 18.6553 31.6095 18.6561C31.5132 18.6566 31.5132 18.6566 31.4148 18.6571C31.3443 18.6571 31.2737 18.6572 31.201 18.6573C31.126 18.6575 31.051 18.6578 30.9759 18.6581C30.7721 18.6588 30.5683 18.6592 30.3644 18.6594C30.2371 18.6596 30.1097 18.6598 29.9824 18.66C29.584 18.6608 29.1855 18.6613 28.7871 18.6615C28.3272 18.6618 27.8672 18.6627 27.4073 18.6643C27.0517 18.6655 26.6962 18.666 26.3407 18.6661C26.1283 18.6662 25.916 18.6665 25.7036 18.6675C25.5039 18.6684 25.3041 18.6685 25.1044 18.668C24.9962 18.6679 24.8881 18.6687 24.7799 18.6695C24.6831 18.669 24.6831 18.669 24.5843 18.6685C24.5283 18.6686 24.4723 18.6687 24.4146 18.6688C24.2204 18.6429 24.0732 18.5692 23.9337 18.4297C23.9157 17.9063 23.8976 17.383 23.879 16.8438C22.0382 16.8438 20.1975 16.8438 18.3009 16.8438Z" fill="white"/>
<path d="M33.766 21.9078C33.8634 21.9067 33.8634 21.9067 33.9629 21.9057C34.0331 21.9058 34.1034 21.906 34.1757 21.9062C34.2478 21.9059 34.3199 21.9056 34.3941 21.9053C34.5467 21.9048 34.6993 21.9049 34.8519 21.9055C35.0473 21.9061 35.2426 21.905 35.4379 21.9034C35.6245 21.9022 35.811 21.9025 35.9975 21.9027C36.1027 21.9018 36.1027 21.9018 36.21 21.9009C36.2752 21.9014 36.3403 21.9019 36.4074 21.9024C36.4647 21.9024 36.5221 21.9025 36.5811 21.9025C36.7707 21.9372 36.8338 21.9968 36.9496 22.1486C37.0209 22.3753 37.0122 22.6025 37.012 22.8378C37.0122 22.8858 37.0123 22.9338 37.0125 22.9832C37.013 23.1442 37.013 23.3053 37.0131 23.4663C37.0134 23.5817 37.0136 23.697 37.0139 23.8123C37.0147 24.1259 37.015 24.4394 37.0153 24.753C37.0154 24.9488 37.0156 25.1446 37.0159 25.3405C37.0166 25.9529 37.0172 26.5654 37.0174 27.1779C37.0176 27.8853 37.0186 28.5928 37.0202 29.3002C37.0213 29.8468 37.0219 30.3934 37.022 30.94C37.022 31.2665 37.0224 31.5931 37.0233 31.9197C37.0242 32.2268 37.0243 32.5339 37.0239 32.841C37.0238 32.9538 37.0241 33.0665 37.0246 33.1792C37.0253 33.3331 37.025 33.487 37.0244 33.6408C37.0251 33.7078 37.0251 33.7078 37.0257 33.7761C37.0234 34.0418 36.9856 34.2222 36.8402 34.4533C36.6739 34.5759 36.5228 34.5767 36.3199 34.5777C36.2595 34.5782 36.199 34.5787 36.1368 34.5793C36.0718 34.5792 36.0068 34.5792 35.9398 34.5791C35.8728 34.5794 35.8058 34.5796 35.7367 34.5798C35.595 34.5802 35.4533 34.5802 35.3116 34.5799C35.0947 34.5798 34.8778 34.5811 34.661 34.5824C34.5233 34.5826 34.3856 34.5826 34.2479 34.5825C34.183 34.5831 34.1181 34.5836 34.0513 34.5841C33.9907 34.5837 33.9301 34.5834 33.8677 34.583C33.788 34.5831 33.788 34.5831 33.7067 34.5831C33.5268 34.5582 33.4281 34.5109 33.2856 34.3986C33.154 34.1572 33.1608 33.9156 33.1623 33.6478C33.162 33.5757 33.162 33.5757 33.1618 33.5021C33.1613 33.3411 33.1617 33.1802 33.162 33.0191C33.1619 32.9037 33.1617 32.7883 33.1614 32.6728C33.161 32.3593 33.1611 32.0458 33.1615 31.7322C33.1618 31.4043 33.1615 31.0763 33.1613 30.7484C33.1611 30.1976 33.1614 29.6469 33.1619 29.0961C33.1625 28.4591 33.1623 27.8221 33.1617 27.1852C33.1612 26.6385 33.1612 26.0919 33.1614 25.5452C33.1616 25.2186 33.1616 24.892 33.1613 24.5654C33.161 24.2584 33.1612 23.9514 33.1618 23.6443C33.162 23.5316 33.1619 23.4188 33.1617 23.3061C33.1614 23.1523 33.1617 22.9985 33.1623 22.8448C33.1621 22.8 33.1618 22.7553 33.1616 22.7091C33.1635 22.4314 33.1933 22.2244 33.3547 21.9962C33.4925 21.8999 33.5989 21.9086 33.766 21.9078ZM34.1606 22.9142C34.1606 26.4334 34.1606 29.9525 34.1606 33.5783C34.7742 33.5783 35.3877 33.5783 36.0199 33.5783C36.0199 30.0592 36.0199 26.54 36.0199 22.9142C35.4063 22.9142 34.7927 22.9142 34.1606 22.9142Z" fill="white"/>
<path d="M29.111 23.7724C29.1747 23.7715 29.2384 23.7707 29.304 23.7698C29.3729 23.7695 29.4418 23.7692 29.5127 23.7689C29.5835 23.7684 29.6542 23.7679 29.7271 23.7674C29.8769 23.7665 30.0266 23.766 30.1764 23.7659C30.368 23.7656 30.5595 23.7635 30.751 23.761C30.9341 23.759 31.1172 23.7589 31.3003 23.7586C31.369 23.7575 31.4376 23.7565 31.5084 23.7554C31.5724 23.7557 31.6365 23.756 31.7024 23.7564C31.7587 23.7561 31.8149 23.7558 31.8728 23.7555C32.0889 23.8026 32.1629 23.8913 32.3005 24.0626C32.3274 24.2138 32.3374 24.3314 32.3349 24.4822C32.3352 24.5241 32.3356 24.5659 32.336 24.609C32.337 24.749 32.336 24.8889 32.335 25.0289C32.3353 25.1294 32.3357 25.2298 32.3362 25.3302C32.3372 25.6029 32.3365 25.8755 32.3354 26.1482C32.3345 26.4334 32.335 26.7186 32.3353 27.0038C32.3355 27.4827 32.3347 27.9616 32.3332 28.4405C32.3314 28.9944 32.3314 29.5483 32.3323 30.1022C32.3332 30.6348 32.3328 31.1675 32.3319 31.7001C32.3315 31.9269 32.3316 32.1537 32.332 32.3805C32.3324 32.6474 32.3318 32.9143 32.3303 33.1813C32.3299 33.2794 32.3299 33.3774 32.3303 33.4755C32.3307 33.6092 32.3299 33.7428 32.3287 33.8765C32.3291 33.9154 32.3296 33.9544 32.33 33.9945C32.3269 34.1801 32.3129 34.2735 32.1962 34.4209C32.0126 34.5605 31.9066 34.57 31.6782 34.5723C31.5859 34.5733 31.5859 34.5733 31.4917 34.5744C31.425 34.5748 31.3582 34.5752 31.2894 34.5756C31.1868 34.5763 31.1868 34.5763 31.0822 34.577C30.9372 34.5777 30.7923 34.5783 30.6473 34.5787C30.462 34.5793 30.2766 34.5812 30.0913 34.5834C29.9142 34.5852 29.7371 34.5854 29.5599 34.5859C29.4603 34.5873 29.4603 34.5873 29.3586 34.5888C29.2966 34.5886 29.2346 34.5885 29.1706 34.5883C29.1162 34.5886 29.0618 34.5889 29.0057 34.5893C28.8135 34.5552 28.7217 34.477 28.5818 34.3438C28.5006 34.1816 28.5194 34.0166 28.5198 33.8387C28.5196 33.7974 28.5195 33.7562 28.5194 33.7137C28.519 33.5747 28.5191 33.4358 28.5191 33.2968C28.519 33.1975 28.5188 33.0981 28.5186 32.9988C28.5181 32.7284 28.518 32.458 28.5179 32.1876C28.5179 31.9622 28.5177 31.7367 28.5175 31.5112C28.517 30.9794 28.5169 30.4475 28.5169 29.9157C28.517 29.3665 28.5164 28.8174 28.5155 28.2682C28.5148 27.7972 28.5145 27.3263 28.5146 26.8553C28.5146 26.5738 28.5144 26.2922 28.5138 26.0107C28.5133 25.746 28.5133 25.4812 28.5137 25.2165C28.5138 25.1192 28.5136 25.022 28.5133 24.9247C28.5129 24.7921 28.5131 24.6595 28.5135 24.5269C28.5133 24.4883 28.513 24.4496 28.5127 24.4098C28.5141 24.2129 28.5209 24.0618 28.6364 23.8985C28.8228 23.7743 28.8918 23.7747 29.111 23.7724ZM29.5114 24.7735C29.5114 27.6791 29.5114 30.5846 29.5114 33.5782C30.107 33.5782 30.7025 33.5782 31.3161 33.5782C31.3161 30.6727 31.3161 27.7671 31.3161 24.7735C30.7206 24.7735 30.125 24.7735 29.5114 24.7735Z" fill="white"/>
<path d="M24.4766 25.6139C24.5724 25.6129 24.5724 25.6129 24.6701 25.6118C24.7386 25.6125 24.8071 25.6133 24.8776 25.614C24.9837 25.6138 24.9837 25.6138 25.0919 25.6136C25.2413 25.6135 25.3906 25.6143 25.5399 25.6158C25.7312 25.6176 25.9223 25.6173 26.1135 25.6163C26.2963 25.6156 26.479 25.6166 26.6618 25.6174C26.7304 25.6172 26.799 25.6169 26.8697 25.6166C26.9652 25.6179 26.9652 25.6179 27.0627 25.6192C27.1187 25.6196 27.1747 25.6199 27.2324 25.6203C27.4172 25.6557 27.481 25.7231 27.5981 25.8672C27.6727 26.0163 27.6602 26.1344 27.6608 26.3013C27.6612 26.3706 27.6616 26.4398 27.662 26.5112C27.6622 26.5883 27.6623 26.6655 27.6625 26.7427C27.6628 26.8236 27.6632 26.9045 27.6636 26.9854C27.6645 27.2057 27.6651 27.4259 27.6655 27.6461C27.6658 27.7837 27.6662 27.9212 27.6665 28.0587C27.6675 28.4889 27.6683 28.9191 27.6688 29.3493C27.6693 29.8462 27.6708 30.343 27.673 30.8399C27.6746 31.2237 27.6754 31.6076 27.6756 31.9914C27.6757 32.2208 27.6762 32.4501 27.6776 32.6795C27.6789 32.8952 27.6791 33.111 27.6785 33.3268C27.6785 33.4059 27.6789 33.4851 27.6796 33.5643C27.6806 33.6724 27.6801 33.7806 27.6795 33.8887C27.6796 33.9492 27.6797 34.0097 27.6799 34.072C27.6465 34.2723 27.5737 34.3632 27.434 34.5078C27.2922 34.5787 27.1885 34.5698 27.0296 34.5704C26.937 34.5709 26.937 34.5709 26.8426 34.5715C26.7422 34.5716 26.7422 34.5716 26.6398 34.5717C26.5713 34.5718 26.5028 34.572 26.4322 34.5722C26.287 34.5725 26.1418 34.5726 25.9966 34.5726C25.8108 34.5726 25.6249 34.5733 25.4391 34.5743C25.2617 34.575 25.0843 34.575 24.9069 34.5751C24.8402 34.5755 24.7735 34.5759 24.7047 34.5763C24.6427 34.5761 24.5807 34.5759 24.5167 34.5758C24.4349 34.5759 24.4349 34.5759 24.3514 34.576C24.2007 34.5618 24.1144 34.5362 23.9887 34.4531C23.8604 34.2605 23.8653 34.1815 23.8644 33.9535C23.8638 33.8833 23.8633 33.813 23.8627 33.7407C23.8627 33.6627 23.8626 33.5847 23.8626 33.5067C23.8622 33.4246 23.8617 33.3426 23.8612 33.2606C23.86 33.0377 23.8595 32.8148 23.8593 32.5918C23.8591 32.4526 23.8587 32.3133 23.8583 32.1741C23.857 31.6883 23.8563 31.2026 23.8561 30.7168C23.8559 30.2639 23.8543 29.8111 23.852 29.3582C23.8501 28.9694 23.8492 28.5807 23.8492 28.1919C23.8491 27.9597 23.8487 27.7275 23.8471 27.4953C23.8457 27.2769 23.8456 27.0585 23.8464 26.8401C23.8465 26.7599 23.8462 26.6798 23.8453 26.5996C23.8442 26.4902 23.8449 26.3807 23.8457 26.2713C23.8456 26.1794 23.8456 26.1794 23.8454 26.0857C23.9166 25.742 24.1447 25.6142 24.4766 25.6139ZM24.8637 26.6328C24.8637 28.9247 24.8637 31.2167 24.8637 33.5781C25.4593 33.5781 26.0548 33.5781 26.6684 33.5781C26.6684 31.2861 26.6684 28.9942 26.6684 26.6328C26.0729 26.6328 25.4773 26.6328 24.8637 26.6328Z" fill="white"/>
<path d="M36.457 18.7032C36.5112 19.01 36.5653 19.3168 36.6211 19.6329C36.4945 19.6527 36.368 19.6726 36.2376 19.693C33.2915 20.0883 33.2915 20.0883 30.6499 21.3384C30.6028 21.3723 30.5557 21.4061 30.5071 21.441C30.0898 21.7457 29.6982 22.073 29.3227 22.4276C29.1654 22.5738 29.0029 22.712 28.835 22.8458C28.8027 22.8716 28.7704 22.8974 28.7371 22.924C27.7881 23.6345 26.3499 23.4397 25.2299 23.3831C24.0576 23.3247 23.3155 23.3584 22.3628 24.1276C22.2005 24.2567 22.0319 24.3608 21.8538 24.4669C21.8032 24.4986 21.7526 24.5302 21.7005 24.5627C21.5978 24.6269 21.495 24.691 21.3922 24.755C21.1456 24.9086 20.8999 25.0631 20.6566 25.2219C20.6162 25.248 20.5758 25.2741 20.5341 25.3011C20.4605 25.3488 20.3872 25.397 20.3143 25.4459C20.1875 25.5276 20.0852 25.5912 19.9329 25.6026C19.7707 25.5005 19.6921 25.3428 19.5996 25.1802C19.5797 25.1466 19.5598 25.1129 19.5394 25.0782C19.4905 24.9952 19.4424 24.9117 19.3945 24.8282C19.5216 24.6902 19.6562 24.5959 19.8156 24.4975C19.8675 24.4652 19.9195 24.4329 19.973 24.3997C20.0291 24.3651 20.0852 24.3306 20.1431 24.295C20.2625 24.2209 20.3819 24.1469 20.5013 24.0728C20.5626 24.0349 20.6239 23.9969 20.6871 23.9579C20.9195 23.8138 21.1511 23.6687 21.3828 23.5234C21.8375 23.2384 22.2931 22.9549 22.751 22.6749C22.8125 22.6372 22.8125 22.6372 22.8752 22.5989C23.1701 22.419 23.2926 22.361 23.6381 22.3812C23.7155 22.3853 23.7929 22.3893 23.8703 22.3932C23.9116 22.3953 23.9529 22.3974 23.9955 22.3996C26.2546 22.5067 27.8755 22.4787 29.6524 20.9322C29.9834 20.6459 30.3417 20.4035 30.707 20.1634C30.8054 20.0977 30.9017 20.0297 30.9979 19.9606C31.31 19.7446 31.5669 19.61 31.9379 19.5226C31.9758 19.5136 32.0137 19.5046 32.0527 19.4953C32.4751 19.3961 32.9 19.3088 33.3253 19.2233C33.4094 19.2064 33.4934 19.1894 33.5775 19.1724C33.7515 19.1373 33.9256 19.1023 34.0997 19.0675C34.3227 19.0228 34.5455 18.9776 34.7683 18.9321C34.9409 18.8971 35.1135 18.8624 35.2862 18.8279C35.3685 18.8113 35.4507 18.7946 35.5329 18.7778C35.6472 18.7545 35.7615 18.7317 35.8759 18.7091C35.9732 18.6895 35.9732 18.6895 36.0725 18.6695C36.2383 18.6485 36.2383 18.6485 36.457 18.7032Z" fill="white"/>
<path d="M19.1758 37.2969C25.0591 37.2969 30.9423 37.2969 37.0039 37.2969C37.0039 37.6217 37.0039 37.9466 37.0039 38.2812C31.1206 38.2812 25.2373 38.2812 19.1758 38.2812C19.1758 37.9564 19.1758 37.6316 19.1758 37.2969Z" fill="white"/>
<path d="M19.8095 27.4912C19.8721 27.4903 19.9347 27.4894 19.9992 27.4885C20.0669 27.4882 20.1346 27.4879 20.2043 27.4876C20.2738 27.4871 20.3434 27.4866 20.415 27.4861C20.5622 27.4853 20.7094 27.4848 20.8566 27.4846C21.0448 27.4843 21.233 27.4823 21.4213 27.4798C21.6012 27.4778 21.7812 27.4777 21.9611 27.4774C22.0623 27.4758 22.0623 27.4758 22.1656 27.4741C22.686 27.4769 22.686 27.4769 22.8539 27.6363C22.9815 27.8302 23.0109 27.9707 23.0117 28.1975C23.012 28.2493 23.0124 28.301 23.0127 28.3543C23.0128 28.4394 23.0128 28.4394 23.0129 28.5261C23.0133 28.6158 23.0133 28.6158 23.0137 28.7072C23.0145 28.9054 23.0149 29.1035 23.0152 29.3017C23.0155 29.4392 23.0158 29.5768 23.0161 29.7143C23.0166 29.966 23.0169 30.2176 23.0171 30.4693C23.0174 30.8394 23.0183 31.2094 23.0199 31.5795C23.0212 31.9003 23.0217 32.2211 23.0217 32.5419C23.0219 32.6783 23.0223 32.8146 23.0231 32.951C23.024 33.1417 23.0239 33.3324 23.0235 33.5232C23.024 33.5795 23.0246 33.6359 23.0251 33.6939C23.0234 33.9851 23.0145 34.2071 22.84 34.4532C22.6736 34.5758 22.5225 34.5767 22.3196 34.5776C22.2592 34.5781 22.1988 34.5787 22.1365 34.5792C22.0715 34.5791 22.0065 34.5791 21.9396 34.579C21.8725 34.5793 21.8055 34.5795 21.7365 34.5798C21.5948 34.5801 21.453 34.5801 21.3113 34.5799C21.0944 34.5797 20.8776 34.581 20.6607 34.5824C20.523 34.5825 20.3854 34.5825 20.2477 34.5825C20.1828 34.583 20.1179 34.5835 20.051 34.584C19.9904 34.5836 19.9299 34.5833 19.8674 34.583C19.7877 34.583 19.7877 34.583 19.7064 34.5831C19.5265 34.5581 19.4279 34.5108 19.2853 34.3985C19.1952 34.2138 19.1622 34.0643 19.1617 33.8598C19.1613 33.8079 19.1609 33.756 19.1605 33.7025C19.1606 33.6463 19.1608 33.59 19.1609 33.532C19.1606 33.4722 19.1603 33.4124 19.1601 33.3508C19.1593 33.1532 19.1593 32.9557 19.1595 32.7581C19.1593 32.6207 19.159 32.4834 19.1588 32.346C19.1584 32.0581 19.1584 31.7702 19.1587 31.4822C19.159 31.1499 19.1583 30.8175 19.1572 30.4852C19.1561 30.1649 19.1559 29.8446 19.1561 29.5243C19.1561 29.3883 19.1558 29.2522 19.1552 29.1162C19.1546 28.926 19.1549 28.7358 19.1556 28.5456C19.1551 28.4894 19.1547 28.4332 19.1543 28.3754C19.1565 28.083 19.1696 27.867 19.34 27.6173C19.5253 27.4938 19.592 27.4934 19.8095 27.4912ZM20.1603 28.4923C20.1603 30.1706 20.1603 31.849 20.1603 33.5782C20.7739 33.5782 21.3875 33.5782 22.0197 33.5782C22.0197 31.8999 22.0197 30.2215 22.0197 28.4923C21.4061 28.4923 20.7925 28.4923 20.1603 28.4923Z" fill="white"/>
<path d="M19.1758 35.4375C22.5866 35.4375 25.9975 35.4375 29.5117 35.4375C29.5117 35.7623 29.5117 36.0872 29.5117 36.4219C26.1009 36.4219 22.69 36.4219 19.1758 36.4219C19.1758 36.097 19.1758 35.7722 19.1758 35.4375Z" fill="white"/>
<path d="M27.5977 39.1562C30.7017 39.1562 33.8058 39.1562 37.0039 39.1562C37.0039 39.4811 37.0039 39.8059 37.0039 40.1406C33.8998 40.1406 30.7958 40.1406 27.5977 40.1406C27.5977 39.8158 27.5977 39.4909 27.5977 39.1562Z" fill="white"/>
<path d="M19.1758 39.1562C21.6662 39.1562 24.1567 39.1562 26.7227 39.1562C26.7227 39.4811 26.7227 39.8059 26.7227 40.1406C24.2322 40.1406 21.7417 40.1406 19.1758 40.1406C19.1758 39.8158 19.1758 39.4909 19.1758 39.1562Z" fill="white"/>
<path d="M30.3867 35.4375C32.5704 35.4375 34.7541 35.4375 37.0039 35.4375C37.0039 35.7623 37.0039 36.0872 37.0039 36.4219C34.8202 36.4219 32.6366 36.4219 30.3867 36.4219C30.3867 36.097 30.3867 35.7722 30.3867 35.4375Z" fill="white"/>
</g>
<defs>
<clipPath id="clip0_310_3645">
<rect width="28" height="28" fill="white" transform="translate(14.0898 14)"/>
</clipPath>
</defs>
</svg>
