<svg width="42" height="37" viewBox="0 0 42 37" fill="none" xmlns="http://www.w3.org/2000/svg">
<ellipse cx="15.2286" cy="15" rx="15.2286" ry="15" fill="#3E82DA"/>
<path d="M29.895 12.0003C29.9027 12.0002 29.9104 12.0001 29.9184 12C30.0629 12.0006 30.1924 12.0519 30.326 12.101C30.346 12.1082 30.366 12.1155 30.3861 12.1228C30.4281 12.138 30.4701 12.1533 30.5121 12.1687C30.5747 12.1915 30.6372 12.2141 30.6998 12.2368C30.9126 12.3136 31.1252 12.3909 31.3378 12.4682C31.4894 12.5234 31.641 12.5784 31.7927 12.6332C31.9638 12.6952 32.1349 12.7572 32.3059 12.8195C32.47 12.8792 32.6343 12.9387 32.7985 12.9982C32.9392 13.049 33.0797 13.1 33.2203 13.1512C33.3564 13.2007 33.4927 13.2501 33.6289 13.2994C33.7923 13.3585 33.9556 13.4177 34.1189 13.4772C34.2802 13.5359 34.4415 13.5944 34.6029 13.6528C34.774 13.7147 34.9451 13.7768 35.1161 13.839C35.2803 13.8988 35.4445 13.9583 35.6088 14.0177C35.7494 14.0686 35.89 14.1196 36.0305 14.1708C36.1666 14.2203 36.3029 14.2696 36.4391 14.3189C36.6025 14.3781 36.7658 14.4373 36.9291 14.4967C37.0904 14.5554 37.2517 14.614 37.4131 14.6724C37.5843 14.7343 37.7553 14.7964 37.9263 14.8586C38.0905 14.9183 38.2547 14.9778 38.419 15.0373C38.5596 15.0882 38.7002 15.1392 38.8407 15.1903C38.9663 15.236 39.0919 15.2815 39.2176 15.327C39.4142 15.3982 39.6107 15.4693 39.8072 15.5409C39.8263 15.5479 39.8455 15.5549 39.8646 15.5619C39.8739 15.5653 39.8832 15.5686 39.8928 15.5721C39.9461 15.5916 39.9995 15.6108 40.053 15.6299C40.0852 15.6414 40.1173 15.653 40.1495 15.6646C40.1641 15.6698 40.1787 15.675 40.1934 15.6802C40.3199 15.7249 40.4398 15.7762 40.5404 15.8676C40.5481 15.8745 40.5559 15.8815 40.5638 15.8886C40.6443 15.9646 40.6996 16.0503 40.7449 16.1508C40.7473 16.156 40.7496 16.1611 40.752 16.1664C40.7924 16.2611 40.803 16.3639 40.8128 16.4654C40.8141 16.4786 40.8155 16.4918 40.8168 16.505C40.8204 16.5407 40.8239 16.5763 40.8274 16.612C40.8296 16.6346 40.8318 16.6572 40.834 16.6798C40.9051 17.4023 40.9585 18.1263 41.0132 19.3552C41.0137 19.3692 41.0137 19.3692 41.0142 19.3835C41.0163 19.4476 41.0181 19.5117 41.0197 19.5758C41.02 19.5889 41.0204 19.6019 41.0207 19.615C41.0285 19.9157 41.0305 20.2164 41.0303 20.5172C41.0303 20.5288 41.0303 20.5404 41.0303 20.552C41.0302 20.9413 41.0272 21.3303 41.0116 21.7193C41.0113 21.7263 41.011 21.7332 41.0108 21.7404C40.984 22.4114 40.9386 23.0812 40.2662 27.0399C40.2641 27.0482 40.2619 27.0565 40.2597 27.0651C40.0574 27.8487 39.7931 28.6181 39.2552 29.8672C39.2525 29.8732 39.2497 29.8791 39.2469 29.8852C39.1365 30.1239 39.0232 30.3615 38.8955 30.5915C38.8735 30.6311 38.8522 30.671 38.831 30.711C38.7693 30.8274 38.7053 30.9421 38.6381 31.0554C38.6227 31.0814 38.6073 31.1075 38.592 31.1335C38.51 31.2729 38.4265 31.4109 38.3385 31.5465C38.3284 31.5621 38.3183 31.5778 38.3082 31.5934C38.1949 31.7688 38.0782 31.9424 37.9565 32.1122C37.9481 32.1238 37.9398 32.1355 37.9315 32.1472C37.8552 32.2543 37.776 32.359 37.6959 32.4633C37.6877 32.4739 37.6796 32.4845 37.6715 32.4952C37.6511 32.5217 37.6307 32.5482 37.6102 32.5746C37.6067 32.5792 37.6031 32.5838 37.5994 32.5885C37.5139 32.6988 37.4251 32.8065 37.3346 32.9128C37.3102 32.9415 37.2863 32.9705 37.2627 32.9998C37.2295 33.0406 37.1946 33.0795 37.159 33.1182C37.1419 33.1369 37.1251 33.1558 37.1085 33.1749C37.0799 33.2078 37.0508 33.2402 37.0216 33.2725C37.0091 33.2863 36.9967 33.3001 36.9844 33.314C36.8997 33.4089 36.8127 33.5016 36.7222 33.591C36.6935 33.6195 36.6666 33.6489 36.6403 33.6796C36.5961 33.7295 36.5482 33.7764 36.4977 33.8199C36.4612 33.8515 36.4274 33.8853 36.3936 33.9198C36.3548 33.9593 36.3156 33.9972 36.2736 34.0333C36.2443 34.0589 36.2162 34.0858 36.188 34.1125C36.1431 34.155 36.0976 34.1964 36.0509 34.2368C36.046 34.241 36.0412 34.2451 36.0362 34.2495C36.0222 34.2615 36.0082 34.2735 35.9941 34.2855C35.9837 34.2944 35.9733 34.3034 35.9628 34.3123C35.9576 34.3168 35.9523 34.3213 35.9469 34.3259C35.9312 34.3394 35.9155 34.3529 35.8998 34.3664C35.8395 34.4183 35.7786 34.4694 35.7167 34.5195C35.7059 34.5283 35.6951 34.5372 35.6843 34.546C35.6219 34.597 35.5591 34.6473 35.495 34.6962C35.4685 34.7164 35.4421 34.7368 35.4158 34.7573C35.3429 34.8135 35.2685 34.8678 35.1941 34.9222C35.1845 34.9292 35.1845 34.9292 35.1748 34.9364C35.0687 35.0141 34.9605 35.0886 34.8514 35.1621C34.8422 35.1683 34.8422 35.1683 34.8329 35.1746C34.5475 35.3667 34.2532 35.5446 33.9518 35.7104C33.9435 35.715 33.9353 35.7195 33.9268 35.7242C33.7111 35.8429 33.493 35.9555 33.2689 36.0574C33.2422 36.0696 33.2156 36.082 33.1891 36.0946C32.4531 36.4424 31.6655 36.698 30.122 36.987C30.1104 36.9885 30.1104 36.9885 30.0985 36.9899C29.889 37.0138 29.6783 36.9917 29.4709 36.9613C29.4646 36.9604 29.4583 36.9595 29.4518 36.9585C28.6924 36.8476 27.9452 36.6404 26.3008 35.9503C26.292 35.946 26.292 35.946 26.2831 35.9417C26.1256 35.8645 25.9699 35.7857 25.818 35.6977C25.778 35.6748 25.7374 35.6531 25.6968 35.6312C25.6289 35.5943 25.5621 35.5562 25.4963 35.5158C25.4756 35.5032 25.4549 35.4907 25.4342 35.4782C25.1767 35.3229 24.9259 35.1574 24.6815 34.9822C24.6723 34.9756 24.6723 34.9756 24.6629 34.9689C24.5733 34.905 24.4852 34.8394 24.3981 34.7721C24.383 34.7604 24.3678 34.7488 24.3526 34.7373C24.289 34.6888 24.2269 34.6389 24.165 34.5883C24.1398 34.5677 24.1143 34.5473 24.0887 34.527C24.0512 34.4971 24.0146 34.4661 23.978 34.435C23.9483 34.4098 23.9183 34.385 23.8879 34.3605C23.8471 34.3273 23.8082 34.2924 23.7695 34.2568C23.7508 34.2397 23.7319 34.2229 23.7128 34.2063C23.6424 34.145 23.5737 34.082 23.5051 34.0188C23.4959 34.0104 23.4867 34.0019 23.4776 33.9935C23.3754 33.9002 23.2777 33.8024 23.18 33.7045C23.1567 33.6812 23.1333 33.6578 23.1099 33.6345C23.0917 33.6163 23.0734 33.598 23.0552 33.5798C23.0466 33.5712 23.038 33.5626 23.0294 33.554C22.986 33.5107 22.9434 33.4672 22.9037 33.4204C22.89 33.4048 22.8757 33.3902 22.8609 33.3757C22.8352 33.3505 22.8116 33.3241 22.7881 33.2968C22.7714 33.2777 22.7543 33.2591 22.737 33.2405C22.6958 33.1961 22.6568 33.1506 22.6188 33.1034C22.5988 33.0792 22.578 33.0561 22.5567 33.033C22.5219 32.9952 22.4891 32.9562 22.4568 32.9162C22.4352 32.8897 22.413 32.8636 22.3907 32.8376C22.35 32.7897 22.311 32.7407 22.2724 32.6911C22.2519 32.6649 22.2312 32.639 22.2103 32.6131C22.1571 32.5472 22.106 32.4799 22.0555 32.4119C22.0428 32.3949 22.03 32.3779 22.0172 32.361C21.6876 31.9243 21.3898 31.4639 21.1173 30.9896C21.1127 30.9815 21.1081 30.9735 21.1033 30.9652C21.0285 30.8346 20.9566 30.7026 20.886 30.5698C20.882 30.5623 20.878 30.5548 20.8739 30.5471C20.7311 30.2792 20.5951 30.0071 20.4725 29.7294C20.4599 29.701 20.4472 29.6727 20.4345 29.6444C20.1044 28.9111 19.837 28.1487 18.7783 21.6593C18.7779 21.6467 18.7774 21.6341 18.777 21.6215C18.7742 21.544 18.7721 21.4666 18.7703 21.3892C18.7697 21.3666 18.7692 21.344 18.7686 21.3214C18.7487 20.5185 18.7623 19.7152 18.9411 16.8528C18.9417 16.8464 18.9423 16.84 18.9429 16.8334C18.9501 16.755 18.9575 16.6767 18.9652 16.5984C18.9673 16.5771 18.9694 16.5559 18.9714 16.5346C18.9979 16.2587 19.0609 16.0293 19.2796 15.8413C19.4096 15.7404 19.5651 15.692 19.7184 15.638C19.772 15.6191 19.8254 15.6001 19.8789 15.581C19.8844 15.5791 19.89 15.5771 19.8956 15.5751C20.0162 15.5322 20.1363 15.4879 20.2563 15.4435C20.4272 15.3802 20.5985 15.3182 20.7702 15.2572C20.922 15.2032 21.0734 15.1481 21.2244 15.0922C21.3953 15.0289 21.5667 14.9669 21.7384 14.9059C21.8902 14.852 22.0415 14.7968 22.1926 14.7409C22.3635 14.6776 22.5348 14.6157 22.7065 14.5547C22.8707 14.4963 23.0343 14.4365 23.1977 14.376C23.3384 14.3239 23.4794 14.2729 23.6208 14.223C23.7573 14.1748 23.8931 14.125 24.0287 14.0748C24.1917 14.0144 24.355 13.9551 24.5187 13.897C24.6805 13.8395 24.8418 13.7809 25.0028 13.7213C25.1737 13.6581 25.345 13.5961 25.5167 13.5351C25.6809 13.4768 25.8445 13.4169 26.0079 13.3564C26.1486 13.3044 26.2896 13.2533 26.4311 13.2034C26.5675 13.1552 26.7033 13.1054 26.839 13.0552C27.0118 12.9912 27.185 12.9285 27.3587 12.8668C27.5229 12.8085 27.6865 12.7486 27.85 12.6881C27.9907 12.6361 28.1317 12.585 28.2731 12.5351C28.4095 12.4869 28.5453 12.4371 28.681 12.3869C28.869 12.3174 29.0574 12.2492 29.2463 12.1822C29.3702 12.1382 29.3702 12.1382 29.4936 12.0927C29.5026 12.0893 29.5026 12.0893 29.5118 12.0859C29.5378 12.0761 29.5638 12.0663 29.5897 12.0563C29.6888 12.0189 29.789 11.9989 29.895 12.0003ZM29.8405 13.6372C29.8319 13.6403 29.8234 13.6435 29.8146 13.6467C29.8053 13.6502 29.7959 13.6537 29.7863 13.6574C29.7766 13.661 29.7668 13.6646 29.7568 13.6683C29.7357 13.6761 29.7146 13.684 29.6936 13.6919C29.6375 13.7128 29.5814 13.7335 29.5253 13.7543C29.5196 13.7564 29.514 13.7585 29.5082 13.7606C29.4061 13.7984 29.3036 13.8351 29.201 13.8713C29.0548 13.9228 28.9094 13.976 28.764 14.0298C28.6187 14.0836 28.4732 14.1367 28.3271 14.1883C28.1829 14.2391 28.0394 14.2916 27.896 14.3446C27.733 14.405 27.5698 14.4643 27.406 14.5224C27.2443 14.5799 27.083 14.6385 26.922 14.6981C26.751 14.7613 26.5797 14.8233 26.408 14.8843C26.2562 14.9383 26.1049 14.9934 25.9538 15.0493C25.7829 15.1126 25.6116 15.1746 25.4398 15.2356C25.288 15.2896 25.1367 15.3447 24.9857 15.4006C24.8148 15.4639 24.6435 15.5259 24.4718 15.5868C24.3076 15.6452 24.144 15.705 23.9805 15.7655C23.8398 15.8176 23.6989 15.8687 23.5574 15.9186C23.421 15.9667 23.2852 16.0165 23.1495 16.0668C22.9865 16.1271 22.8233 16.1864 22.6595 16.2445C22.4977 16.302 22.3364 16.3606 22.1754 16.4202C22.0144 16.4798 21.8531 16.5383 21.6914 16.5958C21.5088 16.6607 21.3269 16.727 21.1453 16.7944C21.0465 16.831 20.9475 16.8672 20.8481 16.9023C20.8319 16.908 20.8157 16.9137 20.7995 16.9194C20.7485 16.9375 20.6975 16.9554 20.6464 16.9732C20.6283 16.9796 20.6101 16.986 20.592 16.9924C20.5837 16.9953 20.5753 16.9981 20.5668 17.0011C20.5592 17.0037 20.5517 17.0064 20.5439 17.0092C20.5373 17.0115 20.5308 17.0138 20.524 17.0161C20.5059 17.0237 20.5059 17.0237 20.5004 17.0499C20.4982 17.0691 20.4963 17.0883 20.4947 17.1075C20.4941 17.1134 20.4936 17.1193 20.4931 17.1253C20.4914 17.145 20.4897 17.1647 20.488 17.1844C20.4868 17.1984 20.4856 17.2124 20.4844 17.2265C20.4804 17.2724 20.4765 17.3183 20.4726 17.3642C20.4712 17.3802 20.4699 17.3961 20.4685 17.4121C20.4112 18.0884 20.3693 18.7657 20.347 19.4441C20.3463 19.4643 20.3456 19.4846 20.3449 19.5049C20.3307 19.9083 20.3252 20.3132 20.3291 20.7169C20.3292 20.7268 20.3293 20.7366 20.3294 20.7468C20.3365 21.4732 20.3638 22.1986 20.6632 24.8637C20.6648 24.8733 20.6664 24.8829 20.6681 24.8928C20.7423 25.3407 20.8323 25.7864 20.9401 26.2274C20.9461 26.2521 20.952 26.2767 20.958 26.3014C21.0556 26.7061 21.1696 27.1062 21.2972 27.5025C21.2998 27.5103 21.3023 27.5181 21.3049 27.5262C21.4561 27.9954 21.63 28.4563 21.8284 28.9076C21.8327 28.9173 21.8369 28.9269 21.8413 28.9368C21.9795 29.2507 22.1247 29.5632 22.291 29.8633C22.3093 29.8963 22.3273 29.9296 22.345 29.9631C22.4124 30.0899 22.4836 30.2139 22.5576 30.337C22.5728 30.3625 22.5878 30.388 22.6028 30.4137C22.6599 30.5118 22.72 30.6074 22.7825 30.7021C22.8117 30.7463 22.8398 30.791 22.8678 30.8359C22.9036 30.8931 22.9412 30.9484 22.9809 31.003C23.0039 31.0345 23.0258 31.0666 23.0477 31.0988C23.132 31.222 23.2206 31.3419 23.3107 31.4608C23.3151 31.4667 23.3196 31.4726 23.3242 31.4787C23.3883 31.5635 23.4541 31.6467 23.5215 31.7289C23.5374 31.7485 23.5531 31.7682 23.5688 31.788C23.5987 31.8256 23.6296 31.8622 23.6608 31.8987C23.6859 31.9283 23.7105 31.9581 23.7348 31.9883C23.7701 32.0318 23.8076 32.0729 23.8457 32.114C23.8633 32.133 23.8806 32.1523 23.8976 32.172C23.93 32.2094 23.9636 32.2458 23.9972 32.2823C24.0128 32.2992 24.0283 32.3163 24.0437 32.3334C24.097 32.3925 24.1526 32.4491 24.2094 32.5049C24.2381 32.5332 24.2657 32.5617 24.2918 32.5924C24.3165 32.6212 24.3431 32.6455 24.372 32.67C24.4143 32.7072 24.4529 32.7485 24.4924 32.7886C24.529 32.8255 24.5661 32.861 24.6055 32.8949C24.631 32.917 24.6554 32.9402 24.6799 32.9634C24.7229 33.0037 24.767 33.0418 24.8131 33.0786C24.8371 33.0984 24.86 33.119 24.8828 33.1401C24.9241 33.178 24.9667 33.2136 25.0102 33.2487C25.026 33.2615 25.0417 33.2746 25.0574 33.2876C25.1365 33.3534 25.2169 33.4168 25.299 33.4788C25.3141 33.4903 25.329 33.5018 25.344 33.5135C25.4154 33.5691 25.4885 33.6222 25.5621 33.6748C25.5792 33.6871 25.5963 33.6994 25.6134 33.7118C26.2141 34.1432 26.8684 34.5051 27.9715 34.9565C27.9774 34.9586 27.9832 34.9607 27.9893 34.9629C28.5586 35.1703 29.1457 35.3287 29.7461 35.4143C29.7562 35.4158 29.7663 35.4173 29.7767 35.4189C29.9084 35.4366 30.0356 35.4145 30.1654 35.3929C30.1774 35.3909 30.1774 35.3909 30.1896 35.3889C30.9398 35.2648 31.68 35.0391 32.4353 34.6994C32.4451 34.695 32.4549 34.6905 32.465 34.686C32.5296 34.6566 32.5939 34.6268 32.6581 34.5966C32.671 34.5906 32.671 34.5906 32.6841 34.5844C32.897 34.4844 33.1064 34.3774 33.31 34.2597C33.3369 34.2442 33.3639 34.2288 33.3908 34.2135C33.4951 34.154 33.5979 34.093 33.6988 34.0279C33.7228 34.0125 33.747 33.9972 33.7712 33.982C33.8861 33.9093 33.9987 33.8339 34.1097 33.7554C34.1298 33.7412 34.1499 33.7272 34.1701 33.7132C34.2613 33.6498 34.3496 33.5826 34.4377 33.5149C34.4621 33.4963 34.4867 33.478 34.5114 33.4598C34.5696 33.4163 34.6256 33.37 34.6818 33.324C34.7016 33.3078 34.7216 33.292 34.7416 33.2761C34.7884 33.2388 34.834 33.2001 34.8795 33.1613C34.8944 33.1485 34.9094 33.1358 34.9244 33.1231C34.9821 33.074 35.0387 33.024 35.0943 32.9725C35.1125 32.9558 35.1309 32.9394 35.1497 32.9232C35.2298 32.8536 35.3065 32.7799 35.3811 32.7044C35.3975 32.6882 35.4143 32.6731 35.4319 32.6582C35.5036 32.5966 35.5709 32.5279 35.6319 32.4557C35.6549 32.4301 35.6794 32.4061 35.7039 32.3819C35.7383 32.3478 35.7717 32.3135 35.803 32.2766C35.8261 32.2502 35.8502 32.2248 35.8742 32.1993C35.9145 32.1562 35.9525 32.1121 35.9894 32.0661C36.0092 32.0421 36.0298 32.0192 36.0509 31.9963C36.0887 31.9551 36.1243 31.9125 36.1594 31.8689C36.1723 31.8531 36.1854 31.8374 36.1984 31.8217C36.2587 31.7493 36.3171 31.6757 36.374 31.6006C36.398 31.5689 36.4224 31.5376 36.447 31.5064C36.5067 31.4303 36.5639 31.3527 36.62 31.2739C36.6327 31.2562 36.6456 31.2387 36.6586 31.2212C36.7429 31.1068 36.8208 30.9883 36.8992 30.8698C36.9181 30.8412 36.9372 30.8125 36.9563 30.784C36.9964 30.7241 37.0359 30.6639 37.0737 30.6025C37.0783 30.5949 37.083 30.5873 37.0878 30.5794C37.1021 30.5563 37.1162 30.533 37.1304 30.5098C37.1347 30.5028 37.1389 30.4958 37.1433 30.4886C37.3124 30.2106 37.4711 29.9265 37.6184 29.6364C37.6278 29.6178 37.6373 29.5993 37.6467 29.5807C37.7423 29.3928 37.8337 29.2035 37.9186 29.0105C37.9218 29.0034 37.9249 28.9963 37.9281 28.9891C38.0273 28.764 38.1222 28.5377 38.2099 28.3079C38.2123 28.3017 38.2147 28.2954 38.2172 28.289C38.5091 27.5229 38.7423 26.7357 38.9896 25.6091C38.9914 25.6002 38.9933 25.5914 38.9951 25.5823C39.172 24.7223 39.2884 23.8509 39.4515 21.4037C39.4522 21.3779 39.453 21.352 39.4538 21.3262C39.4698 20.7812 39.4689 20.2337 39.4523 19.6888C39.4521 19.6827 39.4519 19.6766 39.4517 19.6704C39.4301 18.9549 39.3935 18.2403 39.2895 17.0328C39.2202 17.0032 39.1504 16.9761 39.0795 16.9508C39.0693 16.9472 39.0592 16.9436 39.0488 16.9398C39.027 16.932 39.0053 16.9242 38.9835 16.9164C38.9248 16.8954 38.8661 16.8743 38.8073 16.8532C38.7983 16.8499 38.7983 16.8499 38.7892 16.8466C38.6649 16.8019 38.541 16.7563 38.4172 16.7104C38.2472 16.6475 38.0768 16.5859 37.906 16.5253C37.7418 16.4669 37.5782 16.4071 37.4147 16.3466C37.2817 16.2973 37.1485 16.2489 37.0147 16.2017C36.8706 16.1508 36.7271 16.0984 36.5837 16.0453C36.4207 15.985 36.2575 15.9257 36.0937 15.8676C35.9196 15.8057 35.746 15.7424 35.5727 15.6783C35.4397 15.6291 35.3064 15.5806 35.1727 15.5334C35.0285 15.4826 34.885 15.4301 34.7416 15.3771C34.5787 15.3167 34.4154 15.2574 34.2517 15.1993C34.0775 15.1374 33.9039 15.0741 33.7306 15.01C33.5976 14.9608 33.4644 14.9123 33.3306 14.8651C33.1865 14.8143 33.0429 14.7618 32.8996 14.7088C32.7366 14.6485 32.5733 14.5892 32.4096 14.531C32.2354 14.4691 32.0619 14.4059 31.8886 14.3417C31.7555 14.2925 31.6223 14.244 31.4886 14.1969C31.3444 14.146 31.2009 14.0936 31.0575 14.0405C30.8832 13.976 30.7086 13.9127 30.5335 13.8505C30.4238 13.8116 30.3143 13.7723 30.2051 13.732C30.1953 13.7284 30.1854 13.7248 30.1753 13.721C30.1285 13.7037 30.0817 13.6864 30.0349 13.6689C30.0184 13.6628 30.0018 13.6567 29.9853 13.6505C29.9778 13.6477 29.9702 13.6449 29.9625 13.642C29.9556 13.6394 29.9487 13.6369 29.9417 13.6343C29.9357 13.632 29.9298 13.6298 29.9236 13.6275C29.892 13.6181 29.8702 13.6261 29.8405 13.6372Z" fill="white"/>
<path d="M29.1273 17.8541C29.1458 17.854 29.1643 17.854 29.1828 17.854C29.2326 17.8539 29.2824 17.8539 29.3323 17.8539C29.3635 17.8539 29.3948 17.8538 29.426 17.8538C29.5355 17.8537 29.6449 17.8537 29.7543 17.8537C29.8557 17.8537 29.9571 17.8536 30.0585 17.8535C30.146 17.8534 30.2336 17.8533 30.3211 17.8533C30.3732 17.8533 30.4252 17.8533 30.4773 17.8532C30.9904 17.8524 30.9904 17.8524 31.1943 17.8912C31.2091 17.8939 31.2091 17.8939 31.2242 17.8967C31.681 17.9852 32.0845 18.2122 32.4184 18.5322C32.4254 18.5388 32.4325 18.5455 32.4397 18.5524C32.4809 18.5924 32.5177 18.6348 32.5535 18.6797C32.5655 18.6947 32.5778 18.7095 32.5904 18.7241C32.6957 18.8472 32.7813 18.9882 32.8553 19.1319C32.8583 19.1376 32.8613 19.1434 32.8644 19.1493C32.9649 19.3454 33.0324 19.5616 33.0717 19.7782C33.073 19.7852 33.0743 19.7923 33.0756 19.7995C33.1037 19.9671 33.1063 20.1363 33.1058 20.3058C33.1057 20.336 33.1058 20.3661 33.1058 20.3962C33.1058 20.4482 33.1057 20.5002 33.1056 20.5522C33.1055 20.6273 33.1054 20.7024 33.1054 20.7776C33.1054 20.8995 33.1053 21.0215 33.1051 21.1434C33.1049 21.2618 33.1048 21.3801 33.1048 21.4984C33.1047 21.5094 33.1047 21.5094 33.1047 21.5206C33.1047 21.5573 33.1047 21.5941 33.1047 21.6308C33.1045 21.9345 33.1042 22.2382 33.1038 22.5419C33.1145 22.5417 33.1253 22.5416 33.1363 22.5414C33.1771 22.541 33.2179 22.5407 33.2587 22.5404C33.2761 22.5403 33.2936 22.5401 33.3111 22.5399C33.6022 22.5363 33.8797 22.5923 34.1148 22.7732C34.1229 22.7793 34.1309 22.7855 34.1392 22.7919C34.3857 22.987 34.5449 23.2667 34.5821 23.5798C34.5866 23.6221 34.5872 23.664 34.5872 23.7065C34.5872 23.7189 34.5872 23.7189 34.5872 23.7316C34.5873 23.7593 34.5872 23.7869 34.5872 23.8146C34.5873 23.8346 34.5873 23.8547 34.5873 23.8747C34.5874 23.924 34.5874 23.9734 34.5874 24.0227C34.5874 24.0817 34.5875 24.1408 34.5875 24.1999C34.5877 24.3427 34.5877 24.4855 34.5877 24.6283C34.5878 24.6959 34.5878 24.7635 34.5878 24.8311C34.5879 25.0626 34.588 25.2942 34.5881 25.5257C34.5881 25.5402 34.5881 25.5548 34.5881 25.5693C34.5881 25.5839 34.5881 25.5984 34.5881 25.613C34.5881 25.6422 34.5881 25.6714 34.5881 25.7006C34.5881 25.7079 34.5881 25.7151 34.5881 25.7226C34.5881 25.9573 34.5883 26.1921 34.5885 26.4268C34.5887 26.6752 34.5888 26.9235 34.5888 27.1719C34.5888 27.1992 34.5888 27.2265 34.5888 27.2538C34.5888 27.2605 34.5888 27.2672 34.5888 27.2741C34.5888 27.382 34.5889 27.4899 34.589 27.5978C34.5892 27.7064 34.5892 27.815 34.5891 27.9236C34.5891 27.9823 34.5891 28.0411 34.5892 28.0998C34.5893 28.1537 34.5893 28.2076 34.5892 28.2615C34.5892 28.2809 34.5892 28.3003 34.5893 28.3197C34.5898 28.4667 34.5825 28.6139 34.5373 28.7551C34.5351 28.7621 34.5329 28.7691 34.5307 28.7763C34.4371 29.0647 34.228 29.3102 33.9592 29.4505C33.7095 29.5758 33.4619 29.5872 33.1874 29.5867C33.151 29.5867 33.1146 29.5867 33.0781 29.5868C33.0144 29.5868 32.9507 29.5868 32.887 29.5868C32.7922 29.5867 32.6975 29.5868 32.6027 29.5868C32.4334 29.5869 32.2642 29.5869 32.0949 29.5869C31.9468 29.5868 31.7986 29.5868 31.6505 29.5868C31.6407 29.5868 31.6308 29.5868 31.6207 29.5868C31.5808 29.5868 31.5408 29.5868 31.5009 29.5868C31.1265 29.5869 30.7522 29.5868 30.3778 29.5868C30.0454 29.5867 29.713 29.5867 29.3805 29.5868C29.0068 29.5869 28.6332 29.5869 28.2595 29.5868C28.2196 29.5868 28.1797 29.5868 28.1399 29.5868C28.1301 29.5868 28.1203 29.5868 28.1102 29.5868C27.9621 29.5868 27.8141 29.5868 27.6661 29.5869C27.4977 29.5869 27.3294 29.5869 27.1611 29.5868C27.0669 29.5868 26.9727 29.5868 26.8786 29.5868C26.8156 29.5869 26.7527 29.5868 26.6897 29.5868C26.6539 29.5867 26.618 29.5867 26.5822 29.5868C26.2307 29.5873 26.2307 29.5873 26.0868 29.5492C26.0798 29.5474 26.0729 29.5455 26.0656 29.5437C25.898 29.4978 25.7466 29.4159 25.6156 29.3018C25.6075 29.2949 25.5993 29.2879 25.5909 29.2808C25.358 29.0789 25.2282 28.7832 25.2044 28.4793C25.2033 28.4507 25.2032 28.4222 25.2033 28.3937C25.2032 28.3855 25.2032 28.3773 25.2032 28.3688C25.2032 28.3414 25.2032 28.3139 25.2032 28.2865C25.2032 28.2666 25.2032 28.2467 25.2032 28.2268C25.2031 28.1722 25.2031 28.1176 25.2031 28.063C25.2031 28.0101 25.2031 27.9572 25.203 27.9043C25.203 27.7828 25.2029 27.6613 25.2029 27.5398C25.2029 27.4459 25.2029 27.3521 25.2029 27.2582C25.2029 27.2312 25.2029 27.2042 25.2029 27.1771C25.2029 27.1704 25.2029 27.1637 25.2029 27.1568C25.2028 26.9677 25.2028 26.7787 25.2028 26.5897C25.2028 26.5826 25.2028 26.5754 25.2028 26.5681C25.2028 26.532 25.2028 26.4959 25.2028 26.4598C25.2028 26.4526 25.2028 26.4454 25.2028 26.438C25.2028 26.4235 25.2028 26.409 25.2028 26.3945C25.2028 26.169 25.2027 25.9435 25.2026 25.7179C25.2025 25.4644 25.2024 25.2109 25.2024 24.9573C25.2024 24.9303 25.2024 24.9032 25.2024 24.8762C25.2024 24.8695 25.2024 24.8628 25.2024 24.856C25.2024 24.749 25.2024 24.6419 25.2023 24.5349C25.2022 24.4273 25.2022 24.3196 25.2023 24.212C25.2023 24.1537 25.2023 24.0955 25.2022 24.0372C25.2021 23.9838 25.2022 23.9304 25.2022 23.877C25.2022 23.8577 25.2022 23.8385 25.2022 23.8192C25.2019 23.6853 25.2037 23.5512 25.2397 23.4211C25.2415 23.4145 25.2433 23.4078 25.2452 23.4009C25.293 23.2336 25.3722 23.0836 25.4871 22.9531C25.4965 22.9422 25.4965 22.9422 25.5061 22.931C25.7071 22.7009 25.9973 22.5643 26.301 22.5419C26.3319 22.5408 26.3628 22.5408 26.3937 22.541C26.4022 22.541 26.4106 22.541 26.4193 22.5411C26.4459 22.5411 26.4725 22.5412 26.4992 22.5413C26.5173 22.5414 26.5355 22.5414 26.5537 22.5414C26.598 22.5415 26.6423 22.5417 26.6866 22.5419C26.6866 22.5368 26.6866 22.5318 26.6866 22.5266C26.6862 22.2278 26.6859 21.9291 26.6857 21.6303C26.6857 21.5943 26.6857 21.5583 26.6856 21.5223C26.6856 21.5151 26.6856 21.508 26.6856 21.5006C26.6856 21.3851 26.6854 21.2695 26.6853 21.154C26.6851 21.0352 26.685 20.9164 26.685 20.7975C26.6849 20.7244 26.6849 20.6513 26.6847 20.5781C26.6846 20.5278 26.6846 20.4774 26.6846 20.427C26.6846 20.3981 26.6846 20.3692 26.6845 20.3403C26.6828 19.7051 26.8473 19.0957 27.2906 18.6238C27.3077 18.6054 27.3239 18.5868 27.3399 18.5675C27.4294 18.4651 27.5366 18.3805 27.6462 18.3008C27.6512 18.2972 27.6562 18.2935 27.6614 18.2898C27.7336 18.2375 27.8089 18.1911 27.8861 18.1466C27.8955 18.1411 27.9049 18.1355 27.9146 18.1298C28.1816 17.9799 28.4975 17.8874 28.8028 17.8639C28.8118 17.8632 28.8207 17.8625 28.8299 17.8617C28.9291 17.8547 29.0279 17.854 29.1273 17.8541ZM28.4344 19.6974C28.3188 19.8387 28.2615 20.0095 28.262 20.1907C28.262 20.2007 28.262 20.2107 28.262 20.2211C28.262 20.2489 28.262 20.2767 28.262 20.3045C28.2621 20.335 28.2621 20.3654 28.2621 20.3959C28.2621 20.455 28.2621 20.5141 28.2622 20.5732C28.2622 20.6416 28.2622 20.71 28.2622 20.7783C28.2623 20.9588 28.2624 21.1394 28.2625 21.3199C28.2627 21.7231 28.2629 22.1264 28.263 22.5419C29.3403 22.5419 30.4175 22.5419 31.5273 22.5419C31.5282 22.1381 31.5291 21.7343 31.53 21.3183C31.5304 21.1909 31.5308 21.0636 31.5312 20.9324C31.5314 20.8179 31.5314 20.8179 31.5314 20.7034C31.5315 20.6526 31.5316 20.6017 31.5319 20.5509C31.5321 20.4921 31.5323 20.4333 31.5322 20.3746C31.5322 20.3445 31.5322 20.3145 31.5325 20.2845C31.5335 20.1276 31.5287 19.9734 31.4476 19.8339C31.4442 19.828 31.4409 19.822 31.4375 19.8159C31.4093 19.7665 31.3774 19.7221 31.3389 19.6802C31.3326 19.6731 31.3262 19.666 31.3197 19.6587C31.1884 19.5186 31.0006 19.4342 30.8089 19.4278C30.7665 19.4271 30.7241 19.4272 30.6817 19.4273C30.6626 19.4273 30.6435 19.4272 30.6243 19.4271C30.5728 19.427 30.5213 19.4271 30.4698 19.4272C30.4156 19.4272 30.3614 19.4272 30.3073 19.4271C30.2105 19.427 30.1138 19.4272 30.0171 19.4273C29.9296 19.4275 29.8422 19.4275 29.7548 19.4273C29.6529 19.4271 29.5509 19.427 29.449 19.4271C29.3952 19.4272 29.3414 19.4272 29.2876 19.4271C29.237 19.427 29.1864 19.4271 29.1358 19.4273C29.1173 19.4273 29.0989 19.4273 29.0804 19.4272C28.8278 19.4263 28.606 19.5039 28.4344 19.6974ZM29.6167 24.1526C29.6109 24.1544 29.605 24.1563 29.599 24.1582C29.3478 24.2391 29.1457 24.4179 29.0236 24.6505C28.9077 24.8832 28.8915 25.1506 28.9715 25.397C29.0108 25.5112 29.0689 25.61 29.1455 25.7033C29.1515 25.7106 29.1575 25.7179 29.1636 25.7254C29.1992 25.7667 29.2375 25.8035 29.2789 25.8388C29.2833 25.8426 29.2877 25.8464 29.2923 25.8504C29.3114 25.8663 29.3292 25.8808 29.3515 25.8921C29.3987 25.9162 29.3987 25.9162 29.4089 25.9422C29.4113 25.9624 29.4115 25.9816 29.4109 26.002C29.411 26.0096 29.4111 26.0173 29.4112 26.0251C29.4113 26.0508 29.411 26.0764 29.4107 26.102C29.4107 26.1204 29.4108 26.1387 29.4109 26.1571C29.411 26.1967 29.4109 26.2362 29.4106 26.2758C29.4102 26.3383 29.4102 26.4009 29.4103 26.4635C29.4104 26.5625 29.4102 26.6615 29.4099 26.7605C29.4092 26.9377 29.4091 27.1149 29.4092 27.2921C29.4092 27.3543 29.409 27.4165 29.4088 27.4787C29.4086 27.5174 29.4086 27.5561 29.4086 27.5949C29.4085 27.6128 29.4084 27.6307 29.4083 27.6486C29.4081 27.6732 29.4081 27.6977 29.4082 27.7222C29.4081 27.7293 29.408 27.7363 29.4079 27.7436C29.4084 27.8237 29.4335 27.8895 29.4882 27.9481C29.5393 27.9934 29.59 28.0101 29.6585 28.0106C29.6641 28.0106 29.6698 28.0107 29.6756 28.0107C29.6942 28.0109 29.7127 28.0109 29.7312 28.0109C29.7442 28.011 29.7572 28.0111 29.7702 28.0111C29.7974 28.0112 29.8246 28.0113 29.8518 28.0112C29.8865 28.0112 29.9212 28.0115 29.9559 28.0118C29.9827 28.012 30.0095 28.012 30.0364 28.012C30.0492 28.012 30.0619 28.0121 30.0747 28.0122C30.175 28.0132 30.2466 27.9999 30.3216 27.9304C30.3731 27.8728 30.3806 27.8105 30.3799 27.7358C30.3798 27.7243 30.3798 27.7243 30.3798 27.7126C30.3797 27.6958 30.3796 27.6789 30.3795 27.6621C30.3793 27.6347 30.3791 27.6073 30.379 27.58C30.3788 27.5505 30.3787 27.521 30.3785 27.4915C30.3781 27.4183 30.3779 27.3451 30.3778 27.272C30.3778 27.2614 30.3778 27.2507 30.3778 27.2398C30.3777 27.196 30.3776 27.1522 30.3776 27.1084C30.3775 26.9841 30.3771 26.8597 30.3762 26.7354C30.3756 26.6366 30.3752 26.5378 30.3754 26.4391C30.3755 26.3868 30.3753 26.3346 30.3747 26.2823C30.3742 26.2331 30.3741 26.1839 30.3745 26.1348C30.3745 26.1167 30.3744 26.0987 30.374 26.0807C30.3715 25.9478 30.3715 25.9478 30.3989 25.9114C30.4287 25.8835 30.4626 25.8667 30.4992 25.849C30.6937 25.7034 30.8215 25.4713 30.8601 25.2338C30.8953 24.988 30.8408 24.7343 30.6968 24.5306C30.662 24.4852 30.6241 24.4427 30.5849 24.4011C30.5803 24.3959 30.5757 24.3907 30.5709 24.3854C30.4604 24.2666 30.3011 24.19 30.1479 24.144C30.1344 24.1399 30.1344 24.1399 30.1206 24.1357C29.9606 24.0957 29.7737 24.1021 29.6167 24.1526Z" fill="white"/>
</svg>
