<svg width="42" height="39" viewBox="0 0 42 39" fill="none" xmlns="http://www.w3.org/2000/svg">
<ellipse cx="15.2286" cy="15" rx="15.2286" ry="15" fill="#3E82DA"/>
<path d="M31.4044 16.1737C31.4514 16.2139 31.4985 16.254 31.5469 16.2954C32.975 17.5439 33.8932 19.3113 34.0586 21.2066C34.1878 23.1763 33.5988 24.7115 32.6262 26.3786C32.3405 26.871 32.101 27.3587 31.9142 27.8983C31.8998 27.9395 31.8854 27.9806 31.8706 28.023C31.4911 29.1322 31.3031 30.3113 31.2812 31.4829C31.2798 31.555 31.2785 31.6271 31.2771 31.7013C31.2746 31.8496 31.2729 31.9978 31.2718 32.1461C31.2607 32.6537 31.2048 33.0685 30.8986 33.4843C30.3904 33.9589 30.3904 33.9589 30.1017 33.9589C30.1043 34.03 30.1069 34.1011 30.1096 34.1744C30.1271 34.8355 30.1305 35.347 29.6556 35.8528C29.46 36.0334 29.2483 36.2245 28.9689 36.2245C28.9702 36.2752 28.9715 36.3259 28.9729 36.3781C28.9827 37.0411 28.9668 37.5752 28.5157 38.0937C28.1191 38.4561 27.7804 38.5645 27.2513 38.5678C27.2002 38.5683 27.1492 38.5688 27.0966 38.5693C26.9886 38.5702 26.8807 38.5707 26.7728 38.5709C26.6092 38.5716 26.4457 38.5743 26.2821 38.5772C25.6794 38.5826 25.1779 38.5858 24.7146 38.1516C24.2887 37.7094 24.1999 37.2291 24.2075 36.6281C24.2078 36.5891 24.208 36.5501 24.2083 36.5099C24.209 36.4148 24.21 36.3196 24.2111 36.2245C24.1597 36.2095 24.1084 36.1944 24.0555 36.1789C23.6303 36.0227 23.3282 35.6639 23.1349 35.2616C23.0853 35.0964 23.0715 34.9497 23.0727 34.7775C23.073 34.7058 23.073 34.7058 23.0733 34.6326C23.074 34.5585 23.074 34.5585 23.0747 34.4828C23.075 34.4325 23.0752 34.3822 23.0755 34.3304C23.0761 34.2065 23.0771 34.0827 23.0782 33.9589C23.0269 33.9438 22.9756 33.9288 22.9227 33.9133C22.4975 33.7571 22.1953 33.3983 22.0021 32.996C21.9422 32.8047 21.9367 32.6252 21.9335 32.4254C21.9313 32.3224 21.9313 32.3224 21.929 32.2173C21.9274 32.1436 21.9258 32.07 21.9242 31.9942C21.8662 29.8078 21.4256 27.9196 20.3481 26.0171C19.261 24.0971 18.7695 22.1399 19.3437 19.9549C19.9053 17.9814 21.1862 16.3445 22.9685 15.3297C25.6367 13.8735 29.0978 14.169 31.4044 16.1737ZM25.1987 15.5294C25.1324 15.5445 25.1324 15.5445 25.0648 15.5599C23.4766 15.9404 22.0032 16.9597 21.1165 18.3395C20.1933 19.8485 19.8089 21.6315 20.2189 23.3718C20.4403 24.2509 20.9084 25.0382 21.355 25.8198C22.2554 27.3962 22.6278 28.9962 22.8517 30.787C23.9358 30.787 25.0199 30.787 26.1368 30.787C26.1368 29.8151 26.1368 28.8431 26.1368 27.8417C25.9686 27.823 25.8004 27.8043 25.6271 27.7851C25.437 27.595 25.428 27.514 25.3651 27.2611C25.2733 27.0077 25.1895 26.8686 24.9553 26.7403C24.566 26.5627 24.2449 26.4347 23.8146 26.539C23.7597 26.5682 23.7048 26.5974 23.6482 26.6275C23.428 26.7308 23.2555 26.7796 23.0216 26.7089C22.8102 26.5612 22.6353 26.383 22.4552 26.1991C22.4031 26.1483 22.3509 26.0975 22.2972 26.0451C21.7879 25.5461 21.7879 25.5461 21.7507 25.2964C21.7516 25.0816 21.8396 24.9474 21.9419 24.7619C22.049 24.5257 22.0718 24.3788 21.9972 24.1346C21.7772 23.55 21.7772 23.55 21.2936 23.1877C21.2447 23.1686 21.1958 23.1495 21.1454 23.1299C21.0716 23.1007 21.0716 23.1007 20.9963 23.0708C20.8738 23.0211 20.8738 23.0211 20.756 23.0272C20.6896 22.8282 20.6891 22.647 20.6878 22.4398C20.6875 22.3991 20.6872 22.3584 20.6869 22.3165C20.6863 22.2304 20.6859 22.1444 20.6857 22.0584C20.6852 21.927 20.6834 21.7956 20.6816 21.6642C20.6813 21.5806 20.681 21.4969 20.6808 21.4132C20.6801 21.374 20.6794 21.3348 20.6786 21.2945C20.6794 21.1219 20.6904 21.0042 20.775 20.8521C20.9103 20.7222 21.0507 20.6977 21.2303 20.6483C21.4565 20.5674 21.5749 20.5237 21.7109 20.3231C21.7807 20.1502 21.8352 19.9772 21.8888 19.7987C21.928 19.7321 21.9679 19.6659 22.0092 19.6005C22.0801 19.3166 21.9713 19.1459 21.8434 18.8905C21.768 18.7039 21.7523 18.5821 21.7755 18.3827C21.8344 18.2783 21.8344 18.2783 21.9242 18.1845C21.9596 18.147 21.995 18.1096 22.0315 18.071C22.0779 18.0243 22.1242 17.9777 22.172 17.9296C22.2383 17.8618 22.3046 17.794 22.3709 17.7263C22.5115 17.5835 22.6524 17.4411 22.7944 17.2997C22.8245 17.2696 22.8546 17.2396 22.8856 17.2087C23.0053 17.1 23.0726 17.0804 23.2358 17.0671C23.4895 17.085 23.6632 17.1926 23.8836 17.3123C24.0916 17.3795 24.1815 17.3325 24.381 17.2499C24.4418 17.233 24.5026 17.2162 24.5653 17.1988C24.9443 17.0853 24.9443 17.0853 25.222 16.8196C25.2958 16.6581 25.2958 16.6581 25.3479 16.4976C25.4051 16.3301 25.4628 16.2015 25.5704 16.0605C25.7109 16.008 25.7109 16.008 25.8643 15.9861C25.9153 15.9782 25.9663 15.9702 26.0189 15.962C26.0578 15.9571 26.0967 15.9522 26.1368 15.9472C26.1368 15.7789 26.1368 15.6107 26.1368 15.4374C25.8092 15.4278 25.5178 15.4564 25.1987 15.5294ZM27.0431 15.4374C27.0431 16.671 27.0431 17.9047 27.0431 19.1757C27.1179 19.1757 27.1926 19.1757 27.2696 19.1757C27.2708 19.1394 27.2719 19.1032 27.2731 19.0658C27.2785 18.9006 27.2847 18.7355 27.2909 18.5703C27.2935 18.4847 27.2935 18.4847 27.2962 18.3974C27.2984 18.3421 27.3006 18.2868 27.3028 18.2298C27.3046 18.1791 27.3064 18.1284 27.3082 18.0761C27.3282 17.914 27.3658 17.7921 27.4396 17.6464C27.6255 17.5224 27.676 17.5204 27.8907 17.5236C27.9727 17.523 27.9727 17.523 28.0563 17.5224C28.1712 17.5224 28.2861 17.5236 28.401 17.5259C28.5613 17.5237 28.7007 17.5182 28.8556 17.4765C28.9749 17.3528 29.0136 17.2424 29.0821 17.08C29.185 16.9813 29.185 16.9813 29.2839 16.9171C29.3331 16.8841 29.3331 16.8841 29.3833 16.8503C29.6007 16.7282 29.8112 16.724 30.0557 16.7083C30.1277 16.7035 30.1998 16.6988 30.274 16.6939C30.3293 16.6905 30.3846 16.687 30.4415 16.6835C29.5034 15.9163 28.2551 15.4374 27.0431 15.4374ZM26.0802 17.1366C26.0722 17.1729 26.0643 17.2092 26.0561 17.2466C25.9795 17.4731 25.9015 17.6454 25.6843 17.7651C25.4558 17.8619 25.2219 17.9369 24.985 18.0106C24.8096 18.0652 24.6583 18.1282 24.5005 18.2221C24.2833 18.3503 24.1768 18.3604 23.9279 18.3261C23.7938 18.2692 23.6657 18.2075 23.5378 18.138C23.4187 18.0867 23.4187 18.0867 23.303 18.1378C23.1064 18.2701 22.9388 18.4202 22.795 18.6093C22.7854 18.8013 22.8602 18.9112 22.9402 19.0872C23.0254 19.2984 23.0422 19.4047 23.0216 19.6288C22.9428 19.8116 22.9428 19.8116 22.8375 20.0041C22.6967 20.2648 22.5964 20.5043 22.5225 20.7935C22.463 20.9885 22.4297 21.0775 22.2669 21.2026C22.1239 21.2742 21.9827 21.3311 21.8321 21.3847C21.72 21.4407 21.72 21.4407 21.6056 21.498C21.6056 21.7783 21.6056 22.0587 21.6056 22.3476C21.7177 22.3709 21.8299 22.3943 21.9454 22.4184C22.2311 22.525 22.3511 22.6095 22.4837 22.8859C22.5837 23.1282 22.6659 23.3758 22.7457 23.6254C22.8076 23.7987 22.889 23.956 22.9792 24.1161C23.1166 24.4424 22.9094 24.8688 22.795 25.1796C22.873 25.2667 22.9523 25.3526 23.0322 25.438C23.0762 25.486 23.1203 25.534 23.1656 25.5834C23.2949 25.7054 23.2949 25.7054 23.4495 25.6825C23.6092 25.6251 23.7639 25.5618 23.9188 25.4924C24.2348 25.4159 24.5112 25.5689 24.7881 25.7071C25.05 25.8361 25.2987 25.9397 25.5811 26.0186C25.7683 26.0813 25.8353 26.1135 25.9421 26.2821C25.9993 26.4236 26.0448 26.5606 26.0802 26.7089C26.0989 26.7089 26.1176 26.7089 26.1368 26.7089C26.1368 26.1295 26.1368 25.55 26.1368 24.953C25.9686 24.897 25.8004 24.8409 25.6271 24.7831C25.2042 24.6413 24.8871 24.4535 24.5509 24.1601C24.5166 24.133 24.4823 24.106 24.4469 24.0782C24.0276 23.7158 23.6848 23.0341 23.598 22.4867C23.5258 21.4783 23.6616 20.6387 24.335 19.8412C24.8575 19.2935 25.4258 19.093 26.1368 18.8925C26.1368 18.313 26.1368 17.7336 26.1368 17.1366C26.1181 17.1366 26.0995 17.1366 26.0802 17.1366ZM31.2911 17.4765C31.2944 17.5271 31.2977 17.5778 31.3011 17.63C31.3183 18.0924 31.3038 18.4635 31.0079 18.8358C30.7041 19.1045 30.4346 19.2108 30.0344 19.25C29.6475 19.2183 29.3125 19.1025 29.0538 18.804C28.9631 18.6855 28.8818 18.5637 28.7989 18.4394C28.6609 18.4187 28.6609 18.4187 28.5087 18.4287C28.4175 18.4322 28.3264 18.4357 28.2325 18.4394C28.2325 18.6823 28.2325 18.9253 28.2325 19.1757C28.3295 19.1897 28.4265 19.2037 28.5264 19.2182C28.7872 19.2658 28.9549 19.3139 29.1388 19.5155C29.2691 19.7176 29.2695 19.8988 29.2755 20.1359C29.2766 20.1733 29.2777 20.2107 29.2788 20.2492C29.2822 20.3681 29.2849 20.487 29.2875 20.6059C29.2896 20.6867 29.2918 20.7675 29.2941 20.8484C29.2995 21.046 29.3043 21.2436 29.3087 21.4413C29.3994 21.4465 29.4901 21.4502 29.5809 21.4533C29.6566 21.4566 29.6566 21.4566 29.7339 21.46C29.8798 21.4539 29.8798 21.4539 29.978 21.3517C30.1187 21.1596 30.1187 21.1596 30.1583 20.9315C30.5823 20.7019 30.9886 20.5592 31.4708 20.6789C31.8928 20.8232 32.1164 21.0458 32.3107 21.4413C32.4287 21.8346 32.3757 22.182 32.2164 22.5531C32.0449 22.8574 31.7889 23.0327 31.4611 23.1405C31.0396 23.1912 30.622 23.1737 30.2716 22.914C30.1699 22.7826 30.0811 22.6523 29.9992 22.5077C29.7964 22.3385 29.5624 22.3858 29.3087 22.4042C29.3082 22.4522 29.3077 22.5002 29.3071 22.5496C29.3046 22.7289 29.3011 22.9081 29.297 23.0873C29.2954 23.1647 29.2942 23.242 29.2934 23.3194C29.2921 23.431 29.2894 23.5426 29.2866 23.6543C29.2854 23.7213 29.2842 23.7883 29.283 23.8574C29.2382 24.1319 29.1143 24.313 28.9016 24.4893C28.6783 24.5836 28.4741 24.5952 28.2325 24.6132C28.2325 24.8562 28.2325 25.0992 28.2325 25.3495C28.5471 25.3811 28.5471 25.3811 28.8556 25.3495C28.9577 25.2446 29.0083 25.1435 29.0718 25.0121C29.1833 24.8196 29.3375 24.7631 29.5353 24.6698C29.5727 24.6511 29.61 24.6324 29.6486 24.6132C30.1111 24.5732 30.4409 24.5971 30.838 24.8397C30.8941 24.8584 30.9502 24.8771 31.0079 24.8964C31.0646 24.9849 31.0646 24.9849 31.1212 25.1229C31.1516 25.1907 31.182 25.2585 31.2133 25.3283C31.3549 25.7226 31.3446 26.0664 31.1672 26.4469C30.9776 26.7854 30.754 26.9508 30.3909 27.0748C30.0267 27.1681 29.695 27.1122 29.3654 26.9354C29.1663 26.7969 28.9994 26.6757 28.9116 26.4452C28.8134 26.3015 28.8134 26.3015 28.6715 26.2872C28.5059 26.2778 28.3418 26.2757 28.1759 26.277C28.0626 26.277 27.9493 26.2763 27.8361 26.2748C27.7858 26.2751 27.7356 26.2754 27.6838 26.2758C27.5252 26.2515 27.4781 26.2128 27.3829 26.0858C27.3266 25.9168 27.3152 25.7913 27.3084 25.6144C27.306 25.5561 27.3036 25.4979 27.3012 25.4379C27.299 25.3772 27.2967 25.3165 27.2944 25.2539C27.292 25.1926 27.2895 25.1312 27.287 25.068C27.281 24.9164 27.2752 24.7648 27.2696 24.6132C27.1949 24.6132 27.1201 24.6132 27.0431 24.6132C27.0431 26.6505 27.0431 28.6879 27.0431 30.787C28.1272 30.787 29.2113 30.787 30.3282 30.787C30.403 30.2637 30.4778 29.7403 30.5548 29.2011C30.8691 27.6731 31.4793 26.3799 32.2469 25.0309C33.0992 23.5287 33.3367 21.9177 32.9005 20.2373C32.6362 19.2892 32.1404 18.0478 31.2911 17.4765ZM29.7654 17.7066C29.6674 17.8852 29.7132 18.0216 29.7618 18.2128C29.9175 18.3417 29.9175 18.3417 30.0734 18.3155C30.2293 18.2648 30.2982 18.2392 30.3849 18.0995C30.3722 17.8929 30.3631 17.7946 30.215 17.6464C30.0395 17.6277 29.9219 17.6207 29.7654 17.7066ZM25.6943 20.0111C25.6356 20.04 25.5768 20.069 25.5162 20.0987C24.9999 20.3877 24.7178 20.8333 24.5336 21.3873C24.4079 21.9213 24.47 22.4278 24.7208 22.914C25.0242 23.4001 25.4262 23.7427 25.9669 23.9335C26.023 23.9335 26.0791 23.9335 26.1368 23.9335C26.1368 22.5877 26.1368 21.2419 26.1368 19.8554C25.9658 19.8554 25.8465 19.9353 25.6943 20.0111ZM27.0431 20.1386C27.0431 21.2974 27.0431 22.4563 27.0431 23.6503C27.473 23.6503 27.9029 23.6503 28.3458 23.6503C28.3458 22.4914 28.3458 21.3326 28.3458 20.1386C27.9159 20.1386 27.486 20.1386 27.0431 20.1386ZM30.8805 21.6183C30.7653 21.7215 30.7653 21.7215 30.7566 21.8944C30.7706 22.0599 30.7706 22.0599 30.8415 22.1741C31.0201 22.272 31.1566 22.2263 31.3478 22.1776C31.4767 22.022 31.4767 22.022 31.4504 21.8661C31.4007 21.713 31.3656 21.6469 31.2345 21.5546C31.018 21.5377 31.018 21.5377 30.8805 21.6183ZM29.7654 25.5796C29.6674 25.7582 29.7132 25.8947 29.7618 26.0858C29.9175 26.2148 29.9175 26.2148 30.0734 26.1885C30.2293 26.1378 30.2982 26.1123 30.3849 25.9726C30.3722 25.766 30.3631 25.6676 30.215 25.5194C30.0395 25.5008 29.9219 25.4938 29.7654 25.5796ZM22.9083 31.7499C22.8298 32.5498 22.8298 32.5498 23.1349 32.9394C23.2996 33.054 23.4334 33.067 23.6315 33.0678C23.7128 33.0685 23.7128 33.0685 23.7956 33.0692C23.8842 33.0692 23.8842 33.0692 23.9745 33.0691C24.037 33.0695 24.0994 33.0699 24.1638 33.0702C24.3706 33.0713 24.5773 33.0715 24.7841 33.0717C24.9277 33.072 25.0714 33.0724 25.215 33.0728C25.5162 33.0735 25.8174 33.0737 26.1186 33.0736C26.4664 33.0736 26.8141 33.0748 27.1618 33.0765C27.4968 33.0782 27.8317 33.0786 28.1667 33.0785C28.309 33.0787 28.4513 33.0792 28.5937 33.0801C28.7927 33.0812 28.9917 33.0808 29.1908 33.0802C29.279 33.0811 29.279 33.0811 29.3689 33.0821C29.6965 33.0792 29.9054 33.0569 30.1583 32.8261C30.3349 32.5151 30.3349 32.5151 30.2716 31.7499C27.8417 31.7499 25.4118 31.7499 22.9083 31.7499ZM24.0411 34.0155C23.9626 34.8154 23.9626 34.8154 24.2677 35.205C24.4699 35.3398 24.6141 35.335 24.8476 35.3347C24.8891 35.3351 24.9307 35.3355 24.9735 35.3359C25.111 35.3369 25.2484 35.3372 25.3859 35.3373C25.4815 35.3377 25.5771 35.338 25.6727 35.3384C25.8731 35.3391 26.0736 35.3393 26.274 35.3393C26.5307 35.3392 26.7874 35.3408 27.0441 35.3427C27.2415 35.344 27.439 35.3442 27.6365 35.3442C27.7311 35.3443 27.8257 35.3448 27.9203 35.3457C28.0528 35.3468 28.1852 35.3465 28.3177 35.3458C28.3761 35.3467 28.3761 35.3467 28.4358 35.3477C28.6296 35.3452 28.7378 35.3211 28.9034 35.2174C29.268 34.8421 29.1388 34.6134 29.1388 34.0155C27.4566 34.0155 25.7743 34.0155 24.0411 34.0155ZM25.1739 36.2812C25.1441 36.8768 25.1441 36.8768 25.3439 37.3573C25.7053 37.7095 26.1014 37.6526 26.5793 37.6547C26.6782 37.6564 26.6782 37.6564 26.779 37.6582C27.1372 37.6599 27.4098 37.652 27.7228 37.4706C28.0814 37.1026 28.006 36.8185 28.006 36.2812C27.0714 36.2812 26.1368 36.2812 25.1739 36.2812Z" fill="white"/>
<path d="M16.3379 16.5704C16.5064 16.6451 16.6599 16.738 16.8158 16.8359C16.8577 16.8615 16.8997 16.887 16.9429 16.9134C17.729 17.3952 17.729 17.3952 17.9238 17.59C17.9621 17.9856 17.9621 17.9856 17.8318 18.1811C17.6675 18.2892 17.5529 18.3103 17.3574 18.3263C17.2238 18.2774 17.2238 18.2774 17.0884 18.1953C16.8852 18.0752 16.6821 17.9576 16.4733 17.8475C16.4276 17.8231 16.382 17.7988 16.335 17.7737C16.2438 17.725 16.1524 17.6769 16.0607 17.6292C15.8204 17.4988 15.6513 17.4019 15.5449 17.1368C15.5449 16.8991 15.5663 16.7831 15.7184 16.5987C15.9379 16.4867 16.1064 16.511 16.3379 16.5704Z" fill="white"/>
<path d="M35.9351 27.8986C36.1117 27.9721 36.1117 27.9721 36.288 28.0745C36.3521 28.1116 36.4163 28.1486 36.4824 28.1868C36.5152 28.2063 36.548 28.2259 36.5818 28.246C36.6818 28.3056 36.7827 28.3635 36.8837 28.4213C37.4408 28.7474 37.4408 28.7474 37.6343 29.0314C37.6662 29.2013 37.6662 29.2013 37.6343 29.3713C37.5175 29.5341 37.5175 29.5341 37.3511 29.6545C36.9664 29.7113 36.7162 29.551 36.3953 29.3642C36.3473 29.3373 36.2994 29.3104 36.25 29.2828C35.3538 28.775 35.3538 28.775 35.2554 28.5783C35.2276 28.3328 35.2284 28.2203 35.3722 28.0154C35.5822 27.868 35.6821 27.8766 35.9351 27.8986Z" fill="white"/>
<path d="M17.6403 27.8986C17.8494 28.0455 17.9138 28.1275 17.9589 28.3801C17.9156 28.6221 17.8278 28.7161 17.6403 28.8615C17.4244 28.9979 17.2021 29.1211 16.9783 29.2438C16.9184 29.2772 16.8585 29.3106 16.7967 29.345C16.1762 29.6899 16.1762 29.6899 15.8278 29.6545C15.6359 29.5157 15.5566 29.4356 15.5127 29.2014C15.5628 28.9344 15.7077 28.7934 15.9257 28.6381C16.261 28.4409 16.261 28.4409 16.3956 28.3639C16.4966 28.3059 16.5965 28.2464 16.6965 28.1868C16.7606 28.1498 16.8248 28.1127 16.8909 28.0745C16.9491 28.0407 17.0072 28.0069 17.0672 27.9721C17.2736 27.8862 17.4187 27.8769 17.6403 27.8986Z" fill="white"/>
<path d="M37.4078 16.5705C37.5494 16.6908 37.5494 16.6908 37.6344 16.8537C37.6344 17.0707 37.6236 17.1969 37.4802 17.3635C37.2388 17.5754 36.9555 17.723 36.6786 17.8838C36.6176 17.9202 36.5567 17.9565 36.4939 17.9939C36.4346 18.0285 36.3754 18.063 36.3144 18.0987C36.2607 18.1302 36.207 18.1616 36.1516 18.1941C35.9258 18.301 35.7396 18.3502 35.4962 18.2839C35.3688 18.2131 35.3688 18.2131 35.2555 18.0431C35.2143 17.7239 35.2143 17.7239 35.2555 17.59C35.5365 17.3085 35.8873 17.1234 36.229 16.9245C36.3137 16.8744 36.3137 16.8744 36.4002 16.8234C37.0014 16.4706 37.0014 16.4706 37.4078 16.5705Z" fill="white"/>
<path d="M32.9338 12.0957C33.0683 12.1878 33.0683 12.1878 33.1603 12.3223C33.1859 12.6197 33.1431 12.7992 32.9968 13.0573C32.9451 13.1493 32.9451 13.1493 32.8923 13.2431C32.8557 13.3061 32.8192 13.369 32.7815 13.4339C32.7461 13.4972 32.7106 13.5606 32.6741 13.6259C32.2513 14.3679 32.2513 14.3679 31.9653 14.4536C31.7803 14.4474 31.6489 14.4287 31.4894 14.333C31.3673 14.1294 31.3587 13.9659 31.4045 13.7383C31.5066 13.5106 31.6289 13.2976 31.7581 13.0843C31.8188 12.984 31.8781 12.8831 31.9371 12.7819C32.4233 11.9603 32.4233 11.9603 32.9338 12.0957Z" fill="white"/>
<path d="M20.7562 12.0955C21.0423 12.399 21.2488 12.7849 21.4571 13.1434C21.488 13.1943 21.5189 13.2452 21.5507 13.2976C21.734 13.6133 21.8223 13.8253 21.7757 14.1912C21.6907 14.3328 21.6907 14.3328 21.5491 14.4178C21.2422 14.4616 21.2422 14.4616 21.096 14.4178C20.7825 14.1338 20.6031 13.7992 20.3986 13.4337C20.3621 13.3707 20.3255 13.3078 20.2879 13.2429C20.2534 13.1816 20.2189 13.1203 20.1833 13.0571C20.1519 13.0016 20.1205 12.9462 20.0881 12.8891C20.0072 12.687 20.0005 12.538 20.0198 12.3221C20.2252 12.0529 20.435 11.9885 20.7562 12.0955Z" fill="white"/>
<path d="M37.3714 22.601C37.417 22.6008 37.4627 22.6006 37.5097 22.6003C37.6061 22.6002 37.7025 22.6006 37.7988 22.6016C37.9461 22.6028 38.0933 22.6016 38.2407 22.6001C38.3344 22.6003 38.4281 22.6006 38.5219 22.601C38.5878 22.6003 38.5878 22.6003 38.6551 22.5996C38.8553 22.6031 38.9717 22.614 39.134 22.7359C39.2478 22.8951 39.2737 23.002 39.2777 23.1975C39.2104 23.3534 39.1554 23.4483 39.0144 23.5442C38.8305 23.6129 38.6538 23.6113 38.4602 23.611C38.4197 23.6113 38.3792 23.6115 38.3374 23.6118C38.252 23.6121 38.1665 23.6121 38.0811 23.6119C37.9508 23.6117 37.8206 23.613 37.6903 23.6144C37.6071 23.6146 37.5239 23.6146 37.4406 23.6146C37.4019 23.6151 37.3632 23.6156 37.3233 23.6161C37.0782 23.6138 36.924 23.5737 36.7289 23.4241C36.6402 23.2468 36.6327 23.0496 36.6722 22.8577C36.8615 22.594 37.0694 22.5978 37.3714 22.601Z" fill="white"/>
<path d="M14.6583 22.6008C14.704 22.6005 14.7496 22.6003 14.7967 22.6001C14.893 22.5999 14.9894 22.6004 15.0858 22.6013C15.2331 22.6025 15.3803 22.6013 15.5276 22.5999C15.6214 22.6 15.7151 22.6003 15.8088 22.6008C15.8748 22.6001 15.8748 22.6001 15.9421 22.5994C16.1449 22.6029 16.2591 22.6137 16.4224 22.7389C16.5411 22.9031 16.5401 23.0062 16.5306 23.2028C16.4962 23.367 16.4137 23.4398 16.2814 23.5371C16.1136 23.621 15.9422 23.6041 15.7582 23.6052C15.7175 23.6056 15.6769 23.6059 15.635 23.6062C15.5488 23.6068 15.4627 23.6071 15.3766 23.6073C15.2453 23.6079 15.1141 23.6096 14.9828 23.6114C14.899 23.6118 14.8153 23.6121 14.7316 23.6123C14.6925 23.613 14.6534 23.6137 14.6132 23.6144C14.3659 23.6133 14.2135 23.5731 14.0158 23.4238C13.9066 23.2798 13.902 23.2095 13.9096 23.0273C14.0269 22.6251 14.2774 22.5968 14.6583 22.6008Z" fill="white"/>
<path d="M26.5896 10.4249C26.627 10.4243 26.6644 10.4237 26.7029 10.4231C26.8743 10.4686 26.9348 10.539 27.0427 10.6797C27.0653 10.8446 27.0746 10.9876 27.0728 11.1523C27.0731 11.198 27.0733 11.2437 27.0735 11.2907C27.0736 11.3871 27.0732 11.4834 27.0723 11.5798C27.0711 11.7271 27.0723 11.8743 27.0737 12.0216C27.0736 12.1154 27.0733 12.2091 27.0728 12.3029C27.0733 12.3468 27.0738 12.3908 27.0742 12.4361C27.0707 12.6376 27.0602 12.7526 26.936 12.915C26.7919 13.0196 26.7116 13.0544 26.533 13.0587C26.2136 12.9297 26.2136 12.9297 26.1365 12.7755C26.1288 12.6211 26.1245 12.4683 26.123 12.3139C26.1225 12.2681 26.1221 12.2223 26.1216 12.1751C26.1208 12.078 26.1202 11.981 26.1198 11.884C26.1188 11.7356 26.1163 11.5874 26.1138 11.4391C26.1132 11.3448 26.1128 11.2506 26.1124 11.1563C26.1114 11.112 26.1104 11.0677 26.1094 11.022C26.1102 10.8177 26.1185 10.7034 26.2442 10.5386C26.3728 10.4462 26.4331 10.4224 26.5896 10.4249Z" fill="white"/>
</svg>
