<svg width="18" height="18" viewBox="0 0 18 18" fill="none" xmlns="http://www.w3.org/2000/svg">
<path d="M5.25 15C6.07843 15 6.75 15.6716 6.75 16.5C6.75 17.3284 6.07843 18 5.25 18C4.42157 18 3.75 17.3284 3.75 16.5C3.75 15.6716 4.42157 15 5.25 15Z" fill="white"/>
<path d="M12.75 15C13.5784 15 14.25 15.6716 14.25 16.5C14.25 17.3284 13.5784 18 12.75 18C11.9216 18 11.25 17.3284 11.25 16.5C11.25 15.6716 11.9216 15 12.75 15Z" fill="white"/>
<path fill-rule="evenodd" clip-rule="evenodd" d="M0.916016 0C1.46699 0.000256345 1.99946 0.203145 2.41113 0.569336C2.82249 0.935416 3.08587 1.43946 3.15039 1.98633L3.18164 2.25H18L16.377 11.25H4.24023L4.33887 12.0869C4.36019 12.2695 4.44767 12.4383 4.58496 12.5605C4.72223 12.6827 4.90024 12.75 5.08398 12.75H15V14.25H5.08398C4.53301 14.2497 4.00054 14.0469 3.58887 13.6807C3.17751 13.3146 2.91413 12.8105 2.84961 12.2637L1.66113 2.16211C1.63961 1.97978 1.55222 1.81148 1.41504 1.68945C1.27776 1.56738 1.09972 1.50002 0.916016 1.5H0V0H0.916016ZM4.06445 9.75H15.123L16.2051 3.75H3.3584L4.06445 9.75Z" fill="white"/>
</svg>
