<svg width="24" height="24" viewBox="0 0 24 24" fill="none" xmlns="http://www.w3.org/2000/svg">
<path fill-rule="evenodd" clip-rule="evenodd" d="M4.92285 3.90625L11.9355 6.48242V4.64062H13.3125V6.9873L19.5107 9.26562L19.5762 9.29004V10.7139L19.4424 10.6641L18.3496 10.2627L20.8682 15.6689H21.2676L21.3613 15.6738C21.8251 15.7253 22.1926 16.1521 22.0791 16.6406V16.6445L22.0674 16.6875L22.0664 16.6904C21.9483 17.0848 21.6174 18.05 20.956 18.9746L20.8193 19.1592C20.1068 20.0841 19.0017 20.9805 17.4033 21.0889L17.0771 21.0996C15.4167 21.0995 14.2416 20.2647 13.4619 19.3516L13.3115 19.168C12.7701 18.4831 12.4167 17.7527 12.208 17.2324L12.0459 16.791L12.0176 16.7051C11.8447 16.163 12.2819 15.669 12.8125 15.6689H13.208L16.1103 9.43945L8.26953 6.55957L10.7881 11.9658H11.1875C11.6941 11.9658 12.121 12.4164 12 12.9375L11.999 12.9404L11.9873 12.9844L11.9863 12.9873C11.8682 13.3817 11.5375 14.3468 10.876 15.2715L10.7393 15.4561C10.0268 16.3808 8.92223 17.2772 7.32421 17.3857L6.99804 17.3965C5.33762 17.3965 4.16257 16.5615 3.38281 15.6484L3.23144 15.4648C2.50952 14.5515 2.12338 13.5564 1.96679 13.0879L1.93847 13.002C1.76551 12.4599 2.20187 11.966 2.73242 11.9658H3.1289L6.03027 5.73633L4.85351 5.30469L4.78808 5.28125V3.85645L4.92285 3.90625ZM3.5205 13.2969C3.70066 13.702 3.96276 14.1975 4.32617 14.6572L4.57031 14.9434C5.16704 15.5892 5.95408 16.0654 6.99804 16.0654L7.21777 16.0586C8.29431 15.9873 9.06907 15.3954 9.63476 14.6611L9.77734 14.4658C10.0591 14.0626 10.2663 13.6456 10.4141 13.2969H3.5205ZM4.63964 11.9658H9.27734L6.958 6.98633L4.63964 11.9658ZM14.562 15.7686H19.5142L17.0381 10.4536L14.562 15.7686ZM14.3272 18.4222C13.9134 17.8987 13.6274 17.3323 13.4456 16.8997H20.6453C20.4727 17.3319 20.1978 17.8999 19.7935 18.4248C19.1779 19.2239 18.3103 19.8689 17.0775 19.8689C15.844 19.8689 14.9606 19.2234 14.3272 18.4222Z" fill="white"/>
</svg>
