<svg width="59" height="59" viewBox="0 0 59 59" fill="none" xmlns="http://www.w3.org/2000/svg">
<path d="M34.9978 18.8334C33.8722 18.8511 32.7711 19.1693 31.8058 19.7559C30.8405 20.3424 30.0451 21.1765 29.5 22.174C28.9549 21.1765 28.1595 20.3424 27.1942 19.7559C26.2289 19.1693 25.1278 18.8511 24.0022 18.8334C22.2079 18.9123 20.5173 19.7073 19.2999 21.0445C18.0825 22.3817 17.4371 24.1526 17.5048 25.9702C17.5048 32.8286 28.4564 40.7499 28.9222 41.086L29.5 41.5L30.0778 41.086C30.5436 40.7519 41.4952 32.8286 41.4952 25.9702C41.5629 24.1526 40.9175 22.3817 39.7001 21.0445C38.4827 19.7073 36.7921 18.9123 34.9978 18.8334ZM29.5 39.0077C26.2483 36.5478 19.504 30.5043 19.504 25.9702C19.4357 24.6893 19.8703 23.433 20.7129 22.4754C21.5556 21.5177 22.738 20.9363 24.0022 20.858C25.2665 20.9363 26.4489 21.5177 27.2915 22.4754C28.1342 23.433 28.5687 24.6893 28.5004 25.9702H30.4996C30.4313 24.6893 30.8658 23.433 31.7085 22.4754C32.5511 21.5177 33.7335 20.9363 34.9978 20.858C36.262 20.9363 37.4444 21.5177 38.2871 22.4754C39.1297 23.433 39.5643 24.6893 39.496 25.9702C39.496 30.5063 32.7517 36.5478 29.5 39.0077Z" fill="white"/>
</svg>
