<svg width="32" height="33" viewBox="0 0 32 33" fill="none" xmlns="http://www.w3.org/2000/svg">
<path d="M22 10.0241C22 8.4489 20.654 7.16699 19 7.16699H7C5.346 7.16699 4 8.4489 4 10.0241V12.2813L10 18.9479V22.8813L16 27.167V18.9479L22 12.2813V10.0241ZM20 11.5765L14 18.2432V23.3575L12 21.9289V18.2432L6 11.5765V10.0241C6 9.49937 6.449 9.07175 7 9.07175H19C19.551 9.07175 20 9.49937 20 10.0241V11.5765ZM18 23.3575H28V25.2622H18V23.3575ZM18 19.5479H28V21.4527H18V19.5479ZM28 15.7384V17.6432H19.808L21.522 15.7384H28Z" fill="white"/>
</svg>
