<svg width="120" height="100" viewBox="0 0 120 100" fill="none" xmlns="http://www.w3.org/2000/svg">
<path d="M55.0521 47.4202C54.3888 48.6911 53.9471 49.6777 53.1283 50.9228L48.5108 57.0621C44.7794 62.0939 36.5924 67.8333 34.5704 69.8745C39.5198 77.2371 48.708 84.7816 55.5127 90.7078C57.7518 92.5731 62.7583 96.2045 71.3607 99.8777C69.7897 100.601 61.4736 97.9298 59.4987 96.7983C59.1414 96.5918 58.4314 96.1847 58.0632 96.1017C58.4259 96.5916 58.9231 96.3187 58.9389 97.0669C53.2173 97.0669 45.0129 90.7798 40.6283 87.5454C38.4516 85.7629 26.6616 76.1935 26.6098 73.8426C26.9617 73.8737 26.9884 73.9363 27.1697 74.1584C27.978 75.1554 28.7339 76.1686 29.5785 77.176C29.8796 77.5795 32.2894 80.1154 32.7247 80.2342C32.3827 79.7229 30.5955 77.9102 30.1026 77.2329L26.0238 72.1011C26.086 72.3594 26.5418 73.1555 26.7026 73.4553C26.3916 73.3726 24.9825 71.9775 25.962 71.2645C32.8132 65.9998 37.3327 62.2694 42.8728 55.4133C43.1217 55.0826 43.7799 54.3844 43.8835 54.0022C41.4064 54.5808 31.7308 58.7092 28.5792 60.4247C26.7186 61.4425 27.6147 60.6838 26.7595 63.5513C26.5517 64.2352 24.9967 69.6789 24.463 70.0715L26.0759 64.7085C26.0863 64.6827 26.7069 62.1712 26.4063 63.0028C25.7534 64.8213 25.2098 67.0947 24.6501 68.9908C23.6499 71.9616 22.8046 75.0831 21.8458 78.1004C21.338 80.0841 21.2975 79.3976 21.0125 79.785L20.6446 80.869C20.3026 81.8919 19.0582 86.0102 17.8663 86.0366C17.8663 85.2411 18.1041 85.1943 18.156 84.5848C17.3061 86.0934 16.71 87.7106 15.7927 89.2967C15.4662 89.8599 14.5755 91.4929 13.9796 91.6535C13.7982 91.2661 13.9835 90.9242 14.0561 90.5679L17.6694 74.912C17.4414 75.2374 17.011 76.3635 16.6017 76.3638C16.6017 75.8945 16.6737 75.8011 16.7823 75.4816C17.0518 74.6705 17.1359 73.9 17.2706 73.063C17.5452 71.3633 17.8928 69.8445 18.3074 68.1965C18.5821 67.1063 19.3165 64.3457 19.3165 63.3951C18.5808 63.2244 17.7151 62.6881 17.3731 62.0425C17.7567 61.7894 18.2711 61.3135 18.8982 61.0448C20.6496 60.2905 22.0854 59.356 23.6866 58.3642C23.2927 58.3952 21.9287 59.1123 21.4519 59.3293C21.3381 59.0812 21.3134 58.5855 21.5723 58.286C21.8841 57.9189 23.9094 56.7417 24.3653 56.6177C24.0752 56.1891 24.2043 56.0953 24.6339 55.8218L24.6453 55.817C26.06 54.9283 28.7543 53.9608 30.4542 53.3821C31.413 53.0617 38.2656 50.5664 38.6492 51.0985C35.2236 52.23 31.87 53.2999 28.5222 54.6483C28.0558 54.855 25.6605 55.8423 25.4428 56.0334C26.3031 56.0334 27.4898 55.5468 28.3139 55.2213C34.8699 53.1752 48.7034 47.9472 55.0521 47.4202Z" fill="white"/>
<path fill-rule="evenodd" clip-rule="evenodd" d="M97.1908 35.8219C97.9525 36.3281 98.1665 37.3601 98.3789 38.2177C98.5707 38.9927 98.3946 41.2 98.405 41.1897C98.7832 40.6783 98.5338 40.5998 99.0365 40.4654C99.4148 40.7186 99.4312 41.1222 99.2757 41.6698C99.1513 42.0987 97.917 44.3004 97.6579 44.7086C97.2423 45.3681 94.885 52.1439 94.3099 53.5644C93.8537 54.6702 92.7761 56.8506 92.5326 57.8889L95.7927 62.0881C96.2072 62.646 98.0874 64.4447 98.6214 64.9771C98.8184 65.1786 106.583 72.6391 107.557 73.3934L111.968 77.2215C113.678 78.9212 117.828 81.8868 120 83.1476C118.383 83.659 117.746 83.3659 116.248 82.9165C111.817 81.5938 108.748 79.6034 104.757 77.3404C102.4 75.7595 100.254 74.0031 97.9216 72.4429L90.8008 66.3768C90.5357 66.1074 89.4221 64.9877 89.2253 64.8534C88.4324 66.4342 87.6863 67.9694 86.8002 69.4986L85.1156 72.4641C84.7266 73.1358 83.6281 74.3438 83.0323 75.0308C82.7939 75.3098 81.975 75.9041 81.6537 75.9764C81.6952 75.4602 81.9032 75.419 82.1778 75.0471C82.4006 74.7423 82.5304 74.5611 82.7377 74.2512C83.0693 73.7501 83.6442 73.1973 83.7842 72.5878C83.4681 72.7944 83.26 73.0626 82.9802 73.3365C82.1978 74.1062 81.82 75.5845 80.9652 75.7811V75.5093C80.9704 75.5051 80.9747 75.5001 80.9799 75.4963L80.9652 75.4914V75.5093C80.6689 75.747 80.3414 76.5302 79.4043 77.4136C78.897 77.8934 79.352 77.1921 78.4815 78.2355C78.0098 78.825 77.2943 80.2294 76.5121 80.0487C76.538 79.7335 76.881 79.0251 77.0313 78.7254C78.6016 75.5945 80.2133 72.4684 81.7888 69.3374C82.1986 68.5976 85.1582 61.515 85.35 60.6884C84.6452 59.6448 78.4159 53.1874 77.0004 51.4973C75.9483 50.0661 75.025 48.8518 74.2839 47.2346L73.4392 45.7519C73.123 45.1267 72.9163 44.9298 72.6416 44.2219C72.5069 43.881 72.4244 43.746 72.2689 43.4309C72.0206 42.9149 72.2475 42.9303 72.1599 42.5797C72.0251 42.0475 71.9992 42.2276 72.1599 41.6438C72.3101 41.0964 72.5537 40.5078 72.7816 39.9397C73.502 38.1365 74.3363 38.0745 74.668 39.4954H74.8601C74.9741 39.0562 75.2333 39.0703 75.9278 38.719C77.0826 38.1354 77.0207 37.5319 78.0876 38.5953C78.4504 38.9518 78.6058 39.0299 78.7354 39.593C78.8857 40.2491 78.9272 39.8364 79.2692 40.7096L82.6286 47.0377C83.4423 48.2467 86.4786 52.5307 87.6758 53.3316C88.3962 51.5284 89.1175 49.7295 89.8275 47.9263L92.6872 40.3271C93.2935 38.5499 93.2683 38.1151 94.3148 37.4023C94.7761 37.0871 94.9321 37.0875 95.3467 37.3665C96.0826 36.8808 95.4348 37.0248 96.2744 36.5494C96.4249 36.4666 97.1212 35.9931 97.1908 35.8219ZM90.6771 65.7111C91.0198 66.2231 92.7656 67.8185 93.4652 68.4488L94.4597 69.1975H94.4662L93.0664 67.7831C92.429 67.3129 92.2156 66.8941 91.6455 66.4859C91.4385 66.3362 91.3713 66.2686 91.1849 66.0725C90.9621 65.84 90.993 65.7938 90.6771 65.7111ZM85.5306 60.9732C85.3439 61.5006 84.6912 63.0349 84.655 63.4895H84.6599L85.3695 62.1662C85.9084 60.8954 85.8985 61.0713 85.5306 60.9732ZM81.7416 55.9407C81.8401 56.297 82.1051 56.4466 82.3487 56.6894C83.1985 57.5366 83.1212 57.2677 82.3959 56.5445C82.1678 56.312 82.0007 56.1112 81.7416 55.9407ZM81.084 55.1399C80.5295 54.5922 80.6018 54.8611 81.0319 55.2847C81.5861 55.832 81.5139 55.5633 81.084 55.1399ZM79.9903 54.0022C80.0784 54.338 80.3226 54.5139 80.5713 54.6793C80.4832 54.3436 80.239 54.1675 79.9903 54.0022ZM90.7487 50.7893C91.6557 47.1467 89.6461 53.5899 89.4336 54.2203C89.5735 54.0086 89.8005 53.6363 89.8991 53.4244C90.2463 52.6702 90.5518 51.5849 90.7487 50.7893ZM74.8438 46.9351C75.0515 47.8242 76.9281 50.3909 77.5033 51.1555L79.9838 53.9957C79.8696 53.5962 76.8847 49.8167 76.3933 49.1617C75.9994 48.5933 75.2221 47.1884 74.8438 46.9351ZM90.0814 48.1803C89.9829 48.4385 89.8688 48.7023 89.7445 49.0071L88.4278 52.3437C88.3345 52.6277 88.2516 52.8918 88.1169 53.1965C88.0806 53.2844 87.9671 53.5946 87.9671 53.636C87.9671 53.8891 88.0294 53.8477 88.2471 53.9045C88.2783 53.5324 88.6768 52.6231 88.8168 52.246C89.1226 51.4139 90.4228 47.9948 90.4802 47.3225L90.0814 48.1803Z" fill="white"/>
<path fill-rule="evenodd" clip-rule="evenodd" d="M69.8633 52.8922C70.9102 52.6338 72.6002 52.2302 73.6263 52.6073C73.8751 52.7262 74.2062 52.81 74.3669 53.0321C74.1237 53.1506 73.8543 53.1757 73.5336 53.2632C73.1813 53.3666 72.9884 53.3825 72.8174 53.6148H73.3041C73.3041 53.8524 73.3413 54.1527 73.0306 54.4058C70.8747 55.2738 68.7435 56.1268 66.5772 56.9742C65.7556 57.3917 69.3246 56.1311 69.3246 56.1311C69.1795 56.6788 66.6968 57.3772 66.0645 57.6252C63.2504 58.7464 60.3371 59.7541 57.4919 60.7925C57.0203 60.9477 56.2692 61.3141 55.7357 61.3606L54.4711 65.3287L56.8392 64.785C59.3682 64.0256 63.3898 63.0082 66.0433 62.3469C66.8465 62.1506 67.6296 61.9551 68.3757 61.7691C68.8524 61.6503 72.5885 60.6838 73.0144 60.6835C71.5427 61.5617 72.2166 61.2677 73.4034 60.9732C74.8389 60.6115 76.1709 60.4568 77.2852 60.1985C77.1131 60.8491 75.2008 61.3139 74.5687 61.8407C75.0351 61.8045 74.8804 61.6865 75.3467 61.6503C75.3463 62.843 74.2479 63.0957 73.1755 63.452C69.045 64.8212 64.8986 66.1235 60.7992 67.565C59.7317 67.9421 53.2957 70.3298 52.9216 70.3612L51.657 74.3293C55.1966 73.5078 59.2595 71.8844 62.8614 70.882C67.2613 69.6989 70.7133 68.8155 75.1547 68.0354C74.9893 68.0767 75.2528 68.1129 74.279 68.4227C75.4552 68.4227 77.4499 67.5921 77.9688 67.5503C77.8445 67.6794 77.7144 67.8241 77.5798 67.9377C78.5178 67.917 79.1404 67.6532 79.4255 67.648C79.4929 67.9632 79.5133 67.9689 79.2904 68.2893C78.6582 69.2036 77.8858 69.9886 76.8701 70.5207C76.4866 70.6912 75.9422 70.8676 75.6364 71.1311C76.0145 71.1001 75.891 71.0422 76.3151 71.0318C76.113 71.3108 75.9526 71.3168 75.5795 71.4615L73.9274 72.1385C71.3621 73.2287 68.9205 74.0188 66.2826 74.8713C62.1832 76.2353 58.094 77.4656 53.9323 78.6229C52.5434 79.0104 50.7547 80.2802 49.5264 81.1017C48.7087 80.5542 49.9051 80.1045 49.0398 79.6499C49.0087 81.1018 48.3611 78.1215 48.3611 79.842C47.4956 79.7696 48.0702 78.8443 47.5831 78.4878C47.552 78.865 47.4958 78.7412 47.4854 79.1649L47.2103 78.7613C46.8478 78.1411 46.8318 76.8243 46.9044 76.1734L47.8679 71.4257C46.4276 71.4259 45.2101 72.3131 44.3913 72.1792C43.8057 72.0811 43.3025 72.4834 43.3025 72.1011C44.2714 71.8738 45.6136 71.188 46.6293 70.7746C48.6293 69.9636 46.9313 70.4589 45.962 70.7844L42.6596 71.7609C42.2916 71.854 41.4223 72.1271 41.2663 71.9107C41.5813 71.8283 41.4063 71.8489 41.6537 71.7202C42.0786 71.4981 42.4838 71.5181 42.6238 71.1359C42.3648 71.2702 40.3299 72.1736 40.0017 72.2004C41.2661 71.1362 41.4734 71.492 41.9451 70.8462C41.4164 70.9651 41.1146 71.3017 40.586 71.4257C40.8089 70.5938 47.1225 68.2054 48.1902 67.7766C49.1222 67.3997 48.8943 67.5444 49.1895 66.5477C49.4382 65.7007 50.138 63.795 50.1954 63.1021C49.8326 63.1331 49.4691 63.298 49.1374 63.4065C48.7958 63.52 48.4851 63.6079 48.0762 63.7059C47.5942 63.8196 47.4944 63.8655 47.085 64.0722C46.2354 64.5006 45.8736 64.1454 46.4226 63.6083C46.7957 63.2466 47.2887 63.0343 47.7344 62.7863C47.8479 62.7195 47.8679 62.6976 47.9558 62.6203C47.454 62.6617 47.6504 62.801 47.0964 62.801C46.8168 62.4293 46.7494 62.2804 47.2413 62.0067L48.3139 61.4273C48.915 61.1742 50.5372 60.3583 50.8692 59.9087L50.879 59.9039C50.3646 59.9461 47.9663 61.1234 47.2462 61.4126C46.7282 61.6193 45.9466 62.0984 45.8008 61.9546C45.5002 61.655 47.0295 60.8493 47.3145 60.7046C48.4178 60.1521 46.8941 60.5327 48.9975 59.4791C51.0187 58.4715 49.2471 59.169 50.8122 58.3837C51.6622 57.9549 52.9473 57.5722 53.9682 57.1744C56.155 56.322 58.1038 55.5634 60.389 54.9641C62.6279 54.3751 65.0954 53.5903 67.3861 53.3267C68.4537 53.2027 68.8011 53.1556 69.8633 52.8922ZM53.8803 77.718C53.5538 77.7438 52.1179 78.224 51.9157 78.3739C51.2731 78.8647 50.7341 79.0823 50.4802 79.4595L53.8803 77.718ZM64.9219 74.1389C64.2367 74.1844 59.6389 75.6647 58.8347 75.9813C58.674 76.0433 58.8088 75.9775 58.6377 76.0757L58.5336 76.1685C59.0828 76.122 62.7301 74.8879 63.4262 74.6548L64.9219 74.1389ZM64.9219 74.1389C64.9301 74.1383 64.9377 74.1374 64.9447 74.1372V74.1324L64.9219 74.1389ZM75.6218 70.1691C75.1035 70.288 74.5428 70.5368 74.0349 70.7176C73.9064 70.7843 73.9473 70.7846 73.8754 70.8462C74.2328 70.8151 74.5751 70.6609 74.8601 70.5679C75.2434 70.444 75.4093 70.4584 75.6218 70.1691ZM55.306 67.8238C54.9175 67.6688 53.6737 68.1643 53.4864 68.4227L55.306 67.8238ZM58.8298 58.9371C58.3478 58.9784 57.5284 59.3294 57.0671 59.5051C56.7103 59.6391 56.7876 59.5471 56.5967 59.8095L58.8298 58.9371ZM66.1117 53.9094C65.5107 53.9094 62.314 54.726 61.6081 54.9381L57.2754 56.328V56.3329L61.7839 55.2066L66.1117 53.9094ZM66.2045 53.8118C66.0465 53.9693 66.3102 53.867 66.3233 53.8687C66.5565 53.9411 66.3029 53.7188 66.2045 53.8118ZM72.2266 53.7141C72.0717 53.8738 72.3296 53.7771 72.3454 53.7711C72.5786 53.8434 72.3199 53.6211 72.2266 53.7141Z" fill="white"/>
<path fill-rule="evenodd" clip-rule="evenodd" d="M79.5134 0.289713C79.3668 0.831917 76.3019 1.34874 75.6169 1.53483C73.062 2.32012 70.2681 2.98623 67.6302 3.73534C67.1696 3.86436 63.6008 4.72028 63.5922 4.8356C64.0638 4.8356 63.997 4.76378 64.3702 4.73795C64.6448 4.71733 64.9712 4.75861 65.2458 4.73795C65.8727 4.69145 66.8569 4.37644 66.9922 4.92838L69.2253 4.73795C70.1167 4.67595 71.6565 4.4388 72.6205 4.64029C72.4281 5.48183 70.7137 5.68797 69.9414 5.93586C65.7539 7.18104 61.172 8.38009 56.9792 9.66144C54.3051 10.4829 51.564 11.1813 48.921 11.9873C47.5735 12.4006 46.2872 12.7152 44.9138 13.1233C44.204 13.3351 43.5877 13.5013 42.8728 13.7028L40.8725 14.2236C39.9189 17.5613 38.9381 20.894 37.9949 24.2317L31.9532 45.4052C31.5387 46.7173 29.9787 52.0122 28.9991 52.4478C28.9214 52.3187 28.8435 52.1944 28.7761 51.8537C28.6362 51.1356 28.7186 50.0084 28.8689 49.2024C29.0554 48.1955 28.9511 48.7785 28.8526 48.3756L28.8331 45.5859C28.8331 46.1282 28.6767 45.9113 28.169 46.5722C28.0189 46.7683 27.4343 47.5229 27.3764 47.5243C27.3764 46.8889 27.7653 44.3671 27.7654 43.6539C27.4961 43.6281 27.5521 43.6438 27.3764 43.5562C27.3764 42.1822 27.4698 41.3859 27.8272 40.3271C28.1485 39.3764 28.3866 38.4664 28.6768 37.495L32.015 20.791C32.2068 19.9953 32.2425 19.7466 32.6156 19.6484C32.6156 20.8623 30.3982 29.364 30.9359 28.4277C31.3607 27.4052 32.993 19.9674 32.9949 19.5052C34.28 18.8231 35.0408 17.5768 35.0408 15.97C34.5332 15.9805 33.8811 16.2293 33.4718 16.3379C30.7301 17.1129 12.8278 22.4544 11.1589 22.4544C11.0917 22.1606 11.0454 22.2165 11.1589 21.9694C10.865 22.0369 8.46415 22.3468 8.05511 22.2591C8.18461 21.7685 8.50079 21.8399 8.96168 21.6129L9.99358 21.0953C9.61009 21.1263 9.32012 21.2877 9.004 21.3704C8.06616 21.6183 7.0659 21.87 6.01409 21.8701C6.11511 20.7479 12.7667 19.0401 13.7696 18.1998L13.7875 18.1966L13.7826 18.1917C13.779 18.1948 13.7734 18.1967 13.7696 18.1998L7.02972 19.7835C5.5423 20.1555 5.25628 20.2646 3.61338 20.5436C2.92859 20.6574 0.529631 21.0953 0.0114958 21.0953C-0.364499 19.752 8.59752 17.2929 10.0603 16.8017C24.5198 12.2809 38.5966 8.14338 53.3204 4.72818C57.1452 3.7775 62.1884 3.29645 66.3086 2.51627C70.1852 1.94271 75.953 0.289766 79.5134 0.289713ZM13.7875 16.2549L13.7826 16.2597C13.786 16.2574 13.79 16.2557 13.794 16.2532L13.7875 16.2549ZM40.3842 8.51398C39.8918 8.52446 39.057 8.79854 38.5596 8.92251C38.026 9.05167 37.4142 9.23256 36.8702 9.36685C31.5735 10.6844 22.5663 13.4343 16.9744 15.1806C16.4668 15.3493 14.1132 16.0563 13.794 16.2532C15.2029 16.2126 25.1072 13.18 27.1941 12.4935C29.718 11.6668 32.8497 10.8764 35.4721 10.0032L40.3842 8.51398Z" fill="white"/>
<path fill-rule="evenodd" clip-rule="evenodd" d="M84.655 0C82.6494 4.16417 89.9044 15.1681 92.2266 18.584C93.3308 18.4907 103.1 12.9682 105.815 11.6146C105.717 12.0743 105.748 11.9722 106.302 12.1012C106.266 12.5346 106.085 12.6595 105.469 13.1087C105.21 13.2947 104.603 13.7441 104.458 13.9404C105.443 13.7129 107.733 12.5302 108.796 12.0703C109.785 11.6105 109.925 11.5004 111.019 11.3867C111.174 11.3712 111.279 11.3314 111.543 11.3314C111.507 11.7389 111.403 11.7501 111.097 11.9515L106.883 14.9105C107.163 14.8898 107.251 14.8385 107.5 14.7558L109.211 14.235C109.152 14.9227 107.075 16.7771 106.489 17.1386C104.898 18.0793 96.3157 22.8064 95.7145 22.9459C97.3682 27.0122 105.598 33.352 112.025 37.3665C105.645 38.8493 92.8076 30.9075 89.2106 25.1725C84.7122 26.2937 80.198 27.2967 75.6787 28.33C75.119 28.5212 74.2842 28.4272 73.8282 28.6132C73.7815 28.6287 69.8784 35.6968 69.3083 36.4924C69.0441 36.8695 68.7132 37.3037 68.335 37.5569C68.1536 37.1746 68.7233 35.7026 68.4538 36.1262C68.1274 36.7513 67.8525 37.4545 67.5261 38.1054C67.3082 38.5451 66.6867 39.8817 66.3965 40.0732C66.2255 39.3395 67.9296 34.663 68.2406 33.6865C67.8103 33.9974 66.221 38.5118 65.8838 39.3652C65.6196 40.0109 65.4062 40.6412 65.1368 41.2353L64.3018 43.1119C63.8609 44.2078 62.4055 47.1202 61.447 48.4944C61.4641 48.2506 68.0641 30.2738 68.6296 28.7532C68.8006 28.3502 68.9313 27.8793 69.1179 27.4918C68.4598 27.4918 66.7174 27.9624 66.4942 27.1207C67.634 26.9296 68.5464 26.6913 69.2253 26.6292C69.4844 26.469 70.071 23.6428 70.3923 22.6611C70.5581 22.1549 70.7336 21.5867 70.8838 21.0237C71.4746 18.7969 72.3407 16.905 73.0404 14.8486C73.4609 13.612 76.7819 5.21923 77.8549 5.1302C76.3519 7.76523 70.9158 20.2329 70.6722 23.1315H70.6771L71.6781 20.6461C73.9584 15.0764 76.699 7.23315 80.0521 2.28352C81.0368 0.826505 82.924 0.144669 84.655 0ZM75.4297 27.8694C75.3261 27.8746 73.973 28.091 73.781 28.3544C74.1282 28.3234 75.4296 28.2156 75.4297 27.8694ZM88.8265 24.873C88.697 24.3873 88.4787 24.5944 87.9916 24.7184C86.8136 25.0391 82.2398 26.2013 81.6439 26.6145C82.1878 26.6041 82.9956 26.3512 83.488 26.2272L88.8265 24.873ZM80.669 12.2868C80.4663 13.151 77.887 20.7055 77.3682 20.708C77.3791 20.5621 77.7148 19.541 77.43 19.9951C76.6372 21.8497 75.8391 23.6941 75.0358 25.5436L75.0407 25.5501C76.3104 25.1264 76.2902 25.3837 75.6218 25.0634C75.7041 24.9837 84.1093 22.8497 86.2045 21.3851C84.147 18.4555 82.3844 15.4281 80.669 12.2868Z" fill="white"/>
<path d="M65.0391 33.3007C65.0312 33.8455 57.0672 36.9842 56.2435 37.3095C52.6365 38.7303 48.8579 39.7681 45.1368 40.8479C42.7373 41.4834 39.7934 42.2533 37.1192 41.5868L35.6837 40.983C35.1246 40.6423 35.5075 40.4768 35.9425 40.2962C36.1704 40.198 36.3058 40.12 36.5284 40.0064C37.2384 39.6499 38.2497 39.2053 39.0219 39.0038C42.7013 38.0481 44.3081 38.7097 50.0033 36.9791C45.0648 38.2176 40.2032 38.3611 40.1417 38.3626C39.553 38.2802 38.4596 37.9985 38.1544 37.5569C38.4511 37.153 39.0493 37.0349 39.266 36.8342C40.3437 35.8425 40.1004 35.8724 41.8002 35.485C43.392 35.1181 48.1954 34.3542 49.7966 34.1682C54.9895 33.7032 59.8099 33.3007 65.0391 33.3007Z" fill="white"/>
<path d="M38.1544 37.5569L38.1511 37.5618V37.552L38.1544 37.5569Z" fill="white"/>
<path d="M67.4642 21.9629C67.3606 22.3504 66.3181 22.8878 65.9294 23.1461C63.0479 24.7788 60.2024 26.4585 57.238 27.9361C54.1235 29.3465 51.0245 30.7154 47.8842 32.0637C45.9513 32.8955 43.9817 33.6187 41.9141 34.1406C40.831 34.4144 38.4929 34.1974 37.5652 33.5774C37.8343 33.0667 37.892 33.0925 38.4766 32.845C42.0318 31.3518 45.6762 29.3886 49.1537 27.6888L49.1488 27.6822C48.6775 27.7184 40.9958 31.496 40.6755 31.4339C40.3077 31.3564 40.6126 31.243 40.7992 30.7991C41.0532 30.1998 40.8566 30.4681 41.3282 30.0651C41.9345 29.5485 43.5406 28.6137 44.2611 28.2519C51.18 24.7592 59.654 21.7872 67.4642 21.9629Z" fill="white"/>
<path d="M49.9105 33.7646C50.2373 32.6539 58.4238 32.9686 59.7103 32.9996L59.6794 33.0419C58.2232 33.1091 56.7766 33.202 55.3256 33.3105C55.0873 33.326 54.818 33.3465 54.528 33.3723H54.5378C53.0144 33.4912 51.4806 33.6251 49.9105 33.7646Z" fill="white"/>
<path d="M63.0062 13.4538C63.0062 14.3011 45.5837 25.9004 43.6085 27.2184C43.1473 27.5283 42.6497 27.8177 42.1729 28.107C41.494 28.5256 41.6331 28.3806 40.949 28.4374C40.1727 28.4526 41.2554 27.6729 41.1622 27.4869C40.4159 27.6574 39.2447 27.6108 39.2188 26.4225C39.836 26.2773 42.4108 24.6301 42.7947 23.5091C47.7698 19.97 50.0709 18.5385 52.5326 17.469C49.6407 18.3526 45.075 21.4833 42.7947 23.1315C42.1522 23.1418 41.8146 23.4263 41.4519 22.941C41.5762 22.4813 42.5143 21.7991 42.8825 21.4632C44.5358 19.9442 50.4758 17.34 52.6059 16.6373L55.4916 15.6445C56.9009 15.2261 62.2422 13.4702 63.0062 13.4538Z" fill="white"/>
<path d="M60.0831 22.1028C59.8604 22.1338 59.5863 22.1917 59.2758 22.264L59.2806 22.2688C54.6579 23.235 50.0664 24.9559 45.9359 26.914C46.6511 25.5346 58.0186 22.0167 60.337 22.0573L60.0831 22.1028Z" fill="white"/>
<path d="M51.8946 16.2955C50.1374 16.8744 45.7748 18.7559 43.3806 20.249C43.8419 18.978 52.1804 15.7222 53.9633 15.5827L51.8946 16.2955Z" fill="white"/>
</svg>
