<svg width="1110" height="854" viewBox="0 0 1110 854" fill="none" xmlns="http://www.w3.org/2000/svg">
<g style="mix-blend-mode:overlay">
<path d="M509.275 438.161C503.146 449.905 499.075 459.023 491.509 470.528L448.842 527.243C414.363 573.742 338.702 626.78 320.026 645.638C365.758 713.667 450.662 783.367 513.537 838.125C534.224 855.359 580.483 888.92 659.975 922.863C645.465 929.547 568.607 904.865 550.362 894.41C547.058 892.501 540.498 888.73 537.098 887.966C540.45 892.501 545.047 889.971 545.19 896.893C492.323 896.893 416.518 838.793 376.006 808.908C355.892 792.437 246.951 704.023 246.473 682.302C249.729 682.588 249.968 683.162 251.644 685.215C259.115 694.429 266.107 703.786 273.912 713.095C276.691 716.819 298.957 740.258 302.979 741.356C299.819 736.63 283.297 719.873 278.748 713.619L241.061 666.214C241.636 668.601 245.85 675.953 247.335 678.722C244.462 677.958 231.437 665.069 240.487 658.48C303.793 609.834 345.55 575.365 396.741 512.015C399.04 508.959 405.121 502.514 406.079 498.981C383.189 504.328 293.785 542.473 264.67 558.322C247.479 567.727 255.762 560.709 247.861 587.204C245.946 593.506 231.58 643.824 226.647 647.452L241.54 597.898C241.636 597.66 247.383 574.458 244.605 582.145C238.572 598.949 233.543 619.954 228.371 637.475C219.129 664.925 211.324 693.76 202.465 721.64C197.772 739.972 197.389 733.623 194.755 737.203L191.355 747.229C188.195 756.681 176.701 794.73 165.687 794.969C165.687 787.617 167.89 787.187 168.369 781.554C160.516 795.494 155.009 810.437 146.533 825.093C143.516 830.297 135.279 845.381 129.772 846.861C128.097 843.281 129.821 840.13 130.491 836.836L163.868 692.185C161.761 695.192 157.786 705.6 154.003 705.6C154.003 701.255 154.674 700.395 155.68 697.436C158.17 689.941 158.936 682.827 160.181 675.094C162.719 659.388 165.927 645.352 169.758 630.123C172.296 620.05 179.096 594.557 179.096 585.772C172.296 584.197 164.299 579.232 161.139 573.265C164.682 570.925 169.423 566.533 175.217 564.051C191.402 557.081 204.668 548.44 219.465 539.273C215.825 539.56 203.231 546.196 198.825 548.201C197.772 545.91 197.532 541.327 199.927 538.558C202.8 535.168 221.522 524.284 225.737 523.138C223.056 519.176 224.253 518.316 228.227 515.786L228.323 515.738C241.396 507.527 266.298 498.6 282.005 493.253C290.864 490.293 354.17 467.234 357.714 472.151C326.061 482.606 295.077 492.488 264.143 504.948C259.832 506.858 237.709 515.977 235.698 517.743C243.647 517.743 254.614 513.256 262.227 510.248C322.804 491.343 450.614 443.031 509.275 438.161Z" fill="url(#paint0_linear_40000374_51064)" fill-opacity="0.5"/>
<path fill-rule="evenodd" clip-rule="evenodd" d="M898.643 330.975C905.682 335.653 907.645 345.201 909.608 353.126C911.38 360.286 909.752 380.664 909.848 380.576C913.343 375.85 911.045 375.134 915.69 373.893C919.186 376.232 919.329 379.955 917.893 385.016C916.743 388.978 905.347 409.315 902.952 413.087C899.121 419.15 877.333 481.784 872.018 494.913C867.804 505.129 857.843 525.275 855.592 534.871L885.713 573.684C889.544 578.839 906.927 595.453 911.859 600.37C913.679 602.232 985.413 671.169 994.416 678.139L1035.17 713.514C1050.97 729.22 1089.33 756.623 1109.39 768.271C1094.45 772.998 1088.56 770.276 1074.72 766.123C1033.78 753.902 1005.43 735.522 968.557 714.612C946.768 700.004 926.943 683.772 905.394 669.354L839.598 613.308C837.155 610.824 826.86 600.466 825.04 599.225C817.713 613.833 810.818 628.012 802.63 642.143L787.066 669.546C783.475 675.752 773.322 686.923 767.815 693.272C765.612 695.85 758.047 701.34 755.078 702.009C755.461 697.235 757.376 696.852 759.914 693.415C761.973 690.598 763.17 688.928 765.086 686.063C768.151 681.433 773.467 676.325 774.76 670.691C771.839 672.601 769.923 675.083 767.337 677.613C760.106 684.727 756.61 698.38 748.709 700.194V697.683C748.757 697.644 748.804 697.604 748.852 697.568L748.709 697.521V697.683C745.972 699.88 742.953 707.118 734.295 715.28C729.602 719.72 733.816 713.228 725.771 722.871C721.414 728.313 714.805 741.299 707.574 739.628C707.814 736.716 710.974 730.175 712.363 727.406C726.873 698.476 741.766 669.593 756.323 640.663C760.106 633.836 787.449 568.384 789.221 560.746C782.707 551.101 725.148 491.428 712.075 475.817C702.354 462.594 693.831 451.374 686.983 436.432L679.178 422.73C676.257 416.954 674.341 415.14 671.803 408.6C670.558 405.449 669.791 404.207 668.354 401.295C666.056 396.521 668.164 396.664 667.35 393.418C666.105 388.501 665.865 390.172 667.35 384.777C668.738 379.717 670.989 374.275 673.096 369.023C679.752 352.362 687.462 351.79 690.526 364.918H692.299C693.352 360.86 695.746 361.003 702.163 357.757C712.842 352.362 712.267 346.777 722.132 356.611C725.484 359.905 726.921 360.621 728.118 365.824C729.507 371.887 729.889 368.069 733.05 376.137L764.08 434.618C771.598 445.789 799.661 485.365 810.723 492.765C817.379 476.104 824.035 459.49 830.596 442.829L857.028 372.604C862.631 356.181 862.392 352.171 872.065 345.583C876.327 342.671 877.764 342.671 881.595 345.249C888.394 340.762 882.409 342.098 890.166 337.706C891.555 336.942 898.02 332.55 898.643 330.975ZM838.449 607.149C841.61 611.876 857.747 626.628 864.212 632.452L873.406 639.374H873.454L860.524 626.293C854.634 621.949 852.671 618.082 847.403 614.311C845.488 612.926 844.865 612.305 843.142 610.491C841.083 608.343 841.37 607.913 838.449 607.149ZM790.897 563.372C789.174 568.241 783.14 582.419 782.805 586.621H782.852L789.413 574.4C794.393 562.657 794.297 564.279 790.897 563.372ZM755.892 516.873C756.801 520.167 759.244 521.552 761.495 523.796C769.348 531.625 768.63 529.143 761.926 522.459C759.819 520.311 758.286 518.448 755.892 516.873ZM749.81 509.474C744.687 504.413 745.357 506.896 749.331 510.811C754.455 515.871 753.785 513.388 749.81 509.474ZM739.706 498.971C740.52 502.074 742.771 503.697 745.069 505.225C744.255 502.122 742.004 500.498 739.706 498.971ZM839.119 469.276C847.499 435.621 828.919 495.152 826.956 500.977C828.249 499.019 830.356 495.581 831.266 493.624C834.474 486.654 837.299 476.628 839.119 469.276ZM739.658 498.924L739.706 498.971L739.653 498.91C739.655 498.915 739.657 498.919 739.658 498.924ZM692.154 433.663C694.07 441.874 711.405 465.6 716.721 472.666L739.653 498.91C738.63 495.255 711.017 460.295 706.473 454.239C702.833 448.988 695.65 436.002 692.154 433.663ZM832.941 445.168C832.031 447.555 830.978 449.99 829.829 452.807L817.666 483.646C816.804 486.272 816.038 488.707 814.793 491.523C814.458 492.335 813.404 495.2 813.404 495.582C813.404 497.921 813.979 497.539 815.99 498.064C816.277 494.627 819.965 486.224 821.258 482.739C824.083 475.052 836.102 443.449 836.629 437.243L832.941 445.168Z" fill="url(#paint1_linear_40000374_51064)" fill-opacity="0.5"/>
<path fill-rule="evenodd" clip-rule="evenodd" d="M646.137 488.719C655.81 486.332 671.421 482.609 680.902 486.094C683.201 487.192 686.265 487.955 687.75 490.008C685.499 491.106 683.009 491.345 680.04 492.156C676.784 493.111 675.012 493.254 673.432 495.402H677.934C677.934 497.598 678.269 500.368 675.395 502.707C655.475 510.727 635.793 518.604 615.776 526.434C608.168 530.298 641.111 518.668 641.156 518.652C639.815 523.713 616.877 530.158 611.035 532.449C585.033 542.809 558.121 552.118 531.831 561.714C527.473 563.146 520.53 566.535 515.598 566.965L503.913 603.629L525.797 598.616C549.166 591.598 586.326 582.194 610.844 576.083C618.266 574.269 625.497 572.455 632.393 570.736C636.798 569.638 671.325 560.711 675.252 560.711C661.652 568.827 667.877 566.106 678.843 563.385C692.107 560.043 704.414 558.611 714.71 556.224C713.129 562.239 695.459 566.535 689.617 571.404C693.927 571.07 692.491 569.973 696.801 569.639C696.8 580.666 686.649 583.006 676.736 586.3C638.571 598.951 600.261 610.98 562.383 624.3C552.518 627.785 493.043 649.841 489.595 650.128L477.91 686.792C510.617 679.201 548.16 664.211 581.441 654.949C622.097 644.017 653.99 635.853 695.029 628.645C693.497 629.026 695.938 629.361 686.935 632.226C697.806 632.226 716.242 624.539 721.031 624.157C719.882 625.351 718.684 626.687 717.439 627.737C726.107 627.546 731.853 625.112 734.487 625.064C735.11 627.976 735.301 628.025 733.242 630.984C727.4 639.434 720.265 646.69 710.879 651.607C707.335 653.183 702.308 654.807 699.482 657.241C702.978 656.955 701.829 656.429 705.756 656.334C703.888 658.912 702.403 658.959 698.955 660.296L683.68 666.55C659.976 676.623 637.421 683.928 613.047 691.805C575.168 704.408 537.386 715.77 498.933 726.464C486.099 730.044 469.578 741.788 458.228 749.379C450.663 744.319 461.724 740.165 453.727 735.964C453.44 749.378 447.454 721.833 447.454 737.73C439.457 737.062 444.772 728.517 440.271 725.223C439.984 728.707 439.457 727.562 439.361 731.477L436.823 727.753C433.471 722.024 433.328 709.85 433.998 703.835L442.905 659.962C429.593 659.962 418.339 668.173 410.773 666.932C405.362 666.025 400.717 669.749 400.717 666.216C409.672 664.115 422.074 657.766 431.46 653.946C449.944 646.451 434.237 651.034 425.282 654.042L394.779 663.065C391.379 663.925 383.334 666.454 381.897 664.449C384.818 663.685 383.191 663.877 385.489 662.684C389.416 660.631 393.15 660.821 394.443 657.288C392.048 658.53 373.23 666.884 370.213 667.123C381.897 657.289 383.813 660.583 388.171 654.615C383.286 655.713 380.508 658.816 375.624 659.962C377.683 652.276 436.009 630.22 445.874 626.258C454.494 622.773 452.387 624.109 455.116 614.896C457.415 607.066 463.879 589.45 464.406 583.053C461.054 583.339 457.702 584.868 454.638 585.87C451.477 586.92 448.603 587.732 444.82 588.639C440.367 589.689 439.457 590.119 435.674 592.028C427.821 595.99 424.469 592.696 429.545 587.731C432.993 584.39 437.542 582.432 441.66 580.141C442.713 579.52 442.905 579.329 443.719 578.613C439.074 578.995 440.893 580.284 435.769 580.284C433.184 576.847 432.562 575.463 437.11 572.933L447.023 567.586C452.578 565.247 467.567 557.703 470.632 553.55L470.727 553.502C465.987 553.884 443.814 564.769 437.158 567.442C432.369 569.352 425.139 573.792 423.798 572.455C421.021 569.686 435.147 562.238 437.781 560.901C447.981 555.793 433.903 559.327 453.345 549.588C472.02 540.279 455.643 546.723 470.104 539.467C477.958 535.504 489.834 531.972 499.268 528.296C519.476 520.419 537.482 513.401 558.6 507.863C579.287 502.421 602.081 495.164 623.247 492.729C633.111 491.584 636.32 491.153 646.137 488.719ZM498.454 718.109C495.437 718.348 482.173 722.787 480.305 724.172C474.367 728.707 469.386 730.712 467.04 734.197L498.454 718.109ZM600.527 685.033C594.375 685.383 551.681 699.136 544.233 702.068C542.749 702.641 543.994 702.021 542.414 702.928L541.456 703.787C546.532 703.357 580.244 691.948 586.661 689.8L600.527 685.033ZM600.527 685.033C600.585 685.03 600.64 685.026 600.691 685.025V684.978L600.527 685.033ZM699.339 648.361C694.55 649.459 689.378 651.751 684.685 653.422C683.488 654.042 683.871 654.042 683.201 654.615C686.505 654.329 689.665 652.896 692.299 652.037C695.842 650.891 697.375 651.035 699.339 648.361ZM511.623 626.688C508.031 625.255 496.538 629.839 494.814 632.226L511.623 626.688ZM544.185 544.575C539.732 544.957 532.166 548.203 527.904 549.826C524.6 551.067 525.318 550.208 523.547 552.643L544.185 544.575ZM611.467 498.124C605.912 498.124 576.365 505.667 569.852 507.624L529.819 520.466V520.514L550.65 515.311C557.929 513.496 564.107 511.921 571.481 510.106L611.467 498.124ZM613.43 497.742C615.585 498.411 613.238 496.357 612.328 497.217C610.844 498.697 613.382 497.694 613.43 497.742ZM669.074 496.835C671.229 497.503 668.835 495.45 667.973 496.31C666.488 497.837 669.074 496.835 669.074 496.835Z" fill="url(#paint2_linear_40000374_51064)" fill-opacity="0.5"/>
<path fill-rule="evenodd" clip-rule="evenodd" d="M735.301 2.67773C733.96 7.69029 705.612 12.4639 699.29 14.1826C675.682 21.4391 649.87 27.5982 625.496 34.5205C621.234 35.7141 588.201 43.6365 588.192 44.6885C592.55 44.6885 591.928 44.021 595.375 43.7822C597.913 43.5913 600.931 43.9732 603.469 43.7822C609.263 43.3525 618.361 40.4401 619.606 45.5479L640.245 43.7822C648.482 43.2093 662.704 41.0131 671.611 42.875C669.839 50.6564 653.989 52.5659 646.853 54.8574C608.161 66.3627 565.829 77.4389 527.089 89.2783C502.379 96.8689 477.047 103.313 452.625 110.761C440.174 114.58 428.298 117.492 415.608 121.264C409.048 123.221 403.349 124.749 396.741 126.61L378.257 131.432C369.446 162.272 360.395 193.064 351.68 223.904L295.844 419.542C292.013 431.668 277.599 480.6 268.549 484.611C267.83 483.418 267.112 482.272 266.489 479.121C265.196 472.485 265.963 462.078 267.352 454.631C269.075 445.322 268.118 450.716 267.208 446.992L267.016 421.213C267.016 426.225 265.579 424.221 260.887 430.331C259.498 432.145 254.086 439.115 253.56 439.115C253.56 433.243 257.151 409.947 257.151 403.358C254.661 403.12 255.188 403.263 253.56 402.451C253.56 389.753 254.421 382.401 257.726 372.614C260.694 363.83 262.897 355.427 265.579 346.452L296.419 192.109C298.191 184.758 298.526 182.466 301.974 181.559C301.974 192.777 281.478 271.357 286.458 262.669C290.385 253.217 305.468 184.428 305.469 180.223C317.345 173.921 324.385 162.415 324.385 147.568C319.692 147.664 313.658 149.955 309.875 150.958C284.543 158.119 119.144 207.481 103.723 207.481C103.1 204.76 102.669 205.286 103.723 202.994C101.041 203.615 78.8212 206.48 75.038 205.668C76.2352 201.133 79.1561 201.801 83.4179 199.7L92.9482 194.926C89.4047 195.212 86.7226 196.692 83.8017 197.456C75.1342 199.748 65.8918 202.087 56.1708 202.087C57.0786 191.717 118.602 175.943 127.854 168.179L128.001 168.145L127.953 168.097C127.921 168.124 127.888 168.151 127.854 168.179L65.5566 182.8C51.8131 186.237 49.1791 187.24 33.999 189.818C27.6777 190.869 5.50634 194.926 0.717711 194.926C-2.77599 182.513 80.0663 159.789 93.5703 155.254C227.174 113.482 357.235 75.2426 493.281 43.6865C528.622 34.9024 575.215 30.4626 613.285 23.2539C649.104 17.9548 702.403 2.67773 735.301 2.67773ZM128.001 150.194L127.953 150.241C127.976 150.225 128.001 150.209 128.027 150.192C128.018 150.193 128.01 150.194 128.001 150.194ZM373.756 78.6797C369.207 78.7752 361.496 81.3054 356.899 82.4512C351.967 83.6447 346.316 85.3154 341.288 86.5566C292.348 98.7303 209.121 124.128 157.451 140.264C152.754 141.824 130.855 148.399 128.027 150.192C140.913 149.868 232.598 121.785 251.884 115.439C275.205 107.801 304.129 100.497 328.359 92.4287L373.756 78.6797Z" fill="url(#paint3_linear_40000374_51064)" fill-opacity="0.5"/>
<path fill-rule="evenodd" clip-rule="evenodd" d="M782.805 0C764.272 38.4783 831.314 140.165 852.768 171.721C862.969 170.86 953.234 119.827 978.326 107.319C977.416 111.568 977.704 110.613 982.827 111.807C982.492 115.817 980.817 116.963 975.118 121.116C972.724 122.835 967.122 126.987 965.78 128.802C974.879 126.701 996.045 115.769 1005.86 111.521C1015.01 107.272 1016.3 106.269 1026.4 105.219C1027.84 105.076 1028.8 104.693 1031.24 104.693C1030.91 108.465 1029.95 108.56 1027.12 110.422L988.191 137.777C990.777 137.586 991.591 137.109 993.89 136.345L1009.69 131.523C1009.17 137.873 989.963 155.012 984.552 158.354C969.851 167.042 890.552 210.723 884.995 212.013C900.271 249.584 976.315 308.161 1035.69 345.255C976.746 358.956 858.131 285.58 824.897 232.589C783.332 242.948 741.622 252.21 699.865 261.758C694.693 263.524 686.984 262.665 682.769 264.384C682.339 264.527 646.279 329.835 641.012 337.187C638.569 340.672 635.504 344.681 632.009 347.021C630.333 343.487 635.6 329.882 633.11 333.797C630.094 339.573 627.556 346.066 624.539 352.081C622.528 356.139 616.781 368.504 614.1 370.271C612.519 363.491 628.274 320.286 631.147 311.264C627.173 314.128 612.471 355.852 609.358 363.729C606.916 369.697 604.953 375.522 602.463 381.012L594.753 398.342C590.682 408.463 577.227 435.387 568.368 448.086C568.424 446.108 629.52 279.707 634.739 265.672C636.319 261.948 637.516 257.604 639.24 254.023C633.159 254.023 617.069 258.368 615.01 250.586C625.545 248.82 633.973 246.624 640.246 246.051C642.641 244.568 648.052 218.457 651.02 209.387C652.553 204.708 654.181 199.457 655.569 194.254C661.028 173.678 669.025 156.205 675.49 137.204C679.369 125.794 710.065 48.2168 719.977 47.4053C706.09 71.7526 655.857 186.949 653.606 213.731H653.654L662.896 190.769C683.967 139.305 709.299 66.8364 740.281 21.1016C749.38 7.63893 766.81 1.33672 782.805 0ZM697.566 257.509C696.609 257.557 684.11 259.561 682.338 261.996C685.546 261.71 697.566 260.707 697.566 257.509ZM821.353 229.819C820.156 225.332 818.145 227.242 813.643 228.388C802.773 231.348 760.489 242.089 754.982 245.908C760.01 245.813 767.481 243.473 772.03 242.327L821.353 229.819ZM745.979 113.525C744.112 121.498 720.264 191.342 715.476 191.342C715.571 190.005 718.684 180.553 716.051 184.753C708.724 201.891 701.349 218.935 693.927 236.025L693.975 236.073C705.707 232.159 705.515 234.546 699.338 231.586C699.818 230.917 777.729 211.154 797.123 197.596C778.112 170.527 761.83 142.551 745.979 113.525Z" fill="url(#paint4_linear_40000374_51064)" fill-opacity="0.5"/>
<path d="M601.554 307.695C601.554 312.708 527.906 341.733 520.29 344.741C486.961 357.87 452.051 367.466 417.668 377.443C395.496 383.315 368.297 390.428 343.588 384.27L330.323 378.685C325.151 375.534 328.695 374.006 332.718 372.335C334.824 371.428 336.07 370.711 338.129 369.661C344.689 366.367 354.027 362.262 361.162 360.4C395.162 351.569 410.007 357.679 462.634 341.687C416.787 353.185 371.658 354.479 371.506 354.48C366.069 353.72 355.976 351.111 353.151 347.034C355.893 343.3 361.41 342.204 363.413 340.35C373.373 331.184 371.123 331.47 386.829 327.89C401.53 324.5 445.922 317.434 460.719 315.716C508.701 311.419 553.236 307.695 601.554 307.695Z" fill="url(#paint5_linear_40000374_51064)" fill-opacity="0.5"/>
<path d="M353.151 347.034C353.14 347.05 353.128 347.065 353.117 347.081V346.985C353.128 347.002 353.14 347.018 353.151 347.034Z" fill="url(#paint6_linear_40000374_51064)" fill-opacity="0.5"/>
<path d="M409.575 261.041C473.504 228.769 551.799 201.318 623.964 202.941C623.006 206.522 613.382 211.487 609.79 213.874C583.165 228.96 556.875 244.475 529.483 258.129C500.703 271.162 472.067 283.812 443.048 296.272C425.186 303.959 406.989 310.643 387.883 315.465C377.874 317.995 356.277 315.99 347.705 310.261C350.195 305.534 350.723 305.773 356.134 303.481C388.984 289.685 422.648 271.543 454.78 255.837L454.732 255.79C450.374 256.124 379.311 291.069 376.437 290.448C373.038 289.732 375.863 288.682 377.587 284.577C379.933 279.039 378.114 281.522 382.472 277.798C388.074 273.024 402.919 264.383 409.575 261.041Z" fill="url(#paint7_linear_40000374_51064)" fill-opacity="0.5"/>
<path d="M461.771 311.971C464.789 301.707 540.45 304.619 552.326 304.905L552.038 305.287C538.582 305.908 525.222 306.767 511.813 307.77C509.611 307.913 507.121 308.104 504.439 308.343H504.535C490.456 309.441 476.281 310.682 461.771 311.971Z" fill="url(#paint8_linear_40000374_51064)" fill-opacity="0.5"/>
<path d="M582.781 124.312C582.781 132.142 421.786 239.318 403.541 251.491C399.279 254.356 394.682 257.03 390.276 259.703C384.004 263.57 385.296 262.233 378.976 262.758C371.793 262.901 381.8 255.692 380.938 253.974C374.043 255.549 363.221 255.12 362.981 244.14C368.68 242.803 392.48 227.573 396.023 217.214C441.994 184.512 463.256 171.288 486.002 161.406C459.281 169.57 417.093 198.501 396.023 213.729C390.085 213.825 386.972 216.45 383.62 211.963C384.769 207.714 393.437 201.413 396.837 198.31C412.113 184.274 466.991 160.213 486.673 153.721L513.346 144.554C526.371 140.687 575.741 124.456 582.781 124.312Z" fill="url(#paint9_linear_40000374_51064)" fill-opacity="0.5"/>
<path d="M558.12 203.794L555.773 204.224C553.714 204.51 551.176 205.036 548.303 205.704L548.351 205.752C505.636 214.679 463.208 230.577 425.043 248.67C431.652 235.923 536.715 203.412 558.12 203.794Z" fill="url(#paint10_linear_40000374_51064)" fill-opacity="0.5"/>
<path d="M480.112 150.57C463.879 155.917 423.558 173.295 401.435 187.092C405.696 175.348 482.745 145.272 499.219 143.982L480.112 150.57Z" fill="url(#paint11_linear_40000374_51064)" fill-opacity="0.5"/>
</g>
<defs>
<linearGradient id="paint0_linear_40000374_51064" x1="555.001" y1="0" x2="555.001" y2="923.994" gradientUnits="userSpaceOnUse">
<stop stop-color="white" stop-opacity="0"/>
<stop offset="1" stop-color="white"/>
</linearGradient>
<linearGradient id="paint1_linear_40000374_51064" x1="555.001" y1="0" x2="555.001" y2="923.994" gradientUnits="userSpaceOnUse">
<stop stop-color="white" stop-opacity="0"/>
<stop offset="1" stop-color="white"/>
</linearGradient>
<linearGradient id="paint2_linear_40000374_51064" x1="555.001" y1="0" x2="555.001" y2="923.994" gradientUnits="userSpaceOnUse">
<stop stop-color="white" stop-opacity="0"/>
<stop offset="1" stop-color="white"/>
</linearGradient>
<linearGradient id="paint3_linear_40000374_51064" x1="555.001" y1="0" x2="555.001" y2="923.994" gradientUnits="userSpaceOnUse">
<stop stop-color="white" stop-opacity="0"/>
<stop offset="1" stop-color="white"/>
</linearGradient>
<linearGradient id="paint4_linear_40000374_51064" x1="555.001" y1="0" x2="555.001" y2="923.994" gradientUnits="userSpaceOnUse">
<stop stop-color="white" stop-opacity="0"/>
<stop offset="1" stop-color="white"/>
</linearGradient>
<linearGradient id="paint5_linear_40000374_51064" x1="555.001" y1="0" x2="555.001" y2="923.994" gradientUnits="userSpaceOnUse">
<stop stop-color="white" stop-opacity="0"/>
<stop offset="1" stop-color="white"/>
</linearGradient>
<linearGradient id="paint6_linear_40000374_51064" x1="555.001" y1="0" x2="555.001" y2="923.994" gradientUnits="userSpaceOnUse">
<stop stop-color="white" stop-opacity="0"/>
<stop offset="1" stop-color="white"/>
</linearGradient>
<linearGradient id="paint7_linear_40000374_51064" x1="555.001" y1="0" x2="555.001" y2="923.994" gradientUnits="userSpaceOnUse">
<stop stop-color="white" stop-opacity="0"/>
<stop offset="1" stop-color="white"/>
</linearGradient>
<linearGradient id="paint8_linear_40000374_51064" x1="555.001" y1="0" x2="555.001" y2="923.994" gradientUnits="userSpaceOnUse">
<stop stop-color="white" stop-opacity="0"/>
<stop offset="1" stop-color="white"/>
</linearGradient>
<linearGradient id="paint9_linear_40000374_51064" x1="555.001" y1="0" x2="555.001" y2="923.994" gradientUnits="userSpaceOnUse">
<stop stop-color="white" stop-opacity="0"/>
<stop offset="1" stop-color="white"/>
</linearGradient>
<linearGradient id="paint10_linear_40000374_51064" x1="555.001" y1="0" x2="555.001" y2="923.994" gradientUnits="userSpaceOnUse">
<stop stop-color="white" stop-opacity="0"/>
<stop offset="1" stop-color="white"/>
</linearGradient>
<linearGradient id="paint11_linear_40000374_51064" x1="555.001" y1="0" x2="555.001" y2="923.994" gradientUnits="userSpaceOnUse">
<stop stop-color="white" stop-opacity="0"/>
<stop offset="1" stop-color="white"/>
</linearGradient>
</defs>
</svg>
