<svg width="868" height="866" viewBox="0 0 868 866" fill="none" xmlns="http://www.w3.org/2000/svg">
<g style="mix-blend-mode:overlay">
<path fill-rule="evenodd" clip-rule="evenodd" d="M374.898 434.495C285.416 478.354 191.666 529.011 100.184 567.538C85.1144 573.937 83.6474 573.27 76.7128 586.467C100.584 602.464 160.727 608.063 188.599 600.998C241.808 587.534 292.483 568.871 342.225 547.408C423.039 512.614 502.786 477.288 582.933 440.894C659.213 402.768 732.426 359.442 806.572 317.317C816.574 310.651 843.378 296.787 846.045 286.789C645.077 282.257 427.039 358.909 249.009 449.026C230.472 458.357 189.132 482.487 173.53 495.817C161.394 506.216 166.461 499.284 159.927 514.747C155.126 526.212 147.258 529.145 156.727 531.144C164.728 532.877 362.629 435.295 374.764 434.362L374.898 434.495Z" fill="white" fill-opacity="0.5"/>
<path fill-rule="evenodd" clip-rule="evenodd" d="M91.6536 688.849C99.3883 700.313 127.66 707.645 142.863 709.778C143.129 709.778 268.885 706.179 396.64 674.051C250.082 718.71 208.74 701.646 114.057 726.309C94.1873 731.508 68.1829 742.972 49.9131 752.17C44.1787 755.103 40.7114 757.103 34.8437 759.636C23.6418 764.302 13.7735 768.567 28.1759 777.366L65.1159 792.963C133.928 810.16 209.674 790.296 271.418 773.899C367.168 746.038 464.384 719.243 557.2 682.583C578.403 674.185 783.505 593.133 783.505 579.135C648.948 579.135 524.928 589.533 391.305 601.531C350.098 606.33 226.476 626.06 185.536 635.525C141.795 645.523 148.064 644.723 120.326 670.319C114.725 675.518 99.2549 678.584 91.6536 689.115V688.849Z" fill="white" fill-opacity="0.5"/>
<path fill-rule="evenodd" clip-rule="evenodd" d="M169.138 429.161C171.538 433.96 143.667 454.09 163.67 453.69C181.273 452.223 177.673 455.956 195.142 445.158C207.411 437.693 220.213 430.227 232.081 422.229C282.89 388.235 731.234 88.9565 731.234 67.0939C711.631 67.4938 574.141 112.819 537.868 123.617L463.587 149.212C408.778 167.342 255.952 234.53 213.411 273.723C203.943 282.388 179.806 299.985 176.605 311.849C185.94 324.38 194.609 317.048 211.145 316.782C269.822 274.256 387.308 193.471 461.72 170.675C398.376 198.27 339.167 235.196 211.145 326.513C201.277 355.441 134.998 397.967 119.129 401.699C119.796 432.36 149.934 433.56 169.138 429.161Z" fill="white" fill-opacity="0.5"/>
<path fill-rule="evenodd" clip-rule="evenodd" d="M635.347 294.517C643.348 292.651 650.417 291.184 656.151 290.385L662.686 289.185C603.076 288.118 310.491 378.902 292.088 414.495C398.373 363.971 516.527 319.579 635.481 294.651L635.347 294.517Z" fill="white" fill-opacity="0.5"/>
<path fill-rule="evenodd" clip-rule="evenodd" d="M498.53 122.149C452.655 125.748 238.086 209.733 226.218 242.527C287.828 204.001 400.113 155.476 445.321 140.546L498.53 122.149Z" fill="white" fill-opacity="0.5"/>
<path fill-rule="evenodd" clip-rule="evenodd" d="M513.062 581.131C520.53 580.465 527.463 579.932 533.598 579.532C570.938 576.732 608.144 574.333 645.617 572.6L646.418 571.533C613.346 570.733 402.643 562.601 394.241 591.263C434.648 587.664 474.122 584.197 513.329 581.131H513.062Z" fill="white" fill-opacity="0.5"/>
<path d="M407.083 866C343.828 862.2 284.543 845.501 231.853 818.274C249.142 814.243 265.395 809.897 280.157 805.977L280.546 805.873L280.931 805.761C288.427 803.58 295.949 801.402 303.491 799.22C322.905 806.025 343.043 811.349 363.77 815.067V781.729C378.18 777.508 392.627 773.228 407.083 768.854V866Z" fill="white" fill-opacity="0.5"/>
<path d="M830.654 608.785C766.676 752.96 626.39 855.769 461.04 865.981V752.02C497.589 740.216 533.965 727.538 569.706 713.421L569.722 713.415L569.736 713.409C572.964 712.131 580.494 709.152 590.943 704.971H636.493C612.389 720.507 552.216 754.22 504.352 764.789V814.953C607.118 796.21 695.596 737.314 752.911 654.695H711.908C731.897 645.952 750.92 637.299 766.247 629.699C776.332 624.698 785.681 619.732 792.839 615.206C795.185 613.722 797.844 611.947 800.451 609.923H829.964L830.654 608.785Z" fill="white" fill-opacity="0.5"/>
<path d="M57.6682 613.859V650.532C50.2647 637.444 43.5118 623.895 37.4539 609.923H51.7959L57.6682 613.859Z" fill="white" fill-opacity="0.5"/>
<path d="M92.6108 628.838C98.3514 630.41 104.179 631.707 109.91 632.77C108.569 634.039 107.194 635.351 105.83 636.65C104.319 638.09 102.718 639.609 100.979 641.242L92.6108 628.838Z" fill="white" fill-opacity="0.5"/>
<path d="M867.276 412.854C867.583 419.546 867.738 426.277 867.738 433.045C867.738 475.345 861.681 517.324 850.389 555.977H817.491V544.517H783.505C757.949 544.517 732.774 544.887 707.856 545.569L713.15 538.518L647.242 536.924C636.705 536.669 606.159 535.596 569.688 535.315V511.205H814.36C817.924 493.757 820.32 475.87 821.458 457.625H623.482C651.372 443.179 678.907 428.131 706.178 412.854H867.276Z" fill="white" fill-opacity="0.5"/>
<path d="M86.2131 412.854C87.8386 422.208 91.3578 431.11 97.174 438.978C103.766 447.897 112.075 453.819 120.367 457.625H46.2985C47.4375 475.855 49.8356 493.743 53.4052 511.205H122.269C121.115 513.528 119.62 517.106 118.842 521.519C118.828 521.596 118.816 521.674 118.803 521.751C109.593 525.87 100.394 529.892 91.2056 533.796L86.9708 535.587L86.9242 535.606L86.8783 535.626C84.3506 536.699 79.8244 538.544 77.3918 539.617C74.3176 540.974 69.8394 543.076 65.2919 546.407C61.2754 549.348 58.0442 552.651 55.3888 555.977H17.366C6.07365 517.324 0.0172205 475.345 0.0172205 433.045C0.0172215 426.28 0.172583 419.551 0.479045 412.861H35.9886V412.854H86.2131Z" fill="white" fill-opacity="0.5"/>
<path d="M518.3 535.565C515.605 535.617 512.912 535.674 510.225 535.742C487.199 536.319 463.828 537.482 443.418 539.69C465.18 530.129 486.902 520.515 508.612 510.838H518.3V535.565Z" fill="white" fill-opacity="0.5"/>
<path d="M854.578 326.142C857.585 338.048 859.74 349.441 861.86 362.21H795.137C804.573 356.811 813.987 351.432 823.386 346.093L824.438 345.495L825.445 344.823C827.133 343.699 829.747 342.137 834.185 339.455C838.176 337.044 843.14 334.019 847.997 330.766C850.066 329.38 852.302 327.83 854.578 326.142Z" fill="white" fill-opacity="0.5"/>
<path d="M139.508 318.199L149.332 331.386C151.226 333.929 153.392 336.449 155.872 338.817C153.061 341.107 150.116 343.398 147.081 345.655C138.324 352.167 129.46 357.942 122.095 362.21H5.78084C8.41052 346.115 11.2457 332.887 15.5957 317.439H139.713L139.508 318.199Z" fill="white" fill-opacity="0.5"/>
<path d="M729.78 115.774C770.628 154.121 804.09 200.345 827.918 251.981C777.566 252.047 726.463 256.829 675.416 265.327H664.18L663.295 254.571C643.218 254.212 609.465 260.937 574.055 269.684C572.247 270.131 570.424 270.585 568.587 271.048V265.327H522.909C544.775 250.216 566.435 235.148 587.214 220.556H759.031C740.55 192.205 718.542 166.439 693.605 143.906C707.646 133.368 719.93 123.849 729.78 115.774Z" fill="white" fill-opacity="0.5"/>
<path d="M407.083 112.032C384.576 120.027 360.173 129.464 336.446 139.423C316.491 147.799 296.699 156.677 278.722 165.508H231.63C255.733 149.973 315.906 116.259 363.77 105.69V50.8324C256.884 69.9406 165.898 132.939 108.735 220.556H199.133C197.301 223.394 195.576 226.648 194.253 230.303L186.651 251.306C185.432 252.334 183.988 253.544 182.263 254.99C178.771 257.916 174.513 261.508 170.306 265.327H33.789C96.3682 116.605 238.017 9.72968 407.083 0V112.032Z" fill="white" fill-opacity="0.5"/>
<path d="M461.04 0.109941C527.883 3.95674 590.382 23.0296 645.391 53.8783C640.567 55.3425 635.682 56.8363 630.785 58.3437C614.013 63.5066 597.294 68.7566 582.086 73.5515C557.394 63.4146 531.388 55.7735 504.352 50.9409V98.5815L498.575 100.572L495.866 87.6346C486.747 88.3501 474.598 90.9836 461.04 94.704V0.109941Z" fill="white" fill-opacity="0.5"/>
</g>
</svg>
