<svg width="48" height="48" viewBox="0 0 48 48" fill="none" xmlns="http://www.w3.org/2000/svg">
<g opacity="0.5">
<path fill-rule="evenodd" clip-rule="evenodd" d="M24.0002 35.6834C21.812 37.4034 19.184 38.473 16.4166 38.77C13.6492 39.0671 10.854 38.5795 8.35056 37.363C5.84712 36.1466 3.73645 34.2503 2.25977 31.891C0.783094 29.5317 0 26.8045 0 24.0211C0 21.2378 0.783094 18.5106 2.25977 16.1513C3.73645 13.7919 5.84712 11.8957 8.35056 10.6792C10.854 9.46277 13.6492 8.97519 16.4166 9.27222C19.184 9.56924 21.812 10.6388 24.0002 12.3588C26.1883 10.6388 28.8163 9.56923 31.5836 9.27221C34.351 8.97519 37.1461 9.46278 39.6495 10.6792C42.1529 11.8957 44.2635 13.792 45.7401 16.1513C47.2167 18.5106 47.9997 21.2378 47.9995 24.0211C47.9997 26.8044 47.2167 29.5315 45.7401 31.8908C44.2635 34.2502 42.1529 36.1464 39.6495 37.3629C37.1461 38.5794 34.351 39.067 31.5836 38.7699C28.8163 38.4729 26.1884 37.4033 24.0002 35.6834ZM18.3348 24.0211C18.3328 21.7748 18.8418 19.5575 19.8234 17.537C20.8049 15.5166 22.2332 13.7459 24.0002 12.3591C25.7656 13.7473 27.1928 15.5182 28.1742 17.5383C29.1556 19.5585 29.6655 21.7751 29.6655 24.0211C29.6655 26.267 29.1556 28.4836 28.1742 30.5038C27.1928 32.5239 25.7656 34.2949 24.0001 35.6831C22.2332 34.2963 20.8049 32.5257 19.8234 30.5053C18.8418 28.4848 18.3328 26.2674 18.3348 24.0211ZM26.427 35.5259C28.0493 36.4763 29.8606 37.0764 31.7437 37.2785C34.2312 37.5455 36.7437 37.1072 38.9939 36.0138C41.2441 34.9203 43.1413 33.2158 44.4686 31.0951C45.7958 28.9743 46.4996 26.5229 46.4996 24.0211C46.4996 21.5193 45.7958 19.0678 44.4686 16.9471C43.1413 14.8264 41.2441 13.1218 38.9939 12.0284C36.7437 10.9349 34.2312 10.4967 31.7437 10.7636C29.8606 10.9658 28.0493 11.5659 26.427 12.5163C27.689 13.7884 28.7364 15.2629 29.5234 16.8829C30.604 19.1073 31.1655 21.548 31.1655 24.0211C31.1655 26.4941 30.604 28.9348 29.5234 31.1593C28.7364 32.7793 27.689 34.2537 26.427 35.5259Z" fill="white"/>
<path d="M46.5849 32.7348V33.2123H46.4797V32.7348H46.2871V32.6375H46.7774V32.7348H46.5849Z" fill="white"/>
<path d="M47.5369 32.6366V33.2123H47.4308V32.7771L47.2687 33.1525H47.1586L46.9965 32.778V33.2123H46.8904V32.6366H47.0408L47.2137 33.0326L47.3866 32.6366H47.5369Z" fill="white"/>
</g>
</svg>
