<svg width="48" height="48" viewBox="0 0 48 48" fill="none" xmlns="http://www.w3.org/2000/svg">
<path d="M4.50671 17.4388C4.48219 17.4392 4.45946 17.4396 4.43871 17.4397L0 17.4398V30.5307H4.28923V22.8103H4.57685L6.96788 30.5307H10.195L12.586 22.816H12.8736V30.5307H17.1629V17.4398L12.9545 17.4398C12.9219 17.4398 12.8863 17.4393 12.8482 17.4388C12.2488 17.4305 11.0128 17.4136 10.5 19.1443C10.1813 20.22 9.59571 22.2303 8.74329 25.1753H8.41957C7.62471 22.3819 7.04545 20.3716 6.68182 19.1443C6.1681 17.4105 4.98914 17.4306 4.50671 17.4388Z" fill="white" fill-opacity="0.5"/>
<path d="M23.3221 25.1602V17.4398H18.9433V30.5307H23.094C23.094 30.5307 24.3543 30.4163 24.9189 29.1587L27.7703 22.8103H28.1125V30.5307H32.4913V17.4398H28.3406C28.3406 17.4398 27.1373 17.5484 26.5727 18.8117L23.6643 25.1602H23.3221Z" fill="white" fill-opacity="0.5"/>
<path d="M42.9738 26.6311C45.0975 26.6311 47.0156 25.3915 47.6264 23.6607H34.2178V30.5307H38.3818V26.6311H42.9738Z" fill="white" fill-opacity="0.5"/>
<path d="M33.9994 17.4398H43.1747C46.705 17.4398 48.4114 20.427 47.9158 22.8492H39.3259C36.7277 22.8492 34.2178 20.3543 33.9994 17.4398Z" fill="white" fill-opacity="0.5"/>
</svg>
