<svg width="33" height="32" viewBox="0 0 33 32" fill="none" xmlns="http://www.w3.org/2000/svg">
<path d="M28.5 26.5879L22.2463 20.3342C23.8708 18.3475 24.6695 15.8123 24.4772 13.2532C24.2849 10.6941 23.1164 8.3068 21.2133 6.58508C19.3102 4.86337 16.8182 3.93898 14.2526 4.00313C11.6871 4.06727 9.24438 5.11504 7.42971 6.92971C5.61504 8.74438 4.56727 11.1871 4.50313 13.7526C4.43898 16.3182 5.36337 18.8102 7.08508 20.7133C8.8068 22.6164 11.1941 23.7849 13.7532 23.9772C16.3123 24.1695 18.8475 23.3708 20.8342 21.7463L27.0879 28L28.5 26.5879ZM14.5186 22.008C12.9385 22.008 11.3938 21.5394 10.08 20.6615C8.76616 19.7837 7.74215 18.5359 7.13745 17.076C6.53276 15.6162 6.37454 14.0098 6.68281 12.46C6.99109 10.9102 7.752 9.48666 8.86933 8.36933C9.98666 7.252 11.4102 6.49109 12.96 6.18281C14.5098 5.87454 16.1162 6.03276 17.576 6.63745C19.0359 7.24215 20.2837 8.26616 21.1615 9.58C22.0394 10.8938 22.508 12.4385 22.508 14.0186C22.5056 16.1368 21.6631 18.1676 20.1653 19.6653C18.6676 21.1631 16.6368 22.0056 14.5186 22.008Z" fill="white"/>
</svg>
