<svg width="120" height="25" viewBox="0 0 120 25" fill="none" xmlns="http://www.w3.org/2000/svg">
<path d="M17.5716 20.5L12.0004 16.4776L6.42914 20.5L8.56825 14.0039L3 10.0071H9.87469L12.0004 3.5L14.1261 10.0071H21L15.4325 14.0039L17.5716 20.5Z" fill="#D29440"/>
<path d="M41.5716 20.5L36.0004 16.4776L30.4291 20.5L32.5682 14.0039L27 10.0071H33.8747L36.0004 3.5L38.1261 10.0071H45L39.4325 14.0039L41.5716 20.5Z" fill="#D29440"/>
<path d="M65.5716 20.5L60.0004 16.4776L54.4291 20.5L56.5682 14.0039L51 10.0071H57.8747L60.0004 3.5L62.1261 10.0071H69L63.4325 14.0039L65.5716 20.5Z" fill="#D29440"/>
<path d="M89.5716 20.5L84.0004 16.4776L78.4291 20.5L80.5682 14.0039L75 10.0071H81.8747L84.0004 3.5L86.1261 10.0071H93L87.4325 14.0039L89.5716 20.5Z" fill="#D29440"/>
<path d="M113.572 20.5L108 16.4776L102.429 20.5L104.568 14.0039L99 10.0071H105.875L108 3.5L110.126 10.0071H117L111.432 14.0039L113.572 20.5ZM108 14.6584L110.73 16.6293L109.685 13.4454L112.43 11.473H109.037L108 8.29861L106.963 11.473H103.57L106.318 13.4454L105.273 16.6293L108 14.6584Z" fill="#D29440"/>
</svg>
