<svg width="24" height="20" viewBox="0 0 24 20" fill="none" xmlns="http://www.w3.org/2000/svg">
<path d="M10.3754 19.6534C9.93051 20.116 9.21071 20.1154 8.76701 19.6523L0.332195 10.8387C0.319849 10.8258 0.307865 10.8117 0.296835 10.7976L0.218035 10.6964C0.207342 10.6827 0.197073 10.668 0.187725 10.6532C-0.103073 10.1932 -0.0568562 9.56744 0.332195 9.16089L8.76701 0.348295C9.18295 -0.0862236 9.84119 -0.114408 10.2885 0.265038L10.3754 0.346188C10.8199 0.809088 10.8217 1.5618 10.3774 2.02608L3.88333 8.8131L22.8624 8.79624L22.9786 8.80257C23.5527 8.86317 23.9991 9.36859 24 9.98186C24.0005 10.6372 23.4919 11.17 22.8634 11.1706L3.88029 11.1875L10.3774 17.9745C10.7939 18.4099 10.8182 19.0981 10.4532 19.5638L10.3754 19.6534Z" fill="#FEFEFE"/>
</svg>
