<svg width="110" height="28" viewBox="0 0 110 28" fill="none" xmlns="http://www.w3.org/2000/svg">
<rect width="110" height="28" rx="14" fill="#F15D26"/>
<path d="M14.6775 21L15.815 15.8237L12 12.3421L17.04 11.8816L19 7L20.96 11.8816L26 12.3421L22.185 15.8237L23.3225 21L19 18.2553L14.6775 21Z" fill="#FEFEFE"/>
<path d="M32.6775 21L33.815 15.8237L30 12.3421L35.04 11.8816L37 7L38.96 11.8816L44 12.3421L40.185 15.8237L41.3225 21L37 18.2553L32.6775 21Z" fill="#FEFEFE"/>
<path d="M50.6775 21L51.815 15.8237L48 12.3421L53.04 11.8816L55 7L56.96 11.8816L62 12.3421L58.185 15.8237L59.3225 21L55 18.2553L50.6775 21Z" fill="#FEFEFE"/>
<path d="M68.6775 21L69.815 15.8237L66 12.3421L71.04 11.8816L73 7L74.96 11.8816L80 12.3421L76.185 15.8237L77.3225 21L73 18.2553L68.6775 21Z" fill="#FEFEFE"/>
<path d="M86.6775 21L87.815 15.8237L84 12.3421L89.04 11.8816L91 7L92.96 11.8816L98 12.3421L94.185 15.8237L95.3225 21L91 18.2553L86.6775 21Z" fill="#FEFEFE"/>
</svg>
