<svg width="34" height="34" viewBox="0 0 34 34" fill="none" xmlns="http://www.w3.org/2000/svg">
<rect width="34" height="34" rx="17" fill="#252525"/>
<path d="M21.0715 9.22585C20.8462 9.45169 20.8462 9.81518 20.8462 10.5422V20.5663C20.8462 21.2933 20.8462 21.6567 21.0715 21.8826C21.2968 22.1084 21.6594 22.1084 22.3846 22.1084C23.1099 22.1084 23.4725 22.1084 23.6978 21.8826C23.9231 21.6567 23.9231 21.2933 23.9231 20.5663V10.5422C23.9231 9.81518 23.9231 9.45169 23.6978 9.22585C23.4725 9 23.1099 9 22.3846 9C21.6594 9 21.2968 9 21.0715 9.22585Z" fill="#7E7E7E"/>
<path d="M15.4615 12.8554C15.4615 12.1284 15.4615 11.7649 15.6868 11.5391C15.9121 11.3133 16.2748 11.3133 17 11.3133C17.7252 11.3133 18.0879 11.3133 18.3132 11.5391C18.5385 11.7649 18.5385 12.1284 18.5385 12.8554V20.5663C18.5385 21.2933 18.5385 21.6567 18.3132 21.8826C18.0879 22.1084 17.7252 22.1084 17 22.1084C16.2748 22.1084 15.9121 22.1084 15.6868 21.8826C15.4615 21.6567 15.4615 21.2933 15.4615 20.5663V12.8554Z" fill="#7E7E7E"/>
<path d="M10.3022 14.6234C10.0769 14.8493 10.0769 15.2128 10.0769 15.9398V20.5663C10.0769 21.2933 10.0769 21.6567 10.3022 21.8826C10.5275 22.1084 10.8901 22.1084 11.6154 22.1084C12.3406 22.1084 12.7032 22.1084 12.9285 21.8826C13.1538 21.6567 13.1538 21.2933 13.1538 20.5663V15.9398C13.1538 15.2128 13.1538 14.8493 12.9285 14.6234C12.7032 14.3976 12.3406 14.3976 11.6154 14.3976C10.8901 14.3976 10.5275 14.3976 10.3022 14.6234Z" fill="#7E7E7E"/>
<path d="M10.0769 23.8434C9.7583 23.8434 9.5 24.1023 9.5 24.4217C9.5 24.7411 9.7583 25 10.0769 25H23.9231C24.2417 25 24.5 24.7411 24.5 24.4217C24.5 24.1023 24.2417 23.8434 23.9231 23.8434H10.0769Z" fill="#7E7E7E"/>
</svg>
