<svg>
<symbol id="icon">
    <g fill="none" fill-rule="evenodd"><path d="M24 0v24H0V0zM12.593 23.258l-.011.002-.071.035-.02.004-.014-.004-.071-.035c-.01-.004-.019-.001-.024.005l-.004.01-.017.428.005.02.01.013.104.074.015.004.012-.004.104-.074.012-.016.004-.017-.017-.427c-.002-.01-.009-.017-.017-.018m.265-.113-.013.002-.185.093-.01.01-.003.011.018.43.005.012.008.007.201.093c.012.004.023 0 .029-.008l.004-.014-.034-.614c-.003-.012-.01-.02-.02-.022m-.715.002a.023.023 0 0 0-.027.006l-.006.014-.034.614c0 .012.007.02.017.024l.015-.002.201-.093.01-.008.004-.011.017-.43-.003-.012-.01-.01z"/><path fill="#09244B" d="M2 12C2 6.477 6.477 2 12 2s10 4.477 10 10-4.477 10-10 10S2 17.523 2 12m5 0a1 1 0 0 1 1-1h.998L9 9.604a3.604 3.604 0 0 1 6.483-2.171l.349.512a1 1 0 0 1-1.594 1.203C13.832 8.555 13.406 8 12.606 8 11.7 8 11.039 8.733 11 9.604V11h2a1 1 0 1 1 0 2h-2v2c0 .264-.023.527-.078.785.477.04.937.128 1.394.266.775.259 1.588.19 2.368 0a1 1 0 0 1 .632 1.898c-1.196.316-2.439.397-3.632 0-.775-.259-1.588-.19-2.368 0-1.178.392-1.859-1.224-.763-1.843.207-.117.412-.532.44-.932L8.997 13H8a1 1 0 0 1-1-1"/></g>
</symbol>
<symbol id="icon2" viewBox="0 0 512 512">
   <g id="_x38_3-facebook"><g><g><path d="M434.949,16.75H77.045c-32.893,0-59.648,26.831-59.648,59.812v358.871     c0,32.985,26.756,59.816,59.648,59.816h357.904c32.898,0,59.654-26.831,59.654-59.816V76.563     C494.604,43.581,467.848,16.75,434.949,16.75L434.949,16.75z M434.949,16.75" style="fill:#1B80E4;"/><path d="M420.039,256h-74.564v-59.813c0-16.51,13.365-14.951,29.824-14.951h29.83v-74.768h-59.654     c-49.42,0-89.473,40.162-89.473,89.719V256h-59.65v74.766h59.65V495.25h89.473V330.766h44.738L420.039,256z M420.039,256" style="fill:#FCFCFC;"/></g></g></g><g id="Layer_1"/>
</symbol>
<symbol id="vector"  viewBox="0 0 40 40" xmlns="http://www.w3.org/2000/svg">
    <g><path d="M26.25 20C26.25 21.6576 25.5915 23.2473 24.4194 24.4194C23.2473 25.5915 21.6576 26.25 20 26.25C18.3424 26.25 16.7527 25.5915 15.5806 24.4194C14.4085 23.2473 13.75 21.6576 13.75 20C13.75 19.6437 13.7875 19.2958 13.8521 18.9583H11.6667V27.2854C11.6667 27.8646 12.1354 28.3333 12.7146 28.3333H27.2875C27.5651 28.3328 27.8311 28.2221 28.0271 28.0257C28.2232 27.8292 28.3333 27.563 28.3333 27.2854V18.9583H26.1479C26.2125 19.2958 26.25 19.6437 26.25 20ZM20 24.1667C20.5473 24.1665 21.0892 24.0586 21.5948 23.849C22.1004 23.6394 22.5598 23.3323 22.9467 22.9452C23.3336 22.5581 23.6405 22.0986 23.8498 21.5929C24.0591 21.0872 24.1668 20.5452 24.1667 19.9979C24.1665 19.4506 24.0586 18.9087 23.849 18.4031C23.6394 17.8975 23.3323 17.4381 22.9452 17.0512C22.5581 16.6643 22.0986 16.3574 21.5929 16.1481C21.0872 15.9388 20.5452 15.8311 19.9979 15.8312C18.8926 15.8315 17.8326 16.2709 17.0512 17.0527C16.2698 17.8345 15.831 18.8947 15.8312 20C15.8315 21.1053 16.2709 22.1653 17.0527 22.9467C17.8345 23.7281 18.8947 24.1669 20 24.1667ZM25 15.625H27.4979C27.6639 15.625 27.8231 15.5592 27.9406 15.4421C28.0581 15.3249 28.1244 15.166 28.125 15V12.5021C28.125 12.3358 28.0589 12.1763 27.9413 12.0587C27.8237 11.9411 27.6642 11.875 27.4979 11.875H25C24.8337 11.875 24.6742 11.9411 24.5566 12.0587C24.439 12.1763 24.3729 12.3358 24.3729 12.5021V15C24.375 15.3437 24.6562 15.625 25 15.625ZM20 0C14.6957 0 9.60859 2.10714 5.85786 5.85786C2.10714 9.60859 0 14.6957 0 20C0 25.3043 2.10714 30.3914 5.85786 34.1421C9.60859 37.8929 14.6957 40 20 40C22.6264 40 25.2272 39.4827 27.6537 38.4776C30.0802 37.4725 32.285 35.9993 34.1421 34.1421C35.9993 32.285 37.4725 30.0802 38.4776 27.6537C39.4827 25.2272 40 22.6264 40 20C40 17.3736 39.4827 14.7728 38.4776 12.3463C37.4725 9.91982 35.9993 7.71504 34.1421 5.85786C32.285 4.00069 30.0802 2.5275 27.6537 1.52241C25.2272 0.517315 22.6264 0 20 0ZM30.4167 28.1021C30.4167 29.375 29.375 30.4167 28.1021 30.4167H11.8979C10.625 30.4167 9.58333 29.375 9.58333 28.1021V11.8979C9.58333 10.625 10.625 9.58333 11.8979 9.58333H28.1021C29.375 9.58333 30.4167 10.625 30.4167 11.8979V28.1021Z" fill="#36A74C"/></g>
</symbol>
</svg>