<svg width="32" height="32" viewBox="0 0 32 32" fill="none" xmlns="http://www.w3.org/2000/svg">
<path d="M22 9.52414C22 7.9489 20.654 6.66699 19 6.66699H7C5.346 6.66699 4 7.9489 4 9.52414V11.7813L10 18.4479V22.3813L16 26.667V18.4479L22 11.7813V9.52414ZM20 11.0765L14 17.7432V22.8575L12 21.4289V17.7432L6 11.0765V9.52414C6 8.99937 6.449 8.57175 7 8.57175H19C19.551 8.57175 20 8.99937 20 9.52414V11.0765ZM18 22.8575H28V24.7622H18V22.8575ZM18 19.0479H28V20.9527H18V19.0479ZM28 15.2384V17.1432H19.808L21.522 15.2384H28Z" fill="white"/>
</svg>
