<svg width="100" height="100" viewBox="0 0 100 100" fill="none" xmlns="http://www.w3.org/2000/svg">
<g clip-path="url(#clip0_531_194082)">
<rect width="100" height="100" rx="50" fill="white" fill-opacity="0.05"/>
<g filter="url(#filter0_f_531_194082)">
<ellipse cx="50.5" cy="85.5" rx="67.5" ry="35.5" fill="#D29440" fill-opacity="0.25"/>
</g>
<g style="mix-blend-mode:overlay">
<path fill-rule="evenodd" clip-rule="evenodd" d="M35.7388 27.4525C34.8331 28.2404 30.4992 29.008 29.22 29.274C29.6294 28.5014 30.6834 27.606 31.7119 27.4525C32.638 27.3143 34.567 27.4525 35.7388 27.4525ZM30.755 26.0147C30.182 26.3984 29.307 27.5446 29.128 28.3172C29.3684 28.1535 29.9722 27.5855 30.1462 27.3245C30.3048 27.0892 30.6936 26.2807 30.755 26.0198V26.0147ZM35.2629 23.7121C33.8047 25.8919 33.1804 25.6616 31.364 26.6184C31.0826 26.7668 30.9905 26.8947 30.663 26.9715C31.758 24.9043 31.8091 25.0732 33.7944 24.2596C34.2652 24.0703 34.7871 23.8247 35.2629 23.7121ZM32.0036 27.0687C32.899 27.0687 33.7944 27.0687 34.6847 27.0687C35.309 27.0687 36.4909 27.1045 36.9105 26.6082C38.246 25.0374 38.0413 24.3927 38.4251 22.7553L37.1561 24.1675C36.4142 24.9146 35.57 25.2523 34.6899 25.723L32.0036 27.0636V27.0687ZM37.7548 22.3715L36.4449 23.0725C35.8616 23.3591 35.2476 24.3108 34.8792 24.8634C35.2169 24.7866 35.5034 24.6127 35.7797 24.4233C36.3733 24.0191 37.5859 23.0009 37.7548 22.3715ZM30.0131 29.7704C32.5255 29.2536 36.1123 28.8545 37.8162 26.5519C39.0596 24.8685 39.4945 22.0696 38.6963 20.1406C37.0077 23.3181 32.9399 23.1288 30.402 25.462C29.2508 26.644 28.9642 26.9868 28.3553 28.5884L28.0125 30.1797C27.9255 31.0035 29.3326 29.9136 30.0183 29.7704H30.0131Z" fill="white" fill-opacity="0.5"/>
<path fill-rule="evenodd" clip-rule="evenodd" d="M16.0898 31.193C16.2945 31.4335 16.2843 31.5614 16.4429 31.894L17.1439 34.3551C17.0006 34.1914 16.8471 33.91 16.7294 33.7156C16.5504 33.3574 16.5555 33.383 16.4378 32.9532C16.274 32.3647 16.095 31.8991 16.095 31.1879L16.0898 31.193ZM17.7221 34.263C18.1059 33.9816 18.4282 32.462 18.6227 31.9042C18.9501 31.0753 20.0298 29.1821 20.1219 28.1281L18.9706 29.6631C18.8171 29.878 18.7608 29.9189 18.5612 30.1185C16.7959 31.8786 17.6453 33.3267 17.7221 34.263ZM17.3383 31.3874C17.5584 28.7318 19.5078 25.6925 19.5437 24.1984C19.5999 24.2649 19.6051 24.2444 19.6716 24.357C20.2293 25.278 20.3112 26.0609 20.3112 27.074C20.3112 27.4833 19.9018 27.9746 19.6972 28.2816C19.0985 29.044 18.1928 30.0161 17.7016 30.7888C17.5583 31.019 17.5123 31.1879 17.3383 31.3874ZM16.7601 31.7712C16.7601 30.6302 16.929 29.8524 17.2053 28.957C17.3179 28.5886 17.4304 27.9899 17.4356 27.5601C17.4356 27.3094 17.4202 27.0331 17.4304 26.7875C17.4458 26.373 17.5021 26.4856 17.5277 26.1223C17.2155 26.3525 16.7397 27.3298 16.5708 27.7494C16.0592 29.0081 15.8442 30.7171 16.7653 31.7763L16.7601 31.7712ZM17.6249 27.6471L18.4333 25.7692C18.5612 25.452 19.2929 23.7174 18.7761 23.7174C18.7301 24.2751 18.2491 24.5821 17.9728 25.5032C17.7733 26.153 17.6249 26.8489 17.6249 27.6471ZM15.4196 30.1389C15.4196 32.7178 16.0336 34.2221 17.5532 36.059C18.6431 37.374 18.3924 35.312 18.3924 35.1227C18.3924 34.6519 18.4947 34.217 18.6277 33.823C19.5897 31.3516 21.6057 27.7903 20.7563 25.2883C20.5312 24.6333 19.7227 22.7708 18.9706 22.1875C18.7966 22.5457 18.1673 23.7379 17.9779 24.0705C16.7653 26.1428 15.4247 27.5038 15.4247 30.1441L15.4196 30.1389Z" fill="white" fill-opacity="0.5"/>
<path fill-rule="evenodd" clip-rule="evenodd" d="M22.8039 29.5638C22.3382 29.5638 22.7629 27.7576 22.8397 27.3994C22.9318 26.9747 23.2439 25.8746 23.5663 25.6341C23.5663 26.1202 23.469 26.156 23.469 26.6882C23.4742 28.6274 22.8243 28.4279 22.7987 29.5638H22.8039ZM23.2797 30.0448C23.5867 29.7019 23.8784 29.2875 24.1649 28.9191C24.8506 28.1004 26.5596 26.6421 27.6597 25.322C27.9257 24.9996 28.0946 24.8359 28.1663 24.5801C27.4653 25.0508 27.5931 25.4039 25.8995 26.243C24.4924 26.9389 23.3053 28.9088 23.2797 30.0448ZM23.8579 27.1691C23.8579 26.7086 23.7607 26.724 23.7607 26.4016L24.0319 24.8513L24.8403 23.8381C25.0757 23.613 26.2065 22.6357 26.447 22.5692C26.2781 23.2958 25.6181 24.9996 25.0808 25.6136L23.8579 27.1691ZM25.8688 25.7313L27.3629 23.7767C27.6085 23.4083 28.8263 20.6504 28.9338 20.6504C28.9338 21.4691 28.944 23.5976 28.3248 24.0633C27.6443 24.5749 26.7489 25.5215 25.8688 25.7262V25.7313ZM26.2526 24.0991C26.6568 23.8023 27.8285 21.95 27.8797 21.3207C27.7057 21.4384 27.4038 21.684 27.235 21.8221C26.6977 22.2724 26.3088 23.4134 26.2526 24.0991ZM22.0364 28.9856C22.0364 29.9117 22.1847 30.5923 22.4354 31.4621C22.5685 31.8049 22.4099 32.0556 22.7987 32.0556C23.116 32.0556 23.1671 31.6975 23.2644 31.4672C23.9807 29.7787 25.485 28.5558 26.754 27.2868L28.2634 25.6341C28.8723 24.795 29.1128 24.4317 29.3584 23.3725C29.5682 22.4515 29.7268 20.0466 29.031 19.3047C27.9769 20.3792 26.4112 21.6993 25.1576 22.7176C23.2695 24.1144 22.0312 26.55 22.0312 28.9856H22.0364Z" fill="white" fill-opacity="0.5"/>
<path fill-rule="evenodd" clip-rule="evenodd" d="M12.9268 33.6823C12.9268 35.0485 12.7886 37.3766 13.1979 38.5842C13.29 38.8554 13.3361 38.8605 13.4026 39.1419L12.5225 38.1083C12.2309 37.6683 11.9648 37.2334 11.9648 36.65C11.9648 35.8314 12.4202 34.9973 12.6249 34.4345L12.8142 33.8563C12.8705 33.7284 12.8756 33.7437 12.9216 33.6772L12.9268 33.6823ZM9.86181 35.2174C10.0307 36.5221 10.7879 37.7246 11.6578 38.5944C11.9648 38.9014 12.2616 39.1368 12.6402 39.3363C12.543 38.9782 11.8113 38.3744 11.2996 37.2282C11.1922 36.9929 11.1922 36.8547 11.0336 36.6347L9.86181 35.2174ZM10.8187 35.8876C10.481 35.6625 9.92323 34.7364 9.6674 34.3526C9.52924 33.8972 9.86183 31.7277 10.4349 31.5742C10.4912 32.2394 10.88 32.4799 10.6651 33.626C10.5526 34.2196 10.8187 35.2225 10.8187 35.8876ZM11.7755 36.4658C11.7755 35.1457 12.7272 33.8051 12.9933 32.5925C13.1007 32.1013 12.5072 30.2388 12.3332 29.5787L12.0927 28.8572C12.0262 28.7293 12.0262 28.7651 11.9648 28.6986C11.9648 29.5326 11.7243 30.5304 11.5759 31.2775C11.3047 32.6129 11.1922 34.0866 11.4122 35.4834C11.4787 35.8877 11.4838 36.2458 11.7755 36.4607V36.4658ZM11.2024 29.4661C11.0899 29.594 11.0592 29.6503 10.9773 29.8141L10.4349 30.996C10.481 31.1853 10.66 32.0501 10.8187 32.0501C10.8187 31.3184 11.2024 30.4383 11.2024 29.461V29.4661ZM10.6447 38.3642C12.5993 40.8458 14.3646 40.0834 14.3646 39.8173C14.3646 39.5359 14.0217 38.9168 13.8478 38.4153C13.1928 36.5119 13.5971 34.1991 13.5971 32.2445C13.5971 30.6276 12.4713 27.9771 11.6834 26.5547L10.1176 30.1057C8.8231 33.1553 8.43424 35.5551 10.6447 38.3642Z" fill="white" fill-opacity="0.5"/>
<path fill-rule="evenodd" clip-rule="evenodd" d="M0.657326 46.1471C2.69891 47.2268 2.98033 48.1887 4.71491 49.0893C5.03727 49.2581 5.16007 49.2377 5.35451 49.5037C4.65863 49.4884 3.08779 48.6953 2.51471 48.3167C1.82907 47.8561 0.836413 46.9351 0.657326 46.1523V46.1471ZM3.44084 44.0339C3.7632 44.7554 3.86042 48.5213 6.41368 49.1149C6.31134 48.6748 6.22436 48.7823 6.06574 48.4088C5.23683 46.4542 4.9861 45.0726 3.44084 44.0339ZM1.1383 42.5961C1.1383 42.9952 1.15368 43.3278 1.09739 43.7116C0.923421 44.8373 3.0008 47.2217 4.11114 47.9636C3.99345 47.457 3.86042 47.4417 3.6404 46.3262C3.53807 45.8043 3.44597 44.1823 3.00593 43.7986L1.14342 42.5961H1.1383ZM-0.105066 41.9258C-0.309736 41.9258 -0.673026 45.1289 1.42996 46.2393C1.35321 45.9425 1.12807 45.7327 0.887586 45.2466L0.125195 43.1334C0.0433266 42.8059 -0.105066 42.2124 -0.105066 41.9258ZM0.565228 42.1203L0.933651 42.4222L0.948985 43.2664C0.677797 43.072 0.790371 43.1948 0.698269 42.7496C0.652218 42.5245 0.631746 42.2687 0.565228 42.1152V42.1203ZM-0.872579 42.5961C-0.872579 45.7276 0.498706 48.2348 3.37432 49.4679C4.96563 50.1485 5.65642 50.4299 7.3296 50.128C7.77987 50.0461 8.23012 50.1996 8.23012 49.7852C8.23012 49.2223 7.70823 49.7647 7.03794 48.772C6.50068 47.6259 5.6564 45.1903 4.85307 44.346C4.3414 43.8088 3.55852 43.3636 2.92405 43.0157C1.19458 42.0691 0.954097 41.7212 0.17635 40.1094C-0.539996 40.5596 -0.877701 41.8235 -0.877701 42.6012L-0.872579 42.5961Z" fill="white" fill-opacity="0.5"/>
<path fill-rule="evenodd" clip-rule="evenodd" d="M0.0846772 51.9871C0.0846772 52.9081 1.12338 55.1288 1.7118 56.014C1.19501 55.8758 0.545182 55.0315 0.304694 54.5455C0.105141 54.1463 -0.263262 51.9871 0.0846772 51.9871ZM-1.42986 53.8854C-4.2185 51.5112 -2.60672 53.7012 -1.39916 54.9087C-1.02564 55.2823 -0.723755 55.5176 -0.283714 55.8042C0.12051 56.0088 0.606584 56.2954 1.04151 56.3977C0.77032 56.0242 0.243309 56.0549 -0.989829 54.4994C-1.14845 54.2999 -1.24566 54.044 -1.42986 53.8854ZM-3.36401 48.7277H-3.26679C-3.26679 49.4901 -2.26903 52.3043 -1.82898 53.1383C-2.34066 53.0002 -2.96492 52.1406 -3.18494 51.5215C-3.46124 50.7488 -3.36401 49.7306 -3.36401 48.7277ZM-0.10464 54.4789C-0.114874 54.0798 -0.232542 53.8854 -0.278592 53.5989C-0.462796 52.4476 0.330284 50.2064 -2.02342 48.6305C-2.02342 48.9784 -2.01319 49.3366 -2.02342 49.6897C-2.02854 50.1604 -2.14112 50.1706 -2.13089 50.5493C-2.1053 51.3526 -1.27127 52.7699 -0.943796 53.3942C-0.744242 53.7728 -0.427006 54.2692 -0.114884 54.4789H-0.10464ZM-2.79094 48.1546C-2.69372 48.3695 -2.40718 49.485 -2.40718 49.7818C-2.23321 49.7818 -2.24857 49.2138 -2.25881 49.0449C-2.29462 48.5128 -2.22298 48.303 -2.79094 48.1495V48.1546ZM-3.91151 49.0194C-3.91151 49.6641 -4.07526 50.5493 -3.92175 51.588C-3.33844 55.4869 0.0846748 57.3597 3.72781 57.3597C3.83014 57.3597 4.67953 57.0424 3.53849 56.5922C3.21102 56.4642 3.03705 56.3977 2.77097 56.2135C1.63505 55.4153 1.01594 52.8927 0.581019 51.5982C-0.191611 49.3008 -0.78005 48.4156 -2.98026 47.3001C-4.71995 46.4149 -3.68125 47.121 -3.91151 49.0245V49.0194Z" fill="white" fill-opacity="0.5"/>
<path fill-rule="evenodd" clip-rule="evenodd" d="M7.17591 41.5383C7.17591 39.4609 7.55967 38.9083 7.55967 37.8952C7.80527 38.1766 7.82574 38.6985 7.84621 39.0465C7.91272 39.9726 7.77971 39.814 7.93321 41.1648C8.0509 42.2035 7.84623 41.5281 8.22487 43.1706C7.72855 42.838 7.17082 42.2086 7.17082 41.5434L7.17591 41.5383ZM5.06781 41.0625C5.20596 41.6509 5.79951 42.1267 6.1935 42.5259C6.52098 42.8584 7.1708 43.4418 7.65689 43.5543C7.3857 43.145 6.54656 42.2496 6.06559 41.8863L5.06781 41.0625ZM4.68405 39.7168L4.78127 37.3221C5.01153 37.5831 5.05758 37.9157 5.20085 38.3403C5.50274 39.2511 5.51809 39.814 5.83533 40.5815C5.97348 40.9243 6.12698 41.2518 6.21908 41.6355C5.99394 41.482 5.96326 41.3951 5.75859 41.2364C5.34925 40.9192 4.68405 40.3308 4.68405 39.7219V39.7168ZM6.79216 41.1546C6.79216 39.113 7.77458 37.757 7.24243 36.4881C7.02241 35.9662 6.37258 34.7023 6.02464 34.4465L5.92742 37.7059C5.92742 38.5297 6.23955 40.5252 6.79216 41.1546ZM5.26225 35.9815C4.75569 36.7132 5.16503 37.3579 5.16503 37.6087L5.26225 35.9815ZM4.43334 41.3132C4.91943 42.5207 7.0787 44.1121 8.26578 44.5726C8.65977 44.7261 9.52451 45.1098 9.77011 44.5623C9.83151 44.4191 9.6422 44.3218 9.39148 43.9893C9.01284 43.4929 8.50118 42.4747 8.51653 40.0084C8.52165 38.8469 8.35279 37.7417 7.99973 36.6876C7.61086 35.521 6.73075 33.7148 5.54367 33.2031L4.58174 35.7871C4.05472 37.6752 3.6607 39.4046 4.42822 41.3081L4.43334 41.3132Z" fill="white" fill-opacity="0.5"/>
<path fill-rule="evenodd" clip-rule="evenodd" d="M32.1921 40.0127C30.7696 39.895 30.7645 39.8438 29.2192 40.8774C29.2192 41.4812 29.2704 41.691 29.3165 42.218C29.3523 42.5915 29.4342 43.1851 29.5109 43.5535C29.9305 45.5592 29.5519 44.9401 31.1074 46.3677C31.66 46.8742 32.8112 47.4064 33.1694 48.8135C33.6503 50.7016 31.8902 54.6773 29.5365 53.6898C29.2653 53.5772 29.0965 53.3725 28.9327 53.1423C27.7968 51.5203 29.3011 51.1007 26.625 49.888C24.7063 49.0182 24.4402 49.1307 24.8393 46.8589C25.09 45.4416 25.3101 45.7639 25.5505 44.5973C25.6836 43.9475 25.8473 42.6273 26.1697 42.2436C27.0395 41.21 28.0219 41.2407 28.9839 40.6523C29.6337 40.2532 30.3654 39.6903 31.1227 39.7364L32.1819 40.0178L32.1921 40.0127ZM37.0632 35.5816L37.314 35.3564C38.9923 33.9647 42.0316 34.5377 43.0959 35.6276C44.6667 37.2343 45.1324 37.6283 45.992 39.8234C46.5855 41.3328 47.2763 44.4745 46.3962 45.8765C45.465 47.3501 43.449 50.2513 41.4637 48.2814C39.7751 46.6031 37.9228 44.3005 37.0223 42.1771C36.132 40.202 35.4924 37.4134 37.0581 35.5816H37.0632ZM53.1861 35.2183L57.3819 35.469C58.615 35.5253 60.2063 35.6225 61.4088 35.8118C62.7954 36.0318 66.5204 36.3593 67.4465 37.3468C69.0225 39.8336 65.3026 42.0594 63.4708 43.1083C62.0279 43.9372 61.112 44.2289 59.1267 44.2289C60.1449 44.5666 61.7209 44.2442 62.6521 44.014C63.1177 43.8963 64.3048 43.6865 64.7807 43.6507C65.0007 43.6353 65.1594 43.6046 65.2617 43.5995C67.0219 43.5177 67.1446 42.392 67.6563 41.8291C66.8888 45.1192 64.223 43.6609 61.9153 44.4284C60.1449 45.0169 59.1677 44.3773 57.4587 44.0703C56.8805 43.9679 56.425 43.9577 55.8059 43.8042C54.8542 43.5637 53.7592 43.2976 52.8638 42.9139C51.0422 42.1361 50.024 40.4169 49.6454 38.4674C49.5737 38.0888 49.2923 37.1626 49.2923 36.9426C49.2769 35.0443 51.9632 35.2183 53.1861 35.2183ZM85.1044 36.1751C84.516 35.7811 85.1045 35.95 84.0555 35.9858C83.5643 36.0011 82.8019 36.0165 82.321 35.9858C82.0395 35.9653 81.9372 35.9397 81.7683 35.9244C80.003 35.7914 77.9052 34.5633 76.2525 33.9084C75.8738 33.76 75.3366 33.627 75.2291 33.2074C75.8585 33.192 76.3855 32.8236 78.0536 32.8543C78.7853 32.8697 79.9621 32.9055 80.8985 33.192C82.1163 33.5656 84.7616 34.9113 85.0993 36.1802L85.1044 36.1751ZM75.2291 32.7264C76.4111 31.7542 78.7852 31.9845 79.4146 32.2813C79.6602 32.3989 79.563 32.3734 79.6398 32.4399C79.1383 32.3989 78.6369 32.051 77.5317 32.3427L75.2291 32.7264ZM15.1328 52.6613C16.2943 53.439 15.4603 56.4016 20.311 56.4016C20.311 55.6086 20.1165 54.9945 19.8146 54.4061C19.7584 54.2935 19.6765 54.1298 19.6202 54.0224C19.4821 53.7512 19.3951 53.5823 19.2518 53.3367C19.0574 53.0092 18.1517 51.6328 17.6196 51.423C17.4251 51.3463 17.374 51.3412 17.1488 51.3207C17.3433 50.9574 17.7628 49.4991 18.1057 49.4991C18.2387 50.0671 18.7146 51.2542 19.0318 51.7352C19.7174 52.7636 20.9915 52.6613 22.0558 52.5334C22.3167 52.5027 22.4958 52.5129 22.6084 52.0882C23.949 52.4003 23.5959 53.5465 23.7085 54.447C23.9746 56.5449 22.3065 59.0317 23.6318 60.3569C24.1485 60.8737 25.6785 61.6259 26.7121 61.1756C28.3392 60.6383 30.5854 59.9834 31.9618 59.4256C33.3843 58.8526 33.5838 58.6837 34.8937 57.8548C38.1121 55.8132 39.7393 56.504 42.4972 55.1992C45.1477 53.9456 47.614 53.0604 50.2082 51.8887C52.7666 50.4816 55.2175 48.7265 58.2568 48.7265L58.8299 49.7806C59.843 49.7601 59.9505 47.872 60.7487 49.0131C61.6185 50.2615 61.7925 48.8135 62.473 48.6293C62.4833 49.0233 62.7852 50.9677 63.1434 51.5049C63.8495 51.0342 64.1923 50.0364 64.3509 49.1666C64.443 48.6805 64.2844 48.4246 64.9598 48.527C65.5738 48.6191 65.492 49.801 65.451 50.2615C65.3794 51.0956 65.6352 51.7249 65.6352 52.559C66.6995 52.2775 67.293 50.1183 67.5898 49.2433C67.6768 48.7981 67.5744 48.921 67.8405 48.7265C68.1578 48.9619 68.0503 49.0642 68.1526 49.5657C68.301 50.3178 68.3471 52.2264 68.8025 52.559C70.0305 51.7352 70.4756 49.8164 70.5217 48.4349C70.537 48.005 70.6138 48.1074 70.6189 47.6725C71.0078 47.7748 70.9669 48.0153 71.1204 48.7981C71.2176 49.2842 71.3353 50.9165 71.4939 51.2951C71.4939 51.2951 71.5757 51.4435 71.6116 51.5612C71.6576 51.6993 71.6781 51.7863 71.7088 51.945C71.7804 52.2571 71.76 52.4106 71.76 52.7534C72.594 52.5283 73.1056 50.9062 73.3922 50.1694C73.6531 49.494 73.5764 48.2558 73.5355 47.4524C73.515 47.0073 73.4331 47.0124 73.8681 46.9101C73.8885 47.1506 74.2825 48.2558 74.349 49.2075C74.3951 49.8931 74.349 49.8829 74.5025 50.4918C74.61 50.9267 74.7328 51.2184 74.7328 51.6994C76.5032 51.2286 76.4827 47.4678 76.3599 46.0453C76.9176 45.8867 76.9688 46.4137 77.0404 46.9919C77.0865 47.3552 77.2093 47.7748 77.281 48.1893C77.4294 49.0233 77.3935 49.9136 77.7005 50.5481C78.4322 50.4867 78.9848 48.9977 79.1793 48.3786C79.5681 47.1608 79.1332 46.3114 79.1332 45.1806C79.9314 45.2471 79.9775 46.2295 80.1156 46.8845L80.571 49.1103C81.0878 49.0693 81.226 48.5321 81.405 48.1227C81.6558 47.5394 81.9014 46.9663 81.9423 46.2756C82.0498 44.6485 81.5023 44.3926 81.8144 43.7428C82.1521 43.8349 82.1981 44.1419 82.2953 44.5052C82.5717 45.5183 82.6484 46.5979 83.5387 47.1915L83.9123 46.3165C84.0248 46.0044 84.1067 45.6155 84.1732 45.2369C84.3063 44.5154 84.1323 43.3181 83.9225 42.8781C84.6491 42.7092 84.4035 43.2772 84.7463 44.1624L84.9919 44.7764C85.2528 45.3495 84.997 45.6565 85.8362 45.8509C86.2302 45.0322 86.1176 44.0089 86.0562 43.1237C86.0306 42.745 86.0255 42.4073 86.0255 42.0133L86.6753 43.4716C86.8544 44.2084 86.7418 45.0834 87.4633 45.0834C87.673 44.1879 87.8522 43.3386 87.8112 42.4738C87.7959 42.1157 87.5298 41.5784 87.847 41.343L88.0722 42.745C88.1541 43.1544 88.195 43.7888 88.5173 44.0242C88.9216 43.9168 89.1723 42.9702 89.2644 42.5659C89.4332 41.7984 89.2849 41.65 89.2849 40.7648C89.6379 40.6727 89.4844 40.6625 89.7658 40.4783C89.7658 39.6545 89.6993 39.5573 89.5356 38.887C89.2183 37.5771 88.4457 36.3695 87.5861 35.3769C86.7265 34.3842 85.8106 33.5093 84.7258 32.7776C82.4284 31.2272 80.9548 30.6388 78.2122 30.0913C76.3855 29.9173 75.0245 29.8457 73.1876 29.8457C71.1562 29.8457 66.8888 30.3676 64.8267 30.6899C62.3246 31.0839 59.1011 31.1607 56.5069 31.3807C54.8491 31.2886 53.094 31.2374 51.4669 30.9611C50.1826 30.7104 48.9494 30.3164 47.6805 30.4188C47.3428 30.4443 47.2763 30.3267 46.8311 30.3215C45.6441 30.3062 45.4189 30.5313 45.1989 30.2294L46.7902 30.0504C46.9897 30.0197 46.4115 29.7792 46.4115 29.7792C44.7179 29.3903 43.7764 30.342 42.4205 30.7053C42.7736 31.1914 44.5798 31.6621 45.2142 31.6621C44.0476 32.1482 42.4614 31.1402 42.0674 30.869C41.8679 30.7309 42.0316 30.8025 41.8423 30.7155C41.305 30.4648 40.6654 30.4188 40.0719 30.2806C39.0332 30.0401 38.0098 30.5006 37.4214 30.8793C36.8739 31.2016 35.7635 31.7696 35.3337 32.1482C36.5669 32.4348 36.7358 32.0203 37.8257 31.7645C37.6108 32.0561 37.3959 32.0919 37.0581 32.2454C36.2241 32.6241 35.8352 32.5064 34.8886 32.3017C33.7169 32.051 32.7856 31.9231 31.5883 31.7747C30.0942 31.5854 28.4108 31.2937 26.9321 31.611C26.0418 31.8003 25.878 32.1687 25.6887 33.0488C25.4943 33.9544 25.2026 34.1386 25.9241 34.461C26.3743 34.6861 27.7302 35.2439 27.8582 35.5969C25.7398 35.0341 25.7501 34.0568 22.7721 34.154C21.3804 34.2 20.2854 35.029 20.1882 36.4565C20.1421 37.1473 20.2854 37.4901 20.2854 38.0888C21.759 38.2116 21.1911 38.4828 22.8745 38.0888C22.6749 38.3651 21.8562 38.58 21.4418 38.5646C21.1194 38.5493 20.2854 38.3139 19.8607 38.2269C19.3951 38.1297 19.4411 38.1246 19.1188 38.1655L17.4865 38.4572C16.9646 38.5442 17.113 38.3548 16.8367 38.7642C17.2972 39.455 17.1488 38.7847 18.0033 40.4732C18.1312 40.7239 18.295 40.8621 18.3717 41.1588C18.0852 41.5477 17.3944 41.7626 16.9135 41.6654L15.1891 41.2765C14.176 41.123 13.3522 40.9081 12.6614 41.4914C12.4056 41.7063 12.3135 41.7626 12.1395 42.0236C12.4619 42.6273 13.8332 43.7223 14.3909 44.3773C14.9384 45.0271 15.4142 45.6616 15.798 46.4189C15.9259 46.6696 16.0896 46.864 16.1664 47.2017C15.6854 46.8794 15.4194 46.2449 15.1482 45.7281C14.7439 44.9606 14.3141 45.723 13.5569 46.3165C13.0401 46.7156 10.5124 46.2551 9.38157 46.5468C8.59871 46.7514 8.20983 47.6878 9.09503 48.3376C11.2799 49.9443 11.6841 49.5605 12.8763 50.3076L13.1987 50.5583C12.7791 50.5225 12.8968 50.4816 12.5488 50.3434L11.4743 49.9801C11.3925 50.3281 11.2645 50.6299 11.1213 50.9676C10.8347 51.6431 10.1849 51.9603 9.86767 52.5897C9.70393 52.912 9.73975 53.4135 9.64765 53.8075C9.86255 53.8586 9.95979 53.8893 10.144 53.9814C10.5431 54.181 11.3413 54.3805 11.4692 54.8615C11.0189 54.5596 10.6659 54.3549 10.0672 54.1554C9.77046 54.0531 9.55557 53.9149 9.28438 53.92C8.88527 53.961 8.42988 54.0275 8.03589 54.0377C7.18651 54.0582 6.43433 54.227 5.62589 54.2935C5.10909 54.3345 5.12444 54.4829 4.76115 54.5801C4.73557 55.6802 4.20854 55.67 6.89995 57.0412C7.69305 57.4455 8.60384 57.3022 9.62719 57.952C9.92908 58.1465 10.2156 58.1362 10.3179 58.5098C9.7244 58.1976 7.95912 57.164 7.44233 58.0288L6.4241 59.3131C6.4241 59.3131 6.39339 59.354 6.38316 59.3642L6.29618 59.4666C6.47527 60.2443 6.65947 60.93 6.96647 61.5747C6.53155 61.4161 6.34735 60.5462 6.16826 60.1676C5.70264 59.1647 4.96583 59.6713 3.71222 59.7531C3.23637 59.7838 3.01124 59.7685 2.6326 59.8299C1.78833 59.9629 1.11291 59.6099 1.02081 60.5258C1.00546 60.6741 1.01569 60.8276 1.05151 60.9658C1.17431 61.457 1.55294 61.5593 1.91112 61.8305L3.83502 63.3553C4.3467 63.7084 4.23925 64.4349 4.54626 64.9415C4.72534 65.2383 4.93001 65.1513 5.04769 65.5913C4.93512 65.5146 4.75602 65.4123 4.64857 65.3202C4.26481 65.0183 4.316 65.0131 3.80432 65.0131C3.63035 65.2741 3.63036 65.2741 3.52803 65.5965C3.44616 65.8523 2.70422 65.8318 3.32847 66.3537C3.69176 66.4356 4.20342 66.4305 4.49507 66.5277C4.87371 66.6505 5.14491 66.7477 5.24213 67.1213C4.93001 67.0394 5.09885 67.0496 4.84813 66.9422C4.02945 66.5942 2.67863 66.6607 1.8753 66.9166C0.519355 67.3464 0.463063 67.3362 -0.370968 68.6C-0.882644 69.3777 -2.0902 71.5524 0.110008 71.097C0.821237 70.9486 1.49155 70.7644 2.27442 70.7644L1.92136 70.9895C1.21525 71.3579 1.05662 72.2482 0.949164 72.9902C0.897996 73.3381 -0.294198 73.7628 0.831488 74.121C1.85996 74.121 2.31022 74.0852 3.19031 74.3461C3.69175 74.4945 4.95559 74.6582 5.14491 75.175C4.31088 74.9806 3.30287 74.5712 2.45349 74.5047C1.66551 74.4433 0.452847 74.8527 -0.161164 75.2313C-1.62456 76.1267 -2.3102 76.2854 -2.04925 78.2502C-1.80876 79.4117 -2.04924 79.8876 -1.08217 79.3912C1.39434 78.1172 1.55295 78.0506 4.95559 78.0506L2.98053 78.373C2.52002 78.4549 1.45574 78.7363 1.41481 79.3042C1.38411 79.6982 2.22324 81.53 2.42279 82.0212C2.7912 82.932 3.57407 82.3334 3.99876 82.0724C4.82256 81.6938 5.30353 81.3049 6.20408 81.3049L3.06239 83.4335C1.21524 85.0094 4.45415 84.0475 4.09086 84.9429C3.85549 85.5211 4.42856 85.6439 4.82255 85.7565C5.73845 86.0174 6.42411 84.8764 7.04324 84.2522L8.24566 83.0548C8.74199 82.4715 8.67037 82.0059 8.45035 81.264C8.32243 80.8444 8.29172 80.6704 7.83633 80.6295C7.83633 80.2867 8.76756 79.9438 8.07168 78.8591C7.67769 78.2451 7.26326 78.0404 6.49574 78.0404C6.49574 77.6515 6.46504 77.7334 6.59296 77.4673L10.011 79.6061C10.6045 79.9183 10.4459 80.1536 11.3822 80.1536C11.812 79.2991 11.2748 77.9534 11.1929 76.9864C11.0855 75.7328 10.6505 75.83 9.75511 75.1699C9.45322 74.3001 5.34447 72.9953 5.34447 72.9646C6.15804 72.9646 6.79251 73.2869 7.54979 73.3483C8.7113 73.4456 7.83633 72.2943 7.83633 71.5268C7.17627 71.0867 7.41676 71.0458 6.3013 71.0458C5.9636 71.0458 5.60031 71.0151 5.28307 71.0816C4.93513 71.1533 4.79698 71.2402 4.38764 71.2402C4.59231 70.9588 5.13469 70.8821 5.47751 70.8002C6.22456 70.6211 7.02787 69.9252 6.95623 69.0554C6.94088 68.8916 6.98693 68.4772 6.82319 68.1344L6.69018 67.8836C7.19674 67.9246 7.14556 68.3237 7.50885 69.081C7.71352 69.5057 7.77493 70.2015 8.09729 70.5034C8.35313 70.7439 9.81138 71.4705 10.1184 71.5575C11.1264 71.8389 10.3282 69.9917 10.2565 69.4954C10.144 68.7433 9.89838 66.7477 9.34066 66.2923C9.21785 66.1951 8.76247 66.0263 8.60896 65.97C8.13822 65.796 8.07682 66.0211 8.03077 65.4941C8.26614 65.6527 8.3173 65.7551 8.56802 65.4634C9.00806 64.9569 8.92108 64.6806 8.53732 64.2252C8.00006 63.5907 7.67257 63.4372 7.5907 63.1609C7.51907 62.9357 7.45769 62.4906 7.45769 62.2399H7.55491C7.55491 62.5315 7.57025 62.4087 7.63165 62.5469C7.64188 62.5673 7.65723 62.5878 7.66747 62.6083L8.35313 63.5549C8.35313 63.5549 8.43497 63.6214 8.46056 63.6419C8.47591 63.6521 8.4964 63.6726 8.51175 63.6828C8.52709 63.693 8.54755 63.7135 8.5629 63.7288C8.57825 63.7391 8.59871 63.7595 8.61406 63.7749C8.62941 63.7851 8.64989 63.8056 8.66524 63.8209C9.3867 64.4247 9.03364 64.1791 9.39693 64.8136C9.52485 65.0387 9.64765 65.1359 9.80627 65.3611L11.239 67.5715C11.7864 68.513 12.3698 69.4494 12.9326 70.3857C13.1168 70.7644 12.9991 70.7542 13.5108 70.7695C13.782 70.2015 14.0327 69.1884 13.8792 68.5846C13.5262 67.2134 13.4289 67.065 13.0349 65.8779C12.8661 65.3713 12.6103 64.8034 12.4158 64.2968C12.0935 63.6163 11.9451 62.9357 11.1213 62.7157C11.1213 62.0659 11.1469 62.3729 11.3822 61.9226C11.5102 61.677 11.5664 61.3803 11.4743 61.0221C11.3208 60.4132 10.497 60.4746 10.3538 59.9373C10.9422 60.2494 11.4436 60.3313 11.6739 61.0118L12.4619 62.7157C12.8354 63.4577 12.7945 63.6367 13.7052 63.867C14.3244 64.0205 15.0714 64.2508 15.8133 64.2508C15.8236 64.2303 15.8389 64.1689 15.844 64.1842C15.8492 64.1996 15.8696 64.1331 15.8799 64.1228C15.9924 63.9591 15.931 64.0461 16.0078 63.9642C15.8031 63.5753 15.8799 63.7288 15.7929 63.2172L14.5291 60.1676C14.4267 60.0141 14.4779 60.0499 14.35 59.8657C14.0736 59.4717 13.7564 58.8475 13.127 59.0726L12.7586 59.3745C12.7945 58.9498 13.0042 58.8782 13.1629 58.3409C13.3112 57.8446 13.255 57.5069 13.608 57.251C13.915 57.8906 14.616 59.2312 15.0663 59.6252C15.4142 59.9322 16.0129 60.0141 16.4581 60.0755C16.98 60.1471 17.5377 60.1625 18.0187 59.9322C18.0033 59.308 16.4888 55.9053 15.8389 55.5011C15.6343 55.3732 15.2966 55.235 14.9998 55.1992C14.6007 55.148 14.5137 55.3374 14.1862 55.4295C14.2118 55.1378 14.2783 54.969 14.3755 54.7592C14.0532 54.5903 14.1964 54.7489 13.9918 54.4726C14.3909 54.5033 14.5137 54.6722 14.8565 54.8564C14.9281 54.5443 15.01 54.4266 15.1021 54.1452C15.2352 53.7358 15.097 53.7256 15.5268 53.613C15.4961 53.26 15.2351 52.999 15.143 52.6562L15.1328 52.6613Z" fill="white" fill-opacity="0.5"/>
<path fill-rule="evenodd" clip-rule="evenodd" d="M44.1485 68.4117C45.6528 68.7443 47.1366 69.1536 48.6665 69.3583C49.7922 69.5067 49.6029 69.3276 49.8281 69.6346C47.6227 69.8188 44.7727 69.9365 42.8693 68.5447C39.6713 66.2012 42.3371 68.1149 44.1485 68.4117ZM41.2012 67.332C41.0324 67.332 41.1705 67.1274 41.2012 67.332V67.332ZM45.0337 62.0618C44.3634 61.8366 44.3276 61.6576 42.5418 61.7752C42.5418 63.1363 41.8971 63.607 40.6077 64.2518C39.9067 64.6048 37.6757 64.8351 37.4608 65.1318C37.7013 65.2597 37.8958 65.3212 38.5149 65.3212C38.167 65.5105 37.7269 65.3877 37.5632 65.3109C36.9441 65.0193 36.2328 64.3439 35.5421 63.9754C34.8308 64.349 34.0685 64.8197 33.4596 65.3416L32.692 66.0119C32.4618 66.237 32.4669 66.1552 32.3799 66.4673C32.6767 66.9125 33.5005 67.2451 33.9712 67.5623C36.6012 69.3276 42.9102 72.1264 45.7039 72.1264C47.1417 72.1264 49.649 72.0906 50.8719 71.8297C54.1773 71.1338 53.9726 71.6045 57.0171 69.8239C61.7705 66.9943 65.7002 65.2802 71.2928 65.316C72.8688 65.3263 75.7956 65.2751 77.0185 64.2364C78.1289 63.2949 78.9117 62.5018 80.4518 62.2051C83.5731 61.6115 86.244 61.2994 88.5721 58.7257C91.1766 55.8449 90.7365 53.5987 91.1203 52.3604C91.2277 52.0176 91.4887 51.2398 91.3915 50.8356L91.2022 50.5849C90.9566 50.3751 91.0077 50.6105 90.5626 50.6463C90.5421 50.3853 90.4755 50.2011 90.409 49.9351C90.2862 49.4387 89.795 48.6047 89.4113 48.3438C89.1401 48.5228 89.1708 48.5996 89.1555 48.7991L88.9303 50.2625L88.5977 49.2545C88.4391 48.9219 88.4852 48.9322 88.0656 48.9219C87.9837 49.1829 87.4618 51.1273 87.2981 51.1273C87.2981 50.8049 86.9501 49.9044 86.7199 49.6843C86.1775 49.1624 86.1212 50.4877 86.0342 50.8203C85.9319 51.204 85.7682 51.465 85.6659 51.8897C85.3281 51.6441 85.6044 51.9613 85.4304 51.5468C85.2616 51.1324 84.9802 50.2574 84.5146 50.2574C84.3764 50.8458 83.6037 52.1864 83.5577 52.7493H83.3684C83.3479 52.4832 83.3224 52.4372 83.2098 52.2376L82.9693 51.8078C82.8414 51.552 82.6418 51.1989 82.4064 51.0249C81.9971 51.3268 81.9817 51.7669 81.8487 52.2888C81.6492 53.0972 81.6287 53.5475 80.9686 53.9005C80.9584 53.5117 80.8612 53.1996 80.7128 52.9079C80.5695 52.6214 80.3649 52.3399 80.2933 52.079C79.7918 52.212 79.6229 52.954 79.5462 53.3428C79.4285 53.9364 79.2391 54.6118 78.5688 54.6681C78.5688 54.2843 78.5638 54.0233 78.3949 53.6908C78.1646 53.2507 77.9088 52.7288 77.5148 52.4627C77.1669 53.1228 76.5222 54.6578 76.3636 55.3384C76.1896 55.3384 75.2941 53.8647 75.115 53.614C74.8387 53.9824 74.7006 54.5043 74.5267 54.9444C74.3476 55.3946 74.2708 55.9984 73.6773 56.0138C73.6568 55.19 73.2679 54.8062 73.1042 54.095C72.4237 54.2792 72.1883 55.4253 71.9222 55.978C71.7277 56.3771 71.8301 56.4538 71.3798 56.4896C71.0831 55.8705 71.0575 54.7755 70.5151 54.3815C70.2081 54.6067 70.1058 55.0365 69.9113 55.4049C69.502 56.1826 69.6708 56.0138 69.0773 56.3003L68.6935 55.149C68.5298 55.1951 67.2352 56.0445 67.0664 56.3003C66.4063 56.3003 66.2989 56.464 65.7258 56.4947C62.9013 56.6431 59.1866 55.7272 55.8556 55.7272C51.9157 55.7272 48.3953 55.937 44.6192 56.858C41.9943 57.4976 39.5178 58.4698 36.9696 59.3704C35.3221 59.8565 27.1966 62.6246 26.0453 63.3972C26.0453 65.2342 28.1739 66.5543 29.8727 66.365C30.8961 66.2524 33.1986 64.5639 34.3805 63.9754C37.1282 62.7065 39.1493 62.3227 42.1785 61.5194C43.3246 61.2891 44.0922 61.4068 45.0183 62.0618H45.0337Z" fill="white" fill-opacity="0.5"/>
</g>
</g>
<defs>
<filter id="filter0_f_531_194082" x="-65" y="2" width="231" height="167" filterUnits="userSpaceOnUse" color-interpolation-filters="sRGB">
<feFlood flood-opacity="0" result="BackgroundImageFix"/>
<feBlend mode="normal" in="SourceGraphic" in2="BackgroundImageFix" result="shape"/>
<feGaussianBlur stdDeviation="24" result="effect1_foregroundBlur_531_194082"/>
</filter>
<clipPath id="clip0_531_194082">
<rect width="100" height="100" rx="50" fill="white"/>
</clipPath>
</defs>
</svg>
